<svg width="75" height="90" viewBox="0 0 75 90" fill="none" xmlns="http://www.w3.org/2000/svg">
<path d="M35.8947 26.7231L35.7119 23.8167L41.0677 23.4798L41.2504 26.3878L38.6423 27.6655L35.8947 26.7231Z" fill="#787878"/>
<path d="M41.0038 22.4761C41.2701 22.4594 41.533 22.5484 41.7332 22.7248C41.9332 22.9011 42.0544 23.1501 42.0713 23.4162L42.2548 26.3241L41.2495 26.3863L41.251 26.3878L42.2548 26.3241C42.2803 26.7301 42.0589 27.1123 41.6937 27.2915L39.0857 28.5696C38.8458 28.6871 38.568 28.7032 38.3154 28.6166L35.5678 27.675L35.4298 27.6159C35.1644 27.4778 34.9743 27.2276 34.9113 26.9352L34.89 26.7866L34.7081 23.8801C34.6732 23.3257 35.0939 22.8479 35.6482 22.8127L41.0038 22.4761ZM36.7778 24.7564L36.8567 25.9876L38.5747 26.5773L40.2032 25.7798L40.1259 24.5457L36.7778 24.7564Z" fill="#1A1A1A"/>
<ellipse cx="37.5506" cy="15.2736" rx="15.2752" ry="15.2736" fill="url(#paint0_radial_9800_57957)"/>
<path d="M41.5751 23.6445L34.8673 24.3416C34.6437 23.1787 34.6887 20.5735 33.9282 19.4573C32.9775 18.0615 29.501 17.3629 29.501 14.5714C29.501 11.7799 32.855 8.29134 37.1752 8.29134C41.4955 8.29134 45.5999 10.3842 45.5999 13.1757C45.5999 15.9671 42.2461 17.3629 41.5751 18.7586C41.0385 19.8749 41.5751 22.3621 41.5751 23.6445Z" fill="#FFE054"/>
<path d="M44.5944 13.1764C44.5944 12.3175 43.951 11.3633 42.5186 10.5656C41.1219 9.78784 39.188 9.29807 37.1751 9.29807C35.2886 9.29812 33.6013 10.0598 32.385 11.1372C31.1454 12.2352 30.5079 13.5522 30.5078 14.5713C30.5078 15.4584 31.0232 16.0694 31.9392 16.7166C32.4367 17.0681 32.8461 17.297 33.3918 17.6597C33.8577 17.9692 34.402 18.366 34.7596 18.8908C35.0451 19.3098 35.2214 19.8118 35.3403 20.2811C35.4618 20.7608 35.54 21.2758 35.5981 21.7624C35.6561 22.2482 35.6965 22.7392 35.7346 23.1527C35.7372 23.1815 35.7395 23.2098 35.7421 23.2376L40.511 22.7418C40.5065 22.694 40.5037 22.6449 40.4988 22.5948C40.4583 22.1781 40.4047 21.6891 40.3699 21.212C40.3351 20.7336 40.315 20.2261 40.3442 19.7505C40.3725 19.2886 40.4521 18.7728 40.6686 18.3222C40.9305 17.7779 41.4038 17.3129 41.8104 16.9441C42.2955 16.5041 42.6747 16.2074 43.1478 15.7599C44.0284 14.9271 44.5941 14.1338 44.5944 13.1764ZM46.6065 13.1764C46.6062 15.0098 45.4944 16.3101 44.5307 17.2215C44.0817 17.6462 43.4954 18.133 43.163 18.4344C42.7526 18.8067 42.556 19.0408 42.4822 19.194C42.4305 19.3015 42.3753 19.5164 42.3533 19.8748C42.3322 20.2193 42.3453 20.6237 42.3775 21.0665C42.4099 21.5109 42.4586 21.9541 42.5019 22.3992C42.5434 22.8262 42.5807 23.2681 42.5807 23.644C42.5807 24.1593 42.1912 24.5913 41.6785 24.6446L34.9718 25.3421C34.4526 25.396 33.9771 25.0435 33.8786 24.5309C33.8119 24.1839 33.7699 23.7537 33.7315 23.3362C33.6913 22.8995 33.6533 22.4506 33.5996 22.0004C33.546 21.5516 33.4796 21.134 33.3888 20.7754C33.2953 20.406 33.1909 20.1625 33.0962 20.0234C32.9782 19.8505 32.7318 19.636 32.2789 19.335C31.9058 19.0871 31.2678 18.7049 30.7777 18.3586C29.7179 17.6098 28.4941 16.4755 28.4941 14.5713C28.4942 12.799 29.5334 10.9757 31.0507 9.63163C32.5913 8.26693 34.7415 7.28466 37.1751 7.28461C39.4822 7.28461 41.7609 7.84189 43.4966 8.80835C45.1962 9.75485 46.6065 11.2439 46.6065 13.1764Z" fill="#E4981F"/>
<defs>
<radialGradient id="paint0_radial_9800_57957" cx="0" cy="0" r="1" gradientTransform="matrix(5.12431 13.7969 -13.7983 5.12377 37.5506 15.2736)" gradientUnits="userSpaceOnUse">
<stop stop-color="#F7E922" stop-opacity="0.8"/>
<stop offset="0.865385" stop-color="#F7E922" stop-opacity="0"/>
</radialGradient>
</defs>
</svg>
