<svg width="75" height="86" viewBox="0 0 75 86" fill="none" xmlns="http://www.w3.org/2000/svg">
<path d="M66.6358 66.5054C66.6358 76.95 55.0702 83.8142 38.0798 83.8142C21.0878 83.8142 11.5469 73.1802 11.5469 65.0972C11.5469 57.0158 15.9067 53.9028 20.4528 46.4719C25.0858 38.8981 25.904 29.3789 38.0798 29.3789C50.2555 29.3789 53.5844 40.3979 57.778 49.0026C60.4206 54.4259 66.6358 56.0609 66.6358 66.5054Z" fill="#7F699B"/>
<path d="M10.3823 65.0969C10.3824 60.8005 11.5554 57.7942 13.3011 54.9336C14.1577 53.53 15.1589 52.1511 16.1971 50.7017C17.2432 49.2413 18.3474 47.6822 19.4601 45.8634C20.5771 44.0372 21.4674 42.0888 22.3955 40.1108C23.3108 38.1602 24.2653 36.176 25.4811 34.4218C26.7076 32.6522 28.2226 31.0808 30.2845 29.9611C32.347 28.841 34.8797 28.2144 38.0795 28.2144C44.6101 28.2144 48.8052 31.209 51.8531 35.2649C54.8206 39.214 56.7937 44.3252 58.8247 48.4926L59.0567 48.9399C59.6198 49.9648 60.336 50.8664 61.1491 51.7859C62.0462 52.8002 63.1452 53.923 64.1119 55.1504C66.1401 57.7256 67.8009 60.9947 67.8009 66.5055C67.8008 72.2282 64.6076 76.8945 59.3296 80.0744C54.0784 83.238 46.7117 84.9779 38.0795 84.9779C20.6805 84.9778 10.3823 74.036 10.3823 65.0969ZM12.7113 65.0969C12.7113 72.3238 21.4948 82.6489 38.0795 82.649C46.4375 82.649 53.3496 80.9584 58.1288 78.079C62.8809 75.2158 65.4719 71.2271 65.4719 66.5055C65.4719 61.5718 64.0233 58.8001 62.2833 56.5908C61.3661 55.4264 60.4152 54.4714 59.4039 53.3279C58.4248 52.2206 57.4598 51.0091 56.7308 49.513C54.5683 45.0759 52.7802 40.3743 49.9911 36.6629C47.2822 33.0583 43.7244 30.5433 38.0795 30.5433C35.1916 30.5433 33.056 31.1065 31.3959 32.008C29.7354 32.9098 28.4736 34.1918 27.3946 35.7486C26.3048 37.3208 25.4247 39.1367 24.5031 41.1009C23.5945 43.0374 22.6455 45.1192 21.4463 47.0794C20.2861 48.9758 19.1392 50.5932 18.0894 52.0588C17.0318 53.5352 16.0904 54.8332 15.2889 56.1466C13.7182 58.7204 12.7113 61.3121 12.7113 65.0969Z" fill="#1A1A1A"/>
<path d="M22.7115 38.5426C25.8991 30.3634 33.4899 28.0407 37.2426 27.9475C47.4527 27.9475 52.7984 34.6798 54.9488 39.7926C55.4426 40.9679 54.2501 41.9756 53.0872 41.4554L42.9237 36.9L38.5763 43.7518C37.9615 44.7206 36.5424 44.7097 35.9415 43.7316L31.7525 36.9L24.6554 40.2195C23.491 40.7645 22.2442 39.7413 22.7115 38.5426Z" fill="#009951"/>
<path d="M37.2428 26.783C48.0807 26.783 53.7617 33.9644 56.0229 39.3405C56.4702 40.4058 56.1524 41.4836 55.4058 42.1364C54.725 42.7317 53.7385 42.9369 52.7994 42.5943L52.6114 42.5185L43.3669 38.3731L39.5596 44.3759C38.4828 46.0722 36.0013 46.0515 34.9502 44.341L34.9487 44.3395L31.3021 38.3943L25.1492 41.2737C24.1452 41.7436 23.0576 41.5477 22.3199 40.9234C21.5653 40.2849 21.2016 39.2112 21.627 38.1199C25.0379 29.3675 33.1572 26.8837 37.214 26.783H37.2428ZM37.264 29.1119C33.8125 29.2005 26.7587 31.3655 23.7967 38.966C23.7673 39.0416 23.7766 39.0756 23.7785 39.0827C23.7823 39.0964 23.7935 39.1206 23.824 39.1464C23.8841 39.197 24.002 39.2396 24.1621 39.1646L32.2013 35.4043L36.9335 43.122C37.0841 43.3673 37.4399 43.3687 37.593 43.128L42.4799 35.4255L53.5636 40.3927C53.7327 40.4684 53.8355 40.4162 53.8729 40.3836C53.8931 40.366 53.8963 40.3524 53.8972 40.3488C53.8978 40.3462 53.8999 40.3395 53.8987 40.326C53.8975 40.3125 53.8931 40.2853 53.8759 40.2442C51.8378 35.3982 46.8323 29.1212 37.264 29.1119Z" fill="#1A1A1A"/>
<path d="M36.0366 24.6187H42.7254L40.2784 31.2763L39.7459 31.489C39.0565 31.7654 38.291 31.7856 37.5893 31.5449L36.799 31.2763L36.0366 24.6187Z" fill="#009951"/>
<path d="M42.7246 23.4541C43.1049 23.4541 43.462 23.6397 43.6798 23.9514C43.8976 24.2635 43.9491 24.6632 43.8178 25.0204L41.3706 31.6782C41.2566 31.988 41.0161 32.235 40.7095 32.3575L40.1773 32.5682L40.1788 32.5697C39.2314 32.9495 38.1782 32.9784 37.2115 32.6471V32.6456L36.4246 32.3787C35.9983 32.2338 35.6935 31.8557 35.6422 31.4083L34.8796 24.7505C34.842 24.421 34.9469 24.0913 35.1676 23.8438C35.3886 23.5961 35.7045 23.4541 36.0365 23.4541H42.7246ZM37.8711 30.4106L37.9636 30.4425L37.9666 30.444C38.4034 30.5938 38.8819 30.5804 39.3131 30.4076L39.3646 30.3864L41.0567 25.783H37.3419L37.8711 30.4106Z" fill="#1A1A1A"/>
<path d="M41.2568 66.3318H34.2568L37.7568 71.5818L41.2568 66.3318Z" fill="#FFAFA3"/>
<path d="M41.2575 65.1672C41.6868 65.1674 42.0814 65.4043 42.284 65.7828C42.4863 66.1613 42.4643 66.6205 42.2264 66.9776L38.7254 72.2284C38.5093 72.5519 38.1455 72.7469 37.7565 72.7469C37.3675 72.7468 37.0035 72.552 36.7876 72.2284L33.2881 66.9776C33.05 66.6204 33.0281 66.1614 33.2305 65.7828C33.4332 65.4042 33.8276 65.1672 34.257 65.1672H41.2575ZM37.7565 69.4809L39.0817 67.4962H36.4328L37.7565 69.4809Z" fill="#1A1A1A"/>
<path d="M47.0139 64.433C47.5145 65.0161 48.3931 65.084 48.9762 64.5834C49.5591 64.0828 49.6251 63.2042 49.1248 62.6211C47.601 60.8461 45.8392 60.3278 44.2127 60.6389C42.7169 60.9251 41.5453 61.8708 40.9041 62.6284C40.4077 63.215 40.4806 64.0924 41.0672 64.5888C41.6538 65.0853 42.5312 65.0124 43.0277 64.4258C43.396 63.9906 44.0464 63.5051 44.7345 63.3731C45.2922 63.2663 46.0785 63.3434 47.0139 64.433Z" fill="#1A1A1A"/>
<path d="M31.5031 64.433C32.0038 65.0161 32.8823 65.084 33.4654 64.5834C34.0483 64.0828 34.1144 63.2042 33.614 62.6211C32.0902 60.8461 30.3284 60.3278 28.7019 60.6389C27.2062 60.9251 26.0346 61.8708 25.3934 62.6284C24.8969 63.215 24.9699 64.0924 25.5565 64.5888C26.1431 65.0853 27.0205 65.0124 27.517 64.4258C27.8853 63.9906 28.5356 63.5051 29.2238 63.3731C29.7815 63.2663 30.5677 63.3434 31.5031 64.433Z" fill="#1A1A1A"/>
</svg>
