<svg width="75" height="86" viewBox="0 0 75 86" fill="none" xmlns="http://www.w3.org/2000/svg">
<path d="M28.4358 26.4103C28.0781 25.1816 26.7811 24.434 25.5387 24.7405C24.2962 25.047 23.579 26.2914 23.9366 27.5201L30.4044 49.7419C30.762 50.9706 32.0591 51.7182 33.3015 51.4117C34.5439 51.1052 35.2612 49.8608 34.9036 48.6321L28.4358 26.4103Z" fill="#383838"/>
<path d="M17.0791 37.7166L19.6021 40.356C20.9762 41.7953 23.2741 41.7953 24.6482 40.356C26.0223 38.9183 28.3202 38.9183 29.6942 40.356C31.0683 41.7953 33.3662 41.7953 34.7403 40.356C36.1144 38.9183 38.4123 38.9183 39.7863 40.356L39.9012 40.4755C41.2132 41.8496 43.4055 41.8496 44.7175 40.4755L44.9333 40.2505C46.2142 38.9106 48.3848 39.0083 49.54 40.4585C50.6361 41.8357 52.6654 42.0064 53.9759 40.8311L57.4475 37.7166L52.7151 79.2728C52.5365 80.8409 51.209 82.0271 49.63 82.0271H24.1094C22.5071 82.0271 21.1687 80.8083 21.0166 79.2153L17.0791 37.7166Z" fill="#B3B3B3"/>
<path d="M39.6207 75.699L36.9229 74.1614L34.1568 79.0146L36.8547 80.5522L39.6207 75.699Z" fill="#D9D9D9"/>
<path d="M42.7262 66.7793L40.0283 65.2417L37.2623 70.0949L39.9601 71.6325L42.7262 66.7793Z" fill="#D9D9D9"/>
<path d="M44.0019 75.0469L40.9785 74.3384L39.7039 79.7771L42.7273 80.4857L44.0019 75.0469Z" fill="#D9D9D9"/>
<path d="M45.2551 66.7635L43.6162 69.4011L48.3611 72.3494L49.9999 69.7118L45.2551 66.7635Z" fill="#D9D9D9"/>
<path d="M50.1642 60.5519L47.4229 62.0105L50.0467 66.942L52.7881 65.4835L50.1642 60.5519Z" fill="#D9D9D9"/>
<path d="M47.8304 73.3549L45.3691 75.2483L48.7753 79.6758L51.2365 77.7824L47.8304 73.3549Z" fill="#D9D9D9"/>
<path d="M27.7513 70.6294L26.2256 73.334L31.0909 76.0786L32.6167 73.374L27.7513 70.6294Z" fill="#D9D9D9"/>
<path d="M24.616 64.0799L21.7363 65.2417L23.8264 70.4221L26.7061 69.2602L24.616 64.0799Z" fill="#D9D9D9"/>
<path d="M34.9031 66.0474L31.7988 65.9683L31.6564 71.5527L34.7607 71.6318L34.9031 66.0474Z" fill="#D9D9D9"/>
<path d="M26.5029 74.2305L23.5361 75.1475L25.1857 80.4845L28.1525 79.5675L26.5029 74.2305Z" fill="#D9D9D9"/>
<path d="M59.961 29.9534H14.565C13.3808 29.9534 12.4209 30.9133 12.4209 32.0974C12.4209 33.2816 13.3808 34.2415 14.565 34.2415H59.961C61.1452 34.2415 62.1051 33.2816 62.1051 32.0974C62.1051 30.9133 61.1452 29.9534 59.961 29.9534Z" fill="#1A1A1A"/>
<path d="M58.1281 31.894C59.2761 31.894 60.19 32.8862 60.0568 34.0501V34.0517C58.8796 44.2023 56.5222 64.3428 55.0411 77.2752C54.615 81.0043 51.4597 83.8177 47.707 83.8177H26.604C23.3985 83.8177 20.5857 81.7022 20.0462 78.4305C18.4363 68.6756 15.837 46.6734 14.4604 34.0335H14.4589L14.4482 33.8166C14.4495 32.7448 15.3307 31.894 16.3905 31.894H58.1281ZM16.8227 34.223C18.2119 46.9348 20.7654 68.4815 22.3448 78.0515C22.681 80.0898 24.4249 81.4888 26.604 81.4888H47.707C50.2764 81.4888 52.4343 79.5623 52.7258 77.0098H52.7273C54.1875 64.2599 56.4988 44.5015 57.6915 34.223H16.8227Z" fill="#1A1A1A"/>
<path fill-rule="evenodd" clip-rule="evenodd" d="M34.6872 59.5037C35.1667 59.9323 35.9028 59.8911 36.3315 59.4117C37.2227 58.4147 38.771 58.3772 39.7101 59.3302L39.8327 59.4543C40.2849 59.9116 41.0222 59.9158 41.4795 59.4636C41.9369 59.0115 41.9411 58.2742 41.4889 57.8169L41.369 57.6956C41.3687 57.6953 41.3693 57.6959 41.369 57.6956C39.4869 55.7865 36.3825 55.8601 34.5952 57.8595C34.1665 58.3389 34.2078 59.0751 34.6872 59.5037Z" fill="#1A1A1A"/>
<path d="M42.218 55.5933C42.4506 55.1733 43.0096 55.0053 43.466 55.2192C43.467 55.2197 43.4692 55.2209 43.4719 55.2222C43.4778 55.2249 43.4875 55.2301 43.5002 55.2358C43.526 55.2475 43.566 55.2634 43.6154 55.2847C43.7151 55.3276 43.855 55.3868 44.0149 55.4468C44.3573 55.5753 44.7092 55.6808 44.9465 55.7065C45.1735 55.731 45.5273 55.7078 45.8791 55.6626C46.0435 55.6415 46.1892 55.6182 46.2932 55.6001C46.345 55.5911 46.3872 55.5838 46.4143 55.5786C46.4269 55.5762 46.4365 55.573 46.4426 55.5718C46.4454 55.5713 46.4482 55.571 46.4494 55.5708C46.9495 55.469 47.446 55.76 47.5569 56.2202C47.6671 56.6805 47.3499 57.1359 46.8498 57.2378L46.8449 57.2397C46.842 57.2403 46.837 57.2417 46.8322 57.2427L46.6379 57.2778C46.5123 57.2997 46.337 57.3283 46.1369 57.354C45.7589 57.4026 45.2061 57.4543 44.7297 57.4028C44.2294 57.3487 43.6838 57.1654 43.3147 57.0269C43.1194 56.9536 42.9493 56.8847 42.8283 56.8325C42.7681 56.8066 42.7185 56.7847 42.6838 56.769C42.6664 56.7612 42.6508 56.7541 42.6408 56.7495C42.6363 56.7474 42.6319 56.7459 42.6291 56.7446L42.6242 56.7417L42.466 56.6479C42.1286 56.4007 42.0152 55.9609 42.218 55.5933ZM45.3235 51.6919C46.3481 51.6919 47.1789 52.4567 47.1789 53.3999C47.1788 54.343 46.3481 55.1079 45.3235 55.1079C44.2988 55.1079 43.4681 54.3431 43.468 53.3999C43.468 52.4567 44.2987 51.6919 45.3235 51.6919Z" fill="#1A1A1A"/>
<path d="M32.9178 55.5933C32.6852 55.1732 32.1262 55.0054 31.6698 55.2192C31.6688 55.2197 31.6666 55.2209 31.6639 55.2222C31.658 55.2249 31.6484 55.2301 31.6356 55.2358C31.6098 55.2475 31.5699 55.2633 31.5203 55.2847C31.4207 55.3276 31.2808 55.3867 31.1209 55.4468C30.7784 55.5753 30.4266 55.6808 30.1893 55.7065C29.9623 55.731 29.6085 55.7078 29.2567 55.6626C29.0924 55.6415 28.9466 55.6182 28.8426 55.6001C28.7908 55.5911 28.7486 55.5838 28.7215 55.5786C28.7087 55.5762 28.6993 55.573 28.6932 55.5718C28.6901 55.5712 28.6865 55.571 28.6854 55.5708C28.1855 55.4693 27.6898 55.7601 27.5789 56.2202C27.4687 56.6804 27.7851 57.1358 28.285 57.2378L28.2908 57.2397C28.2938 57.2403 28.2981 57.2418 28.3026 57.2427L28.4979 57.2778C28.6236 57.2997 28.7988 57.3283 28.9989 57.354C29.3769 57.4026 29.9296 57.4543 30.4061 57.4028C30.9064 57.3487 31.452 57.1654 31.8211 57.0269C32.0163 56.9536 32.1865 56.8846 32.3074 56.8325C32.3676 56.8066 32.4173 56.7847 32.452 56.769C32.4692 56.7613 32.484 56.7541 32.494 56.7495C32.4986 56.7474 32.5028 56.746 32.5057 56.7446L32.5115 56.7417L32.6698 56.6479C33.007 56.4007 33.1205 55.9609 32.9178 55.5933ZM29.8123 51.6919C28.7876 51.6919 27.9569 52.4567 27.9569 53.3999C27.9569 54.3431 28.7877 55.1079 29.8123 55.1079C30.8369 55.1078 31.6677 54.343 31.6678 53.3999C31.6678 52.4567 30.8369 51.692 29.8123 51.6919Z" fill="#1A1A1A"/>
</svg>
