<svg width="75" height="86" viewBox="0 0 75 86" fill="none" xmlns="http://www.w3.org/2000/svg">
<path d="M6.39742 71.865V31.7016C6.27325 30.7607 6.48048 28.8789 8.30267 28.8789C10.5804 28.8789 14.6489 32.5353 14.6489 37.1358H18.0576C18.6593 33.8458 21.522 28.8789 24.2037 28.8789C27.5559 28.8789 26.0087 39.5486 26.0087 40.5749C26.0087 41.3962 27.1559 41.758 27.4998 43.0824L61.7366 62.1828C61.7366 67.7832 71.6079 72.0917 71.6079 73.9099C71.6079 75.3631 67.1385 75.6861 64.9038 75.6659C66.7691 76.6145 70.5 78.9978 70.5 80.9371C70.5 83.3607 66.3027 84.7736 62.8635 84.7736C59.4241 84.7736 52.4289 82.7537 50.9716 82.7537C49.5143 82.7537 43.9181 84.8777 37.0395 84.8777C30.1609 84.8777 19.7846 80.9371 18.8184 80.9371C17.8521 80.9371 8.91145 86.9163 3.29219 84.8777C1.82656 84.3451 5.04683 75.0619 6.39742 71.865Z" fill="#444444"/>
<path d="M66.2777 51.8828C66.2777 57.0887 63.7287 59.6987 61.0824 62.7776C62.5333 65.4108 61.6992 73.6972 45.9535 73.6972C30.2078 73.6972 23.4766 66.1887 23.4766 54.8607C23.4766 43.5343 32.312 34.352 43.2111 34.352C54.1105 34.352 66.2777 40.5563 66.2777 51.8828Z" fill="#757575"/>
<path fill-rule="evenodd" clip-rule="evenodd" d="M23.5285 30.902C23.5285 30.902 23.5377 30.9114 23.5535 30.9417C23.5359 30.9191 23.5285 30.902 23.5285 30.902Z" fill="#1A1A1A"/>
<path fill-rule="evenodd" clip-rule="evenodd" d="M30.4629 40.4881C26.8643 44.0576 24.6408 49.4861 24.6408 56.921C24.6408 62.6275 27.2567 66.2044 30.5333 68.4206C33.8664 70.6749 37.9069 71.5257 40.5895 71.6047C41.2324 71.6237 41.7382 72.1601 41.7192 72.803C41.7003 73.4458 41.1638 73.9516 40.521 73.9327C37.5106 73.844 33.0116 72.9085 29.2285 70.3497C25.3889 67.7527 22.3118 63.4896 22.3118 56.921C22.3118 51.6467 23.369 47.1861 25.3004 43.5831C25.6814 42.8724 26.0963 42.1951 26.5439 41.5515C27.2288 40.5666 27.9902 39.6605 28.8228 38.8346C32.9537 34.7372 38.7081 32.7434 45.2132 32.7434C58.2992 32.7434 67.4628 41.7953 67.4628 52.5022C67.4628 57.8753 65.2169 61.3058 61.8861 63.3236C61.8817 63.3263 61.8774 63.3289 61.873 63.3315C61.7284 63.4189 61.5819 63.5035 61.4338 63.5854C58.2701 65.3339 54.3405 65.8393 50.7691 65.8393C46.8095 65.8393 44.0115 64.4199 42.3599 62.1714C40.7363 59.9611 40.3528 57.1285 40.8266 54.5191C41.3683 51.5355 44.0752 49.5983 46.7293 49.3332C48.0888 49.1974 49.5182 49.4855 50.7125 50.3588C51.9175 51.2398 52.7749 52.6372 53.1216 54.5158C53.2383 55.1483 52.8202 55.7556 52.1877 55.8723C51.5553 55.989 50.948 55.5709 50.8313 54.9384C50.5743 53.5457 49.9872 52.7135 49.3379 52.2388C48.678 51.7563 47.8436 51.5625 46.9608 51.6507C45.1304 51.8335 43.4389 53.1677 43.1181 54.9351C42.7295 57.0752 43.0791 59.2165 44.2369 60.7927C45.3666 62.3307 47.3981 63.5104 50.7691 63.5104C54.356 63.5104 57.9834 62.9648 60.6793 61.3317C63.2805 59.7559 65.1339 57.1002 65.1339 52.5022C65.1339 43.264 57.2034 35.0724 45.2132 35.0724C39.1799 35.0724 34.0659 36.9144 30.4629 40.4881Z" fill="#1A1A1A"/>
<path fill-rule="evenodd" clip-rule="evenodd" d="M8.54279 72.7702L8.72636 72.3371V31.5494L8.70635 31.3973C8.70403 31.3798 8.70192 31.3588 8.70031 31.335C8.80408 31.3809 8.92761 31.4432 9.07027 31.5277C9.53742 31.8025 10.0718 32.2372 10.5765 32.8148C11.5983 33.9839 12.32 35.5242 12.32 37.1358V39.4647H19.9994L20.3486 37.555C20.5839 36.2679 21.3089 34.5041 22.2754 33.085C22.753 32.3832 23.2273 31.8599 23.6398 31.5339C23.6737 31.5071 23.7061 31.4826 23.7369 31.46C23.9191 32.1388 24.0203 33.1459 24.0345 34.369C24.0494 35.6623 23.9671 37.01 23.8768 38.1264C23.8393 38.5892 23.8011 39.0035 23.7684 39.3587L23.7494 39.5657L23.7453 39.6112C23.716 39.9286 23.6797 40.3231 23.6797 40.5749C23.6797 41.3745 23.9738 41.994 24.2533 42.4163C24.4661 42.736 24.7334 43.0248 24.8683 43.1707L24.9114 43.2175C25.2135 43.545 25.2293 43.6059 25.2454 43.6677L25.3004 43.5831C25.6814 42.8724 26.0963 42.1951 26.5439 41.5515C26.2497 41.2312 26.0087 40.9513 26.0087 40.5749C26.0087 40.4272 26.0407 40.08 26.0855 39.5937C26.3524 36.6996 27.0736 28.8789 24.2037 28.8789C21.522 28.8789 18.6593 33.8458 18.0576 37.1358H14.6489L14.6489 37.1268C14.6436 32.5306 10.5789 28.8789 8.30266 28.8789C6.48048 28.8789 6.27325 30.7615 6.39742 31.7024L6.39741 71.865C5.04683 75.0619 1.82656 84.3451 3.29219 84.8777C7.56397 86.4274 13.7552 83.3436 16.9034 81.7755C17.8964 81.2809 18.5867 80.9371 18.8184 80.9371C19.0818 80.9371 20.0446 81.2299 21.4451 81.656C25.1821 82.7927 32.0361 84.8777 37.0395 84.8777C41.75 84.8777 45.859 83.8816 48.4494 83.2537C49.6417 82.9647 50.5122 82.7537 50.9716 82.7537C51.5462 82.7537 52.9817 83.0677 54.7207 83.4481C57.3923 84.0325 60.7802 84.7736 62.8635 84.7736C66.3027 84.7736 70.5 83.3607 70.5 80.9371C70.5 79.9293 69.4923 78.8015 68.2626 77.8176C67.126 76.9082 65.7997 76.1215 64.9038 75.6659C65.968 75.6755 67.5389 75.6073 68.8926 75.3763C70.3816 75.1222 71.6079 74.6711 71.6079 73.9099C71.6079 73.2499 70.3074 72.2619 68.6505 71.0031C66.0598 69.0349 62.5977 66.4046 61.873 63.3315C61.7284 63.4189 61.5819 63.5035 61.4338 63.5854L61.4236 63.6325C61.5064 64.0063 61.6472 64.935 61.5478 65.6595C61.4484 66.3839 61.2511 66.9733 61.1649 67.1774C61.2498 67.2973 61.3361 67.4149 61.4236 67.5301C62.5177 68.9725 63.9216 70.2317 65.2039 71.272C65.8528 71.7999 66.496 72.2905 67.0753 72.7314L67.271 72.8802L67.2726 72.8814C67.4154 72.9899 67.5528 73.0944 67.6851 73.1953C66.7175 73.3057 65.6895 73.3438 64.9248 73.3369C63.8438 73.3276 62.8983 74.062 62.6415 75.1132C62.3847 76.1628 62.8841 77.2511 63.8475 77.7418C64.6748 78.1625 65.9217 78.9078 66.9239 79.7307C67.427 80.1437 67.7943 80.5163 68.0173 80.816C68.055 80.8667 68.0847 80.9103 68.1082 80.947C67.995 81.0804 67.7122 81.3317 67.0269 81.6358C65.8922 82.1388 64.3136 82.4447 62.8635 82.4447C61.4361 82.4447 59.0789 82.0037 56.6613 81.4867C56.1814 81.3842 55.6934 81.2775 55.2207 81.1742C54.5765 81.0334 53.9608 80.8988 53.433 80.7896C52.6007 80.6172 51.6271 80.4247 50.9716 80.4247C50.2715 80.4247 49.3419 80.6452 48.6085 80.8206C48.3817 80.8746 48.1467 80.9314 47.9022 80.9905C47.2031 81.1596 46.4264 81.3474 45.5437 81.5395C43.1853 82.0519 40.2468 82.5487 37.0395 82.5487C33.9414 82.5487 29.8921 81.6435 26.3305 80.6623C24.7125 80.2164 23.2488 79.7705 22.07 79.4114L21.7827 79.3239C21.18 79.1407 20.6401 78.9777 20.2174 78.8612C20.0068 78.8038 19.7975 78.7479 19.6086 78.7075C19.4781 78.678 19.1589 78.6081 18.8184 78.6081C18.3127 78.6081 17.882 78.7665 17.7557 78.8131C17.5456 78.8892 17.329 78.9823 17.1335 79.0724C16.7723 79.2388 16.3233 79.4622 15.8533 79.6961L15.7369 79.754C14.6769 80.2819 13.3635 80.9309 11.9251 81.5131C10.4798 82.1 8.98068 82.5891 7.57018 82.8251C6.73627 82.964 5.99044 83.0036 5.3371 82.9483C5.46077 82.1741 5.70216 81.159 6.02924 80.0055C6.7927 77.3148 7.90312 74.2856 8.54279 72.7702ZM23.5285 30.902C23.5285 30.902 23.5377 30.9114 23.5535 30.9417C23.5359 30.9191 23.5285 30.902 23.5285 30.902Z" fill="#1A1A1A"/>
<path d="M20.6685 43.5491C21.3667 43.5492 21.9329 44.124 21.9332 44.8333C21.9332 45.5429 21.3668 46.1184 20.6685 46.1185C19.9701 46.1185 19.4039 45.5429 19.4039 44.8333C19.4041 44.1239 19.9703 43.5491 20.6685 43.5491ZM21.9673 40.1068C22.4841 39.8284 23.106 39.9251 23.355 40.3226C23.6036 40.7199 23.3869 41.2669 22.8707 41.5452L22.8687 41.5462C22.8678 41.5467 22.8664 41.5483 22.8648 41.5491C22.8608 41.5513 22.8539 41.5548 22.8462 41.5589C22.8309 41.5672 22.8086 41.5796 22.7798 41.595C22.7215 41.6264 22.637 41.6719 22.5328 41.7278C22.3241 41.8398 22.035 41.9942 21.7154 42.1644C21.0797 42.5029 20.308 42.9095 19.8013 43.1663L19.7027 43.2112C19.2024 43.4163 18.6494 43.293 18.4312 42.9124C18.1987 42.5065 18.4354 41.9613 18.9595 41.6956L19.8326 41.2435C20.1593 41.0719 20.5062 40.8887 20.8248 40.7191C21.1413 40.5505 21.4274 40.3974 21.6343 40.2864L21.9459 40.1185C21.9533 40.1145 21.9596 40.1117 21.9634 40.1097C21.9649 40.1089 21.9655 40.1073 21.9664 40.1068H21.9673Z" fill="#D9D9D9"/>
<path d="M10.8254 43.5487C10.127 43.5487 9.5607 44.1242 9.5607 44.8338C9.56071 45.5434 10.127 46.119 10.8254 46.119C11.5237 46.1189 12.09 45.5434 12.09 44.8338C12.09 44.1243 11.5237 43.5488 10.8254 43.5487ZM9.52555 40.1063C9.0089 39.8281 8.38791 39.9248 8.13883 40.3221C7.88991 40.7194 8.10599 41.2673 8.62223 41.5457L8.62516 41.5467C8.62609 41.5472 8.62748 41.5478 8.62906 41.5487C8.63307 41.5508 8.63996 41.5543 8.64762 41.5584C8.66301 41.5667 8.68527 41.5791 8.71402 41.5946C8.77239 41.626 8.85683 41.6715 8.96109 41.7274C9.16977 41.8393 9.45882 41.9937 9.77848 42.1639C10.4142 42.5024 11.1859 42.91 11.6925 43.1668L11.7912 43.2118C12.2912 43.4166 12.8433 43.2931 13.0617 42.9129C13.2944 42.507 13.0586 41.9619 12.5343 41.6961L11.6603 41.244C11.3337 41.0724 10.9875 40.8882 10.6691 40.7186C10.3525 40.55 10.0655 40.397 9.85856 40.286L9.54801 40.118C9.54058 40.114 9.53422 40.1113 9.53043 40.1092C9.5292 40.1085 9.52824 40.1078 9.5275 40.1073L9.52555 40.1063Z" fill="#D9D9D9"/>
<path d="M18.0886 47.3553C18.0886 48.6415 17.0459 49.6842 15.7596 49.6842C14.4734 49.6842 13.4307 48.6415 13.4307 47.3553C13.4307 46.069 14.4734 45.0263 15.7596 45.0263C17.0459 45.0263 18.0886 46.069 18.0886 47.3553Z" fill="#FFAFA3"/>
<path d="M16.9235 47.3553C16.9235 46.7122 16.4022 46.1908 15.759 46.1908C15.1159 46.1908 14.5946 46.7122 14.5946 47.3553C14.5946 47.9984 15.1159 48.5198 15.759 48.5198C16.4022 48.5198 16.9235 47.9984 16.9235 47.3553ZM19.2525 47.3553C19.2525 49.2847 17.6884 50.8487 15.759 50.8487C13.8297 50.8487 12.2656 49.2847 12.2656 47.3553C12.2656 45.4259 13.8297 43.8619 15.759 43.8619C17.6884 43.8619 19.2525 45.4259 19.2525 47.3553Z" fill="#D9D9D9"/>
</svg>
