<svg width="75" height="86" viewBox="0 0 75 86" fill="none" xmlns="http://www.w3.org/2000/svg">
<path fill-rule="evenodd" clip-rule="evenodd" d="M25.5566 10.7389C22.6635 11.4283 17.9727 12.5446 17.9727 18.2968C17.9727 22.5554 23.9619 26.6914 38.3321 25.6092C41.2468 25.3903 45.5876 24.9991 49.6029 24.0924C56.25 22.5911 56.9157 15.0643 50.7437 12.1766C45.0357 9.50622 36.6957 8.08254 25.6685 10.7126C25.6315 10.7203 25.5941 10.7296 25.5566 10.7389ZM29.2247 14.9122C26.3829 15.1808 22.9696 15.5037 22.946 17.654C22.916 20.3989 29.265 21.4717 43.7906 20.3554C52.0212 19.722 52.7125 15.6698 44.4698 14.8206C40.3212 14.3936 35.3754 14.3238 29.5368 14.8827C29.4337 14.892 29.3295 14.9014 29.2247 14.9122Z" fill="#FFE8A3"/>
<path d="M19.1377 18.2968C19.1377 15.8081 20.1191 14.4418 21.3524 13.5708C22.6744 12.6362 24.3478 12.2232 25.8269 11.8708L25.2872 9.60566C23.8733 9.94256 21.7546 10.4331 20.008 11.669C18.1726 12.9653 16.8086 15.0333 16.8086 18.2968H19.1377ZM38.245 24.448C31.1592 24.9821 26.2812 24.2135 23.2281 22.8877C20.1755 21.5618 19.1377 19.7903 19.1377 18.2968H16.8086C16.8086 21.0619 18.7655 23.4885 22.2999 25.024C25.834 26.5595 31.1357 27.3186 38.42 26.7706L38.245 24.448ZM49.3468 22.956C45.4207 23.8425 41.1526 24.2291 38.245 24.448L38.42 26.7706C41.342 26.5501 45.7554 26.1542 49.8599 25.2273L49.3468 22.956ZM50.2505 13.2308C52.9502 14.4946 53.9961 16.6666 53.8214 18.5468C53.6477 20.416 52.2395 22.3039 49.3468 22.956L49.8599 25.2273C53.6143 24.3796 55.8625 21.7543 56.1404 18.7625C56.4174 15.7817 54.7101 12.7464 51.2377 11.1209L50.2505 13.2308ZM25.9391 11.8444C36.7356 9.27028 44.8038 10.6831 50.2505 13.2308L51.2377 11.1209C45.2688 8.32944 36.6566 6.89491 25.3988 9.57926L25.9391 11.8444ZM25.8269 11.8708C25.8645 11.863 25.9019 11.8537 25.9391 11.8444L25.3988 9.57926C25.362 9.58858 25.3249 9.59634 25.2872 9.60566L25.8269 11.8708ZM24.111 17.6665C24.113 17.4832 24.1697 17.356 24.3246 17.2147C24.5147 17.0408 24.8508 16.8545 25.3802 16.6868C26.449 16.3499 27.8763 16.2086 29.3348 16.0705L29.1155 13.7525C27.7322 13.8829 26.032 14.0381 24.6779 14.4666C23.9956 14.6825 23.2964 14.9976 22.7511 15.4975C22.1706 16.0285 21.7919 16.7489 21.7821 17.6416L24.111 17.6665ZM43.7018 19.1942C36.4573 19.7515 31.341 19.7531 28.0705 19.2997C26.4236 19.0715 25.3531 18.7408 24.7277 18.3806C24.1382 18.0437 24.1096 17.7938 24.111 17.6665L21.7821 17.6416C21.7684 18.8868 22.5221 19.8012 23.5686 20.402C24.579 20.9811 25.9981 21.3631 27.7504 21.6068C31.2783 22.0959 36.5993 22.0757 43.8804 21.5168L43.7018 19.1942ZM44.351 15.9788C46.3385 16.1838 47.6752 16.5735 48.4557 16.9849C49.3072 17.4336 49.1312 17.6727 49.1554 17.505C49.161 17.4646 49.0829 17.8264 48.0587 18.2782C47.1258 18.6896 45.6803 19.042 43.7018 19.1942L43.8804 21.5168C46.0171 21.3522 47.7444 20.9609 48.9986 20.4082C50.1612 19.8959 51.284 19.0715 51.461 17.8341C51.6565 16.4663 50.6222 15.4945 49.5422 14.9247C48.3913 14.3176 46.7235 13.8829 44.5897 13.6624L44.351 15.9788ZM29.6481 16.0409C35.4152 15.4898 40.284 15.5596 44.351 15.9788L44.5897 13.6624C40.3596 13.2262 35.3364 13.1578 29.4264 13.723L29.6481 16.0409ZM29.3348 16.0705C29.4396 16.0611 29.5442 16.0518 29.6481 16.0409L29.4264 13.723C29.3239 13.7323 29.2205 13.7432 29.1155 13.7525L29.3348 16.0705Z" fill="#FFC21A"/>
<ellipse cx="35.8193" cy="18.326" rx="28.7206" ry="16.2171" fill="url(#paint0_radial_9800_57994)"/>
<defs>
<radialGradient id="paint0_radial_9800_57994" cx="0" cy="0" r="1" gradientTransform="matrix(9.6348 14.6492 -25.9438 5.44028 35.8193 18.326)" gradientUnits="userSpaceOnUse">
<stop stop-color="#F7C522" stop-opacity="0.5"/>
<stop offset="1" stop-color="#F7C522" stop-opacity="0"/>
</radialGradient>
</defs>
</svg>
