<svg width="75" height="86" viewBox="0 0 75 86" fill="none" xmlns="http://www.w3.org/2000/svg">
<path d="M67.1107 82.7243C53.8279 79.293 18.7571 61.655 3.10498 48.4576C3.10498 48.4576 14.3848 44.4986 29.1566 40.8344C43.9283 37.1546 54.7378 34.158 54.7378 34.158C60.4126 43.2564 67.3312 66.7476 70.025 79.7121C70.4147 81.6063 68.9707 83.2056 67.1107 82.7243Z" fill="#D9D9D9"/>
<path d="M55.7263 33.5424C58.6476 38.2263 61.8326 46.4979 64.6085 55.1291C67.0466 62.7102 69.1993 70.6662 70.6082 76.9099L71.1647 79.4754L71.1662 79.4769L70.1139 79.6922L70.0624 79.7043L71.1662 79.4769C71.4322 80.7697 71.0814 82.0366 70.258 82.9082C69.42 83.7949 68.1572 84.1975 66.8191 83.8513L65.4864 83.4828C58.5159 81.4314 47.0768 76.3736 35.4557 70.2855C23.0479 63.7852 10.2785 56.0289 2.3546 49.3477L0.795898 48.0346L2.72001 47.3584H2.72153C2.72307 47.3578 2.72619 47.3563 2.72911 47.3553C2.73492 47.3533 2.74389 47.3501 2.75488 47.3462C2.77732 47.3384 2.81012 47.3264 2.85344 47.3114C2.9411 47.281 3.07144 47.2362 3.2416 47.1779C3.58187 47.0615 4.08322 46.8913 4.73055 46.6761C6.02547 46.2454 7.90516 45.6346 10.2466 44.9081C14.9285 43.4555 21.463 41.543 28.8752 39.7044C36.2537 37.8663 42.6426 36.1983 47.1868 34.9904C49.4585 34.3866 51.2697 33.8985 52.5119 33.5606C53.1327 33.3917 53.6121 33.2598 53.9356 33.1709C54.0972 33.1265 54.2202 33.092 54.3026 33.0693C54.3437 33.0579 54.3759 33.0508 54.3966 33.045C54.4067 33.0422 54.4142 33.0389 54.4193 33.0375C54.4218 33.0368 54.4241 33.0363 54.4254 33.0359H54.4269L55.2654 32.804L55.7263 33.5424ZM53.1244 35.8076C51.8783 36.1466 50.0625 36.6368 47.7857 37.242C43.2324 38.4523 36.8306 40.122 29.4377 41.9636V41.9651C22.0786 43.7905 15.5872 45.6895 10.9365 47.1324C8.61275 47.8534 6.74902 48.459 5.46744 48.8852C13.2645 55.0996 25.0003 62.1781 36.5368 68.2218C48.9096 74.7038 60.8978 79.9164 67.4014 81.5966H67.4029C67.9247 81.7316 68.3143 81.5747 68.5658 81.3085C68.8314 81.0271 69.0079 80.5462 68.8843 79.9454C67.5467 73.5092 65.1546 64.4371 62.3902 55.8417C59.7632 47.6734 56.834 40.0492 54.1934 35.5135C53.9054 35.5923 53.5481 35.6924 53.1244 35.8076Z" fill="#1A1A1A"/>
<path d="M51.7812 51.2424C55.3615 51.2424 58.2646 53.52 58.2646 56.3293C58.2646 59.1387 55.3616 61.4163 51.7812 61.4163C48.2011 61.4161 45.2988 59.1386 45.2988 56.3293C45.2989 53.5201 48.2011 51.2426 51.7812 51.2424ZM29.498 49.7053C32.927 49.7053 35.707 52.0182 35.707 54.8704C35.7067 57.7223 32.9268 60.0344 29.498 60.0344C26.0693 60.0344 23.2894 57.7223 23.2891 54.8704C23.2891 52.0182 26.0691 49.7054 29.498 49.7053ZM45.2979 36.4309C48.878 36.4309 51.78 38.7077 51.7803 41.5168C51.7803 44.3262 48.8782 46.6037 45.2979 46.6038C41.7175 46.6038 38.8154 44.3262 38.8154 41.5168C38.8157 38.7077 41.7177 36.4309 45.2979 36.4309Z" fill="#383838"/>
<path d="M31.0198 31.7358C25.1617 33.3971 9.98003 39.5922 3.10498 43.1322L8.09981 53.0691C15.8676 49.5601 30.1021 44.2191 32.5724 43.5204C34.9759 42.8372 48.5924 39.0488 55.6321 37.0925C55.9985 36.9993 56.3183 36.7663 56.4907 36.4247C57.0776 35.2603 57.7126 33.2729 57.253 31.7358C56.7996 30.1987 55.5964 28.9255 54.744 28.2579C54.4723 28.0405 54.1229 27.963 53.7782 28.0096C48.2198 28.6151 36.6915 30.121 31.0198 31.7358Z" fill="#B3B3B3"/>
<path d="M53.6523 26.8532C54.2541 26.7789 54.9164 26.9117 55.4611 27.343L55.4626 27.3415C56.4107 28.0842 57.819 29.5413 58.3693 31.402L58.4663 31.7901C58.6545 32.6996 58.5753 33.6409 58.4042 34.4587C58.2058 35.4061 57.8628 36.2895 57.5308 36.9484L56.0979 36.2266L56.4907 36.4253L57.5308 36.9484V36.9499L57.3898 37.191C57.039 37.7214 56.5054 38.0625 55.9433 38.2114L55.9448 38.2144C48.9025 40.1715 35.2895 43.9583 32.8904 44.6403L32.3081 44.8207C28.7522 45.9746 15.8379 50.8514 8.57893 54.1304C8.01012 54.387 7.34 54.1497 7.05966 53.5922L2.06516 43.6547C1.77859 43.0844 2.00438 42.3901 2.57158 42.0975C9.49786 38.5312 24.7511 32.3026 30.7009 30.615C36.472 28.972 48.0663 27.4624 53.6219 26.8563C53.6318 26.8549 53.6423 26.8529 53.6523 26.8517V26.8532ZM53.7781 28.0101L53.9343 29.164C53.9244 29.1653 53.9138 29.166 53.9039 29.167C48.3304 29.7742 36.8993 31.2727 31.3377 32.856L31.1133 32.0646L31.3377 32.856C25.8451 34.4137 11.8804 40.0793 4.66854 43.6502L8.6411 51.5528C16.5991 48.0431 29.8126 43.0903 32.255 42.3993C34.6653 41.7142 48.2839 37.9258 55.3201 35.9704L55.3459 35.9643C55.4227 35.9447 55.4462 35.9084 55.4505 35.9007L55.6431 35.4882C55.8329 35.0466 56.0121 34.5219 56.1252 33.9811C56.2789 33.247 56.2903 32.5805 56.1374 32.0691L56.1359 32.0646C55.7785 30.8538 54.7826 29.7667 54.0268 29.1746L54.7788 28.2133L54.7439 28.2573L54.0268 29.1746L54.0161 29.167C54.0146 29.1664 54.0119 29.1663 54.0086 29.1655C53.996 29.1624 53.9709 29.159 53.9343 29.164L53.7781 28.0086V28.0101Z" fill="#1A1A1A"/>
<path d="M8.83121 47.1378C9.75348 50.2431 8.90575 52.8981 7.0519 53.4105C5.19806 53.9229 2.58967 52.1994 1.66896 49.0941C0.746699 45.9889 1.50279 43.07 3.35663 42.5576C5.21048 42.0452 7.9105 44.0325 8.83121 47.1378Z" fill="#757575"/>
<path d="M3.0467 41.4357C4.47943 41.0399 6.00036 41.642 7.1724 42.5835C8.38047 43.5541 9.41996 45.0288 9.94712 46.8063C10.4579 48.5262 10.5046 50.2001 10.1003 51.5748C9.6961 52.9483 8.79076 54.1381 7.36193 54.533C5.97615 54.916 4.49053 54.4325 3.3075 53.5384C2.10164 52.6269 1.08035 51.2059 0.552484 49.4263L0.382665 48.7819C0.0333902 47.282 0.0231754 45.8065 0.344759 44.5622C0.706037 43.1645 1.56149 41.8462 3.0467 41.4357ZM5.71377 44.3985C4.8427 43.6989 4.08769 43.5636 3.66684 43.6798C3.29835 43.7816 2.84913 44.1788 2.59941 45.1445C2.35603 46.0862 2.37237 47.3745 2.78439 48.7622L2.78591 48.7637C3.17884 50.0885 3.92156 51.0813 4.71305 51.6795C5.52781 52.2952 6.27375 52.4168 6.74178 52.2875C7.1666 52.1699 7.61277 51.7762 7.86532 50.9183C8.11752 50.0612 8.12658 48.8539 7.71521 47.4689C7.32159 46.1413 6.5492 45.0697 5.71377 44.3985Z" fill="#1A1A1A"/>
<path d="M56.9158 70.804C57.5587 70.8041 58.0802 71.3254 58.0802 71.9684C58.0802 72.6114 57.5587 73.1327 56.9158 73.1329H52.1821C51.5389 73.1329 51.0176 72.6115 51.0176 71.9684C51.0176 71.3253 51.5389 70.804 52.1821 70.804H56.9158Z" fill="#1A1A1A"/>
<path d="M60.5767 65.5571C62.1355 65.5571 63.3999 66.7716 63.3999 68.269C63.3998 69.7664 62.1355 70.98 60.5767 70.98C59.018 70.9798 57.7545 69.7663 57.7544 68.269C57.7544 66.7717 59.0179 65.5573 60.5767 65.5571Z" fill="#1A1A1A"/>
<path d="M59.4198 68.0707C59.855 68.0707 60.2078 67.7318 60.2078 67.3138C60.2078 66.8958 59.855 66.5569 59.4198 66.5569C58.9846 66.5569 58.6318 66.8958 58.6318 67.3138C58.6318 67.7318 58.9846 68.0707 59.4198 68.0707Z" fill="white"/>
<path d="M48.1553 65.5571C46.5965 65.5573 45.333 66.7717 45.333 68.269C45.3331 69.7663 46.5966 70.9798 48.1553 70.98C49.7141 70.98 50.9784 69.7664 50.9785 68.269C50.9785 66.7716 49.7142 65.5571 48.1553 65.5571Z" fill="#1A1A1A"/>
<path d="M46.9984 68.0707C47.4336 68.0707 47.7864 67.7318 47.7864 67.3138C47.7864 66.8958 47.4336 66.5569 46.9984 66.5569C46.5632 66.5569 46.2104 66.8958 46.2104 67.3138C46.2104 67.7318 46.5632 68.0707 46.9984 68.0707Z" fill="white"/>
</svg>
