<svg width="75" height="86" viewBox="0 0 75 86" fill="none" xmlns="http://www.w3.org/2000/svg">
<path d="M38.8159 24.3872C40.4384 24.3872 41.8653 25.2179 42.6991 26.4755C43.1012 26.1386 43.5949 25.9398 44.129 25.9398C45.2857 25.9398 46.253 26.873 46.5092 28.126C46.6629 28.1601 46.8166 28.1928 46.9688 28.2285C47.7762 27.5267 48.7807 27.1091 49.8675 27.1091C51.6996 27.1091 53.2942 28.2921 54.1156 30.0342C54.2522 30.0202 54.3888 30.014 54.5285 30.014C56.3016 30.014 57.7937 31.2033 58.2564 32.8274C58.4986 32.7886 58.747 32.7699 59.0001 32.7699C61.5728 32.7699 63.658 34.8551 63.658 37.4278C63.658 37.8346 63.599 38.2259 63.5012 38.6016C64.9855 39.1481 66.0429 40.5703 66.0429 42.2425C66.0429 42.2456 66.0413 42.2487 66.0413 42.2534C67.3129 42.3574 68.3159 43.5855 68.3159 45.0885C68.3159 45.8368 68.0644 46.517 67.656 47.0262C68.9866 48.0277 69.8685 49.7619 69.8685 51.7493C69.8685 52.6498 69.6838 53.5038 69.3577 54.2646C69.6807 54.8856 69.8685 55.5843 69.8685 56.3296C69.8685 57.6959 69.2568 58.9224 68.288 59.7608C69.2568 60.6148 69.8685 61.8414 69.8685 63.2077C69.8685 65.3504 68.3609 67.1513 66.3099 67.6948C66.7384 68.2071 67.0055 68.9059 67.0055 69.6666C67.0055 71.1261 66.0584 72.3372 64.8411 72.4924C64.8411 72.508 64.8427 72.508 64.8427 72.5235C64.8427 74.9922 62.9143 77.0106 60.4798 77.1659C60.1211 79.6035 58.4179 81.4977 56.2892 81.7927C55.4011 83.0037 54.0814 83.7646 52.6064 83.7646C51.6841 83.7646 50.8209 83.4695 50.088 82.9416C49.1999 84.1682 47.8755 84.9446 46.3959 84.9446C45.2128 84.9446 44.129 84.4477 43.289 83.6248C42.4491 84.4477 41.3669 84.9446 40.1853 84.9446C38.597 84.9446 37.1857 84.044 36.3038 82.6777C35.4203 84.044 34.0105 84.9446 32.4222 84.9446C31.2391 84.9446 30.1553 84.4477 29.3154 83.6248C28.4754 84.4477 27.3932 84.9446 26.2117 84.9446C23.8718 84.9446 21.9186 83.0038 21.4668 80.4419C20.838 80.8301 20.1222 81.0475 19.363 81.0475C17.7684 81.0475 16.3711 80.0848 15.5683 78.6409C15.3044 78.703 15.0311 78.7341 14.7501 78.7341C12.6711 78.7341 10.9772 77.0883 10.8779 75.0388C9.55346 74.3556 8.67158 73.1291 8.67158 71.7472C8.67158 70.8622 9.02867 70.0393 9.62643 69.3872C7.91233 69.2009 6.57395 67.5396 6.57395 65.5367C6.57395 64.3877 7.00404 63.3785 7.68564 62.6643C6.20598 61.8879 5.19678 60.3354 5.19678 58.5498C5.19678 56.9041 6.05073 55.4601 7.33942 54.6216C6.52894 54.1558 5.96843 53.1932 5.96843 52.0753C5.96843 50.5227 7.0475 49.2496 8.38432 49.2341L8.38588 49.2185C7.99307 48.5354 7.76328 47.745 7.76328 46.9004C7.76328 45.0884 8.79888 43.5218 10.3096 42.7517C10.2894 42.5841 10.2785 42.4148 10.2785 42.2425C10.2785 40.5548 11.2225 39.1217 12.5392 38.5861C12.4647 38.2662 12.4212 37.9308 12.4212 37.5846C12.4212 35.4404 13.9443 33.703 15.8214 33.703C16.2702 33.703 16.6971 33.804 17.0884 33.9826C17.0822 33.8909 17.0791 33.7962 17.0791 33.703C17.0791 31.1303 19.1643 29.0451 21.737 29.0451C22.4481 29.0451 23.1204 29.2081 23.7228 29.4938C24.4851 27.8806 26.1697 26.7581 28.1307 26.7581C28.6617 26.7581 29.1725 26.8435 29.6507 26.9941C30.4534 26.3342 31.4844 25.9398 32.6054 25.9398C33.436 25.9398 34.2155 26.1603 34.8909 26.5407C35.7184 25.2474 37.1655 24.3872 38.8159 24.3872Z" fill="white"/>
<path d="M15.2677 76.3261C16.21 76.2014 17.1414 76.663 17.6072 77.5072C18.0777 78.3612 18.7668 78.7187 19.363 78.7187C19.6611 78.7187 19.9597 78.6408 20.2485 78.47L20.5017 78.3351C21.1072 78.0574 21.8076 78.0454 22.4228 78.3305C23.126 78.641 23.6265 79.2772 23.7601 80.0378C24.0644 81.7613 25.2601 82.6154 26.2119 82.6154V84.9444L25.7782 84.9216C23.6341 84.6993 21.8914 82.8441 21.4676 80.4427C20.8388 80.8308 20.1222 81.0476 19.363 81.0476C17.7685 81.0476 16.3706 80.0852 15.5679 78.6414C15.3043 78.7034 15.0313 78.7338 14.7506 78.7339V76.4049C14.8499 76.4049 14.9587 76.3889 15.0796 76.3579L15.2677 76.3261Z" fill="#1A1A1A"/>
<path d="M27.8661 81.8073C28.7723 81.0812 30.0923 81.1337 30.9395 81.9635C31.3975 82.3982 31.9147 82.6154 32.4224 82.6154V84.9444L31.9827 84.9216C30.9717 84.8152 30.0504 84.3449 29.3156 83.6253C28.4757 84.448 27.3933 84.9443 26.2119 84.9444V82.6154C26.7164 82.6154 27.2338 82.3981 27.6917 81.9635L27.8661 81.8073Z" fill="#1A1A1A"/>
<path d="M36.304 80.3487C37.0957 80.3487 37.8345 80.7531 38.263 81.4206C38.7909 82.2433 39.518 82.6154 40.1856 82.6154V84.9444L39.8899 84.9338C38.4228 84.8299 37.1308 83.9586 36.304 82.6776C35.4206 84.0439 34.0107 84.9443 32.4224 84.9444V82.6154C33.09 82.6154 33.8156 82.2434 34.345 81.4206L34.5194 81.1826C34.9585 80.6581 35.6098 80.3487 36.304 80.3487Z" fill="#1A1A1A"/>
<path d="M41.8398 81.8073C42.746 81.0812 44.066 81.1337 44.9132 81.9635C45.3712 82.3982 45.8884 82.6154 46.3961 82.6154V84.9444L45.9564 84.9216C44.9453 84.8152 44.0241 84.3449 43.2893 83.6253C42.4494 84.448 41.367 84.9443 40.1856 84.9444V82.6154C40.6901 82.6154 41.2075 82.3981 41.6654 81.9635L41.8398 81.8073Z" fill="#1A1A1A"/>
<path d="M48.3551 81.3918C49.1361 80.525 50.4609 80.3636 51.4346 81.0476C51.8086 81.3114 52.2062 81.4358 52.6066 81.4358V83.7648L52.264 83.7511C51.4707 83.6875 50.7295 83.4034 50.0881 82.9414C49.2001 84.1679 47.8757 84.9443 46.3961 84.9444V82.6154C47.0186 82.6154 47.6864 82.2894 48.2065 81.5753L48.3551 81.3918Z" fill="#1A1A1A"/>
<path d="M67.5401 63.2075C67.54 62.5555 67.2547 61.9656 66.7501 61.5154C66.2474 61.0808 65.9587 60.444 65.9587 59.7611C65.9587 59.0937 66.2474 58.4567 66.7501 58.022C67.2547 57.5718 67.54 56.9819 67.5401 56.3299C67.5401 55.9883 67.4529 55.6457 67.2899 55.3352C66.9687 54.7143 66.9423 53.9842 67.2186 53.3323C67.4203 52.8667 67.5401 52.339 67.5401 51.7493C67.5401 50.4453 66.9575 49.4207 66.2558 48.8927C65.7528 48.5045 65.4237 47.94 65.3461 47.3158C65.2671 46.6903 65.4446 46.0596 65.8389 45.5691C65.9087 45.4806 65.9875 45.3166 65.9875 45.0885C65.9875 44.8509 65.9071 44.6901 65.8419 44.6093C65.8228 44.5856 65.8078 44.5736 65.7994 44.5669C64.6135 44.4421 63.71 43.444 63.7131 42.247C63.7131 42.2419 63.7131 42.2369 63.7131 42.2319C63.7087 41.5736 63.2931 41.0078 62.6972 40.7884C61.5733 40.3739 60.9468 39.1748 61.2477 38.0152C61.302 37.8043 61.3295 37.6099 61.3296 37.4284C61.3296 36.143 60.286 35.0997 59.0006 35.0995C58.9322 35.0995 58.8661 35.1022 58.8035 35.107L58.4078 35.151C57.3243 35.2231 56.3223 34.5304 56.0182 33.468C55.8318 32.8132 55.2306 32.3432 54.5292 32.3429C54.4672 32.3429 54.4106 32.3459 54.3609 32.3505C53.3768 32.4545 52.4332 31.9254 52.0107 31.0299C51.4954 29.9356 50.6289 29.4381 49.8683 29.4378C49.3994 29.4378 48.9261 29.6141 48.4976 29.9867C47.931 30.4785 47.1635 30.6669 46.434 30.4946C46.3023 30.4636 46.1658 30.4347 46.014 30.4021C45.1135 30.205 44.4126 29.4953 44.2279 28.5933C44.2018 28.4652 44.1516 28.3788 44.1111 28.3234C43.6149 28.704 42.9866 28.8708 42.3644 28.7813C41.7092 28.6866 41.1251 28.3151 40.7587 27.7624C40.3365 27.1259 39.622 26.7163 38.8164 26.7162C37.9966 26.7162 37.2721 27.1405 36.8529 27.7957C36.1867 28.8371 34.8219 29.1775 33.7446 28.5705C33.4047 28.3781 33.0186 28.2689 32.6059 28.2688C32.0409 28.2688 31.5296 28.4659 31.1291 28.7949C30.5189 29.2949 29.6971 29.454 28.9457 29.2149C28.6851 29.1327 28.4138 29.0876 28.1315 29.0876C27.0712 29.0876 26.2056 29.6923 25.8298 30.487C25.5659 31.0458 25.0911 31.4783 24.5091 31.6864C23.9286 31.8944 23.2864 31.8638 22.7276 31.6C22.4203 31.4541 22.0866 31.3741 21.7375 31.374C20.4519 31.374 19.4085 32.4159 19.4085 33.703C19.4085 33.7387 19.41 33.7836 19.4131 33.844C19.4612 34.6607 19.0786 35.4434 18.4032 35.9046C17.7279 36.3672 16.8604 36.4401 16.1168 36.1002C16.0112 36.052 15.9142 36.0319 15.8211 36.0319C15.6333 36.032 15.3972 36.1125 15.1691 36.3746C14.9362 36.6401 14.7506 37.0613 14.7506 37.5846C14.7506 37.7351 14.7695 37.8932 14.8082 38.0561C15.0691 39.1725 14.4783 40.3128 13.4163 40.7444C13.081 40.8811 12.6082 41.3855 12.6082 42.2425C12.6082 42.3154 12.6125 42.395 12.6233 42.4866C12.7334 43.4522 12.2326 44.3852 11.3664 44.8261C10.6027 45.2159 10.0927 46.0016 10.0927 46.9004C10.0927 47.318 10.2048 47.7095 10.4051 48.0573C10.6937 48.5509 10.7824 49.1417 10.6613 49.716L10.6113 49.9131C10.321 50.8628 9.46713 51.5236 8.47338 51.5598C8.4672 51.5646 8.45792 51.5692 8.44912 51.578C8.38235 51.6556 8.29749 51.8269 8.29749 52.0753C8.29749 52.2458 8.33888 52.3855 8.38998 52.4786C8.44369 52.5707 8.49348 52.6022 8.49612 52.603C9.20237 53.0065 9.64625 53.7518 9.66666 54.5589C9.68839 55.3817 9.28381 56.1438 8.59922 56.5785C7.94717 57.0132 7.52579 57.7268 7.52572 58.5497C7.52572 59.4346 8.02382 60.2114 8.77208 60.5996C9.41797 60.9412 9.86862 61.5775 9.98507 62.2917C10.1015 63.0214 9.87106 63.7517 9.36493 64.2795C9.11212 64.5435 8.90252 64.978 8.90247 65.5365C8.90247 66.5923 9.57732 67.0429 9.89561 67.074C10.7647 67.1828 11.5032 67.757 11.8091 68.5796C12.115 69.4025 11.9351 70.3186 11.3451 70.9707C11.0859 71.2501 11.001 71.5142 11.001 71.747C11.001 72.073 11.2177 72.5855 11.9471 72.9737C12.6845 73.3462 13.1635 74.0914 13.2041 74.9296C13.2444 75.7525 13.9231 76.4049 14.7506 76.4049V78.7339L14.3655 78.7157C12.4658 78.5275 10.9713 76.9603 10.8781 75.0388C9.63662 74.3984 8.78296 73.2805 8.6811 72.0048L8.672 71.747C8.67205 70.8624 9.02836 70.0397 9.62572 69.3877C7.91192 69.2011 6.57352 67.5391 6.57352 65.5365C6.57357 64.3879 7.0037 63.3789 7.68493 62.6647C6.20547 61.8884 5.19678 60.335 5.19678 58.5497C5.19684 56.9039 6.05059 55.4595 7.33923 54.6211C6.57961 54.1843 6.03915 53.3114 5.97461 52.283L5.96854 52.0753C5.96854 50.5228 7.04729 49.2496 8.38392 49.2339L8.38543 49.2187C8.04171 48.6209 7.82372 47.9407 7.77439 47.2142L7.76377 46.9004C7.76377 45.0885 8.7989 43.5221 10.3095 42.7519C10.2994 42.668 10.292 42.5836 10.2868 42.4987L10.2792 42.2425C10.2792 40.5548 11.2233 39.1225 12.5399 38.5868C12.4841 38.347 12.445 38.0977 12.4293 37.8423L12.4217 37.5846C12.4217 35.4405 13.9441 33.7032 15.8211 33.703C16.2698 33.703 16.6974 33.8034 17.0887 33.982C17.0825 33.8905 17.0796 33.796 17.0796 33.703C17.0796 31.1303 19.1647 29.0451 21.7375 29.0451L22.0013 29.0527C22.527 29.0827 23.0287 29.2016 23.4933 29.3923L23.7222 29.4939C24.4846 27.8807 26.1705 26.7586 28.1315 26.7586L28.5257 26.7738C28.9155 26.8049 29.2923 26.8808 29.6507 26.9936C30.4534 26.3339 31.485 25.9398 32.6059 25.9398L32.9137 25.9505C33.6287 25.9978 34.2998 26.2074 34.8909 26.5403C35.7184 25.2471 37.1661 24.3872 38.8164 24.3872L39.1181 24.3963C40.6146 24.4923 41.9179 25.2962 42.6995 26.4751C43.1015 26.1384 43.5954 25.9398 44.1293 25.9398C45.2859 25.94 46.2537 26.8734 46.5098 28.1263L46.9692 28.2278C47.7765 27.5264 48.7817 27.1089 49.8683 27.1089L50.2079 27.1225C51.8957 27.2588 53.3452 28.4007 54.1153 30.0337C54.2519 30.0197 54.3895 30.014 54.5292 30.014L54.8582 30.0276C56.376 30.1554 57.6427 31.1573 58.1576 32.5279L58.2561 32.8281C58.4984 32.7893 58.7475 32.7705 59.0006 32.7705L59.2402 32.7766C61.7013 32.9015 63.6585 34.9362 63.6585 37.4284L63.6479 37.7301C63.6267 38.0294 63.5742 38.3202 63.5008 38.602C64.9851 39.1485 66.0436 40.5703 66.0436 42.2425C66.0436 42.2455 66.0421 42.2486 66.042 42.2531C67.3133 42.3575 68.3164 43.5858 68.3164 45.0885L68.3043 45.3659C68.2505 46.0043 68.0126 46.5807 67.6553 47.0262C68.9859 48.0277 69.869 49.7619 69.869 51.7493L69.8599 52.0844C69.8202 52.8617 69.6434 53.599 69.3581 54.2648C69.6809 54.8857 69.869 55.5847 69.869 56.3299L69.8615 56.5846C69.7906 57.848 69.1958 58.9752 68.2876 59.7611C69.2564 60.615 69.869 61.8413 69.869 63.2075L69.8508 63.6048C69.6779 65.5701 68.2331 67.1844 66.3104 67.6941C66.7389 68.2065 67.0049 68.9059 67.0049 69.6667C67.0048 71.1262 66.0584 72.3378 64.8412 72.493C64.8412 72.5079 64.8427 72.5082 64.8427 72.5233L64.82 72.9812C64.599 75.2372 62.7624 77.0202 60.4805 77.1661C60.1218 79.6035 58.418 81.4969 56.2896 81.7921C55.4015 83.0031 54.0815 83.7647 52.6066 83.7648V81.4358C53.2276 81.4357 53.8924 81.1249 54.4125 80.4108L54.5611 80.2274C54.9268 79.8207 55.425 79.5613 55.9697 79.4799C56.87 79.3556 57.935 78.4547 58.1758 76.8249L58.2152 76.6233C58.4512 75.6375 59.3047 74.9101 60.3334 74.8371C61.5442 74.7599 62.5021 73.7608 62.5122 72.543C62.512 72.5309 62.5122 72.5186 62.5122 72.5082C62.506 71.3438 63.3691 70.3497 64.5288 70.1944C64.4561 70.1944 64.4728 70.2249 64.5379 70.1474C64.6016 70.0542 64.6759 69.8994 64.6759 69.6667C64.6759 69.4342 64.5941 69.2639 64.5243 69.1861C64.0119 68.5806 63.8484 67.7407 64.0906 66.98C64.3313 66.2196 64.9449 65.646 65.7145 65.444C66.8278 65.149 67.5401 64.2012 67.5401 63.2075Z" fill="#1A1A1A"/>
<path d="M10.6947 49.5295C10.6916 49.5452 10.6872 49.5761 10.6825 49.6069C10.6872 49.5914 10.6931 49.5604 10.6947 49.5295Z" fill="#1A1A1A"/>
<path d="M60.1523 50.7868C60.1523 60.1957 50.5027 68.2539 38.0273 68.2539C25.5519 68.2539 15.9023 60.1957 15.9023 50.7868C15.9023 41.3639 25.5519 33.3149 38.0273 33.3149C50.5027 33.3149 60.1523 41.3639 60.1523 50.7868Z" fill="#678E79"/>
<path d="M58.9878 50.7865C58.9877 42.2321 50.1107 34.4793 38.0273 34.4793C25.9439 34.4793 17.0669 42.2321 17.0667 50.7865C17.0667 59.3272 25.944 67.0892 38.0273 67.0892C50.1106 67.0892 58.9878 59.3272 58.9878 50.7865ZM61.3167 50.7865C61.3167 61.0637 50.8948 69.4181 38.0273 69.4181C25.1598 69.4181 14.7378 61.0637 14.7378 50.7865C14.7379 40.4953 25.16 32.1504 38.0273 32.1504C50.8945 32.1504 61.3166 40.4953 61.3167 50.7865Z" fill="#476656"/>
<path d="M20.5864 59.4192L19.3443 56.8884C18.9546 56.0965 19.3039 55.1494 20.1113 54.7923L52.729 40.4025C53.6466 39.9972 54.7024 40.5563 54.8825 41.5437L57.3527 55.0252C57.5157 55.9257 56.8838 56.7641 55.9817 56.8573L22.1375 60.2887C21.4916 60.3508 20.8721 60.0092 20.5864 59.4192Z" fill="#92DA40"/>
<path d="M52.2583 39.3369C53.8642 38.6277 55.7118 39.606 56.0277 41.3337L58.4976 54.8147L56.9253 55.1012L57.3529 55.0254L58.4976 54.8147L58.4992 54.8177C58.7826 56.3832 57.6802 57.8521 56.102 58.0154H56.0989L55.9822 56.857L55.9003 56.0595L56.0989 58.0154L22.2549 61.4467L22.2488 61.4482L22.1382 60.2928L22.12 60.1154L22.2488 61.4482C21.1242 61.5563 20.0383 60.9607 19.5378 59.9274L18.299 57.4029L18.1868 57.1391C17.6953 55.8073 18.3224 54.3107 19.6409 53.7275L52.2583 39.3369L53.1984 41.4687L20.581 55.8563C20.3731 55.9487 20.2941 56.1832 20.3884 56.3749L21.6317 58.9055L20.4688 59.4756L20.587 59.4195L21.6317 58.9055L21.6348 58.9115C21.7051 59.0567 21.8561 59.1425 22.0214 59.1284L55.8624 55.6986L55.9428 55.6819C56.124 55.6237 56.2429 55.44 56.2066 55.2347L53.7366 41.7537C53.6914 41.5078 53.4285 41.3667 53.1999 41.4672L52.2583 39.3369Z" fill="#78B136"/>
<path d="M26.4118 62.4004L26.4196 62.2141C26.4506 61.4067 27.0887 60.7546 27.8899 60.7235L50.6282 59.5281C52.3485 59.4349 52.9137 61.7949 51.3378 62.4936L40.9041 67.1359C40.5811 67.2756 40.2194 67.3067 39.8778 67.2135L27.567 63.9686C26.8636 63.7823 26.3839 63.1301 26.4118 62.4004Z" fill="#92DA40"/>
<path d="M50.5658 58.3655C53.5837 58.2027 54.5614 62.3384 51.8091 63.5586L51.8076 63.5571L41.3774 68.1999L41.3668 68.2044C40.8147 68.4433 40.1856 68.5006 39.5806 68.3378V68.3394L27.2703 65.0946H27.2688L27.4916 64.2546L27.5872 63.8922L27.2688 65.0946C26.0348 64.7677 25.1992 63.6262 25.2476 62.3563L26.6441 62.4093L26.4045 62.3987L25.2476 62.3563V62.3517L25.2567 62.1698H25.2552C25.3088 60.7767 26.4105 59.6238 27.8283 59.5603L50.5658 58.367V58.3655ZM50.628 59.5285L50.6917 60.6914H50.6886L27.9511 61.8862L27.9344 61.8877L27.8919 60.7581L27.8889 60.7081L27.9344 61.8877C27.7579 61.8949 27.5909 62.0431 27.5826 62.2592V62.2623L27.575 62.4488C27.5696 62.6363 27.6934 62.7974 27.8646 62.843H27.8631L40.175 66.0877L40.1841 66.0908L40.3069 66.1014L40.4419 66.0665L50.8645 61.4298L50.866 61.4283C50.9992 61.3692 51.0462 61.2995 51.0692 61.2479C51.0982 61.1827 51.1107 61.0897 51.0859 60.9856C51.0609 60.8813 51.0075 60.8027 50.9525 60.7581C50.9091 60.7232 50.836 60.6837 50.6917 60.6914L50.6052 59.0872L50.628 59.5285Z" fill="#78B136"/>
<path d="M18.455 51.9201L17.8603 49.1563C17.7392 48.5974 17.9364 48.0214 18.3742 47.6518L32.4612 35.7043C32.7811 35.4326 33.1987 35.3022 33.618 35.3441L46.4489 36.6049C47.9922 36.757 48.3835 38.8282 47.0017 39.5331L20.6783 52.9758C19.77 53.4261 18.6692 52.9138 18.455 51.9201Z" fill="#92DA40"/>
<path d="M33.7333 34.1856L33.7318 34.1871L46.5623 35.4456C49.2633 35.7119 49.948 39.3371 47.5311 40.5705L46.4728 38.4963C46.5818 38.4406 46.6283 38.3755 46.6532 38.3204C46.6823 38.2561 46.695 38.1706 46.6775 38.0778C46.66 37.9851 46.6173 37.9102 46.5668 37.861C46.5236 37.8188 46.4565 37.776 46.3348 37.764L33.5044 36.5024H33.5014L33.6181 35.344L33.6863 34.6496L33.5014 36.5024C33.4231 36.4947 33.3454 36.5113 33.2785 36.5479L33.2148 36.5919L19.1274 48.5399L19.1244 48.5414C19.0145 48.6342 18.9691 48.7742 18.9985 48.9098L19.5929 51.674C19.6424 51.9036 19.9096 52.0526 20.1554 51.9348L46.4728 38.4963L47.5311 40.5705L21.2077 54.0135L21.1955 54.0196C19.6262 54.7976 17.6956 53.9213 17.317 52.1652L16.7211 49.4011L16.7226 49.3996C16.5112 48.4184 16.8584 47.4069 17.6233 46.7613L31.7076 34.8164L31.9245 34.6496C32.4505 34.2875 33.0913 34.1215 33.7333 34.1856Z" fill="#78B136"/>
<path d="M40.3556 75.078C40.3556 76.3642 39.3129 77.4069 38.0267 77.4069C36.7405 77.4069 35.6978 76.3642 35.6978 75.078C35.6978 73.7917 36.7405 72.749 38.0267 72.749C39.3129 72.749 40.3556 73.7917 40.3556 75.078Z" fill="#FFAFA3"/>
<path d="M39.1911 75.0781C39.1911 74.435 38.6697 73.9137 38.0266 73.9137C37.3835 73.9137 36.8622 74.435 36.8622 75.0781C36.8622 75.7213 37.3835 76.2426 38.0266 76.2426C38.6697 76.2426 39.1911 75.7213 39.1911 75.0781ZM41.52 75.0781C41.52 77.0075 39.956 78.5716 38.0266 78.5716C36.0973 78.5716 34.5332 77.0075 34.5332 75.0781C34.5332 73.1488 36.0973 71.5847 38.0266 71.5847C39.956 71.5847 41.52 73.1488 41.52 75.0781Z" fill="#1A1A1A"/>
<path d="M47.2917 70.6416C47.7923 70.1049 48.6709 70.0424 49.254 70.5032C49.8369 70.964 49.903 71.7728 49.4026 72.3095C47.8788 73.9434 46.117 74.4205 44.4905 74.1342C42.9947 73.8707 41.8232 73.0002 41.182 72.3028C40.6855 71.7629 40.7584 70.9552 41.345 70.4982C41.9317 70.0412 42.809 70.1084 43.3055 70.6483C43.6739 71.0489 44.3242 71.4958 45.0123 71.6173C45.5701 71.7156 46.3563 71.6447 47.2917 70.6416Z" fill="#1A1A1A"/>
<path d="M27.7732 70.6416C27.2726 70.1049 26.394 70.0424 25.8109 70.5032C25.228 70.964 25.162 71.7728 25.6623 72.3095C27.1861 73.9434 28.9479 74.4205 30.5744 74.1342C32.0702 73.8707 33.2418 73.0002 33.883 72.3028C34.3795 71.7629 34.3065 70.9552 33.7199 70.4982C33.1333 70.0412 32.2559 70.1084 31.7594 70.6483C31.3911 71.0489 30.7407 71.4958 30.0526 71.6173C29.4949 71.7156 28.7087 71.6447 27.7732 70.6416Z" fill="#1A1A1A"/>
</svg>
