<svg width="75" height="90" viewBox="0 0 75 90" fill="none" xmlns="http://www.w3.org/2000/svg">
<path d="M14.1574 26.723L13.9746 23.8166L19.3304 23.4797L19.5131 26.3877L16.905 27.6654L14.1574 26.723Z" fill="#787878"/>
<path d="M19.2665 22.476C19.5328 22.4593 19.7957 22.5483 19.9959 22.7247C20.1959 22.901 20.3171 23.15 20.334 23.4161L20.5175 26.3241L19.5122 26.3862L19.5137 26.3877L20.5175 26.3241C20.543 26.73 20.3216 27.1123 19.9564 27.2914L17.3484 28.5695C17.1085 28.687 16.8307 28.7031 16.5781 28.6165L13.8305 27.6749L13.6925 27.6158C13.4271 27.4777 13.237 27.2275 13.174 26.9351L13.1527 26.7865L12.9708 23.88C12.9359 23.3256 13.3565 22.8478 13.9109 22.8126L19.2665 22.476ZM15.0405 24.7563L15.1194 25.9875L16.8374 26.5773L18.4659 25.7798L18.3886 24.5456L15.0405 24.7563Z" fill="#1A1A1A"/>
<ellipse cx="15.8133" cy="15.2736" rx="15.2752" ry="15.2736" fill="url(#paint0_radial_9800_57447)"/>
<path d="M19.8378 23.6444L13.13 24.3415C12.9064 23.1786 12.9514 20.5734 12.1909 19.4572C11.2402 18.0614 7.76367 17.3628 7.76367 14.5713C7.76367 11.7798 11.1177 8.29125 15.4379 8.29125C19.7582 8.29125 23.8626 10.3841 23.8626 13.1756C23.8626 15.967 20.5088 17.3628 19.8378 18.7585C19.3012 19.8748 19.8378 22.362 19.8378 23.6444Z" fill="#FFE054"/>
<path d="M22.8571 13.1763C22.8571 12.3174 22.2137 11.3632 20.7812 10.5655C19.3846 9.78775 17.4507 9.29798 15.4377 9.29798C13.5513 9.29803 11.864 10.0597 10.6477 11.1371C9.40811 12.2351 8.77055 13.5521 8.7705 14.5712C8.7705 15.4583 9.28585 16.0693 10.2019 16.7165C10.6994 17.068 11.1087 17.297 11.6545 17.6596C12.1204 17.9691 12.6647 18.3659 13.0223 18.8907C13.3077 19.3098 13.4841 19.8117 13.603 20.281C13.7245 20.7607 13.8027 21.2757 13.8608 21.7623C13.9188 22.2481 13.9592 22.7391 13.9972 23.1526C13.9999 23.1814 14.0022 23.2097 14.0048 23.2375L18.7736 22.7418C18.7692 22.6939 18.7664 22.6448 18.7615 22.5947C18.721 22.1781 18.6673 21.689 18.6326 21.2119C18.5978 20.7335 18.5777 20.226 18.6069 19.7504C18.6352 19.2885 18.7148 18.7727 18.9313 18.3222C19.1932 17.7778 19.6665 17.3128 20.0731 16.944C20.5582 16.504 20.9374 16.2073 21.4105 15.7598C22.2911 14.927 22.8568 14.1337 22.8571 13.1763ZM24.8692 13.1763C24.8689 15.0097 23.7571 16.31 22.7934 17.2214C22.3444 17.6461 21.7581 18.1329 21.4257 18.4343C21.0153 18.8066 20.8187 19.0407 20.7449 19.1939C20.6932 19.3014 20.6379 19.5163 20.616 19.8747C20.5949 20.2192 20.608 20.6236 20.6402 21.0664C20.6726 21.5108 20.7213 21.954 20.7646 22.3991C20.8061 22.8261 20.8434 23.268 20.8434 23.6439C20.8434 24.1592 20.4539 24.5913 19.9412 24.6445L13.2345 25.342C12.7153 25.3959 12.2398 25.0434 12.1413 24.5308C12.0746 24.1838 12.0326 23.7536 11.9942 23.3361C11.954 22.8994 11.916 22.4505 11.8623 22.0003C11.8087 21.5515 11.7423 21.1339 11.6515 20.7753C11.5579 20.4059 11.4536 20.1624 11.3589 20.0233C11.2409 19.8504 10.9945 19.6359 10.5416 19.3349C10.1685 19.087 9.53053 18.7048 9.04041 18.3585C7.98056 17.6097 6.75684 16.4754 6.75684 14.5712C6.75688 12.7989 7.79605 10.9756 9.31335 9.63154C10.854 8.26684 13.0042 7.28457 15.4377 7.28452C17.7449 7.28452 20.0236 7.8418 21.7593 8.80826C23.4589 9.75476 24.8692 11.2438 24.8692 13.1763Z" fill="#E4981F"/>
<defs>
<radialGradient id="paint0_radial_9800_57447" cx="0" cy="0" r="1" gradientTransform="matrix(5.12431 13.7969 -13.7983 5.12377 15.8133 15.2736)" gradientUnits="userSpaceOnUse">
<stop stop-color="#F7E922" stop-opacity="0.8"/>
<stop offset="0.865385" stop-color="#F7E922" stop-opacity="0"/>
</radialGradient>
</defs>
</svg>
