<svg width="75" height="86" viewBox="0 0 75 86" fill="none" xmlns="http://www.w3.org/2000/svg">
<path d="M28.4358 26.4103C28.0781 25.1816 26.7811 24.434 25.5387 24.7405C24.2962 25.047 23.579 26.2914 23.9366 27.5201L30.4044 49.7419C30.762 50.9706 32.0591 51.7182 33.3015 51.4117C34.5439 51.1052 35.2612 49.8608 34.9036 48.6321L28.4358 26.4103Z" fill="#A55E40"/>
<path d="M17.0791 37.7166L19.6021 40.356C20.9762 41.7953 23.2741 41.7953 24.6482 40.356C26.0223 38.9183 28.3202 38.9183 29.6942 40.356C31.0683 41.7953 33.3662 41.7953 34.7403 40.356C36.1144 38.9183 38.4123 38.9183 39.7863 40.356L39.9012 40.4755C41.2132 41.8496 43.4055 41.8496 44.7175 40.4755L44.9333 40.2505C46.2142 38.9106 48.3848 39.0083 49.54 40.4585C50.6361 41.8357 52.6654 42.0064 53.9759 40.8311L57.4475 37.7166L52.7151 79.2728C52.5365 80.8409 51.209 82.0271 49.63 82.0271H24.1094C22.5071 82.0271 21.1687 80.8083 21.0166 79.2153L17.0791 37.7166Z" fill="#FFD966"/>
<path d="M39.6207 75.699L36.9229 74.1614L34.1568 79.0146L36.8547 80.5522L39.6207 75.699Z" fill="#FFF1C2"/>
<path d="M42.7262 66.7793L40.0283 65.2417L37.2623 70.0949L39.9601 71.6325L42.7262 66.7793Z" fill="#FFF1C2"/>
<path d="M44.0019 75.0469L40.9785 74.3384L39.7039 79.7771L42.7273 80.4857L44.0019 75.0469Z" fill="#FFF1C2"/>
<path d="M45.2551 66.7635L43.6162 69.4011L48.3611 72.3494L49.9999 69.7118L45.2551 66.7635Z" fill="#FFF1C2"/>
<path d="M50.1642 60.5519L47.4229 62.0105L50.0467 66.942L52.7881 65.4835L50.1642 60.5519Z" fill="#FFF1C2"/>
<path d="M47.8304 73.3549L45.3691 75.2483L48.7753 79.6758L51.2365 77.7824L47.8304 73.3549Z" fill="#FFF1C2"/>
<path d="M27.7513 70.6294L26.2256 73.334L31.0909 76.0786L32.6167 73.374L27.7513 70.6294Z" fill="#FFF1C2"/>
<path d="M24.616 64.0799L21.7363 65.2417L23.8264 70.4221L26.7061 69.2602L24.616 64.0799Z" fill="#FFF1C2"/>
<path d="M34.9031 66.0474L31.7988 65.9683L31.6564 71.5527L34.7607 71.6318L34.9031 66.0474Z" fill="#FFF1C2"/>
<path d="M26.5029 74.2305L23.5361 75.1475L25.1857 80.4845L28.1525 79.5675L26.5029 74.2305Z" fill="#FFF1C2"/>
<path d="M59.9611 29.9534H14.5649C13.3808 29.9534 12.4209 30.9133 12.4209 32.0974C12.4209 33.2816 13.3808 34.2415 14.5649 34.2415H59.9611C61.1452 34.2415 62.1051 33.2816 62.1051 32.0974C62.1051 30.9133 61.1452 29.9534 59.9611 29.9534Z" fill="#1A1A1A"/>
<path d="M58.1281 31.894C59.2761 31.894 60.19 32.8862 60.0568 34.0501V34.0517C58.8796 44.2023 56.5222 64.3428 55.0411 77.2752C54.615 81.0043 51.4597 83.8177 47.707 83.8177H26.604C23.3985 83.8177 20.5857 81.7022 20.0462 78.4305C18.4363 68.6756 15.837 46.6734 14.4604 34.0335H14.4589L14.4482 33.8166C14.4495 32.7448 15.3306 31.894 16.3905 31.894H58.1281ZM16.8227 34.223C18.2119 46.9348 20.7654 68.4815 22.3448 78.0515L22.4237 78.426C22.8999 80.2595 24.5608 81.4888 26.604 81.4888H47.707C50.2764 81.4888 52.4343 79.5623 52.7258 77.0098H52.7273C54.1875 64.2599 56.4988 44.5015 57.6915 34.223H16.8227Z" fill="#1A1A1A"/>
<path d="M41.5625 57.7388H34.5625L38.0625 62.9888L41.5625 57.7388Z" fill="#FFAFA3"/>
<path d="M41.5622 56.5742C41.9914 56.5744 42.3861 56.8113 42.5887 57.1898C42.7909 57.5683 42.769 58.0275 42.5311 58.3846L39.0301 63.6354C38.814 63.9589 38.4502 64.1539 38.0612 64.1539C37.6722 64.1537 37.3082 63.959 37.0923 63.6354L33.5928 58.3846C33.3547 58.0274 33.3328 57.5684 33.5352 57.1898C33.7378 56.8112 34.1323 56.5742 34.5617 56.5742H41.5622ZM38.0612 60.8879L39.3864 58.9032H36.7375L38.0612 60.8879Z" fill="#1A1A1A"/>
<path d="M47.3191 55.2627C47.8197 55.7994 48.6983 55.8619 49.2814 55.4011C49.8643 54.9403 49.9303 54.1315 49.4299 53.5948C47.9061 51.9609 46.1444 51.4838 44.5179 51.7701C43.0221 52.0336 41.8505 52.9041 41.2093 53.6015C40.7128 54.1414 40.7858 54.9491 41.3724 55.4061C41.959 55.8631 42.8364 55.7959 43.3329 55.256C43.7012 54.8554 44.3516 54.4085 45.0397 54.2869C45.5974 54.1887 46.3836 54.2596 47.3191 55.2627Z" fill="#1A1A1A"/>
<path d="M31.8083 55.2627C32.3089 55.7994 33.1875 55.8619 33.7706 55.4011C34.3535 54.9403 34.4196 54.1315 33.9192 53.5948C32.3954 51.9609 30.6336 51.4838 29.0071 51.7701C27.5113 52.0336 26.3398 52.9041 25.6986 53.6015C25.2021 54.1414 25.2751 54.9491 25.8616 55.4061C26.4483 55.8631 27.3256 55.7959 27.8221 55.256C28.1905 54.8554 28.8408 54.4085 29.5289 54.2869C30.0867 54.1887 30.8729 54.2596 31.8083 55.2627Z" fill="#1A1A1A"/>
</svg>
