<svg width="75" height="86" viewBox="0 0 75 86" fill="none" xmlns="http://www.w3.org/2000/svg">
<path d="M69.9587 72.3797C70.5715 72.6886 70.7855 72.9837 70.851 73.1343C70.9018 73.2507 70.9044 73.364 70.8169 73.5209C70.5986 73.9121 69.7809 74.5099 68.3157 74.5099H59.8127C58.3574 74.5099 57.9735 76.5206 59.3263 77.0562L65.9972 79.7019C66.9551 80.0823 67.213 80.7716 67.1602 81.2561C67.1098 81.7203 66.7457 82.287 65.748 82.391C57.4597 83.262 46.643 83.8878 40.8862 84.0337C32.3692 84.2495 23.8392 83.6984 16.7578 82.4827C13.2172 81.8756 10.1685 81.1241 7.71405 80.2748C5.24103 79.4178 3.44914 78.4877 2.35687 77.5639C1.26781 76.6417 1.09162 75.9305 1.18855 75.4244C1.30412 74.8204 1.89078 73.9695 3.45001 73.0023C6.53211 71.091 12.2869 69.4281 19.8558 68.3894C27.3797 67.3569 36.0834 67.0231 44.4734 67.4516C52.8726 67.8817 60.3776 69.0431 65.7202 70.7152C67.4 71.2416 68.8149 71.8005 69.9587 72.3797Z" fill="#91D940"/>
<path fill-rule="evenodd" clip-rule="evenodd" d="M66.4275 78.6201C67.8304 79.1775 68.4324 80.3349 68.3182 81.3827C68.2661 81.8609 68.0522 82.3796 67.6147 82.7989C67.1726 83.2224 66.5739 83.4743 65.868 83.5479L65.8695 83.5494C58.5886 84.3146 49.3735 84.8899 43.3078 85.1202L40.9152 85.1976C32.3358 85.4149 23.7292 84.8603 16.5613 83.6298L15.2392 83.3932C12.2075 82.8231 9.54731 82.1411 7.33348 81.3751C4.80401 80.4985 2.8546 79.5097 1.6036 78.4518C0.345151 77.3858 -0.162167 76.2872 0.044905 75.2055L0.0919085 75.0008C0.372125 73.982 1.28886 72.9723 2.83631 72.0123L3.48526 71.6333C6.88622 69.7582 12.5692 68.2144 19.6969 67.2362L21.1358 67.0481C28.3957 66.1531 36.6058 65.8836 44.533 66.2885L46.1083 66.378C53.9311 66.8696 60.9408 67.9997 66.0681 69.6045L67.3145 70.017C68.5125 70.4365 69.5708 70.878 70.4819 71.3391C71.251 71.7269 71.7121 72.1942 71.9193 72.6704C71.9998 72.8554 72.0663 73.0982 72.0482 73.386C72.0305 73.6661 71.9368 73.9019 71.8329 74.0881L71.7313 74.2518C71.1757 75.0569 69.9308 75.6741 68.3152 75.6741H59.8121C59.7668 75.6741 59.743 75.6825 59.7333 75.6862C59.7234 75.6899 59.7167 75.6943 59.7105 75.6998C59.6959 75.7129 59.6711 75.7453 59.6605 75.7999C59.65 75.8549 59.6609 75.8962 59.6696 75.9136C59.6732 75.9206 59.6775 75.9266 59.6848 75.9333C59.6922 75.9402 59.7119 75.9574 59.7545 75.9743L66.4275 78.6201ZM15.6667 81.1037C12.7207 80.5496 10.176 79.8952 8.09463 79.1751C5.67904 78.3379 4.0427 77.4642 3.10923 76.6748C2.64714 76.2834 2.45703 76.0011 2.38143 75.8408C2.31843 75.7071 2.33109 75.6517 2.33291 75.6437C2.35583 75.524 2.5951 74.901 4.06143 73.991L4.06295 73.9925C6.92782 72.216 12.479 70.5764 20.0138 69.5424L21.4239 69.3589C28.5367 68.4822 36.6094 68.2159 44.4132 68.6144L45.9673 68.7024C53.6737 69.187 60.4824 70.2954 65.3722 71.8258L66.5458 72.2155C67.5172 72.5558 68.369 72.9039 69.1021 73.2556C68.8899 73.3065 68.6293 73.3451 68.3152 73.3451H59.8121C57.0746 73.3455 56.3493 77.1288 58.8978 78.1379L65.5678 80.7838C65.8497 80.8958 65.9452 81.0172 65.9741 81.0628C65.9895 81.087 65.9952 81.1067 65.9984 81.1189C65.9799 81.1346 65.8861 81.2054 65.6254 81.2326C58.4023 81.9917 49.2423 82.5642 43.2275 82.7928L40.8561 82.8701C32.402 83.0843 23.9486 82.535 16.954 81.3342L15.6667 81.1037Z" fill="#1A1A1A"/>
<path d="M38.5156 36.161C38.5812 31.9366 42.6629 28.5174 47.1152 29.7284C50.6361 30.6863 52.7024 34.2049 51.999 37.6454C55.9072 38.577 58.747 42.0867 58.7471 46.2011C58.7469 50.3461 55.8973 53.7589 52.1299 54.7216L54.7373 65.1942C55.9544 70.0827 52.4978 74.8184 47.6006 75.2743C47.1358 77.2887 45.2541 78.7123 43.1318 78.5429C41.2597 78.3921 39.7707 77.0456 39.3516 75.3143H35.4072C34.988 77.0454 33.4999 78.392 31.6279 78.5429C29.5104 78.7119 27.631 77.2953 27.1611 75.288C22.1825 74.9184 18.6412 70.1339 19.8711 65.1942L22.4795 54.7128C18.7119 53.751 15.8613 50.3373 15.8613 46.1913C15.8614 42.0785 18.7007 38.5711 22.6084 37.6395C21.9092 34.2005 23.9747 30.6848 27.4932 29.7284C31.9421 28.5175 36.0212 31.9323 36.0928 36.1522C36.8999 36.1103 37.7088 36.1129 38.5156 36.161Z" fill="#0D99FF"/>
<path d="M37.2801 60.6923C36.42 60.6923 34.9325 61.2916 34.4419 61.5587L35.6312 74.2172H39.1371L40.4459 61.5587C39.6929 61.1596 38.1403 60.6923 37.2801 60.6923Z" fill="#F5F5F5"/>
<path fill-rule="evenodd" clip-rule="evenodd" d="M37.1432 34.959C36.3978 30.583 31.9868 27.2985 27.1876 28.6045C23.4281 29.6282 21.0862 33.1419 21.3243 36.8073C17.4297 38.188 14.6968 41.8973 14.6968 46.1914C14.6968 50.4715 17.3787 54.0635 21.0847 55.4905L18.7406 64.9124C17.4009 70.2934 21.0166 75.5081 26.2854 76.3509C27.1159 78.3949 29.1463 79.7851 31.4422 79.7185L31.7196 79.7033C33.7742 79.5379 35.4672 78.2432 36.2395 76.4783H38.3668C39.1392 78.2434 40.8337 79.5378 42.8883 79.7033C45.2967 79.8952 47.462 78.4773 48.3255 76.3509C53.4126 75.5351 56.958 70.6438 55.9871 65.4628L55.8658 64.9124L53.5217 55.4996C57.2289 54.0725 59.9111 50.4801 59.9111 46.2004C59.911 41.9029 57.1769 38.1923 53.2806 36.8134C53.5215 33.1455 51.1816 29.628 47.4203 28.6045C42.6212 27.2998 38.2087 30.5827 37.4631 34.959C37.3768 34.9581 37.2905 34.9584 37.2042 34.9588C37.1839 34.9589 37.1636 34.959 37.1432 34.959ZM35.3829 54.9977C36.5948 54.8595 37.819 54.8596 39.0309 54.9947L48.841 56.097C49.6674 56.1897 50.4786 56.1745 51.264 56.0712L53.6066 65.4749L53.696 65.8888C54.37 69.4871 52.1394 72.8993 48.7758 73.8703L49.6462 63.058C49.6976 62.4172 49.2194 61.8559 48.5787 61.8041C47.9378 61.7527 47.3764 62.2306 47.3248 62.8715L46.3847 74.5633C46.2483 76.2549 44.7662 77.5167 43.0732 77.382C41.3811 77.2454 40.1199 75.7615 40.2561 74.069L41.1961 62.3803C41.2475 61.7396 40.7692 61.1769 40.1287 61.1248C39.488 61.0733 38.9268 61.5517 38.8748 62.1923L37.9347 73.8825C37.9275 73.9717 37.9223 74.0608 37.9195 74.1493H36.6883L36.6732 73.8825L35.7331 62.1923C35.6811 61.5517 35.1199 61.0734 34.4792 61.1248C33.8385 61.1766 33.3603 61.7395 33.4118 62.3803L34.3518 74.069L34.3609 74.3844C34.3302 75.8386 33.2759 77.0784 31.8455 77.341L31.5331 77.382C29.946 77.5079 28.5449 76.4063 28.2641 74.8741L28.2232 74.5633L27.2831 62.8715C27.2315 62.2306 26.6686 61.7526 26.0277 61.8041C25.3873 61.8562 24.9089 62.4175 24.9602 63.058L25.8305 73.8719C22.3383 72.8633 20.067 69.2216 20.9998 65.4749L23.3424 56.0621C24.1311 56.166 24.946 56.1803 25.776 56.0863L35.3829 54.9977ZM39.6799 36.1796C39.7344 32.674 43.1285 29.8502 46.8093 30.853C49.6349 31.6216 51.3328 34.3821 50.9061 37.1455L50.8576 37.4123C50.7317 38.0287 51.1181 38.6325 51.7295 38.7784C55.1192 39.5859 57.582 42.6312 57.5822 46.2004C57.5822 50.7512 53.6234 54.2909 49.1003 53.7832L39.2917 52.6809C37.9059 52.5256 36.5061 52.5256 35.1206 52.6824L25.5136 53.7726C20.9889 54.2846 17.0257 50.745 17.0257 46.1914C17.0258 42.6234 19.4891 39.5798 22.8784 38.7709C23.4888 38.6246 23.8738 38.0224 23.7487 37.4062C23.1697 34.5574 24.8843 31.6449 27.7986 30.853C31.4767 29.8516 34.8686 32.671 34.928 36.172C34.9334 36.4871 35.067 36.7886 35.298 37.0044C35.529 37.2185 35.8377 37.3321 36.1531 37.3153C36.7256 37.285 37.2997 37.2784 37.8725 37.2971L38.4442 37.3244L38.5639 37.3259C38.8391 37.3149 39.103 37.2053 39.3069 37.0166C39.5111 36.8263 39.6402 36.5719 39.6723 36.2979L39.6799 36.1796Z" fill="#1A1A1A"/>
<path d="M24.2313 47.0389C26.0156 47.0389 27.4621 45.612 27.4621 43.8518C27.4621 42.0917 26.0156 40.6648 24.2313 40.6648C22.447 40.6648 21.0005 42.0917 21.0005 43.8518C21.0005 45.612 22.447 47.0389 24.2313 47.0389Z" fill="#093077"/>
<path d="M50.3774 47.0389C52.1617 47.0389 53.6082 45.612 53.6082 43.8518C53.6082 42.0917 52.1617 40.6648 50.3774 40.6648C48.5931 40.6648 47.1466 42.0917 47.1466 43.8518C47.1466 45.612 48.5931 47.0389 50.3774 47.0389Z" fill="#093077"/>
<path d="M45.3825 35.3484C46.1414 35.3484 46.7565 35.9635 46.7565 36.7224C46.7565 37.4812 46.1413 38.0964 45.3825 38.0964C44.6238 38.0963 44.0085 37.4811 44.0085 36.7224C44.0085 35.9636 44.6237 35.3485 45.3825 35.3484ZM46.7946 31.6667C47.356 31.3691 48.0307 31.4724 48.3014 31.8972C48.572 32.3221 48.3372 32.9081 47.7761 33.2058L47.7731 33.2068C47.7722 33.2073 47.7708 33.2088 47.7692 33.2097C47.7649 33.2119 47.7577 33.2152 47.7497 33.2194C47.7329 33.2283 47.7078 33.2419 47.6764 33.2585C47.6131 33.292 47.5217 33.3406 47.4089 33.4001C47.1821 33.5198 46.8675 33.6849 46.5202 33.8669C45.8295 34.2289 44.9917 34.6645 44.4411 34.9392L44.3337 34.987C43.79 35.2063 43.189 35.0747 42.9518 34.6677C42.699 34.2336 42.9557 33.6512 43.5251 33.3669L44.4753 32.8825C44.8301 32.6991 45.2064 32.5023 45.5524 32.321C45.8963 32.1408 46.2074 31.9778 46.4323 31.8591L46.7702 31.6794C46.7783 31.6751 46.7856 31.6718 46.7897 31.6696C46.7914 31.6687 46.7927 31.6672 46.7936 31.6667H46.7946Z" fill="#1A1A1A"/>
<path d="M29.202 35.3478C28.4433 35.3478 27.8282 35.9631 27.828 36.7218C27.828 37.4807 28.4431 38.0959 29.202 38.0959C29.9609 38.0959 30.576 37.4807 30.576 36.7218C30.5758 35.9631 29.9608 35.3478 29.202 35.3478ZM27.7899 31.6662C27.2285 31.3686 26.5537 31.4726 26.2831 31.8976C26.0128 32.3225 26.2476 32.9075 26.8085 33.2052L26.8114 33.2062C26.8124 33.2068 26.8136 33.2082 26.8153 33.2091C26.8196 33.2114 26.8274 33.2154 26.8358 33.2199C26.8525 33.2287 26.877 33.2415 26.9081 33.258C26.9715 33.2915 27.0634 33.3408 27.1766 33.4005C27.4034 33.5202 27.7172 33.6854 28.0643 33.8673C28.7552 34.2294 29.5938 34.665 30.1444 34.9396L30.2518 34.9875C30.7954 35.2066 31.3956 35.0741 31.6327 34.6671C31.8854 34.233 31.629 33.6505 31.0594 33.3664L30.1102 32.883C29.7552 32.6994 29.3782 32.5029 29.0321 32.3214C28.688 32.1411 28.3771 31.9773 28.1522 31.8586L27.8143 31.6789C27.8063 31.6746 27.7999 31.6713 27.7958 31.6691L27.7899 31.6662Z" fill="#1A1A1A"/>
<path d="M39.5731 44.2605C40.0329 44.7098 40.7702 44.702 41.2197 44.2423C41.669 43.7824 41.6597 43.0452 41.2 42.5956L38.1175 39.5813C37.6649 39.1389 36.9415 39.1389 36.489 39.5813L33.4065 42.5956L33.3261 42.6836C32.9481 43.1367 32.9668 43.8112 33.3883 44.2423C33.8099 44.6733 34.484 44.7073 34.9455 44.3393L35.0349 44.2605L37.3032 42.0422L39.5731 44.2605Z" fill="#1A1A1A"/>
</svg>
