<svg width="75" height="86" viewBox="0 0 75 86" fill="none" xmlns="http://www.w3.org/2000/svg">
<path d="M67.1107 82.7243C53.8279 79.293 18.7571 61.655 3.10498 48.4576C3.10498 48.4576 14.3848 44.4986 29.1566 40.8344C43.9283 37.1546 54.7378 34.158 54.7378 34.158C60.4126 43.2564 67.3312 66.7476 70.025 79.7121C70.4147 81.6063 68.9707 83.2056 67.1107 82.7243Z" fill="#FFE8A3"/>
<path d="M55.7263 33.5424C58.6476 38.2263 61.8326 46.4979 64.6085 55.1291C67.0466 62.7102 69.1993 70.6662 70.6082 76.9099L71.1647 79.4754L71.1662 79.4769L70.1139 79.6922L70.0624 79.7043L71.1662 79.4769C71.4322 80.7697 71.0814 82.0366 70.258 82.9082C69.42 83.7949 68.1572 84.1975 66.8191 83.8513L65.4864 83.4828C58.5159 81.4314 47.0768 76.3736 35.4557 70.2855C23.0479 63.7852 10.2785 56.0289 2.3546 49.3477L0.795898 48.0346L2.72001 47.3584H2.72153C2.72307 47.3578 2.72619 47.3563 2.72911 47.3553C2.73492 47.3533 2.74389 47.3501 2.75488 47.3462C2.77732 47.3384 2.81012 47.3264 2.85344 47.3114C2.9411 47.281 3.07144 47.2362 3.2416 47.1779C3.58187 47.0615 4.08322 46.8913 4.73055 46.6761C6.02547 46.2454 7.90516 45.6346 10.2466 44.9081C14.9285 43.4555 21.463 41.543 28.8752 39.7044C36.2537 37.8663 42.6426 36.1983 47.1868 34.9904C49.4585 34.3866 51.2697 33.8985 52.5119 33.5606C53.1327 33.3917 53.6121 33.2598 53.9356 33.1709C54.0972 33.1265 54.2202 33.092 54.3026 33.0693C54.3437 33.0579 54.3759 33.0508 54.3966 33.045C54.4067 33.0422 54.4142 33.0389 54.4193 33.0375C54.4218 33.0368 54.4241 33.0363 54.4254 33.0359H54.4269L55.2654 32.804L55.7263 33.5424ZM53.1244 35.8076C51.8783 36.1466 50.0625 36.6368 47.7857 37.242C43.2324 38.4523 36.8306 40.122 29.4377 41.9636V41.9651C22.0786 43.7905 15.5872 45.6895 10.9365 47.1324C8.61275 47.8534 6.74902 48.459 5.46744 48.8852C13.2645 55.0996 25.0003 62.1781 36.5368 68.2218C48.9096 74.7038 60.8978 79.9164 67.4014 81.5966H67.4029C67.9247 81.7316 68.3143 81.5747 68.5658 81.3085C68.8314 81.0271 69.0079 80.5462 68.8843 79.9454C67.5467 73.5092 65.1546 64.4371 62.3902 55.8417C59.7632 47.6734 56.834 40.0492 54.1934 35.5135C53.9054 35.5923 53.5481 35.6924 53.1244 35.8076Z" fill="#1A1A1A"/>
<path d="M51.7812 51.2424C55.3615 51.2424 58.2646 53.52 58.2646 56.3293C58.2646 59.1387 55.3616 61.4163 51.7812 61.4163C48.2011 61.4161 45.2988 59.1386 45.2988 56.3293C45.2989 53.5201 48.2011 51.2426 51.7812 51.2424ZM29.498 49.7053C32.927 49.7053 35.707 52.0182 35.707 54.8704C35.7067 57.7223 32.9268 60.0344 29.498 60.0344C26.0693 60.0344 23.2894 57.7223 23.2891 54.8704C23.2891 52.0182 26.0691 49.7054 29.498 49.7053ZM45.2979 36.4309C48.878 36.4309 51.78 38.7077 51.7803 41.5168C51.7803 44.3262 48.8782 46.6037 45.2979 46.6038C41.7175 46.6038 38.8154 44.3262 38.8154 41.5168C38.8157 38.7077 41.7177 36.4309 45.2979 36.4309Z" fill="#FF99E0"/>
<path d="M31.0198 31.7358C25.1617 33.3971 9.98003 39.5922 3.10498 43.1322L8.09981 53.0691C15.8676 49.5601 30.1021 44.2191 32.5724 43.5204C34.9759 42.8372 48.5924 39.0488 55.6321 37.0925C55.9985 36.9993 56.3183 36.7663 56.4907 36.4247C57.0776 35.2603 57.7126 33.2729 57.253 31.7358C56.7996 30.1987 55.5964 28.9255 54.744 28.2579C54.4723 28.0405 54.1229 27.963 53.7782 28.0096C48.2198 28.6151 36.6915 30.121 31.0198 31.7358Z" fill="#D4693B"/>
<path d="M53.6523 26.8532C54.2541 26.7789 54.9164 26.9117 55.4611 27.343L55.4626 27.3415C56.4107 28.0842 57.819 29.5413 58.3693 31.402L58.4663 31.7901C58.6545 32.6996 58.5753 33.6409 58.4042 34.4587C58.2058 35.4061 57.8628 36.2895 57.5308 36.9484L56.0979 36.2266L56.4907 36.4253L57.5308 36.9484V36.9499L57.3898 37.191C57.039 37.7214 56.5054 38.0625 55.9433 38.2114L55.9448 38.2144C48.9025 40.1715 35.2895 43.9583 32.8904 44.6403L32.3081 44.8207C28.7522 45.9746 15.8379 50.8514 8.57893 54.1304C8.01012 54.387 7.34 54.1497 7.05966 53.5922L2.06516 43.6547C1.77859 43.0844 2.00438 42.3901 2.57158 42.0975C9.49786 38.5312 24.7511 32.3026 30.7009 30.615C36.472 28.972 48.0663 27.4624 53.6219 26.8563C53.6318 26.8549 53.6423 26.8529 53.6523 26.8517V26.8532ZM53.7781 28.0101L53.9343 29.164C53.9244 29.1653 53.9138 29.166 53.9039 29.167C48.3304 29.7742 36.8993 31.2727 31.3377 32.856L31.1133 32.0646L31.3377 32.856C25.8451 34.4137 11.8804 40.0793 4.66854 43.6502L8.6411 51.5528C16.5991 48.0431 29.8126 43.0903 32.255 42.3993C34.6653 41.7142 48.2839 37.9258 55.3201 35.9704L55.3459 35.9643C55.4227 35.9447 55.4462 35.9084 55.4505 35.9007L55.6431 35.4882C55.8329 35.0466 56.0121 34.5219 56.1252 33.9811C56.2789 33.247 56.2903 32.5805 56.1374 32.0691L56.1359 32.0646C55.7785 30.8538 54.7826 29.7667 54.0268 29.1746L54.7788 28.2133L54.7439 28.2573L54.0268 29.1746L54.0161 29.167C54.0146 29.1664 54.0119 29.1663 54.0086 29.1655C53.996 29.1624 53.9709 29.159 53.9343 29.164L53.7781 28.0086V28.0101Z" fill="#1A1A1A"/>
<path d="M8.83121 47.1378C9.75348 50.2431 8.90575 52.8981 7.0519 53.4105C5.19806 53.9229 2.58967 52.1994 1.66896 49.0941C0.746699 45.9889 1.50279 43.07 3.35663 42.5576C5.21048 42.0452 7.9105 44.0325 8.83121 47.1378Z" fill="#864E37"/>
<path d="M3.0467 41.4357C4.47943 41.0399 6.00036 41.642 7.1724 42.5835C8.38047 43.5541 9.41996 45.0288 9.94712 46.8063C10.4579 48.5262 10.5046 50.2001 10.1003 51.5748C9.6961 52.9483 8.79076 54.1381 7.36193 54.533C5.97615 54.916 4.49053 54.4325 3.3075 53.5384C2.10164 52.6269 1.08035 51.2059 0.552484 49.4263L0.382665 48.7819C0.0333902 47.282 0.0231754 45.8065 0.344759 44.5622C0.706037 43.1645 1.56149 41.8462 3.0467 41.4357ZM5.71377 44.3985C4.8427 43.6989 4.08769 43.5636 3.66684 43.6798C3.29835 43.7816 2.84913 44.1788 2.59941 45.1445C2.35603 46.0862 2.37237 47.3745 2.78439 48.7622L2.78591 48.7637C3.17884 50.0885 3.92156 51.0813 4.71305 51.6795C5.52781 52.2952 6.27375 52.4168 6.74178 52.2875C7.1666 52.1699 7.61277 51.7762 7.86532 50.9183C8.11752 50.0612 8.12658 48.8539 7.71521 47.4689C7.32159 46.1413 6.5492 45.0697 5.71377 44.3985Z" fill="#1A1A1A"/>
<path d="M54.3078 41.8746C55.3822 41.7503 56.2393 42.744 55.9551 43.7998L54.7565 48.1939C54.564 48.9081 53.9088 49.3739 53.179 49.3428L52.4105 49.2962L51.8189 49.234C51.069 49.1409 50.493 48.5354 50.4526 47.7746L50.2243 43.5049C50.1778 42.6199 50.8842 41.8746 51.7754 41.8746H54.3078Z" fill="#FAB815"/>
<path d="M27.5713 55.2581C28.124 54.3266 27.5666 53.1311 26.4984 52.9603L21.9927 52.2306C21.2723 52.1064 20.5674 52.5101 20.2988 53.1932L20.0178 53.9074L19.8376 54.4663C19.6094 55.196 19.9308 55.9724 20.6 56.314L24.3946 58.3014C25.1834 58.7051 26.1569 58.3634 26.5248 57.556L27.5713 55.2581Z" fill="#FAB815"/>
<path d="M36.2239 63.4096C35.5827 62.5402 36.0221 61.2982 37.0686 61.0187L41.4827 59.8542C42.1891 59.6679 42.9282 59.994 43.2605 60.6461L43.6114 61.3292L43.8458 61.8725C44.1424 62.5712 43.8986 63.3786 43.2651 63.7978L39.6817 66.1267C38.9349 66.6081 37.9349 66.3752 37.4893 65.5989L36.2239 63.4096Z" fill="#FAB815"/>
<path d="M58.885 63.4251C58.4503 64.4032 57.1539 64.6517 56.3931 63.8754L53.1776 60.646C52.6636 60.1181 52.5798 59.3107 52.9757 58.7052L53.3949 58.053L53.752 57.5872C54.2038 56.9816 55.0252 56.7799 55.6975 57.1215L59.5108 59.0623C60.3041 59.466 60.596 60.4597 60.152 61.2205L58.885 63.4251Z" fill="#FAB815"/>
<path d="M35.7738 48.4731C34.7646 48.8613 34.4665 50.1501 35.1994 50.9419L38.2953 54.2955C38.7906 54.8389 39.5918 54.9477 40.2222 54.575L40.8867 54.1869L41.3789 53.8607C42.0015 53.426 42.2297 52.6186 41.9176 51.9355L40.1507 48.0383C39.7827 47.231 38.8108 46.8894 38.0205 47.3086L35.7738 48.4731Z" fill="#FAB815"/>
<path d="M54.3086 41.0983C55.8896 40.9749 57.1219 42.45 56.7043 44.0019V44.0034L55.5049 48.3945C55.2157 49.4675 54.2299 50.1646 53.1457 50.1184L53.179 49.3421L53.132 50.1184L52.3633 50.0714L52.3299 50.0684L51.7386 50.0062L51.8235 49.1935L51.819 49.2345L51.7386 50.0062L51.7234 50.0047C50.607 49.866 49.7391 48.959 49.678 47.8168L49.4491 43.547L51.0002 43.4636L51.2276 47.7334C51.2477 48.1116 51.5309 48.4143 51.913 48.4627L52.4709 48.5218L53.22 48.5658C53.5919 48.5782 53.9117 48.3441 54.0069 47.9911L54.0084 47.9896L55.2062 43.5956C55.347 43.066 54.9211 42.5858 54.3966 42.6464L54.3526 42.6509H51.775C51.3278 42.6513 50.9773 43.0244 51.0002 43.4636L50.2239 43.5046L49.4491 43.547C49.3791 42.2169 50.4405 41.0986 51.775 41.0983H54.3086ZM53.1457 50.1184H53.132L53.179 49.3421L53.1457 50.1184Z" fill="#DD940E"/>
<path d="M53.1362 57.115C53.8097 56.2205 55.0347 55.9143 56.0489 56.4296L59.8623 58.3704C61.0492 58.9743 61.4901 60.4579 60.8236 61.6061L59.5575 63.8122C58.8718 65.2238 56.9683 65.5719 55.8382 64.4187V64.4172L52.6268 61.1936L52.6207 61.1876C51.8602 60.4062 51.7256 59.1985 52.3251 58.2809L52.742 57.6335L52.7587 57.6062L52.7784 57.5804L53.394 58.0535L53.4001 58.0565L52.7784 57.5804L53.1362 57.115ZM54.3674 58.0596L54.0354 58.4932L53.629 59.1255L53.626 59.13C53.4342 59.4234 53.4667 59.8308 53.7336 60.105L56.9435 63.327L56.9481 63.3315L57.0193 63.3967C57.397 63.6955 57.9727 63.5635 58.1747 63.1102L58.1914 63.0738L58.2111 63.0389L59.4787 60.8343L59.4817 60.8297C59.6992 60.4571 59.5566 59.9575 59.1588 59.7547L55.3454 57.8139C55.0182 57.6477 54.605 57.7418 54.3735 58.052L54.3674 58.0596L53.7776 57.6062L53.7427 57.5804L54.3674 58.0596Z" fill="#DD940E"/>
<path d="M19.5766 52.9088C19.9764 51.8925 21.0285 51.2826 22.1148 51.4653L22.1163 51.4638L26.6195 52.1946C28.2041 52.448 29.0365 54.1899 28.2768 55.5789L27.2306 57.8775C26.6802 59.085 25.2256 59.5985 24.0404 58.9919L24.0344 58.9889L24.3467 58.3915L24.3967 58.2975L24.0344 58.9889L20.2468 57.0041C19.2336 56.4865 18.7574 55.3165 19.096 54.234L19.099 54.2279L19.2794 53.6699L19.287 53.6457L19.2946 53.6229L20.0178 53.908L20.0239 53.9095L19.2946 53.6229L19.5766 52.9088ZM21.8601 52.9952C21.5532 52.9426 21.2457 53.0859 21.0822 53.3545L21.0216 53.4774L20.7547 54.1521L20.5773 54.6964L20.5788 54.6979C20.461 55.0746 20.6287 55.4571 20.9533 55.6228L20.9594 55.6259L24.7485 57.6106L24.8986 57.6682C25.2583 57.7651 25.6564 57.591 25.819 57.2346L26.8652 54.936L27.5672 55.2559L27.5626 55.2529L26.8652 54.936L26.8819 54.8981L26.9031 54.8617C27.1778 54.3987 26.8993 53.8113 26.3754 53.7275L26.3739 53.726L21.8692 52.9967L22.0162 52.0854L21.8601 52.9952ZM21.8692 52.9967L21.8601 52.9952L21.992 52.231L21.8692 52.9967Z" fill="#DD940E"/>
<path d="M41.4838 59.0607C42.4772 58.8885 43.4817 59.3735 43.9508 60.2919L44.3025 60.9742L44.3147 60.997L44.3253 61.0212L44.5588 61.5656L44.5603 61.5686C45.0033 62.6123 44.639 63.8196 43.6945 64.4449L43.2093 63.711L43.2654 63.7975L43.6945 64.4449L43.6885 64.4479L40.1056 66.7769L40.1025 66.7799L39.6825 66.1264L39.5415 65.9096L40.1025 66.7799C38.9882 67.4977 37.4872 67.1529 36.8168 65.9854V65.9839L35.5523 63.7975L35.5538 63.7959C34.6598 62.4871 35.3263 60.6814 36.8684 60.2692L36.8714 60.2677L37.0685 61.0182L37.1292 61.2456L36.8714 60.2677L41.2852 59.1032L41.4838 59.0607ZM42.5695 60.9985C42.4048 60.6753 42.0378 60.5102 41.681 60.6043L37.2672 61.7672L37.2687 61.7687C36.7471 61.9085 36.5357 62.5233 36.8487 62.9484L36.8745 62.9832L36.8972 63.0211L36.224 63.4093L36.221 63.4108L36.8972 63.0211L38.1618 65.2106L38.1633 65.2121C38.3564 65.5486 38.7616 65.6836 39.114 65.5487L39.261 65.4744L42.8424 63.147C43.1595 62.9337 43.2802 62.5303 43.1335 62.1796L42.9046 61.6535L42.571 61L42.5695 60.9985L43.1411 60.7074L43.3867 60.5815L42.5695 60.9985Z" fill="#DD940E"/>
<path d="M37.6633 46.6194C38.8536 45.9927 40.3071 46.5118 40.8565 47.7172L40.858 47.7187L42.6229 51.6124C43.0947 52.6453 42.7456 53.8541 41.8238 54.4978L41.8071 54.5084L41.3917 53.8807L41.378 53.861L41.8071 54.5084L41.3159 54.8344L41.2977 54.8465L41.278 54.8572L40.6154 55.2423L40.6169 55.2438C39.6787 55.7982 38.4705 55.6402 37.7209 54.8177L34.6308 51.4684C33.5451 50.2953 33.9589 48.4055 35.4162 47.7839L37.6633 46.6194ZM38.3774 47.9977L36.1318 49.1622L35.7725 48.4707L35.774 48.4738L36.1318 49.1622L36.0924 49.1819L36.053 49.1985C35.5877 49.3775 35.4287 49.9473 35.7073 50.3388L35.7695 50.4146V50.4161L38.8656 53.7685L38.294 54.2961L38.344 54.2491L38.8656 53.7685L38.8687 53.773L38.9657 53.8625C39.207 54.0486 39.5447 54.0733 39.8269 53.9065L39.83 53.905L40.4653 53.5335L40.9338 53.2242C41.2571 52.9984 41.3635 52.5917 41.2113 52.2583V52.2568L39.4433 48.3585V48.357C39.2567 47.9524 38.7728 47.7893 38.385 47.9946L37.9877 47.2456L38.3774 47.9977ZM38.385 47.9946L38.3774 47.9977L38.0211 47.3093L38.385 47.9946Z" fill="#DD940E"/>
<path d="M56.8182 74.308C57.278 74.7573 58.0153 74.7495 58.4648 74.2898C58.9142 73.8299 58.9049 73.0926 58.4451 72.6431L55.3626 69.6288C54.91 69.1864 54.1867 69.1864 53.7341 69.6288L50.6516 72.6431L50.5713 72.7311C50.1932 73.1842 50.212 73.8587 50.6334 74.2898C51.055 74.7207 51.7291 74.7547 52.1906 74.3868L52.2801 74.308L54.5484 72.0897L56.8182 74.308Z" fill="#1A1A1A"/>
<path d="M61.7688 65.8176C62.286 65.6857 62.8448 65.9152 63.0933 66.393C63.3418 66.8717 63.1968 67.4409 62.7747 67.7584L62.5773 67.8764L61.4 68.4402L62.4925 69.1271L62.6743 69.2684C63.0546 69.6311 63.1315 70.213 62.8266 70.6604C62.5215 71.1079 61.9346 71.273 61.4364 71.0828L61.2304 70.9797L58.4603 69.2352C58.1156 69.018 57.9169 68.641 57.9409 68.2457C57.9653 67.8502 58.2089 67.4961 58.578 67.3193L61.5489 65.8974L61.7688 65.8176Z" fill="#1A1A1A"/>
<path d="M46.9641 65.8176C46.4469 65.6857 45.8881 65.9152 45.6397 66.393C45.3911 66.8717 45.5361 67.4409 45.9582 67.7584L46.1556 67.8764L47.3329 68.4402L46.2404 69.1271L46.0586 69.2684C45.6783 69.6311 45.6014 70.213 45.9063 70.6604C46.2114 71.1079 46.7983 71.273 47.2965 71.0828L47.5025 70.9797L50.2726 69.2352C50.6173 69.018 50.816 68.641 50.792 68.2457C50.7676 67.8502 50.524 67.4961 50.1549 67.3193L47.184 65.8974L46.9641 65.8176Z" fill="#1A1A1A"/>
</svg>
