<svg width="75" height="86" viewBox="0 0 75 86" fill="none" xmlns="http://www.w3.org/2000/svg">
<path d="M10.1141 55.4242L13.3342 51.2368L16.7298 52.85L18.7265 56.685L28.4677 56.6074L30.0172 53.3825L31.691 55.4242L35.5865 52.85L37.8922 54.5905H40.3081L51.8224 53.3825L59.23 54.5905L62.7234 56.6896L64.7061 59.5837L66.9885 62.4235L70.1823 70.213V74.6412L68.4107 79.473L65.9948 81.406L56.6666 84.1433L47.8073 80.5194L40.3081 81.406L31.691 84.1433H28.873L26.5378 80.5194L13.8963 79.473L6.3272 82.4525L3.5076 80.5194L3.10547 77.7821L7.79753 74.5107L7.28049 67.35L10.1141 55.4242Z" fill="#2C2C2C"/>
<path opacity="0.7" d="M12.999 68.3148C15.0332 68.3148 16.6826 69.7601 16.6826 71.5423C16.6824 73.3244 15.0331 74.7688 12.999 74.7689C10.9649 74.7689 9.31562 73.3244 9.31543 71.5423C9.31543 69.7601 10.9648 68.3148 12.999 68.3148ZM33.1836 68.3148C35.2176 68.315 36.8662 69.7602 36.8662 71.5423C36.866 73.3243 35.2175 74.7687 33.1836 74.7689C31.1495 74.7689 29.5002 73.3244 29.5 71.5423C29.5 69.7601 31.1494 68.3148 33.1836 68.3148Z" fill="#FFAFA3"/>
<path opacity="0.7" d="M12.8788 54.7997C13.1552 54.4241 13.6464 54.2564 14.0966 54.3836C14.6479 54.5391 15.8428 55.6154 16.5244 56.7782C16.8007 57.2486 16.4745 57.7873 15.9482 57.9286C14.7528 58.2484 13.7948 58.6988 12.6972 59.4999C12.0126 59.9981 11.12 59.5078 11.3369 58.6883C11.7172 57.2444 12.2826 55.607 12.8788 54.7997ZM34.0351 54.3836C34.4853 54.2563 34.9765 54.424 35.2529 54.7997C35.8491 55.607 36.4135 57.2444 36.7939 58.6883C37.0109 59.5079 36.1191 59.998 35.4345 59.4999C34.3368 58.6987 33.3781 58.2484 32.1826 57.9286C31.6565 57.7871 31.3311 57.2485 31.6074 56.7782C32.2889 55.6154 33.4839 54.539 34.0351 54.3836Z" fill="#FFAFA3"/>
<path d="M23.2292 73.75C23.658 73.75 24.0056 74.0975 24.0056 74.5263C24.0056 74.955 23.658 75.3026 23.2292 75.3026H21.7373C21.3085 75.3026 20.9609 74.955 20.9609 74.5263C20.9609 74.0975 21.3085 73.75 21.7373 73.75H23.2292Z" fill="#D9D9D9"/>
<path d="M5.84836 70.0053C5.84836 67.5082 5.84633 65.6131 6.39421 62.9381C6.67318 59.8538 7.52832 55.2483 10.1606 51.68C11.137 50.3597 12.853 49.7758 14.4318 50.2199L14.8048 50.3321C15.6922 50.6179 16.7111 51.0838 17.6614 51.9135C18.6299 52.7594 19.4775 53.9415 20.0586 55.5843C21.0343 55.3184 22.0901 54.9961 23.4534 54.996C24.8901 54.996 26.2201 55.3079 27.4154 55.6222C27.6419 55.0081 27.9076 54.4893 28.2144 54.0317C28.6831 53.3328 29.215 52.8255 29.7261 52.3729L31.2697 54.1166L29.7277 52.3714C29.9826 52.1462 30.3633 51.9285 30.8482 51.9438C31.3216 51.959 31.6665 52.1904 31.8701 52.376C32.227 52.7012 32.4722 53.1886 32.6024 53.4419C32.6385 53.512 32.6711 53.576 32.701 53.6344C32.7133 53.6224 32.7277 53.6121 32.7404 53.5996C33.065 53.2778 33.3853 52.909 33.773 52.4897C34.1123 52.1227 34.5451 51.669 34.9814 51.3889C35.1953 51.2516 35.5502 51.0621 35.9882 51.0538C36.4597 51.0448 36.8657 51.246 37.1512 51.5663L37.2664 51.7103L37.509 52.0651C37.8767 52.6211 38.1975 53.201 38.4824 53.7921H39.7788C41.0185 53.7878 42.5136 53.5755 44.2108 53.3312L45.4753 53.1295C45.9436 53.0513 46.4561 52.9639 47.0022 52.8718C48.0831 52.6894 49.2803 52.4937 50.4714 52.335C51.6602 52.1766 52.8639 52.0519 53.9557 52.0181C55.01 51.9856 56.0487 52.0349 56.8911 52.2638C60.3945 53.1181 63.1704 54.8227 65.1653 57.2567C67.0937 59.6099 68.2374 62.5794 68.6663 65.9721C71.8794 68.7991 72.4924 73.4145 71.0286 77.1256C69.3933 81.2706 65.3866 84.2596 59.7492 84.9721L59.4566 82.6614C64.4109 82.0353 67.5938 79.4846 68.8619 76.2704C70.0692 73.2091 69.437 69.5936 66.9332 67.5551L66.915 67.5399L66.8968 67.5232L67.6686 66.6514L67.6762 66.6408L66.8968 67.5232C66.6092 67.2687 66.4313 66.9164 66.3919 66.5422C66.034 63.3682 65.0094 60.7414 63.364 58.7336C61.723 56.7312 59.4078 55.2739 56.3407 54.526L56.321 54.5214L56.3028 54.5154L56.1012 54.4669C55.6033 54.3614 54.9042 54.3201 54.0285 54.3471C53.0481 54.3773 51.931 54.4893 50.7792 54.6427C49.63 54.7959 48.4655 54.9873 47.3888 55.1689C46.3229 55.3487 45.3241 55.5231 44.5444 55.6359C42.898 55.8728 41.2245 56.116 39.7879 56.1211H39.4073C39.5873 56.6793 39.742 57.2367 39.8743 57.7859C40.0249 58.411 39.6412 59.0407 39.0162 59.1915C38.3909 59.3421 37.7612 58.957 37.6106 58.3318C37.2231 56.723 36.6525 55.1311 35.8063 53.7345C35.7115 53.8299 35.602 53.9396 35.4818 54.0696C35.1646 54.4126 34.752 54.886 34.381 55.2538C34.1886 55.4445 33.9759 55.6387 33.7548 55.8042C33.5973 55.9221 33.3975 56.0541 33.165 56.1529L32.9209 56.2393C31.9308 56.5173 31.3018 55.7752 31.1044 55.5085C30.924 55.2648 30.7628 54.9567 30.6404 54.717C30.4595 54.9096 30.2978 55.1079 30.1492 55.3296C29.8504 55.7754 29.5717 56.3678 29.3425 57.2734L29.338 57.2719C29.1987 57.8288 28.7012 58.1892 28.1659 58.1892H28.1371C28.1204 58.1889 28.0897 58.1881 28.0522 58.1847C28.0194 58.1817 27.951 58.1729 27.8627 58.1498C26.2614 57.7368 24.9433 57.325 23.4534 57.325C22.1321 57.3251 21.52 57.6601 19.9297 58.0255L19.913 58.0285C19.0636 58.2101 18.2661 57.6828 18.0374 56.905L18.0359 56.8989L17.8509 56.3258C17.3952 55.054 16.7701 54.2269 16.13 53.6678C15.4822 53.1021 14.7703 52.7678 14.0907 52.5488L13.8011 52.4624C13.1511 52.2796 12.434 52.5229 12.0346 53.0613L12.0361 53.0628C9.79694 56.0983 8.9893 60.1598 8.71861 63.1034C8.71781 63.144 8.71466 63.185 8.70951 63.2262C8.70781 63.2398 8.70391 63.2529 8.70193 63.2656C8.70144 63.2717 8.70102 63.2791 8.70041 63.2868C8.69857 63.3103 8.69629 63.3451 8.69283 63.3808C8.6839 63.4727 8.65922 63.5594 8.63067 63.6432C8.18187 65.9401 8.17731 67.5967 8.17731 70.0053C8.17735 71.7214 8.58804 73.0863 9.2872 74.1841C9.98974 75.287 11.0261 76.1852 12.3728 76.8966C15.0987 78.3366 18.9825 78.9495 23.4534 78.9496C24.8322 78.9496 25.7329 78.8916 26.9029 78.7646C27.0299 78.4636 27.1867 78.179 27.3669 77.914C28.3681 76.4422 30.1244 75.4495 31.7109 75.0771C32.3368 74.9305 32.9633 75.3186 33.1104 75.9444C33.2573 76.5704 32.8689 77.1967 32.2431 77.3439C31.0845 77.6159 29.8928 78.3417 29.2925 79.2241C29.0064 79.6448 28.8748 80.069 28.8937 80.4932C28.9127 80.9149 29.0859 81.4537 29.6155 82.0958L28.5586 82.9677L28.7178 82.8373L29.617 82.0973C30.2277 82.8384 31.1278 83.1283 32.3098 83.0056C33.5167 82.8802 34.8845 82.3246 36.1171 81.5454L37.3619 83.515C35.9351 84.417 34.2238 85.147 32.5509 85.3209C30.8534 85.4972 29.0726 85.0994 27.8187 83.5772C27.1714 82.7924 26.7765 81.9717 26.63 81.1376C25.617 81.2347 24.7144 81.2786 23.4534 81.2786C20.3899 81.2785 17.4477 81.0011 14.8715 80.3173C13.6555 81.5168 11.6654 82.6153 9.7072 83.1845C8.56356 83.5169 7.33877 83.698 6.19558 83.5742C5.04141 83.449 3.89793 82.9999 3.08122 82.0094C2.26291 81.0163 1.8916 79.9409 1.94556 78.8586C1.99839 77.8007 2.45095 76.8624 3.04635 76.0945C3.90846 74.9828 5.16946 74.0987 6.41544 73.5609C6.04136 72.4882 5.84839 71.3028 5.84836 70.0053ZM45.8696 74.5267C46.6096 78.1785 49.3277 80.2501 51.9406 81.3453C54.5344 82.4322 57.3688 82.7275 59.2277 82.6796L59.3414 82.6765L59.4566 82.6614L59.7492 84.9721L59.5779 84.9949L59.5218 85.0009L59.2913 85.007C57.3224 85.058 54.4035 84.7775 51.5994 83.7167L51.0399 83.4938C50.1661 83.1275 49.2514 82.6474 48.3668 82.0397C46.571 81.851 45.0545 81.7004 43.6634 81.5348C41.6071 81.2908 39.4096 82.2185 37.3634 83.5135L36.1171 81.5454C38.2751 80.1796 41.0557 78.88 43.9394 79.2225C44.4598 79.2845 44.9976 79.3405 45.5633 79.4015C44.6547 78.2014 43.9435 76.7453 43.5876 74.9892L45.8696 74.5267ZM7.46468 75.6488C6.51399 76.0355 5.51512 76.7115 4.88707 77.5213C4.49532 78.0265 4.29417 78.5201 4.27147 78.9754C4.2501 79.4062 4.38004 79.9251 4.87645 80.528C5.20164 80.9224 5.70996 81.179 6.44576 81.2589C7.19267 81.3398 8.09867 81.2265 9.05673 80.948C10.2643 80.597 11.4111 80.0263 12.2818 79.4303C11.9396 79.2817 11.6066 79.1252 11.2856 78.9557C9.73489 78.1365 8.41713 77.0535 7.46468 75.6488ZM47.2023 69.5353C49.6282 69.045 51.9941 70.549 52.6017 72.9195L52.6547 73.1515C52.7543 73.6442 53.0815 74.2009 54.124 74.7345L54.6168 74.9619L55.1596 75.1666C56.4147 75.5923 57.8144 75.759 58.8183 75.761C61.5233 75.3608 62.2417 74.1893 62.4239 73.7292C62.5682 73.3614 62.5504 73.1091 62.5194 72.9726C62.5047 72.9076 62.4829 72.8641 62.4709 72.8407C62.0551 72.4241 62.013 71.7521 62.3921 71.285C62.7973 70.7857 63.5302 70.7099 64.0296 71.1152C64.3932 71.4103 64.6658 71.9132 64.7892 72.4571C64.9247 73.0538 64.9045 73.7832 64.5891 74.5844V74.5874C64.0524 75.9428 62.5381 77.5904 59.073 78.0793L58.9957 78.0899L58.9183 78.0914C57.5408 78.1015 55.4921 77.8524 53.7176 77.1089C51.8655 76.3341 50.6923 75.2029 50.3713 73.614C50.1181 72.3704 48.9066 71.5659 47.6633 71.8172L47.6648 71.8187C46.4216 72.0714 45.6178 73.2844 45.8696 74.5267L43.5876 74.9892C43.0791 72.4839 44.6997 70.0452 47.2008 69.5368L47.2023 69.5353ZM6.40937 62.8653C6.40839 62.8701 6.40777 62.8772 6.40634 62.885C6.40825 62.8739 6.41019 62.8627 6.41241 62.8517C6.41152 62.8556 6.41044 62.8602 6.40937 62.8653ZM28.175 56.9778L27.0864 56.7018L28.1644 56.9762L28.175 56.9778L28.2129 56.9884L28.2372 56.9929L28.175 56.9778Z" fill="#1A1A1A"/>
<path d="M30.5589 71.7548C30.9626 72.2426 31.6711 72.2995 32.1413 71.8806C32.6113 71.4618 32.6646 70.7267 32.2611 70.2389C31.0323 68.7538 29.6116 68.3201 28.2999 68.5804C27.0937 68.8199 26.1489 69.6111 25.6319 70.2449C25.2315 70.7357 25.2903 71.4698 25.7634 71.8852C26.2364 72.3006 26.944 72.2395 27.3443 71.7488C27.6414 71.3846 28.1658 70.9784 28.7207 70.868C29.1705 70.7787 29.8045 70.8432 30.5589 71.7548Z" fill="#D9D9D9"/>
<path d="M18.138 71.7548C18.5417 72.2426 19.2502 72.2994 19.7204 71.8806C20.1904 71.4618 20.2437 70.7266 19.8402 70.2388C18.6114 68.7538 17.1907 68.3201 15.879 68.5804C14.6728 68.8198 13.728 69.611 13.211 70.2449C12.8106 70.7357 12.8694 71.4697 13.3425 71.8851C13.8155 72.3005 14.5231 72.2395 14.9234 71.7487C15.2205 71.3846 15.7449 70.9784 16.2998 70.8679C16.7496 70.7787 17.3836 70.8431 18.138 71.7548Z" fill="#D9D9D9"/>
</svg>
