<svg width="75" height="86" viewBox="0 0 75 86" fill="none" xmlns="http://www.w3.org/2000/svg">
<path d="M32.4218 11.1558C26.5636 10.2088 13.1737 11.1558 7.31559 26.304L4.00195 40.2955C6.51257 38.403 12.3368 37.6655 17.3579 37.6655C34.0955 37.6655 39.2559 40.5051 44.1379 40.5051C51.6698 21.5703 38.2799 12.1013 32.4218 11.1558Z" fill="#757575"/>
<path d="M37.8203 38.8861C37.7293 39.1264 37.6332 39.3662 37.5322 39.6039L36.1016 38.9974C36.1944 38.779 36.2834 38.5576 36.3672 38.3363L37.8203 38.8861ZM25.9395 36.7094C25.9163 36.9622 25.8944 37.2159 25.874 37.4691L24.3281 37.3441C24.3489 37.0851 24.3709 36.8254 24.3945 36.5668L25.9395 36.7094ZM38.6875 35.931C38.5797 36.4316 38.4541 36.9296 38.3096 37.4232L36.8193 36.9886C36.953 36.5322 37.0698 36.069 37.1699 35.6039L38.6875 35.931ZM12.6748 35.7845C12.6483 36.0294 12.6252 36.2749 12.6055 36.5209L11.0586 36.3969C11.0795 36.1365 11.1028 35.8767 11.1309 35.6176L12.6748 35.7845ZM26.2842 33.6771C26.2163 34.1801 26.1531 34.6857 26.0957 35.1918L24.5537 35.016C24.6124 34.499 24.6758 33.9826 24.7451 33.4691L26.2842 33.6771ZM39.1299 32.8978C39.0887 33.4064 39.0323 33.9147 38.959 34.4203L37.4229 34.1967C37.4913 33.7245 37.5434 33.2492 37.582 32.7719L39.1299 32.8978ZM13.1553 32.8627C13.0482 33.3443 12.9552 33.8294 12.875 34.3168L11.3438 34.0648C11.4286 33.5492 11.5273 33.0354 11.6406 32.5258L13.1553 32.8627ZM26.7539 30.6615C26.6656 31.1603 26.5826 31.6624 26.5039 32.1664L24.9688 31.9271C25.0491 31.4123 25.1354 30.8994 25.2256 30.39L26.7539 30.6615ZM13.958 30.0121C13.7981 30.4799 13.6511 30.9524 13.5176 31.4271L12.0225 31.0072C12.1637 30.5049 12.3191 30.005 12.4883 29.5101L13.958 30.0121ZM39.2012 29.8451C39.2171 30.3528 39.2204 30.8621 39.209 31.3705L37.6562 31.3363C37.667 30.8567 37.6635 30.375 37.6484 29.8939L39.2012 29.8451ZM27.3486 27.6654C27.2403 28.1598 27.1355 28.6588 27.0361 29.1605L25.5137 28.8588C25.615 28.3469 25.7196 27.8377 25.8301 27.3334L27.3486 27.6654ZM15.0674 27.267C14.8572 27.7157 14.6591 28.1688 14.4746 28.6254L13.0361 28.0433C13.231 27.5611 13.4384 27.0823 13.6602 26.6088L15.0674 27.267ZM38.957 26.8148C39.0209 27.3161 39.0742 27.821 39.1152 28.3265L37.5664 28.4525C37.5274 27.9716 37.478 27.4906 37.417 27.0121L38.957 26.8148ZM28.0605 24.6986C27.9326 25.1867 27.8092 25.681 27.6895 26.1791L26.1797 25.8158C26.302 25.307 26.4288 24.8028 26.5596 24.3041L28.0605 24.6986ZM16.4658 24.6527C16.2089 25.0779 15.9637 25.5078 15.7314 25.9418L14.3623 25.2094C14.6074 24.7513 14.8649 24.2972 15.1357 23.849L16.4658 24.6527ZM38.4473 23.8275C38.5513 24.3188 38.6471 24.8156 38.7324 25.3148L37.2031 25.5775C37.1214 25.0991 37.0297 24.6229 36.9297 24.1508L38.4473 23.8275ZM18.1279 22.1937C17.8288 22.5917 17.5403 22.9941 17.2646 23.4017L15.9785 22.5336C16.2688 22.1043 16.5731 21.6797 16.8877 21.2611L18.1279 22.1937ZM28.8965 21.7631C28.7484 22.2437 28.6045 22.7322 28.4639 23.226L26.9707 22.8002C27.1142 22.2961 27.2618 21.798 27.4131 21.307L28.8965 21.7631ZM37.7139 20.8969C37.8522 21.3768 37.985 21.8638 38.1084 22.3558L36.6006 22.7328C36.4817 22.259 36.3552 21.7895 36.2217 21.3265L37.7139 20.8969ZM20.0273 19.9056C19.6905 20.2742 19.3645 20.6489 19.0498 21.0277L17.8545 20.0365C18.1848 19.6388 18.5278 19.2461 18.8809 18.8597L20.0273 19.9056ZM29.8613 18.8705C29.6918 19.3418 29.525 19.8232 29.3623 20.3119L27.8896 19.8207C28.0562 19.3206 28.2266 18.8282 28.4004 18.3451L29.8613 18.8705ZM36.7832 18.0267C36.9513 18.4933 37.1153 18.9696 37.2725 19.4535L35.7959 19.933C35.644 19.4651 35.485 19.0046 35.3223 18.5531L36.7832 18.0267ZM22.1338 17.8011C21.7641 18.1387 21.4046 18.4822 21.0557 18.8304L19.959 17.7328C20.3244 17.368 20.7013 17.0077 21.0879 16.6547L22.1338 17.8011ZM30.9648 16.0345C30.772 16.4927 30.5815 16.9635 30.3945 17.4447L28.9463 16.8822C29.1384 16.3879 29.3346 15.9029 29.5332 15.431L30.9648 16.0345ZM35.6729 15.224C35.8678 15.6751 36.0605 16.1396 36.249 16.6156L34.8057 17.1869C34.6231 16.7261 34.4358 16.2759 34.2471 15.8392L35.6729 15.224ZM24.4189 15.8881C24.0216 16.1937 23.6339 16.505 23.2559 16.8217L22.2578 15.6312C22.6527 15.3005 23.0582 14.9754 23.4727 14.6566L24.4189 15.8881ZM26.8555 14.1644C26.435 14.438 26.0228 14.7167 25.6201 15.0013L24.7236 13.7338C25.1431 13.4372 25.5723 13.1463 26.0098 12.8617L26.8555 14.1644ZM32.2295 13.2767C32.0094 13.7162 31.7899 14.1737 31.5742 14.6449L30.1621 13.9974C30.3849 13.5108 30.6123 13.0386 30.8408 12.5824L32.2295 13.2767ZM34.3887 12.4945C34.6098 12.9273 34.8335 13.3794 35.0547 13.85L33.6484 14.5111C33.4346 14.0562 33.2201 13.6189 33.0068 13.2015L34.3887 12.4945ZM29.4229 12.6263C28.982 12.869 28.5492 13.1176 28.125 13.3715L27.3271 12.0394C27.7675 11.7759 28.2169 11.5185 28.6738 11.267L29.4229 12.6263ZM33.6777 11.1605L33.2354 11.4076C33.1343 11.5819 33.0322 11.7592 32.9316 11.9408L32.6045 11.7601L32.3223 11.9174C32.2345 11.7601 32.145 11.6075 32.0586 11.4584L31.5732 11.1888C31.7024 10.9556 31.8325 10.7271 31.9629 10.5043L32.6328 10.8969L33.3027 10.5043C33.4262 10.7152 33.5516 10.9345 33.6777 11.1605ZM31.418 11.5951C31.192 11.7047 30.9682 11.8167 30.7461 11.9291L30.0439 10.5433C30.2741 10.4269 30.5081 10.3111 30.7422 10.1976L31.418 11.5951Z" fill="#2C2C2C"/>
<path d="M32.1714 6.59849L34.2974 6.88853C35.7564 7.08714 36.8131 8.43514 36.6577 9.89927C36.6054 10.3904 36.4211 10.8305 36.147 11.1932C38.9253 12.5415 42.02 14.9581 44.2798 18.452C47.6388 23.6455 49.1149 31.1465 45.2212 40.9354L45.1441 41.0946C44.9374 41.4473 44.5557 41.6688 44.1382 41.6688C42.7985 41.6687 41.1505 41.4122 39.3062 41.0731C37.4162 40.7256 35.3185 40.2926 32.9058 39.8788C28.1235 39.0586 22.3321 38.3637 15.7671 38.828C14.0779 38.9473 11.8343 39.0836 9.69874 39.4208C7.50886 39.7665 5.67662 40.2914 4.67335 41.0477L4.52003 41.1444C4.14862 41.3423 3.69225 41.3259 3.33253 41.0897C2.92216 40.8196 2.72585 40.3212 2.84132 39.8436L6.18311 26.0301C6.19511 25.9806 6.21259 25.9322 6.23096 25.8846C9.27779 18.006 14.3242 13.7504 19.4194 11.62C22.9332 10.1509 26.4404 9.70465 29.2915 9.73618C29.234 9.46433 29.216 9.18036 29.2466 8.89146C29.4024 7.42732 30.7122 6.40013 32.1714 6.59849ZM32.2368 12.3055C29.473 11.8587 24.8885 11.858 20.3189 13.7684C15.8038 15.6562 11.2405 19.4322 8.42725 26.659L5.688 37.9745C6.83591 37.58 8.10993 37.3146 9.33643 37.1209C11.5936 36.7646 13.9516 36.6204 15.603 36.5038C22.4274 36.0211 28.4221 36.7466 33.2983 37.5829C35.7146 37.9973 37.9157 38.4512 39.7261 38.784C41.1686 39.0493 42.3699 39.2371 43.3501 39.3084C46.6101 30.5536 45.1591 24.1007 42.3237 19.7167C39.3525 15.123 34.8193 12.7224 32.2368 12.3055Z" fill="#1A1A1A"/>
<path d="M5.99945 25.1862C0.851373 27.7184 -0.723165 32.6214 3.93358 40.4881C5.99945 39.5411 11.9331 37.9078 16.4867 37.6486C22.8371 37.2853 26.5291 37.6486 34.0609 38.5956C28.9258 23.1136 11.1475 22.6525 5.99945 25.1862Z" fill="#85E0A3"/>
<path d="M11.8007 22.8716C14.3868 22.7972 17.3781 23.1148 20.3725 24.0209C26.3794 25.8385 32.4549 30.0515 35.1672 38.2288C35.293 38.6083 35.2148 39.0267 34.961 39.3356C34.7072 39.6441 34.3126 39.8007 33.9162 39.751L34.0618 38.5957H34.0603L33.9162 39.751C26.4057 38.8066 22.7962 38.4538 16.5529 38.811C14.3712 38.9353 11.8239 39.3924 9.55204 39.9421C7.26694 40.4949 5.35119 41.119 4.4193 41.5462C3.87744 41.7946 3.23542 41.5936 2.9318 41.0807C0.537618 37.036 -0.382664 33.549 0.14329 30.6298C0.68113 27.6455 2.67736 25.5235 5.48527 24.1422C6.97836 23.4073 9.23957 22.9454 11.8007 22.8716ZM11.8675 25.199C9.48687 25.2675 7.59428 25.6994 6.51334 26.2315C4.17389 27.3823 2.80826 28.9774 2.43596 31.0437C2.08172 33.0107 2.58563 35.6284 4.44205 39.0233C5.61822 38.588 7.23922 38.1052 9.00313 37.6784C11.3527 37.11 14.0493 36.6218 16.4209 36.4867C22.306 36.1501 25.9635 36.431 32.2831 37.2024C29.6277 31.0444 24.694 27.7615 19.6977 26.2496C16.9623 25.422 14.223 25.1311 11.8675 25.199Z" fill="#1A1A1A"/>
</svg>
