<svg width="75" height="86" viewBox="0 0 75 86" fill="none" xmlns="http://www.w3.org/2000/svg">
<path d="M6.53635 59.3885C-5.86452 43.2535 7.67134 37.751 16.852 36.1999C17.2806 36.127 17.7122 36.1099 18.1469 36.1347L64.0722 38.8022C68.0485 39.2633 69.7968 39.1344 71.1522 40.6373C73.2296 42.943 71.9798 46.0498 69.4071 47.7841C68.0516 48.6986 67.5734 50.5928 68.505 51.9343C69.7921 53.785 71.4224 55.5457 72.4704 57.6744C73.2886 59.3388 72.7607 61.351 71.292 62.4828C70.6631 62.9657 70.0762 63.3011 69.4987 63.5619C67.2241 64.5898 65.2817 66.7308 66.4043 68.9604C67.0502 70.2429 67.9818 70.9634 68.7301 72.1682C77.5118 86.2925 33.0025 84.0303 11.4054 80.8272C6.33608 80.0757 0.693814 76.41 2.72466 71.704C3.52581 69.847 4.98217 68.2664 6.43078 66.7976C8.45696 64.7435 8.29392 61.6755 6.53635 59.3885Z" fill="white"/>
<path d="M18.213 34.9716L64.14 37.6402L64.1733 37.6417L64.2067 37.6448L66.7843 37.9131C67.5563 37.9929 68.2373 38.0742 68.8161 38.1861C70.0743 38.4292 71.1155 38.8578 72.0168 39.857L71.0813 40.7015L71.1526 40.6378L72.0184 39.8585C73.3476 41.3343 73.6203 43.1135 73.1419 44.7514C72.6769 46.3433 71.5229 47.7605 70.0579 48.7482L70.0594 48.7497C69.1686 49.3507 68.9495 50.5316 69.462 51.2697L67.5485 52.5979C66.1984 50.6532 66.9355 48.046 68.7554 46.818C69.8626 46.0715 70.6217 45.0692 70.9054 44.0979C71.1755 43.1728 71.0343 42.2467 70.2868 41.4172C69.833 40.9141 69.3229 40.6558 68.3748 40.4726C67.3331 40.2712 66.0491 40.2012 63.9853 39.9631L18.0796 37.2976C17.7199 37.2771 17.3778 37.2916 17.0485 37.3476C14.8114 37.7256 12.3321 38.3415 10.0708 39.2838C7.80011 40.2302 5.82279 41.4752 4.49707 43.0699C3.20001 44.6301 2.49025 46.5635 2.7822 49.0393C3.07992 51.5626 4.43039 54.7363 7.45981 58.6781C9.48409 61.3125 9.78745 65.0521 7.25966 67.6148C5.80609 69.0886 4.49835 70.5314 3.79353 72.165C3.39395 73.091 3.38657 73.9148 3.6222 74.6578C3.86524 75.4235 4.39216 76.179 5.17786 76.8806C6.76398 78.2968 9.21595 79.3251 11.5764 79.675C22.3283 81.2696 38.7674 82.6253 51.3869 81.8326C57.7386 81.4336 62.9349 80.4995 65.9731 78.9002C67.4811 78.1064 68.2819 77.24 68.5674 76.365C68.8422 75.5222 68.7313 74.3766 67.741 72.7837L69.7197 71.554C70.9241 73.4914 71.3436 75.3642 70.7811 77.0883C70.2289 78.7804 68.8244 80.0305 67.0572 80.9608C63.5449 82.8095 57.9097 83.7564 51.5324 84.157C38.6936 84.9634 22.0803 83.5881 11.2352 81.9797C8.52642 81.5781 5.62137 80.3976 3.62675 78.6167C2.62264 77.72 1.80463 76.6293 1.40242 75.3613C0.992933 74.0701 1.04004 72.67 1.65563 71.2432C2.55312 69.1629 4.15878 67.444 5.60241 65.9803C7.12683 64.4349 7.10361 62.0369 5.61302 60.0973C2.44261 55.9721 0.835057 52.4069 0.469931 49.3123C0.0993761 46.1705 1.02223 43.6068 2.70639 41.5809C4.36196 39.5895 6.7147 38.1596 9.17619 37.1338C11.6468 36.1043 14.3046 35.4511 16.6573 35.0535C17.1841 34.9639 17.7043 34.9426 18.213 34.9716ZM73.5164 57.1603C74.5935 59.3514 73.8844 61.956 72.0032 63.4057C71.2992 63.9463 70.6319 64.3262 69.9775 64.6217L69.979 64.6233C68.9809 65.0743 68.1225 65.744 67.6455 66.4579C67.1962 67.1308 67.1122 67.7749 67.4454 68.4366L67.6516 68.8081C67.871 69.1663 68.1271 69.4907 68.4249 69.8497C68.8087 70.3126 69.2932 70.8673 69.7197 71.554L67.741 72.7837C67.4193 72.2658 67.063 71.8561 66.6327 71.3372C66.2154 70.834 65.7502 70.249 65.3651 69.4843C64.5758 67.9167 64.8998 66.3748 65.7093 65.163C66.4915 63.9923 67.7429 63.0773 69.0192 62.5005C69.5199 62.2744 70.0289 61.984 70.5825 61.5589C71.6377 60.7448 71.9845 59.3256 71.4255 58.1883L73.5164 57.1603ZM69.462 51.2697C70.094 52.1784 70.7714 53.0128 71.5104 54.0035C72.224 54.9601 72.9452 56.0002 73.5164 57.1603L71.4255 58.1883C70.9487 57.2201 70.3291 56.3154 69.6439 55.3969C68.9845 54.513 68.2048 53.541 67.55 52.5995L69.462 51.2697Z" fill="#1A1A1A"/>
<path d="M57.7298 33.6721C40.5841 21.3286 25.3279 27.8358 16.7186 35.5834C13.6723 38.3253 12.0405 42.5701 13.5326 46.3865C17.5306 56.6184 31.3444 59.3852 38.8156 59.3852C49.9045 58.9923 56.8541 54.1326 60.8599 49.026C64.6887 44.1461 62.7634 37.2975 57.7298 33.6721Z" fill="#FF99E0"/>
<path d="M33.8507 25.9424C41.2004 24.8427 49.605 26.3881 58.4107 32.7275C63.8238 36.6266 66.1229 44.2031 61.7753 49.7443C57.5715 55.1033 50.3105 60.1432 38.8573 60.5491L38.8148 59.3634V59.3846L38.8573 60.5491H38.8148C34.9621 60.549 29.4883 59.8402 24.4363 57.8031C19.3893 55.768 14.608 52.3398 12.4474 46.8104C10.729 42.4146 12.6473 37.6817 15.9393 34.7184C20.3661 30.7347 26.5353 27.0368 33.8507 25.9424ZM57.0492 34.6168C48.7094 28.6129 40.9119 27.2406 34.1948 28.2455C27.4439 29.2557 21.6804 32.6848 17.498 36.4484C14.6977 38.9689 13.3517 42.7261 14.6171 45.9628C16.4546 50.6651 20.5796 53.7363 25.3066 55.6425C30.0242 57.5448 35.1878 58.2174 38.8057 58.2186C49.5114 57.8306 56.1397 53.1563 59.9437 48.3069C63.1496 44.2205 61.795 38.35 57.4767 34.9397L57.0492 34.6168Z" fill="#1A1A1A"/>
<path d="M45.1913 42.3061C46.1557 42.3062 46.9371 43.0878 46.9373 44.0522C46.9373 45.0168 46.1558 45.7991 45.1913 45.7993C44.2266 45.7993 43.4442 45.0169 43.4442 44.0522C43.4444 43.0877 44.2267 42.3061 45.1913 42.3061ZM46.9862 37.6254C47.6998 37.2473 48.5572 37.3792 48.9012 37.9194C49.2451 38.4595 48.9466 39.204 48.2332 39.5825L48.2303 39.5834C48.2291 39.5841 48.2275 39.5862 48.2254 39.5874C48.2199 39.5903 48.2097 39.5944 48.1991 39.6C48.1778 39.6113 48.147 39.6279 48.1073 39.6489C48.0267 39.6915 47.9103 39.7536 47.7664 39.8295C47.4783 39.9816 47.079 40.1919 46.6375 40.4233C45.7593 40.8835 44.6929 41.4374 43.993 41.7866L43.8573 41.8471C43.1663 42.1258 42.403 41.9581 42.1014 41.4409C41.7799 40.889 42.1057 40.1478 42.8299 39.7866L44.037 39.1723C44.4882 38.939 44.9671 38.689 45.4071 38.4584C45.8442 38.2293 46.2394 38.0214 46.5252 37.8706L46.9549 37.642C46.9653 37.6366 46.9741 37.6321 46.9793 37.6293C46.9815 37.6282 46.983 37.6271 46.9842 37.6264L46.9862 37.6254Z" fill="#1A1A1A"/>
<path d="M31.2471 42.306C30.2824 42.306 29.5 43.0884 29.5 44.053C29.5001 45.0177 30.2824 45.8001 31.2471 45.8001C32.2116 45.7999 32.9932 45.0176 32.9932 44.053C32.9932 43.0885 32.2116 42.3062 31.2471 42.306ZM29.4522 37.6263C28.7386 37.248 27.8803 37.3792 27.5362 37.9193C27.1923 38.4594 27.491 39.2038 28.2041 39.5823L28.208 39.5843C28.2093 39.585 28.2109 39.5861 28.2129 39.5872C28.2184 39.5901 28.2277 39.5953 28.2383 39.6009C28.2596 39.6121 28.2904 39.6287 28.3301 39.6497C28.4107 39.6924 28.5279 39.7544 28.6719 39.8304C28.9601 39.9825 29.3594 40.1918 29.8008 40.4232C30.679 40.8834 31.7445 41.4373 32.4444 41.7864L32.5811 41.848C33.2721 42.1266 34.0355 41.9581 34.3369 41.4407C34.658 40.8889 34.3315 40.1486 33.6075 39.7874L32.4004 39.1722C31.9494 38.939 31.4711 38.6888 31.0313 38.4583C30.5939 38.2291 30.198 38.0213 29.9121 37.8704L29.4825 37.6419C29.4722 37.6365 29.4633 37.633 29.458 37.6302C29.456 37.629 29.4544 37.6269 29.4532 37.6263H29.4522Z" fill="#1A1A1A"/>
<rect x="31.5537" y="48.1079" width="12.5461" height="5.4761" fill="white"/>
<path d="M41.8965 47.0293C44.0043 47.0297 45.7118 48.7379 45.7119 50.8457C45.7118 52.9536 44.0043 54.6627 41.8965 54.6631H33.7568C31.6488 54.6629 29.9405 52.9537 29.9404 50.8457C29.9406 48.7377 31.6488 47.0294 33.7568 47.0293H41.8965ZM38.9902 52.7998H40.3203V48.8906H38.9902V52.7998ZM35.332 52.7998H36.6611L36.6621 48.8906H35.332V52.7998ZM33.0029 49.042C32.298 49.3372 31.8028 50.0339 31.8027 50.8457C31.8028 51.6575 32.2981 52.3532 33.0029 52.6484V49.042ZM42.6494 52.6484C43.3545 52.3533 43.8505 51.6576 43.8506 50.8457C43.8505 50.0337 43.3546 49.3371 42.6494 49.042V52.6484Z" fill="#1A1A1A"/>
<path d="M44.2501 36.0181C47.2514 36.0181 49.6843 34.6454 49.6843 32.952C49.6843 31.2585 47.2514 29.8857 44.2501 29.8857C41.2489 29.8857 38.8159 31.2585 38.8159 32.952C38.8159 34.6454 41.2489 36.0181 44.2501 36.0181Z" fill="white"/>
</svg>
