<svg width="75" height="86" viewBox="0 0 75 86" fill="none" xmlns="http://www.w3.org/2000/svg">
<path d="M36.4729 27.9924C18.2683 29.4488 16.1443 45.5915 17.3569 53.4804C18.8986 63.4934 21.9092 64.4032 21.9092 73.5063C22.3377 78.2263 24.0534 80.7555 25.8234 82.0986C27.7797 83.5813 30.4533 83.4944 32.8304 82.8826C45.7762 79.5523 52.7305 65.9014 54.679 58.941C61.2327 32.7248 45.2732 27.3853 36.4729 27.9924Z" fill="url(#paint0_linear_9800_32935)"/>
<path d="M36.3922 26.8301C41.0126 26.5114 47.595 27.7394 52.1808 32.6101C56.8196 37.5371 59.1407 45.8901 55.8076 59.2231C55.805 59.2337 55.803 59.2445 55.8001 59.255L55.5954 59.9509C54.498 63.5233 52.2704 68.4555 48.8026 72.9815C45.1018 77.8116 39.9243 82.2602 33.1201 84.0107C30.7147 84.6297 27.7051 84.8255 25.3463 83.1904L25.1189 83.0266L24.7323 82.7158C22.8152 81.0837 21.173 78.2797 20.7491 73.6107C20.746 73.576 20.7446 73.541 20.7446 73.5061C20.7446 69.1265 20.0302 66.7601 19.1161 64.2298C18.1756 61.6263 16.9956 58.7923 16.2049 53.657C15.5726 49.543 15.8013 43.2737 18.596 37.7956C21.433 32.2351 26.8706 27.5924 36.38 26.8317L36.3922 26.8301ZM50.4856 34.2067C46.53 30.0053 40.7327 28.8662 36.5529 29.1545L36.5514 29.153C27.8651 29.852 23.142 34.0093 20.6703 38.8539C18.1556 43.7832 17.9279 49.529 18.5081 53.3037C19.2591 58.1804 20.3554 60.8081 21.3056 63.4383C22.2773 66.1283 23.0641 68.7561 23.072 73.4349C23.4819 77.8721 25.0705 80.0652 26.5275 81.1707H26.526C28.0483 82.3245 30.2686 82.3388 32.5394 81.7545C38.6808 80.1746 43.4545 76.1331 46.9543 71.5653C50.4467 67.0072 52.6062 62.0046 53.5484 58.653C56.7671 45.7734 54.3875 38.3512 50.4856 34.2067Z" fill="#1A1A1A"/>
<path d="M58.6318 22.8173C47.8752 21.5255 41.1119 27.3168 38.0392 31.9638C37.1806 33.2618 37.7256 34.9651 39.109 35.6824C53.5547 43.163 59.3864 33.6873 60.9313 25.9583C61.2356 24.432 60.1767 23.002 58.6318 22.8173Z" fill="#14AE5C"/>
<path d="M37.3832 30.858C40.7638 26.0386 47.816 20.3453 58.7698 21.6604C60.8366 21.9076 62.3178 23.73 62.1328 25.774L62.0737 26.1864C61.2755 30.1798 59.3373 34.832 55.522 37.4809C51.5983 40.205 46.0405 40.5834 38.5734 36.7167C36.6501 35.7195 35.7832 33.2645 37.0678 31.3219L37.3832 30.858ZM58.4923 23.9742C48.6056 22.7871 42.3121 27.8852 39.2921 32.1923L39.0101 32.6062C38.5779 33.2596 38.8021 34.2113 39.6454 34.6486H39.6439C46.6224 38.2623 51.204 37.6432 54.1938 35.5674C57.2918 33.4164 59.042 29.4656 59.7887 25.73C59.9572 24.8836 59.3783 24.0803 58.4938 23.9742H58.4923Z" fill="#1A1A1A"/>
<path d="M56.0853 29.6444C53.2036 31.5743 50.0098 32.8863 47.4355 33.6921C46.6282 33.9452 46.667 35.0957 47.5132 35.1003C52.2456 35.1329 55.3245 32.7683 57.0277 30.4378C57.4981 29.795 56.7467 29.2004 56.0853 29.6444Z" fill="#008043"/>
<path d="M31.0524 52.4381C31.0524 53.7243 30.0793 54.767 28.8788 54.767C27.6783 54.767 26.7051 53.7243 26.7051 52.4381C26.7051 51.1518 27.6783 50.1091 28.8788 50.1091C30.0793 50.1091 31.0524 51.1518 31.0524 52.4381Z" fill="#FFAFA3"/>
<path d="M29.9655 52.4382C29.9655 51.7951 29.4789 51.2738 28.8787 51.2738C28.2784 51.2738 27.7918 51.7951 27.7918 52.4382C27.7918 53.0814 28.2784 53.6027 28.8787 53.6027C29.4789 53.6027 29.9655 53.0814 29.9655 52.4382ZM32.1392 52.4382C32.1392 54.3676 30.6794 55.9317 28.8787 55.9317C27.078 55.9317 25.6182 54.3676 25.6182 52.4382C25.6182 50.5089 27.078 48.9448 28.8787 48.9448C30.6794 48.9448 32.1392 50.5089 32.1392 52.4382Z" fill="#1A1A1A"/>
<path d="M38.334 47.1074C38.8765 46.4755 39.8286 46.4019 40.4605 46.9444C41.0922 47.4869 41.1637 48.439 40.6215 49.0709C38.9702 50.9944 37.061 51.5562 35.2984 51.219C33.6774 50.9089 32.4078 49.884 31.713 49.0631C31.1749 48.4273 31.254 47.4766 31.8897 46.9385C32.5254 46.4005 33.4762 46.4796 34.0142 47.1152C34.4134 47.5869 35.1182 48.113 35.8639 48.256C36.4683 48.3717 37.3203 48.2882 38.334 47.1074Z" fill="#1A1A1A"/>
<path d="M20.0342 47.1074C19.4917 46.4755 18.5396 46.4019 17.9077 46.9444C17.276 47.4869 17.2044 48.439 17.7467 49.0709C19.398 50.9944 21.3072 51.5562 23.0698 51.219C24.6908 50.9089 25.9604 49.884 26.6552 49.0631C27.1932 48.4273 27.1142 47.4766 26.4785 46.9385C25.8428 46.4005 24.892 46.4796 24.354 47.1152C23.9548 47.5869 23.25 48.113 22.5043 48.256C21.8999 48.3717 21.0479 48.2882 20.0342 47.1074Z" fill="#1A1A1A"/>
<defs>
<linearGradient id="paint0_linear_9800_32935" x1="36.6483" y1="27.9474" x2="36.6483" y2="83.5192" gradientUnits="userSpaceOnUse">
<stop stop-color="#F79722"/>
<stop offset="1" stop-color="#FFCD29"/>
</linearGradient>
</defs>
</svg>
