<svg width="75" height="86" viewBox="0 0 75 86" fill="none" xmlns="http://www.w3.org/2000/svg">
<path d="M27.21 29.371L27.1246 28.2748C27.0563 27.4209 27.696 26.6725 28.5499 26.6057L50.7277 24.8684C51.7602 24.7877 52.58 25.7207 52.3673 26.7346L52.1329 27.8572C51.9916 28.531 51.4218 29.0325 50.7339 29.0853L43.0267 29.6893C42.4398 29.7359 41.929 30.11 41.7085 30.6566L38.5629 38.4462C38.3424 38.9927 37.8316 39.3669 37.2447 39.4134L36.5212 39.4693C35.3349 39.5625 34.4888 38.339 34.9949 37.2615L37.2478 32.4701C37.7539 31.3926 36.9093 30.1691 35.7215 30.2622L28.8791 30.7979C28.0236 30.8646 27.2768 30.2265 27.21 29.371Z" fill="#864E37"/>
<path d="M50.6366 23.7083C52.444 23.5669 53.879 25.2005 53.5069 26.9742L53.2734 28.0947V28.0963C53.026 29.276 52.028 30.1522 50.8231 30.2448L50.8246 30.2463L43.1191 30.8498C43.0086 30.8585 42.9092 30.9141 42.8431 30.9983L42.7886 31.0924L39.6424 38.8828C39.2562 39.839 38.362 40.4935 37.3361 40.5749H37.3346L36.6114 40.6295C34.5349 40.7919 33.0556 38.6517 33.9413 36.7661L36.1944 31.9748L36.2263 31.8732C36.2668 31.6342 36.0716 31.4026 35.8123 31.4229L28.9695 31.9596C27.4738 32.0762 26.1664 30.9592 26.0492 29.4624V29.4609L25.9643 28.3677C25.8447 26.8711 26.964 25.5616 28.4586 25.4444L50.6366 23.7083ZM28.6405 27.7672C28.4545 27.7819 28.3095 27.9266 28.2872 28.1038L28.2857 28.1827V28.1842L28.3706 29.2804C28.3873 29.4939 28.573 29.6515 28.7876 29.6352L35.6304 29.1015C37.7095 28.9385 39.1871 31.0799 38.302 32.9649V32.9664L36.0489 37.7578C35.9234 38.0266 36.1346 38.3309 36.4294 38.3081H36.431L37.1527 38.252L37.2588 38.2293C37.3596 38.1915 37.4419 38.1131 37.4832 38.011L40.6294 30.2205C41.0155 29.2643 41.9084 28.61 42.9341 28.5284H42.9356L50.6427 27.9249H50.6442C50.8148 27.9118 50.9576 27.7864 50.9929 27.6186L51.228 26.4966V26.4951C51.2808 26.2413 51.076 26.0095 50.8186 26.0296L28.6405 27.7672Z" fill="#1A1A1A"/>
<path d="M25.997 50.3885C30.67 50.0223 34.1615 45.9373 33.7954 41.2643C33.4293 36.5913 29.3442 33.0999 24.6712 33.466C19.9982 33.8321 16.5068 37.9171 16.8729 42.5901C17.239 47.2632 21.324 50.7546 25.997 50.3885Z" fill="#444444"/>
<path d="M32.6344 41.3562C32.3185 37.3246 28.7944 34.3115 24.7628 34.627C20.731 34.9429 17.7179 38.4682 18.0338 42.5001C18.35 46.5316 21.8751 49.5435 25.9067 49.2276C29.938 48.9114 32.9498 45.3874 32.6344 41.3562ZM34.9562 41.1743C35.3721 46.4879 31.4022 51.1327 26.0887 51.5495C20.7747 51.9658 16.1287 47.9958 15.7119 42.682C15.2956 37.3678 19.2667 32.7215 24.5809 32.3052C29.8948 31.8892 34.5399 35.8603 34.9562 41.1743Z" fill="#1A1A1A"/>
<path d="M36.9262 52.1414C41.5992 51.7753 45.0907 47.6903 44.7245 43.0172C44.3584 38.3442 40.2734 34.8528 35.6004 35.2189C30.9274 35.585 27.436 39.6701 27.8021 44.3431C28.1682 49.0161 32.2532 52.5075 36.9262 52.1414Z" fill="#444444"/>
<path d="M43.5636 43.1091C43.2477 39.0775 39.7236 36.0645 35.692 36.3799C31.6602 36.6958 28.6471 40.2212 28.963 44.253C29.2792 48.2845 32.8043 51.2964 36.8359 50.9806C40.8672 50.6643 43.879 47.1404 43.5636 43.1091ZM45.8854 42.9272C46.3013 48.2408 42.3314 52.8857 37.0178 53.3024C31.7039 53.7187 27.0579 49.7487 26.6411 44.4349C26.2248 39.1207 30.1959 34.4744 35.5101 34.0581C40.824 33.6422 45.4691 37.6133 45.8854 42.9272Z" fill="#1A1A1A"/>
<path d="M22.6792 60.0552C27.3522 59.6891 30.8436 55.6041 30.4775 50.9311C30.1114 46.258 26.0263 42.7666 21.3533 43.1327C16.6803 43.4989 13.1889 47.5839 13.555 52.2569C13.9211 56.9299 18.0061 60.4213 22.6792 60.0552Z" fill="#444444"/>
<path d="M29.3165 51.0227C29.0007 46.9911 25.4765 43.978 21.445 44.2935C17.4131 44.6094 14.4 48.1347 14.7159 52.1666C15.0322 56.1981 18.5573 59.21 22.5889 58.8941C26.6201 58.5779 29.632 55.054 29.3165 51.0227ZM31.6384 50.8408C32.0543 56.1544 28.0843 60.7992 22.7708 61.216C17.4569 61.6323 12.8108 57.6623 12.3941 52.3485C11.9777 47.0343 15.9489 42.388 21.263 41.9717C26.5769 41.5557 31.222 45.5268 31.6384 50.8408Z" fill="#1A1A1A"/>
<path d="M39.3408 62.6543C44.0138 62.2882 47.5052 58.2032 47.1391 53.5302C46.773 48.8572 42.688 45.3657 38.0149 45.7319C33.3419 46.098 29.8505 50.183 30.2166 54.856C30.5827 59.529 34.6678 63.0204 39.3408 62.6543Z" fill="#444444"/>
<path d="M45.9782 53.6218C45.6623 49.5902 42.1381 46.5772 38.1066 46.8926C34.0747 47.2085 31.0616 50.7338 31.3775 54.7657C31.6938 58.7972 35.2189 61.8091 39.2505 61.4932C43.2817 61.177 46.2936 57.6531 45.9782 53.6218ZM48.3 53.4399C48.7159 58.7535 44.7459 63.3984 39.4324 63.8151C34.1185 64.2314 29.4724 60.2614 29.0557 54.9476C28.6393 49.6334 32.6105 44.9871 37.9247 44.5708C43.2385 44.1549 47.8837 48.126 48.3 53.4399Z" fill="#1A1A1A"/>
<path d="M29.6582 69.6319C34.3312 69.2658 37.8226 65.1807 37.4565 60.5077C37.0904 55.8347 33.0053 52.3433 28.3323 52.7094C23.6593 53.0755 20.1679 57.1605 20.534 61.8335C20.9001 66.5066 24.9851 69.998 29.6582 69.6319Z" fill="#444444"/>
<path d="M36.296 60.5996C35.9802 56.568 32.456 53.5549 28.4244 53.8704C24.3926 54.1863 21.3795 57.7116 21.6954 61.7435C22.0117 65.775 25.5368 68.7869 29.5684 68.471C33.5996 68.1548 36.6115 64.6309 36.296 60.5996ZM38.6179 60.4177C39.0338 65.7313 35.0638 70.3762 29.7503 70.7929C24.4364 71.2092 19.7903 67.2392 19.3736 61.9254C18.9572 56.6112 22.9284 51.9649 28.2425 51.5486C33.5564 51.1326 38.2015 55.1037 38.6179 60.4177Z" fill="#1A1A1A"/>
<path d="M49.5168 49.3816C54.173 48.8429 57.5109 44.6315 56.9721 39.9752C56.4334 35.3189 52.2219 31.981 47.5657 32.5198C42.9094 33.0586 39.5715 37.27 40.1103 41.9263C40.6491 46.5825 44.8605 49.9204 49.5168 49.3816Z" fill="#444444"/>
<path d="M55.816 40.1098C55.3512 36.0926 51.718 33.212 47.7008 33.6764C43.6834 34.1413 40.8029 37.7757 41.2677 41.7931C41.7329 45.8102 45.3671 48.6896 49.3842 48.2248C53.401 47.7596 56.2804 44.1266 55.816 40.1098ZM58.1295 39.8421C58.7418 45.1366 54.9464 49.9252 49.6519 50.5383C44.357 51.1509 39.5673 47.3556 38.9542 42.0608C38.3415 36.7657 42.138 31.9756 47.4331 31.3629C52.728 30.7507 57.5169 34.5472 58.1295 39.8421Z" fill="#1A1A1A"/>
<path d="M52.392 61.6219C57.0651 61.2557 60.5565 57.1707 60.1904 52.4977C59.8243 47.8247 55.7392 44.3333 51.0662 44.6994C46.3932 45.0655 42.9018 49.1505 43.2679 53.8235C43.634 58.4966 47.719 61.988 52.392 61.6219Z" fill="#444444"/>
<path d="M59.0294 52.5893C58.7136 48.5577 55.1894 45.5447 51.1578 45.8601C47.126 46.176 44.1129 49.7014 44.4288 53.7332C44.7451 57.7647 48.2702 60.7766 52.3018 60.4608C56.333 60.1445 59.3449 56.6206 59.0294 52.5893ZM61.3513 52.4074C61.7672 57.721 57.7972 62.3659 52.4837 62.7826C47.1698 63.1989 42.5237 59.2289 42.107 53.9151C41.6906 48.601 45.6618 43.9547 50.9759 43.5383C56.2898 43.1224 60.9349 47.0935 61.3513 52.4074Z" fill="#1A1A1A"/>
<path d="M40.8046 72.7574C45.4777 72.3912 48.9691 68.3062 48.603 63.6332C48.2368 58.9602 44.1518 55.4688 39.4788 55.8349C34.8058 56.201 31.3144 60.286 31.6805 64.959C32.0466 69.632 36.1316 73.1235 40.8046 72.7574Z" fill="#444444"/>
<path d="M47.442 63.7248C47.1262 59.6932 43.602 56.6802 39.5704 56.9956C35.5386 57.3115 32.5255 60.8369 32.8414 64.8687C33.1577 68.9002 36.6828 71.9121 40.7144 71.5963C44.7456 71.28 47.7575 67.7561 47.442 63.7248ZM49.7639 63.5429C50.1797 68.8565 46.2098 73.5014 40.8963 73.9181C35.5824 74.3344 30.9363 70.3644 30.5196 65.0506C30.1032 59.7365 34.0744 55.0902 39.3885 54.6738C44.7024 54.2579 49.3475 58.229 49.7639 63.5429Z" fill="#1A1A1A"/>
<path d="M16.8754 74.0957C21.5485 73.7296 25.0399 69.6446 24.6738 64.9716C24.3077 60.2986 20.2226 56.8072 15.5496 57.1733C10.8766 57.5394 7.38518 61.6244 7.75129 66.2974C8.11741 70.9704 12.2024 74.4619 16.8754 74.0957Z" fill="#444444"/>
<path d="M23.5128 65.0632C23.197 61.0316 19.6728 58.0186 15.6412 58.334C11.6094 58.6499 8.5963 62.1753 8.91219 66.2071C9.22845 70.2386 12.7536 73.2505 16.7852 72.9347C20.8164 72.6184 23.8283 69.0945 23.5128 65.0632ZM25.8347 64.8813C26.2505 70.1949 22.2806 74.8398 16.9671 75.2565C11.6532 75.6728 7.00708 71.7028 6.59035 66.389C6.174 61.0749 10.1452 56.4285 15.4593 56.0122C20.7732 55.5963 25.4183 59.5674 25.8347 64.8813Z" fill="#1A1A1A"/>
<path d="M27.6025 83.1368C32.2755 82.7706 35.7669 78.6856 35.4008 74.0126C35.0347 69.3396 30.9497 65.8482 26.2767 66.2143C21.6037 66.5804 18.1122 70.6654 18.4783 75.3384C18.8445 80.0114 22.9295 83.5029 27.6025 83.1368Z" fill="#444444"/>
<path d="M34.2404 74.1042C33.9245 70.0726 30.4003 67.0596 26.3688 67.375C22.3369 67.6909 19.3238 71.2163 19.6397 75.2481C19.956 79.2796 23.4811 82.2915 27.5127 81.9757C31.5439 81.6594 34.5558 78.1355 34.2404 74.1042ZM36.5622 73.9223C36.9781 79.2359 33.0081 83.8808 27.6946 84.2975C22.3807 84.7138 17.7346 80.7438 17.3179 75.43C16.9015 70.1159 20.8727 65.4696 26.1869 65.0532C31.5007 64.6373 36.1459 68.6084 36.5622 73.9223Z" fill="#1A1A1A"/>
<path d="M35.216 56.9818C35.216 58.268 34.1733 59.3107 32.8871 59.3107C31.6008 59.3107 30.5581 58.268 30.5581 56.9818C30.5581 55.6955 31.6008 54.6528 32.8871 54.6528C34.1733 54.6528 35.216 55.6955 35.216 56.9818Z" fill="#FFAFA3"/>
<path d="M34.0514 56.9819C34.0514 56.3388 33.5301 55.8175 32.887 55.8175C32.2439 55.8175 31.7225 56.3388 31.7225 56.9819C31.7225 57.6251 32.2439 58.1464 32.887 58.1464C33.5301 58.1464 34.0514 57.6251 34.0514 56.9819ZM36.3804 56.9819C36.3804 58.9113 34.8163 60.4754 32.887 60.4754C30.9576 60.4754 29.3936 58.9113 29.3936 56.9819C29.3936 55.0526 30.9576 53.4885 32.887 53.4885C34.8163 53.4885 36.3804 55.0526 36.3804 56.9819Z" fill="#D9D9D9"/>
<path d="M40.1183 50.8162C41.143 50.8162 41.9737 51.647 41.9737 52.6717C41.9736 53.6963 41.1429 54.5272 40.1183 54.5272C39.0938 54.527 38.2629 53.6962 38.2628 52.6717C38.2628 51.6471 39.0937 50.8164 40.1183 50.8162ZM42.0255 45.8446C42.7834 45.4429 43.6941 45.5826 44.0597 46.1561C44.4249 46.7297 44.1081 47.5206 43.3507 47.9227L43.3468 47.9246C43.3454 47.9254 43.3433 47.9273 43.3409 47.9285C43.335 47.9316 43.3246 47.9364 43.3136 47.9422C43.291 47.9542 43.2579 47.9717 43.2159 47.994C43.1303 48.0393 43.0064 48.1057 42.8536 48.1864C42.5475 48.348 42.1232 48.5705 41.6544 48.8162C40.7216 49.3051 39.5902 49.8937 38.8468 50.2645L38.7013 50.3289C37.9673 50.625 37.1563 50.4468 36.836 49.8973C36.4946 49.3111 36.8414 48.5242 37.6104 48.1405L38.8927 47.4871C39.3719 47.2394 39.8805 46.9742 40.3478 46.7293C40.8124 46.4858 41.2325 46.2646 41.5362 46.1043L41.9923 45.8621C42.0032 45.8564 42.0121 45.8514 42.0177 45.8485L42.0255 45.8446Z" fill="#D9D9D9"/>
<path d="M24.6377 50.8159C23.6131 50.8159 22.7824 51.6468 22.7822 52.6714C22.7822 53.6961 23.613 54.5268 24.6377 54.5268C25.6624 54.5268 26.4932 53.6961 26.4932 52.6714C26.493 51.6468 25.6623 50.816 24.6377 50.8159ZM22.7314 45.8442C21.9733 45.4423 21.0617 45.5828 20.6963 46.1567C20.331 46.7305 20.6485 47.5213 21.4062 47.9233L21.4092 47.9243C21.4106 47.925 21.4127 47.927 21.415 47.9282C21.4209 47.9313 21.4312 47.936 21.4424 47.9419C21.4649 47.9538 21.4978 47.9713 21.54 47.9936C21.6257 48.039 21.7493 48.1053 21.9023 48.186C22.2085 48.3476 22.6326 48.5701 23.1016 48.8159C24.0344 49.3048 25.1667 49.8933 25.9101 50.2642L26.0547 50.3286C26.7887 50.6247 27.5997 50.4466 27.9199 49.897C28.2612 49.3107 27.9146 48.5238 27.1455 48.1401L25.8633 47.4878C25.3839 47.24 24.8756 46.9739 24.4082 46.729C23.9436 46.4855 23.5234 46.2653 23.2197 46.105L22.7637 45.8618C22.7528 45.8561 22.7439 45.8521 22.7383 45.8491C22.736 45.8479 22.7346 45.846 22.7334 45.8452L22.7314 45.8442Z" fill="#D9D9D9"/>
</svg>
