<svg width="75" height="86" viewBox="0 0 75 86" fill="none" xmlns="http://www.w3.org/2000/svg">
<path d="M10.1141 55.4242L13.3342 51.2368L16.7298 52.85L18.7265 56.685L28.4677 56.6074L30.0172 53.3825L33.7855 51.2896L37.8922 54.5905H40.3081L51.8224 53.3825L61.1599 54.5905L64.7061 59.5838L66.9404 63.1719L70.1823 70.2131V74.6412L68.4107 79.473L65.9948 81.406L56.6666 84.1433L47.8073 80.5194L40.3081 81.406L31.691 84.1433H28.873L26.5378 80.5194L13.8963 79.473L6.3272 82.4525L3.5076 80.5194L3.10547 77.7821L7.79753 74.5107L7.28049 67.35L10.1141 55.4242Z" fill="#FFE0FC"/>
<path d="M30.4354 76.4669C31.0786 76.4669 31.6005 76.9888 31.6005 77.632C31.6003 78.1966 31.1984 78.6653 30.6649 78.7716V80.6173C30.7556 80.6787 30.8892 80.7733 31.0243 80.9083C31.0998 80.9839 31.1664 81.0632 31.2011 81.1036C31.2223 81.1284 31.2363 81.1441 31.2489 81.1583C31.2516 81.1613 31.2537 81.1648 31.2558 81.1671C31.2601 81.1704 31.2718 81.1781 31.3017 81.1974L31.3134 81.2052L31.3241 81.213L31.5438 81.3615L31.5487 81.3644C31.6425 81.4269 31.6998 81.4666 31.7772 81.5177L31.787 81.5236C31.8035 81.5275 31.8215 81.5312 31.8397 81.5363C31.9032 81.5538 32.0338 81.5939 32.1767 81.6818L32.1991 81.6954L32.2216 81.7101C32.2418 81.7238 32.2607 81.7389 32.2792 81.7531C32.3186 81.7683 32.3535 81.7817 32.3808 81.7941C32.3828 81.795 32.3856 81.7961 32.3876 81.797H34.6493C35.2919 81.7973 35.8139 82.3185 35.8144 82.9611C35.8144 83.604 35.2922 84.1258 34.6493 84.1261H32.3065C32.2521 84.1262 31.9851 84.1352 31.6991 84.0382L31.6796 84.0314C31.6135 84.0076 31.5567 83.9829 31.5185 83.965C31.5 83.9563 31.4819 83.9471 31.4667 83.9396C31.4365 83.9332 31.3953 83.9251 31.3515 83.9122C31.3163 83.9019 31.2636 83.8844 31.2011 83.8575L30.9892 83.7423L30.9774 83.7325L30.9638 83.7238C30.9515 83.7149 30.9403 83.7045 30.9286 83.6954C30.7007 83.6053 30.5138 83.4739 30.4901 83.4581V83.4572C30.414 83.4068 30.3191 83.3435 30.2567 83.3019V83.3009C30.173 83.2456 30.0896 83.1898 30.0146 83.1388V83.1368C29.9118 83.0696 29.7646 82.9689 29.6112 82.8156L29.6034 82.8077C29.5324 82.7353 29.467 82.6579 29.4354 82.6212C29.4158 82.5983 29.4026 82.5829 29.3915 82.5704C29.3829 82.5608 29.3786 82.5557 29.3778 82.5548C29.3894 82.5663 29.3958 82.5686 29.3261 82.5226L29.3212 82.5197C29.2278 82.4574 29.17 82.4164 29.0927 82.3654L29.0878 82.3624C29.0671 82.3486 28.9118 82.253 28.7587 82.1046L28.6103 81.9396L28.6015 81.9269L29.4794 81.2814L29.538 81.2374L28.6015 81.9269C28.3135 81.5353 28.3358 81.1204 28.3358 81.0792V78.4142C28.3358 78.2957 28.3392 78.0242 28.5038 77.7013C28.5325 77.6445 28.5603 77.5961 28.58 77.5636C28.6018 77.5277 28.6245 77.4932 28.6376 77.4728C28.6413 77.467 28.6456 77.4615 28.6483 77.4572C28.6748 77.3849 28.7962 77.0648 29.1376 76.8419L29.1366 76.84L29.1405 76.839C29.1423 76.8379 29.1437 76.8353 29.1454 76.8341L29.1474 76.8361C29.1779 76.8165 29.2085 76.802 29.2362 76.7872C29.2837 76.746 29.3364 76.7037 29.3974 76.6661L29.4003 76.67C29.6578 76.5111 29.9077 76.4836 29.9794 76.4767C30.0804 76.4669 30.1796 76.4669 30.204 76.4669H30.4354ZM31.2655 83.7921H31.2685C31.2661 83.7917 31.2639 83.7908 31.2606 83.7902C31.2625 83.7906 31.2643 83.7919 31.2655 83.7921ZM56.954 76.8087C57.4088 76.3541 58.1458 76.354 58.6005 76.8087C59.0243 77.2329 59.0525 77.9024 58.6854 78.3595C58.6728 78.394 58.6601 78.4327 58.6415 78.4718L58.6425 78.4728C58.6411 78.4756 58.638 78.4778 58.6366 78.4806C58.6344 78.4852 58.635 78.4916 58.6327 78.4962L58.6288 78.4943C58.614 78.524 58.5977 78.5498 58.5839 78.5734H58.5849C58.552 78.6511 58.4846 78.7843 58.3593 78.92C58.3336 78.9568 58.3098 78.9879 58.2899 79.0118L58.2772 79.0323C58.2101 79.1598 58.1345 79.2512 58.0966 79.295C58.0756 79.3193 58.0576 79.3401 58.0458 79.3527C58.0397 79.3591 58.034 79.3653 58.0302 79.3693C58.0258 79.3738 58.0236 79.3758 58.0214 79.3781L57.9999 79.4015L57.9774 79.422C57.9696 79.4295 57.9599 79.4368 57.9501 79.4464C57.9468 79.452 57.9448 79.459 57.9413 79.465C57.9303 79.4836 57.9157 79.5093 57.8983 79.5363L57.8935 79.5421C57.8463 79.6651 57.7858 79.7802 57.7226 79.8771L57.7255 79.879C57.7217 79.8849 57.7156 79.89 57.7118 79.8956C57.7105 79.8978 57.7103 79.9013 57.7089 79.9034L57.7069 79.9015C57.6822 79.9384 57.6578 79.9696 57.6396 79.9933L56.6249 79.34L57.6239 80.0187L56.661 79.3644L57.6396 79.9933C57.638 79.9953 57.6371 79.9982 57.6356 80.0001V80.0011C57.6341 80.0038 57.6316 80.007 57.6288 80.0118C57.6242 80.02 57.6129 80.0407 57.6024 80.0587C57.5912 80.078 57.5744 80.1061 57.5546 80.1368L57.5419 80.1573L57.5272 80.1779C57.4675 80.2627 57.407 80.3291 57.3544 80.3839C57.3511 80.3896 57.348 80.3957 57.3446 80.4015C57.3334 80.4208 57.3166 80.4498 57.2968 80.4806L57.2812 80.505L57.1854 80.63C57.1544 80.6665 57.1252 80.698 57.0995 80.7247C57.0939 80.7343 57.0876 80.7458 57.081 80.757C57.0683 80.7781 57.0497 80.8077 57.0282 80.84L57.0233 80.8478L56.8798 81.0314C56.837 81.0791 56.8008 81.1123 56.7821 81.131C56.7325 81.1807 56.6477 81.2661 56.5214 81.3722L56.5106 81.381L56.5097 81.38C56.3682 81.4962 56.3262 81.525 56.2255 81.6134C56.1438 81.6852 56.0567 81.7715 55.9511 81.8771C55.8514 81.9768 55.7627 82.0661 55.6845 82.1427C55.6135 82.2151 55.5171 82.3115 55.3905 82.4113L55.3886 82.4093C55.3156 82.4672 55.2152 82.5409 55.1679 82.5743C55.1883 82.5585 55.1945 82.5522 55.163 82.5792C55.1413 82.5978 55.1102 82.6241 55.0731 82.6564C54.9995 82.7205 54.9059 82.8037 54.8114 82.8868C54.7168 82.9701 54.6223 83.0529 54.5507 83.1163C54.4883 83.1716 54.4572 83.2002 54.4491 83.2072C53.9823 83.6489 53.2448 83.6279 52.8026 83.1613C52.3611 82.6945 52.3814 81.9589 52.8476 81.5167C52.8827 81.4835 53.0957 81.2942 53.2724 81.1388C53.4322 80.9981 53.6785 80.7811 53.7528 80.7247L53.7694 80.713C53.791 80.6973 53.8129 80.6812 53.83 80.6691C53.8491 80.6555 53.8651 80.6451 53.8808 80.6339C53.9126 80.6111 53.9297 80.5958 53.9394 80.588L53.9501 80.5812C53.9581 80.5748 53.9695 80.5662 54.038 80.4962L54.0565 80.4777C54.124 80.4116 54.2028 80.3324 54.3046 80.2306C54.4007 80.1345 54.5404 79.9934 54.6884 79.8634C54.8163 79.751 54.9997 79.6085 55.0331 79.5812C55.0535 79.5638 55.0695 79.5489 55.0829 79.5363C55.0927 79.527 55.101 79.5171 55.1112 79.507C55.1135 79.503 55.1167 79.4992 55.119 79.4952C55.1301 79.4764 55.1472 79.4501 55.1659 79.421L56.1308 80.0411L56.1103 80.0275L55.1659 79.421L55.1815 79.3966C55.2557 79.2874 55.3337 79.2022 55.3681 79.1661C55.3722 79.159 55.3771 79.1514 55.3817 79.1437C55.3958 79.1203 55.4157 79.0887 55.4394 79.0538H55.4403C55.513 78.946 55.593 78.8557 55.6269 78.8204C55.6306 78.8141 55.6355 78.8077 55.6396 78.8009C55.6513 78.7813 55.6658 78.7549 55.6845 78.7267C55.7017 78.7002 55.7227 78.6775 55.7382 78.6564C55.7528 78.6126 55.7688 78.56 55.7938 78.507L55.8056 78.4855C55.8406 78.4154 55.8766 78.3608 55.9003 78.3263L55.955 78.2501C55.9615 78.2388 55.9704 78.2221 55.9804 78.2052C55.9914 78.1866 56.007 78.1609 56.0243 78.1339L56.0399 78.1095C56.1178 77.9948 56.1935 77.9122 56.244 77.8605C56.2776 77.7969 56.315 77.7431 56.3476 77.6984L56.4306 77.5939C56.4598 77.5425 56.4994 77.486 56.5478 77.4269C56.597 77.3015 56.6552 77.1878 56.7099 77.1027L56.7187 77.09L56.7265 77.0782C56.8233 76.9356 56.9217 76.841 56.954 76.8087ZM31.5575 82.6837L31.5673 82.673L32.1444 81.7316L31.5575 82.6837ZM6.1249 74.9142C6.76796 74.9143 7.28896 75.4362 7.28896 76.0792C7.28885 76.644 6.887 77.1127 6.35342 77.2189V79.0646C6.38758 79.0877 6.42803 79.1148 6.47158 79.1476L6.70596 79.3478L6.71475 79.3556L6.72256 79.3644C6.79381 79.4371 6.85823 79.5139 6.8915 79.5529C6.91201 79.5769 6.92723 79.5938 6.93936 79.6075C6.94218 79.6108 6.9441 79.614 6.94619 79.6163C6.93715 79.6076 6.93344 79.6076 6.9999 79.6515L7.00381 79.6544C7.1101 79.7253 7.15202 79.7553 7.22549 79.8029L6.57217 80.8116L6.59365 80.7804L7.22549 79.8029L7.23623 79.8107L7.24795 79.8185C7.3261 79.8716 7.39721 79.9191 7.4667 79.965L7.47158 79.9679L7.47451 79.9698C7.49218 79.974 7.51224 79.978 7.53213 79.9835C7.59676 80.0015 7.72458 80.0426 7.86514 80.129L7.87881 80.1368L7.89248 80.1456C7.9192 80.1631 7.94474 80.182 7.96865 80.2003C8.01044 80.2165 8.04707 80.2313 8.0751 80.2443H10.3388C10.9811 80.2448 11.5024 80.7659 11.5028 81.4083C11.5028 82.0511 10.9814 82.5728 10.3388 82.5734H7.996C7.93991 82.5734 7.6772 82.5829 7.39346 82.4884L7.37978 82.4835L7.36807 82.4786C7.30198 82.4548 7.24548 82.4294 7.20693 82.4113C7.18981 82.4032 7.17355 82.394 7.15908 82.3868C7.12872 82.3805 7.08659 82.3726 7.04189 82.3595C7.00657 82.3491 6.95328 82.3318 6.89053 82.3048L6.67861 82.1896L6.65713 82.174L6.63467 82.1573C6.62838 82.1526 6.62221 82.1475 6.61611 82.1427C6.3946 82.0546 6.21192 81.928 6.17959 81.9064V81.9044C6.09621 81.8493 6.01328 81.7942 5.93838 81.7433V81.7423C5.8575 81.6894 5.76042 81.6237 5.71279 81.5919V81.5909C5.62512 81.5331 5.46419 81.4273 5.29971 81.2628L5.29189 81.255C5.22029 81.1819 5.15594 81.1041 5.12295 81.0656C5.10259 81.0417 5.08912 81.0265 5.07705 81.0128L5.0751 81.0109L5.01455 80.9708L5.01064 80.9669L4.78896 80.8185L4.76748 80.8038L5.42275 79.8409L5.43643 79.8195L4.76748 80.8038C4.73533 80.782 4.66625 80.7352 4.59951 80.6837C4.57045 80.6613 4.52408 80.6242 4.47061 80.5743L4.29873 80.3868L4.28994 80.3741C4.00225 79.9827 4.02432 79.5677 4.02432 79.5265V76.8615C4.02432 76.743 4.02665 76.4715 4.19131 76.1486L4.27236 76.0089C4.29257 75.9758 4.31284 75.9422 4.3251 75.923C4.32848 75.9177 4.33322 75.9134 4.33584 75.9093V75.9044C4.35907 75.8433 4.4756 75.5274 4.81045 75.3009L4.8085 75.2999C4.81442 75.2959 4.82212 75.293 4.82803 75.2892C4.83673 75.2835 4.84541 75.2762 4.85439 75.2706L4.85732 75.2736C4.87969 75.2598 4.90209 75.2486 4.92275 75.2374C4.9662 75.1994 5.01401 75.1605 5.06924 75.1251L5.07119 75.1271C5.33595 74.9576 5.59828 74.9308 5.66885 74.924C5.7692 74.9143 5.86774 74.9142 5.89248 74.9142H6.1249ZM6.746 82.006L6.74795 82.0031L6.79189 81.8712L6.746 82.006ZM52.2958 75.256C52.7505 74.8013 53.4875 74.8013 53.9423 75.256C54.3645 75.6784 54.3935 76.3439 54.0312 76.8009C54.0181 76.8367 54.0004 76.8753 53.9804 76.9171L53.9843 76.921C53.9804 76.9289 53.9744 76.9359 53.9706 76.9435C53.9636 76.9574 53.959 76.9732 53.9511 76.9874L53.9462 76.9845C53.9407 76.9945 53.9349 77.0037 53.9296 77.0128C53.9286 77.0151 53.9296 77.0183 53.9286 77.0206C53.8957 77.0984 53.8267 77.2323 53.7011 77.3683C53.6755 77.4049 53.6515 77.4352 53.6317 77.4591L53.6249 77.4698L53.621 77.4796C53.5538 77.6073 53.4763 77.6985 53.4384 77.7423C53.4175 77.7665 53.3994 77.7874 53.3876 77.7999C53.3816 77.8063 53.3757 77.8126 53.372 77.8165C53.3678 77.8209 53.3654 77.8231 53.3632 77.8253L53.3417 77.8488L53.3192 77.8693C53.3115 77.8766 53.3024 77.8842 53.2929 77.8937C53.2896 77.8993 53.2876 77.9063 53.2841 77.9122C53.273 77.9309 53.2575 77.9565 53.2401 77.9835L53.2353 77.9894C53.1882 78.1122 53.1285 78.2276 53.0653 78.3243L53.0673 78.3263C53.0656 78.3289 53.0631 78.3315 53.0614 78.3341C53.058 78.3394 53.0551 78.3456 53.0517 78.3507L53.0487 78.3488C53.0154 78.3984 52.9855 78.4404 52.9667 78.464C52.9612 78.4737 52.9532 78.4916 52.9442 78.507C52.9331 78.5261 52.9169 78.5537 52.8974 78.5841L52.87 78.6251C52.8102 78.7101 52.7489 78.7763 52.6962 78.8312C52.6929 78.8368 52.6898 78.843 52.6864 78.8488C52.6752 78.868 52.6594 78.897 52.6396 78.9279L52.6308 78.9406L52.6229 78.9523L51.6796 78.3107L51.6454 78.2882L52.6229 78.9523C52.5586 79.0471 52.4926 79.1186 52.4413 79.172C52.4358 79.1815 52.4294 79.1931 52.4228 79.2042C52.4101 79.2254 52.3925 79.255 52.371 79.2872L52.3651 79.295L52.2216 79.4786C52.1787 79.5264 52.1425 79.5597 52.1239 79.5782C52.0742 79.6279 51.9897 79.7132 51.8632 79.8195L51.8544 79.8282L51.8524 79.8273C51.7105 79.9438 51.6683 79.972 51.5673 80.0607C51.4856 80.1324 51.3985 80.2187 51.2929 80.3243C51.1932 80.424 51.1045 80.5134 51.0263 80.59C50.9552 80.6624 50.859 80.7588 50.7323 80.8585L50.7304 80.8566C50.6567 80.915 50.5544 80.9886 50.5077 81.0216C50.0634 81.4677 49.3434 81.4815 48.8837 81.046C48.4173 80.6039 48.3973 79.8683 48.8388 79.4015L48.9462 79.295C48.9873 79.2576 49.0355 79.2167 49.0946 79.172L49.1112 79.1603L49.1718 79.1163C49.1906 79.103 49.2061 79.0922 49.2216 79.0812C49.2537 79.0582 49.2735 79.043 49.2831 79.0353L49.2919 79.0284L49.3798 78.9435L49.3983 78.9249C49.4658 78.8589 49.5446 78.7796 49.6464 78.6779C49.7424 78.5818 49.8823 78.4406 50.0302 78.3107C50.1489 78.2064 50.3152 78.0763 50.3651 78.0363L50.4257 77.9835C50.4365 77.9733 50.4462 77.9629 50.4579 77.9513C50.4594 77.9486 50.4613 77.9451 50.4628 77.9425C50.4739 77.9237 50.4892 77.8971 50.5077 77.8683L51.4726 78.4884L51.4521 78.4747L50.5077 77.8683L50.5233 77.8439C50.5957 77.7372 50.6724 77.6537 50.7079 77.6163C50.7126 77.6083 50.7192 77.5998 50.7245 77.5909C50.7385 77.5676 50.7577 77.5357 50.7812 77.5011L50.914 77.3302C50.9361 77.3049 50.9549 77.284 50.9677 77.2706C50.9719 77.2634 50.9776 77.2561 50.9823 77.2482C50.9949 77.2272 51.0117 77.1996 51.0321 77.1691C51.0479 77.1452 51.0639 77.123 51.078 77.1036C51.0926 77.0597 51.1114 77.0075 51.1366 76.9542L51.1415 76.9435L51.1474 76.9327L51.2421 76.7736C51.2655 76.7395 51.2858 76.7103 51.2958 76.6974C51.3023 76.6861 51.3121 76.6695 51.3222 76.6525C51.3332 76.6338 51.3487 76.6082 51.3661 76.5812L51.3739 76.5685L51.3827 76.5568C51.4626 76.4391 51.5403 76.3551 51.5907 76.3038C51.6573 76.179 51.7309 76.0885 51.7724 76.0411L51.7743 76.0382C51.8035 75.9872 51.8426 75.9316 51.8905 75.8732C51.9369 75.7555 51.994 75.6438 52.0546 75.5509V75.5499C52.0569 75.5463 52.06 75.5428 52.0624 75.5392C52.0652 75.535 52.0665 75.5296 52.0692 75.5255L52.0712 75.5275C52.1682 75.3825 52.2658 75.286 52.2958 75.256ZM7.24209 81.1398L7.25576 81.1202L7.83389 80.1788L7.24209 81.1398ZM55.955 80.7023L55.7724 80.4806L55.7118 80.4083L55.955 80.7023ZM57.4931 79.3116H57.495L56.9188 78.9064L57.6435 79.3722L56.8964 78.8917L57.4931 79.3116ZM58.2382 79.0118L57.2753 78.5031L57.2313 78.4825L58.2382 79.0118ZM57.8739 78.5441L57.8769 78.546L57.7685 78.4259L57.8739 78.5441ZM52.9657 78.4659L52.0028 77.8116L52.7577 78.297L51.9667 77.7882L52.9657 78.4659ZM58.6278 78.4493C58.6298 78.4434 58.6342 78.4384 58.6356 78.4337C58.6418 78.4143 58.6499 78.3839 58.6415 78.4142C58.6403 78.4182 58.6336 78.4305 58.6278 78.4493ZM57.7235 78.3781H57.7255L57.5058 78.1339L57.4931 78.1212L57.7235 78.3781ZM30.4159 78.3234L30.0087 77.6573L29.9911 77.632L30.4159 78.3234ZM57.6464 77.8849L58.1532 78.047L58.1513 78.046L57.6405 77.882L57.6464 77.8849ZM29.7733 77.8156L29.8583 77.9454L29.7108 77.7179L29.7733 77.8156ZM56.329 77.8224C56.319 77.8506 56.3115 77.8801 56.3173 77.8605C56.3182 77.8575 56.3261 77.836 56.3368 77.8048C56.3344 77.8113 56.331 77.8169 56.329 77.8224ZM52.2606 77.3546L52.9853 77.8195L52.247 77.3448L52.2606 77.3546ZM53.2919 77.8195C53.2934 77.8148 53.2965 77.81 53.2978 77.8058C53.3019 77.7916 53.3036 77.7795 53.3056 77.7716C53.303 77.7824 53.2974 77.7987 53.2919 77.8195ZM56.4853 77.6134C56.4822 77.6235 56.4795 77.6329 56.4774 77.6407C56.48 77.6322 56.4841 77.6222 56.4872 77.6105L56.4853 77.6134ZM53.581 77.4591L52.6171 76.9513L52.579 76.9327L53.581 77.4591ZM28.9286 77.1827C28.9267 77.1865 28.9251 77.1905 28.9237 77.1935C28.9256 77.1897 28.9324 77.1784 28.9403 77.1632C28.9357 77.1715 28.9312 77.1779 28.9286 77.1827ZM6.12978 76.7814L6.13076 76.7823L6.1249 76.7716L5.89248 76.4093L5.69717 76.1046L6.12978 76.7814ZM6.68252 76.7072C6.68482 76.703 6.68852 76.6996 6.69033 76.6964C6.69562 76.6866 6.69917 76.6768 6.70107 76.673C6.70041 76.6743 6.69192 76.6891 6.68252 76.7072ZM52.7685 76.6837L52.7548 76.6769L51.7499 76.2023L52.7685 76.6837ZM53.0341 76.1808L53.5497 76.5109L53.0185 76.17L53.0341 76.1808ZM20.1728 59.5236C20.7242 59.3695 21.2378 59.355 21.703 59.5148C22.169 59.6752 22.4953 59.9796 22.7313 60.2882C22.8358 60.4249 22.9286 60.5721 23.0126 60.7169C23.1093 60.5628 23.2152 60.4119 23.331 60.2745C23.5841 59.9745 23.9211 59.6866 24.3622 59.5284C24.7592 59.3865 25.1906 59.3677 25.6396 59.4767L25.8329 59.5314L26.1317 59.6466C26.4189 59.7765 26.6713 59.9545 26.872 60.1866C27.1428 60.5003 27.2805 60.87 27.3202 61.2462C27.3956 61.9625 27.118 62.7109 26.7548 63.3497C26.0191 64.6431 24.6607 65.9688 23.4071 66.6066L23.1024 66.7609L22.7821 66.6417L22.4579 66.5089C20.8622 65.8077 19.6236 64.4918 19.0272 63.215C18.7115 62.5386 18.5342 61.7836 18.6747 61.0929C18.8285 60.338 19.3467 59.7546 20.1728 59.5236ZM13.5224 51.2365C15.4414 52.5903 19.2203 55.5611 18.9843 56.6075C15.5887 60.7623 11.406 62.1272 7.76357 64.2325L9.82998 54.8175L13.5224 51.2365ZM33.7821 51.5675C34.2401 51.3564 34.7744 51.3922 35.206 51.6544L37.621 53.1144C37.9437 53.31 38.1854 53.6176 38.2987 53.9777L39.8778 59.0167C40.1449 59.866 39.6481 60.7807 38.7802 60.9747C35.5305 61.7029 31.166 61.8829 29.1786 54.5079C28.9768 53.9456 31.8201 52.474 33.7821 51.5675Z" fill="#FFBDF2"/>
<path d="M12.999 68.3148C15.0332 68.3149 16.6826 69.7601 16.6826 71.5424C16.6824 73.3244 15.0331 74.7689 12.999 74.7689C10.9649 74.7689 9.31562 73.3245 9.31543 71.5424C9.31543 69.7601 10.9648 68.3148 12.999 68.3148ZM33.1836 68.3148C35.2176 68.315 36.8662 69.7602 36.8662 71.5424C36.866 73.3243 35.2175 74.7687 33.1836 74.7689C31.1495 74.7689 29.5002 73.3245 29.5 71.5424C29.5 69.7601 31.1494 68.3148 33.1836 68.3148Z" fill="#FF99E0"/>
<path d="M47.2023 69.5352C49.6282 69.0449 51.9941 70.549 52.6017 72.9195L52.6548 73.1515C52.7543 73.6441 53.0815 74.2009 54.124 74.7344L54.6168 74.9619L55.1596 75.1666C56.4148 75.5923 57.8144 75.7589 58.8183 75.7609C61.5233 75.3608 62.2417 74.1893 62.4239 73.7292C62.5682 73.3613 62.5504 73.109 62.5194 72.9726C62.5047 72.9075 62.4829 72.8641 62.4709 72.8406C62.0551 72.4241 62.013 71.7521 62.3921 71.285C62.7973 70.7856 63.5302 70.7099 64.0296 71.1152C64.3932 71.4103 64.6658 71.9132 64.7892 72.457C64.9247 73.0538 64.9045 73.7832 64.5891 74.5843V74.5874C64.0524 75.9428 62.5381 77.5903 59.073 78.0793L58.9957 78.0899L58.9183 78.0914C57.5408 78.1015 55.4921 77.8524 53.7176 77.1089C51.8655 76.3341 50.6923 75.2028 50.3713 73.6139C50.1181 72.3704 48.9066 71.5658 47.6633 71.8172C46.4195 72.0703 45.6173 73.284 45.8696 74.5267C46.6096 78.1785 49.3277 80.25 51.9406 81.3452C54.5344 82.4322 57.3688 82.7274 59.2277 82.6795L59.3414 82.6765L59.4551 82.6613L59.7492 84.9721L59.5779 84.9948L59.5218 85.0009L59.2913 85.007C57.3224 85.0579 54.4035 84.7775 51.5994 83.7166L51.04 83.4938C50.1661 83.1275 49.2514 82.6474 48.3668 82.0397C46.571 81.851 45.0545 81.7003 43.6634 81.5348C41.6069 81.2907 39.4082 82.2198 37.3619 83.515C35.9351 84.417 34.2239 85.147 32.5509 85.3208C30.8534 85.4972 29.0726 85.0993 27.8187 83.5772C27.1714 82.7924 26.7765 81.9717 26.63 81.1375C25.617 81.2346 24.7144 81.2785 23.4534 81.2785C20.3893 81.2785 17.4466 81.0014 14.87 80.3172C13.6545 81.5169 11.6649 82.6153 9.7072 83.1844C8.56365 83.5169 7.33875 83.698 6.19558 83.5741C5.04163 83.449 3.8979 83.001 3.08122 82.0109C2.26292 81.0178 1.8916 79.9408 1.94556 78.8586C1.9984 77.8007 2.45095 76.8624 3.04635 76.0945C3.90847 74.9828 5.16946 74.0986 6.41544 73.5609C6.04137 72.4881 5.84839 71.3027 5.84836 70.0053C5.84836 67.5081 5.84632 65.6131 6.39421 62.9381C6.67319 59.8537 7.52832 55.2483 10.1606 51.68C11.137 50.3597 12.853 49.7758 14.4318 50.2198C15.3985 50.4921 16.5751 50.965 17.6614 51.9135C18.6299 52.7594 19.4775 53.9415 20.0586 55.5843C21.0343 55.3184 22.0901 54.9961 23.4534 54.996C24.8876 54.996 26.2156 55.3069 27.4093 55.6207C27.9632 54.0482 28.7556 52.8891 29.6685 52.0408C30.7725 51.0151 31.987 50.5042 32.9982 50.2198L33.2954 50.1486C34.7863 49.8521 36.3643 50.4378 37.2664 51.7103C37.7364 52.3732 38.1364 53.0742 38.4824 53.7921H39.7788C41.0185 53.7878 42.5136 53.5754 44.2108 53.3312L45.4753 53.131C45.9437 53.0528 46.4561 52.9639 47.0022 52.8717C48.0831 52.6894 49.2803 52.4937 50.4714 52.335C51.6602 52.1766 52.8639 52.0518 53.9557 52.0181C55.01 51.9855 56.0487 52.0348 56.8911 52.2637C60.3945 53.118 63.1704 54.8227 65.1653 57.2567C67.0937 59.6098 68.2374 62.5794 68.6663 65.9721C71.8794 68.799 72.4924 73.4145 71.0286 77.1255C69.3933 81.2706 65.3866 84.2596 59.7492 84.9721L59.4551 82.6613C64.4094 82.0353 67.5938 79.4846 68.8619 76.2704C70.0692 73.2091 69.437 69.5936 66.9332 67.555L66.915 67.5399L66.8968 67.5232C66.6092 67.2687 66.4313 66.9164 66.3919 66.5422C66.034 63.3682 65.0094 60.7414 63.364 58.7335C61.723 56.7312 59.4078 55.2739 56.3407 54.526L56.321 54.5214L56.3028 54.5169L56.1012 54.4668C55.6033 54.3614 54.9042 54.32 54.0285 54.347C53.0481 54.3773 51.931 54.4892 50.7792 54.6427C49.63 54.7958 48.4655 54.9872 47.3888 55.1688C46.3229 55.3487 45.3241 55.523 44.5444 55.6358C42.898 55.8728 41.2245 56.116 39.7879 56.121H39.4073C39.5873 56.6793 39.742 57.2366 39.8744 57.7859C40.0249 58.411 39.6412 59.0407 39.0162 59.1914C38.3909 59.342 37.7612 58.957 37.6106 58.3317C37.1591 56.4575 36.4625 54.604 35.3666 53.0582C34.9906 52.5279 34.284 52.2781 33.629 52.4624C32.8516 52.681 32.0075 53.0485 31.2545 53.7481C30.5084 54.4414 29.7859 55.5216 29.3425 57.2734L29.338 57.2719C29.1987 57.8288 28.7013 58.1892 28.1659 58.1892H28.1371C28.1204 58.1888 28.0897 58.1881 28.0522 58.1846C28.0194 58.1816 27.951 58.1729 27.8627 58.1498C26.2614 57.7368 24.9433 57.3249 23.4534 57.3249C22.1321 57.3251 21.52 57.6601 19.9297 58.0254L19.913 58.0285C19.0636 58.2101 18.2661 57.6828 18.0374 56.9049L18.0359 56.8989L17.8509 56.3257C17.3952 55.054 16.7701 54.2268 16.13 53.6678C15.4822 53.1021 14.7703 52.7677 14.0907 52.5488L13.8011 52.4624C13.1512 52.2796 12.434 52.5229 12.0346 53.0613L12.0361 53.0628C9.79695 56.0983 8.9893 60.1598 8.71861 63.1033C8.71781 63.144 8.71466 63.1849 8.70951 63.2262C8.70781 63.2398 8.70391 63.2529 8.70193 63.2656C8.70144 63.2717 8.70103 63.2791 8.70042 63.2868C8.69857 63.3103 8.69629 63.3451 8.69283 63.3808C8.6839 63.4727 8.65922 63.5594 8.63067 63.6431C8.18187 65.9401 8.17731 67.5967 8.17731 70.0053C8.17735 71.7213 8.58804 73.0863 9.2872 74.184C9.98974 75.2869 11.0261 76.1852 12.3728 76.8966C15.0987 78.3365 18.9825 78.9495 23.4534 78.9496C24.8322 78.9496 25.7329 78.8916 26.9029 78.7646C27.0299 78.4636 27.1867 78.1789 27.3669 77.914C28.3681 76.4422 30.1244 75.4495 31.7109 75.0771C32.3368 74.9304 32.9633 75.3186 33.1104 75.9444C33.2573 76.5703 32.8689 77.1967 32.2431 77.3439C31.0845 77.6158 29.8928 78.3416 29.2925 79.224C29.0064 79.6448 28.8748 80.069 28.8937 80.4931C28.9127 80.9149 29.086 81.4537 29.6155 82.0958L28.5586 82.9676L28.7178 82.8372L29.617 82.0973C30.2277 82.8384 31.1278 83.1282 32.3098 83.0055C33.5167 82.8801 34.8845 82.3246 36.1171 81.5454C38.2751 80.1795 41.0557 78.8799 43.9394 79.2225C44.4598 79.2844 44.9976 79.3405 45.5633 79.4014C44.7305 78.3015 44.0628 76.9866 43.6832 75.4228L43.5876 74.9892C43.0792 72.4844 44.6976 70.0452 47.2008 69.5368L47.2023 69.5352ZM7.46468 75.6487C6.51399 76.0355 5.51513 76.7115 4.88707 77.5213C4.49532 78.0265 4.29417 78.5201 4.27147 78.9754C4.25009 79.4061 4.38004 79.925 4.87645 80.528C5.20164 80.9224 5.70997 81.179 6.44576 81.2588C7.19268 81.3398 8.09873 81.2265 9.05673 80.948C10.2643 80.5969 11.41 80.0248 12.2803 79.4287C11.9387 79.2804 11.606 79.1249 11.2856 78.9556C9.73488 78.1365 8.41713 77.0535 7.46468 75.6487ZM68.7072 66.292L68.7087 66.2996C68.7084 66.2965 68.7061 66.2936 68.7057 66.2905L68.7072 66.292ZM6.40937 62.8653C6.40839 62.87 6.40777 62.8772 6.40634 62.885C6.40825 62.8738 6.41019 62.8627 6.41241 62.8516C6.41152 62.8556 6.41044 62.8601 6.40937 62.8653ZM28.175 56.9777L27.0864 56.7018L28.1644 56.9762L28.175 56.9777L28.2129 56.9883L28.2372 56.9929L28.175 56.9777Z" fill="#1A1A1A"/>
<path d="M12.8788 54.7997C13.1552 54.4241 13.6464 54.2564 14.0966 54.3837C14.6479 54.5392 15.8428 55.6155 16.5244 56.7782C16.8007 57.2487 16.4745 57.7873 15.9482 57.9286C14.7528 58.2484 13.7948 58.6988 12.6972 59.4999C12.0126 59.9981 11.12 59.5078 11.3369 58.6884C11.7172 57.2444 12.2826 55.6071 12.8788 54.7997ZM34.0351 54.3837C34.4853 54.2564 34.9765 54.424 35.2529 54.7997C35.8491 55.6071 36.4135 57.2444 36.7939 58.6884C37.0109 59.5079 36.1191 59.998 35.4345 59.4999C34.3368 58.6987 33.3781 58.2484 32.1826 57.9286C31.6565 57.7871 31.3311 57.2485 31.6074 56.7782C32.2889 55.6154 33.4839 54.539 34.0351 54.3837Z" fill="#FF99E0"/>
<path d="M23.2292 73.75C23.658 73.75 24.0056 74.0976 24.0056 74.5263C24.0056 74.9551 23.658 75.3026 23.2292 75.3026H21.7373C21.3085 75.3026 20.9609 74.9551 20.9609 74.5263C20.9609 74.0976 21.3085 73.75 21.7373 73.75H23.2292Z" fill="#1A1A1A"/>
<path d="M28.9248 68.5096C29.751 68.5096 30.4206 69.2042 30.4209 70.0614C30.4209 70.9187 29.7511 71.6141 28.9248 71.6141C28.0986 71.6139 27.4287 70.9186 27.4287 70.0614C27.4289 69.2043 28.0987 68.5098 28.9248 68.5096ZM30.4628 64.3504C31.0742 64.0141 31.8088 64.131 32.1035 64.6112C32.3979 65.0912 32.1421 65.7524 31.5312 66.0887L31.5283 66.0907C31.5272 66.0913 31.5261 66.0926 31.5244 66.0936C31.5197 66.0962 31.511 66.0993 31.5019 66.1043C31.4837 66.1143 31.4569 66.1295 31.4228 66.1483C31.3538 66.1862 31.254 66.241 31.1308 66.3084C30.884 66.4436 30.5421 66.6302 30.164 66.8358C29.4118 67.2448 28.4989 67.7374 27.8994 68.0477L27.7822 68.1014C27.1902 68.3491 26.5365 68.1999 26.2783 67.7401C26.0033 67.2497 26.2822 66.5913 26.9023 66.2703L27.9365 65.7244C28.323 65.5171 28.7334 65.2946 29.1103 65.0897C29.4848 64.886 29.8235 64.7013 30.0683 64.5672L30.4365 64.3641C30.4452 64.3593 30.4525 64.3558 30.457 64.3533C30.4588 64.3523 30.4599 64.351 30.4609 64.3504H30.4628Z" fill="#1A1A1A"/>
<path d="M16.5277 68.5091C15.7014 68.5092 15.0316 69.2045 15.0316 70.0618C15.0316 70.9191 15.7014 71.6135 16.5277 71.6136C17.354 71.6136 18.0237 70.9191 18.0238 70.0618C18.0238 69.2045 17.354 68.5091 16.5277 68.5091ZM14.9906 64.3499C14.3792 64.0137 13.6437 64.1305 13.349 64.6107C13.0544 65.0907 13.3104 65.7528 13.9212 66.0892L13.9242 66.0902C13.9253 66.0908 13.9272 66.092 13.9291 66.0931C13.9337 66.0957 13.9416 66.0999 13.9505 66.1048C13.9687 66.1148 13.9957 66.1291 14.0296 66.1478C14.0987 66.1857 14.1984 66.2414 14.3216 66.3089C14.5685 66.4441 14.9112 66.6306 15.2894 66.8362C16.0416 67.2452 16.9546 67.737 17.5541 68.0472L17.6703 68.1019C18.2621 68.3496 18.9159 68.2002 19.1742 67.7405C19.4496 67.2501 19.1705 66.5919 18.5501 66.2708L17.516 65.7249C17.1295 65.5176 16.7199 65.295 16.3431 65.0902C15.9684 64.8864 15.629 64.7018 15.3841 64.5677L15.0169 64.3646C15.0084 64.3599 15.001 64.3563 14.9964 64.3538C14.9945 64.3528 14.9926 64.3515 14.9916 64.3509L14.9906 64.3499Z" fill="#1A1A1A"/>
</svg>
