<svg width="75" height="86" viewBox="0 0 75 86" fill="none" xmlns="http://www.w3.org/2000/svg">
<path d="M47.4345 49.9497C54.7459 49.9497 60.9192 54.8094 62.8972 61.4857C64.2822 62.2931 65.2106 63.7837 65.2106 65.476C65.2106 66.6716 64.7464 67.7584 63.9902 68.5813C64.7464 69.4042 65.2106 70.491 65.2106 71.6866C65.2106 73.0994 64.5632 74.3726 63.5447 75.2265C63.6332 75.5836 63.6844 75.9563 63.6844 76.3444C63.6844 78.9218 61.6349 81.0023 59.1072 81.0023C58.2688 81.0023 57.4863 80.7694 56.8109 80.3657C55.9632 81.9183 54.4944 82.9431 52.8206 82.9431C52.4216 82.9431 52.035 82.881 51.6655 82.7723C50.7991 83.8281 49.588 84.4958 48.2435 84.4958C47.0805 84.4958 46.0155 83.9989 45.1895 83.176C44.3635 83.9989 43.2999 84.4958 42.1385 84.4958C40.9756 84.4958 39.9121 83.9989 39.0845 83.176C38.2585 83.9989 37.1965 84.4958 36.0336 84.4958C34.4701 84.4958 33.0851 83.5952 32.2172 82.2133C31.3508 83.5952 29.9674 84.4958 28.4024 84.4958C27.241 84.4958 26.1775 83.9989 25.3515 83.176C24.5239 83.9989 23.4604 84.4958 22.299 84.4958C20.6874 84.4958 19.2652 83.5486 18.405 82.0891C18.2528 82.0736 18.0991 82.0581 17.9485 82.0426C17.1396 83.0673 15.9876 83.7194 14.7035 83.7194C13.4102 83.7194 12.2488 83.0673 11.4399 82.0115C10.8716 82.3531 10.2133 82.555 9.50685 82.555C7.39992 82.555 5.69203 80.816 5.69203 78.6734C5.69203 77.6797 6.05845 76.7791 6.65622 76.096C5.20451 75.5526 4.16735 74.1242 4.16735 72.4629C4.16735 71.966 4.25897 71.5002 4.42355 71.0655C3.39726 70.7394 2.64111 69.637 2.64111 68.3173C2.64111 68.1154 2.65975 67.9137 2.69546 67.7118C2.66286 67.4944 2.64111 67.2616 2.64111 67.0287C2.64111 65.5381 3.32895 64.2183 4.39716 63.3644C5.6905 55.741 12.3156 49.9497 20.2977 49.9497H47.4345Z" fill="white"/>
<path d="M18.3877 80.2563C19.0208 80.3243 19.5969 80.6412 19.9858 81.1357L20.1404 81.3586L20.3482 81.6618C20.8558 82.3187 21.5015 82.6155 22.0979 82.6155V84.9445C20.471 84.9444 19.0329 84.0133 18.1557 82.5852C17.985 82.5542 17.8169 82.5374 17.6493 82.5064L17.954 80.2093C18.1621 80.2248 18.2666 80.2407 18.3877 80.2563Z" fill="#1A1A1A"/>
<path d="M25.1971 83.6284C24.3577 84.4488 23.2775 84.9445 22.0979 84.9445V82.6155C22.6025 82.6155 23.1198 82.3982 23.5778 81.9636L25.1971 83.6284Z" fill="#1A1A1A"/>
<path d="M26.8256 81.9636C27.2835 82.3982 27.8008 82.6155 28.3084 82.6155V84.9445C27.127 84.9444 26.0442 84.4493 25.2047 83.6284L26.8256 81.9636Z" fill="#1A1A1A"/>
<path d="M32.19 80.3488C32.9819 80.3488 33.7205 80.7531 34.149 81.4207C34.6768 82.2434 35.4041 82.6155 36.0716 82.6155V84.9445C34.4834 84.9444 33.0719 84.044 32.19 82.6777C31.3066 84.0439 29.8967 84.9445 28.3084 84.9445V82.6155C28.976 82.6155 29.7016 82.2433 30.231 81.4207L30.4054 81.1827C30.8444 80.658 31.4957 80.3488 32.19 80.3488Z" fill="#1A1A1A"/>
<path d="M39.1708 83.6284C38.3314 84.4488 37.2511 84.9445 36.0716 84.9445V82.6155C36.5762 82.6155 37.0935 82.3982 37.5515 81.9636L39.1708 83.6284Z" fill="#1A1A1A"/>
<path d="M40.7992 81.9636C41.2572 82.3982 41.7745 82.6155 42.2821 82.6155V84.9445C41.1006 84.9444 40.0178 84.4493 39.1784 83.6284L40.7992 81.9636Z" fill="#1A1A1A"/>
<path d="M45.3813 83.6284C44.542 84.4488 43.4617 84.9445 42.2821 84.9445V82.6155C42.7867 82.6155 43.304 82.3982 43.762 81.9636L45.3813 83.6284Z" fill="#1A1A1A"/>
<path d="M47.0098 81.9636C47.4677 82.3982 47.985 82.6155 48.4927 82.6155V84.9445C47.3112 84.9444 46.2284 84.4493 45.3889 83.6284L47.0098 81.9636Z" fill="#1A1A1A"/>
<path d="M50.1817 81.7301C50.7749 81.0159 51.7333 80.7216 52.6229 80.9856C52.7967 81.0321 52.9721 81.0629 53.1505 81.0629V83.3919C52.7454 83.3918 52.3512 83.3292 51.9739 83.2205C51.0936 84.2763 49.8605 84.9445 48.4927 84.9445V82.6155C49.0702 82.6155 49.6787 82.3356 50.1817 81.7301Z" fill="#1A1A1A"/>
<path d="M9.86639 80.4579C10.8065 79.9049 11.9964 80.0743 12.7351 80.8522L12.8776 81.0159L13.0505 81.2161C13.4649 81.6488 13.9347 81.8392 14.3696 81.8392V84.1682L14.124 84.1606C12.9079 84.085 11.8219 83.4506 11.0491 82.4609C10.4716 82.8022 9.80258 83.0037 9.08401 83.0037V80.6748C9.36335 80.6748 9.62738 80.5975 9.86639 80.4579Z" fill="#1A1A1A"/>
<path d="M17.6447 82.5109C16.8222 83.5326 15.6622 84.168 14.3696 84.1682V81.8392C14.8584 81.8391 15.3888 81.6061 15.8389 81.0478L17.6447 82.5109Z" fill="#1A1A1A"/>
<path d="M23.5778 81.9636C24.4814 81.0786 25.9219 81.0787 26.8256 81.9636L25.2017 83.6254L23.5778 81.9636Z" fill="#1A1A1A"/>
<path d="M37.5515 81.9636C38.455 81.0786 39.8956 81.0787 40.7992 81.9636L39.1753 83.6254L37.5515 81.9636Z" fill="#1A1A1A"/>
<path d="M43.762 81.9636C44.6656 81.0786 46.1061 81.0787 47.0098 81.9636L45.3859 83.6254L43.762 81.9636Z" fill="#1A1A1A"/>
<path d="M57.208 80.8203C56.3442 82.3694 54.8499 83.3919 53.1505 83.3919V81.0629C53.8601 81.0629 54.6513 80.6286 55.1808 79.6816L57.208 80.8203Z" fill="#1A1A1A"/>
<path d="M3.87875 63.8126L5.3207 65.6458C4.76955 66.0805 4.42612 66.7321 4.42612 67.4774C4.42612 67.547 4.42795 67.6089 4.43218 67.6669L4.45038 67.8352L4.4716 68.0232C4.48492 68.2138 4.47465 68.4086 4.43976 68.5949L2.16995 68.1794L2.1472 68.184L4.43976 68.5949C4.432 68.6414 4.42612 68.7041 4.42612 68.7662C4.42615 68.9679 4.48692 69.1234 4.5459 69.2165C4.5771 69.2621 4.60188 69.2854 4.61413 69.2954L4.60503 69.2938C5.21973 69.4802 5.72658 69.9309 6.00756 70.5053C6.28692 71.0796 6.31597 71.7467 6.08488 72.3521C6.01502 72.5384 5.97875 72.7253 5.97875 72.9116C5.97875 73.482 6.29565 73.9937 6.77629 74.2686L6.99311 74.3717L7.25391 74.4855C7.84415 74.7883 8.27956 75.3342 8.44264 75.9865C8.62866 76.7316 8.43471 77.5229 7.92409 78.0971L6.18496 76.546L6.18344 76.5521L7.92409 78.0971C7.67566 78.3766 7.53138 78.734 7.53138 79.1221C7.53138 79.9761 8.22696 80.6748 9.08401 80.6748V83.0037C6.93983 83.0037 5.20243 81.2648 5.20243 79.1221C5.20243 78.1284 5.57481 77.2277 6.18344 76.5445C4.70548 76.001 3.6498 74.5728 3.6498 72.9116C3.6498 72.4148 3.74291 71.9484 3.91059 71.5136C2.93242 71.2078 2.19454 70.2202 2.10627 69.0103L2.09717 68.7662C2.09717 68.5645 2.1146 68.3781 2.14872 68.1764C2.11456 67.959 2.09717 67.7103 2.09717 67.4774C2.09717 65.987 2.79518 64.6666 3.87875 63.8126Z" fill="#1A1A1A"/>
<path d="M17.954 80.2093L17.6493 82.5064L15.8389 81.0478C16.3497 80.4112 17.1498 80.1006 17.954 80.2093Z" fill="#1A1A1A"/>
<path d="M58.3816 78.8113C58.7309 79.0131 59.1253 79.1221 59.5445 79.1221V81.4511C58.6949 81.4511 57.9012 81.2184 57.2156 80.8158L58.3816 78.8113Z" fill="#1A1A1A"/>
<path d="M61.8735 76.7932C61.8735 76.7076 61.8676 76.6182 61.8553 76.5248L61.7992 76.2337L61.7643 76.0699C61.6226 75.251 61.9296 74.4128 62.5785 73.8744L64.0584 75.6742L64.0599 75.6757C64.1499 76.0327 64.2024 76.4052 64.2024 76.7932C64.2024 79.3705 62.1172 81.4511 59.5445 81.4511V79.1221C60.8301 79.1221 61.8735 78.0819 61.8735 76.7932Z" fill="#1A1A1A"/>
<path d="M56.5954 78.5793C57.1978 78.4085 57.8413 78.4853 58.3816 78.8113L57.2126 80.8143L55.1808 79.6816C55.485 79.1384 55.9949 78.7347 56.5954 78.5793Z" fill="#1A1A1A"/>
<path d="M63.4261 72.1353C63.4261 71.5763 63.208 71.0477 62.812 70.613C61.9783 69.728 61.9783 68.3321 62.812 67.4471C63.208 67.0123 63.4261 66.4837 63.4261 65.9248C63.4261 65.2317 63.0907 64.5743 62.5073 64.1295L62.2434 63.9536L62.057 63.8339C61.6388 63.5363 61.3288 63.1051 61.1821 62.6027L63.4094 61.9522L63.4125 61.9446C63.413 61.9465 63.4149 61.9488 63.4155 61.9507C64.8157 62.7581 65.7551 64.2326 65.7551 65.9248C65.7551 67.1202 65.2833 68.2071 64.5148 69.03C65.2833 69.8529 65.7551 70.9398 65.7551 72.1353C65.7551 73.5464 65.0962 74.8172 64.0629 75.6712L62.5785 73.8744C63.1189 73.4241 63.4261 72.8029 63.4261 72.1353Z" fill="#1A1A1A"/>
<path d="M48.6337 50.4121C55.6458 50.7043 61.4966 55.4783 63.4125 61.9416L61.1821 62.6027C59.4897 56.8891 54.2052 52.7275 47.9514 52.7274H19.7796C12.9515 52.7276 7.27993 57.6956 6.17586 64.2008C6.0796 64.7753 5.77407 65.2887 5.3207 65.6458L3.87875 63.8126C5.1692 56.2052 11.7964 50.3987 19.7796 50.3984H47.9514L48.6337 50.4121Z" fill="#1A1A1A"/>
<path d="M27.4311 38.3356C33.3885 36.2293 39.0927 36.4017 42.2368 38.444C48.584 37.7652 53.9391 39.5994 55.3354 42.8727C56.0592 43.3085 56.7951 43.7996 57.5298 44.3463C62.7418 48.2248 64.296 56.1588 63.0678 58.6119C62.7402 59.2639 62.1234 59.4657 61.2944 59.357C59.7355 61.5927 56.5571 62.7259 51.5532 62.2291C50.8665 62.1606 50.1992 62.0574 49.5542 61.9274C47.2931 62.4868 44.5095 62.4116 41.5884 61.6481C38.2845 63.2246 33.4913 63.5636 28.4741 62.276C28.4114 62.2598 28.349 62.2418 28.2866 62.2252C26.2842 62.9041 23.9431 63.2126 21.4477 63.0367C20.8899 62.9973 20.341 62.9329 19.8022 62.8492C18.4479 63.3744 16.9225 63.7846 15.2846 64.0309C8.88493 64.9935 3.20165 63.1457 2.59421 59.8854C2.57713 59.7922 2.56642 59.7139 2.5571 59.6207C0.781201 56.6085 2.74252 51.0034 7.18601 46.7369C9.66245 44.3542 12.4132 42.861 14.7964 42.4078C15.3059 42.0042 15.8389 41.6164 16.394 41.2486C20.3684 38.6161 24.4921 37.6404 27.4311 38.3356Z" fill="#FFC7C2"/>
<path fill-rule="evenodd" clip-rule="evenodd" d="M27.4312 38.3351C33.3861 36.2299 39.0867 36.4038 42.2312 38.4442C49.3335 37.6835 55.1978 40.0694 55.6621 44.0968C55.8992 46.1661 54.6656 48.2867 52.4643 50.0875C54.63 52.8199 55.4782 55.8017 54.4552 58.2236C52.9 61.9146 47.5253 63.1991 41.5883 61.6473C41.6199 61.6322 41.651 61.6156 41.6823 61.6003C38.5472 63.1326 34.036 63.5355 29.2583 62.4645L28.4728 62.275C28.411 62.2591 28.3494 62.2413 28.2879 62.225C28.3307 62.2104 28.3727 62.1928 28.4152 62.178C26.5654 62.8249 24.4193 63.1553 22.1243 63.0725L21.4481 63.0362C20.8919 62.9968 20.3448 62.93 19.8075 62.8466C18.4518 63.3728 16.9247 63.7842 15.2846 64.0308L14.6872 64.1127C8.73347 64.8519 3.52964 63.1595 2.66641 60.1871L2.59515 59.8854C2.57811 59.7924 2.56655 59.7145 2.55724 59.6216C0.836585 56.7035 2.6235 51.352 6.77694 47.1414L7.18633 46.7381C9.74457 44.2766 12.5954 42.7669 15.0314 42.3698C14.9533 42.3825 14.8738 42.3927 14.7948 42.4077C15.3043 42.004 15.8379 41.6156 16.3929 41.2478C20.3805 38.6066 24.519 37.6338 27.46 38.3426C27.4505 38.3404 27.4407 38.3373 27.4312 38.3351ZM18.0199 45.237C17.6612 44.7899 16.7786 44.3279 14.9328 44.7594C13.1381 45.1802 10.9109 46.3861 8.80113 48.412C6.80755 50.3373 5.42242 52.5108 4.73305 54.436C4.06071 56.3281 4.1623 57.6202 4.495 58.3115L4.56475 58.4419L4.82402 58.8756L4.87558 59.3881C4.87973 59.4295 4.88316 59.4502 4.88316 59.4502C4.94881 59.8077 5.46349 60.6616 7.48958 61.3289C9.37893 61.9497 12.0253 62.1682 14.9358 61.7337C17.8498 61.2834 20.2523 60.3042 21.7862 59.1864C23.4246 57.9762 23.5431 57.0909 23.4874 56.7953C23.4454 56.5779 23.2466 56.1438 22.464 55.6475C21.6817 55.1508 20.4919 54.716 18.9539 54.483L15.7137 53.9857L17.2436 51.0973C17.998 49.6691 18.3864 48.3488 18.4641 47.29C18.5416 46.2276 18.3021 45.5911 18.0199 45.237ZM25.3388 40.4457C23.4342 40.474 20.9919 41.1804 18.455 42.7034C18.4323 42.6928 18.4083 42.6847 18.3853 42.6745C18.9516 42.925 19.4437 43.2895 19.8363 43.7784C21.3512 45.6696 21.0336 48.9087 19.3041 52.1844C22.8174 52.7124 25.3811 54.2498 25.777 56.3768C26.0569 57.8826 25.2032 59.4221 23.5754 60.7406C25.9825 60.6301 28.0667 60.0142 29.5994 59.0924C31.5347 57.9127 32.4097 56.4376 32.4348 54.994C32.4623 53.364 31.4042 51.4691 29.0263 49.8858L27.3114 48.7516L28.2302 46.9049C29.3354 44.688 29.3601 43.0113 28.8944 42.0317C28.478 41.1596 27.44 40.4147 25.3388 40.4457ZM38.1086 39.3661C35.9698 38.9873 33.2242 39.1191 30.2408 39.9059C30.5408 40.2362 30.7965 40.6103 30.9974 41.0325C31.8993 42.9327 31.574 45.4192 30.3151 47.9435C33.0791 49.7766 34.8047 52.3223 34.7607 55.0228L34.7622 55.0243C34.7251 57.21 33.5346 59.1285 31.5902 60.5465C31.597 60.5415 31.6047 60.5378 31.6115 60.5328C34.4849 60.9367 37.1105 60.7363 39.1745 60.0871C41.8804 59.2488 43.245 57.8198 43.5852 56.345C43.9623 54.7148 43.1895 52.4788 40.6558 50.1966L38.9516 48.6743L40.4436 46.9458C42.2552 44.847 42.6204 43.1291 42.304 42.0438C41.9963 40.9882 40.814 39.8442 38.1086 39.3661ZM44.2463 40.6413C44.3634 40.8821 44.4624 41.1327 44.5389 41.3948C45.1769 43.584 44.2423 46.1097 42.207 48.4727C45.0435 51.0033 46.5054 54.0625 45.8535 56.8726L45.7231 57.3472C45.4148 58.3092 44.8651 59.1639 44.122 59.9036C44.154 59.8718 44.1878 59.8419 44.219 59.8096C45.5546 59.9996 46.8039 60.0146 47.908 59.8702C50.4461 59.5441 51.8175 58.4873 52.3097 57.323C52.8606 56.0188 52.5588 53.9538 50.6449 51.5476L49.215 49.7463L50.989 48.2862C52.923 46.7045 53.455 45.2814 53.3498 44.3576C53.2472 43.4712 52.4424 42.3 50.1036 41.454C48.5404 40.8884 46.5252 40.5782 44.2463 40.6413Z" fill="#FFAFA3"/>
<path d="M57.2548 47.8566C58.2889 46.2636 67.8221 49.9015 71.5034 52.7273C77.1301 57.0436 73.5683 61.5462 68.6542 59.4501C68.5782 59.4191 68.4959 59.3725 68.4059 59.326C68.4229 59.3725 68.44 59.4191 68.454 59.4501C70.182 64.667 65.4325 68.7194 61.2078 62.8815C58.6879 59.4036 56.0919 50.6622 57.1834 48.1935C57.1741 48.0631 57.1958 47.9482 57.2548 47.8566Z" fill="#FFAFA3"/>
<path d="M27.4313 38.3362C33.1997 36.2965 38.7306 36.3967 41.9303 38.26L42.2321 38.4465C48.366 37.7884 53.5747 39.4775 55.1803 42.5451C56.0839 43.0559 57.0105 43.6581 57.9342 44.3459C59.2623 45.3343 60.3509 46.5873 61.2184 47.9446C64.5896 48.8657 69.1951 50.9558 71.5026 52.7268C77.1293 57.0431 73.568 61.5455 68.654 59.4494C68.578 59.4184 68.4948 59.3719 68.4049 59.3254C68.4219 59.3717 68.4398 59.4184 68.4538 59.4494C70.1818 64.6663 65.4324 68.719 61.2077 62.8811C60.8158 62.3402 60.422 61.6722 60.0407 60.9201C60.0429 60.9246 60.0453 60.9293 60.0475 60.9338C58.4138 61.9905 56.0431 62.5006 52.8747 62.3049L51.9567 62.2307C51.1914 62.1531 50.4495 62.0431 49.737 61.8879C47.4439 62.4933 44.5866 62.4317 41.5856 61.6555C38.2816 63.2235 33.4882 63.5642 28.4733 62.2756C28.4146 62.2601 28.3549 62.2461 28.2946 62.2307C26.541 62.8282 24.5276 63.1402 22.3776 63.0842L21.4489 63.0373C20.887 63.0063 20.3334 62.9284 19.7917 62.8508C18.4393 63.3787 16.9166 63.7821 15.2848 64.0305C8.88399 64.9928 3.2 63.145 2.59244 59.885C2.577 59.7923 2.56698 59.714 2.55924 59.6213C0.781613 56.6093 2.74185 51.0041 7.18521 46.7375C9.66158 44.3559 12.4119 42.8634 14.7936 42.4084C15.3042 42.005 15.8377 41.6176 16.3932 41.2483C20.3677 38.6167 24.4922 37.6408 27.4313 38.3362ZM59.2565 49.885C59.2583 50.1451 59.2768 50.4505 59.3141 50.803C59.426 51.843 59.6931 53.1472 60.0827 54.5285C60.8791 57.3383 62.0657 60.0863 63.0934 61.5149C63.969 62.7258 64.7104 63.1916 65.1452 63.3469C65.525 63.4864 65.7154 63.4088 65.8288 63.3313C66.1316 63.1458 66.8788 62.1463 66.2506 60.2082C66.2457 60.1937 66.2378 60.1775 66.2292 60.1487L64.0426 54.4035L69.4889 57.26C69.5138 57.2755 69.533 57.2922 69.5485 57.2922C69.5596 57.3046 69.5673 57.3076 69.568 57.3078C70.4341 57.6803 71.093 57.6958 71.4889 57.6028C71.8812 57.5255 71.9915 57.3713 72.0094 57.3391C72.0149 57.3225 72.1169 57.1662 71.9469 56.718C71.7637 56.2522 71.2619 55.4759 70.0866 54.5754C68.5154 53.38 65.4639 51.8579 62.6012 50.8332C61.2859 50.3578 60.1209 50.0291 59.2565 49.885ZM59.07 58.7649C57.4841 54.8247 56.4115 49.9401 57.1833 48.1936C57.174 48.0633 57.1956 47.9482 57.2546 47.8567C57.3773 47.6675 57.6202 47.552 57.9587 47.5002C57.5246 47.0272 57.0534 46.5934 56.5436 46.2141C55.6945 45.5823 54.8493 45.0351 54.0329 44.5725L53.4352 44.2326L53.1169 43.6242C52.7084 42.8434 51.6535 41.9407 49.696 41.3166C47.788 40.7082 45.2852 40.4624 42.4801 40.7619L41.6569 40.8498L40.9626 40.3996C39.8757 39.6949 38.1395 39.1963 35.8512 39.1653C33.5938 39.1343 30.954 39.5596 28.2077 40.5315L27.5622 40.76L26.8952 40.6008C24.8084 40.1071 21.3461 40.7608 17.6803 43.1906C17.1775 43.5228 16.6962 43.872 16.2399 44.2336L15.7917 44.5901L15.2301 44.6985C13.395 45.0479 11.036 46.2644 8.80045 48.4113C6.80704 50.3365 5.42143 52.5106 4.73209 54.4358C4.06134 56.3276 4.16328 57.6194 4.49576 58.3108L4.5651 58.4416L4.82486 58.8762L4.87564 59.3889L4.88346 59.4514L4.93033 59.6057C5.09968 60.0174 5.7141 60.745 7.4899 61.3293C9.3794 61.9503 12.0252 62.1673 14.9362 61.7326C16.4079 61.4998 17.7637 61.1437 18.9499 60.678L19.5338 60.4592L20.151 60.553C20.6426 60.6305 21.1281 60.6918 21.612 60.7229C23.8227 60.8781 25.8543 60.599 27.5465 60.0246L28.2106 59.7922L28.8922 59.9787C28.9462 59.9942 28.9995 60.009 29.0212 60.009C29.0433 60.02 29.0544 60.0246 29.0544 60.0246C33.6837 61.2044 37.891 60.8315 40.5817 59.5432L41.3493 59.1877L42.1745 59.3889C44.8819 60.1029 47.3198 60.1171 49.1393 59.636L49.6794 59.4963L50.2243 59.6057C50.8576 59.7454 51.5139 59.8541 52.1891 59.9162C55.8781 60.2832 57.9471 59.6436 59.07 58.7649Z" fill="#1A1A1A"/>
<path d="M29.6191 75.6721H22.6191L26.1191 70.4221L29.6191 75.6721Z" fill="#FFAFA3"/>
<path d="M29.6198 76.8367C30.0491 76.8365 30.4437 76.5996 30.6463 76.2211C30.8486 75.8426 30.8266 75.3834 30.5887 75.0263L27.0877 69.7755C26.8717 69.452 26.5078 69.257 26.1188 69.257C25.7298 69.2571 25.3658 69.4519 25.1499 69.7755L21.6504 75.0263C21.4123 75.3835 21.3904 75.8425 21.5928 76.2211C21.7955 76.5997 22.1899 76.8367 22.6193 76.8367H29.6198ZM26.1188 72.523L27.444 74.5077H24.7951L26.1188 72.523Z" fill="#1A1A1A"/>
<path d="M30.2824 71.3787C30.5151 70.9587 31.0741 70.7907 31.5305 71.0046C31.5315 71.0051 31.5336 71.0063 31.5363 71.0076C31.5422 71.0103 31.552 71.0155 31.5647 71.0212C31.5904 71.0329 31.6305 71.0488 31.6799 71.0701C31.7796 71.113 31.9194 71.1722 32.0793 71.2322C32.4218 71.3607 32.7736 71.4662 33.011 71.4919C33.238 71.5164 33.5918 71.4932 33.9436 71.448C34.1079 71.4269 34.2536 71.4036 34.3576 71.3855C34.4094 71.3765 34.4517 71.3692 34.4787 71.364C34.4914 71.3616 34.5009 71.3584 34.507 71.3572C34.5098 71.3567 34.5127 71.3564 34.5139 71.3562C35.014 71.2544 35.5104 71.5454 35.6213 72.0056C35.7316 72.4659 35.4143 72.9213 34.9143 73.0232L34.9094 73.0251C34.9064 73.0257 34.9014 73.0271 34.8967 73.0281L34.7024 73.0632C34.5767 73.0851 34.4014 73.1137 34.2014 73.1394C33.8234 73.188 33.2706 73.2397 32.7942 73.1882C32.2939 73.1341 31.7483 72.9508 31.3791 72.8123C31.1839 72.739 31.0137 72.6701 30.8928 72.6179C30.8326 72.592 30.783 72.5701 30.7483 72.5544C30.7309 72.5466 30.7152 72.5395 30.7053 72.5349C30.7007 72.5328 30.6964 72.5313 30.6936 72.53L30.6887 72.5271L30.5305 72.4333C30.1931 72.1861 30.0797 71.7463 30.2824 71.3787ZM33.3879 67.4773C34.4126 67.4773 35.2434 68.2421 35.2434 69.1853C35.2433 70.1284 34.4125 70.8933 33.3879 70.8933C32.3633 70.8933 31.5325 70.1285 31.5324 69.1853C31.5324 68.2421 32.3632 67.4773 33.3879 67.4773Z" fill="#1A1A1A"/>
<path d="M20.9671 71.3787C20.7345 70.9586 20.1755 70.7908 19.7191 71.0046C19.7181 71.0051 19.716 71.0063 19.7132 71.0076C19.7074 71.0103 19.6977 71.0155 19.6849 71.0212C19.6591 71.0329 19.6192 71.0487 19.5697 71.0701C19.47 71.113 19.3302 71.1721 19.1702 71.2322C18.8278 71.3607 18.4759 71.4662 18.2386 71.4919C18.0116 71.5164 17.6578 71.4932 17.306 71.448C17.1417 71.4269 16.9959 71.4036 16.8919 71.3855C16.8401 71.3765 16.7979 71.3692 16.7708 71.364C16.7581 71.3616 16.7486 71.3584 16.7425 71.3572C16.7394 71.3566 16.7358 71.3564 16.7347 71.3562C16.2348 71.2547 15.7391 71.5455 15.6282 72.0056C15.518 72.4658 15.8345 72.9212 16.3343 73.0232L16.3402 73.0251C16.3431 73.0257 16.3474 73.0272 16.3519 73.0281L16.5472 73.0632C16.6729 73.0851 16.8481 73.1137 17.0482 73.1394C17.4262 73.188 17.9789 73.2397 18.4554 73.1882C18.9557 73.1341 19.5013 72.9508 19.8704 72.8123C20.0656 72.739 20.2358 72.67 20.3568 72.6179C20.4169 72.592 20.4666 72.5701 20.5013 72.5544C20.5185 72.5467 20.5334 72.5395 20.5433 72.5349C20.5479 72.5328 20.5521 72.5314 20.555 72.53L20.5609 72.5271L20.7191 72.4333C21.0563 72.1861 21.1698 71.7463 20.9671 71.3787ZM17.8616 67.4773C16.8369 67.4773 16.0062 68.2421 16.0062 69.1853C16.0062 70.1285 16.837 70.8933 17.8616 70.8933C18.8862 70.8932 19.717 70.1284 19.7171 69.1853C19.7171 68.2421 18.8863 67.4774 17.8616 67.4773Z" fill="#1A1A1A"/>
</svg>
