<svg width="75" height="86" viewBox="0 0 75 86" fill="none" xmlns="http://www.w3.org/2000/svg">
<path d="M33.9921 33.3818C26.2758 33.3818 20.0088 39.1576 19.8607 46.3152C18.7394 45.9891 17.5443 45.8029 16.3036 45.8029C9.8724 45.8029 4.65887 50.6626 4.65887 56.6713C4.65887 58.8916 5.37716 60.9566 6.60573 62.68C2.67731 64.6363 0.000976562 68.5179 0.000976562 72.9739C0.000976562 79.4018 5.56207 84.6187 12.422 84.6187C12.79 84.6187 13.1539 84.6031 13.5137 84.5721C13.6831 84.6031 13.8562 84.6187 14.0338 84.6187H62.922C62.9713 84.6187 63.0204 84.6187 63.069 84.6187C68.5566 84.5255 72.9746 80.3955 72.9746 75.3029C72.9746 70.8003 69.5081 67.0429 64.9022 66.1734C66.0867 64.0463 66.7641 61.6087 66.7641 59.0003C66.7641 50.8489 60.1603 44.2503 52.0141 44.2503C50.6237 44.2503 49.279 44.4521 48.0037 44.8092C47.075 38.3502 41.1567 33.3818 33.9921 33.3818Z" fill="#FFE2E0"/>
<path d="M59.7453 64.7761C63.3266 49.3585 53.6877 46.5327 46.833 45.5545L48.9087 45.0267L54.2842 44.3589C54.8311 44.2813 55.3861 44.359 55.8926 44.5763L60.0038 46.3464C60.3668 46.5016 60.6969 46.7191 60.9762 46.9985L64.855 50.8801C65.091 51.113 65.2874 51.3925 65.4366 51.6875L65.8633 52.5413C65.9461 52.7121 66.0138 52.883 66.0658 53.0538L66.8905 55.864C67.0441 56.3919 67.0568 56.9509 66.9273 57.4788L65.9877 61.3293L65.6405 63.0682C65.3831 64.3569 65.9625 65.6611 67.0879 66.3443L68.6417 67.2758C68.9405 67.4466 69.2067 67.6796 69.4297 67.9435L72.1116 71.1574C72.662 71.825 72.914 72.679 72.8073 73.533L72.3142 77.4767C72.2386 78.0822 71.9861 78.6566 71.5885 79.1224L69.5126 81.529C68.9228 82.2277 68.0625 82.6158 67.1571 82.6158H61.1563C70.0085 76.2966 65.5857 71.2971 61.5428 68.8284C60.1673 67.99 59.3806 66.3442 59.7453 64.7761Z" fill="#FFC7C2"/>
<path d="M2.32895 72.9738C2.32895 77.9733 6.70365 82.2896 12.4211 82.2896V84.6186L11.7812 84.6034C5.21892 84.291 0 79.2006 0 72.9738C0 68.5178 2.67671 64.6364 6.60475 62.6801C5.45303 61.0642 4.75033 59.1479 4.66699 57.0851L4.6579 56.6712C4.6579 50.6625 9.8718 45.8028 16.3026 45.8028C16.9463 45.8028 17.5783 45.8491 18.1934 45.9423C18.1929 45.8958 18.1888 45.8493 18.1888 45.8028C18.1888 38.0862 24.8917 31.8291 33.1602 31.8291L33.8516 31.8443C40.9493 32.1458 46.7565 37.0663 47.9178 43.4435C49.428 42.9622 51.0385 42.6975 52.7106 42.6975L53.5142 42.7172C61.7596 43.1355 68.3156 49.9537 68.3158 58.3012C68.3158 61.2045 67.5214 63.9219 66.143 66.2508C70.9525 67.229 74.5263 70.9088 74.5263 75.3028C74.5263 80.442 69.6256 84.6185 63.5791 84.6186V82.2896C68.7058 82.2896 72.1974 78.8272 72.1974 75.3028C72.1974 72.2752 69.6848 69.3402 65.6775 68.5328C64.9395 68.3776 64.3196 67.8816 64.0142 67.1833C63.709 66.5002 63.7562 65.7081 64.1401 65.056C65.3125 63.0842 65.9868 60.7699 65.9868 58.3012C65.9866 50.9729 60.0429 45.0265 52.7106 45.0265C51.2861 45.0265 49.9161 45.2596 48.6319 45.6633C47.9935 45.8649 47.297 45.7877 46.7215 45.4465C46.1456 45.1049 45.7468 44.5296 45.6268 43.862C44.6456 38.4744 39.5387 34.158 33.1602 34.158C26.0302 34.1581 20.5275 39.5052 20.5178 45.7861C20.5183 45.7962 20.5189 45.8093 20.5193 45.8179C20.5202 45.849 20.5219 45.8805 20.5223 45.9271C20.5297 46.6102 20.236 47.263 19.7202 47.7133C19.2045 48.1475 18.5182 48.349 17.8431 48.2561C17.3399 48.1784 16.8248 48.1317 16.3026 48.1317C11.0038 48.1317 6.98684 52.1065 6.98684 56.6712C6.98684 58.3791 7.53771 59.9783 8.50157 61.3291C8.8971 61.888 9.02898 62.5872 8.86395 63.2547C8.69884 63.9064 8.253 64.465 7.64338 64.7755C4.42034 66.3747 2.32895 69.4959 2.32895 72.9738Z" fill="#1A1A1A"/>
<path d="M13.9009 82.2745C13.9894 82.29 14.027 82.2896 14.0343 82.2896V84.6186C13.8565 84.6186 13.6823 84.6026 13.5127 84.5716C13.1532 84.6026 12.7888 84.6186 12.4211 84.6186V82.2896C12.7089 82.2896 13.0076 82.2737 13.3232 82.2426C13.516 82.2271 13.7101 82.2434 13.9009 82.2745Z" fill="#1A1A1A"/>
<path d="M62.9225 84.6186H14.0343V82.2896H62.9225V84.6186Z" fill="#1A1A1A"/>
<path d="M63.5791 82.2896V84.6186L63.3683 84.6171C63.2984 84.6151 63.2286 84.6112 63.1591 84.6034C63.0813 84.6189 63.0023 84.6186 62.9225 84.6186V82.2896H62.9877C63.0695 82.2741 63.1515 82.2745 63.2334 82.2745C63.381 82.29 63.4828 82.2896 63.5791 82.2896Z" fill="#1A1A1A"/>
<path d="M13.1982 69.0923C15.342 69.0923 17.0801 70.8304 17.0801 72.9741C17.0799 75.1177 15.3419 76.855 13.1982 76.855C11.0546 76.855 9.31655 75.1177 9.31641 72.9741C9.31641 70.8304 11.0545 69.0923 13.1982 69.0923ZM39.5928 69.0923C41.7365 69.0923 43.4746 70.8304 43.4746 72.9741C43.4745 75.1177 41.7364 76.855 39.5928 76.855C37.4492 76.8549 35.7111 75.1177 35.7109 72.9741C35.7109 70.8304 37.4491 69.0924 39.5928 69.0923Z" fill="#FFAFA3"/>
<path fill-rule="evenodd" clip-rule="evenodd" d="M23.0212 75.7481C23.5007 76.1767 24.2368 76.1355 24.6654 75.656C25.5567 74.6591 27.105 74.6216 28.0441 75.5746L28.1667 75.6987C28.6189 76.156 29.3562 76.1602 29.8135 75.708C30.2709 75.2559 30.2751 74.5186 29.8229 74.0612L29.703 73.94C29.7027 73.9397 29.7033 73.9403 29.703 73.94C27.8209 72.0309 24.7165 72.1045 22.9292 74.1038C22.5005 74.5833 22.5417 75.3195 23.0212 75.7481Z" fill="#1A1A1A"/>
<path d="M30.7155 69.1024C31.3972 69.1024 31.9499 69.6551 31.9499 70.3368C31.9498 71.0184 31.3971 71.5712 30.7155 71.5712C30.0341 71.5709 29.4822 71.0183 29.4821 70.3368C29.4821 69.6553 30.034 69.1027 30.7155 69.1024ZM31.984 65.7948C32.4884 65.5275 33.0953 65.6202 33.3385 66.0019C33.5816 66.3836 33.37 66.9102 32.8659 67.1776L32.86 67.1806C32.8561 67.1826 32.849 67.1864 32.8415 67.1903C32.8265 67.1983 32.8048 67.2098 32.777 67.2245C32.7201 67.2547 32.6375 67.2988 32.5358 67.3524C32.3322 67.4599 32.0499 67.6079 31.738 67.7714C31.1174 68.0966 30.3644 68.4885 29.8698 68.7353L29.7731 68.7782C29.285 68.9751 28.746 68.8564 28.5329 68.4911C28.3057 68.1011 28.5358 67.5775 29.0475 67.3222L29.9001 66.8876C30.219 66.7227 30.5579 66.5457 30.8688 66.3827C31.1776 66.2209 31.4569 66.0743 31.6588 65.9677L31.9626 65.8066C31.9699 65.8027 31.9764 65.7997 31.9801 65.7978C31.9814 65.797 31.9823 65.7963 31.9831 65.7958L31.984 65.7948Z" fill="#1A1A1A"/>
<path d="M21.4235 69.102C20.7418 69.102 20.1892 69.6548 20.1891 70.3364C20.1891 71.0181 20.7417 71.5707 21.4235 71.5707C22.1051 71.5707 22.6578 71.0181 22.6578 70.3364C22.6577 69.6548 22.105 69.102 21.4235 69.102ZM20.1549 65.7954C19.6506 65.528 19.0446 65.6206 18.8014 66.0024C18.5584 66.3841 18.769 66.9107 19.2731 67.1782H19.276C19.2769 67.1786 19.2775 67.1803 19.2789 67.1811C19.2828 67.1831 19.29 67.1859 19.2975 67.1899C19.3125 67.1978 19.3348 67.2101 19.3629 67.225C19.4199 67.2552 19.5026 67.2994 19.6041 67.353C19.8078 67.4605 20.0902 67.6085 20.402 67.7719C21.0225 68.0971 21.7757 68.4881 22.2701 68.7348L22.3658 68.7778C22.8542 68.9748 23.394 68.8563 23.6071 68.4907C23.834 68.1007 23.6031 67.5769 23.0914 67.3217L22.2389 66.8881C21.9201 66.7233 21.582 66.5462 21.2711 66.3832C20.962 66.2213 20.6821 66.0748 20.4801 65.9682L20.1764 65.8061C20.1692 65.8023 20.1634 65.7992 20.1598 65.7973C20.1583 65.7965 20.1567 65.7958 20.1559 65.7954H20.1549Z" fill="#1A1A1A"/>
</svg>
