<svg width="48" height="55" viewBox="0 0 48 55" fill="none" xmlns="http://www.w3.org/2000/svg">
<path d="M4.1204 46.286V20.418C4.04043 19.812 4.1739 18.6 5.34751 18.6C6.81452 18.6 9.43493 20.955 9.43493 23.918H11.6304C12.0179 21.799 13.8617 18.6 15.5889 18.6C17.7479 18.6 16.7514 25.472 16.7514 26.133C16.7514 26.662 17.4903 26.895 17.7118 27.748L39.7626 40.05C39.7626 43.657 46.1204 46.432 46.1204 47.603C46.1204 48.539 43.2418 48.747 41.8025 48.734C43.0039 49.345 45.4068 50.88 45.4068 52.129C45.4068 53.69 42.7035 54.6 40.4884 54.6C38.2732 54.6 33.7678 53.299 32.8292 53.299C31.8906 53.299 28.2863 54.667 23.856 54.667C19.4257 54.667 12.7427 52.129 12.1204 52.129C11.498 52.129 5.73961 55.98 2.12042 54.667C1.17646 54.324 3.25053 48.345 4.1204 46.286Z" fill="#FF99E0"/>
<path d="M42.6872 33.416C42.6872 36.769 41.0455 38.45 39.3411 40.433C40.2756 42.129 39.7384 47.466 29.5971 47.466C19.4558 47.466 15.1204 42.63 15.1204 35.334C15.1204 28.039 20.811 22.125 27.8308 22.125C34.8507 22.125 42.6872 26.121 42.6872 33.416Z" fill="#FF24BD"/>
<path fill-rule="evenodd" clip-rule="evenodd" d="M15.154 19.903C15.154 19.903 15.1599 19.909 15.1701 19.9286C15.1587 19.914 15.154 19.903 15.154 19.903Z" fill="#1A1A1A"/>
<path fill-rule="evenodd" clip-rule="evenodd" d="M19.6202 26.0771C17.3024 28.3761 15.8704 31.8724 15.8704 36.661C15.8704 40.3363 17.5552 42.6401 19.6655 44.0675C21.8123 45.5195 24.4146 46.0674 26.1424 46.1183C26.5565 46.1305 26.8822 46.476 26.87 46.8901C26.8578 47.3041 26.5123 47.6299 26.0983 47.6177C24.1594 47.5605 21.2618 46.958 18.8252 45.31C16.3522 43.6373 14.3704 40.8916 14.3704 36.661C14.3704 33.264 15.0513 30.391 16.2952 28.0705C16.5406 27.6127 16.8078 27.1765 17.0961 26.762C17.5372 26.1276 18.0276 25.5441 18.5639 25.0121C21.2245 22.3731 24.9307 21.089 29.1204 21.089C37.5486 21.089 43.4507 26.919 43.4507 33.815C43.4507 37.2756 42.0041 39.4851 39.8588 40.7847C39.856 40.7864 39.8532 40.7881 39.8504 40.7898C39.7573 40.8461 39.6629 40.9006 39.5675 40.9533C37.5299 42.0795 34.999 42.405 32.6988 42.405C30.1485 42.405 28.3464 41.4908 27.2827 40.0426C26.237 38.619 25.99 36.7946 26.2951 35.114C26.644 33.1923 28.3874 31.9447 30.0969 31.7739C30.9725 31.6865 31.8931 31.872 32.6623 32.4345C33.4384 33.0019 33.9906 33.9019 34.2139 35.1119C34.2891 35.5192 34.0198 35.9104 33.6125 35.9855C33.2051 36.0607 32.814 35.7914 32.7388 35.3841C32.5733 34.4871 32.1952 33.9511 31.777 33.6453C31.352 33.3346 30.8146 33.2097 30.246 33.2665C29.0671 33.3843 27.9776 34.2436 27.771 35.3819C27.5207 36.7603 27.7459 38.1394 28.4916 39.1546C29.2192 40.1452 30.5276 40.905 32.6988 40.905C35.009 40.905 37.3453 40.5536 39.0816 39.5018C40.7569 38.4869 41.9507 36.7764 41.9507 33.815C41.9507 27.865 36.8429 22.589 29.1204 22.589C25.2345 22.589 21.9408 23.7754 19.6202 26.0771Z" fill="#1A1A1A"/>
<path fill-rule="evenodd" clip-rule="evenodd" d="M5.50216 46.869L5.62039 46.59V20.32L5.6075 20.222C5.60601 20.2107 5.60465 20.1972 5.60361 20.1818C5.67045 20.2114 5.75001 20.2515 5.84189 20.306C6.14277 20.483 6.48692 20.763 6.81201 21.135C7.47009 21.888 7.93492 22.88 7.93492 23.918V25.418H12.881L13.1059 24.188C13.2575 23.359 13.7244 22.223 14.3469 21.309C14.6545 20.857 14.96 20.52 15.2257 20.31C15.2475 20.2927 15.2683 20.2769 15.2882 20.2624C15.4055 20.6996 15.4707 21.3482 15.4799 22.136C15.4895 22.969 15.4365 23.837 15.3783 24.556C15.3541 24.854 15.3296 25.1209 15.3085 25.3497L15.2963 25.483L15.2936 25.5123C15.2748 25.7168 15.2514 25.9708 15.2514 26.133C15.2514 26.648 15.4408 27.047 15.6208 27.319C15.7579 27.5249 15.93 27.7109 16.0169 27.8049L16.0447 27.835C16.2392 28.046 16.2494 28.0852 16.2598 28.125L16.2952 28.0705C16.5406 27.6127 16.8078 27.1765 17.0961 26.762C16.9066 26.5557 16.7514 26.3754 16.7514 26.133C16.7514 26.0379 16.772 25.8143 16.8009 25.501C16.9728 23.637 17.4373 18.6 15.5889 18.6C13.8617 18.6 12.0179 21.799 11.6304 23.918H9.43493L9.43492 23.9122C9.43151 20.9519 6.81356 18.6 5.3475 18.6C4.1739 18.6 4.04043 19.8125 4.1204 20.4185L4.12039 46.286C3.25053 48.345 1.17646 54.324 2.12042 54.667C4.87174 55.6651 8.85931 53.6789 10.887 52.669C11.5265 52.3504 11.9711 52.129 12.1204 52.129C12.29 52.129 12.9101 52.3176 13.8122 52.592C16.219 53.3241 20.6334 54.667 23.856 54.667C26.8898 54.667 29.5364 54.0254 31.2047 53.621C31.9726 53.4349 32.5333 53.299 32.8292 53.299C33.1992 53.299 34.1238 53.5012 35.2438 53.7462C36.9645 54.1226 39.1466 54.6 40.4884 54.6C42.7035 54.6 45.4068 53.69 45.4068 52.129C45.4068 51.4799 44.7578 50.7535 43.9658 50.1198C43.2337 49.5341 42.3795 49.0274 41.8025 48.734C42.4879 48.7402 43.4996 48.6962 44.3715 48.5474C45.3306 48.3838 46.1204 48.0932 46.1204 47.603C46.1204 47.1779 45.2828 46.5416 44.2156 45.7308C42.547 44.4631 40.3172 42.7691 39.8504 40.7898C39.7573 40.8461 39.6629 40.9006 39.5675 40.9533L39.561 40.9837C39.6143 41.2244 39.705 41.8225 39.641 42.2891C39.577 42.7557 39.4499 43.1353 39.3943 43.2668C39.449 43.3441 39.5047 43.4198 39.561 43.494C40.2657 44.423 41.1699 45.234 41.9958 45.904C42.4137 46.244 42.828 46.56 43.2011 46.844L43.3271 46.9398L43.3282 46.9406C43.4201 47.0104 43.5086 47.0777 43.5938 47.1427C42.9706 47.2138 42.3085 47.2384 41.816 47.234C41.1198 47.228 40.5108 47.701 40.3454 48.378C40.18 49.054 40.5017 49.755 41.1222 50.071C41.655 50.342 42.4581 50.822 43.1036 51.352C43.4276 51.618 43.6642 51.858 43.8078 52.051C43.832 52.0837 43.8512 52.1117 43.8663 52.1353C43.7934 52.2213 43.6112 52.3831 43.1699 52.579C42.4391 52.903 41.4224 53.1 40.4884 53.1C39.5691 53.1 38.0509 52.816 36.4938 52.483C36.1846 52.417 35.8703 52.3483 35.5659 52.2817C35.151 52.191 34.7544 52.1043 34.4145 52.034C33.8785 51.923 33.2514 51.799 32.8292 51.799C32.3783 51.799 31.7796 51.941 31.3072 52.054C31.1611 52.0887 31.0098 52.1253 30.8523 52.1634C30.4021 52.2723 29.9018 52.3932 29.3333 52.517C27.8143 52.847 25.9217 53.167 23.856 53.167C21.8606 53.167 19.2526 52.584 16.9587 51.952C15.9166 51.6648 14.9738 51.3776 14.2146 51.1463L14.0296 51.09C13.6414 50.972 13.2937 50.867 13.0214 50.792C12.8858 50.755 12.751 50.719 12.6293 50.693C12.5453 50.674 12.3397 50.629 12.1204 50.629C11.7947 50.629 11.5173 50.731 11.4359 50.761C11.3006 50.81 11.1611 50.87 11.0352 50.928C10.8025 51.0351 10.5133 51.179 10.2106 51.3297L10.1357 51.367C9.45294 51.707 8.60702 52.125 7.68057 52.5C6.74973 52.878 5.78419 53.193 4.87573 53.345C4.33864 53.4344 3.85828 53.46 3.43748 53.4243C3.51713 52.9257 3.6726 52.2719 3.88326 51.529C4.37498 49.796 5.09017 47.845 5.50216 46.869ZM15.154 19.903C15.154 19.903 15.1599 19.909 15.1701 19.9286C15.1587 19.914 15.154 19.903 15.154 19.903Z" fill="#1A1A1A"/>
<path d="M13.3249 28.0485C13.7747 28.0485 14.1394 28.419 14.1394 28.876C14.1394 29.333 13.7747 29.7035 13.3249 29.7035C12.8751 29.7035 12.5105 29.333 12.5105 28.876C12.5105 28.419 12.8751 28.0485 13.3249 28.0485Z" fill="#1A1A1A"/>
<path d="M6.9724 28.0485C6.52259 28.0485 6.15796 28.419 6.15796 28.876C6.15796 29.333 6.52259 29.7035 6.9724 29.7035C7.4222 29.7035 7.78683 29.333 7.78683 28.876C7.78683 28.419 7.4222 28.0485 6.9724 28.0485Z" fill="#1A1A1A"/>
<path fill-rule="evenodd" clip-rule="evenodd" d="M7.97622 29.8171C8.28503 29.5411 8.75916 29.5676 9.03522 29.8764C9.60925 30.5185 10.6065 30.5427 11.2113 29.9288L11.2903 29.849C11.5815 29.5544 12.0564 29.5517 12.3509 29.8429C12.6455 30.1341 12.6482 30.609 12.357 30.9036L12.2798 30.9817C12.2796 30.9818 12.2799 30.9815 12.2798 30.9817C11.0675 32.2113 9.06811 32.1638 7.91694 30.8761C7.64087 30.5673 7.66742 30.0932 7.97622 29.8171Z" fill="#1A1A1A"/>
</svg>
