<svg width="75" height="86" viewBox="0 0 75 86" fill="none" xmlns="http://www.w3.org/2000/svg">
<path d="M67.1116 82.7243C53.8276 79.293 18.7579 61.655 3.10547 48.4576C3.10547 48.4576 14.3856 44.4986 29.1574 40.8344C43.929 37.1546 54.7376 34.158 54.7376 34.158C60.4134 43.2564 67.3321 66.7476 70.0253 79.7121C70.4158 81.6063 68.971 83.2056 67.1116 82.7243Z" fill="#FFE8A3"/>
<path d="M55.7248 33.5424C58.6466 38.2262 61.8324 46.4977 64.6085 55.1291C67.0467 62.7102 69.1996 70.6662 70.6082 76.9099L71.1647 79.4754L71.1662 79.4769C71.4328 80.77 71.0815 82.0366 70.258 82.9082C69.42 83.7948 68.157 84.1976 66.8191 83.8513C60.0389 82.0997 47.8508 76.7791 35.4557 70.2855C23.048 63.7852 10.2786 56.0289 2.3546 49.3477L0.795898 48.0346L2.72001 47.3584C2.72156 47.3578 2.72619 47.3563 2.72911 47.3553C2.73492 47.3533 2.74389 47.3501 2.75488 47.3462C2.77732 47.3384 2.81012 47.3264 2.85344 47.3114C2.9411 47.281 3.07144 47.2362 3.2416 47.1779C3.58187 47.0615 4.08322 46.8913 4.73055 46.6761C6.02549 46.2454 7.90515 45.6346 10.2466 44.9081C14.9286 43.4555 21.4631 41.543 28.8752 39.7044C36.2537 37.8663 42.6428 36.1983 47.1868 34.9904C49.4586 34.3865 51.2697 33.8985 52.5119 33.5606C53.1329 33.3916 53.6121 33.2598 53.9356 33.1709C54.0973 33.1265 54.2202 33.092 54.3026 33.0693C54.3433 33.0581 54.3744 33.0507 54.395 33.045C54.4054 33.0422 54.4142 33.0389 54.4193 33.0375C54.4213 33.0369 54.4227 33.0362 54.4239 33.0359H54.4269L55.2654 32.804L55.7248 33.5424ZM53.1229 35.8076C51.8769 36.1466 50.0622 36.6369 47.7857 37.242C43.2327 38.4523 36.8317 40.122 29.4392 41.9636L29.4377 41.9651L29.1572 40.834L29.048 40.3958L29.4377 41.9651C22.0786 43.7905 15.5873 45.6895 10.9365 47.1324C8.61275 47.8534 6.74903 48.4591 5.46744 48.8852C13.2646 55.0996 25.0004 62.1781 36.5368 68.2218C48.1366 74.2989 59.3986 79.2596 66.1201 81.2403L67.4029 81.5966C67.9244 81.7316 68.3142 81.5748 68.5658 81.3085C68.8313 81.0273 69.0076 80.5485 68.8843 79.9485C67.5472 73.5121 65.1566 64.4384 62.3917 55.8417C59.7647 47.6737 56.8329 40.0508 54.1919 35.515C53.904 35.5938 53.5462 35.6925 53.1229 35.8076Z" fill="#1A1A1A"/>
<path d="M31.2047 53.2168C30.7541 53.2612 29.976 53.4461 29.2745 53.8309C28.5776 54.2132 28.1206 54.6956 27.9508 55.2713C27.8647 55.5677 27.8969 55.7246 27.9205 55.7975C27.9474 55.8803 28.0082 55.9847 28.148 56.1068C28.4654 56.3839 28.9931 56.5784 29.4019 56.6435L28.9137 59.7109C28.1529 59.5897 27.0065 59.2328 26.1056 58.4463C25.6363 58.0366 25.2019 57.4807 24.9669 56.7572C24.7286 56.0236 24.7313 55.2266 24.9699 54.4055V54.4025L26.4604 54.8392L26.7803 54.9317L24.9699 54.4025C25.4508 52.7596 26.6611 51.7221 27.781 51.1077C28.8979 50.4951 30.0907 50.2065 30.8999 50.1267L31.2047 53.2168Z" fill="#F79722"/>
<path d="M37.8756 60.5537C37.9668 61.0024 38.2281 61.7566 38.6792 62.4141C39.1268 63.0666 39.6539 63.4754 40.253 63.5907C40.5509 63.6444 40.7013 63.5989 40.7716 63.568C40.8521 63.5325 40.9507 63.4611 41.0582 63.3102C41.3019 62.9677 41.4423 62.4259 41.4645 62.0199L44.5652 62.1897C44.5229 62.9635 44.2803 64.1383 43.5872 65.1115C43.2263 65.6183 42.7171 66.1053 42.0225 66.411C41.3178 66.7209 40.5254 66.7985 39.686 66.6445L39.6753 66.6429L39.9665 65.1176L39.9862 65.0024L39.6753 66.6429C37.9929 66.3225 36.8414 65.2255 36.1182 64.1715C35.3977 63.1212 34.9953 61.9657 34.834 61.1723L37.8756 60.5537Z" fill="#F79722"/>
<path d="M36.4934 41.0874C36.3205 41.5175 36.1198 42.2941 36.1326 43.0918C36.1453 43.8855 36.361 44.5142 36.7967 44.9356C37.0173 45.1489 37.1691 45.194 37.244 45.207C37.3294 45.2217 37.4494 45.2158 37.6215 45.1494C38.0127 44.9983 38.4277 44.6233 38.6692 44.2942L41.1741 46.1304C40.7094 46.7638 39.8563 47.6157 38.739 48.0469C38.157 48.2714 37.4623 48.3965 36.7133 48.2668C35.9539 48.1351 35.2511 47.7609 34.6375 47.1675C33.4038 45.9742 33.0494 44.4209 33.0288 43.1419C33.0084 41.8669 33.3111 40.6789 33.6126 39.929L36.4934 41.0874Z" fill="#F79722"/>
<path d="M55.4738 43.7642C55.7753 44.5141 56.078 45.7021 56.0576 46.9771C56.037 48.2561 55.6826 49.8095 54.4489 51.0027C53.8351 51.5962 53.1319 51.9701 52.3731 52.102C51.625 52.2319 50.9315 52.1079 50.3505 51.8852C49.2346 51.4574 48.383 50.6124 47.9199 49.9914L50.4096 48.1355C50.6527 48.4615 51.0692 48.8356 51.4619 48.9861C51.6349 49.0524 51.7562 49.0572 51.8424 49.0422C51.9181 49.029 52.0697 48.9834 52.2897 48.7708H52.2912C52.7268 48.3495 52.9411 47.7206 52.9538 46.927C52.9666 46.1293 52.7659 45.3527 52.593 44.9226L55.4738 43.7642Z" fill="#F79722"/>
<path d="M23.3367 53.0586L18.7152 53.6393L18.0146 48.0656L22.6362 47.4834L23.3367 53.0586Z" fill="#FAB815"/>
<path d="M44.4198 54.4145L40.9856 57.5607L36.9751 53.1818L40.4109 50.0371L44.4198 54.4145Z" fill="#FAB815"/>
<path d="M67.2381 75.8653L64.2026 79.3981L60.5879 76.2929L63.6234 72.76L67.2381 75.8653Z" fill="#FAB815"/>
<path d="M57.7555 58.5025L55.6631 63.7047L51.3418 61.9656L53.4342 56.7649L57.7555 58.5025Z" fill="#FAB815"/>
<path d="M31.0201 31.7355C25.1618 33.3968 9.98037 39.592 3.10547 43.132L8.09966 53.0688C15.8684 49.5599 30.102 44.2188 32.5727 43.5201C34.977 42.837 48.5929 39.0485 55.6321 37.0922C55.9996 36.999 56.3188 36.7661 56.4913 36.4245C57.0785 35.26 57.7132 33.2726 57.2533 31.7355C56.7998 30.1984 55.5976 28.9253 54.7451 28.2576C54.4726 28.0403 54.1231 27.9628 53.7793 28.0093C48.2203 28.6149 36.6912 30.1208 31.0201 31.7355Z" fill="#D4693B"/>
<path d="M53.6538 26.8546C54.2588 26.78 54.926 26.912 55.4717 27.3474L55.4702 27.3489C56.4189 28.094 57.8205 29.5468 58.3693 31.4019L58.4663 31.7885C58.655 32.6983 58.5753 33.6403 58.4042 34.4586C58.2059 35.406 57.863 36.2893 57.5308 36.9483L56.0995 36.2265L56.9364 36.6496L57.5308 36.9483V36.9498L57.3898 37.1909C57.0391 37.721 56.5059 38.0624 55.9418 38.2113L55.9433 38.2143C48.9014 40.1714 35.2903 43.9582 32.8904 44.6402H32.8888C30.4955 45.3171 16.3221 50.6329 8.57893 54.1303C8.01009 54.3872 7.34016 54.1496 7.05966 53.5921L2.06516 43.6546C1.77859 43.0842 2.00438 42.39 2.57158 42.0974C9.49776 38.531 24.751 32.3025 30.7009 30.6149C36.4821 28.9689 48.1096 27.4555 53.6538 26.8516V26.8546ZM53.9055 29.1669L51.5629 29.4353C45.5648 30.1504 36.2051 31.4705 31.3392 32.8559L30.986 31.6172L31.3377 32.8559C25.845 34.4136 11.8803 40.0792 4.66854 43.6501L8.6411 51.5527C16.5999 48.043 29.8124 43.0901 32.255 42.3992C34.6662 41.7141 48.2845 37.9256 55.3201 35.9703L55.6309 37.0923H55.6325L55.3201 35.9703C55.3286 35.9679 55.3373 35.9664 55.3459 35.9642C55.4259 35.9439 55.4488 35.9055 55.452 35.899C55.7067 35.3937 55.9744 34.7018 56.1252 33.981C56.2788 33.247 56.2904 32.5804 56.1374 32.069L56.1359 32.0644C55.8228 31.0043 55.0211 30.0395 54.3194 29.4186L54.0268 29.1745L54.0192 29.1684L54.0086 29.1654C53.9958 29.1622 53.9713 29.1591 53.9358 29.1639C53.9258 29.1652 53.9155 29.1658 53.9055 29.1669Z" fill="#1A1A1A"/>
<path d="M8.83149 47.1378C9.75298 50.2431 8.90556 52.8981 7.05172 53.4105C5.19803 53.9229 2.59023 52.1994 1.66859 49.0941C0.747099 45.9889 1.50261 43.07 3.3563 42.5576C5.21014 42.0452 7.90985 44.0325 8.83149 47.1378Z" fill="#864E37"/>
<path d="M3.04519 41.4356C4.47811 41.0395 6.00024 41.6417 7.1724 42.5834C8.38052 43.5539 9.4195 45.0288 9.94712 46.8061C10.4575 48.5261 10.5032 50.1999 10.0987 51.5747C9.6946 52.9481 8.79073 54.1379 7.36193 54.5329C5.9764 54.9158 4.49188 54.4321 3.30901 53.5382C2.1029 52.6266 1.08079 51.2047 0.552485 49.4247C0.0430399 47.7076 -0.0226212 45.9839 0.34476 44.5621C0.705876 43.1647 1.56046 41.8463 3.04519 41.4356ZM5.71377 44.3983C4.84276 43.6987 4.08777 43.5636 3.66685 43.6796C3.29852 43.7814 2.8491 44.1785 2.59941 45.1443C2.35607 46.086 2.37272 47.3743 2.78439 48.7621C3.17773 50.0873 3.92144 51.081 4.71305 51.6793C5.52782 52.2951 6.27387 52.4167 6.74178 52.2873C7.16651 52.1697 7.61277 51.776 7.86532 50.9182C8.11755 50.061 8.12626 48.8539 7.71521 47.4687C7.32112 46.1411 6.54921 45.0695 5.71377 44.3983Z" fill="#1A1A1A"/>
<path d="M56.8187 74.3087C57.2785 74.758 58.0158 74.7502 58.4653 74.2905C58.9146 73.8306 58.9053 73.0934 58.4456 72.6439L55.3631 69.6296C54.9105 69.1871 54.1872 69.1871 53.7346 69.6296L50.6521 72.6439L50.5717 72.7318C50.1937 73.1849 50.2124 73.8594 50.6339 74.2905C51.0555 74.7215 51.7296 74.7555 52.1911 74.3875L52.2805 74.3087L54.5488 72.0904L56.8187 74.3087Z" fill="#1A1A1A"/>
<path d="M60.5507 66.7556C61.4209 66.7558 62.1259 67.4333 62.1259 68.2693C62.1259 69.1052 61.4209 69.7828 60.5507 69.783C59.6803 69.783 58.9745 69.1053 58.9745 68.2693C58.9745 67.4332 59.6803 66.7556 60.5507 66.7556ZM62.1698 62.699C62.8138 62.3711 63.588 62.4856 63.8984 62.9539C64.2083 63.4219 63.9391 64.0673 63.2958 64.3953L63.2919 64.3962C63.2908 64.3969 63.2898 64.3982 63.288 64.3992C63.2831 64.4017 63.2741 64.4051 63.2646 64.4099C63.2454 64.4197 63.2175 64.4346 63.1816 64.4529C63.1089 64.4898 63.0037 64.5433 62.8739 64.6091C62.6139 64.741 62.2537 64.9233 61.8554 65.1238C61.0631 65.5227 60.1011 66.0029 59.4696 66.3054L59.3466 66.3582C58.7232 66.5997 58.0346 66.454 57.7626 66.0056C57.4726 65.5274 57.7666 64.8852 58.4198 64.572L59.5087 64.0398C59.9158 63.8376 60.348 63.6205 60.745 63.4207C61.1397 63.222 61.4968 63.0417 61.7548 62.9109L62.1425 62.7136C62.1517 62.7089 62.1593 62.7053 62.164 62.7029C62.1658 62.7019 62.1668 62.7006 62.1679 62.7L62.1698 62.699Z" fill="#1A1A1A"/>
<path d="M48.1544 66.7551C47.2842 66.7551 46.5785 67.4329 46.5782 68.2687C46.5782 69.1048 47.284 69.7834 48.1544 69.7834C49.0246 69.7832 49.7296 69.1047 49.7296 68.2687C49.7293 67.433 49.0244 66.7552 48.1544 66.7551ZM46.5342 62.6994C45.8905 62.3717 45.1173 62.4854 44.8067 62.9533C44.4964 63.4214 44.7657 64.0667 45.4092 64.3947L45.4122 64.3957C45.4134 64.3963 45.4151 64.3986 45.4171 64.3996C45.422 64.4021 45.4304 64.4057 45.4395 64.4103C45.4587 64.4201 45.4876 64.4341 45.5235 64.4523C45.5962 64.4893 45.7013 64.5437 45.8311 64.6095C46.0912 64.7414 46.4515 64.9227 46.8497 65.1232C47.6419 65.5221 48.603 66.0023 49.2344 66.3049L49.3575 66.3576C49.9807 66.5991 50.6693 66.454 50.9415 66.006C51.2315 65.5277 50.9375 64.8855 50.2842 64.5724L49.1954 64.0392C48.7882 63.837 48.356 63.6209 47.9591 63.4211C47.5646 63.2225 47.2082 63.0421 46.9503 62.9113L46.5626 62.7131C46.5534 62.7084 46.5458 62.7047 46.5411 62.7023C46.5391 62.7013 46.5373 62.7 46.5362 62.6994H46.5342Z" fill="#1A1A1A"/>
</svg>
