<svg width="75" height="86" viewBox="0 0 75 86" fill="none" xmlns="http://www.w3.org/2000/svg">
<path d="M46.4833 8.05083C40.6251 7.10378 27.2352 8.05086 21.3771 23.199L18.0635 37.1905C20.5741 35.298 26.3983 34.5606 31.4194 34.5606C48.157 34.5606 53.3174 37.4001 58.1994 37.4001C65.7313 18.4653 52.3414 8.99633 46.4833 8.05083Z" fill="#CFBFA8"/>
<path d="M51.8818 35.7816C51.7909 36.0218 51.6947 36.2609 51.5938 36.4984L50.1631 35.892C50.256 35.6734 50.3449 35.4522 50.4287 35.2308L51.8818 35.7816ZM40.001 33.6039C39.9778 33.8567 39.9559 34.1104 39.9355 34.3636L38.3887 34.2396C38.4095 33.9804 38.4324 33.72 38.4561 33.4613L40.001 33.6039ZM52.749 32.8265C52.6413 33.3271 52.5156 33.8251 52.3711 34.3187L50.8809 33.8832C51.0145 33.4269 51.1304 32.9643 51.2305 32.4994L52.749 32.8265ZM26.7373 32.6791C26.7108 32.9241 26.6868 33.1702 26.667 33.4164L25.1201 33.2924C25.141 33.0322 25.1653 32.7721 25.1934 32.5131L26.7373 32.6791ZM40.3447 30.5717C40.2769 31.0746 40.2146 31.5802 40.1572 32.0863L38.6152 31.9105C38.6739 31.3937 38.7364 30.8779 38.8057 30.3646L40.3447 30.5717ZM53.1914 29.7924C53.1502 30.301 53.0938 30.8092 53.0205 31.3148L51.4844 31.0922C51.5528 30.6199 51.6049 30.1439 51.6436 29.6664L53.1914 29.7924ZM27.2178 29.7582C27.1108 30.2396 27.0177 30.7242 26.9375 31.2113L25.4053 30.9603C25.4902 30.4446 25.5898 29.931 25.7031 29.4213L27.2178 29.7582ZM40.8154 27.556C40.7271 28.0551 40.6432 28.5577 40.5645 29.0619L39.0303 28.8226C39.1106 28.3078 39.1959 27.794 39.2861 27.2845L40.8154 27.556ZM28.0195 26.9076C27.8597 27.3752 27.7135 27.8472 27.5801 28.3217L26.085 27.9017C26.2262 27.3995 26.3817 26.9004 26.5508 26.4056L28.0195 26.9076ZM53.2627 26.7406C53.2786 27.2484 53.2819 27.7575 53.2705 28.266L51.7178 28.2308C51.7285 27.7514 51.725 27.2704 51.71 26.7894L53.2627 26.7406ZM41.4092 24.5599C41.3009 25.0542 41.196 25.5533 41.0967 26.0551L39.5742 25.7533C39.6756 25.2414 39.7811 24.7322 39.8916 24.2279L41.4092 24.5599ZM29.1299 24.1615C28.9197 24.6102 28.7217 25.0632 28.5371 25.5199L27.0977 24.9379C27.2926 24.4555 27.5008 23.9769 27.7227 23.5033L29.1299 24.1615ZM53.0186 23.7094C53.0824 24.2105 53.1358 24.7156 53.1768 25.2211L51.6279 25.347C51.5889 24.8662 51.5395 24.3852 51.4785 23.9066L53.0186 23.7094ZM42.1221 21.5931C41.994 22.0815 41.8708 22.5762 41.751 23.0746L40.2402 22.7103C40.3625 22.2016 40.4903 21.6973 40.6211 21.1986L42.1221 21.5931ZM30.5273 21.5482C30.2706 21.9731 30.026 22.4025 29.7939 22.8363L28.4248 22.1039C28.6698 21.646 28.9275 21.1926 29.1982 20.7445L30.5273 21.5482ZM52.5088 20.723C52.6129 21.2144 52.7086 21.7109 52.7939 22.2103L51.2646 22.473C51.1829 21.9947 51.0912 21.5183 50.9912 21.0463L52.5088 20.723ZM32.1895 19.0883C31.8903 19.4863 31.6028 19.8896 31.3271 20.2972L30.041 19.4281C30.3313 18.9989 30.6346 18.5742 30.9492 18.1556L32.1895 19.0883ZM42.958 18.6576C42.8099 19.1383 42.666 19.6276 42.5254 20.1215L41.0322 19.6947C41.1758 19.1906 41.3233 18.6926 41.4746 18.2015L42.958 18.6576ZM51.7754 17.7924C51.9137 18.2721 52.0465 18.7584 52.1699 19.2504L50.6621 19.6283C50.5432 19.1543 50.4168 18.6843 50.2832 18.2211L51.7754 17.7924ZM34.0898 16.8011C33.7531 17.1697 33.426 17.5434 33.1113 17.9222L31.917 16.931C32.2474 16.5333 32.5902 16.1407 32.9434 15.7543L34.0898 16.8011ZM43.9219 15.765C43.7523 16.2365 43.5856 16.7186 43.4229 17.2074L41.9512 16.7162C42.1177 16.2161 42.2882 15.7237 42.4619 15.2406L43.9219 15.765ZM50.8447 14.9222C51.0129 15.3888 51.1768 15.865 51.334 16.349L49.8574 16.8275C49.7056 16.3599 49.5465 15.9 49.3838 15.4486L50.8447 14.9222ZM36.1953 14.6967C35.8258 15.0342 35.466 15.3777 35.1172 15.726L34.0215 14.6283C34.3869 14.2635 34.7629 13.9032 35.1494 13.5502L36.1953 14.6967ZM45.0254 12.9301C44.8326 13.3882 44.643 13.8591 44.4561 14.3402L43.0078 13.7777C43.1999 13.2834 43.3961 12.7985 43.5947 12.3265L45.0254 12.9301ZM49.7344 12.1185C49.9293 12.5696 50.122 13.0342 50.3105 13.5101L48.8672 14.0824C48.6847 13.6216 48.4974 13.1714 48.3086 12.7347L49.7344 12.1185ZM38.4805 12.7826C38.0831 13.0882 37.6955 13.4005 37.3174 13.7172L36.3203 12.5267C36.7151 12.1962 37.1199 11.8707 37.5342 11.5521L38.4805 12.7826ZM40.918 11.059C40.4974 11.3326 40.0844 11.6111 39.6816 11.8959L38.7852 10.6283C39.2046 10.3317 39.6338 10.0408 40.0713 9.75623L40.918 11.059ZM46.29 10.1722C46.07 10.6115 45.8513 11.0684 45.6357 11.5394L44.2236 10.892C44.4463 10.4055 44.6729 9.93398 44.9014 9.47791L46.29 10.1722ZM48.4502 9.39001C48.6713 9.82269 48.8941 10.2751 49.1152 10.7455L47.71 11.4066C47.4961 10.9517 47.2816 10.5135 47.0684 10.0961L48.4502 9.39001ZM43.4844 9.52185C43.0436 9.76446 42.6107 10.0122 42.1865 10.266L41.3887 8.93494C41.829 8.67141 42.2784 8.41303 42.7354 8.1615L43.4844 9.52185ZM47.7393 8.05505L47.2969 8.30212C47.1956 8.47673 47.0929 8.6543 46.9922 8.8363L46.6641 8.65466L46.3828 8.81189C46.2952 8.65483 46.2064 8.50282 46.1201 8.35388L45.6338 8.08435C45.763 7.85087 45.8929 7.62185 46.0234 7.3988L46.6934 7.79138L47.3643 7.3988C47.4877 7.60977 47.6132 7.82902 47.7393 8.05505ZM45.4805 8.4906C45.2545 8.60016 45.0307 8.71221 44.8086 8.82458L44.1064 7.43884C44.3366 7.32241 44.5697 7.20659 44.8037 7.09314L45.4805 8.4906Z" fill="#A7977E"/>
<path d="M46.2329 3.49426L48.3579 3.78332C49.8171 3.98188 50.8748 5.33074 50.7193 6.79504C50.667 7.28586 50.4824 7.72543 50.2085 8.08801C52.9867 9.43626 56.0807 11.8532 58.3404 15.3468C61.6994 20.5403 63.1763 28.0414 59.2828 37.8302L59.2046 37.9894C58.998 38.3421 58.6172 38.5645 58.1997 38.5646C56.86 38.5646 55.2113 38.307 53.3667 37.9679C51.4769 37.6204 49.3789 37.1873 46.9663 36.7736C42.184 35.9534 36.3927 35.2584 29.8277 35.7228C28.1384 35.8421 25.8949 35.9784 23.7593 36.3155C21.5697 36.6613 19.7382 37.1863 18.7349 37.9425L18.5816 38.0392C18.2102 38.2372 17.7538 38.2207 17.3941 37.9845C16.9836 37.7144 16.7874 37.216 16.9029 36.7384L20.2447 22.9249C20.2567 22.8754 20.2732 22.827 20.2915 22.7794C23.3384 14.9008 28.3858 10.6462 33.481 8.51574C36.9945 7.04678 40.5011 6.59951 43.3521 6.63098C43.2946 6.35922 43.2765 6.07504 43.3072 5.78625C43.463 4.32219 44.7738 3.2959 46.2329 3.49426ZM46.2984 9.20031C43.5345 8.75348 38.9492 8.75359 34.3794 10.6642C29.8646 12.552 25.302 16.3274 22.4888 23.5538L19.7486 34.8693C20.8965 34.4748 22.1705 34.2094 23.397 34.0157C25.6543 33.6594 28.013 33.5152 29.6646 33.3986C36.4888 32.916 42.4837 33.6414 47.3599 34.4777C49.7761 34.892 51.9773 35.346 53.7876 35.6788C55.23 35.944 56.4315 36.1319 57.4117 36.2032C60.6715 27.4485 59.2197 20.9954 56.3843 16.6114C53.4132 12.0181 48.8808 9.6173 46.2984 9.20031Z" fill="#1A1A1A"/>
<path d="M20.061 22.0813C14.9129 24.6135 13.3384 29.5164 17.9951 37.3832C20.061 36.4361 25.9947 34.8029 30.5482 34.5436C36.8986 34.1803 40.5907 34.5436 48.1224 35.4906C42.9873 20.0086 25.2091 19.5475 20.061 22.0813Z" fill="#C4B091"/>
<path d="M25.8623 19.7667C28.4484 19.6922 31.4396 20.0098 34.434 20.9159C40.441 22.7336 46.5164 26.9465 49.2287 35.1238C49.3546 35.5033 49.2763 35.9218 49.0225 36.2306C48.7687 36.5391 48.3741 36.6958 47.9777 36.6461L48.1233 35.4907H48.1218L47.9777 36.6461C40.4672 35.7017 36.8577 35.3489 30.6144 35.706C28.4327 35.8303 25.8854 36.2875 23.6136 36.8371C21.3285 37.39 19.4127 38.014 18.4808 38.4412C17.939 38.6896 17.2969 38.4887 16.9933 37.9757C14.5991 33.9311 13.6789 30.444 14.2048 27.5248C14.7427 24.5405 16.7389 22.4185 19.5468 21.0372C21.0399 20.3023 23.3011 19.8404 25.8623 19.7667ZM25.929 22.094C23.5484 22.1626 21.6558 22.5945 20.5749 23.1265C18.2354 24.2773 16.8698 25.8724 16.4975 27.9388C16.1432 29.9057 16.6472 32.5235 18.5036 35.9183C19.6797 35.483 21.3007 35.0003 23.0647 34.5735C25.4143 34.005 28.1109 33.5168 30.4825 33.3818C36.3676 33.0451 40.025 33.326 46.3447 34.0974C43.6892 27.9395 38.7555 24.6565 33.7592 23.1447C31.0239 22.317 28.2845 22.0261 25.929 22.094Z" fill="#1A1A1A"/>
</svg>
