<svg width="75" height="86" viewBox="0 0 75 86" fill="none" xmlns="http://www.w3.org/2000/svg">
<path d="M37.2646 13.5848V7.76273C37.2646 4.33316 40.0454 1.55255 43.4755 1.55255H62.108C65.5381 1.55255 68.3188 4.33316 68.3188 7.76273V13.5848C68.3188 17.0144 65.5381 19.795 62.108 19.795H53.1447L45.5223 26.3933V19.795H43.4755C40.0454 19.795 37.2646 17.0144 37.2646 13.5848Z" fill="white"/>
<path d="M67.1548 7.76273C67.1548 4.97622 64.8954 2.71696 62.1084 2.71696H43.476C40.689 2.71696 38.4296 4.97622 38.4296 7.76273V13.5848C38.4296 16.3713 40.689 18.6305 43.476 18.6305H45.523C46.166 18.6307 46.6875 19.152 46.6875 19.795V23.8431L52.3828 18.9141C52.5944 18.731 52.8656 18.6305 53.1455 18.6305H62.1084C64.8954 18.6305 67.1548 16.3713 67.1548 13.5848V7.76273ZM69.4838 13.5848C69.4838 17.6574 66.1817 20.9594 62.1084 20.9594H53.5792L46.2857 27.2742C45.9413 27.5723 45.4537 27.6421 45.0393 27.4531C44.6247 27.2636 44.3584 26.8491 44.3584 26.3933V20.9594H43.476C39.4027 20.9594 36.1006 17.6574 36.1006 13.5848V7.76273C36.1006 3.69009 39.4027 0.388138 43.476 0.388138H62.1084C66.1817 0.388138 69.4838 3.69009 69.4838 7.76273V13.5848Z" fill="#1A1A1A"/>
<path d="M52.0397 6.41048C52.5528 7.16813 53.0829 7.95682 53.0965 8.86971C53.103 9.30909 53.3671 8.45675 53.4874 8.30615C53.7011 8.04067 53.8893 7.74567 54.1448 7.50813C54.5984 7.08739 55.0015 6.66666 55.5553 6.3577C56.288 5.95094 57.265 5.56902 58.114 5.56902C58.7617 5.56902 59.2033 5.72427 59.5952 6.24127C60.0226 6.80639 60.1808 7.72859 60.0215 8.39774C59.8049 9.30753 59.2638 10.0155 58.659 10.7188C58.0033 11.4811 57.3034 12.2294 56.5787 12.9312C55.7312 13.7525 54.9451 14.5707 53.9576 15.2445C53.4525 15.5907 52.9696 15.9664 52.4598 16.3049C52.2869 16.4197 52.1863 16.5843 52.0397 16.353C51.8135 15.9959 51.5613 15.6528 51.3032 15.3159C51.0703 15.0116 50.8683 14.6731 50.6272 14.3813C50.0559 13.6888 49.6285 12.9063 49.0128 12.2403C47.8646 10.9967 46.5693 9.71431 46.5811 7.9382C46.5846 7.40723 46.6532 6.9135 46.9265 6.44618C47.2518 5.89193 47.8006 5.37339 48.3452 5.01941C48.6697 4.80982 49.0209 4.66077 49.4144 4.66077C49.7164 4.66077 50.0472 4.62817 50.3255 4.76169C50.4721 4.8331 50.6036 4.94954 50.7374 5.03959C50.9497 5.18553 51.1338 5.42617 51.3157 5.60472L51.3169 5.60626C51.5698 5.85311 51.8416 6.1186 52.0397 6.41048Z" fill="#E24C0C"/>
</svg>
