<svg width="75" height="86" viewBox="0 0 75 86" fill="none" xmlns="http://www.w3.org/2000/svg">
<path d="M38.7007 41.921H16.0913C16.1332 41.8635 16.1736 41.8045 16.2155 41.7455C16.3118 41.6089 16.408 41.4707 16.5043 41.3325C16.9266 40.7301 17.3567 40.1153 17.8287 39.4864C18.9761 37.9493 20.33 36.3719 22.19 34.9217C25.8853 32.0369 31.7465 29.5263 42.3028 29.1583C42.4364 29.1537 42.5559 29.2158 42.6398 29.354C42.7267 29.4999 42.7376 29.6754 42.6599 29.8291C41.0483 32.9902 39.0377 37.7785 38.7007 41.921Z" fill="#FFA629"/>
<path d="M38.7007 71.421H16.0913C16.1332 71.4785 16.1736 71.5375 16.2155 71.5965C16.3118 71.7331 16.408 71.8713 16.5043 72.0095C16.9266 72.6119 17.3567 73.2267 17.8287 73.8556C18.9761 75.3927 20.33 76.9701 22.19 78.4203C25.8853 81.3051 31.7465 83.8157 42.3028 84.1837C42.4364 84.1883 42.5559 84.1262 42.6398 83.988C42.7267 83.8421 42.7376 83.6666 42.6599 83.5129C41.0483 80.3518 39.0377 75.5635 38.7007 71.421Z" fill="#FFA629"/>
<path fill-rule="evenodd" clip-rule="evenodd" d="M54.7686 64.6718C48.3406 73.4442 42.2923 78.6657 30.4091 78.6657C14.3172 78.6657 0 68.5006 0 55.9584C0 43.4178 14.4611 33.2512 29.1368 33.2512C40.41 33.2512 47.0197 39.7179 54.6604 47.1938C54.697 47.2296 54.7337 47.2653 54.7703 47.301C56.8176 45.6381 59.6442 44.4364 63.4539 44.4364C72.7147 44.4364 73.637 45.4518 72.9405 45.9595C71.0431 47.5479 67.2485 51.6856 67.2485 56.3979C67.2485 61.1101 71.0431 65.4668 72.9405 67.0567C73.637 67.5644 72.7147 68.5798 63.4539 68.5798C59.6431 68.5798 56.8161 66.8983 54.7686 64.6718Z" fill="#FFD966"/>
<path d="M26.3979 34.8982C26.4191 34.2554 26.9574 33.7515 27.6001 33.7727C28.6343 33.8069 29.4275 34.3683 29.9881 35.0288C30.5417 35.6811 30.9451 36.5121 31.2384 37.3322C31.8241 38.9694 32.0771 40.8689 32.0453 42.0706C32.0319 42.5689 31.8614 43.0287 31.6764 43.397C31.4861 43.776 31.2406 44.1366 30.9945 44.4554C30.5027 45.0925 29.9346 45.6568 29.5837 45.9898C28.5222 46.9945 27.5121 48.3248 27.1286 49.6185C26.9911 50.0814 27.0642 50.3999 27.2208 50.6657C27.4019 50.9728 27.7455 51.2868 28.2545 51.5757C29.2899 52.1641 30.2097 52.9165 31.051 53.6047C31.228 53.7494 31.4016 53.8914 31.572 54.0284C32.3824 54.6787 32.6282 55.5961 32.7095 56.3157C32.7669 56.824 32.7524 57.407 32.7417 57.8378C32.7382 57.9797 32.7351 58.1051 32.7351 58.2058C32.7351 60.3886 31.3915 61.9534 30.3346 63.0371C29.8523 63.5315 29.359 64.1251 28.9922 64.7544C28.6283 65.3788 28.4294 65.9685 28.4221 66.4919C28.4958 66.5533 28.6419 66.6373 28.9461 66.7698C28.9974 66.7922 29.0559 66.8169 29.1196 66.8439C29.3796 66.9539 29.7264 67.1006 30.0244 67.2702C30.4162 67.4932 30.8924 67.842 31.189 68.4199C31.4692 68.967 31.8103 69.7115 32.0331 70.5071C32.2495 71.2801 32.3947 72.2403 32.1349 73.1529C32.0136 73.5813 31.6386 74.6722 31.1845 75.6683C30.9587 76.1635 30.6904 76.6869 30.3993 77.1036C30.2553 77.3097 30.0749 77.535 29.8568 77.7202C29.6563 77.8904 29.2856 78.1448 28.7821 78.1448C28.139 78.1448 27.6176 77.6234 27.6176 76.9803C27.6176 76.467 27.9497 76.0313 28.4107 75.8763C28.4334 75.8482 28.4599 75.813 28.4901 75.7698C28.6612 75.5249 28.8609 75.1508 29.0654 74.7022C29.4714 73.8115 29.8057 72.8306 29.8943 72.5177L29.8949 72.5156C29.9825 72.2082 29.9601 71.7412 29.7904 71.135C29.6269 70.551 29.3627 69.9631 29.1166 69.4824C29.1143 69.478 29.0796 69.4122 28.8725 69.2943C28.7043 69.1986 28.5291 69.1241 28.2926 69.0236C28.2089 68.9881 28.1175 68.9492 28.0161 68.905C27.6912 68.7635 27.224 68.5502 26.8432 68.2045C26.4092 67.8107 26.0929 67.2517 26.0929 66.5218C26.0929 65.4315 26.4913 64.4202 26.9801 63.5816C27.4731 62.7358 28.1016 61.991 28.6674 61.411C29.6941 60.3583 30.4061 59.3861 30.4061 58.2058C30.4061 57.9865 30.4112 57.7897 30.4159 57.6062C30.4254 57.2338 30.4336 56.9164 30.3953 56.577C30.343 56.1147 30.225 55.9335 30.1142 55.8447L30.1128 55.8436C29.9098 55.6804 29.7143 55.5208 29.5239 55.3655C28.6894 54.6843 27.9528 54.0832 27.1049 53.6012C26.3967 53.1992 25.6775 52.6336 25.2146 51.8485C24.7274 51.0221 24.5755 50.0352 24.8957 48.9566C25.4437 47.108 26.7758 45.441 27.981 44.3C28.3008 43.9964 28.768 43.5284 29.1509 43.0323C29.3423 42.7844 29.4941 42.5531 29.5952 42.3518C29.7016 42.1398 29.7166 42.0304 29.7172 42.0086C29.7413 41.094 29.5339 39.4817 29.0456 38.1165C28.8019 37.4352 28.5148 36.8921 28.2124 36.5358C27.9169 36.1876 27.6886 36.1059 27.5233 36.1004C26.8805 36.0792 26.3767 35.5409 26.3979 34.8982Z" fill="#FFA629"/>
<path d="M45.2745 39.0089C44.7351 38.6588 44.0139 38.8123 43.6638 39.3518C43.3137 39.8912 43.4672 40.6124 44.0067 40.9625C44.4567 41.2546 44.8736 41.885 45.1697 42.7917C45.4567 43.6702 45.571 44.6311 45.5539 45.3384L45.5539 45.3356C45.5539 45.3356 45.5462 45.3972 45.4835 45.5321C45.4176 45.6739 45.3157 45.8429 45.1824 46.0297C44.9153 46.4038 44.5867 46.7603 44.3587 46.9942C43.4602 47.9131 42.4645 49.2572 42.0535 50.7569C41.8084 51.648 41.9218 52.4724 42.3032 53.1722C42.6668 53.8394 43.2315 54.3185 43.7797 54.6551C44.371 55.0178 44.8822 55.4682 45.4874 56.0015C45.6279 56.1254 45.7736 56.2538 45.9266 56.3866C45.9295 56.3891 46.0109 56.4602 46.0481 56.8173C46.0748 57.0733 46.0692 57.307 46.0624 57.5923C46.0589 57.738 46.055 57.8975 46.055 58.0801C46.055 58.9343 45.5822 59.6467 44.8488 60.4597L44.8475 60.4611C44.0603 61.3367 42.9187 62.8807 42.9187 64.6197C42.9187 65.2408 43.1686 65.736 43.5352 66.096C43.8524 66.4075 44.237 66.5951 44.4765 66.7079C44.5609 66.7477 44.6329 66.7808 44.696 66.8099C44.8581 66.8844 44.962 66.9322 45.0657 66.9961C45.1113 67.0241 45.136 67.0436 45.1477 67.0538C45.3203 67.4205 45.5009 67.8598 45.613 68.2927C45.7326 68.755 45.7416 69.0889 45.6895 69.2892C45.6299 69.5146 45.4667 69.9952 45.2637 70.3985C45.1895 70.5459 45.1246 70.6534 45.0747 70.7244C44.6228 70.8844 44.299 71.3156 44.299 71.8224C44.299 72.4655 44.8204 72.9869 45.4635 72.9869C46.1444 72.9869 46.5913 72.538 46.7823 72.3178C47.0158 72.0487 47.2025 71.7266 47.344 71.4457C47.6304 70.8766 47.8473 70.2397 47.9417 69.8823L47.9423 69.8799C48.1415 69.119 48.0284 68.3306 47.8677 67.7093C47.7015 67.0672 47.4482 66.4697 47.2408 66.0322C46.998 65.5207 46.6046 65.2085 46.2867 65.0128C46.0496 64.8669 45.77 64.7391 45.5821 64.6532C45.5392 64.6336 45.5009 64.6161 45.4692 64.6012C45.3744 64.5565 45.3057 64.5215 45.2525 64.4908C45.3107 63.7077 45.8833 62.7926 46.5789 62.0188C47.3608 61.1519 48.384 59.8679 48.384 58.0801C48.384 58.0075 48.3861 57.9141 48.3886 57.8066C48.3965 57.4677 48.4075 56.9883 48.3645 56.5757C48.3047 56.0024 48.1211 55.2077 47.4534 54.628C47.3334 54.5238 47.21 54.4147 47.083 54.3024C46.4714 53.7618 45.7779 53.1486 44.9979 52.6702C44.6614 52.4635 44.4531 52.2502 44.3482 52.0578C44.2612 51.898 44.2111 51.6941 44.2996 51.3728C44.5656 50.4014 45.2711 49.3922 46.0243 48.622L46.0255 48.6208C46.2849 48.3547 46.709 47.8996 47.0779 47.3828C47.4058 46.9235 47.8626 46.1853 47.8821 45.3954C47.9054 44.4383 47.7572 43.2125 47.3836 42.0686C47.0191 40.9525 46.3771 39.7245 45.2745 39.0089Z" fill="#FFA629"/>
<path fill-rule="evenodd" clip-rule="evenodd" d="M39.7368 35.8663C39.1216 34.9815 37.4609 34.6929 37.2756 36.0961C37.2109 36.5862 37.4611 37.0454 37.8699 37.2697C38.2123 37.8827 38.3803 38.6116 38.5385 39.2981C38.5559 39.3736 38.5732 39.4486 38.5906 39.5228C38.9407 41.0187 39.1653 42.5506 39.1813 42.881C39.219 43.6846 38.9086 44.3896 38.3227 45.1339C37.784 45.8182 37.1482 46.4017 36.5125 46.9852C36.109 47.3555 35.7055 47.7259 35.3268 48.122C35.018 48.4449 34.674 48.9015 34.5367 49.5467L34.5359 49.5504C34.5281 49.5879 34.5183 49.633 34.5071 49.6845C34.4508 49.9432 34.3597 50.362 34.3093 50.7746C34.2784 51.0271 34.2572 51.3159 34.2725 51.6041C34.2871 51.878 34.3386 52.243 34.5196 52.5892L34.5206 52.5911C34.9178 53.3472 35.5346 53.6138 36.1636 53.8857C36.5468 54.0513 36.9346 54.2189 37.28 54.5003C37.6368 54.7914 37.7331 55.0596 37.9894 55.7734C38.031 55.8892 38.077 56.0173 38.1288 56.1587C38.4535 57.0428 38.2133 58.0028 37.5191 59.137C37.0358 59.9267 36.4573 60.6189 35.8773 61.313C35.6944 61.5318 35.4915 61.7598 35.2818 61.9954C34.5013 62.8724 33.6251 63.8569 33.3225 64.8849C33.1457 65.4872 33.0568 66.1408 33.3793 66.7912C33.6625 67.3623 34.1845 67.7961 34.68 68.2079C34.7982 68.3061 34.9149 68.4031 35.0265 68.5004C36.165 69.4932 36.7956 70.0432 36.9336 71.346C36.9997 71.9684 37.0675 72.964 36.9737 73.8585C36.9266 74.307 36.8443 74.6725 36.7352 74.934C36.6388 75.1648 36.4736 75.3467 36.3147 75.5217C35.9969 75.8718 35.7039 76.1945 36.0356 76.827C36.3343 77.3966 37.0381 77.6162 37.6077 77.3175C38.2697 76.9703 38.6562 76.3776 38.8843 75.8313C39.114 75.2811 39.2304 74.6686 39.2899 74.1014C39.4091 72.9648 39.3217 71.7791 39.2496 71.1003C39.0081 68.8217 37.6251 67.644 36.4657 66.6568C36.3945 66.5962 36.3049 66.5321 36.2096 66.4638C35.8652 66.2175 35.4465 65.9179 35.557 65.5412C35.641 65.2563 35.7665 65.0569 35.9645 64.8207C36.2504 64.4797 36.5424 64.1421 36.8347 63.8042C37.7881 62.7019 38.7449 61.5956 39.5056 60.3527C40.3384 58.9919 41.0057 57.2373 40.3152 55.3564C40.2808 55.2626 40.2464 55.1625 40.2103 55.0576C39.968 54.353 39.6493 53.4273 38.7511 52.6948C38.3696 52.384 37.9167 52.1856 37.4694 51.9897C37.4544 51.9831 37.4394 51.9765 37.4244 51.97C37.3775 51.9494 37.3297 51.9292 37.2815 51.9089C37.042 51.8078 36.7932 51.7028 36.6019 51.5283C36.5708 50.3322 36.9057 49.8833 37.7144 49.0772C37.8902 48.9027 38.0877 48.7149 38.2966 48.5161C38.9007 47.9414 39.6011 47.2751 40.1526 46.5745C40.9355 45.5801 41.5815 44.3348 41.5076 42.7693C41.4816 42.2293 41.2195 40.5356 40.8582 38.9921C40.6759 38.2129 40.4545 37.4106 40.2024 36.7763C40.0785 36.4644 39.9262 36.1387 39.7368 35.8663ZM37.8205 37.1898L37.8247 37.1959C37.837 37.2136 37.8522 37.238 37.8699 37.2697C37.9079 37.2906 37.9413 37.3093 37.9706 37.326C38.0561 37.393 38.1277 37.434 38.1422 37.4377C38.1566 37.4415 38.1139 37.4079 37.9706 37.326C37.9224 37.2882 37.8697 37.2422 37.8205 37.1898ZM37.8007 37.1656C37.8007 37.1656 37.8071 37.1757 37.8205 37.1898C37.8075 37.1716 37.8007 37.1656 37.8007 37.1656Z" fill="#FFA629"/>
<path fill-rule="evenodd" clip-rule="evenodd" d="M41.1819 36.2089C46.0806 38.7992 50.1944 42.8241 54.6604 47.1938L54.7703 47.301L54.774 47.2979C56.821 45.6366 59.6465 44.4363 63.4539 44.4363C66.9589 44.4363 69.2694 44.5818 70.7498 44.7901C70.8277 44.8011 70.9034 44.8122 70.9767 44.8235C71.4894 44.9025 71.8924 44.9894 72.2038 45.0801C72.2466 45.0925 72.2881 45.1052 72.3275 45.1178L72.9354 45.9526L72.9405 45.9587C72.5441 46.2905 72.0648 46.7345 71.5547 47.2709L71.5208 47.3066C69.5955 49.3412 67.2485 52.6919 67.2485 56.3978C67.2485 60.1159 69.6109 63.6127 71.5398 65.7036L71.5679 65.7341C72.0731 66.2794 72.5475 66.7273 72.9405 67.0566C73.2492 67.2817 73.2399 67.6066 72.3269 67.8985C72.2876 67.9111 72.2465 67.9236 72.2039 67.9361C71.8924 68.0267 71.4894 68.1136 70.9767 68.1926C70.9051 68.2036 70.8314 68.2145 70.7554 68.2252C69.2752 68.434 66.9633 68.5798 63.4539 68.5798C60.6175 68.5798 58.3261 67.6483 56.4955 66.2538C55.8666 65.7748 55.2921 65.2411 54.7686 64.6718C54.2935 65.3202 53.8205 65.9492 53.347 66.5581C49.6732 71.2828 45.9733 74.799 41.075 76.7915C41.8308 79.0632 42.8138 81.252 43.6969 82.984C43.9678 83.516 43.9191 84.117 43.6389 84.5856L43.636 84.5904C43.3509 85.0622 42.8494 85.3678 42.2619 85.3475C31.5309 84.9734 25.4124 82.4124 21.4735 79.3385C20.4449 78.5363 19.565 77.699 18.7903 76.8562C8.01441 73.3954 0 65.3422 0 55.9584C0 45.645 9.78063 36.9372 21.4177 34.1696C26.2775 30.178 32.3381 28.4683 42.2631 27.9775C42.9992 27.941 43.5559 28.3811 43.8116 28.8886C44.0634 29.3882 44.0846 30.0627 43.6872 30.6244C42.5994 32.162 41.9323 34.0582 41.1819 36.2089ZM27.0838 33.3169C27.7667 33.2734 28.4515 33.2512 29.1368 33.2512C32.8936 33.2512 36.1325 33.9694 39.0642 35.2037C39.6341 33.5666 40.2428 31.8778 41.0935 30.3755C34.929 30.7633 30.5536 31.6767 27.0838 33.3169ZM23.6693 78.0681C27.0189 80.4254 32.2109 82.4931 41.0888 82.9649C40.3328 81.3927 39.5307 79.5221 38.8757 77.5581C36.3969 78.2855 33.6154 78.6657 30.4091 78.6657C28.1143 78.6657 25.8555 78.4589 23.6693 78.0681ZM67.414 64.1424C67.8562 64.8424 68.3279 65.4946 68.802 66.0879C67.5198 66.1848 65.7804 66.2509 63.4539 66.2509C60.4191 66.2509 58.1813 64.942 56.483 63.0943C56.0115 62.582 55.335 62.3071 54.6393 62.346C53.9437 62.3848 53.3018 62.7326 52.8901 63.2946C49.7331 67.6032 46.8207 70.8218 43.3903 72.9893C40.0144 75.1226 35.977 76.3367 30.4091 76.3367C22.8316 76.3367 15.7185 73.9379 10.5494 70.1386C5.3711 66.3331 2.32895 61.2855 2.32895 55.9584C2.32895 50.6329 5.40687 45.5775 10.4672 41.7627C15.5159 37.9557 22.3087 35.5801 29.1368 35.5801C39.3362 35.5801 45.3069 41.3 53.0317 48.8582L53.1416 48.9669C53.9876 49.7945 55.32 49.855 56.2388 49.1098C57.8674 47.7869 60.1746 46.7653 63.4539 46.7653C65.754 46.7653 67.4802 46.8294 68.7581 46.9244C68.306 47.4782 67.8556 48.0851 67.4311 48.7372C66.1067 50.7711 64.9196 53.4277 64.9196 56.3978C64.9196 59.3587 66.0999 62.0618 67.414 64.1424Z" fill="#1A1A1A"/>
<path d="M72.3275 45.1178C73.239 45.4095 73.2487 45.7337 72.9405 45.9587L72.3275 45.1178Z" fill="#1A1A1A"/>
<path d="M21.6428 53.565C22.0618 53.016 22.797 52.9521 23.2849 53.4234C23.7727 53.8946 23.828 54.7218 23.4093 55.2707C22.1341 56.9417 20.6598 57.4297 19.2987 57.1368C18.047 56.8674 17.0666 55.9771 16.5301 55.2639C16.1146 54.7117 16.1757 53.8857 16.6665 53.4183C17.1574 52.9509 17.8916 53.0195 18.3071 53.5718C18.6153 53.9815 19.1596 54.4386 19.7354 54.5628C20.2021 54.6633 20.86 54.5908 21.6428 53.565Z" fill="#1A1A1A"/>
<path d="M5.88158 53.565C5.46266 53.016 4.72744 52.9521 4.23949 53.4234C3.75171 53.8946 3.69645 54.7218 4.11516 55.2707C5.39031 56.9417 6.86459 57.4297 8.22569 57.1368C9.47739 56.8674 10.4578 55.9771 10.9943 55.2639C11.4098 54.7117 11.3488 53.8857 10.8579 53.4183C10.367 52.9509 9.63279 53.0195 9.21731 53.5718C8.90907 53.9815 8.36485 54.4386 7.78901 54.5628C7.3223 54.6633 6.66438 54.5908 5.88158 53.565Z" fill="#1A1A1A"/>
<path d="M16.2497 58.8519C16.2497 60.1381 15.207 61.1808 13.9207 61.1808C12.6345 61.1808 11.5918 60.1381 11.5918 58.8519C11.5918 57.5657 12.6345 56.5229 13.9207 56.5229C15.207 56.5229 16.2497 57.5657 16.2497 58.8519Z" fill="#FFAFA3"/>
<path d="M15.0851 58.8519C15.0851 58.2088 14.5638 57.6875 13.9207 57.6875C13.2775 57.6875 12.7562 58.2088 12.7562 58.8519C12.7562 59.4951 13.2775 60.0164 13.9207 60.0164C14.5638 60.0164 15.0851 59.4951 15.0851 58.8519ZM17.4141 58.8519C17.4141 60.7813 15.85 62.3454 13.9207 62.3454C11.9913 62.3454 10.4272 60.7813 10.4272 58.8519C10.4272 56.9226 11.9913 55.3585 13.9207 55.3585C15.85 55.3585 17.4141 56.9226 17.4141 58.8519Z" fill="#1A1A1A"/>
</svg>
