<svg width="75" height="86" viewBox="0 0 75 86" fill="none" xmlns="http://www.w3.org/2000/svg">
<path d="M65.193 55.5035C68.4208 55.5035 71.0374 52.8874 71.0374 49.6597C71.0374 48.4766 71.0359 47.4489 70.6058 45.5004C70.1862 43.6001 69.3591 40.8179 67.7398 36.0749C66.9085 33.6405 63.4765 33.6358 62.6422 36.0718C61.0248 40.7962 60.1986 43.5799 59.7797 45.4864C59.3503 47.4395 59.3486 48.4782 59.3486 49.6597C59.3486 52.8874 61.9653 55.5035 65.193 55.5035Z" fill="#007BE5"/>
<path d="M58.1836 49.6602C58.1836 48.4389 58.1866 47.3054 58.6415 45.2361C59.0756 43.2609 59.9213 40.4249 61.5407 35.6949C62.7353 32.207 67.6522 32.2158 68.8418 35.6979L66.6371 36.4515C66.1638 35.0656 64.2183 35.0653 63.7439 36.4484C62.1285 41.1669 61.3198 43.8985 60.916 45.7364C60.5122 47.5732 60.5127 48.5186 60.5127 49.6602C60.513 52.2444 62.6078 54.3388 65.192 54.3391C67.7765 54.3391 69.8726 52.2446 69.8729 49.6602C69.8729 48.5175 69.8724 47.5834 69.468 45.7516C69.0635 43.9192 68.2546 41.1892 66.6371 36.4515L68.8418 35.6979C70.4627 40.4456 71.308 43.2816 71.7425 45.2497C72.1983 47.3145 72.2019 48.4369 72.2019 49.6602C72.2016 53.5308 69.0627 56.6679 65.192 56.6679C61.3215 56.6676 58.1839 53.5307 58.1836 49.6602Z" fill="#1A1A1A"/>
<path d="M68.0069 42.2716C69.3119 46.9813 69.2652 49.6407 68.8018 50.9806C68.0073 53.2799 63.3897 54.3142 63.3897 52.4884C63.3898 50.8972 66.3077 52.3454 67.2716 50.7804C68.4265 48.9067 68.1488 47.0606 68.0069 42.2716ZM64.4522 36.6681C64.9371 36.8218 63.6962 46.0161 62.3829 45.8205C61.5803 45.6978 63.8828 36.6711 64.4522 36.6681Z" fill="#BDE3FF"/>
</svg>
