<svg width="75" height="86" viewBox="0 0 75 86" fill="none" xmlns="http://www.w3.org/2000/svg">
<path d="M66.6358 66.5054C66.6358 76.95 55.0702 83.8142 38.0798 83.8142C21.0878 83.8142 11.5469 73.1802 11.5469 65.0972C11.5469 57.0158 15.9067 53.9028 20.4528 46.4719C25.0858 38.8981 25.904 29.3789 38.0798 29.3789C50.2555 29.3789 53.5844 40.3979 57.778 49.0026C60.4206 54.4259 66.6358 56.0609 66.6358 66.5054Z" fill="#7F699B"/>
<path d="M10.3823 65.0969C10.3824 60.8005 11.5554 57.7942 13.3011 54.9336C14.1577 53.53 15.1589 52.1511 16.1971 50.7017C17.2432 49.2413 18.3474 47.6822 19.4601 45.8634C20.5771 44.0372 21.4674 42.0888 22.3955 40.1108C23.3108 38.1602 24.2653 36.176 25.4811 34.4218C26.7076 32.6522 28.2226 31.0808 30.2845 29.9611C32.347 28.841 34.8797 28.2144 38.0795 28.2144C44.6101 28.2144 48.8052 31.209 51.8531 35.2649C54.8206 39.214 56.7937 44.3252 58.8247 48.4926L59.0567 48.9399C59.6198 49.9648 60.336 50.8664 61.1491 51.7859C62.0462 52.8002 63.1452 53.923 64.1119 55.1504C66.1401 57.7256 67.8009 60.9947 67.8009 66.5055C67.8008 72.2282 64.6076 76.8945 59.3296 80.0744C54.0784 83.238 46.7117 84.9779 38.0795 84.9779C20.6805 84.9778 10.3823 74.036 10.3823 65.0969ZM12.7113 65.0969C12.7113 72.3238 21.4948 82.6489 38.0795 82.649C46.4375 82.649 53.3496 80.9584 58.1288 78.079C62.8809 75.2158 65.4719 71.2271 65.4719 66.5055C65.4719 61.5718 64.0233 58.8001 62.2833 56.5908C61.3661 55.4264 60.4152 54.4714 59.4039 53.3279C58.4248 52.2206 57.4598 51.0091 56.7308 49.513C54.5683 45.0759 52.7802 40.3743 49.9911 36.6629C47.2822 33.0583 43.7244 30.5433 38.0795 30.5433C35.1916 30.5433 33.056 31.1065 31.3959 32.008C29.7354 32.9098 28.4736 34.1918 27.3946 35.7486C26.3048 37.3208 25.4247 39.1367 24.5031 41.1009C23.5945 43.0374 22.6455 45.1192 21.4463 47.0794C20.2861 48.9758 19.1392 50.5932 18.0894 52.0588C17.0318 53.5352 16.0904 54.8332 15.2889 56.1466C13.7182 58.7204 12.7113 61.3121 12.7113 65.0969Z" fill="#1A1A1A"/>
<path d="M22.7115 38.5426C25.8991 30.3634 33.4899 28.0407 37.2426 27.9475C47.4527 27.9475 52.7984 34.6798 54.9488 39.7926C55.4426 40.9679 54.2501 41.9756 53.0872 41.4554L42.9237 36.9L38.5763 43.7518C37.9615 44.7206 36.5424 44.7097 35.9415 43.7316L31.7525 36.9L24.6554 40.2195C23.491 40.7645 22.2442 39.7413 22.7115 38.5426Z" fill="#009951"/>
<path d="M37.2428 26.783C48.0807 26.783 53.7617 33.9644 56.0229 39.3405C56.4702 40.4058 56.1524 41.4836 55.4058 42.1364C54.725 42.7317 53.7385 42.9369 52.7994 42.5943L52.6114 42.5185L43.3669 38.3731L39.5596 44.3759C38.4828 46.0722 36.0013 46.0515 34.9502 44.341L34.9487 44.3395L31.3021 38.3943L25.1492 41.2737C24.1452 41.7436 23.0576 41.5477 22.3199 40.9234C21.5653 40.2849 21.2016 39.2112 21.627 38.1199C25.0379 29.3675 33.1572 26.8837 37.214 26.783H37.2428ZM37.264 29.1119C33.8125 29.2005 26.7587 31.3655 23.7967 38.966C23.7673 39.0416 23.7766 39.0756 23.7785 39.0827C23.7823 39.0964 23.7935 39.1206 23.824 39.1464C23.8841 39.197 24.002 39.2396 24.1621 39.1646L32.2013 35.4043L36.9335 43.122C37.0841 43.3673 37.4399 43.3687 37.593 43.128L42.4799 35.4255L53.5636 40.3927C53.7327 40.4684 53.8355 40.4162 53.8729 40.3836C53.8931 40.366 53.8963 40.3524 53.8972 40.3488C53.8978 40.3462 53.8999 40.3395 53.8987 40.326C53.8975 40.3125 53.8931 40.2853 53.8759 40.2442C51.8378 35.3982 46.8323 29.1212 37.264 29.1119Z" fill="#1A1A1A"/>
<path d="M36.0366 24.6187H42.7254L40.2784 31.2763L39.7459 31.489C39.0565 31.7654 38.291 31.7856 37.5893 31.5449L36.799 31.2763L36.0366 24.6187Z" fill="#009951"/>
<path d="M42.7246 23.4541C43.1049 23.4541 43.462 23.6397 43.6798 23.9514C43.8976 24.2635 43.9491 24.6632 43.8178 25.0204L41.3706 31.6782C41.2566 31.988 41.0161 32.235 40.7095 32.3575L40.1773 32.5682L40.1788 32.5697C39.2314 32.9495 38.1782 32.9784 37.2115 32.6471V32.6456L36.4246 32.3787C35.9983 32.2338 35.6935 31.8557 35.6422 31.4083L34.8796 24.7505C34.842 24.421 34.9469 24.0913 35.1676 23.8438C35.3886 23.5961 35.7045 23.4541 36.0365 23.4541H42.7246ZM37.8711 30.4106L37.9636 30.4425L37.9666 30.444C38.4034 30.5938 38.8819 30.5804 39.3131 30.4076L39.3646 30.3864L41.0567 25.783H37.3419L37.8711 30.4106Z" fill="#1A1A1A"/>
<path d="M41.2568 70.0298H34.2568L37.7568 64.7798L41.2568 70.0298Z" fill="#FFAFA3"/>
<path d="M41.2575 71.1943C41.6868 71.1942 42.0814 70.9572 42.284 70.5787C42.4863 70.2003 42.4643 69.7411 42.2264 69.3839L38.7254 64.1332C38.5093 63.8097 38.1455 63.6146 37.7565 63.6146C37.3675 63.6148 37.0035 63.8096 36.7876 64.1332L33.2881 69.3839C33.05 69.7412 33.0281 70.2002 33.2305 70.5787C33.4332 70.9574 33.8276 71.1943 34.257 71.1943H41.2575ZM37.7565 66.8806L39.0817 68.8654H36.4328L37.7565 66.8806Z" fill="#1A1A1A"/>
<path d="M41.9119 64.7922C42.1445 64.3361 42.7036 64.1528 43.1599 64.385C43.1609 64.3855 43.163 64.3875 43.1658 64.3889C43.1717 64.3919 43.1814 64.3973 43.1941 64.4036C43.2199 64.4162 43.2598 64.4341 43.3093 64.4573C43.409 64.504 43.5489 64.5679 43.7088 64.6331C44.0512 64.7727 44.403 64.8874 44.6404 64.9153C44.8674 64.9418 45.2212 64.9165 45.573 64.8674C45.7374 64.8445 45.8831 64.8197 45.9871 64.8C46.0389 64.7903 46.0811 64.7812 46.1082 64.7756C46.1207 64.773 46.1304 64.7701 46.1365 64.7688C46.1393 64.7682 46.1421 64.768 46.1433 64.7678C46.6436 64.6572 47.1401 64.9736 47.2507 65.4739C47.361 65.9739 47.0437 66.4687 46.5437 66.5793L46.5388 66.5813C46.5359 66.582 46.5308 66.5822 46.5261 66.5833L46.3318 66.6223C46.2061 66.646 46.0309 66.6774 45.8308 66.7053C45.4528 66.7581 44.9 66.814 44.4236 66.7581C43.9233 66.6992 43.3777 66.5004 43.0086 66.3499C42.8134 66.2703 42.6432 66.1956 42.5222 66.1389C42.462 66.1107 42.4124 66.0866 42.3777 66.0696C42.3603 66.061 42.3447 66.0531 42.3347 66.0481C42.3302 66.0459 42.3258 66.0446 42.323 66.0432L42.3181 66.0393L42.1599 65.9387C41.8224 65.6701 41.7091 65.1917 41.9119 64.7922ZM45.0173 60.554C46.042 60.554 46.8728 61.3847 46.8728 62.4094C46.8727 63.434 46.042 64.2648 45.0173 64.2649C43.9927 64.2649 43.162 63.4341 43.1619 62.4094C43.1619 61.3847 43.9926 60.554 45.0173 60.554Z" fill="#1A1A1A"/>
<path d="M32.612 64.7922C32.3795 64.3361 31.8204 64.1529 31.364 64.385C31.363 64.3855 31.3609 64.3875 31.3581 64.3889C31.3523 64.3918 31.3426 64.3973 31.3298 64.4036C31.304 64.4162 31.2641 64.4341 31.2146 64.4573C31.1149 64.5039 30.975 64.5679 30.8152 64.6331C30.4727 64.7727 30.1209 64.8874 29.8835 64.9153C29.6565 64.9419 29.3028 64.9166 28.9509 64.8674C28.7867 64.8445 28.6409 64.8197 28.5369 64.8C28.4851 64.7903 28.4428 64.7812 28.4158 64.7756C28.4031 64.773 28.3936 64.7701 28.3874 64.7688C28.3844 64.7682 28.3807 64.7681 28.3796 64.7678C27.8796 64.6575 27.3838 64.9738 27.2732 65.4739C27.1629 65.9738 27.4793 66.4686 27.9792 66.5793L27.9851 66.5813C27.988 66.5819 27.9924 66.5823 27.9968 66.5833L28.1921 66.6223C28.3178 66.646 28.4931 66.6774 28.6931 66.7053C29.0711 66.7581 29.6239 66.814 30.1003 66.7581C30.6006 66.6992 31.1462 66.5004 31.5154 66.3499C31.7106 66.2703 31.8808 66.1955 32.0017 66.1389C32.0619 66.1107 32.1115 66.0866 32.1462 66.0696C32.1635 66.0611 32.1783 66.0531 32.1882 66.0481C32.1928 66.0458 32.1971 66.0446 32.1999 66.0432L32.2058 66.0393L32.364 65.9387C32.7015 65.6701 32.8148 65.1917 32.612 64.7922ZM29.5066 60.554C28.4819 60.554 27.6511 61.3847 27.6511 62.4094C27.6512 63.4341 28.4819 64.2649 29.5066 64.2649C30.5312 64.2648 31.362 63.434 31.362 62.4094C31.362 61.3848 30.5312 60.5541 29.5066 60.554Z" fill="#1A1A1A"/>
</svg>
