<svg width="75" height="86" viewBox="0 0 75 86" fill="none" xmlns="http://www.w3.org/2000/svg">
<path d="M38.8762 84.3965C68.1743 83.1203 71.6398 61.7483 66.1295 50.883C60.6177 40.0176 44.9796 36.7866 38.8762 37.3176C21.4091 39.2336 9.31715 43.2022 6.451 57.2317C2.616 75.9984 19.1624 84.3965 38.8762 84.3965Z" fill="#0768CF"/>
<path d="M38.7758 36.1573C42.0373 35.8737 47.6533 36.59 53.1498 38.7425C58.6499 40.8964 64.2315 44.5686 67.1675 50.3554V50.3569C70.0832 56.1065 70.6163 64.5774 66.5716 71.8041C62.4877 79.1007 53.8727 84.9083 38.9275 85.5595L38.8759 84.3783V84.3965L38.9275 85.5595L38.9017 85.561H38.8759C28.8916 85.5609 19.5467 83.4405 13.1483 78.794C9.93347 76.4594 7.45237 73.4776 6.04016 69.8118C4.62805 66.146 4.31497 61.8714 5.31085 56.998C6.81704 49.6263 10.7851 44.8448 16.6372 41.7052C22.4115 38.6074 29.9932 37.1207 38.7485 36.1603L38.7758 36.1573L38.8759 37.3172L38.8789 37.3536L38.7758 36.1573ZM52.3007 40.9107C47.0898 38.8701 41.8494 38.2326 39.0017 38.4741C30.2911 39.4296 23.094 40.8858 17.7395 43.7582C12.4626 46.5892 8.95133 50.8077 7.59128 57.465C6.66978 61.9747 6.9868 65.788 8.21445 68.9748C9.44216 72.1616 11.611 74.7986 14.5175 76.9093C20.3576 81.1503 29.134 83.2275 38.8547 83.2305C53.1884 82.5991 60.9464 77.0872 64.5398 70.667C68.1747 64.1724 67.6861 56.5249 65.0917 51.4092C62.5158 46.3315 57.5229 42.9558 52.3007 40.9107Z" fill="#1A1A1A"/>
<path d="M50.4528 73.5591C56.3854 64.5384 55.8497 55.2412 54.4073 48.436C54.0238 46.6272 55.3187 44.9147 56.8605 45.9347C60.1645 48.1193 63.203 53.9851 64.6625 60.6428C65.1034 62.6534 65.1096 64.779 64.2852 66.6655C61.9019 72.123 56.3993 75.68 52.2662 77.2C49.4342 78.2418 48.7946 76.0791 50.4528 73.5591Z" fill="#034AC1"/>
<path d="M16.3706 37.2634H27.947L26.3944 33.0635L35.7102 36.4606L41.3462 33.0635L43.4733 37.2634L54.3418 34.1581L50.3096 39.5069L59.0649 41.8111L48.1312 45.0265L48.9681 51.2371L41.3462 45.9177L35.7102 53.448L31.7975 45.9177L19.1265 48.6721L26.3944 42.429L16.3706 37.2634Z" fill="#0768CF"/>
<path d="M40.8519 32.0096C41.1058 31.8905 41.3954 31.8662 41.6676 31.9444C41.9787 32.0338 42.2385 32.2485 42.3848 32.5373L44.0769 35.8775L54.022 33.0376C54.503 32.9003 55.0184 33.0862 55.3017 33.4986C55.5849 33.9112 55.5726 34.4589 55.2713 34.8586L52.2828 38.8221L59.3606 40.6855L59.0635 41.8091L59.065 41.8106L59.3606 40.6855C59.8661 40.8186 60.2218 41.2713 60.2295 41.7939C60.2369 42.3165 59.8953 42.7804 59.394 42.9281L49.4187 45.862L50.1222 51.0809L48.9668 51.2356L48.3012 52.1923L41.6039 47.5162L36.6428 54.1452C36.4028 54.4659 36.014 54.6419 35.6148 54.6092C35.2157 54.5764 34.8609 54.3398 34.6762 53.9845L35.7103 53.4477L35.7088 53.4462L34.6762 53.9845L31.1737 47.2433L19.3743 49.8103L19.1787 49.8361C18.725 49.8566 18.292 49.609 18.084 49.1917C17.8465 48.7145 17.9634 48.1365 18.3675 47.7891L24.3233 42.6718L15.8369 38.299C15.3592 38.0528 15.1129 37.5112 15.2395 36.9889C15.3662 36.4667 15.8332 36.0989 16.3706 36.0989H26.2763L25.3028 33.4667C25.1456 33.0412 25.2496 32.5631 25.5697 32.2416C25.8897 31.9204 26.3672 31.8134 26.7933 31.9687L35.5845 35.1755L40.7457 32.0657L40.8519 32.0096ZM50.1222 51.0809C50.1839 51.5388 49.9693 51.9911 49.5748 52.2317C49.1804 52.4723 48.6801 52.4567 48.3012 52.1923L48.9683 51.2371L50.1222 51.0809ZM36.3107 37.4575C36.0093 37.6391 35.6422 37.675 35.3115 37.5545L35.7103 36.4613H35.7088L35.3115 37.5545L28.3581 35.0193L29.0388 36.8601C29.1708 37.2173 29.12 37.6165 28.9024 37.929C28.6847 38.2414 28.328 38.4278 27.9471 38.4279H21.1741L26.9282 41.3936C27.2724 41.5711 27.5062 41.9082 27.5514 42.2928C27.5966 42.6775 27.4465 43.0593 27.1526 43.3117L23.3757 46.5564L31.5497 44.7794C32.0633 44.6677 32.5886 44.9149 32.831 45.3813L35.8877 51.2659L40.4137 45.2191C40.7901 44.7165 41.4984 44.6035 42.0133 44.9629L47.4597 48.7641L46.9775 45.1812L46.9684 44.9704C46.9916 44.483 47.3198 44.0511 47.8023 43.9091L54.724 41.8728L50.013 40.6325C49.6379 40.5336 49.3365 40.2545 49.2094 39.888C49.0824 39.5214 49.1457 39.1152 49.3792 38.8054L51.32 36.2308L43.7934 38.3824L43.4735 37.2619V37.2634L43.7934 38.3824C43.2568 38.5357 42.6871 38.2873 42.4348 37.7895L40.8731 34.707L36.3107 37.4575Z" fill="#1A1A1A"/>
<path d="M37.1046 44.6135C40.5345 44.6135 43.3151 43.3156 43.3151 41.7147C43.3151 40.1137 40.5345 38.8159 37.1046 38.8159C33.6746 38.8159 30.894 40.1137 30.894 41.7147C30.894 43.3156 33.6746 44.6135 37.1046 44.6135Z" fill="#034AC1"/>
<path d="M41.0527 66.9246H34.0527L37.5527 61.6746L41.0527 66.9246Z" fill="#FFAFA3"/>
<path d="M41.0534 68.0891C41.4827 68.0889 41.8773 67.852 42.0799 67.4735C42.2822 67.0951 42.2602 66.6358 42.0223 66.2787L38.5213 61.028C38.3052 60.7045 37.9414 60.5094 37.5524 60.5094C37.1634 60.5096 36.7994 60.7043 36.5835 61.028L33.084 66.2787C32.8459 66.6359 32.824 67.095 33.0264 67.4735C33.2291 67.8522 33.6235 68.0891 34.0529 68.0891H41.0534ZM37.5524 63.7754L38.8776 65.7602H36.2287L37.5524 63.7754Z" fill="#1A1A1A"/>
<path d="M41.761 60.8848C41.9936 60.4286 42.5527 60.2453 43.009 60.4775C43.01 60.478 43.0122 60.4801 43.0149 60.4814C43.0208 60.4844 43.0305 60.4898 43.0432 60.4961C43.069 60.5087 43.1089 60.5266 43.1585 60.5498C43.2581 60.5965 43.398 60.6604 43.5579 60.7256C43.9004 60.8652 44.2522 60.9799 44.4895 61.0078C44.7166 61.0344 45.0704 61.0091 45.4221 60.96C45.5865 60.937 45.7322 60.9122 45.8362 60.8926C45.888 60.8828 45.9302 60.8738 45.9573 60.8682C45.9699 60.8655 45.9795 60.8626 45.9856 60.8613C45.9884 60.8608 45.9912 60.8605 45.9924 60.8604C46.4927 60.7497 46.9892 61.0662 47.0999 61.5664C47.2101 62.0664 46.8929 62.5612 46.3928 62.6719L46.388 62.6738C46.385 62.6745 46.3799 62.6748 46.3753 62.6758L46.1809 62.7148C46.0553 62.7386 45.88 62.7699 45.6799 62.7979C45.302 62.8506 44.7491 62.9065 44.2727 62.8506C43.7724 62.7917 43.2268 62.5929 42.8577 62.4424C42.6625 62.3628 42.4923 62.2881 42.3713 62.2314C42.3111 62.2032 42.2615 62.1791 42.2268 62.1621C42.2094 62.1536 42.1938 62.1456 42.1838 62.1406C42.1794 62.1384 42.1749 62.1372 42.1721 62.1357L42.1672 62.1318L42.009 62.0312C41.6715 61.7626 41.5582 61.2842 41.761 60.8848ZM44.8665 56.6465C45.8911 56.6465 46.7219 57.4773 46.7219 58.502C46.7219 59.5266 45.8911 60.3574 44.8665 60.3574C43.8418 60.3574 43.0111 59.5266 43.011 58.502C43.011 57.4772 43.8418 56.6465 44.8665 56.6465Z" fill="#1A1A1A"/>
<path d="M32.4612 60.8848C32.2286 60.4286 31.6695 60.2455 31.2131 60.4775C31.2121 60.478 31.21 60.4801 31.2073 60.4814C31.2014 60.4844 31.1917 60.4898 31.1789 60.4961C31.1532 60.5087 31.1132 60.5266 31.0637 60.5498C30.9641 60.5965 30.8241 60.6604 30.6643 60.7256C30.3218 60.8652 29.97 60.9799 29.7327 61.0078C29.5057 61.0344 29.1519 61.0091 28.8 60.96C28.6358 60.937 28.49 60.9122 28.386 60.8926C28.3342 60.8828 28.292 60.8738 28.2649 60.8682C28.2522 60.8655 28.2427 60.8626 28.2366 60.8613C28.2335 60.8607 28.2298 60.8606 28.2287 60.8604C27.7287 60.75 27.233 61.0663 27.1223 61.5664C27.0121 62.0664 27.3285 62.5611 27.8284 62.6719L27.8342 62.6738C27.8371 62.6745 27.8415 62.6748 27.8459 62.6758L28.0412 62.7148C28.1669 62.7386 28.3422 62.7699 28.5422 62.7979C28.9203 62.8506 29.473 62.9065 29.9495 62.8506C30.4497 62.7917 30.9953 62.5929 31.3645 62.4424C31.5597 62.3628 31.7299 62.2881 31.8508 62.2314C31.911 62.2032 31.9606 62.1791 31.9953 62.1621C32.0126 62.1536 32.0274 62.1456 32.0373 62.1406C32.0419 62.1383 32.0462 62.1372 32.0491 62.1357L32.0549 62.1318L32.2131 62.0312C32.5507 61.7626 32.664 61.2842 32.4612 60.8848ZM29.3557 56.6465C28.331 56.6465 27.5002 57.4772 27.5002 58.502C27.5003 59.5266 28.331 60.3574 29.3557 60.3574C30.3803 60.3573 31.2111 59.5266 31.2112 58.502C31.2112 57.4773 30.3803 56.6466 29.3557 56.6465Z" fill="#1A1A1A"/>
</svg>
