<svg width="75" height="86" viewBox="0 0 75 86" fill="none" xmlns="http://www.w3.org/2000/svg">
<path d="M33.9922 33.3818C26.2756 33.3818 20.0092 39.1576 19.8617 46.3152C18.7391 45.9891 17.5451 45.8029 16.3046 45.8029C9.87203 45.8029 4.65985 50.6626 4.65985 56.6713C4.65985 58.8916 5.37717 60.9566 6.6053 62.68C2.67715 64.6363 0.00195312 68.5179 0.00195312 72.9739C0.00195312 79.4018 5.56193 84.6187 12.423 84.6187C12.791 84.6187 13.1543 84.6031 13.5145 84.5721C13.6837 84.6031 13.8561 84.6187 14.0346 84.6187H62.9223C62.972 84.6187 63.0202 84.6187 63.0698 84.6187C68.5568 84.5255 72.9756 80.3955 72.9756 75.3029C72.9756 70.8003 69.5086 67.0429 64.902 66.1734C66.0866 64.0463 66.7651 61.6087 66.7651 59.0003C66.7651 50.8489 60.1602 44.2503 52.0151 44.2503C50.624 44.2503 49.2794 44.4521 48.0047 44.8092C47.0747 38.3502 41.1576 33.3818 33.9922 33.3818Z" fill="#E5F4FF"/>
<path d="M59.7447 64.7761C63.3266 49.3585 53.6863 46.5327 46.833 45.5545L48.9073 45.0267L54.2841 44.3589C54.8306 44.2813 55.3849 44.359 55.8926 44.5763L60.0024 46.3464C60.3658 46.5016 60.6965 46.7191 60.9759 46.9985L64.8544 50.8801C65.0904 51.113 65.286 51.3925 65.4367 51.6875L65.8621 52.5413C65.9459 52.7121 66.0127 52.883 66.0655 53.0538L66.8899 55.864C67.0436 56.3919 67.056 56.9509 66.9272 57.4788L65.9863 61.3293L65.64 63.0682C65.3823 64.3569 65.9614 65.6611 67.0871 66.3443L68.6413 67.2758C68.9394 67.4466 69.2064 67.6796 69.4285 67.9435L72.1114 71.1574C72.661 71.825 72.9126 72.679 72.807 73.533L72.3133 77.4767C72.2372 78.0822 71.9856 78.6566 71.5882 79.1224L69.5123 81.529C68.9223 82.2277 68.0622 82.6158 67.157 82.6158H61.156C70.0076 76.2966 65.5857 71.2971 61.5426 68.8284C60.167 67.99 59.3798 66.3442 59.7447 64.7761Z" fill="#BDE3FF"/>
<path d="M2.32895 72.9738C2.32895 77.9733 6.70365 82.2896 12.4211 82.2896V84.6186L11.7812 84.6034C5.21892 84.291 0 79.2006 0 72.9738C0 68.5178 2.67671 64.6364 6.60475 62.6801C5.45303 61.0642 4.75033 59.1479 4.66699 57.0851L4.6579 56.6712C4.6579 50.6625 9.8718 45.8028 16.3026 45.8028C16.9463 45.8028 17.5783 45.8491 18.1934 45.9423C18.1929 45.8958 18.1888 45.8493 18.1888 45.8028C18.1888 38.0862 24.8917 31.8291 33.1602 31.8291L33.8516 31.8443C40.9493 32.1458 46.7565 37.0663 47.9178 43.4435C49.428 42.9622 51.0385 42.6975 52.7106 42.6975L53.5142 42.7172C61.7596 43.1355 68.3156 49.9537 68.3158 58.3012C68.3158 61.2045 67.5214 63.9219 66.143 66.2508C70.9525 67.229 74.5263 70.9088 74.5263 75.3028C74.5263 80.442 69.6256 84.6185 63.5791 84.6186V82.2896C68.7058 82.2896 72.1974 78.8272 72.1974 75.3028C72.1974 72.2752 69.6848 69.3402 65.6775 68.5328C64.9395 68.3776 64.3196 67.8816 64.0142 67.1833C63.709 66.5002 63.7562 65.7081 64.1401 65.056C65.3125 63.0842 65.9868 60.7699 65.9868 58.3012C65.9866 50.9729 60.0429 45.0265 52.7106 45.0265C51.2861 45.0265 49.9161 45.2596 48.6319 45.6633C47.9935 45.8649 47.297 45.7877 46.7215 45.4465C46.1456 45.1049 45.7468 44.5296 45.6268 43.862C44.6456 38.4744 39.5387 34.158 33.1602 34.158C26.0302 34.1581 20.5275 39.5052 20.5178 45.7861C20.5183 45.7962 20.5189 45.8093 20.5193 45.8179C20.5202 45.849 20.5219 45.8805 20.5223 45.9271C20.5297 46.6102 20.236 47.263 19.7202 47.7133C19.2045 48.1475 18.5182 48.349 17.8431 48.2561C17.3399 48.1784 16.8248 48.1317 16.3026 48.1317C11.0038 48.1317 6.98684 52.1065 6.98684 56.6712C6.98684 58.3791 7.53771 59.9783 8.50157 61.3291C8.8971 61.888 9.02898 62.5872 8.86395 63.2547C8.69884 63.9064 8.253 64.465 7.64338 64.7755C4.42034 66.3747 2.32895 69.4959 2.32895 72.9738Z" fill="#1A1A1A"/>
<path d="M13.9009 82.2745C13.9894 82.29 14.027 82.2896 14.0343 82.2896V84.6186C13.8565 84.6186 13.6823 84.6026 13.5127 84.5716C13.1532 84.6026 12.7888 84.6186 12.4211 84.6186V82.2896C12.7089 82.2896 13.0076 82.2737 13.3232 82.2426C13.516 82.2271 13.7101 82.2434 13.9009 82.2745Z" fill="#1A1A1A"/>
<path d="M62.9225 84.6186H14.0343V82.2896H62.9225V84.6186Z" fill="#1A1A1A"/>
<path d="M63.5791 82.2896V84.6186L63.3683 84.6171C63.2984 84.6151 63.2286 84.6112 63.1591 84.6034C63.0813 84.6189 63.0023 84.6186 62.9225 84.6186V82.2896H62.9877C63.0695 82.2741 63.1515 82.2745 63.2334 82.2745C63.381 82.29 63.4828 82.2896 63.5791 82.2896Z" fill="#1A1A1A"/>
<path d="M13.1992 69.0923C15.3428 69.0924 17.0801 70.8305 17.0801 72.9741C17.0799 75.1177 15.3428 76.8548 13.1992 76.855C11.0556 76.855 9.31752 75.1177 9.31738 72.9741C9.31738 70.8304 11.0555 69.0923 13.1992 69.0923ZM39.5938 69.0923C41.7375 69.0923 43.4756 70.8304 43.4756 72.9741C43.4754 75.1177 41.7374 76.855 39.5938 76.855C37.4501 76.855 35.7121 75.1177 35.7119 72.9741C35.7119 70.8304 37.45 69.0923 39.5938 69.0923Z" fill="#FFC7C2"/>
<path d="M30.7371 72.8548C31.3461 72.6494 32.0059 72.9766 32.2118 73.5855C32.4174 74.1947 32.0912 74.8563 31.482 75.0621C27.7443 76.3237 24.0381 76.1517 20.3492 75.095C19.731 74.9179 19.3741 74.2726 19.5513 73.6543C19.7286 73.0365 20.3724 72.6789 20.9905 72.8558C24.3317 73.813 27.5423 73.9331 30.7371 72.8548Z" fill="#1A1A1A"/>
<path d="M20.2167 69.458C19.7057 69.4584 19.2921 69.8727 19.2921 70.3838C19.2922 70.8948 19.7057 71.3093 20.2167 71.3095H22.6299C23.1411 71.3095 23.5556 70.8949 23.5557 70.3838C23.5557 69.8726 23.1411 69.4581 22.6299 69.458H20.2167Z" fill="#1A1A1A"/>
<path d="M31.9425 69.458C32.4535 69.4584 32.8671 69.8727 32.8671 70.3838C32.867 70.8948 32.4535 71.3093 31.9425 71.3095H29.5293C29.0181 71.3095 28.6036 70.8949 28.6035 70.3838C28.6035 69.8726 29.0181 69.4581 29.5293 69.458H31.9425Z" fill="#1A1A1A"/>
</svg>
