<svg width="75" height="86" viewBox="0 0 75 86" fill="none" xmlns="http://www.w3.org/2000/svg">
<path fill-rule="evenodd" clip-rule="evenodd" d="M40.1395 35.6855C45.5054 38.2364 49.8812 42.5177 54.6604 47.1938L54.7703 47.3009C56.8176 45.6381 59.6442 44.4363 63.4539 44.4363C72.7147 44.4363 73.637 45.4518 72.9405 45.9595C71.0431 47.5478 67.2485 51.6856 67.2485 56.3978C67.2485 61.1101 71.0431 65.4667 72.9405 67.0566C73.637 67.5643 72.7147 68.5798 63.4539 68.5798C59.6431 68.5798 56.8161 66.8983 54.7686 64.6718C50.3384 70.7177 46.0886 75.077 39.9846 77.2027C40.7673 79.5461 41.7735 81.7753 42.6595 83.5129C42.7378 83.6666 42.7267 83.8421 42.6395 83.988C42.556 84.1262 42.4366 84.1883 42.3023 84.1837C31.7467 83.8157 25.8861 81.3051 22.1896 78.4203C21.811 78.125 21.4533 77.8244 21.114 77.5199C9.18701 74.5268 0 66.0053 0 55.9584C0 44.8897 11.2657 35.6704 24.0013 33.6587C27.7436 31.3341 33.3249 29.4713 42.3023 29.1583C42.4366 29.1537 42.556 29.2158 42.6395 29.354C42.7268 29.4999 42.7378 29.6754 42.6595 29.8291C41.8309 31.4541 40.8972 33.5092 40.1395 35.6855Z" fill="#2C2C2C"/>
<path fill-rule="evenodd" clip-rule="evenodd" d="M41.1819 36.2089C46.0806 38.7992 50.1944 42.8241 54.6604 47.1938L54.7703 47.3009L54.774 47.2979C56.821 45.6366 59.6465 44.4363 63.4539 44.4363C66.9589 44.4363 69.2694 44.5818 70.7498 44.7901C70.8277 44.8011 70.9034 44.8122 70.9767 44.8235C71.4894 44.9025 71.8924 44.9894 72.2038 45.0801C72.2466 45.0925 72.2881 45.1052 72.3275 45.1178L72.9354 45.9526L72.9405 45.9586C72.5441 46.2905 72.0648 46.7345 71.5547 47.2709L71.5208 47.3066C69.5955 49.3412 67.2485 52.6919 67.2485 56.3978C67.2485 60.1159 69.6109 63.6127 71.5398 65.7036L71.5679 65.7341C72.0731 66.2793 72.5475 66.7273 72.9405 67.0566C73.2492 67.2817 73.2399 67.6066 72.3269 67.8985C72.2876 67.9111 72.2465 67.9236 72.2039 67.936C71.8924 68.0267 71.4894 68.1136 70.9767 68.1926C70.9051 68.2036 70.8314 68.2145 70.7554 68.2252C69.2752 68.4339 66.9633 68.5798 63.4539 68.5798C60.6175 68.5798 58.3261 67.6482 56.4955 66.2538C55.8666 65.7748 55.2921 65.2411 54.7686 64.6718C54.2935 65.3202 53.8205 65.9492 53.347 66.5581C49.6732 71.2828 45.9733 74.7989 41.075 76.7915C41.8308 79.0632 42.8138 81.2519 43.6969 82.9839C43.9678 83.516 43.9191 84.117 43.6389 84.5856L43.636 84.5904C43.3509 85.0621 42.8494 85.3678 42.2619 85.3474C31.5309 84.9733 25.4124 82.4124 21.4735 79.3385C20.4449 78.5363 19.565 77.6989 18.7903 76.8562C8.01441 73.3954 0 65.3422 0 55.9584C0 45.645 9.78063 36.9372 21.4177 34.1695C26.2775 30.178 32.3381 28.4683 42.2631 27.9774C42.9992 27.941 43.5559 28.381 43.8116 28.8886C44.0634 29.3882 44.0846 30.0626 43.6872 30.6243C42.5994 32.162 41.9323 34.0582 41.1819 36.2089ZM27.0838 33.3169C27.7667 33.2733 28.4515 33.2512 29.1368 33.2512C32.8936 33.2512 36.1325 33.9693 39.0642 35.2037C39.6341 33.5665 40.2428 31.8778 41.0935 30.3755C34.929 30.7633 30.5536 31.6766 27.0838 33.3169ZM23.6693 78.068C27.0189 80.4253 32.2109 82.4931 41.0888 82.9649C40.3328 81.3926 39.5307 79.5221 38.8757 77.558C36.3969 78.2855 33.6154 78.6656 30.4091 78.6656C28.1143 78.6656 25.8555 78.4589 23.6693 78.068ZM67.414 64.1423C67.8562 64.8423 68.3279 65.4946 68.802 66.0879C67.5198 66.1848 65.7804 66.2508 63.4539 66.2508C60.4191 66.2508 58.1813 64.9419 56.483 63.0943C56.0115 62.5819 55.335 62.3071 54.6393 62.3459C53.9437 62.3847 53.3018 62.7325 52.8901 63.2946C49.7331 67.6031 46.8207 70.8218 43.3903 72.9892C40.0144 75.1226 35.977 76.3367 30.4091 76.3367C22.8316 76.3367 15.7185 73.9379 10.5494 70.1386C5.3711 66.3331 2.32895 61.2855 2.32895 55.9584C2.32895 50.6329 5.40687 45.5775 10.4672 41.7627C15.5159 37.9556 22.3087 35.5801 29.1368 35.5801C39.3362 35.5801 45.3069 41.3 53.0317 48.8582L53.1416 48.9669C53.9876 49.7945 55.32 49.855 56.2388 49.1098C57.8674 47.7869 60.1746 46.7653 63.4539 46.7653C65.754 46.7653 67.4802 46.8294 68.7581 46.9243C68.306 47.4782 67.8556 48.085 67.4311 48.7371C66.1067 50.7711 64.9196 53.4276 64.9196 56.3978C64.9196 59.3587 66.0999 62.0618 67.414 64.1423Z" fill="#1A1A1A"/>
<path d="M72.3275 45.1178C73.239 45.4095 73.2487 45.7337 72.9405 45.9586L72.3275 45.1178Z" fill="#1A1A1A"/>
<path d="M51.619 56.2922C50.8597 59.0698 36.2386 66.6824 31.2438 65.3192C26.2505 63.956 27.7457 55.3094 28.5034 52.5301C29.2626 49.7525 31.7826 46.2668 36.7774 47.63C41.7722 48.9932 52.3767 53.513 51.619 56.2922Z" fill="#444444"/>
<path d="M21.6433 56.7595C22.0622 57.3084 22.7975 57.3723 23.2854 56.9011C23.7732 56.4298 23.8285 55.6027 23.4097 55.0537C22.1346 53.3827 20.6603 52.8947 19.2992 53.1876C18.0475 53.457 17.0671 54.3474 16.5306 55.0606C16.1151 55.6128 16.1761 56.4388 16.667 56.9062C17.1579 57.3736 17.8921 57.3049 18.3076 56.7527C18.6158 56.343 19.1601 55.8859 19.7359 55.7616C20.2026 55.6612 20.8605 55.7337 21.6433 56.7595Z" fill="#D9D9D9"/>
<path d="M9.22242 56.7595C9.64135 57.3084 10.3766 57.3723 10.8645 56.9011C11.3523 56.4298 11.4076 55.6027 10.9888 55.0537C9.7137 53.3827 8.23941 52.8947 6.87831 53.1876C5.62661 53.457 4.64622 54.3474 4.10966 55.0606C3.69419 55.6128 3.75525 56.4388 4.24612 56.9062C4.73701 57.3736 5.47121 57.3049 5.88669 56.7527C6.19493 56.343 6.73916 55.8859 7.31499 55.7616C7.78171 55.6612 8.43963 55.7337 9.22242 56.7595Z" fill="#D9D9D9"/>
<path fill-rule="evenodd" clip-rule="evenodd" d="M10.5456 57.7917C11.0251 57.363 11.7612 57.4043 12.1899 57.8837C13.0811 58.8807 14.6294 58.9182 15.5685 57.9652L15.6911 57.8411C16.1433 57.3838 16.8806 57.3796 17.3379 57.8317C17.7953 58.2839 17.7995 59.0212 17.3473 59.4785L17.2274 59.5998C17.2271 59.6001 17.2277 59.5995 17.2274 59.5998C15.3453 61.5089 12.2409 61.4352 10.4536 59.4359C10.0249 58.9565 10.0662 58.2203 10.5456 57.7917Z" fill="#D9D9D9"/>
</svg>
