<svg width="75" height="86" viewBox="0 0 75 86" fill="none" xmlns="http://www.w3.org/2000/svg">
<path d="M58.4 12.1441L52.186 26.0393C52.0214 26.4088 51.9919 26.8467 52.2714 27.1401C52.8195 27.7192 53.8226 28.1493 54.6471 28.4101C55.1424 28.5654 55.6718 28.4116 56.0228 28.0281C58.3177 25.5084 62.5923 19.5746 64.8484 16.3375C65.0564 16.041 65.1651 15.6792 65.0564 15.3346C64.5052 13.5895 62.1404 12.1736 60.2756 11.3662C59.5459 11.0511 58.7245 11.4191 58.4 12.1441Z" fill="#FFA629"/>
<path d="M57.3366 11.6682C57.8588 10.5015 59.1821 9.79506 60.4784 10.2005L60.7377 10.2976L61.5019 10.6493C62.2864 11.0327 63.1172 11.5089 63.8598 12.0684C64.8239 12.795 65.782 13.7681 66.1661 14.984L66.2374 15.2827C66.3485 15.9694 66.0963 16.5874 65.8022 17.0066C63.5555 20.23 59.238 26.2257 56.8832 28.8114L55.8445 27.8638L56.8817 28.8144C56.2395 29.5161 55.244 29.8175 54.2979 29.5209H54.2948C53.4506 29.2538 52.1942 28.7523 51.426 27.9411L51.4275 27.9396C50.6693 27.1414 50.8788 26.1129 51.1227 25.5653V25.5638L57.3366 11.6682ZM56.8832 28.8114L56.8817 28.8144L56.0219 28.0275L56.8832 28.8114ZM59.6414 12.4369C59.5749 12.4651 59.5047 12.5258 59.4625 12.6203L53.2653 26.475C53.6396 26.777 54.2954 27.0769 54.9939 27.2982C55.0208 27.3067 55.0483 27.3071 55.0742 27.2998C55.1011 27.292 55.1335 27.2751 55.1637 27.2421C57.3985 24.7877 61.6277 18.9228 63.8931 15.6723L63.8946 15.6693C63.9071 15.6516 63.9137 15.6338 63.9204 15.6208C63.7341 15.1073 63.2456 14.5229 62.4572 13.9288C61.6608 13.3287 60.6919 12.816 59.8127 12.4353V12.4338C59.7578 12.4105 59.7023 12.4111 59.6414 12.4369ZM52.2706 27.1406L52.263 27.1481L53.0333 26.4174L52.2706 27.1406Z" fill="#DD7C0E"/>
<path d="M67.5441 25.4866L59.6346 31.8039C59.3194 32.0554 59.116 32.4311 59.3132 32.7665C59.6377 33.3161 60.3535 33.9806 60.9249 34.4634C61.3395 34.8143 61.9279 34.8997 62.4543 34.7056C66.2258 33.3114 68.1092 32.4545 71.1852 31.0416C71.5485 30.874 71.8606 30.579 71.859 30.1924C71.8497 28.8945 70.5983 26.9289 69.5843 25.6403C69.0968 25.0193 68.1807 24.9789 67.5441 25.4866Z" fill="#FFA629"/>
<path d="M66.8184 24.5761C67.8713 23.7367 69.5447 23.7076 70.4985 24.9217C71.034 25.6024 71.6421 26.4704 72.1225 27.3582C72.5232 28.0989 72.9077 28.9799 73.0019 29.825L73.0231 30.1843V30.1874C73.0275 31.2648 72.1834 31.8639 71.6736 32.0992H71.6706L71.2354 31.1501L70.8821 30.3845L71.6706 32.0992C68.5844 33.5168 66.67 34.3879 62.8578 35.7971V35.7987C61.9744 36.1243 60.937 35.998 60.1739 35.3529L59.7084 34.9466C59.2088 34.4934 58.6392 33.9146 58.3103 33.3576L59.81 32.4737L59.3126 32.7663L58.3103 33.3576L58.3088 33.3561C57.9994 32.8295 58.0255 32.2698 58.1981 31.8294C58.3582 31.4212 58.6393 31.1082 58.9078 30.8939L66.8169 24.5761H66.8184ZM62.8062 35.6607L62.2649 34.1915L62.8062 35.6607ZM68.5439 26.3015C68.4683 26.2965 68.3643 26.32 68.2695 26.3955L60.5878 32.5313C60.7657 32.7357 60.9949 32.9663 61.2474 33.1969L61.6765 33.5745C61.7424 33.6302 61.8822 33.6746 62.0511 33.6124C65.7706 32.2374 67.623 31.3956 70.6729 29.9948C70.6143 29.6361 70.4232 29.1121 70.0739 28.4665C69.6729 27.7254 69.1464 26.9682 68.6683 26.3606V26.3591C68.6462 26.331 68.6124 26.306 68.5439 26.3015Z" fill="#DD7C0E"/>
</svg>
