<svg width="75" height="86" viewBox="0 0 75 86" fill="none" xmlns="http://www.w3.org/2000/svg">
<path d="M2.18945 36.0501L2.86389 26.6681L14.2804 27.4071L17.086 1.55255L43.4319 4.5102L38.7463 28.8867H49.4083L48.1987 38.4861L2.18945 36.0501Z" fill="#2C2C2C"/>
<path d="M15.2417 23.2882L14.751 27.7238L38.4622 29.2034L39.3404 24.7663L15.2417 23.2882Z" fill="#DC3412"/>
<path d="M17.615 0.395724L43.961 3.35375L44.0807 3.37346C44.3549 3.4337 44.5994 3.59116 44.7676 3.81921C44.9601 4.0803 45.0362 4.4103 44.9754 4.7289L40.5947 27.6608L50.5524 27.9716C50.8924 27.9821 51.2111 28.1401 51.4243 28.4052C51.6373 28.6703 51.7235 29.0156 51.6608 29.3498L49.9322 38.5468L48.7874 38.3315V38.333L49.9322 38.5468C49.8383 39.0464 49.4348 39.42 48.9466 39.4868L48.7328 39.4959L2.27286 37.2747C1.94989 37.2592 1.64752 37.1109 1.43889 36.8639C1.23027 36.6167 1.13466 36.2934 1.17353 35.9724L2.38659 25.9915L3.54202 26.1325V26.131L2.38659 25.9915C2.45378 25.4401 2.89704 25.0241 3.42981 24.9726L3.66181 24.9742L13.9136 26.0279L16.3261 1.43884L16.3716 1.21142C16.439 0.99145 16.5707 0.794362 16.7522 0.647406C16.9944 0.45135 17.3053 0.360957 17.615 0.395724ZM16.1183 27.4212C16.0881 27.7295 15.9367 28.0136 15.6968 28.2096C15.4569 28.4057 15.1483 28.4976 14.8401 28.4659L4.55947 27.4076L3.63451 35.0081L47.8291 37.1201L49.1195 30.2564L39.1603 29.9487L39.0329 29.9365C38.741 29.8953 38.4733 29.7445 38.2869 29.512C38.074 29.2462 37.9881 28.9004 38.0519 28.5659L42.4507 5.5264L18.5293 2.83977L16.1183 27.4212Z" fill="#1A1A1A"/>
</svg>
