<svg width="75" height="86" viewBox="0 0 75 86" fill="none" xmlns="http://www.w3.org/2000/svg">
<path d="M53.3808 15.0373C47.5226 14.0902 34.1327 15.0373 28.2746 30.1855L24.9609 44.177C27.4716 42.2844 33.2957 41.547 38.3169 41.547C55.0545 41.547 60.2149 44.3866 65.0969 44.3866C72.6288 25.4517 59.2389 15.9828 53.3808 15.0373Z" fill="#CFBFA8"/>
<path d="M58.7793 42.7676C58.6883 43.0079 58.5922 43.2477 58.4912 43.4854L57.0615 42.8789C57.1544 42.6604 57.2433 42.4391 57.3271 42.2178L58.7793 42.7676ZM46.8984 40.5908C46.8753 40.8437 46.8543 41.0974 46.834 41.3506L45.2871 41.2256C45.3079 40.9665 45.3298 40.7068 45.3535 40.4482L46.8984 40.5908ZM59.6465 39.8125C59.5387 40.313 59.414 40.8111 59.2695 41.3047L57.7783 40.8701C57.912 40.4137 58.0288 39.9505 58.1289 39.4854L59.6465 39.8125ZM33.6348 39.666C33.6083 39.9109 33.5852 40.1563 33.5654 40.4023L32.0186 40.2783C32.0395 40.018 32.0638 39.7582 32.0918 39.499L33.6348 39.666ZM47.2432 37.5586C47.1753 38.0615 47.1121 38.5671 47.0547 39.0732L45.5127 38.8975C45.5714 38.3805 45.6348 37.8641 45.7041 37.3506L47.2432 37.5586ZM60.0898 36.7793C60.0487 37.2879 59.9913 37.7961 59.918 38.3018L58.3818 38.0781C58.4503 37.606 58.5024 37.1307 58.541 36.6533L60.0898 36.7793ZM34.1152 36.7441C34.0082 37.2258 33.9152 37.7109 33.835 38.1982L32.3037 37.9463C32.3886 37.4306 32.4873 36.9169 32.6006 36.4072L34.1152 36.7441ZM47.7129 34.543C47.6246 35.0418 47.5416 35.5438 47.4629 36.0479L45.9287 35.8086C46.0091 35.2938 46.0944 34.7808 46.1846 34.2715L47.7129 34.543ZM34.918 33.8936C34.7581 34.3614 34.612 34.8339 34.4785 35.3086L32.9834 34.8887C33.1247 34.3863 33.2791 33.8865 33.4482 33.3916L34.918 33.8936ZM60.1611 33.7275C60.177 34.235 60.1803 34.7437 60.1689 35.252L58.6162 35.2178C58.627 34.7382 58.6235 34.2565 58.6084 33.7754L60.1611 33.7275ZM48.3076 31.5469C48.1993 32.0412 48.0945 32.5402 47.9951 33.042L46.4727 32.7402C46.574 32.2283 46.6795 31.7192 46.79 31.2148L48.3076 31.5469ZM36.0273 31.1484C35.8172 31.5971 35.6191 32.0502 35.4346 32.5068L33.9961 31.9248C34.191 31.4425 34.3992 30.9638 34.6211 30.4902L36.0273 31.1484ZM59.917 30.6963C59.9809 31.1975 60.0332 31.7024 60.0742 32.208L58.5264 32.334C58.4874 31.8531 58.437 31.3722 58.376 30.8936L59.917 30.6963ZM49.0205 28.5801C48.8925 29.0683 48.7682 29.5623 48.6484 30.0605L47.1387 29.6973C47.261 29.1885 47.3878 28.6843 47.5186 28.1855L49.0205 28.5801ZM37.4258 28.5342C37.1689 28.9593 36.9246 29.3892 36.6924 29.8232L35.3223 29.0908C35.5673 28.6328 35.8249 28.1787 36.0957 27.7305L37.4258 28.5342ZM59.4072 27.709C59.5113 28.2004 59.6071 28.6979 59.6924 29.1973L58.1621 29.459C58.0804 28.9806 57.9896 28.5043 57.8896 28.0322L59.4072 27.709ZM39.0879 26.0752C38.7887 26.4732 38.5003 26.8756 38.2246 27.2832L36.9395 26.415C37.2298 25.9858 37.533 25.5611 37.8477 25.1426L39.0879 26.0752ZM49.8555 25.6445C49.7074 26.1251 49.5644 26.6137 49.4238 27.1074L47.9297 26.6816C48.0732 26.1775 48.2217 25.6796 48.373 25.1885L49.8555 25.6445ZM58.6738 24.7783C58.8122 25.2582 58.944 25.7452 59.0674 26.2373L57.5605 26.6152C57.4417 26.1413 57.3152 25.6711 57.1816 25.208L58.6738 24.7783ZM40.9873 23.7871C40.6505 24.1557 40.3244 24.5304 40.0098 24.9092L38.8145 23.918C39.1449 23.5202 39.4886 23.1277 39.8418 22.7412L40.9873 23.7871ZM50.8203 22.752C50.6508 23.2233 50.484 23.7047 50.3213 24.1934L48.8486 23.7021C49.0152 23.202 49.1856 22.7097 49.3594 22.2266L50.8203 22.752ZM57.7422 21.9082C57.9103 22.3748 58.0753 22.851 58.2324 23.335L56.7549 23.8145C56.603 23.3466 56.445 22.8861 56.2822 22.4346L57.7422 21.9082ZM43.0938 21.6826C42.7241 22.0202 42.3645 22.3636 42.0156 22.7119L40.9189 21.6143C41.2843 21.2495 41.6613 20.8892 42.0479 20.5361L43.0938 21.6826ZM51.9238 19.916C51.731 20.3742 51.5405 20.845 51.3535 21.3262L49.9053 20.7637C50.0974 20.2694 50.2936 19.7844 50.4922 19.3125L51.9238 19.916ZM56.6328 19.1055C56.8278 19.5565 57.0205 20.0211 57.209 20.4971L55.7646 21.0684C55.5822 20.6076 55.3958 20.1573 55.207 19.7207L56.6328 19.1055ZM45.3789 19.7695C44.9815 20.0751 44.5939 20.3865 44.2158 20.7031L43.2178 19.5127C43.6127 19.182 44.0181 18.8568 44.4326 18.5381L45.3789 19.7695ZM47.8154 18.0459C47.3949 18.3194 46.9827 18.5981 46.5801 18.8828L45.6836 17.6152C46.1031 17.3187 46.5322 17.0277 46.9697 16.7432L47.8154 18.0459ZM53.1885 17.1582C52.9684 17.5977 52.7489 18.0551 52.5332 18.5264L51.1221 17.8789C51.3448 17.3922 51.5713 16.9201 51.7998 16.4639L53.1885 17.1582ZM55.3477 16.376C55.5688 16.8087 55.7925 17.261 56.0137 17.7314L54.6084 18.3926C54.3946 17.9377 54.18 17.5004 53.9668 17.083L55.3477 16.376ZM50.3828 16.5078C49.942 16.7505 49.5092 16.999 49.085 17.2529L48.2871 15.9209C48.7274 15.6574 49.1769 15.4 49.6338 15.1484L50.3828 16.5078ZM54.6367 15.042L54.1943 15.2891C54.0932 15.4635 53.9913 15.6415 53.8906 15.8232L53.5625 15.6416L53.2812 15.7988C53.1937 15.6418 53.1048 15.4897 53.0186 15.3408L52.5322 15.0703C52.6614 14.837 52.7915 14.6086 52.9219 14.3857L53.5918 14.7793L54.2627 14.3857C54.3861 14.5966 54.5107 14.816 54.6367 15.042ZM52.3779 15.4775C52.1521 15.587 51.928 15.6982 51.7061 15.8105L51.0049 14.4248C51.235 14.3084 51.4682 14.1925 51.7021 14.0791L52.3779 15.4775Z" fill="#A7977E"/>
<path d="M53.1294 10.4802L55.2554 10.7702C56.7145 10.9688 57.7721 12.3167 57.6167 13.7809C57.5644 14.2722 57.3792 14.7121 57.105 15.0749C59.8833 16.4232 62.978 18.8397 65.2378 22.3337C68.5968 27.5272 70.0729 35.0282 66.1792 44.8171L66.1021 44.9763C65.8955 45.3287 65.5144 45.5503 65.0972 45.5505C63.7574 45.5505 62.1088 45.2939 60.2642 44.9548C58.3743 44.6073 56.2766 44.1742 53.8638 43.7604C49.0814 42.9402 43.2902 42.2453 36.7251 42.7097C35.0358 42.829 32.7925 42.9653 30.6568 43.3024C28.4669 43.6482 26.6347 44.1731 25.6314 44.9294L25.4781 45.0261C25.1068 45.2238 24.6511 45.2074 24.2915 44.9714C23.8809 44.7013 23.6848 44.203 23.8003 43.7253L27.1421 29.9118C27.1541 29.8624 27.1707 29.8137 27.189 29.7663C30.2358 21.8879 35.2823 17.6322 40.3775 15.5017C43.8911 14.0326 47.3985 13.5864 50.2495 13.6179C50.192 13.346 50.174 13.062 50.2046 12.7731C50.3604 11.3091 51.6703 10.282 53.1294 10.4802ZM53.1949 16.1872C50.4309 15.7404 45.8464 15.7396 41.2769 17.6501C36.7618 19.5379 32.1995 23.3139 29.3863 30.5407L26.646 41.8561C27.794 41.4617 29.0679 41.1953 30.2945 41.0017C32.5516 40.6453 34.9096 40.5021 36.5611 40.3854C43.3854 39.9028 49.3801 40.6283 54.2564 41.4645C56.6726 41.8789 58.8737 42.3328 60.6841 42.6657C62.1266 42.9309 63.3279 43.1187 64.3081 43.1901C67.5682 34.4353 66.1172 27.9824 63.2818 23.5983C60.3106 19.0046 55.7773 16.6041 53.1949 16.1872Z" fill="#1A1A1A"/>
<path d="M26.9584 29.0677C21.8104 31.5999 20.2358 36.5029 24.8926 44.3696C26.9584 43.4226 32.8921 41.7893 37.4457 41.53C43.7961 41.1667 47.4881 41.53 55.0199 42.4771C49.8847 26.9951 32.1065 26.5339 26.9584 29.0677Z" fill="#C4B091"/>
<path d="M32.7597 26.7531C35.3458 26.6787 38.337 26.9963 41.3315 27.9024C47.3384 29.72 53.4139 33.933 56.1262 42.1103C56.252 42.4897 56.1738 42.9082 55.9199 43.2171C55.6662 43.5256 55.2716 43.6822 54.8752 43.6325L55.0208 42.4772H55.0192L54.8752 43.6325C47.3646 42.6881 43.7552 42.3353 37.5119 42.6925C35.3302 42.8167 32.7828 43.2739 30.511 43.8235C28.2259 44.3764 26.3102 45.0005 25.3783 45.4276C24.8364 45.676 24.1944 45.4751 23.8908 44.9622C21.4966 40.9175 20.5763 37.4304 21.1023 34.5113C21.6401 31.527 23.6363 29.405 26.4443 28.0237C27.9373 27.2888 30.1986 26.8269 32.7597 26.7531ZM32.8264 29.0804C30.4459 29.149 28.5533 29.5809 27.4723 30.1129C25.1329 31.2638 23.7672 32.8589 23.3949 34.9252C23.0407 36.8922 23.5446 39.5099 25.401 42.9047C26.5772 42.4694 28.1982 41.9867 29.9621 41.5599C32.3117 40.9914 35.0083 40.5033 37.3799 40.3682C43.265 40.0316 46.9225 40.3125 53.2421 41.0838C50.5866 34.9259 45.653 31.6429 40.6567 30.1311C37.9213 29.3035 35.182 29.0126 32.8264 29.0804Z" fill="#1A1A1A"/>
</svg>
