<svg width="75" height="86" viewBox="0 0 75 86" fill="none" xmlns="http://www.w3.org/2000/svg">
<path d="M32.6293 35.9678C26.7709 35.0208 13.3819 35.9679 7.52355 51.116L4.2832 65.0827C6.79378 63.1886 12.545 62.4776 17.5665 62.4776C34.3031 62.4776 39.4643 65.3171 44.346 65.3171C51.8782 46.3823 38.4877 36.9133 32.6293 35.9678Z" fill="#CFBFA8" stroke="#1A1A1A" stroke-width="2.74597" stroke-linejoin="round"/>
<path d="M34.4226 32.4721L32.296 32.183C31.2615 32.0424 30.3335 32.7699 30.2232 33.808C30.113 34.8461 30.8622 35.8016 31.8968 35.9422L34.0233 36.2313C35.0578 36.372 35.9858 35.6444 36.0961 34.6063C36.2063 33.5682 35.4571 32.6127 34.4226 32.4721Z" fill="#1A1A1A" stroke="#1A1A1A" stroke-width="1.83065"/>
<path d="M32.8408 35.7086C36.3406 41.6906 41.2254 54.232 37.0254 64.1124" stroke="#A7977E" stroke-width="1.83065" stroke-dasharray="1.83 1.83"/>
<path d="M32.8408 35.7086C29.341 41.6906 26.1455 51.8039 25.3086 62.2184" stroke="#A7977E" stroke-width="1.83065" stroke-dasharray="1.83 1.83"/>
<path d="M31.2874 35.7086C19.5707 41.3894 12.8769 50.8568 12.04 61.2713" stroke="#A7977E" stroke-width="1.83065" stroke-dasharray="1.83 1.83"/>
<path d="M32.6292 35.9678C26.7709 35.0208 13.3819 35.9679 7.52348 51.116L4.31543 65.1464C6.82631 63.2538 12.5512 62.7135 15.8926 62.4776C29.2816 61.5305 39.4642 65.3171 44.346 65.3171C51.8782 46.3823 38.4876 36.9133 32.6292 35.9678Z" stroke="#1A1A1A" stroke-width="2.74597" stroke-linejoin="round"/>
<path d="M6.20743 49.9981C1.05943 52.5303 -0.515171 57.4333 4.14156 65.3001C6.20743 64.353 12.1413 62.7198 16.6954 62.4605C23.0444 62.0972 26.7367 62.4605 34.2689 63.406C29.1341 47.9256 11.3556 47.4644 6.20743 49.9981Z" fill="#C4B091" stroke="#1A1A1A" stroke-width="2.74597" stroke-linejoin="round"/>
<path d="M33.4091 35.9963C27.5509 35.0492 14.161 35.9963 8.30289 51.1445L4.98926 65.136C7.49988 63.2434 13.3241 62.506 18.3452 62.506C35.0828 62.506 40.2432 65.3456 45.1252 65.3456C52.6571 46.4107 39.2672 36.9418 33.4091 35.9963Z" fill="#CFBFA8"/>
<path d="M38.8076 63.7269C38.7167 63.9671 38.6205 64.2062 38.5195 64.4437L37.0898 63.8373C37.1827 63.6189 37.2707 63.3974 37.3545 63.1761L38.8076 63.7269ZM26.9268 61.5502C26.9036 61.8028 26.8817 62.056 26.8613 62.309L25.3145 62.1849C25.3353 61.9259 25.3582 61.6662 25.3818 61.4076L26.9268 61.5502ZM39.6748 60.7719C39.567 61.2724 39.4414 61.7704 39.2969 62.264L37.8066 61.8285C37.9403 61.3721 38.0571 60.9097 38.1572 60.4447L39.6748 60.7719ZM13.6631 60.6244C13.6366 60.8694 13.6126 61.1155 13.5928 61.3617L12.0469 61.2377C12.0678 60.9775 12.0911 60.7174 12.1191 60.4584L13.6631 60.6244ZM27.2705 58.517C27.2027 59.0198 27.1404 59.5256 27.083 60.0316L25.541 59.8558C25.5997 59.3391 25.6622 58.8232 25.7314 58.3099L27.2705 58.517ZM40.1172 57.7377C40.076 58.2463 40.0196 58.7545 39.9463 59.2601L38.4102 59.0375C38.4786 58.5653 38.5307 58.09 38.5693 57.6127L40.1172 57.7377ZM14.1436 57.7035C14.0365 58.1851 13.9435 58.6703 13.8633 59.1576L12.332 58.9056C12.4169 58.3899 12.5156 57.8763 12.6289 57.3666L14.1436 57.7035ZM27.7412 55.5013C27.6529 56.0004 27.5699 56.503 27.4912 57.0072L25.9561 56.7679C26.0364 56.2532 26.1227 55.7402 26.2129 55.2308L27.7412 55.5013ZM14.9453 54.8529C14.7855 55.3205 14.6393 55.7925 14.5059 56.267L13.0107 55.847C13.152 55.3448 13.3074 54.8457 13.4766 54.351L14.9453 54.8529ZM40.1885 54.6859C40.2044 55.1937 40.2077 55.7028 40.1963 56.2113L38.6436 56.1761C38.6543 55.6967 38.6508 55.2157 38.6357 54.7347L40.1885 54.6859ZM28.335 52.5062C28.2267 53.0003 28.1227 53.4989 28.0234 54.0004L26.501 53.6986C26.6023 53.187 26.707 52.6783 26.8174 52.1742L28.335 52.5062ZM16.0557 52.1068C15.8454 52.5555 15.6474 53.0086 15.4629 53.4652L14.0234 52.8832C14.2184 52.4009 14.4266 51.9222 14.6484 51.4486L16.0557 52.1068ZM39.9443 51.6556C40.0082 52.1566 40.0615 52.6611 40.1025 53.1664L38.5537 53.2924C38.5147 52.8115 38.4653 52.3304 38.4043 51.8519L39.9443 51.6556ZM29.0479 49.5385C28.9198 50.0268 28.7966 50.5215 28.6768 51.0199L27.166 50.6556C27.2883 50.147 27.4162 49.6435 27.5469 49.1449L29.0479 49.5385ZM17.4541 49.4935C17.1973 49.9186 16.9519 50.3477 16.7197 50.7816L15.3506 50.0492C15.5956 49.5913 15.8533 49.1379 16.124 48.6898L17.4541 49.4935ZM39.4355 48.6683C39.5396 49.1597 39.6344 49.6563 39.7197 50.1556L38.1904 50.4183C38.1087 49.9399 38.017 49.4637 37.917 48.9916L39.4355 48.6683ZM19.1152 47.0336C18.8161 47.4316 18.5286 47.8349 18.2529 48.2426L16.9668 47.3734C17.257 46.9443 17.5605 46.5204 17.875 46.1019L19.1152 47.0336ZM29.8838 46.6039C29.7357 47.0844 29.5917 47.5731 29.4512 48.0668L27.958 47.64C28.1015 47.1359 28.2491 46.6379 28.4004 46.1469L29.8838 46.6039ZM38.7012 45.7377C38.8395 46.2176 38.9723 46.7046 39.0957 47.1967L37.5879 47.5736C37.469 47.0997 37.3425 46.6295 37.209 46.1664L38.7012 45.7377ZM21.0156 44.7465C20.6788 45.115 20.3518 45.4897 20.0371 45.8685L18.8428 44.8763C19.1732 44.4786 19.516 44.086 19.8691 43.6996L21.0156 44.7465ZM30.8477 43.7103C30.6781 44.1818 30.5114 44.6639 30.3486 45.1527L28.877 44.6615C29.0435 44.1614 29.2139 43.669 29.3877 43.1859L30.8477 43.7103ZM37.7705 42.8676C37.9387 43.3342 38.1026 43.8103 38.2598 44.2943L36.7832 44.7738C36.6313 44.306 36.4723 43.8454 36.3096 43.3939L37.7705 42.8676ZM23.1221 42.642C22.7524 42.9796 22.3928 43.323 22.0439 43.6713L20.9473 42.5736C21.3126 42.2089 21.6887 41.8485 22.0752 41.4955L23.1221 42.642ZM31.9521 40.8754C31.7593 41.3336 31.5689 41.8043 31.3818 42.2855L29.9336 41.723C30.1257 41.2287 30.3219 40.7438 30.5205 40.2719L31.9521 40.8754ZM36.6602 40.0638C36.8552 40.515 37.0478 40.9804 37.2363 41.4564L35.793 42.0277C35.6105 41.5669 35.4241 41.1167 35.2354 40.6801L36.6602 40.0638ZM25.4072 40.7279C25.0098 41.0335 24.6222 41.3459 24.2441 41.6625L23.2461 40.472C23.641 40.1413 24.0465 39.8162 24.4609 39.4974L25.4072 40.7279ZM27.8438 39.0043C27.4231 39.2779 27.0102 39.5564 26.6074 39.8412L25.7119 38.5736C26.1311 38.2772 26.5599 37.9869 26.9971 37.7025L27.8438 39.0043ZM33.2168 38.1176C32.9967 38.5569 32.7771 39.0136 32.5615 39.4847L31.1494 38.8373C31.3721 38.3508 31.5987 37.8793 31.8271 37.4232L33.2168 38.1176ZM35.376 37.3353C35.5971 37.7681 35.8209 38.2203 36.042 38.6908L34.6357 39.3519C34.4219 38.897 34.2074 38.4588 33.9941 38.0414L35.376 37.3353ZM30.4102 37.4672C29.9695 37.7098 29.5364 37.9575 29.1123 38.2113L28.3154 36.8802C28.7556 36.6168 29.2043 36.3583 29.6611 36.1068L30.4102 37.4672ZM34.665 36.0013L34.2227 36.2484C34.1215 36.4228 34.0186 36.5999 33.918 36.7816L33.5898 36.601L33.3096 36.7572C33.2221 36.6004 33.133 36.4489 33.0469 36.3002L32.5596 36.0297C32.6888 35.7962 32.8187 35.5672 32.9492 35.3441L33.6191 35.7377L34.29 35.3441C34.4135 35.5551 34.5389 35.7753 34.665 36.0013ZM32.4062 36.4359C32.1803 36.5455 31.9565 36.6575 31.7344 36.7699L31.0322 35.3842C31.2623 35.2677 31.4955 35.1519 31.7295 35.0385L32.4062 36.4359Z" fill="#A7977E"/>
<path d="M33.1587 31.4396L35.2847 31.7286C36.7438 31.9273 37.8006 33.2761 37.6451 34.7403C37.5927 35.232 37.408 35.6723 37.1334 36.0353C39.9117 37.3836 43.0073 39.7991 45.2671 43.2931C48.6259 48.4866 50.102 55.987 46.2086 65.7755L46.1314 65.9347C45.9247 66.2874 45.543 66.5099 45.1255 66.5099C43.7859 66.5099 42.1378 66.2533 40.2935 65.9142C38.4036 65.5667 36.3058 65.1327 33.8931 64.7189C29.1107 63.8987 23.3187 63.2037 16.7535 63.6681C15.0642 63.7874 12.8206 63.9237 10.6851 64.2609C8.49555 64.6066 6.66395 65.1316 5.6607 65.8878L5.50738 65.9845C5.13597 66.1825 4.67962 66.167 4.31988 65.9308C3.90925 65.6607 3.71313 65.1614 3.82867 64.6837L7.17047 50.8702C7.18247 50.8207 7.19896 50.7723 7.21734 50.7247C10.2642 42.8462 15.3116 38.5915 20.4068 36.4611C23.9206 34.9919 27.4277 34.5457 30.2789 34.5773C30.2212 34.3052 30.2033 34.0207 30.2339 33.7316C30.3899 32.2676 31.6997 31.2412 33.1587 31.4396ZM33.2242 37.1466C30.4603 36.6998 25.8759 36.699 21.3062 38.6095C16.7912 40.4972 12.2279 44.2725 9.41461 51.4991L6.67535 62.8146C7.82308 62.4202 9.09652 62.1547 10.3228 61.9611C12.5801 61.6047 14.9388 61.4605 16.5904 61.3439C23.4147 60.8613 29.4095 61.5877 34.2857 62.4239C36.7019 62.8383 38.9031 63.2913 40.7134 63.6241C42.1559 63.8894 43.3572 64.0772 44.3375 64.1486C47.5973 55.3938 46.1465 48.9407 43.3111 44.5568C40.3399 39.9632 35.8066 37.5636 33.2242 37.1466Z" fill="#1A1A1A"/>
<path d="M6.98676 50.0267C1.83868 52.5589 0.264139 57.4619 4.92088 65.3286C6.98676 64.3815 12.9204 62.7483 17.474 62.489C23.8244 62.1257 27.5164 62.489 35.0482 63.4361C29.9131 47.9541 12.1348 47.4929 6.98676 50.0267Z" fill="#C4B091"/>
<path d="M12.788 47.7121C15.3741 47.6376 18.3654 47.9553 21.3598 48.8614C27.3667 50.679 33.4422 54.8919 36.1545 63.0693C36.2803 63.4487 36.2021 63.8672 35.9483 64.1761C35.6945 64.4846 35.2999 64.6412 34.9035 64.5915L35.0491 63.4362H35.0476L34.9035 64.5915C27.393 63.6471 23.7835 63.2943 17.5402 63.6515C15.3585 63.7757 12.8112 64.2329 10.5393 64.7825C8.25424 65.3354 6.33849 65.9595 5.40661 66.3866C4.86474 66.635 4.22273 66.4341 3.9191 65.9212C1.52492 61.8765 0.604641 58.3894 1.13059 55.4703C1.66844 52.486 3.66467 50.3639 6.47258 48.9826C7.96567 48.2478 10.2269 47.7859 12.788 47.7121ZM12.8548 50.0394C10.4742 50.108 8.58158 50.5399 7.50064 51.0719C5.16119 52.2227 3.79557 53.8178 3.42327 55.8842C3.06903 57.8512 3.57294 60.4689 5.42935 63.8637C6.60553 63.4284 8.22652 62.9457 9.99043 62.5189C12.3401 61.9504 15.0366 61.4622 17.4083 61.3272C23.2933 60.9906 26.9508 61.2715 33.2704 62.0428C30.615 55.8849 25.6813 52.6019 20.685 51.0901C17.9496 50.2624 15.2103 49.9716 12.8548 50.0394Z" fill="#1A1A1A"/>
</svg>
