<svg width="75" height="86" viewBox="0 0 75 86" fill="none" xmlns="http://www.w3.org/2000/svg">
<path d="M38.8762 84.3963C68.1743 83.12 71.6398 61.748 66.1295 50.8827C60.6177 40.0174 44.9796 36.7864 38.8762 37.3174C21.4091 39.2333 9.31715 43.2019 6.451 57.2315C2.616 75.9982 19.1624 84.3963 38.8762 84.3963Z" fill="#0768CF"/>
<path d="M38.7758 36.157C42.0373 35.8734 47.6533 36.5898 53.1498 38.7422C58.6499 40.8962 64.2315 44.5683 67.1675 50.3551V50.3566C70.0832 56.1062 70.6163 64.5772 66.5716 71.8039C62.4877 79.1005 53.8727 84.9081 38.9275 85.5592L38.8759 84.3781V84.3963L38.9275 85.5592L38.9017 85.5607H38.8759C28.8916 85.5607 19.5467 83.4402 13.1483 78.7938C9.93347 76.4591 7.45237 73.4774 6.04016 69.8115C4.62805 66.1457 4.31497 61.8711 5.31085 56.9978C6.81704 49.626 10.7851 44.8446 16.6372 41.705C22.4115 38.6071 29.9932 37.1205 38.7485 36.1601L38.7758 36.157L38.8759 37.317L38.8789 37.3534L38.7758 36.157ZM52.3007 40.9105C47.0898 38.8698 41.8494 38.2324 39.0017 38.4739C30.2911 39.4294 23.094 40.8855 17.7395 43.758C12.4626 46.5889 8.95133 50.8074 7.59128 57.4648C6.66978 61.9745 6.9868 65.7878 8.21445 68.9746C9.44216 72.1614 11.611 74.7984 14.5175 76.9091C20.3576 81.15 29.134 83.2272 38.8547 83.2303C53.1884 82.5989 60.9464 77.087 64.5398 70.6667C68.1747 64.1722 67.6861 56.5247 65.0917 51.4089C62.5158 46.3313 57.5229 42.9556 52.3007 40.9105Z" fill="#1A1A1A"/>
<path d="M50.4528 73.5589C56.3854 64.5381 55.8497 55.2409 54.4073 48.4357C54.0238 46.6269 55.3187 44.9144 56.8605 45.9345C60.1645 48.119 63.203 53.9848 64.6625 60.6425C65.1034 62.6532 65.1096 64.7788 64.2852 66.6652C61.9019 72.1227 56.3993 75.6798 52.2662 77.1998C49.4342 78.2416 48.7946 76.0788 50.4528 73.5589Z" fill="#034AC1"/>
<path d="M16.3706 37.2631H27.947L26.3944 33.0632L35.7102 36.4604L41.3462 33.0632L43.4733 37.2631L54.3418 34.1579L50.3096 39.5067L59.0649 41.8108L48.1312 45.0263L48.9681 51.2368L41.3462 45.9175L35.7102 53.4478L31.7975 45.9175L19.1265 48.6719L26.3944 42.4288L16.3706 37.2631Z" fill="#0768CF"/>
<path d="M40.8519 32.0094C41.1058 31.8902 41.3954 31.866 41.6676 31.9442C41.9787 32.0335 42.2385 32.2483 42.3848 32.537L44.0769 35.8773L54.022 33.0374C54.503 32.9 55.0184 33.086 55.3017 33.4983C55.5849 33.911 55.5726 34.4587 55.2713 34.8584L52.2828 38.8218L59.3606 40.6853L59.0635 41.8088L59.065 41.8103L59.3606 40.6853C59.8661 40.8183 60.2218 41.2711 60.2295 41.7937C60.2369 42.3162 59.8953 42.7802 59.394 42.9278L49.4187 45.8617L50.1222 51.0806L48.9668 51.2353L48.3012 52.1921L41.6039 47.516L36.6428 54.145C36.4028 54.4657 36.014 54.6416 35.6148 54.6089C35.2157 54.5762 34.8609 54.3396 34.6762 53.9843L35.7103 53.4475L35.7088 53.446L34.6762 53.9843L31.1737 47.243L19.3743 49.81L19.1787 49.8358C18.725 49.8564 18.292 49.6087 18.084 49.1914C17.8465 48.7143 17.9634 48.1363 18.3675 47.7889L24.3233 42.6716L15.8369 38.2987C15.3592 38.0526 15.1129 37.511 15.2395 36.9887C15.3662 36.4664 15.8332 36.0987 16.3706 36.0987H26.2763L25.3028 33.4665C25.1456 33.0409 25.2496 32.5628 25.5697 32.2413C25.8897 31.9201 26.3672 31.8132 26.7933 31.9684L35.5845 35.1753L40.7457 32.0655L40.8519 32.0094ZM50.1222 51.0806C50.1839 51.5386 49.9693 51.9909 49.5748 52.2315C49.1804 52.4721 48.6801 52.4565 48.3012 52.1921L48.9683 51.2368L50.1222 51.0806ZM36.3107 37.4572C36.0093 37.6388 35.6422 37.6748 35.3115 37.5543L35.7103 36.461H35.7088L35.3115 37.5543L28.3581 35.0191L29.0388 36.8598C29.1708 37.2171 29.12 37.6163 28.9024 37.9288C28.6847 38.2412 28.328 38.4276 27.9471 38.4276H21.1741L26.9282 41.3934C27.2724 41.5708 27.5062 41.908 27.5514 42.2925C27.5966 42.6772 27.4465 43.059 27.1526 43.3114L23.3757 46.5562L31.5497 44.7791C32.0633 44.6675 32.5886 44.9147 32.831 45.3811L35.8877 51.2656L40.4137 45.2189C40.7901 44.7163 41.4984 44.6032 42.0133 44.9626L47.4597 48.7638L46.9775 45.181L46.9684 44.9702C46.9916 44.4828 47.3198 44.0509 47.8023 43.9088L54.724 41.8725L50.013 40.6322C49.6379 40.5334 49.3365 40.2543 49.2094 39.8878C49.0824 39.5212 49.1457 39.115 49.3792 38.8052L51.32 36.2306L43.7934 38.3821L43.4735 37.2616V37.2631L43.7934 38.3821C43.2568 38.5354 42.6871 38.287 42.4348 37.7893L40.8731 34.7068L36.3107 37.4572Z" fill="#1A1A1A"/>
<path d="M37.1046 44.6132C40.5345 44.6132 43.3151 43.3154 43.3151 41.7144C43.3151 40.1135 40.5345 38.8157 37.1046 38.8157C33.6746 38.8157 30.894 40.1135 30.894 41.7144C30.894 43.3154 33.6746 44.6132 37.1046 44.6132Z" fill="#034AC1"/>
<path d="M40.6417 61.9336C41.1005 61.4833 41.8377 61.4903 42.2884 61.9488C42.7387 62.4075 42.7318 63.1448 42.2732 63.5954L42.0837 63.7819L42.0806 63.7835L41.2679 62.951L41.1754 62.857L42.0806 63.7835C39.4719 66.3304 35.277 66.2293 32.7952 63.5575C32.3575 63.0864 32.3847 62.3486 32.8558 61.9109C33.327 61.4732 34.0648 61.5004 34.5025 61.9716C36.0935 63.6844 38.7816 63.7496 40.4537 62.1171V62.1186L40.6417 61.9336Z" fill="#1A1A1A"/>
<path d="M44.8666 56.6462C45.8913 56.6462 46.722 57.4769 46.722 58.5016C46.722 59.5263 45.8913 60.357 44.8666 60.357C43.8419 60.357 43.0112 59.5263 43.0112 58.5016C43.0112 57.4769 43.8419 56.6462 44.8666 56.6462Z" fill="#1A1A1A"/>
<path d="M29.3559 56.6462C28.3312 56.6462 27.5005 57.4769 27.5005 58.5016C27.5005 59.5263 28.3312 60.357 29.3559 60.357C30.3806 60.357 31.2113 59.5263 31.2113 58.5016C31.2113 57.4769 30.3806 56.6462 29.3559 56.6462Z" fill="#1A1A1A"/>
</svg>
