<svg width="75" height="86" viewBox="0 0 75 86" fill="none" xmlns="http://www.w3.org/2000/svg">
<path d="M28.4358 26.4103C28.0781 25.1816 26.7811 24.434 25.5387 24.7405C24.2962 25.047 23.579 26.2914 23.9366 27.5201L30.4044 49.7419C30.762 50.9706 32.0591 51.7182 33.3015 51.4117C34.5439 51.1052 35.2612 49.8608 34.9036 48.6321L28.4358 26.4103Z" fill="#A55E40"/>
<path d="M17.0791 37.7166L19.6021 40.356C20.9762 41.7953 23.2741 41.7953 24.6482 40.356C26.0223 38.9183 28.3202 38.9183 29.6942 40.356C31.0683 41.7953 33.3662 41.7953 34.7403 40.356C36.1144 38.9183 38.4123 38.9183 39.7863 40.356L39.9012 40.4755C41.2132 41.8496 43.4055 41.8496 44.7175 40.4755L44.9333 40.2505C46.2142 38.9106 48.3848 39.0083 49.54 40.4585C50.6361 41.8357 52.6654 42.0064 53.9759 40.8311L57.4475 37.7166L52.7151 79.2728C52.5365 80.8409 51.209 82.0271 49.63 82.0271H24.1094C22.5071 82.0271 21.1687 80.8083 21.0166 79.2153L17.0791 37.7166Z" fill="#FFD966"/>
<path d="M39.6207 75.699L36.9229 74.1614L34.1568 79.0146L36.8547 80.5522L39.6207 75.699Z" fill="#FFF1C2"/>
<path d="M42.7262 66.7793L40.0283 65.2417L37.2623 70.0949L39.9601 71.6325L42.7262 66.7793Z" fill="#FFF1C2"/>
<path d="M44.0019 75.0469L40.9785 74.3384L39.7039 79.7771L42.7273 80.4857L44.0019 75.0469Z" fill="#FFF1C2"/>
<path d="M45.2551 66.7635L43.6162 69.4011L48.3611 72.3494L49.9999 69.7118L45.2551 66.7635Z" fill="#FFF1C2"/>
<path d="M50.1642 60.5519L47.4229 62.0105L50.0467 66.942L52.7881 65.4835L50.1642 60.5519Z" fill="#FFF1C2"/>
<path d="M47.8304 73.3549L45.3691 75.2483L48.7753 79.6758L51.2365 77.7824L47.8304 73.3549Z" fill="#FFF1C2"/>
<path d="M27.7513 70.6294L26.2256 73.334L31.0909 76.0786L32.6167 73.374L27.7513 70.6294Z" fill="#FFF1C2"/>
<path d="M24.616 64.0799L21.7363 65.2417L23.8264 70.4221L26.7061 69.2602L24.616 64.0799Z" fill="#FFF1C2"/>
<path d="M34.9031 66.0474L31.7988 65.9683L31.6564 71.5527L34.7607 71.6318L34.9031 66.0474Z" fill="#FFF1C2"/>
<path d="M26.5029 74.2305L23.5361 75.1475L25.1857 80.4845L28.1525 79.5675L26.5029 74.2305Z" fill="#FFF1C2"/>
<path d="M59.9611 29.9534H14.5649C13.3808 29.9534 12.4209 30.9133 12.4209 32.0974C12.4209 33.2816 13.3808 34.2415 14.5649 34.2415H59.9611C61.1452 34.2415 62.1051 33.2816 62.1051 32.0974C62.1051 30.9133 61.1452 29.9534 59.9611 29.9534Z" fill="#1A1A1A"/>
<path d="M58.1281 31.894C59.2761 31.894 60.19 32.8862 60.0568 34.0501V34.0517C58.8796 44.2023 56.5222 64.3428 55.0411 77.2752C54.615 81.0043 51.4597 83.8177 47.707 83.8177H26.604C23.3985 83.8177 20.5857 81.7022 20.0462 78.4305C18.4363 68.6756 15.837 46.6734 14.4604 34.0335H14.4589L14.4482 33.8166C14.4495 32.7448 15.3306 31.894 16.3905 31.894H58.1281ZM16.8227 34.223C18.2119 46.9348 20.7654 68.4815 22.3448 78.0515L22.4237 78.426C22.8999 80.2595 24.5608 81.4888 26.604 81.4888H47.707C50.2764 81.4888 52.4343 79.5623 52.7258 77.0098H52.7273C54.1875 64.2599 56.4988 44.5015 57.6915 34.223H16.8227Z" fill="#1A1A1A"/>
<path d="M40.3913 58.1268C40.3913 59.413 39.3486 60.4557 38.0623 60.4557C36.7761 60.4557 35.7334 59.413 35.7334 58.1268C35.7334 56.8406 36.7761 55.7979 38.0623 55.7979C39.3486 55.7979 40.3913 56.8406 40.3913 58.1268Z" fill="#FFAFA3"/>
<path d="M39.2263 58.127C39.2263 57.4838 38.7049 56.9625 38.0618 56.9625C37.4187 56.9625 36.8973 57.4838 36.8973 58.127C36.8973 58.7701 37.4187 59.2914 38.0618 59.2914C38.7049 59.2914 39.2263 58.7701 39.2263 58.127ZM41.5552 58.127C41.5552 60.0563 39.9911 61.6204 38.0618 61.6204C36.1324 61.6204 34.5684 60.0563 34.5684 58.127C34.5684 56.1976 36.1324 54.6335 38.0618 54.6335C39.9911 54.6335 41.5552 56.1976 41.5552 58.127Z" fill="#1A1A1A"/>
<path d="M47.3191 52.139C47.8197 51.6023 48.6983 51.5397 49.2814 52.0005C49.8643 52.4613 49.9303 53.2701 49.4299 53.8068C47.9061 55.4407 46.1444 55.9179 44.5179 55.6315C43.0221 55.368 41.8505 54.4975 41.2093 53.8002C40.7128 53.2602 40.7858 52.4526 41.3724 51.9955C41.959 51.5385 42.8364 51.6057 43.3329 52.1456C43.7012 52.5463 44.3516 52.9931 45.0397 53.1147C45.5974 53.2129 46.3836 53.142 47.3191 52.139Z" fill="#1A1A1A"/>
<path d="M32.7511 52.1767C32.1506 51.7354 31.2756 51.8258 30.7961 52.3785C30.5808 52.6264 30.2242 52.8695 29.9064 52.9289C29.7754 52.9533 29.65 52.9466 29.5096 52.8955C29.3619 52.8417 29.122 52.7093 28.8229 52.3701C28.3386 51.8208 27.461 51.7376 26.8642 52.1833C26.2683 52.6292 26.1773 53.4356 26.6613 53.9846C27.7775 55.2507 29.144 55.6842 30.4591 55.439C31.6227 55.2219 32.5012 54.5171 32.9704 53.9763C33.4498 53.4235 33.3516 52.6181 32.7511 52.1767Z" fill="#1A1A1A"/>
</svg>
