<svg width="75" height="86" viewBox="0 0 75 86" fill="none" xmlns="http://www.w3.org/2000/svg">
<path d="M3.84668 29.8555C4.25586 25.5084 14.2756 22.9001 26.2259 24.0179C38.1765 25.1513 47.5331 29.5916 47.1238 33.9387C46.7142 38.2858 36.6946 40.8941 24.7445 39.7608C16.7693 39.0155 9.95134 36.7954 6.41835 34.0939L7.85582 32.1688L4.47292 32.0913C4.00021 31.3616 3.77633 30.6163 3.84668 29.8555Z" fill="#383838"/>
<path d="M3.84467 29.8547C4.24185 25.6437 13.6586 23.0643 25.111 23.9235L26.2255 24.0175C38.175 25.1509 47.5313 29.591 47.1234 33.9377L44.8034 33.7209C44.8182 33.5499 44.7799 33.1001 44.0331 32.3246C43.2923 31.5483 42.0588 30.7098 40.3106 29.8714C36.8324 28.2258 31.7842 26.8897 26.0071 26.3463C20.2299 25.803 15.0205 26.1768 11.2958 27.1393C9.42364 27.6361 8.05177 28.2406 7.18056 28.8616C6.61703 29.2597 6.36371 29.5813 6.25106 29.8017L7.90081 29.8396L9.30795 29.8714L10.5786 32.4019L9.78105 33.4723C13.1889 35.2884 18.5805 36.8496 24.9624 37.4476C30.7395 37.991 35.949 37.6188 39.6737 36.6562C41.5458 36.1594 42.9163 35.5533 43.7875 34.9323C44.6667 34.3114 44.7887 33.8762 44.8034 33.7209L47.1234 33.9377C46.7257 38.1486 37.3103 40.7284 25.8586 39.8553L24.7441 39.7613C16.7691 39.0161 9.95093 36.7952 6.41785 34.0939L7.85532 32.1684L4.47242 32.0911C3.99971 31.3614 3.77431 30.6155 3.84467 29.8547Z" fill="#1A1A1A"/>
<path d="M38.3817 33.4732C27.2967 35.4915 16.7582 32.526 12.8494 30.4767C12.2899 30.1817 12.1663 29.4675 12.5243 28.9552L18.9827 19.5467L25.9845 9.36208C26.0507 9.2534 26.1378 9.17573 26.2392 9.12916L35.364 3.91263C35.7581 3.67975 36.2605 3.83496 36.4526 4.25414L40.3701 12.6379L35.2646 9.93651C34.9342 9.76573 34.5261 9.85891 34.2938 10.1539L31.4522 13.7246C31.3263 13.8799 31.2673 14.0817 31.288 14.2835L32.0744 21.9998C32.0885 22.1396 32.1393 22.2637 32.2215 22.3724L39.0689 31.6877C39.5656 32.3553 39.206 33.3179 38.3817 33.4732Z" fill="#383838"/>
<path d="M35.5151 27.977C28.1296 29.3433 19.407 27.0766 15.7334 25.6948C15.608 25.6327 15.4697 25.6792 15.3845 25.7879L12.2389 29.5917C12.1142 29.747 12.1593 29.9798 12.3323 30.0729L17.0392 32.588C17.0663 32.6036 17.0953 32.6036 17.1253 32.6191L27.8947 34.7306C27.9306 34.7461 27.9674 34.7461 28.0035 34.7461L38.7371 33.0383C38.9638 33.0073 39.0745 32.7433 38.9427 32.557L35.8279 28.1167C35.7578 28.008 35.6356 27.9615 35.5151 27.977Z" fill="#7C2BDA"/>
<path d="M34.7722 2.91157C35.757 2.32959 37.0244 2.71897 37.5076 3.76365L37.5092 3.76214L41.4258 12.145C41.6375 12.598 41.536 13.1357 41.1741 13.4807C40.8576 13.7825 40.4039 13.8781 39.999 13.7415L39.8291 13.6687L35.0527 11.1534L32.7828 14.3661L32.4401 21.7407L39.8564 30.9241L40.0369 31.1803C40.8386 32.4969 40.1532 34.3317 38.5054 34.6341L38.2036 32.9846L38.2946 33.4894L38.5054 34.6341L38.5008 34.6357C27.5286 36.6084 17.092 33.8515 12.7128 31.7125L12.308 31.5078L12.3065 31.5063L12.8508 30.4768L13.0874 30.0265L12.3065 31.5063C11.0498 30.8432 10.8677 29.3052 11.5665 28.2966H11.565L25.0253 8.70329L25.0268 8.70481C25.185 8.46393 25.3994 8.26232 25.6637 8.12109L25.6622 8.11806L34.7722 2.91157ZM26.8934 10.0966L13.5453 29.5232C17.3456 31.4547 27.4087 34.2407 38.0171 32.3538L30.5356 23.0886C30.5297 23.0813 30.5247 23.0733 30.5189 23.0659L31.4075 22.3836L31.4409 22.3578L30.5189 23.0659C30.243 22.7065 30.0842 22.2537 30.1065 21.7756L30.4628 14.1524C30.4803 13.7725 30.6046 13.4241 30.8086 13.1274L30.8161 13.1153L33.3514 9.52808C33.9286 8.70428 35.0078 8.48742 35.8518 8.94285H35.8503L37.8519 9.99658L35.5774 5.13123L26.8934 10.0966ZM38.8617 31.7292L38.0899 32.3538L38.9512 31.6564L38.8617 31.7292ZM12.5248 28.9561L13.3512 29.5217L12.449 28.9031L12.5248 28.9561ZM35.2984 9.96777L34.9436 10.6425H34.942H34.9436L35.3423 9.88287L35.2984 9.96777ZM34.3446 10.2301L34.936 10.6379L34.284 10.1876L34.3446 10.2301Z" fill="#1A1A1A"/>
</svg>
