<svg width="75" height="86" viewBox="0 0 75 86" fill="none" xmlns="http://www.w3.org/2000/svg">
<path d="M28.4358 26.4103C28.0781 25.1816 26.7811 24.434 25.5387 24.7405C24.2962 25.047 23.579 26.2914 23.9366 27.5201L30.4044 49.7419C30.762 50.9706 32.0591 51.7182 33.3015 51.4117C34.5439 51.1052 35.2612 49.8608 34.9036 48.6321L28.4358 26.4103Z" fill="#603A2A"/>
<path d="M17.0791 37.7166L19.6021 40.356C20.9767 41.7953 23.2736 41.7953 24.6482 40.356C26.0227 38.9183 28.3197 38.9183 29.6942 40.356C31.0688 41.7953 33.3657 41.7953 34.7403 40.356C36.1148 38.9183 38.4118 38.9183 39.7863 40.356L39.9006 40.4755C41.2129 41.8496 43.4058 41.8496 44.7181 40.4755L44.9335 40.2505C46.2145 38.9106 48.384 39.0083 49.5392 40.4585C50.6358 41.8357 52.6654 42.0064 53.9758 40.8311L57.4475 37.7166L52.7151 79.2728C52.5364 80.8409 51.2087 82.0271 49.6297 82.0271H24.1086C22.5073 82.0271 21.1686 80.8083 21.0174 79.2153L17.0791 37.7166Z" fill="#EBB49D"/>
<path d="M36.6164 78.4123C36.4534 78.6126 36.2713 78.7912 36.0793 78.948C35.1204 79.7336 33.261 79.9494 32.0653 79.5597C28.3707 78.3533 28.1454 72.4735 31.8728 71.5078C31.9649 71.4845 32.0512 71.4658 32.1304 71.4549C32.7035 71.4363 33.2132 71.4767 33.6652 71.5606C36.5495 72.104 38.4421 76.1656 36.6164 78.4123Z" fill="#603A2A"/>
<path d="M32.1099 70.8349C32.724 70.8149 33.2787 70.8576 33.7778 70.9501L33.6413 71.6901L33.6656 71.5612L33.7778 70.9501H33.7808C35.4723 71.2691 36.8087 72.5965 37.4744 74.0963C38.0978 75.5011 38.1959 77.2117 37.2924 78.5435L37.0983 78.8043C36.9068 79.0396 36.6934 79.2466 36.4721 79.4274L36.4736 79.429C35.8759 79.9187 35.0484 80.1971 34.2478 80.3099C33.4426 80.4233 32.5803 80.381 31.8734 80.1507L32.2585 78.9695C32.747 79.1286 33.4124 79.1736 34.0749 79.0802C34.7425 78.9861 35.3256 78.7635 35.6867 78.4677C35.8489 78.3352 35.9998 78.1852 36.134 78.0204L36.2614 77.8506C36.8544 76.9746 36.8505 75.7529 36.3387 74.5997C35.7935 73.3716 34.7427 72.3954 33.5503 72.1707V72.1692C33.157 72.0964 32.7065 72.0597 32.1933 72.0737C32.1496 72.0807 32.0946 72.0925 32.025 72.1101L32.0235 72.1085C30.5223 72.4999 29.7607 73.8848 29.8067 75.4246C29.8531 76.9701 30.7174 78.4663 32.2585 78.9695L31.8719 80.1507C29.7187 79.4474 28.6231 77.3997 28.5649 75.4625C28.5067 73.521 29.4942 71.4821 31.7172 70.9062H31.7202C31.8228 70.8802 31.9346 70.8548 32.0462 70.8395L32.1099 70.8349L32.1281 71.449L32.1296 71.455L32.1099 70.8349Z" fill="#F3D6C9"/>
<path d="M48.7283 80.8174C48.4465 80.8018 48.1739 80.7552 47.9152 80.6854C46.5899 80.3252 45.3027 78.7974 45.0309 77.4963C44.271 73.8585 48.9887 70.8479 51.9634 73.2405C52.0904 73.343 52.1958 73.4424 52.2789 73.5355C52.6341 74.0448 52.8841 74.5277 53.0504 74.9811C54.0225 77.6236 51.6081 80.9726 48.7283 80.8174Z" fill="#603A2A"/>
<path d="M46.7682 72.5802C48.3919 71.5677 50.612 71.3561 52.3525 72.7561V72.7576L52.5618 72.938L52.7422 73.123L52.7877 73.1806C53.1699 73.7285 53.4457 74.2583 53.6322 74.7666C54.2069 76.3286 53.7678 78.0427 52.8347 79.3153C51.9587 80.5098 50.5783 81.4101 49.0107 81.4426L48.6938 81.4381L48.4497 81.4169C48.2089 81.3902 47.9752 81.3452 47.7523 81.2849L47.449 81.1864C46.7513 80.9219 46.1141 80.4218 45.6128 79.8551C45.0386 79.2058 44.5857 78.4039 44.4226 77.6232C43.9769 75.4891 45.1482 73.5906 46.7682 72.5802ZM51.5732 73.7234C50.3393 72.7316 48.7132 72.8303 47.4248 73.634C46.1323 74.4402 45.3245 75.8664 45.6386 77.37C45.7475 77.8901 46.0741 78.5023 46.5423 79.0318C47.012 79.5629 47.5672 79.9468 48.0767 80.0856C48.2966 80.145 48.5264 80.1848 48.7621 80.1978H48.7606C49.9429 80.2615 51.0829 79.6035 51.8325 78.5815C52.5832 77.5579 52.8637 76.276 52.4663 75.1957C52.3239 74.8077 52.1077 74.3834 51.793 73.9266C51.7385 73.8682 51.6666 73.7988 51.5732 73.7234Z" fill="#F3D6C9"/>
<path d="M50.8661 75.009C50.7904 75.2558 50.6876 75.4887 50.5673 75.7045C49.9634 76.7898 48.2889 77.6408 47.0108 77.678C43.13 77.7883 40.7743 72.4161 43.8644 70.2051C43.9499 70.143 44.0318 70.0918 44.1083 70.0499C44.6446 69.8325 45.1422 69.6959 45.6012 69.6214C48.4853 69.1571 51.7024 72.281 50.8661 75.009Z" fill="#603A2A"/>
<path d="M45.819 68.9686C47.4035 68.8343 48.9802 69.5864 50.0691 70.679C51.228 71.8419 51.9676 73.5338 51.4595 75.1913C51.3697 75.4838 51.2487 75.7569 51.1092 76.007C50.7298 76.6885 50.0515 77.245 49.3367 77.6309C48.6169 78.0196 47.7844 78.276 47.029 78.2981C44.7762 78.3621 43.0162 76.8385 42.2528 75.0564C41.4883 73.2715 41.651 71.0251 43.5037 69.6995C43.6088 69.6234 43.7115 69.5593 43.81 69.5054C43.8311 69.4939 43.853 69.4826 43.8752 69.4736C44.4515 69.24 44.9945 69.0905 45.5021 69.0081L45.819 68.9686ZM49.1881 71.5569C48.229 70.5945 46.8943 70.0408 45.6993 70.2332C45.2987 70.2983 44.8579 70.4194 44.3756 70.6123C44.3305 70.6384 44.2807 70.6699 44.2285 70.7078L44.2255 70.7108L43.9055 70.262L43.8661 70.2074L44.2255 70.7108C42.9886 71.5962 42.7837 73.1419 43.3946 74.5681C44.0068 75.9968 45.3651 77.1038 46.9926 77.0578C47.5152 77.0426 48.1591 76.8551 48.7469 76.5377C49.3395 76.2177 49.8006 75.8055 50.0251 75.4021L50.1631 75.1216C50.2045 75.0258 50.2414 74.9277 50.2722 74.8274C50.6004 73.7569 50.1497 72.5218 49.1881 71.5569Z" fill="#F3D6C9"/>
<path d="M29.1298 73.4565C29.054 73.7033 28.9513 73.9362 28.8309 74.1521C28.2271 75.2373 26.5526 76.0883 25.2745 76.1255C21.3937 76.2358 19.038 70.8636 22.1281 68.6526C22.2136 68.5905 22.2954 68.5393 22.372 68.4974C22.9083 68.2801 23.4059 68.1434 23.8648 68.0689C26.749 67.6047 29.9661 70.7285 29.1298 73.4565Z" fill="#603A2A"/>
<path d="M24.0827 67.4162C25.6672 67.2818 27.2439 68.0339 28.3327 69.1265C29.4917 70.2894 30.2312 71.9813 29.7231 73.6388C29.6333 73.9313 29.5123 74.2044 29.3729 74.4545C28.9935 75.136 28.3152 75.6925 27.6004 76.0784C26.8805 76.4671 26.0481 76.7235 25.2927 76.7456C23.0399 76.8096 21.2799 75.286 20.5165 73.5039C19.752 71.719 19.9147 69.4726 21.7674 68.147C21.8725 68.071 21.9752 68.0069 22.0737 67.9529C22.0947 67.9414 22.1166 67.9301 22.1389 67.9211C22.7152 67.6875 23.2582 67.538 23.7658 67.4556L24.0827 67.4162ZM27.4518 70.0044C26.4927 69.0421 25.158 68.4883 23.9629 68.6807C23.5624 68.7458 23.1216 68.8669 22.6392 69.0598C22.5942 69.0859 22.5444 69.1174 22.4922 69.1553L22.4891 69.1583L22.1692 68.7095L22.1298 68.6549L22.4891 69.1583C21.2523 70.0437 21.0473 71.5894 21.6582 73.0156C22.2705 74.4443 23.6287 75.5513 25.2563 75.5053C25.7788 75.4901 26.4228 75.3026 27.0106 74.9852C27.6032 74.6652 28.0643 74.2531 28.2888 73.8496L28.4267 73.5691C28.4682 73.4733 28.5051 73.3752 28.5359 73.2749C28.8641 72.2044 28.4134 70.9693 27.4518 70.0044Z" fill="#F3D6C9"/>
<path d="M37.8601 76.1594C37.5783 76.1439 37.3057 76.0973 37.047 76.0259C35.7217 75.6672 34.4346 74.1395 34.1627 72.8384C33.4028 69.2006 38.1205 66.19 41.0952 68.5826C41.2222 68.6835 41.3276 68.7844 41.4107 68.8776C41.7659 69.3868 42.0159 69.8697 42.1822 70.3231C43.1543 72.9657 40.74 76.3147 37.8601 76.1594Z" fill="#603A2A"/>
<path d="M35.9001 67.9222C37.5238 66.9097 39.7438 66.6982 41.4844 68.0981H41.4829C41.5588 68.1586 41.6301 68.2189 41.6951 68.2801L41.8741 68.4651L41.9195 68.5227C42.3017 69.0706 42.5775 69.6003 42.7641 70.1087C43.3387 71.6707 42.8997 73.3847 41.9665 74.6574C41.0905 75.8519 39.7101 76.7521 38.1426 76.7847L37.8257 76.7801L37.5816 76.7589C37.3411 76.7323 37.1081 76.6857 36.8841 76.624C36.0686 76.4031 35.3175 75.8445 34.7447 75.1972C34.1704 74.548 33.7175 73.7459 33.5544 72.9653C33.1087 70.8312 34.2801 68.9327 35.9001 67.9222ZM40.705 69.067C39.4711 68.0746 37.8453 68.1722 36.5566 68.976C35.2641 69.7822 34.4564 71.2084 34.7705 72.712C34.8793 73.2322 35.2059 73.8445 35.6741 74.3739C36.144 74.9049 36.6992 75.2882 37.2086 75.4261L37.2116 75.4276C37.4292 75.4877 37.6582 75.5269 37.8939 75.5398H37.8924C39.0747 75.6036 40.2147 74.9455 40.9643 73.9235C41.715 72.8999 41.9955 71.6181 41.5981 70.5378C41.4558 70.1497 41.2396 69.7254 40.9249 69.2687C40.869 69.2086 40.7972 69.1393 40.7081 69.0685L40.705 69.067L41.0947 68.5833L41.0962 68.5803L40.705 69.067Z" fill="#F3D6C9"/>
<path d="M40.9646 80.8174C40.6828 80.8018 40.4102 80.7552 40.1515 80.6854C38.8262 80.3252 37.5391 78.7974 37.2672 77.4963C36.5073 73.8585 41.225 70.8479 44.1997 73.2405C44.3267 73.343 44.4321 73.4424 44.5152 73.5355C44.8704 74.0448 45.1204 74.5277 45.2867 74.9811C46.2588 77.6236 43.8445 80.9726 40.9646 80.8174Z" fill="#603A2A"/>
<path d="M39.0055 72.5802C40.6292 71.5677 42.8493 71.3561 44.5898 72.7561V72.7576L44.7991 72.938L44.9795 73.123L45.025 73.1806C45.4072 73.7285 45.683 74.2583 45.8696 74.7666C46.4442 76.3286 46.0051 78.0427 45.072 79.3153C44.196 80.5098 42.8156 81.4101 41.248 81.4426L40.9312 81.4381L40.687 81.4169C40.4462 81.3902 40.2125 81.3452 39.9896 81.2849L39.6863 81.1864C38.9886 80.9219 38.3514 80.4218 37.8502 79.8551C37.2759 79.2058 36.823 78.4039 36.6599 77.6232C36.2142 75.4891 37.3855 73.5906 39.0055 72.5802ZM43.8105 73.7234C42.5766 72.7316 40.9506 72.8303 39.6621 73.634C38.3696 74.4402 37.5618 75.8664 37.8759 77.37C37.9848 77.8901 38.3114 78.5023 38.7796 79.0318C39.2493 79.5629 39.8045 79.9468 40.314 80.0856C40.5339 80.145 40.7637 80.1848 40.9994 80.1978H40.9979C42.1802 80.2615 43.3202 79.6035 44.0698 78.5815C44.8205 77.5579 45.101 76.276 44.7036 75.1957C44.5612 74.8077 44.3451 74.3834 44.0304 73.9266C43.9758 73.8682 43.9039 73.7988 43.8105 73.7234Z" fill="#F3D6C9"/>
<path d="M25.2599 79.6265C25.0358 79.4495 24.8403 79.2539 24.6714 79.0458C23.7976 77.9683 23.7307 75.9515 24.3727 74.7389C26.1034 71.4675 31.6275 71.8431 32.5622 75.4452C32.6088 75.6253 32.6341 75.7868 32.6423 75.925C32.6022 76.5585 32.4895 77.1019 32.3263 77.5662C31.4042 80.1963 27.4744 81.3623 25.2599 79.6265Z" fill="#603A2A"/>
<path d="M28.8157 71.8951C30.6002 72.0361 32.3757 73.0304 33.0445 74.9034L33.1643 75.29L33.2295 75.6008C33.2459 75.7006 33.2574 75.7973 33.2629 75.8889C33.2643 75.914 33.2645 75.9396 33.2629 75.9647C33.2196 76.649 33.0965 77.249 32.9126 77.7721L32.3274 77.5659L31.7406 77.3612V77.3597C31.8796 76.9641 31.9791 76.4909 32.018 75.9268C32.0104 75.8392 31.9937 75.7282 31.9604 75.5993C31.5759 74.1215 30.2413 73.2542 28.7172 73.1339C27.1889 73.0134 25.6453 73.6622 24.922 75.0292C24.6655 75.5138 24.5326 76.2037 24.5733 76.9078C24.6142 77.6145 24.8243 78.2479 25.154 78.6545L25.3814 78.9062C25.463 78.987 25.5505 79.0645 25.6438 79.1382L25.8181 79.2656C26.7177 79.8689 27.9465 79.9766 29.1038 79.6371C30.3384 79.2746 31.3619 78.4407 31.7406 77.3612L32.9126 77.7721C32.369 79.3221 30.9664 80.3847 29.4526 80.8288C27.9379 81.2732 26.1801 81.1365 24.8765 80.1147L24.875 80.1132C24.6142 79.9071 24.3864 79.6792 24.1897 79.4369C23.6457 78.7662 23.3851 77.853 23.3345 76.9791C23.2838 76.1023 23.4388 75.1765 23.8243 74.4485L24.0244 74.1043C25.0903 72.4478 27.0343 71.7546 28.8157 71.8951Z" fill="#F3D6C9"/>
<path d="M59.9611 29.9534H14.5649C13.3808 29.9534 12.4209 30.9133 12.4209 32.0974C12.4209 33.2816 13.3808 34.2415 14.5649 34.2415H59.9611C61.1452 34.2415 62.1051 33.2816 62.1051 32.0974C62.1051 30.9133 61.1452 29.9534 59.9611 29.9534Z" fill="#1A1A1A"/>
<path d="M58.1287 31.894C59.2738 31.8943 60.1929 32.8841 60.0573 34.0517C58.8806 44.2025 56.5202 64.3428 55.0401 77.2752C54.6132 81.0038 51.4602 83.8175 47.7075 83.8177H26.603C23.498 83.8176 20.7634 81.8329 20.1043 78.7353L20.0467 78.4305C18.6389 69.8951 16.471 51.9831 15.0295 39.1705L14.4609 34.0335C14.334 32.8633 15.2586 31.894 16.3911 31.894H58.1287ZM16.8247 34.223C18.2129 46.9346 20.7668 68.4814 22.3454 78.0515C22.6818 80.0899 24.4242 81.4886 26.603 81.4888H47.7075C50.2766 81.4885 52.4342 79.5625 52.7263 77.0098C54.1856 64.2599 56.4998 44.5013 57.692 34.223H16.8247Z" fill="#1A1A1A"/>
<path d="M41.151 56.4461C41.6097 55.9957 42.347 56.0027 42.7976 56.4613C43.248 56.92 43.241 57.6573 42.7825 58.1079L42.593 58.2944L42.5899 58.2959L41.7772 57.4635L41.6847 57.3695L42.5899 58.2959C39.9812 60.8429 35.7863 60.7417 33.3045 58.07C32.8668 57.5988 32.8939 56.8611 33.3651 56.4234C33.8363 55.9857 34.574 56.0128 35.0117 56.484C36.6028 58.1968 39.2908 58.2621 40.963 56.6296V56.6311L41.151 56.4461Z" fill="#1A1A1A"/>
<path d="M45.3134 51.6934C46.3381 51.6934 47.1688 52.458 47.1688 53.4013C47.1688 54.3445 46.3381 55.1091 45.3134 55.1091C44.2887 55.1091 43.458 54.3445 43.458 53.4013C43.458 52.458 44.2887 51.6934 45.3134 51.6934Z" fill="#1A1A1A"/>
<path d="M29.8027 51.6934C28.7779 51.6934 27.9473 52.458 27.9473 53.4013C27.9473 54.3445 28.7779 55.1091 29.8027 55.1091C30.8274 55.1091 31.6581 54.3445 31.6581 53.4013C31.6581 52.458 30.8274 51.6934 29.8027 51.6934Z" fill="#1A1A1A"/>
</svg>
