<svg width="75" height="86" viewBox="0 0 75 86" fill="none" xmlns="http://www.w3.org/2000/svg">
<path d="M50.4629 45.0238C54.8105 44.4028 55.8974 39.5899 55.8974 37.2611C55.8974 40.9872 59.735 43.4713 61.6539 44.2476C57.5639 44.8686 57.1471 49.1645 57.4501 51.234C57.0263 48.3385 53.0508 45.8001 50.4629 45.0238Z" fill="#FFE8A3"/>
<path d="M54.7335 37.2611C54.7335 36.618 55.2549 36.0967 55.898 36.0967C56.5412 36.0967 57.0626 36.618 57.0626 37.2611C57.0626 38.7004 57.8019 39.9728 58.8746 41.0318C59.9476 42.091 61.2502 42.8279 62.0907 43.168C62.577 43.3648 62.8721 43.8631 62.8109 44.384C62.7495 44.9044 62.348 45.3194 61.8299 45.3983L61.5433 45.4514C60.159 45.7504 59.4059 46.6046 58.9822 47.6392C58.5641 48.6605 58.4876 49.8369 58.5622 50.7109L58.6032 51.0657L58.6138 51.184C58.6399 51.7736 58.2157 52.299 57.6191 52.3863C56.9828 52.4792 56.3915 52.0385 56.2984 51.4023C56.1506 50.3935 55.3318 49.2734 54.0421 48.2441C52.784 47.2402 51.2749 46.4836 50.1285 46.1397C49.6052 45.9826 49.2615 45.4822 49.3021 44.9374C49.3429 44.3925 49.7574 43.9491 50.2983 43.8715C52 43.6285 53.0825 42.5856 53.7767 41.2471C54.4872 39.877 54.7335 38.2845 54.7335 37.2611ZM56.215 41.5109C56.1041 41.7825 55.9826 42.0536 55.845 42.319C55.3071 43.3562 54.5364 44.3471 53.478 45.0769C54.1706 45.4652 54.8598 45.9181 55.4947 46.4247C55.8718 46.7257 56.2446 47.0557 56.594 47.4133C56.6614 47.1929 56.7388 46.9735 56.8275 46.7568C57.246 45.735 57.9226 44.7704 58.9322 44.0747C58.3604 43.6826 57.7778 43.2213 57.2385 42.6889C56.8794 42.3345 56.532 41.9408 56.215 41.5109Z" fill="#FFC21A"/>
<path d="M62.8848 36.4848C65.9902 34.9323 66.249 31.5679 65.9902 29.4984C66.6113 33.2245 69.3544 35.7085 70.6483 36.4848C68.3192 38.0374 67.8758 39.5899 67.2659 41.1424C65.9902 38.8136 64.2529 37.5204 62.8848 36.4848Z" fill="#FFE8A3"/>
<path d="M65.8218 28.3461C66.449 28.2546 67.0352 28.6821 67.1394 29.3073C67.6874 32.5935 70.1428 34.8229 71.2471 35.4856C71.5894 35.691 71.8032 36.0585 71.8127 36.4575C71.8221 36.8564 71.6262 37.2323 71.2941 37.4536C70.2619 38.1417 69.6889 38.7986 69.3032 39.4246C68.8949 40.0875 68.6787 40.7305 68.3495 41.5685C68.1841 41.9889 67.7905 42.2751 67.3396 42.3038C66.945 42.3289 66.5692 42.1528 66.3358 41.8429L66.2448 41.7019L66.0249 41.3213C64.9073 39.4691 63.4654 38.3848 62.1811 37.4127C61.8605 37.1696 61.6876 36.7778 61.7247 36.3771C61.7619 35.9764 62.0045 35.6232 62.3646 35.4432C64.7656 34.2424 65.079 31.5962 64.8346 29.6424C64.7562 29.0137 65.1948 28.4376 65.8218 28.3461ZM66.6133 34.0696C66.2499 34.9655 65.6931 35.8273 64.8619 36.553C65.5671 37.1342 66.3223 37.8317 67.0333 38.7135C67.122 38.5439 67.2169 38.3723 67.3214 38.2026C67.6783 37.6234 68.1291 37.0551 68.7346 36.5C68.0441 35.8909 67.2863 35.0738 66.6133 34.0696Z" fill="#FFC21A"/>
<path d="M53.5684 27.1696C56.3373 25.9275 57.0728 23.0289 57.0944 21.7357C57.7155 24.2197 59.4235 25.8763 60.1998 26.3933C58.3366 27.6353 57.8708 30.0154 57.8708 31.0509C57.2497 29.1879 54.7438 27.6866 53.5684 27.1696Z" fill="#FFE8A3"/>
<path d="M56.9624 20.5788C57.5429 20.5123 58.0822 20.8867 58.2239 21.4536C58.6934 23.3312 59.8982 24.6626 60.5863 25.2289L60.8456 25.4244L60.9609 25.5124C61.2152 25.7319 61.3641 26.0526 61.3642 26.3933C61.3642 26.7826 61.1696 27.1461 60.8456 27.3621C60.1669 27.8147 59.7093 28.4984 59.4188 29.23C59.1261 29.9673 59.0352 30.6746 59.0352 31.0509C59.0352 31.622 58.6209 32.1087 58.0571 32.2001C57.5639 32.2799 57.0834 32.0369 56.8501 31.6119L56.7667 31.4193L56.6727 31.1874C56.4169 30.6431 55.8951 30.0652 55.2049 29.5196C54.4405 28.9152 53.6083 28.4589 53.1003 28.2354C52.6791 28.0501 52.4061 27.6342 52.4043 27.1741C52.4026 26.7139 52.6728 26.2951 53.0927 26.1067C55.2805 25.125 55.9135 22.7773 55.9313 21.7159L55.954 21.5021C56.053 21.0168 56.4544 20.637 56.9624 20.5788ZM57.3551 25.0788C56.9873 25.7816 56.486 26.4797 55.81 27.0861C56.0889 27.2707 56.3727 27.4734 56.65 27.6926C56.8661 27.8635 57.087 28.0506 57.3035 28.2536C57.5605 27.6367 57.9257 26.9903 58.4377 26.4069C58.0826 26.042 57.7092 25.597 57.3551 25.0788Z" fill="#FFC21A"/>
</svg>
