<svg width="75" height="86" viewBox="0 0 75 86" fill="none" xmlns="http://www.w3.org/2000/svg">
<path d="M22.6508 38.3945V38.1693C22.6539 37.3977 22.7238 36.7829 22.8558 36.3234C22.9924 35.8654 23.1912 35.4943 23.4505 35.2117C23.7113 34.9307 24.025 34.6746 24.3899 34.4448C24.6647 34.2678 24.9085 34.0862 25.1243 33.8952C25.3417 33.7058 25.5125 33.4962 25.6414 33.268C25.7687 33.0335 25.8323 32.7727 25.8323 32.487C25.8323 32.1827 25.7594 31.9157 25.615 31.6859C25.469 31.4561 25.2734 31.2807 25.0249 31.1565C24.7827 31.0338 24.5141 30.9718 24.2191 30.9718C23.9318 30.9718 23.6601 31.0354 23.4039 31.1627C23.1493 31.2869 22.9396 31.4717 22.7766 31.7185C22.612 31.9623 22.5251 32.2635 22.5111 32.6252H19.8125C19.8342 31.7434 20.0454 31.0152 20.4476 30.4423C20.8482 29.8648 21.3792 29.4347 22.0422 29.1522C22.7036 28.865 23.4334 28.7221 24.2315 28.7221C25.1088 28.7221 25.8851 28.8681 26.5606 29.1584C27.236 29.4456 27.7655 29.8617 28.149 30.4097C28.5325 30.9562 28.725 31.616 28.725 32.3877C28.725 32.9031 28.6381 33.3627 28.4657 33.7632C28.298 34.1607 28.062 34.5131 27.7577 34.822C27.4534 35.1263 27.0947 35.4027 26.6801 35.6496C26.3308 35.8561 26.0451 36.0719 25.8199 36.297C25.5994 36.5221 25.4333 36.7829 25.3231 37.0779C25.2175 37.3729 25.1631 37.7377 25.1585 38.1693V38.3945H22.6508ZM23.9598 42.6283C23.5188 42.6283 23.1415 42.4745 22.8294 42.1656C22.5204 41.852 22.3682 41.4778 22.3729 41.0416C22.3682 40.6084 22.5204 40.2389 22.8294 39.9299C23.1415 39.621 23.5188 39.4657 23.9598 39.4657C24.379 39.4657 24.747 39.621 25.0653 39.9299C25.3836 40.2389 25.5435 40.6084 25.5482 41.0416C25.5435 41.3319 25.4675 41.5989 25.3168 41.8411C25.1709 42.0802 24.9799 42.2712 24.7408 42.4171C24.5032 42.5584 24.2424 42.6283 23.9598 42.6283Z" fill="white"/>
<path d="M23.961 39.4672C23.5201 39.4672 23.1428 39.621 22.8291 39.9299C22.5201 40.2389 22.3679 40.6084 22.3726 41.0415C22.3679 41.4778 22.5201 41.852 22.8291 42.1656C23.1039 42.4357 23.4269 42.5879 23.798 42.622L23.961 42.6282C24.1722 42.6282 24.371 42.5895 24.5573 42.5103L24.742 42.4171C24.9796 42.2727 25.1706 42.0802 25.3165 41.8411C25.4283 41.6595 25.5013 41.4638 25.5308 41.2542L25.5479 41.0415C25.5432 40.6084 25.3833 40.2389 25.0666 39.9299C24.7483 39.621 24.3787 39.4672 23.961 39.4672ZM25.8212 32.6982C25.7963 32.9016 25.7358 33.0925 25.6411 33.268L25.537 33.4356C25.4252 33.6002 25.287 33.7523 25.1256 33.8952C24.9082 34.0846 24.6644 34.2694 24.3911 34.4464C24.0247 34.6746 23.711 34.9307 23.4502 35.2133C23.1909 35.4943 22.9921 35.8654 22.8555 36.3234C22.7235 36.7829 22.6552 37.3977 22.6505 38.1693V38.3945H25.1582V38.1693C25.1628 37.7377 25.2172 37.3729 25.3243 37.0779C25.4345 36.7829 25.5991 36.5221 25.8196 36.297C25.9889 36.1277 26.1923 35.9647 26.4298 35.8048L26.6798 35.6496C26.9904 35.4648 27.2699 35.2614 27.5198 35.044L27.759 34.822C28.0633 34.5131 28.2993 34.1607 28.467 33.7632C28.5959 33.462 28.6751 33.1298 28.7077 32.7649L28.7247 32.3876C28.7247 31.7123 28.5772 31.1239 28.2838 30.6208L28.1487 30.4097C27.8133 29.9315 27.3661 29.5512 26.8071 29.2717L26.5603 29.1584C25.8864 28.868 25.11 28.7221 24.2312 28.7221C23.4331 28.7221 22.7018 28.8665 22.0403 29.1522L21.7997 29.2655C21.2485 29.545 20.7982 29.9377 20.4473 30.4423C20.0451 31.0168 19.8339 31.7449 19.8122 32.6268H22.5108L22.5356 32.3659C22.5605 32.1998 22.604 32.0476 22.6676 31.9126L22.7763 31.7201C22.899 31.5338 23.048 31.3832 23.2219 31.2683L23.4036 31.1627C23.6598 31.0354 23.9315 30.9717 24.2188 30.9717C24.5138 30.9717 24.7824 31.0338 25.0246 31.1565L25.2001 31.2605C25.3678 31.3723 25.506 31.5136 25.6147 31.6859C25.7606 31.9157 25.8336 32.1827 25.8336 32.487L25.8212 32.6982ZM31.0538 32.3876C31.0538 33.1593 30.9218 33.9324 30.6097 34.6683L30.6128 34.6699C30.3302 35.3406 29.9281 35.9399 29.4172 36.4569L29.4048 36.4693L29.4033 36.4678C28.9483 36.9242 28.4313 37.3154 27.8707 37.6492V37.6508C27.6875 37.7595 27.5742 37.8479 27.5074 37.9085C27.5059 37.9132 27.5059 37.9178 27.5059 37.9225C27.4965 37.9799 27.4888 38.0684 27.4872 38.1942V38.3945C27.4872 38.6522 27.4438 38.899 27.3661 39.1304C27.6906 39.694 27.8708 40.3321 27.877 41.0183V41.0757C27.8661 41.7775 27.6736 42.459 27.2978 43.0661L27.2963 43.0645C27.0012 43.5443 26.6193 43.9526 26.1597 44.2724L25.9563 44.4044C25.947 44.409 25.9376 44.4152 25.9283 44.4199C25.3243 44.7785 24.652 44.9571 23.961 44.9571C23.0403 44.9571 22.1863 44.6559 21.4845 44.0861L21.1926 43.8253L21.1708 43.8004C20.441 43.0599 20.0467 42.1066 20.0451 41.0633L20.0435 41.0649V41.0183H20.0451C20.0467 40.3786 20.1942 39.7747 20.4783 39.2344C20.3789 38.9735 20.3215 38.691 20.3215 38.3945V38.1569L20.3401 37.5064C20.3727 36.8636 20.455 36.2411 20.6165 35.6775L20.6227 35.6589L20.7097 35.3903C20.7609 35.2444 20.8199 35.0984 20.8836 34.9556H19.8122C19.1834 34.9556 18.5824 34.701 18.1446 34.2523C17.7052 33.802 17.4676 33.195 17.4831 32.5677L17.5064 32.1113C17.5949 31.0478 17.9039 30.0138 18.5374 29.1071C19.1927 28.1678 20.0684 27.4645 21.1165 27.0143L21.4876 26.8668C22.3617 26.5439 23.2841 26.3933 24.2312 26.3933C25.3616 26.3933 26.4562 26.5811 27.4686 27.0143C28.5043 27.4552 29.3971 28.1353 30.0539 29.073L30.2992 29.4534C30.824 30.3554 31.0538 31.3614 31.0538 32.3876Z" fill="#1A1A1A"/>
</svg>
