<svg width="75" height="86" viewBox="0 0 75 86" fill="none" xmlns="http://www.w3.org/2000/svg">
<path d="M32.6292 35.9678C26.7708 35.0208 13.3818 35.9679 7.52346 51.116L4.13965 65.0238C6.65084 63.1312 12.5449 62.4776 17.5664 62.4776C34.303 62.4776 39.4642 65.3171 44.3459 65.3171C51.8781 46.3823 38.4876 36.9133 32.6292 35.9678Z" fill="#757575" stroke="#1A1A1A" stroke-width="2.74597" stroke-linejoin="round"/>
<path d="M34.4226 32.4721L32.296 32.183C31.2615 32.0424 30.3335 32.7699 30.2232 33.808C30.113 34.8461 30.8622 35.8016 31.8968 35.9422L34.0233 36.2313C35.0578 36.372 35.9858 35.6444 36.0961 34.6063C36.2063 33.5682 35.4571 32.6127 34.4226 32.4721Z" fill="#1A1A1A" stroke="#1A1A1A" stroke-width="1.83065"/>
<path d="M32.8408 35.7086C36.3406 41.6906 41.2254 54.232 37.0254 64.1124" stroke="#2C2C2C" stroke-width="1.83065" stroke-dasharray="1.83 1.83"/>
<path d="M32.8408 35.7086C29.341 41.6906 26.1455 51.8039 25.3086 62.2184" stroke="#2C2C2C" stroke-width="1.83065" stroke-dasharray="1.83 1.83"/>
<path d="M31.2874 35.7086C19.5707 41.3894 12.8769 50.8568 12.04 61.2713" stroke="#2C2C2C" stroke-width="1.83065" stroke-dasharray="1.83 1.83"/>
<path d="M32.6295 35.9678C26.7711 35.0208 13.3821 35.9679 7.52375 51.116L4.31445 64.9368C6.82503 63.0442 12.5514 62.7135 15.8928 62.4776C29.2818 61.5305 39.4645 65.3171 44.3462 65.3171C51.8784 46.3823 38.4879 36.9133 32.6295 35.9678Z" stroke="#1A1A1A" stroke-width="2.74597" stroke-linejoin="round"/>
<path d="M6.20743 49.9981C1.05943 52.5303 -0.515171 57.4333 4.14156 65.3001C6.20743 64.353 12.1413 62.7198 16.6954 62.4605C23.0444 62.0972 26.7367 62.4605 34.2689 63.406C29.1341 47.9256 11.3556 47.4644 6.20743 49.9981Z" fill="#85E0A3" stroke="#1A1A1A" stroke-width="2.74597" stroke-linejoin="round"/>
<path d="M33.4101 35.9963C27.5519 35.0492 14.162 35.9963 8.30387 51.1445L4.99023 65.136C7.50085 63.2434 13.325 62.506 18.3462 62.506C35.0838 62.506 40.2442 65.3456 45.1262 65.3456C52.6581 46.4107 39.2681 36.9418 33.4101 35.9963Z" fill="#757575"/>
<path d="M38.8076 63.7268C38.7167 63.967 38.6205 64.2061 38.5195 64.4436L37.0898 63.8372C37.1827 63.6187 37.2717 63.3973 37.3555 63.176L38.8076 63.7268ZM26.9277 61.55C26.9046 61.8027 26.8826 62.0558 26.8623 62.3088L25.3154 62.1848C25.3362 61.9257 25.3591 61.6661 25.3828 61.4075L26.9277 61.55ZM39.6748 60.7717C39.567 61.2723 39.4424 61.7703 39.2979 62.2639L37.8066 61.8284C37.9403 61.372 38.0571 60.9096 38.1572 60.4446L39.6748 60.7717ZM13.6631 60.6243C13.6366 60.8693 13.6126 61.1154 13.5928 61.3616L12.0469 61.2375C12.0678 60.9773 12.0911 60.7173 12.1191 60.4583L13.6631 60.6243ZM27.2715 58.5168C27.2036 59.0197 27.1414 59.5255 27.084 60.0315L25.542 59.8557C25.6006 59.3389 25.6632 58.8231 25.7324 58.3098L27.2715 58.5168ZM40.1182 57.7375C40.077 58.2462 40.0196 58.7544 39.9463 59.26L38.4102 59.0374C38.4786 58.5652 38.5307 58.0899 38.5693 57.6125L40.1182 57.7375ZM14.1436 57.7034C14.0365 58.185 13.9435 58.6702 13.8633 59.1575L12.3311 58.9055C12.416 58.3898 12.5156 57.8762 12.6289 57.3665L14.1436 57.7034ZM27.7422 55.5012C27.6538 56.0003 27.5699 56.5029 27.4912 57.0071L25.957 56.7678C26.0374 56.2531 26.1227 55.74 26.2129 55.2307L27.7422 55.5012ZM14.9453 54.8528C14.7855 55.3204 14.6393 55.7924 14.5059 56.2668L13.0107 55.8469C13.152 55.3447 13.3074 54.8456 13.4766 54.3508L14.9453 54.8528ZM40.1895 54.6858C40.2054 55.1936 40.2087 55.7027 40.1973 56.2112L38.6445 56.176C38.6553 55.6966 38.6518 55.2156 38.6367 54.7346L40.1895 54.6858ZM28.3359 52.5061C28.2277 53.0002 28.1227 53.4987 28.0234 54.0002L26.501 53.6985C26.6023 53.1868 26.7079 52.6782 26.8184 52.1741L28.3359 52.5061ZM16.0557 52.1067C15.8455 52.5554 15.6474 53.0085 15.4629 53.4651L14.0234 52.8831C14.2184 52.4008 14.4266 51.9221 14.6484 51.4485L16.0557 52.1067ZM39.9453 51.6555C40.0092 52.1567 40.0615 52.6618 40.1025 53.1672L38.5547 53.2922C38.5157 52.8114 38.4653 52.3303 38.4043 51.8518L39.9453 51.6555ZM29.0488 49.5383C28.9208 50.0267 28.7975 50.5214 28.6777 51.0198L27.167 50.6565C27.2893 50.1477 27.4171 49.6435 27.5479 49.1448L29.0488 49.5383ZM17.4531 49.4934C17.1964 49.9183 16.9518 50.3477 16.7197 50.7815L15.3506 50.0491C15.5956 49.5912 15.8533 49.1378 16.124 48.6897L17.4531 49.4934ZM39.4355 48.6682C39.5396 49.1596 39.6354 49.6562 39.7207 50.1555L38.1904 50.4182C38.1087 49.9398 38.018 49.4635 37.918 48.9915L39.4355 48.6682ZM19.1152 47.0334C18.8161 47.4314 18.5286 47.8348 18.2529 48.2424L16.9668 47.3733C17.257 46.9442 17.5605 46.5202 17.875 46.1018L19.1152 47.0334ZM29.8848 46.6038C29.7367 47.0843 29.5927 47.5729 29.4521 48.0667L27.959 47.6399C28.1025 47.1358 28.25 46.6377 28.4014 46.1467L29.8848 46.6038ZM38.7021 45.7375C38.8405 46.2174 38.9723 46.7045 39.0957 47.1965L37.5889 47.5735C37.47 47.0995 37.3435 46.6294 37.21 46.1663L38.7021 45.7375ZM21.0156 44.7463C20.6788 45.1149 20.3518 45.4896 20.0371 45.8684L18.8428 44.8762C19.1731 44.4785 19.516 44.0859 19.8691 43.6995L21.0156 44.7463ZM30.8486 43.7102C30.6791 44.1817 30.5124 44.6638 30.3496 45.1526L28.8779 44.6614C29.0445 44.1612 29.2149 43.6689 29.3887 43.1858L30.8486 43.7102ZM37.7705 42.8674C37.9387 43.3341 38.1036 43.8101 38.2607 44.2942L36.7832 44.7737C36.6313 44.3059 36.4733 43.8453 36.3105 43.3938L37.7705 42.8674ZM23.1211 42.6418C22.7516 42.9793 22.3927 43.323 22.0439 43.6711L20.9473 42.5735C21.3126 42.2087 21.6886 41.8484 22.0752 41.4954L23.1211 42.6418ZM31.9521 40.8752C31.7593 41.3334 31.5698 41.8042 31.3828 42.2854L29.9346 41.7229C30.1267 41.2286 30.3228 40.7437 30.5215 40.2717L31.9521 40.8752ZM36.6611 40.0637C36.8562 40.5149 37.0487 40.9802 37.2373 41.4563L35.793 42.0276C35.6105 41.5668 35.4241 41.1166 35.2354 40.6799L36.6611 40.0637ZM25.4062 40.7278C25.0088 41.0334 24.6213 41.3457 24.2432 41.6624L23.2461 40.4719C23.641 40.1412 24.0465 39.816 24.4609 39.4973L25.4062 40.7278ZM27.8438 39.0042C27.4231 39.2778 27.0102 39.5563 26.6074 39.8411L25.7119 38.5735C26.1311 38.2771 26.5599 37.9868 26.9971 37.7024L27.8438 39.0042ZM33.2168 38.1174C32.9968 38.5567 32.7781 39.0136 32.5625 39.4846L31.1504 38.8372C31.3731 38.3507 31.5997 37.8792 31.8281 37.4231L33.2168 38.1174ZM35.376 37.3352C35.5971 37.768 35.8208 38.2201 36.042 38.6907L34.6367 39.3518C34.4229 38.8968 34.2084 38.4587 33.9951 38.0413L35.376 37.3352ZM30.4102 37.467C29.9694 37.7097 29.5365 37.9573 29.1123 38.2112L28.3154 36.8801C28.7556 36.6167 29.2043 36.3582 29.6611 36.1067L30.4102 37.467ZM34.665 36.0012L34.2236 36.2473C34.1224 36.422 34.0197 36.5995 33.9189 36.7815L33.5908 36.6008L33.3096 36.7571C33.2219 36.5999 33.1322 36.4481 33.0459 36.2991L32.5605 36.0295C32.6898 35.7961 32.8197 35.567 32.9502 35.344L33.6201 35.7375L34.291 35.344C34.4145 35.555 34.5389 35.7751 34.665 36.0012ZM32.4062 36.4358C32.1803 36.5454 31.9565 36.6574 31.7344 36.7698L31.0322 35.384C31.2623 35.2676 31.4955 35.1518 31.7295 35.0383L32.4062 36.4358Z" fill="#2C2C2C"/>
<path d="M33.1597 31.4392L35.2847 31.7292C36.7438 31.9278 37.8015 33.2757 37.646 34.74C37.5937 35.2316 37.4088 35.672 37.1343 36.0349C39.9126 37.3832 43.0073 39.7988 45.2671 43.2927C48.6261 48.4862 50.1032 55.9872 46.2095 65.7761L46.1314 65.9353C45.9247 66.2877 45.5438 66.5095 45.1265 66.5095C43.7867 66.5095 42.138 66.2529 40.2935 65.9138C38.4036 65.5663 36.3057 65.1323 33.8931 64.7185C29.1108 63.8983 23.3194 63.2044 16.7544 63.6687C15.0651 63.788 12.8217 63.9243 10.686 64.2615C8.49665 64.6072 6.66498 65.1314 5.66163 65.8874L5.50831 65.9851C5.13691 66.1831 4.68055 66.1666 4.32081 65.9304C3.91024 65.6604 3.71417 65.1619 3.8296 64.6843L7.1714 50.8708C7.1834 50.8213 7.19988 50.7719 7.21827 50.7243C10.2651 42.846 15.3126 38.5911 20.4077 36.4607C23.9211 34.9918 27.4279 34.5464 30.2788 34.5779C30.2211 34.3058 30.2033 34.0213 30.2339 33.7322C30.3897 32.268 31.7005 31.2408 33.1597 31.4392ZM33.2251 37.1462C30.4612 36.6994 25.8759 36.6985 21.3062 38.6091C16.7912 40.4969 12.2288 44.273 9.41554 51.4997L6.6753 62.8142C7.82323 62.4197 9.09721 62.1543 10.3237 61.9607C12.5809 61.6043 14.9388 61.4601 16.5903 61.3435C23.4148 60.8609 29.4103 61.5873 34.2866 62.4236C36.7027 62.8379 38.904 63.2919 40.7144 63.6247C42.1565 63.8899 43.3574 64.0777 44.3374 64.1491C47.5974 55.3942 46.1465 48.9414 43.311 44.5574C40.34 39.9639 35.8076 37.5633 33.2251 37.1462Z" fill="#1A1A1A"/>
<path d="M6.98774 50.0266C1.83965 52.5588 0.265116 57.4617 4.92186 65.3285C6.98774 64.3814 12.9214 62.7482 17.475 62.4889C23.8254 62.1256 27.5174 62.4889 35.0491 63.4359C29.914 47.954 12.1358 47.4928 6.98774 50.0266Z" fill="#85E0A3"/>
<path d="M12.789 47.712C15.3751 47.6375 18.3663 47.9552 21.3608 48.8612C27.3677 50.6789 33.4431 54.8918 36.1555 63.0691C36.2813 63.4486 36.2031 63.8671 35.9492 64.1759C35.6955 64.4845 35.3009 64.6411 34.9045 64.5914L35.0501 63.4361H35.0485L34.9045 64.5914C27.3939 63.647 23.7845 63.2942 17.5412 63.6513C15.3595 63.7756 12.8121 64.2328 10.5403 64.7824C8.25522 65.3353 6.33947 65.9594 5.40758 66.3865C4.86572 66.6349 4.2237 66.434 3.92008 65.921C1.5259 61.8764 0.605617 58.3893 1.13157 55.4702C1.66941 52.4858 3.66564 50.3638 6.47355 48.9825C7.96664 48.2477 10.2279 47.7858 12.789 47.712ZM12.8557 50.0393C10.4752 50.1079 8.58256 50.5398 7.50162 51.0718C5.16217 52.2226 3.79655 53.8177 3.42424 55.8841C3.07001 57.851 3.57392 60.4688 5.43033 63.8636C6.6065 63.4283 8.2275 62.9456 9.99141 62.5188C12.341 61.9503 15.0376 61.4621 17.4092 61.3271C23.2943 60.9904 26.9518 61.2714 33.2714 62.0427C30.6159 55.8848 25.6823 52.6018 20.686 51.09C17.9506 50.2623 15.2113 49.9714 12.8557 50.0393Z" fill="#1A1A1A"/>
</svg>
