<svg width="75" height="86" viewBox="0 0 75 86" fill="none" xmlns="http://www.w3.org/2000/svg">
<path d="M10.1133 55.4243L13.3344 51.2369L16.73 52.8501L18.7271 56.6851L28.4672 56.6075L30.0174 53.3826L33.785 51.2897L37.8917 54.5906H40.3075L51.8224 53.3826L59.2305 54.5906L64.5771 58.6678L67.0196 64.4544L70.1816 70.2131V74.6413L68.4102 79.473L65.9945 81.4061L56.666 84.1434L47.8078 80.5195L40.3075 81.4061L31.6914 84.1434H28.8731L26.5379 80.5195L13.8956 79.473L6.3264 82.4526L3.50807 80.5195L3.10547 77.7822L7.79783 74.5108L7.28112 67.3501L10.1133 55.4243Z" fill="#F79722"/>
<path d="M48.4558 71.5659C49.0529 71.4359 49.7 71.5368 50.2478 71.9038C50.4601 72.0461 50.6182 72.198 50.7019 72.2817C50.7984 72.3783 50.8839 72.4745 50.9519 72.5542C51.0868 72.7124 51.2206 72.8841 51.3279 73.0259C51.5959 73.3801 51.713 73.5491 51.8025 73.6538L50.5935 74.6841V74.686L51.8025 73.6538L51.8054 73.6567L51.8874 73.7397C51.9747 73.8142 52.1097 73.8913 52.5798 74.2417C53.0508 74.5927 53.847 75.2483 54.2087 76.4067L54.2751 76.647C54.545 77.7508 54.2849 78.9551 53.8249 79.7808C53.6144 80.1586 53.0926 80.9504 52.0798 81.2622C50.9408 81.6126 50.0019 81.1554 49.4138 80.6128C49.4047 80.6087 49.3942 80.6038 49.3835 80.5991C49.1643 80.5026 48.9088 80.4074 48.5134 80.2534C48.1733 80.121 47.7196 79.9401 47.3113 79.7241C47.1039 79.6144 46.852 79.4661 46.6062 79.2739C46.3765 79.0944 46.0281 78.7814 45.7712 78.3052L45.7722 78.3042C45.3182 77.4628 45.2908 76.6305 45.405 75.9702C45.5046 75.395 45.7292 74.8738 45.822 74.6479C45.8495 74.581 45.8717 74.5256 45.8894 74.481C45.6094 73.4596 46.0546 72.3441 47.0261 71.8188C47.4808 71.5732 47.9805 71.4989 48.4558 71.5659ZM50.8367 78.9009L49.116 80.3042L51.1667 78.6333L50.8367 78.9009ZM47.3191 77.4702L47.821 77.1997L48.4343 76.8667H48.4333L47.3191 77.4702ZM52.7253 77.3608H52.7273C52.7022 77.3301 52.6648 77.2896 52.6179 77.2437C52.653 77.2818 52.6912 77.319 52.7253 77.3608ZM46.5808 53.5659C47.0987 53.566 47.5749 53.7379 47.9617 54.0239C48.5505 54.1946 49.0733 54.5939 49.3796 55.1802C49.496 55.4033 49.5609 55.6091 49.5945 55.7222C49.6331 55.8523 49.6644 55.9773 49.6863 56.0796C49.7296 56.2823 49.7637 56.4967 49.7908 56.6724C49.858 57.1091 49.8826 57.3142 49.9119 57.4517V57.4536L50.0134 58.0405C50.0977 58.6532 50.1329 59.3324 50.1316 59.9565C50.1298 60.7727 50.0664 61.742 49.8621 62.5239C49.7628 62.9038 49.5569 63.5017 49.0749 64.0063C48.8124 64.2811 48.412 64.5829 47.8621 64.73C47.2876 64.8835 46.7223 64.8209 46.2458 64.6265C45.4022 64.2821 44.9806 63.6043 44.8054 63.27C44.5918 62.8624 44.4653 62.4256 44.3884 62.0229C44.2212 61.1461 44.2517 60.3115 44.2517 59.6841V55.895C44.2517 54.6088 45.2946 53.5659 46.5808 53.5659ZM55.8962 52.0132C56.4787 52.0132 57.0094 52.2301 57.4177 52.5835C57.9375 52.7602 58.3953 53.1157 58.6853 53.6177L58.7937 53.8296L58.9001 54.104C58.9909 54.375 59.0379 54.6235 59.0593 54.7397C59.1006 54.9639 59.1348 55.2071 59.1628 55.4185C59.2287 55.9157 59.261 56.2201 59.2976 56.4194L59.3962 57.0806C59.4787 57.7771 59.5138 58.5644 59.5124 59.3032C59.5106 60.2734 59.4447 61.3755 59.2517 62.2339L59.2507 62.2358C59.1617 62.6308 58.9817 63.2423 58.5466 63.77C58.3114 64.0552 57.9091 64.4266 57.3025 64.6147C56.646 64.818 55.9973 64.7298 55.4753 64.4829C54.6061 64.0716 54.2201 63.3051 54.0788 62.9927C53.9358 62.6762 53.8336 62.3388 53.7615 62.0063L53.698 61.6763C53.5374 60.7013 53.5671 59.7819 53.5671 58.9731V54.3423C53.5671 53.0561 54.6101 52.0133 55.8962 52.0132Z" fill="#DD7C0E"/>
<path opacity="0.7" d="M12.9995 68.3152C15.0335 68.3154 16.682 69.7598 16.6821 71.5418C16.6821 73.324 15.0336 74.7692 12.9995 74.7693C10.9653 74.7693 9.31592 73.3241 9.31592 71.5418C9.31608 69.7597 10.9654 68.3152 12.9995 68.3152ZM33.1831 68.3152C35.2172 68.3152 36.8665 69.7597 36.8667 71.5418C36.8667 73.3241 35.2173 74.7693 33.1831 74.7693C31.149 74.7692 29.5005 73.324 29.5005 71.5418C29.5006 69.7598 31.1491 68.3154 33.1831 68.3152Z" fill="#E24C0C"/>
<path d="M53.9557 52.0181C55.0102 51.9855 56.0486 52.0347 56.8911 52.2637C60.3947 53.1181 63.1705 54.8227 65.1653 57.2567C67.0936 59.6099 68.2373 62.5795 68.6663 65.9721C71.8788 68.799 72.4914 73.4142 71.027 77.1255C69.3916 81.2705 65.3873 84.2596 59.7492 84.9721L59.5779 84.9948L59.4308 83.8395V83.847L59.5779 84.9948L59.5203 85.0009L59.2898 85.007L59.2595 83.844L59.2549 83.7166L59.2898 85.007C57.1902 85.0612 54.0098 84.7383 51.0399 83.4938C50.1661 83.1275 49.2515 82.6474 48.3668 82.0397C46.5704 81.851 45.0546 81.7003 43.6634 81.5348C41.607 81.2907 39.4083 82.2183 37.3619 83.5135C35.9352 84.4155 34.2239 85.147 32.5509 85.3208C30.9594 85.4861 29.295 85.1473 28.0598 83.8501L27.8187 83.5787C27.1715 82.7938 26.7764 81.9717 26.63 81.1375C25.6173 81.2346 24.7157 81.2785 23.455 81.2785C20.3909 81.2785 17.4481 81.0013 14.8715 80.3172C13.6558 81.517 11.6653 82.6152 9.7072 83.1844C8.5636 83.5169 7.33872 83.698 6.19558 83.5741C5.11351 83.4568 4.0401 83.0558 3.23739 82.1898L3.08122 82.0094C2.26285 81.0163 1.89162 79.9408 1.94556 78.8586C1.99839 77.8007 2.45094 76.8623 3.04635 76.0945C3.90879 74.9824 5.17068 74.0986 6.41695 73.5609C6.04283 72.488 5.8499 71.3028 5.84988 70.0053C5.84988 67.5141 5.84762 65.6224 6.39118 62.9578C6.66837 59.8737 7.52337 55.2561 10.1621 51.68L10.3531 51.4404C11.3516 50.2896 12.9524 49.8033 14.4318 50.2198C15.3984 50.492 16.5748 50.965 17.6614 51.9135C18.6302 52.7593 19.4774 53.9415 20.0586 55.5843C21.0345 55.3183 22.0906 54.996 23.455 54.996C24.8888 54.996 26.2156 55.3084 27.4093 55.6222C27.9633 54.049 28.7568 52.8894 29.67 52.0408C30.7738 51.0154 31.9874 50.5042 32.9982 50.2198L33.2954 50.1486C34.7856 49.8521 36.3642 50.438 37.2664 51.7103C37.7361 52.3731 38.1366 53.0743 38.4824 53.7921H39.7803C41.02 53.7877 42.5137 53.5754 44.2108 53.3312L44.5429 55.6358C42.8963 55.8728 41.2248 56.116 39.7879 56.121L39.7834 54.4911V54.9566L39.7879 56.121H39.4058C39.5858 56.6794 39.7419 57.2365 39.8743 57.7859C40.0251 58.4111 39.6413 59.0406 39.0161 59.1914C38.3909 59.3422 37.7613 58.9569 37.6106 58.3317C37.1585 56.4571 36.4619 54.6039 35.3666 53.0582C34.9907 52.528 34.2832 52.2782 33.6289 52.4624C32.8518 52.681 32.0074 53.0486 31.2545 53.7481C30.5085 54.4415 29.7861 55.5219 29.3425 57.2734L29.341 57.2719C29.2081 57.7997 28.7332 58.1892 28.1659 58.1892H28.1341C28.115 58.1887 28.0845 58.1867 28.0477 58.1831C27.9984 58.1783 27.9353 58.1657 27.8627 58.1467V58.1513C26.2609 57.7382 24.9442 57.325 23.455 57.3249C22.1325 57.3249 21.52 57.6601 19.9297 58.0254L19.9115 58.0285C19.0645 58.2088 18.2641 57.6848 18.0374 56.8989L17.8524 56.3257C17.3967 55.054 16.7704 54.2269 16.13 53.6678C15.3894 53.0214 14.5651 52.6776 13.8011 52.4624C13.1518 52.2795 12.4347 52.5244 12.0361 53.0628C9.7915 56.1049 8.98614 60.1777 8.71709 63.123C8.71543 63.1683 8.71056 63.2137 8.70345 63.2595C8.70041 63.294 8.6974 63.3293 8.69435 63.3656C8.68627 63.4618 8.66173 63.5526 8.63218 63.6401C8.18303 65.9387 8.17883 67.5957 8.17883 70.0053C8.17886 71.7215 8.58944 73.0862 9.28872 74.184C9.99116 75.2868 11.0264 76.1853 12.3728 76.8966C15.0988 78.3366 18.9837 78.9496 23.455 78.9496C24.8341 78.9496 25.734 78.8917 26.9044 78.7646C27.0315 78.4635 27.1881 78.1789 27.3684 77.914C28.3696 76.4423 30.1246 75.4495 31.7109 75.0771C32.3368 74.9304 32.9633 75.3186 33.1104 75.9444C33.2573 76.5703 32.8689 77.1967 32.2431 77.3439C31.0848 77.6158 29.8943 78.3416 29.294 79.224C29.0075 79.6452 28.8747 80.0701 28.8937 80.4946C28.9128 80.9165 29.0861 81.4553 29.6155 82.0973C30.2266 82.8389 31.1278 83.1282 32.3098 83.0055C33.5167 82.8801 34.8846 82.3247 36.1171 81.5454C38.2751 80.1796 41.0559 78.8799 43.9394 79.2225C44.4598 79.2844 44.9976 79.3405 45.5633 79.4014C44.6545 78.2013 43.9418 76.7454 43.5861 74.9892C43.079 72.4846 44.6992 70.045 47.2023 69.5368L47.4328 70.677L47.6648 71.8187C46.421 72.0714 45.6178 73.2833 45.8696 74.5267C46.6092 78.1781 49.3274 80.2499 51.9406 81.3452C54.5349 82.4324 57.3696 82.7275 59.2277 82.6795L59.3414 82.6765L59.4566 82.6613L59.916 82.5977C64.6084 81.8759 67.6332 79.3843 68.8619 76.2704C70.0694 73.2093 69.4365 69.5937 66.9332 67.555L66.8938 67.5217C66.6093 67.2684 66.4348 66.9202 66.3934 66.5513C66.0362 63.3731 65.0109 60.7433 63.364 58.7335C61.7231 56.7312 59.4082 55.2739 56.3407 54.526L56.3013 54.5169L56.6167 53.3948L56.6197 53.3797L56.3013 54.5169C55.7985 54.3757 55.0279 54.3161 54.0269 54.347C53.0468 54.3773 51.9307 54.4893 50.7792 54.6427C49.6299 54.7958 48.4655 54.9872 47.3888 55.1688C46.3229 55.3486 45.3226 55.523 44.5429 55.6358L44.3776 54.4835L44.2108 53.3312C44.9548 53.2235 45.9092 53.0559 47.0007 52.8717C48.0818 52.6894 49.28 52.4937 50.4714 52.335C51.6603 52.1766 52.8638 52.0518 53.9557 52.0181ZM7.46468 75.6487C6.51409 76.0355 5.51517 76.7115 4.88707 77.5213C4.49527 78.0265 4.29416 78.5202 4.27147 78.9754C4.25009 79.4062 4.38094 79.9247 4.87797 80.528C5.20303 80.9223 5.71001 81.1789 6.44576 81.2588C7.19264 81.3398 8.09866 81.2265 9.05673 80.948C10.2647 80.5968 11.4112 80.025 12.2818 79.4287C11.9398 79.2803 11.6064 79.1251 11.2856 78.9556C9.73486 78.1364 8.41709 77.0535 7.46468 75.6487ZM47.2023 69.5368C49.706 69.0305 52.1476 70.6486 52.6547 73.153C52.7547 73.6458 53.0819 74.2011 54.124 74.7344L54.6168 74.9619L55.1596 75.1666C56.4151 75.5923 57.8152 75.7589 58.8183 75.7609C61.5238 75.3607 62.2415 74.1892 62.4224 73.7307C62.5677 73.3619 62.5488 73.1093 62.5179 72.9726C62.5028 72.9058 62.4828 72.8605 62.4709 72.8376C62.0565 72.4205 62.0143 71.7498 62.3936 71.2835C62.7993 70.785 63.5323 70.7099 64.0311 71.1152C64.3939 71.4103 64.6676 71.9133 64.7907 72.457C64.9259 73.0539 64.9051 73.7846 64.5891 74.5858C64.0537 75.9429 62.5374 77.5904 59.073 78.0793L58.9957 78.0899L58.9183 78.0914L58.3725 78.0823C57.0338 78.0314 55.2705 77.7595 53.7176 77.1089C51.8658 76.3341 50.6929 75.2025 50.3713 73.6139C50.1192 72.3709 48.9078 71.5677 47.6648 71.8187L47.2023 69.5368Z" fill="#1A1A1A"/>
<path opacity="0.7" d="M12.8795 54.8004C13.1567 54.4246 13.647 54.257 14.0963 54.3844C14.6486 54.5397 15.8431 55.6151 16.525 56.7779C16.8012 57.2483 16.4756 57.7869 15.9489 57.9283C14.754 58.2481 13.7963 58.6987 12.6979 59.4996C12.0134 59.998 11.1208 59.5077 11.3365 58.6881C11.7171 57.2442 12.2836 55.6078 12.8795 54.8004ZM34.0358 54.3844C34.4851 54.257 34.9754 54.4246 35.2526 54.8004C35.8484 55.6078 36.415 57.2442 36.7955 58.6881C37.0113 59.5077 36.1187 59.9979 35.4342 59.4996C34.3358 58.6987 33.3781 58.2481 32.1832 57.9283C31.6564 57.7869 31.3309 57.2483 31.6071 56.7779C32.289 55.6151 33.4835 54.5397 34.0358 54.3844Z" fill="#E24C0C"/>
<path d="M23.2292 73.75C23.658 73.75 24.0056 74.0976 24.0056 74.5263C24.0056 74.9551 23.658 75.3026 23.2292 75.3026H21.7373C21.3085 75.3026 20.9609 74.9551 20.9609 74.5263C20.9609 74.0976 21.3085 73.75 21.7373 73.75H23.2292Z" fill="#1A1A1A"/>
<path d="M26.4446 72.0555C26.6322 71.6739 27.0834 71.5212 27.4514 71.7156C27.4522 71.7163 27.4535 71.7176 27.4553 71.7186C27.46 71.721 27.4685 71.7251 27.4787 71.7303C27.4995 71.7409 27.5317 71.7559 27.5715 71.7752C27.6519 71.8143 27.7649 71.8681 27.8938 71.9227C28.1699 72.0394 28.4534 72.1356 28.6448 72.159C28.8279 72.1812 29.1131 72.1591 29.3967 72.118C29.5292 72.0988 29.6468 72.0787 29.7307 72.0623C29.7725 72.0541 29.8065 72.0465 29.8283 72.0418C29.8385 72.0396 29.8459 72.037 29.8508 72.0359C29.8531 72.0354 29.8556 72.0361 29.8567 72.0359C30.26 71.9434 30.6599 72.2073 30.7492 72.6258C30.8382 73.0442 30.5832 73.458 30.1799 73.5506L30.176 73.5516C30.1736 73.5521 30.1692 73.5536 30.1653 73.5545L30.009 73.5867C29.9077 73.6066 29.7661 73.6327 29.6047 73.6561C29.2999 73.7002 28.8541 73.7468 28.4699 73.7C28.0665 73.6508 27.626 73.4851 27.3283 73.3592C27.1711 73.2927 27.0342 73.2298 26.9367 73.1824C26.8883 73.1589 26.8485 73.1381 26.8205 73.1238C26.8065 73.1167 26.7934 73.1104 26.7854 73.1063C26.7819 73.1045 26.7788 73.1035 26.7766 73.1024L26.7717 73.0994L26.6448 73.0145C26.3726 72.7897 26.281 72.3897 26.4446 72.0555ZM28.9485 68.5096C29.7748 68.5096 30.4446 69.205 30.4446 70.0623C30.4443 70.9194 29.7747 71.6141 28.9485 71.6141C28.1223 71.614 27.4526 70.9194 27.4524 70.0623C27.4524 69.205 28.1222 68.5097 28.9485 68.5096Z" fill="#1A1A1A"/>
<path d="M19.0321 72.0554C18.8445 71.6735 18.3933 71.521 18.0252 71.7155C18.0244 71.7159 18.0226 71.7173 18.0203 71.7184C18.0156 71.7209 18.0079 71.7251 17.9979 71.7302C17.9771 71.7407 17.945 71.7557 17.9051 71.7751C17.8248 71.8141 17.7118 71.868 17.5828 71.9225C17.3068 72.0393 17.0233 72.1354 16.8319 72.1589C16.6488 72.1811 16.3627 72.159 16.0789 72.1179C15.9465 72.0987 15.8288 72.0786 15.745 72.0622C15.7035 72.0541 15.6701 72.0464 15.6483 72.0417C15.638 72.0395 15.6298 72.0369 15.6248 72.0358C15.6225 72.0353 15.6199 72.036 15.619 72.0358C15.2156 71.9432 14.8157 72.2072 14.7264 72.6257C14.6375 73.0439 14.8926 73.4578 15.2957 73.5505L15.3006 73.5515C15.303 73.552 15.3067 73.5536 15.3104 73.5544L15.4676 73.5866C15.569 73.6065 15.7107 73.6326 15.8719 73.6559C16.1768 73.7001 16.6226 73.7467 17.0067 73.6999C17.41 73.6506 17.8497 73.485 18.1473 73.3591C18.3048 73.2924 18.4423 73.2297 18.5399 73.1823C18.5883 73.1588 18.6281 73.1379 18.6561 73.1237C18.67 73.1166 18.6823 73.1103 18.6903 73.1061C18.694 73.1042 18.6977 73.1034 18.7 73.1022L18.7039 73.0993L18.8319 73.0143C19.1039 72.7896 19.1956 72.3895 19.0321 72.0554ZM16.5272 68.5095C15.7009 68.5095 15.0311 69.2049 15.0311 70.0622C15.0313 70.9193 15.701 71.6139 16.5272 71.614C17.3534 71.6139 18.0231 70.9193 18.0233 70.0622C18.0233 69.2049 17.3535 68.5095 16.5272 68.5095Z" fill="#1A1A1A"/>
</svg>
