<svg width="75" height="86" viewBox="0 0 75 86" fill="none" xmlns="http://www.w3.org/2000/svg">
<path fill-rule="evenodd" clip-rule="evenodd" d="M19.3717 51.057C10.4482 51.0182 4.71131 45.8405 1.9582 41.6269C1.10638 40.3228 1.65728 38.6211 3.04494 37.9147C15.3005 31.6735 21.2194 38.0343 23.5547 44.8375C25.8899 38.0343 31.8089 31.6735 44.0644 37.9147C45.4525 38.6211 46.0037 40.3228 45.1513 41.6269C42.1437 46.2286 35.5773 51.9808 25.1866 50.9328L25.4474 58.5046C25.4924 59.8336 24.4273 60.9374 23.0966 60.9374C21.9554 60.9374 20.9787 60.1192 20.78 58.9952L19.3717 51.057Z" fill="#14AE5C"/>
<path d="M19.3716 51.057L20.5191 50.8536C20.4197 50.2994 19.9399 49.8957 19.3763 49.8926L19.3716 51.057ZM23.5546 44.8375L22.4537 45.2148C22.6152 45.6852 23.0577 46.0019 23.5546 46.0019C24.0515 46.0019 24.494 45.6852 24.6555 45.2148L23.5546 44.8375ZM25.1865 50.9328L25.3045 49.7746C24.9691 49.7405 24.6369 49.8522 24.3915 50.082C24.1462 50.3118 24.0127 50.6363 24.0235 50.9732L25.1865 50.9328ZM19.3763 49.8926C10.9528 49.8553 5.53823 44.9773 2.9331 40.9903L0.983366 42.2634C3.88429 46.7037 9.94513 52.1795 19.367 52.2214L19.3763 49.8926ZM2.9331 40.9903C2.50176 40.3289 2.73327 39.3787 3.57344 38.9518L2.5165 36.8761C0.581209 37.862 -0.288923 40.3165 0.983366 42.2634L2.9331 40.9903ZM3.57344 38.9518C9.49174 35.9368 13.6297 36.0827 16.4976 37.525C19.4182 38.9922 21.3358 41.9591 22.4537 45.2148L24.6555 44.4587C23.4397 40.9127 21.2287 37.2968 17.5425 35.4431C13.8036 33.5645 8.85357 33.6499 2.5165 36.8761L3.57344 38.9518ZM44.5923 36.8761C38.2557 33.6499 33.3056 33.5645 29.5667 35.4431C25.8806 37.2968 23.6711 40.9127 22.4537 44.4587L24.6555 45.2148C25.7734 41.9591 27.691 38.9922 30.6117 37.525C33.4795 36.0827 37.6175 35.9368 43.5364 38.9518L44.5923 36.8761ZM46.1263 42.2634C47.398 40.3165 46.5285 37.862 44.5923 36.8761L43.5364 38.9518C44.3764 39.3787 44.6078 40.3289 44.1761 40.9903L46.1263 42.2634ZM25.0701 52.091C36.0136 53.1949 42.9557 47.1166 46.1263 42.2634L44.1761 40.9903C41.3331 45.3406 35.1409 50.7667 25.3045 49.7746L25.0701 52.091ZM26.6119 58.4642L26.351 50.8924L24.0235 50.9732L24.2828 58.5434L26.6119 58.4642ZM23.0966 62.1018C25.0856 62.1018 26.6787 60.453 26.6119 58.4642L24.2828 58.5434C24.3061 59.2157 23.7689 59.773 23.0966 59.773V62.1018ZM19.6325 59.1986C19.9306 60.8784 21.3901 62.1018 23.0966 62.1018V59.773C22.5205 59.773 22.0268 59.36 21.9258 58.7918L19.6325 59.1986ZM18.2257 51.2604L19.6325 59.1986L21.9258 58.7918L20.5191 50.8536L18.2257 51.2604Z" fill="#1A1A1A"/>
<path d="M28.1792 44.9881C31.5315 42.6034 35.2812 40.9981 38.1957 40.0433C38.9969 39.7824 38.941 38.6367 38.0979 38.6274C32.6261 38.5622 29.1015 41.4515 27.2072 44.1964C26.7491 44.8577 27.5255 45.4539 28.1792 44.9881Z" fill="#036838"/>
<path d="M17.378 44.9867C14.0273 42.6035 10.2759 40.9981 7.36147 40.0433C6.56027 39.7809 6.61773 38.6367 7.45929 38.6258C12.931 38.5622 16.4572 41.4515 18.3515 44.1964C18.808 44.8578 18.0332 45.4524 17.378 44.9867Z" fill="#036838"/>
</svg>
