<svg width="75" height="86" viewBox="0 0 75 86" fill="none" xmlns="http://www.w3.org/2000/svg">
<path d="M40.8461 37.0382C22.431 39.1341 11.6024 35.1597 8.48926 32.9085L28.3779 2.77356L40.8461 37.0382Z" fill="#2F15AC"/>
<path d="M35.6058 33.5252C35.711 33.5046 35.8138 33.5733 35.8343 33.6785C35.8477 33.7474 35.8594 33.8213 35.8694 33.8992C35.8998 33.8583 35.9284 33.8181 35.9544 33.7791C36.0139 33.69 36.1338 33.666 36.223 33.7254C36.3121 33.7848 36.3361 33.9048 36.2767 33.9939C36.2285 34.0662 36.1748 34.1417 36.1136 34.2185C36.1741 34.2115 36.2363 34.203 36.3001 34.1922C36.4057 34.1742 36.5056 34.2448 36.5237 34.3504C36.5417 34.456 36.4711 34.5559 36.3655 34.574C36.2848 34.5878 36.2064 34.5989 36.1302 34.6072C36.1662 34.6356 36.2038 34.6639 36.2425 34.6922C36.329 34.7553 36.3476 34.8771 36.2845 34.9637C36.2213 35.0501 36.0996 35.0687 36.013 35.0056C35.9581 34.9656 35.9058 34.9249 35.8558 34.8846C35.8474 34.9405 35.8378 34.9981 35.8265 35.0564C35.806 35.1616 35.7041 35.2301 35.5989 35.2097C35.4938 35.1893 35.4254 35.0883 35.4456 34.9832C35.4551 34.9343 35.4628 34.8856 35.47 34.8387C35.4147 34.8804 35.3563 34.9224 35.2952 34.9637C35.2065 35.0233 35.0856 34.9996 35.0257 34.9109C34.966 34.8221 34.9897 34.7013 35.0784 34.6414C35.109 34.6207 35.1393 34.5997 35.1683 34.5789C35.1032 34.5674 35.0405 34.5548 34.9818 34.5408C34.8778 34.5159 34.8136 34.4115 34.8382 34.3074C34.863 34.2033 34.9675 34.1384 35.0716 34.1629C35.1099 34.172 35.1502 34.1812 35.1917 34.1892C35.146 34.1261 35.1049 34.0644 35.0677 34.0056C35.0106 33.9151 35.0378 33.7953 35.1282 33.7381C35.2188 33.6808 35.3385 33.7081 35.3958 33.7986C35.422 33.84 35.4508 33.8825 35.4818 33.9265C35.4734 33.8653 35.4631 33.8073 35.4525 33.7527C35.4321 33.6477 35.5009 33.5459 35.6058 33.5252ZM15.1741 31.1111C15.2793 31.0906 15.3811 31.1593 15.4017 31.2644C15.4151 31.3334 15.4278 31.4072 15.4378 31.4851C15.4681 31.4443 15.4958 31.404 15.5218 31.365C15.5813 31.2758 15.7021 31.2519 15.7913 31.3113C15.8801 31.3708 15.9042 31.4908 15.845 31.5799C15.7968 31.6522 15.7423 31.7276 15.681 31.8045C15.7416 31.7974 15.8044 31.789 15.8685 31.7781C15.974 31.7603 16.0741 31.8308 16.0921 31.9363C16.1101 32.042 16.0386 32.1419 15.9329 32.1599C15.8523 32.1737 15.7737 32.1849 15.6976 32.1931C15.7335 32.2215 15.7712 32.2499 15.8099 32.2781C15.8965 32.3412 15.916 32.463 15.8528 32.5496C15.7897 32.6362 15.668 32.6547 15.5814 32.5916C15.5264 32.5515 15.4733 32.5109 15.4232 32.4705C15.4148 32.5265 15.4052 32.584 15.3939 32.6424C15.3734 32.7476 15.2715 32.8161 15.1663 32.7957C15.0612 32.7751 14.9926 32.6733 15.013 32.5681C15.0225 32.5194 15.0312 32.4714 15.0384 32.4246C14.983 32.4663 14.9246 32.5084 14.8636 32.5496C14.7748 32.6095 14.654 32.5856 14.5941 32.4969C14.5342 32.4081 14.5571 32.2873 14.6458 32.2273C14.6765 32.2066 14.7066 32.1857 14.7357 32.1648C14.6707 32.1533 14.6088 32.1407 14.5501 32.1267C14.446 32.1019 14.381 31.9975 14.4056 31.8933C14.4304 31.7891 14.5357 31.724 14.64 31.7488C14.6783 31.7579 14.7184 31.7671 14.7601 31.7752C14.7144 31.712 14.6732 31.6503 14.636 31.5916C14.5788 31.5011 14.6052 31.3814 14.6956 31.324C14.7862 31.2667 14.9068 31.294 14.9642 31.3846C14.9903 31.4258 15.0183 31.4686 15.0491 31.5125C15.0408 31.4513 15.0315 31.3932 15.0208 31.3387C15.0003 31.2335 15.069 31.1316 15.1741 31.1111ZM21.6214 29.1004C21.7265 29.0799 21.8283 29.1487 21.8489 29.2537C21.8624 29.3227 21.875 29.3964 21.8851 29.4744C21.9154 29.4335 21.9431 29.3933 21.9691 29.3543C22.0285 29.2651 22.1494 29.2411 22.2386 29.3006C22.3277 29.3601 22.3517 29.481 22.2923 29.5701C22.2441 29.6424 22.1894 29.7169 22.1282 29.7937C22.1889 29.7867 22.2517 29.7783 22.3157 29.7674C22.4212 29.7495 22.5212 29.8202 22.5394 29.9256C22.5574 30.0311 22.4866 30.132 22.3812 30.1502C22.3006 30.1639 22.2218 30.1741 22.1458 30.1824C22.1817 30.2107 22.2186 30.2392 22.2571 30.2674C22.3437 30.3305 22.3631 30.4523 22.3001 30.5388C22.237 30.6254 22.1152 30.6448 22.0286 30.5818C21.9737 30.5418 21.9214 30.5011 21.8714 30.4607C21.863 30.5167 21.8525 30.5742 21.8411 30.6326C21.8205 30.7376 21.7187 30.8063 21.6136 30.7859C21.5085 30.7654 21.44 30.6635 21.4603 30.5584C21.4697 30.5096 21.4785 30.4617 21.4857 30.4148C21.4303 30.4565 21.3719 30.4976 21.3109 30.5388C21.2221 30.5988 21.1014 30.5757 21.0413 30.4871C20.9814 30.3984 21.0047 30.2777 21.0931 30.2176C21.1237 30.1969 21.154 30.1758 21.1829 30.1551C21.1179 30.1436 21.0561 30.13 20.9974 30.116C20.8931 30.0912 20.829 29.9869 20.8538 29.8826C20.8787 29.7784 20.983 29.7142 21.0872 29.739C21.1255 29.7482 21.1657 29.7564 21.2073 29.7644C21.1617 29.7014 21.1204 29.6404 21.0833 29.5818C21.026 29.4913 21.0524 29.3706 21.1429 29.3133C21.2334 29.2559 21.3541 29.2833 21.4114 29.3738C21.4377 29.4153 21.4664 29.4586 21.4974 29.5027C21.489 29.4413 21.4788 29.3826 21.4681 29.3279C21.4478 29.2229 21.5163 29.1209 21.6214 29.1004ZM17.3558 25.3513C17.461 25.3309 17.5628 25.3995 17.5833 25.5047C17.5967 25.5735 17.6094 25.6467 17.6194 25.7244C17.6496 25.6838 17.6776 25.644 17.7034 25.6053C17.7629 25.5161 17.8838 25.4921 17.973 25.5515C18.0617 25.6111 18.0859 25.7311 18.0267 25.8201C17.9784 25.8925 17.9239 25.9678 17.8626 26.0447C17.9233 26.0377 17.9861 26.0283 18.0501 26.0174C18.1556 25.9997 18.2558 26.071 18.2737 26.1765C18.2917 26.2822 18.2202 26.3822 18.1146 26.4002C18.0339 26.4139 17.9553 26.4251 17.8792 26.4334C17.9152 26.4618 17.9528 26.4901 17.9915 26.5183C18.0781 26.5815 18.0976 26.7032 18.0345 26.7898C17.9713 26.8764 17.8496 26.895 17.763 26.8318C17.708 26.7917 17.655 26.7512 17.6048 26.7107C17.5964 26.7668 17.5868 26.8242 17.5755 26.8826C17.5551 26.9878 17.4532 27.0564 17.348 27.0359C17.2428 27.0154 17.1742 26.9135 17.1946 26.8084C17.2041 26.7596 17.2129 26.7117 17.22 26.6648C17.1647 26.7065 17.1063 26.7486 17.0452 26.7898C16.9564 26.8497 16.8357 26.8259 16.7757 26.7371C16.7157 26.6483 16.7388 26.5276 16.8275 26.4676C16.8581 26.4468 16.8883 26.4259 16.9173 26.4051C16.8523 26.3936 16.7904 26.3809 16.7318 26.367C16.6277 26.3422 16.5627 26.2377 16.5872 26.1336C16.612 26.0293 16.7173 25.9642 16.8216 25.989C16.8599 25.9982 16.9001 26.0074 16.9417 26.0154C16.896 25.9523 16.8549 25.8905 16.8177 25.8318C16.7604 25.7413 16.7869 25.6216 16.8773 25.5642C16.9678 25.5069 17.0875 25.5342 17.1448 25.6248C17.171 25.6661 17.1998 25.7087 17.2308 25.7527C17.2224 25.6915 17.2131 25.6335 17.2025 25.5789C17.1819 25.4737 17.2506 25.3719 17.3558 25.3513ZM24.6985 24.6678C24.8036 24.6474 24.9054 24.7161 24.9261 24.8211C24.9396 24.89 24.9522 24.9638 24.9622 25.0418C24.9925 25.001 25.0203 24.9606 25.0462 24.9217C25.1057 24.8326 25.2266 24.8085 25.3157 24.8679C25.4048 24.9274 25.4289 25.0484 25.3694 25.1375C25.3212 25.2099 25.2667 25.2852 25.2054 25.3621C25.2661 25.355 25.3288 25.3457 25.3929 25.3347C25.4984 25.317 25.5985 25.3884 25.6165 25.4939C25.6343 25.5994 25.5629 25.6996 25.4573 25.7176C25.3767 25.7313 25.2981 25.7425 25.222 25.7508C25.258 25.7792 25.2956 25.8075 25.3343 25.8357C25.4207 25.8988 25.4401 26.0197 25.3773 26.1062C25.3142 26.1928 25.1924 26.2122 25.1058 26.1492C25.0507 26.1091 24.9977 26.0686 24.9476 26.0281C24.9392 26.0841 24.9296 26.1416 24.9183 26.2C24.8977 26.305 24.7959 26.3737 24.6907 26.3533C24.5856 26.3328 24.517 26.2309 24.5374 26.1258C24.5469 26.077 24.5556 26.0291 24.5628 25.9822C24.5075 26.0239 24.449 26.065 24.388 26.1062C24.2993 26.1662 24.1785 26.1431 24.1185 26.0545C24.0585 25.9658 24.0817 25.845 24.1702 25.7849C24.2009 25.7642 24.2311 25.7433 24.2601 25.7224C24.195 25.7109 24.1332 25.6974 24.0745 25.6834C23.9702 25.6586 23.9052 25.5542 23.93 25.45C23.9548 25.3457 24.0601 25.2816 24.1644 25.3064C24.2027 25.3155 24.2429 25.3238 24.2845 25.3318C24.2389 25.2688 24.1976 25.2078 24.1605 25.1492C24.1032 25.0588 24.1298 24.9391 24.22 24.8816C24.3105 24.8243 24.4302 24.8509 24.4876 24.9412C24.5139 24.9827 24.5425 25.0259 24.5735 25.0701C24.5652 25.0089 24.5559 24.9509 24.5452 24.8963C24.5247 24.7911 24.5933 24.6883 24.6985 24.6678ZM33.7962 21.6482C33.9013 21.6277 34.0032 21.6964 34.0237 21.8015C34.0372 21.8705 34.0499 21.9443 34.0599 22.0222C34.0902 21.9814 34.1179 21.9411 34.1439 21.9021C34.2033 21.8129 34.3242 21.789 34.4134 21.8484C34.5022 21.9079 34.5262 22.0279 34.4671 22.117C34.4189 22.1893 34.3643 22.2647 34.303 22.3416C34.3637 22.3345 34.4265 22.3261 34.4905 22.3152C34.596 22.2974 34.6961 22.368 34.7142 22.4734C34.7322 22.5791 34.6607 22.68 34.555 22.698C34.4744 22.7117 34.3957 22.722 34.3196 22.7303C34.3556 22.7586 34.3933 22.787 34.4319 22.8152C34.5185 22.8783 34.5379 23.0001 34.4749 23.0867C34.4118 23.1733 34.29 23.1918 34.2034 23.1287C34.1485 23.0886 34.0953 23.049 34.0452 23.0086C34.0369 23.0644 34.0272 23.1214 34.0159 23.1795C33.9955 23.2847 33.8936 23.3542 33.7884 23.3338C33.6833 23.3133 33.6148 23.2113 33.6351 23.1062C33.6446 23.0573 33.6533 23.0087 33.6605 22.9617C33.6051 23.0034 33.5467 23.0455 33.4857 23.0867C33.3968 23.1467 33.2761 23.1228 33.2161 23.034C33.1563 22.9452 33.1792 22.8244 33.2679 22.7644C33.2985 22.7438 33.3288 22.7237 33.3577 22.7029C33.2927 22.6914 33.2309 22.6778 33.1722 22.6638C33.0679 22.639 33.0038 22.5347 33.0286 22.4304C33.0535 22.3262 33.1577 22.2621 33.262 22.2869C33.3003 22.296 33.3406 22.3043 33.3821 22.3123C33.3364 22.2491 33.2953 22.1874 33.2581 22.1287C33.201 22.0382 33.2273 21.9184 33.3177 21.8611C33.4082 21.8038 33.5289 21.8311 33.5862 21.9217C33.6125 21.9631 33.6402 22.0065 33.6712 22.0506C33.6629 21.9892 33.6536 21.9305 33.6429 21.8758C33.6225 21.7706 33.6911 21.6687 33.7962 21.6482ZM21.14 21.3611C21.2451 21.3408 21.347 21.4093 21.3675 21.5144C21.381 21.5834 21.3926 21.6572 21.4027 21.7351C21.433 21.6943 21.4616 21.654 21.4876 21.615C21.547 21.5259 21.667 21.502 21.7562 21.5613C21.8452 21.6207 21.87 21.7407 21.8109 21.8299C21.7626 21.9022 21.7081 21.9776 21.6468 22.0545C21.7073 22.0474 21.7695 22.039 21.8333 22.0281C21.939 22.0101 22.0399 22.0807 22.0579 22.1863C22.0759 22.292 22.0044 22.3919 21.8987 22.4099C21.8181 22.4237 21.7395 22.4349 21.6634 22.4431C21.6994 22.4715 21.737 22.4999 21.7757 22.5281C21.8623 22.5913 21.8808 22.713 21.8177 22.7996C21.7545 22.8859 21.6337 22.9046 21.5472 22.8416C21.4922 22.8015 21.4391 22.761 21.389 22.7205C21.3806 22.7765 21.371 22.834 21.3597 22.8924C21.3392 22.9976 21.2374 23.0661 21.1321 23.0457C21.0269 23.0252 20.9584 22.9234 20.9788 22.8181C20.9883 22.7694 20.9961 22.7214 21.0032 22.6746C20.9479 22.7162 20.8904 22.7584 20.8294 22.7996C20.7406 22.8596 20.6199 22.8357 20.5599 22.7469C20.4999 22.658 20.5228 22.5373 20.6116 22.4773C20.6423 22.4566 20.6725 22.4356 20.7015 22.4148C20.6365 22.4034 20.5746 22.3907 20.5159 22.3767C20.4118 22.3519 20.3468 22.2475 20.3714 22.1433C20.3962 22.0391 20.5015 21.974 20.6058 21.9988C20.6439 22.0079 20.6835 22.0172 20.7249 22.0252C20.6792 21.962 20.6381 21.9003 20.6009 21.8416C20.5439 21.7511 20.571 21.6313 20.6614 21.574C20.752 21.5167 20.8717 21.544 20.929 21.6346C20.9552 21.6759 20.984 21.7185 21.015 21.7625C21.0066 21.7012 20.9973 21.6433 20.9866 21.5887C20.9661 21.4835 21.0347 21.3817 21.14 21.3611ZM25.7991 18.365C25.9043 18.3445 26.0061 18.4131 26.0267 18.5183C26.0401 18.5871 26.0528 18.6603 26.0628 18.7381C26.093 18.6974 26.1209 18.6577 26.1468 18.6189C26.2062 18.5298 26.3271 18.5049 26.4163 18.5642C26.5055 18.6237 26.5295 18.7446 26.47 18.8338C26.4218 18.9062 26.3673 18.9814 26.306 19.0584C26.3666 19.0513 26.4294 19.042 26.4935 19.031C26.5991 19.0132 26.6991 19.0846 26.7171 19.1902C26.735 19.2957 26.6643 19.3957 26.5589 19.4138C26.4783 19.4276 26.3996 19.4388 26.3235 19.4471C26.3594 19.4753 26.3963 19.5039 26.4349 19.532C26.5215 19.5952 26.541 19.7169 26.4778 19.8035C26.4146 19.8899 26.2929 19.9086 26.2064 19.8455C26.1514 19.8054 26.0992 19.7648 26.0491 19.7244C26.0407 19.7805 26.0302 19.8379 26.0189 19.8963C25.9984 20.0015 25.8965 20.07 25.7913 20.0496C25.6863 20.029 25.6176 19.9271 25.638 19.8221C25.6475 19.7732 25.6562 19.7254 25.6634 19.6785C25.6081 19.7202 25.5496 19.7613 25.4886 19.8025C25.3998 19.8625 25.2791 19.8396 25.2191 19.7508C25.1591 19.662 25.183 19.5412 25.2718 19.4812C25.3023 19.4606 25.3318 19.4395 25.3607 19.4187C25.2957 19.4072 25.2338 19.3946 25.1751 19.3806C25.0708 19.3558 25.0067 19.2505 25.0316 19.1463C25.0566 19.0423 25.1609 18.978 25.265 19.0027C25.3033 19.0118 25.3434 19.0211 25.3851 19.0291C25.3394 18.9659 25.2982 18.9042 25.261 18.8455C25.2037 18.7549 25.231 18.6353 25.3216 18.5779C25.4121 18.5208 25.5318 18.5471 25.5892 18.6375C25.6155 18.679 25.644 18.7222 25.6751 18.7664C25.6668 18.7051 25.6565 18.6472 25.6458 18.5926C25.6253 18.4874 25.694 18.3856 25.7991 18.365ZM30.4456 16.5096C30.5508 16.4891 30.6526 16.5577 30.6732 16.6629C30.6866 16.7317 30.6993 16.8049 30.7093 16.8826C30.7395 16.842 30.7674 16.8022 30.7933 16.7635C30.8527 16.6743 30.9736 16.6503 31.0628 16.7097C31.1515 16.7693 31.1757 16.8893 31.1165 16.9783C31.0683 17.0507 31.0138 17.126 30.9525 17.2029C31.0131 17.1959 31.0759 17.1865 31.14 17.1756C31.2454 17.1579 31.3456 17.2293 31.3636 17.3347C31.3816 17.4404 31.3101 17.5404 31.2044 17.5584C31.1238 17.5721 31.0452 17.5833 30.9691 17.5916C31.005 17.62 31.0426 17.6483 31.0814 17.6765C31.168 17.7397 31.1875 17.8614 31.1243 17.948C31.0612 18.0346 30.9394 18.0531 30.8528 17.99C30.7978 17.9499 30.7448 17.9094 30.6946 17.8689C30.6862 17.925 30.6767 17.9824 30.6653 18.0408C30.6449 18.146 30.543 18.2146 30.4378 18.1941C30.3326 18.1736 30.264 18.0718 30.2845 17.9666C30.294 17.9178 30.3017 17.8699 30.3089 17.823C30.2537 17.8646 30.1959 17.906 30.1351 17.9471C30.0463 18.007 29.9256 17.9841 29.8655 17.8953C29.8056 17.8065 29.8286 17.6858 29.9173 17.6258C29.948 17.605 29.9781 17.5841 30.0071 17.5633C29.9421 17.5518 29.8803 17.5391 29.8216 17.5252C29.7173 17.5004 29.6522 17.3951 29.6771 17.2908C29.702 17.1867 29.8073 17.1224 29.9114 17.1472C29.9497 17.1564 29.99 17.1656 30.0316 17.1736C29.9859 17.1105 29.9447 17.0487 29.9075 16.99C29.8502 16.8995 29.8767 16.7798 29.9671 16.7224C30.0575 16.6652 30.1772 16.6919 30.2347 16.782C30.2609 16.8234 30.2896 16.8668 30.3206 16.9109C30.3123 16.8497 30.303 16.7917 30.2923 16.7371C30.2718 16.6319 30.3404 16.5301 30.4456 16.5096ZM21.5511 15.1433C21.6563 15.1228 21.7581 15.1915 21.7786 15.2967C21.7921 15.3655 21.8048 15.4387 21.8148 15.5164C21.8451 15.4756 21.8728 15.4352 21.8987 15.3963C21.9582 15.3072 22.0791 15.2831 22.1683 15.3426C22.2574 15.402 22.2814 15.5229 22.222 15.6121C22.1737 15.6845 22.1192 15.7598 22.0579 15.8367C22.1186 15.8296 22.1814 15.8203 22.2454 15.8094C22.351 15.7915 22.4511 15.863 22.4691 15.9685C22.4869 16.0739 22.4162 16.174 22.3109 16.1922C22.2303 16.2059 22.1515 16.2171 22.0755 16.2254C22.1113 16.2536 22.1483 16.2822 22.1868 16.3103C22.2733 16.3734 22.2926 16.4943 22.2298 16.5808C22.1667 16.6674 22.0449 16.6869 21.9583 16.6238C21.9034 16.5838 21.8512 16.5431 21.8011 16.5027C21.7927 16.5588 21.7822 16.6162 21.7708 16.6746C21.7503 16.7797 21.6484 16.8483 21.5433 16.8279C21.4382 16.8074 21.3695 16.7055 21.39 16.6004C21.3994 16.5515 21.4082 16.5037 21.4153 16.4568C21.36 16.4985 21.3015 16.5396 21.2405 16.5808C21.1518 16.6408 21.031 16.6178 20.971 16.5291C20.9111 16.4404 20.9342 16.3196 21.0228 16.2596C21.0534 16.2388 21.0836 16.2179 21.1126 16.1971C21.0476 16.1856 20.9857 16.1729 20.9271 16.159C20.8228 16.1341 20.7587 16.0289 20.7835 15.9246C20.8085 15.8205 20.9127 15.7562 21.0169 15.781C21.0552 15.7902 21.0954 15.7984 21.137 15.8064C21.0914 15.7434 21.0501 15.6824 21.013 15.6238C20.9557 15.5334 20.9824 15.4137 21.0726 15.3562C21.1631 15.2989 21.2838 15.3253 21.3411 15.4158C21.3674 15.4573 21.396 15.5005 21.4271 15.5447C21.4187 15.4834 21.4084 15.4255 21.3978 15.3709C21.3772 15.2657 21.4459 15.1639 21.5511 15.1433ZM25.639 12.0379C25.7442 12.0173 25.846 12.086 25.8665 12.1912C25.88 12.2602 25.8926 12.334 25.9027 12.4119C25.9329 12.3711 25.9607 12.3307 25.9866 12.2918C26.0461 12.2026 26.167 12.1786 26.2562 12.2381C26.3452 12.2975 26.3693 12.4175 26.3099 12.5066C26.2616 12.579 26.2072 12.6543 26.1458 12.7312C26.2065 12.7242 26.2693 12.7158 26.3333 12.7049C26.4389 12.6869 26.5389 12.7575 26.5569 12.8631C26.5749 12.9686 26.5043 13.0686 26.3987 13.0867C26.3181 13.1004 26.2395 13.1116 26.1634 13.1199C26.1994 13.1483 26.237 13.1766 26.2757 13.2049C26.3621 13.2681 26.3808 13.3898 26.3177 13.4763C26.2545 13.5628 26.1328 13.5814 26.0462 13.5183C25.9913 13.4783 25.939 13.4376 25.889 13.3972C25.8806 13.4532 25.871 13.5108 25.8597 13.5691C25.8393 13.6742 25.7372 13.7427 25.6321 13.7224C25.5269 13.702 25.4574 13.6001 25.4778 13.4949C25.4873 13.4461 25.4961 13.3982 25.5032 13.3513C25.4479 13.393 25.3895 13.4351 25.3284 13.4763C25.2396 13.536 25.1188 13.5123 25.0589 13.4236C24.9991 13.3348 25.0229 13.214 25.1116 13.1541C25.1422 13.1334 25.1716 13.1123 25.2005 13.0916C25.1356 13.0801 25.0736 13.0674 25.015 13.0535C24.9109 13.0286 24.8468 12.9242 24.8714 12.8201C24.8962 12.7159 25.0006 12.651 25.1048 12.6756C25.1431 12.6847 25.1833 12.6939 25.2249 12.7019C25.1792 12.6388 25.1381 12.5771 25.1009 12.5183C25.0437 12.4278 25.071 12.3081 25.1614 12.2508C25.252 12.1936 25.3717 12.2208 25.429 12.3113C25.4552 12.3527 25.484 12.3952 25.515 12.4392C25.5066 12.378 25.4963 12.32 25.4857 12.2654C25.4652 12.1604 25.534 12.0585 25.639 12.0379ZM29.1487 7.77615C29.2538 7.75582 29.3557 7.82441 29.3763 7.92947C29.3898 7.99844 29.4014 8.07223 29.4114 8.15018C29.4418 8.10929 29.4704 8.06906 29.4964 8.03006C29.5558 7.941 29.6758 7.9171 29.765 7.97635C29.854 8.03569 29.8787 8.15577 29.8196 8.2449C29.7714 8.31722 29.7168 8.39267 29.6556 8.46951C29.7161 8.46248 29.7783 8.45402 29.8421 8.44315C29.9477 8.42515 30.0486 8.49581 30.0667 8.60135C30.0847 8.70701 30.0132 8.80795 29.9075 8.82596C29.8269 8.8397 29.7483 8.8499 29.6722 8.85818C29.7081 8.88656 29.7458 8.91493 29.7845 8.94315C29.8711 9.00629 29.8896 9.12803 29.8265 9.21463C29.7633 9.30105 29.6425 9.31972 29.556 9.25662C29.501 9.21653 29.4479 9.17696 29.3978 9.1365C29.3894 9.19231 29.3798 9.24929 29.3685 9.3074C29.348 9.41256 29.2461 9.48204 29.1409 9.4617C29.0358 9.44128 28.9673 9.33927 28.9876 9.23416C28.9971 9.18526 29.0048 9.13662 29.012 9.08963C28.9567 9.13129 28.8992 9.17344 28.8382 9.21463C28.7494 9.27464 28.6287 9.2507 28.5687 9.1619C28.5088 9.0731 28.5316 8.95234 28.6204 8.89236C28.651 8.87168 28.6813 8.85163 28.7103 8.83084C28.6453 8.81936 28.5834 8.80573 28.5247 8.79178C28.4205 8.76697 28.3555 8.66257 28.3802 8.55838C28.405 8.45411 28.5103 8.39 28.6146 8.41482C28.6526 8.42388 28.6924 8.43224 28.7337 8.44022C28.6881 8.37713 28.6468 8.31528 28.6097 8.25662C28.5528 8.16613 28.5798 8.04628 28.6702 7.98904C28.7608 7.93175 28.8805 7.95906 28.9378 8.04959C28.9641 8.09109 28.9927 8.13431 29.0237 8.1785C29.0154 8.11711 29.0061 8.05841 28.9954 8.00369C28.975 7.89856 29.0436 7.79668 29.1487 7.77615Z" fill="#FFC21A"/>
<path d="M21.6841 34.2747C34.3542 39.1497 36.3153 26.1548 29.002 22.3511C28.7722 22.2269 28.5207 22.4442 28.5812 22.6926C29.516 26.574 29.4632 30.9523 21.6919 33.7003C21.4202 33.7934 21.4155 34.1816 21.6841 34.2747Z" fill="#FFC21A"/>
<path fill-rule="evenodd" clip-rule="evenodd" d="M28.5136 1.61714C28.9507 1.66858 29.3214 1.96195 29.4718 2.37543L41.9401 36.64C42.062 36.9752 42.0236 37.3477 41.8359 37.651C41.6482 37.9543 41.3318 38.1548 40.9774 38.1951C31.6626 39.2553 24.2345 38.7839 18.7143 37.7479C13.225 36.7179 9.55451 35.1161 7.80642 33.8521C7.30098 33.4866 7.17331 32.7877 7.51688 32.2672L27.4055 2.13221C27.6479 1.76497 28.0766 1.5657 28.5136 1.61714ZM10.1178 32.5544C11.8141 33.4889 14.8098 34.6458 19.1439 35.4591C24.1323 36.3952 30.8349 36.8644 39.2424 36.0374L28.0746 5.34662L10.1178 32.5544Z" fill="#1A1A1A"/>
</svg>
