<svg width="75" height="86" viewBox="0 0 75 86" fill="none" xmlns="http://www.w3.org/2000/svg">
<path d="M17.2931 35.2757C19.1252 30.0899 33.5834 27.4661 40.5826 26.814C41.4024 27.8076 43.0404 30.7732 43.0404 34.5771C43.0404 39.3282 57.7532 37.4029 58.6583 40.7876C59.3819 43.4892 57.261 46.0511 56.1089 46.9982C58.087 47.2311 62.2869 48.5974 63.2635 52.2461C64.2401 55.8948 62.7356 59.5745 61.8614 60.9719C63.8643 62.804 67.8686 63.7045 67.8686 68.735C67.8686 72.7563 64.5925 79.6811 55.255 82.1809C47.7837 84.1838 40.2907 82.3361 37.4774 81.1561C27.9504 82.3205 8.29564 82.3982 5.87975 73.3929C3.46541 64.3721 11.4475 58.2548 15.7405 56.314C13.6708 56.0811 9.52998 54.5129 9.52998 50.1034C9.52998 45.694 14.7049 44.1258 17.2931 43.8929C16.5292 43.1787 15.461 40.477 17.2931 35.2757Z" fill="#9FC1AA"/>
<path d="M16.9888 42.3555C18.4172 44.2342 22.026 47.355 25.9712 48.9697C27.3653 49.5289 27.9608 51.9041 26.7437 52.7891L22.2153 56.0811C20.0184 58.441 15.6236 63.9838 15.6235 67.2754C15.6235 78.6251 37.7798 73.4087 37.7798 78.4082C37.7794 82.1031 31.4021 82.0098 28.8433 82.3203L11.7251 79.541L5.43408 73.626L6.82178 63.5342L14.9644 56.873L10.061 53.084V47.0605L17.9312 43.8311L16.9888 42.3555ZM61.2993 48.4727L63.9497 52.0752L63.4253 59.7451C63.0666 60.0867 61.3504 60.1491 58.5122 61.7949C54.9643 63.8288 45.8022 63.9994 45.8022 60.832C45.8027 57.6649 58.9067 58.4252 58.9067 54.8076C58.9066 51.9198 57.2656 48.3954 56.4458 46.998L61.2993 48.4727Z" fill="#678E79"/>
<path d="M66.7039 68.7349C66.7039 66.6097 65.8919 65.4331 64.8541 64.535C64.3018 64.0569 63.6831 63.6578 63.0164 63.231C62.3816 62.8246 61.6644 62.37 61.0757 61.8315C60.6612 61.4524 60.5763 60.831 60.874 60.3547C61.6566 59.1036 62.9991 55.7635 62.1385 52.5475C61.7555 51.1164 60.7304 50.0775 59.476 49.3468C58.2154 48.6124 56.8289 48.2558 55.9735 48.155C55.5099 48.1004 55.1224 47.7735 54.991 47.3256C54.8598 46.8779 55.0096 46.3953 55.37 46.099C55.8445 45.7088 56.557 44.9467 57.0591 44.0035C57.5599 43.0629 57.793 42.0582 57.5337 41.0893C57.5311 41.08 57.4906 40.9506 57.1486 40.7542C56.7986 40.5534 56.2706 40.3635 55.5581 40.1887C54.1261 39.8373 52.2941 39.6223 50.3467 39.3471C48.4669 39.0815 46.4693 38.7577 44.9322 38.1614C43.4448 37.5845 41.8755 36.537 41.8755 34.577C41.8755 33.6368 41.9163 32.6358 41.9255 31.8615C41.9354 31.0319 41.9145 30.3435 41.8179 29.7706C41.7222 29.2036 41.5639 28.8262 41.3554 28.5651C41.1764 28.341 40.9011 28.1308 40.4184 27.9799C36.4531 28.0014 31.2906 28.7966 26.8965 30.2088C24.6703 30.9243 22.6884 31.7838 21.1742 32.7485C19.6357 33.7287 18.7216 34.726 18.3904 35.6612C17.5177 38.1388 17.3647 39.9449 17.4792 41.1575C17.5972 42.4082 17.9879 42.948 18.0887 43.0422C18.424 43.3558 18.5442 43.8378 18.395 44.2719C18.2457 44.7059 17.8544 45.0116 17.3973 45.0528L16.9333 45.1073C15.793 45.2688 14.2902 45.6786 13.0411 46.4295C11.6367 47.2739 10.694 48.4455 10.694 50.1034C10.694 51.8812 11.5055 53.0523 12.559 53.8439C13.6532 54.6661 14.9963 55.0586 15.8704 55.157C16.3911 55.2156 16.809 55.6144 16.8909 56.1319C16.9724 56.6497 16.6982 57.1592 16.2207 57.3753L15.8325 57.5572C13.8491 58.5259 11.1779 60.3613 9.21867 62.908C7.15183 65.595 5.91371 69.0131 7.00496 73.0911C7.49683 74.9244 8.8834 76.3911 11.0442 77.5413C13.2114 78.6947 16.0471 79.4664 19.1849 79.9369C25.4546 80.8771 32.638 80.5748 37.3359 80.0006L37.4875 79.9915C37.6381 79.9928 37.7874 80.0239 37.9272 80.0825C40.576 81.1935 47.7987 82.9737 54.9531 81.0559L55.5565 83.306C48.0113 85.3287 40.4903 83.5906 37.3207 82.3447C32.4886 82.9117 25.2494 83.2013 18.8392 82.2401C15.5711 81.75 12.4446 80.9253 9.9495 79.5973C7.60414 78.3489 5.71973 76.5992 4.90345 74.1858L4.75486 73.6946C3.43207 68.7522 4.97825 64.6008 7.37189 61.4888C8.95462 59.4312 10.9235 57.8014 12.7364 56.6384C12.2023 56.39 11.6644 56.0853 11.1595 55.7059C9.62505 54.5528 8.36503 52.7349 8.36503 50.1034C8.36503 47.3521 10.0104 45.5345 11.8403 44.4341C13.0159 43.7273 14.3265 43.2758 15.4883 43.0104C15.3328 42.5318 15.2183 41.9844 15.1608 41.3759C15.0083 39.759 15.2358 37.6126 16.1949 34.8894C16.7804 33.2322 18.2096 31.8752 19.9233 30.7834C21.6623 29.6756 23.8455 28.7436 26.1839 27.992C30.8594 26.4894 36.3442 25.6495 40.5821 25.6494C40.6837 25.6494 40.7857 25.6626 40.8839 25.6888C41.8533 25.9481 42.621 26.4189 43.1749 27.1126C43.7157 27.7898 43.9793 28.5888 44.1135 29.3839C44.2466 30.1734 44.2631 31.0347 44.253 31.8887C44.2422 32.798 44.2044 33.6154 44.2044 34.577C44.2044 34.9926 44.4758 35.4861 45.7753 35.9902C47.0249 36.4748 48.7618 36.7709 50.6727 37.0409C52.5162 37.3014 54.5319 37.5385 56.113 37.9264C56.907 38.1213 57.6792 38.3729 58.307 38.7331C58.9318 39.0916 59.558 39.6424 59.7838 40.4858L59.8596 40.8103C60.1882 42.421 59.7402 43.9243 59.1152 45.0982C58.8809 45.5382 58.612 45.9443 58.3358 46.3128C59.0818 46.5534 59.8799 46.8872 60.6481 47.3347C62.2322 48.2575 63.7951 49.7281 64.3886 51.9456C65.3053 55.3713 64.2746 58.7517 63.35 60.6625C63.6225 60.8524 63.9296 61.0489 64.2734 61.269C64.9207 61.6834 65.679 62.1683 66.378 62.7731C67.843 64.0409 69.0329 65.8298 69.0329 68.7349C69.0329 73.2986 65.3882 80.6739 55.5565 83.306L54.9531 81.0559C63.7958 78.6884 66.7039 72.2138 66.7039 68.7349Z" fill="#1A1A1A"/>
<path d="M39.2466 58.8945C39.6605 59.3288 40.324 59.3213 40.7286 58.8769C41.133 58.4323 41.1246 57.7197 40.7108 57.2851L37.9366 54.3713C37.5293 53.9436 36.8782 53.9436 36.471 54.3713L33.6967 57.2851L33.6244 57.3701C33.2841 57.8082 33.301 58.4602 33.6803 58.8769C34.0597 59.2935 34.6665 59.3264 35.0818 58.9707L35.1623 58.8945L37.2038 56.7501L39.2466 58.8945Z" fill="#1A1A1A"/>
<path d="M24.689 48.5294C23.8507 48.3069 22.9452 48.6941 22.5425 49.5002C22.1397 50.308 22.3747 51.2683 23.0588 51.8039L23.3786 52.0031L25.2867 52.9543L23.5161 54.1131L23.2215 54.3516C22.6051 54.9635 22.4805 55.9452 22.9746 56.7002C23.4692 57.4552 24.4203 57.7336 25.2277 57.4129L25.5616 57.2389L30.0511 54.2955C30.6097 53.9291 30.9317 53.293 30.8928 52.626C30.8533 51.9588 30.4585 51.3614 29.8603 51.0631L25.0453 48.6641L24.689 48.5294Z" fill="#1A1A1A"/>
<path d="M48.7422 48.5289C49.5804 48.3064 50.486 48.6936 50.8887 49.4997C51.2914 50.3075 51.0564 51.2678 50.3724 51.8034L50.0525 52.0026L48.1445 52.9538L49.915 54.1126L50.2096 54.3511C50.8261 54.963 50.9507 55.9447 50.4566 56.6997C49.962 57.4547 49.0108 57.7331 48.2034 57.4124L47.8695 57.2384L43.3801 54.295C42.8215 53.9286 42.4994 53.2925 42.5383 52.6255C42.5779 51.9583 42.9727 51.3609 43.5709 51.0626L48.3858 48.6636L48.7422 48.5289Z" fill="#1A1A1A"/>
</svg>
