<svg width="75" height="86" viewBox="0 0 75 86" fill="none" xmlns="http://www.w3.org/2000/svg">
<path fill-rule="evenodd" clip-rule="evenodd" d="M41.1088 24.136C32.1854 24.0956 26.4481 18.9179 23.6952 14.7043C22.8443 13.4017 23.3939 11.6985 24.782 10.9921C37.0376 4.75088 42.9565 11.1117 45.2918 17.9149C47.627 11.1117 53.546 4.75088 65.8015 10.9921C67.1896 11.6985 67.7408 13.4017 66.8884 14.7043C63.8808 19.306 57.3144 25.0582 46.9237 24.0102L47.1845 31.582C47.2296 32.9125 46.1644 34.0148 44.8337 34.0148C43.6925 34.0148 42.7158 33.1966 42.5171 32.0741L41.1088 24.136Z" fill="#14AE5C"/>
<path d="M41.1091 24.1359L42.2565 23.9326C42.1572 23.3783 41.6774 22.973 41.1138 22.9715L41.1091 24.1359ZM45.2921 17.9149L44.1912 18.2937C44.3527 18.7641 44.7952 19.0793 45.2921 19.0793C45.789 19.0793 46.2315 18.7641 46.393 18.2937L45.2921 17.9149ZM46.924 24.0102L47.042 22.852C46.7066 22.8178 46.3743 22.9311 46.129 23.1609C45.8837 23.3907 45.7501 23.7152 45.761 24.0505L46.924 24.0102ZM41.1138 22.9715C32.6903 22.9327 27.276 18.0546 24.6706 14.0677L22.7204 15.3408C25.6224 19.781 31.6826 25.2584 41.1044 25.3003L41.1138 22.9715ZM24.6706 14.0677C24.2389 13.4078 24.4703 12.4577 25.3103 12.0291L24.2544 9.95495C22.3182 10.9393 21.4487 13.3939 22.7204 15.3408L24.6706 14.0677ZM25.3103 12.0291C31.2292 9.01566 35.3672 9.16164 38.235 10.6024C41.1557 12.0711 43.0733 15.0364 44.1912 18.2937L46.393 17.5376C45.1772 13.99 42.9661 10.3742 39.28 8.52199C35.5411 6.64186 30.591 6.72721 24.2544 9.95495L25.3103 12.0291ZM66.3297 9.95495C59.9931 6.72721 55.0431 6.64186 51.3042 8.52199C47.6181 10.3742 45.4085 13.99 44.1912 17.5376L46.393 18.2937C47.5109 15.0364 49.4285 12.0711 52.3491 10.6024C55.217 9.16164 59.355 9.01566 65.2739 12.0291L66.3297 9.95495ZM67.8638 15.3408C69.1355 13.3939 68.2659 10.9393 66.3297 9.95495L65.2739 12.0291C66.1139 12.4577 66.3453 13.4078 65.9136 14.0677L67.8638 15.3408ZM46.8075 25.1684C57.751 26.2738 64.6932 20.194 67.8638 15.3408L65.9136 14.0677C63.0706 18.4195 56.8784 23.844 47.042 22.852L46.8075 25.1684ZM48.3494 31.5416L48.0885 23.9698L45.761 24.0505L46.0203 31.6223L48.3494 31.5416ZM44.834 35.1792C46.8231 35.1792 48.4161 33.5304 48.3494 31.5416L46.0203 31.6223C46.0436 32.293 45.5064 32.8504 44.834 32.8504V35.1792ZM41.3699 32.2759C41.6681 33.9558 43.1276 35.1792 44.834 35.1792V32.8504C44.258 32.8504 43.7642 32.4374 43.6633 31.8707L41.3699 32.2759ZM39.9632 24.3393L41.3699 32.2759L43.6633 31.8707L42.2565 23.9326L39.9632 24.3393Z" fill="#1A1A1A"/>
<path d="M49.9165 18.0655C53.2687 15.6823 57.0185 14.077 59.933 13.1222C60.7342 12.8598 60.6783 11.714 59.8352 11.7047C54.3634 11.6395 50.8388 14.5303 48.9445 17.2737C48.4864 17.9351 49.2628 18.5312 49.9165 18.0655Z" fill="#036838"/>
<path d="M39.1163 18.0655C35.7655 15.6823 32.0142 14.0754 29.0997 13.1222C28.2986 12.8598 28.356 11.714 29.1976 11.7047C34.6693 11.6395 38.1955 14.5303 40.0898 17.2737C40.5463 17.9351 39.7715 18.5312 39.1163 18.0655Z" fill="#036838"/>
</svg>
