<svg width="75" height="86" viewBox="0 0 75 86" fill="none" xmlns="http://www.w3.org/2000/svg">
<path d="M27.4825 7.28857C26.6296 9.24524 26.0263 12.8968 25.7363 15.3146C25.6679 15.8847 25.9326 16.44 26.4105 16.7586L34.9394 22.444C35.3906 22.7448 35.9661 22.7884 36.4573 22.5592L47.716 17.3057C48.0336 17.1575 48.303 16.9098 48.4042 16.5745C49.1228 14.1941 47.6469 10.1575 46.3793 7.52983C46.0181 6.78104 45.1395 6.5584 44.5431 7.1375C43.0433 8.59332 40.8619 11.3067 39.4781 13.1157C39.1813 13.5039 38.7224 13.7332 38.2338 13.7332H35.2669C34.5269 13.7332 33.9016 13.2036 33.6274 12.5161C32.717 10.2345 30.6892 8.19153 29.1641 6.96564C28.5872 6.50189 27.7782 6.6101 27.4825 7.28857Z" fill="#CB0B96"/>
<path d="M30.2035 36.5419C22.8995 32.2817 21.0425 19.3902 20.9776 11.8554C20.9687 10.8217 21.9908 10.1202 22.9139 10.5855C27.7054 13.0007 30.2967 17.6881 31.0395 20.6592C29.2776 12.4377 34.2634 7.05241 37.9578 4.1639C38.7022 3.582 39.7817 3.86099 40.1286 4.73989C42.6091 11.0238 41.8403 17.9084 41.0717 21.4951C43.2702 15.4498 48.2543 13.1306 51.662 12.032C52.6365 11.7178 53.6123 12.4786 53.5901 13.502C53.2858 27.5331 49.8507 34.6795 46.9239 36.5419C40.2358 39.8856 32.1542 37.9352 30.2035 36.5419Z" fill="#FF99E0"/>
<path fill-rule="evenodd" clip-rule="evenodd" d="M37.24 3.24656C38.5802 2.19893 40.5708 2.68939 41.2113 4.31245C41.6704 5.47539 42.0231 6.65563 42.2884 7.83106C42.7991 7.25544 43.2912 6.72943 43.7314 6.30216C44.3082 5.74202 45.0777 5.53503 45.8063 5.70007C46.5181 5.86131 47.1052 6.35522 47.4278 7.02394C48.0631 8.34095 48.7577 10.0171 49.2205 11.6946C49.9577 11.3823 50.6621 11.1308 51.3041 10.9238C53.0781 10.3518 54.7926 11.7432 54.7539 13.5272C54.5999 20.6267 53.6534 26.0427 52.3443 29.9547C51.052 33.8167 49.3496 36.3783 47.5486 37.5243L47.4979 37.5565L47.4442 37.5834C43.8571 39.3768 39.9376 39.7341 36.6954 39.4791C35.0689 39.3512 33.5896 39.0676 32.3764 38.719C31.2186 38.3864 30.2206 37.9711 29.5728 37.5222C25.5575 35.1571 23.1656 30.5275 21.7584 25.756C20.3338 20.9258 19.8457 15.7055 19.8126 11.8654C19.797 10.0551 21.6528 8.64617 23.4376 9.54577C24.0994 9.87936 24.7219 10.2526 25.3058 10.6565C25.604 9.22097 25.974 7.83391 26.4145 6.82338C26.7221 6.11753 27.3297 5.67071 28.0188 5.55143C28.6855 5.43602 29.3654 5.63378 29.8933 6.05811C30.63 6.65028 31.5038 7.44329 32.3302 8.38023C33.8255 6.17706 35.672 4.47256 37.24 3.24656ZM31.0855 10.5203C30.2753 9.49716 29.3212 8.59161 28.4827 7.91247C28.0345 9.01206 27.6509 10.6719 27.355 12.3346C28.2508 13.1951 29.0205 14.1213 29.6698 15.0582C29.9143 13.3944 30.4199 11.8828 31.0855 10.5203ZM47.0884 12.7453C47.0639 12.6466 47.0382 12.5468 47.0112 12.4459C46.9881 12.3595 46.9642 12.273 46.9397 12.1864C46.5251 10.7251 45.9091 9.23616 45.33 8.03572C45.3253 8.02586 45.3205 8.01724 45.316 8.00986C44.5875 8.72203 43.6831 9.75072 42.7894 10.8259C42.9963 12.6651 43.0212 14.4437 42.9415 16.0716C44.2167 14.6338 45.6612 13.5595 47.0884 12.7453ZM38.6745 5.08123C38.8231 4.96507 38.9917 5.03259 39.0449 5.16732C41.402 11.1387 40.6817 17.7552 39.9325 21.2512L42.1656 21.893C44.1796 16.3553 48.7337 14.1993 52.0189 13.1402C52.1938 13.0838 52.4311 13.2139 52.4254 13.4767C52.275 20.4084 51.3518 25.5812 50.1356 29.2157C48.9199 32.8487 47.4654 34.7884 46.3456 35.5287C43.2592 37.0549 39.8181 37.3887 36.878 37.1575C35.4042 37.0416 34.0793 36.7853 33.0196 36.4808C31.9326 36.1684 31.2092 35.8296 30.8799 35.5944L30.8362 35.5632L30.7898 35.5361C27.5272 33.6332 25.3507 29.7031 23.9923 25.0973C22.6462 20.533 22.1734 15.54 22.1416 11.8453C22.1406 11.7281 22.1932 11.6595 22.2415 11.6273C22.2662 11.6108 22.2882 11.6048 22.305 11.6036C22.3185 11.6026 22.3452 11.6031 22.3892 11.6253C26.811 13.8541 29.2283 18.2181 29.9093 20.9416L32.1777 20.4152C30.5597 12.8653 35.0895 7.88429 38.6745 5.08123Z" fill="#1A1A1A"/>
</svg>
