<svg width="75" height="86" viewBox="0 0 75 86" fill="none" xmlns="http://www.w3.org/2000/svg">
<path d="M49.6875 50.4577C54.0351 49.8367 55.122 45.0238 55.122 42.695C55.122 46.4211 58.9603 48.9052 60.8779 49.6815C56.788 50.3025 56.3719 54.5984 56.6747 56.6679C56.2508 53.7724 52.2759 51.234 49.6875 50.4577Z" fill="#FFE8A3"/>
<path d="M53.9571 42.695C53.9571 42.052 54.4785 41.5306 55.1217 41.5306C55.7648 41.5306 56.2862 42.052 56.2862 42.695C56.2862 44.1343 57.0255 45.4067 58.0982 46.4657C59.1714 47.5251 60.4743 48.2619 61.3143 48.602C61.8005 48.7988 62.0958 49.2971 62.0346 49.818C61.9732 50.3386 61.5704 50.7535 61.052 50.8323C59.484 51.0705 58.6577 51.9695 58.2059 53.0731C57.7879 54.0944 57.7113 55.2708 57.7858 56.1449L57.8268 56.4997L57.8374 56.6179C57.8635 57.2076 57.4393 57.7329 56.8427 57.8202C56.2065 57.9132 55.6151 57.4724 55.522 56.8363C55.3741 55.8274 54.5553 54.7073 53.2657 53.6781C52.0077 52.6742 50.4987 51.9176 49.3521 51.5737C48.8288 51.4166 48.4852 50.9161 48.5257 50.3714C48.5665 49.8265 48.981 49.3831 49.5219 49.3055C51.2237 49.0624 52.3061 48.0196 53.0004 46.681C53.7109 45.3109 53.9571 43.7185 53.9571 42.695ZM55.4386 46.9448C55.3277 47.2165 55.2062 47.4875 55.0686 47.753C54.5307 48.7901 53.76 49.7811 52.7016 50.5108C53.3943 50.8992 54.0834 51.352 54.7183 51.8587C55.0954 52.1596 55.4682 52.4896 55.8177 52.8472C55.885 52.6269 55.9625 52.4074 56.0512 52.1907C56.4696 51.1688 57.1461 50.2044 58.1558 49.5087C57.5841 49.1166 57.0014 48.6552 56.4621 48.1229C56.103 47.7684 55.7557 47.3748 55.4386 46.9448Z" fill="#FFC21A"/>
<path d="M62.1084 41.9188C65.2138 40.3662 65.4731 37.0019 65.2138 34.9323C65.8349 38.6584 68.5785 41.1425 69.8719 41.9188C67.5429 43.4713 67.0988 45.0239 66.4902 46.5764C65.2138 44.2476 63.4763 42.9543 62.1084 41.9188Z" fill="#FFE8A3"/>
<path d="M65.0464 33.78C65.6737 33.6885 66.2598 34.116 66.3641 34.7413C66.9121 38.0279 69.3678 40.2586 70.4718 40.9211C70.814 41.1265 71.0279 41.4925 71.0373 41.8915C71.0467 42.2904 70.8508 42.6663 70.5188 42.8876C69.4864 43.5757 68.9135 44.2326 68.5278 44.8586C68.1198 45.5211 67.9038 46.1638 67.5756 47.0009C67.4106 47.4217 67.0167 47.7088 66.5657 47.7378C66.1145 47.7666 65.6867 47.5323 65.4694 47.1359L66.4914 46.5764L66.4899 46.5749L65.4694 47.1359C64.325 45.0478 62.7755 43.8836 61.4057 42.8467C61.0851 42.6036 60.9122 42.2118 60.9493 41.8111C60.9865 41.4104 61.2291 41.0572 61.5892 40.8772C63.9903 39.6763 64.304 37.0297 64.0592 35.0763C63.9809 34.4477 64.4194 33.8716 65.0464 33.78ZM65.8394 39.5035C65.476 40.3997 64.9179 41.2611 64.0865 41.987C64.7916 42.5682 65.5467 43.2657 66.2579 44.1475C66.3466 43.9779 66.4415 43.8063 66.546 43.6366C66.9029 43.0574 67.3537 42.489 67.9592 41.9339C67.269 41.325 66.5124 40.5075 65.8394 39.5035Z" fill="#FFC21A"/>
<path d="M52.792 32.6035C55.5605 31.3614 56.2964 28.4628 56.3182 27.1696C56.9393 29.6536 58.6472 31.3102 59.4236 31.8272C57.5604 33.0692 57.0945 35.4493 57.0945 36.4848C56.4735 34.6218 53.9674 33.1205 52.792 32.6035Z" fill="#FFE8A3"/>
<path d="M55.9904 36.8533C55.7872 36.244 55.2188 35.5773 54.4301 34.9535C53.6656 34.3492 52.8319 33.8928 52.3239 33.6694C51.9027 33.4841 51.6297 33.0682 51.6279 32.608C51.6262 32.1478 51.8964 31.7291 52.3163 31.5407C54.5037 30.5589 55.1371 28.2112 55.1549 27.1499L56.3179 27.1696H56.3194L55.1549 27.1499C55.1648 26.5657 55.6055 26.0793 56.186 26.0128C56.7666 25.9462 57.3073 26.3207 57.4491 26.8876C57.9857 29.0329 59.4802 30.4661 60.0693 30.8584L59.4233 31.8272L60.0708 32.7961C59.3918 33.2487 58.933 33.9323 58.6424 34.664C58.3498 35.4013 58.2603 36.1086 58.2603 36.4849C58.2603 37.0557 57.8457 37.5423 57.2823 37.6341C56.7186 37.7256 56.1711 37.3949 55.9904 36.8533ZM56.5787 30.5127C56.2109 31.2155 55.7096 31.9137 55.0336 32.5201C55.3126 32.7047 55.5963 32.9073 55.8736 33.1266C56.0897 33.2974 56.3106 33.4845 56.5272 33.6876C56.7841 33.0707 57.1494 32.4243 57.6614 31.8409C57.3062 31.4759 56.9328 31.031 56.5787 30.5127ZM60.0693 30.8584C60.3934 31.0743 60.5893 31.4378 60.5894 31.8272C60.5894 32.2163 60.3945 32.58 60.0708 32.7961L59.4248 31.8272L60.0693 30.8584Z" fill="#FFC21A"/>
</svg>
