<svg width="75" height="86" viewBox="0 0 75 86" fill="none" xmlns="http://www.w3.org/2000/svg">
<path fill-rule="evenodd" clip-rule="evenodd" d="M61.1277 60.9035C57.8019 72.6911 45.6542 85.1292 33.1249 85.1292C18.4154 85.1292 5.32812 72.6166 5.32812 57.1819C5.32812 41.7472 18.5469 29.2345 31.962 29.2345C42.7226 29.2345 55.5589 37.302 60.2172 47.259L63.1744 44.3028C64.429 43.0467 66.1461 42.112 67.8031 42.7471C70.2247 43.674 72.8164 46.3647 72.8164 52.7149C72.8164 58.1942 71.1114 61.4873 69.2692 63.3163C67.5592 65.0133 64.9526 64.2774 63.1452 62.6844L61.1277 60.9035Z" fill="#75D7F0"/>
<path d="M2.97129 64.2263C3.29389 64.9017 4.1014 65.1051 4.7733 64.7759L7.44575 63.4632L6.52911 52.7228L4.90546 52.035C4.17091 51.7354 3.30797 52.0257 2.92983 52.7228C2.16775 54.1295 1.27027 56.193 1.53018 58.9566C1.725 61.0279 2.36781 62.964 2.97129 64.2263Z" fill="#0087A8"/>
<path d="M53.2353 58.9566C53.5086 56.0517 52.5023 53.9183 51.7194 52.5117C51.3863 51.9123 50.6924 51.6018 50.0216 51.7384L47.9781 52.1561L44.6473 54.1652C43.6534 56.6541 43.6239 59.4224 44.5648 61.9315L44.6473 62.1504L47.9781 64.1688L50.0607 64.9405C50.7074 65.1796 51.4341 64.9606 51.7383 64.3427C52.3575 63.0835 53.0344 61.0915 53.2353 58.9566Z" fill="#0087A8"/>
<path d="M3.95385 53.278C4.03761 53.1236 4.25903 53.0289 4.4658 53.1131L6.70998 54.0302L7.25432 51.7108L5.34575 50.9568C4.0835 50.4419 2.57918 50.9278 1.90668 52.1676C1.09376 53.6681 0.0804814 55.9738 0.371256 59.0657C0.580564 61.2908 1.26678 63.3597 1.92114 64.7285C2.57285 66.0924 4.14334 66.3814 5.28715 65.8211L7.51134 64.7285L6.60763 62.5777L4.2611 63.7303C4.1736 63.7731 4.10102 63.7695 4.06461 63.759C4.04768 63.7541 4.03987 63.7484 4.03732 63.7462C4.03732 63.7462 4.02991 63.7399 4.02231 63.724C3.46976 62.5682 2.8703 60.7647 2.68997 58.8476C2.46096 56.4124 3.2427 54.5908 3.95385 53.278Z" fill="#1A1A1A"/>
<path d="M62.6679 59.1584L61.1274 60.9035L58.8859 60.2716C59.1032 59.5015 59.7013 58.896 60.4692 58.6708C61.2372 58.4442 62.0675 58.6274 62.6679 59.1584Z" fill="#1A1A1A"/>
<path d="M58.1074 48.2465C56.0088 43.7609 51.9864 39.5626 47.1292 36.4791C42.2705 33.394 36.7989 31.5634 31.9617 31.5634C19.8659 31.5634 7.65679 43.0001 7.65679 57.1819C7.65679 71.3077 19.6784 82.8003 33.1246 82.8003C38.627 82.8003 44.2615 80.0506 49.0069 75.7172C53.7423 71.3931 57.354 65.7012 58.8859 60.2716L61.1274 60.9035V60.9035C60.9018 61.7029 60.6354 62.5062 60.3314 63.3075C56.1517 74.3215 44.8039 85.1292 33.1246 85.1292C18.4151 85.1292 5.32784 72.6166 5.32784 57.1819C5.32784 41.7472 18.5466 29.2345 31.9617 29.2345C41.937 29.2345 53.696 36.1674 59.0703 45.1116C59.4934 45.8157 59.877 46.5323 60.2169 47.259L63.1741 44.3028V44.3028C64.4287 43.0469 66.146 42.1121 67.8028 42.7471C70.2244 43.674 72.8161 46.3647 72.8161 52.7149C72.8161 58.1938 71.1114 61.4868 69.2694 63.3159V63.3159C67.5593 65.0129 64.9523 64.2774 63.1449 62.6844L61.1287 60.9047L62.6679 59.1584L64.6856 60.9377C65.3347 61.5106 66.0433 61.846 66.6037 61.9329C67.0982 62.0106 67.3892 61.9003 67.6281 61.6628C68.9541 60.3461 70.4871 57.6896 70.4871 52.7149C70.4871 49.8503 69.9029 48.0307 69.2213 46.8972C68.5512 45.7809 67.7182 45.208 66.97 44.9223C66.8004 44.8571 66.5694 44.8338 66.1884 44.9844C65.7778 45.1459 65.2958 45.4735 64.821 45.9486L61.8638 48.9063C61.3268 49.4435 60.5619 49.6842 59.814 49.5538C59.0661 49.4218 58.4292 48.9343 58.1074 48.2465Z" fill="#1A1A1A"/>
<path d="M47.4948 53.1715C48.0122 52.705 48.6987 52.4735 49.3924 52.5309C50.0664 52.5863 50.6823 52.9682 51.0121 53.5264C51.6821 54.6639 52.3982 56.1847 52.3982 58.4907C52.3982 60.6262 51.7845 62.1681 51.1837 63.2223C50.8915 63.7348 50.2217 64.0635 49.4321 63.973C48.7552 63.8944 48.1146 63.612 47.5974 63.1651L45.4103 61.2702C44.9242 60.8491 44.1888 60.9017 43.7677 61.3878C43.3465 61.8738 43.3992 62.6093 43.8853 63.0304L46.0743 64.927C46.9433 65.6782 48.0206 66.154 49.165 66.2866C50.6695 66.4597 52.3553 65.8691 53.2069 64.3758C53.9671 63.0421 54.7271 61.1062 54.7271 58.4907C54.7271 55.6297 53.8153 53.6965 53.0183 52.3436C52.2908 51.1107 50.9847 50.3252 49.5839 50.2098C48.2503 50.0996 46.93 50.5453 45.9354 51.4417L43.8689 53.301C43.3908 53.7311 43.3519 54.4674 43.7821 54.9455C44.2123 55.4236 44.9485 55.4625 45.4266 55.0323L47.4948 53.1715Z" fill="#1A1A1A"/>
<path fill-rule="evenodd" clip-rule="evenodd" d="M65.6978 50.5547C64.9844 50.8862 64.3461 51.286 63.9943 51.5392C63.4724 51.9149 62.7447 51.7963 62.369 51.2743C61.9933 50.7523 62.1119 50.0246 62.6338 49.6489C63.0932 49.3183 63.8577 48.8416 64.7165 48.4426C65.5489 48.0559 66.6066 47.6767 67.6087 47.6767C68.2518 47.6767 68.7731 48.198 68.7731 48.8411C68.7731 49.4843 68.2518 50.0056 67.6087 50.0056C67.1218 50.0056 66.4377 50.2109 65.6978 50.5547Z" fill="#085A78"/>
<path d="M32.1929 27.1174C32.8227 27.2477 33.2276 27.8639 33.0972 28.4937C32.9232 29.3349 32.669 30.6542 32.473 31.8709C32.3748 32.4801 32.2932 33.0519 32.2432 33.5198C32.2181 33.7539 32.202 33.9521 32.1951 34.1103C32.1916 34.1889 32.1906 34.2522 32.1913 34.3012C32.1917 34.3253 32.1925 34.3441 32.1933 34.3579L32.1944 34.3735L32.1949 34.3786C32.2736 35.0169 31.8199 35.5981 31.1816 35.6768C30.5433 35.7554 29.9621 35.3017 29.8834 34.6634C29.8366 34.2835 29.8754 33.7581 29.9274 33.272C29.9837 32.7462 30.0724 32.1294 30.1737 31.5006C30.3765 30.2412 30.6376 28.8868 30.8166 28.0218C30.9469 27.392 31.5631 26.9871 32.1929 27.1174Z" fill="#085A78"/>
<path d="M24.8022 30.1741C24.7956 29.531 24.2689 29.0151 23.6258 29.0217C22.9827 29.0284 22.4668 29.5551 22.4734 30.1982C22.484 31.2251 22.5226 32.8288 22.6044 34.3082C22.6452 35.047 22.6974 35.7669 22.7638 36.3736C22.8258 36.9393 22.9113 37.5275 23.0536 37.9253C23.2702 38.5309 23.9366 38.8462 24.5422 38.6297C25.1477 38.4131 25.4631 37.7466 25.2465 37.141C25.2091 37.0366 25.1434 36.709 25.0789 36.12C25.0189 35.5721 24.9695 34.8985 24.9298 34.1797C24.8504 32.744 24.8126 31.1765 24.8022 30.1741Z" fill="#085A78"/>
<path d="M5.52192 41.2876C5.89667 40.7649 6.62416 40.645 7.14681 41.0198C7.96207 41.6043 9.24876 42.5007 10.4534 43.2857C11.0565 43.6787 11.6288 44.0371 12.1061 44.3127C12.6191 44.609 12.922 44.7497 13.0283 44.7813C13.6447 44.9649 13.9956 45.6133 13.812 46.2297C13.6285 46.8461 12.98 47.197 12.3637 47.0134C11.9589 46.8929 11.4341 46.614 10.9414 46.3295C10.413 46.0244 9.80171 45.6408 9.18189 45.2369C7.94068 44.4281 6.62454 43.511 5.78973 42.9125C5.26708 42.5377 5.14717 41.8102 5.52192 41.2876Z" fill="#085A78"/>
<path d="M68.3439 54.8369C68.9868 54.8216 69.4956 54.288 69.4803 53.6451C69.4651 53.0021 68.9315 52.4933 68.2885 52.5086L64.304 52.6033C63.6611 52.6186 63.1522 53.1522 63.1675 53.7951C63.1828 54.4381 63.7164 54.9469 64.3593 54.9316L68.3439 54.8369Z" fill="#085A78"/>
<path d="M64.0741 55.753C63.5868 55.3333 62.8516 55.388 62.4318 55.8753C62.0121 56.3626 62.0668 57.0978 62.5541 57.5176C63.0118 57.9118 63.7776 58.4837 64.6413 58.9639C65.4702 59.4247 66.5571 59.8974 67.6087 59.8974C68.2518 59.8974 68.7731 59.376 68.7731 58.7329C68.7731 58.0898 68.2518 57.5684 67.6087 57.5684C67.1712 57.5684 66.5165 57.3417 65.773 56.9284C65.0645 56.5344 64.4275 56.0575 64.0741 55.753Z" fill="#085A78"/>
<path d="M43.7533 31.1942C44.1918 30.7237 44.1658 29.9869 43.6953 29.5484C43.2248 29.11 42.488 29.1359 42.0495 29.6064C41.4473 30.2526 40.5207 31.2742 39.6931 32.2449C39.2799 32.7296 38.8837 33.2107 38.5625 33.6307C38.2655 34.019 37.9594 34.448 37.802 34.7971C37.5378 35.3834 37.7988 36.0729 38.3851 36.3372C38.9714 36.6015 39.661 36.3404 39.9253 35.7541C39.9253 35.7541 39.9259 35.7528 39.9275 35.7495L39.9346 35.7356C39.9411 35.7234 39.9502 35.707 39.9624 35.6861C39.9872 35.6439 40.0209 35.5904 40.0647 35.5249C40.1528 35.3935 40.2695 35.2324 40.4125 35.0454C40.6984 34.6716 41.0651 34.2255 41.4655 33.7559C42.265 32.818 43.1676 31.8228 43.7533 31.1942Z" fill="#085A78"/>
<path d="M15.1163 34.7858C15.1364 34.1429 14.6317 33.6055 13.9889 33.5854C13.3461 33.5653 12.8086 34.07 12.7885 34.7128C12.7788 35.0242 12.8638 35.3807 12.9295 35.6269L13.235 36.5861C13.4698 37.2392 13.7848 37.9833 14.0799 38.4943C14.6552 39.4905 15.7498 40.667 16.5617 41.2573C17.0819 41.6355 17.8101 41.5204 18.1883 41.0003C18.5665 40.4801 18.4514 39.7518 17.9313 39.3736C17.3722 38.9672 16.5024 38.0321 16.0967 37.3296C15.9014 36.9913 15.6409 36.394 15.4266 35.7981C15.3219 35.5068 15.2364 35.2384 15.1796 35.026C15.1287 34.8352 15.1175 34.7566 15.1175 34.7566C15.1175 34.7566 15.1169 34.7669 15.1163 34.7858Z" fill="#085A78"/>
<path d="M51.7235 33.9087C51.9537 33.3082 51.6535 32.6347 51.053 32.4045C50.4524 32.1744 49.779 32.4746 49.5488 33.0751C49.2481 33.8596 48.4358 35.1556 47.7394 35.8529C47.4015 36.1903 46.7906 36.6764 46.1745 37.1043C45.8722 37.3143 45.5883 37.4965 45.3581 37.6291C45.1912 37.7252 45.0948 37.7702 45.0569 37.7879C45.0328 37.7991 45.0322 37.7994 45.052 37.7948C44.4255 37.9402 44.0355 38.5658 44.1808 39.1923C44.3261 39.8188 44.9518 40.2089 45.5783 40.0635C45.9037 39.9881 46.2604 39.797 46.5206 39.6471C46.8233 39.4727 47.1641 39.2525 47.5031 39.0171C48.1694 38.5543 48.9076 37.9778 49.3858 37.5001C50.3211 36.5639 51.31 34.9872 51.7235 33.9087Z" fill="#085A78"/>
<path d="M58.4983 38.4283C58.7834 37.8519 58.5473 37.1534 57.9708 36.8683C57.3944 36.5831 56.6959 36.8193 56.4108 37.3958C55.9611 38.3048 54.9068 39.6983 54.0808 40.3801C53.6812 40.7105 52.9784 41.1578 52.2806 41.5333C51.9381 41.7177 51.6203 41.8721 51.3663 41.9789C51.1965 42.0502 51.0984 42.0815 51.0578 42.0944L51.052 42.0962L51.0356 42.1023L51.0653 42.1013C50.4232 42.1372 49.9317 42.6868 49.9675 43.3289C50.0034 43.971 50.553 44.4625 51.1951 44.4266C51.5664 44.4059 51.9807 44.2469 52.2687 44.1259L53.3845 43.5841C54.1448 43.1748 54.9967 42.6447 55.5641 42.1755C56.6716 41.2611 57.9205 39.5964 58.4983 38.4283Z" fill="#085A78"/>
<path d="M15.1962 67.0866C15.2763 66.4485 14.8239 65.8663 14.1857 65.7863C13.5476 65.7062 12.9654 66.1586 12.8854 66.7968C12.8278 67.2562 12.7599 67.9921 12.74 68.7366C12.7212 69.436 12.7378 70.3057 12.923 70.94C13.1033 71.5574 13.7499 71.9117 14.3672 71.7314C14.9846 71.5512 15.3389 70.9046 15.1586 70.2872C15.0863 70.0396 15.0492 69.5012 15.0681 68.799C15.0857 68.1418 15.1466 67.4826 15.1962 67.0866Z" fill="#085A78"/>
<path d="M19.2337 70.7994C19.8763 70.772 20.4193 71.2707 20.4467 71.9132C20.4627 72.2895 20.5353 72.9095 20.694 73.4864C20.8718 74.1328 21.0786 74.4292 21.1688 74.4953C21.6875 74.8755 21.7998 75.6042 21.4196 76.1229C21.0394 76.6416 20.3107 76.7539 19.792 76.3737C19.0158 75.8048 18.6431 74.8117 18.4484 74.1042C18.2347 73.3272 18.1419 72.5289 18.1199 72.0124C18.0925 71.3698 18.5912 70.8268 19.2337 70.7994Z" fill="#085A78"/>
<path d="M37.4866 69.0676C37.2158 68.4843 36.5234 68.2309 35.9401 68.5017C35.3567 68.7725 35.1033 69.4649 35.3741 70.0482C35.5918 70.5173 35.9827 71.2195 36.4772 71.8559C36.9276 72.4355 37.6514 73.2106 38.5858 73.4401C39.2104 73.5934 39.841 73.2114 39.9944 72.5869C40.1477 71.9623 39.7657 71.3317 39.1412 71.1783C39.0322 71.1516 38.7276 70.9563 38.3163 70.4269C37.949 69.9543 37.6451 69.4091 37.4866 69.0676Z" fill="#085A78"/>
<path d="M43.9248 70.9066C44.5081 70.6359 45.2005 70.8893 45.4713 71.4726C45.7858 72.1502 46.5322 73.1931 47.4253 73.7027C47.9839 74.0214 48.1783 74.7326 47.8596 75.2912C47.5409 75.8498 46.8297 76.0443 46.2711 75.7256C44.8185 74.8968 43.7967 73.3965 43.3588 72.4532C43.0881 71.8698 43.3415 71.1774 43.9248 70.9066Z" fill="#085A78"/>
<path d="M25.4906 76.7062C25.3346 76.0823 24.7024 75.703 24.0784 75.8589C23.4545 76.0149 23.0752 76.6471 23.2312 77.2711C23.3624 77.7962 23.6647 78.5802 24.2005 79.2008C24.4758 79.5197 24.8526 79.841 25.3462 80.0258C25.8615 80.2186 26.43 80.2337 27.0063 80.0423C27.6167 79.8397 27.9472 79.1806 27.7445 78.5702C27.5418 77.9599 26.8828 77.6294 26.2724 77.8321C26.1926 77.8586 26.1689 77.8475 26.1634 77.8449C26.1382 77.8355 26.0661 77.7979 25.9633 77.6788C25.7427 77.4232 25.5674 77.0133 25.4906 76.7062Z" fill="#085A78"/>
<path d="M28.205 69.8989C28.8381 70.0119 29.2597 70.6168 29.1467 71.2499C29.0911 71.5617 29.0834 72.0069 29.18 72.3298C29.2251 72.4803 29.2747 72.5433 29.2938 72.5622C29.298 72.567 29.3159 72.5876 29.3999 72.5962C30.0397 72.6613 30.5056 73.2328 30.4404 73.8726C30.3752 74.5124 29.8037 74.9783 29.1639 74.9131C28.5601 74.8516 28.0479 74.6053 27.6567 74.2187C27.282 73.8484 27.0697 73.4012 26.9489 72.9976C26.7138 72.2123 26.7589 71.3735 26.854 70.8407C26.967 70.2075 27.5719 69.7859 28.205 69.8989Z" fill="#085A78"/>
<path d="M36.0341 75.9562C36.0341 75.3131 35.5128 74.7917 34.8697 74.7917C34.2265 74.7917 33.7052 75.3131 33.7052 75.9562C33.7052 76.5503 33.8519 77.3262 34.2382 78.0128C34.6392 78.7253 35.357 79.424 36.4718 79.555C37.1105 79.63 37.6892 79.1731 37.7642 78.5344C37.8392 77.8956 37.3823 77.317 36.7436 77.242C36.5633 77.2208 36.4121 77.1269 36.2678 76.8705C36.109 76.5883 36.0341 76.2191 36.0341 75.9562Z" fill="#085A78"/>
<path d="M50.3921 54.4267C50.8649 54.8627 50.8948 55.5994 50.4588 56.0722C50.1708 56.3845 49.4867 56.9411 48.5569 57.3039C47.6356 57.6633 46.6572 57.7582 46.2365 57.7623C45.5934 57.7685 45.0671 57.2522 45.0609 56.6091C45.0546 55.9661 45.5709 55.4397 46.214 55.4335C46.4355 55.4313 47.1194 55.3648 47.7104 55.1342C47.9904 55.025 48.2343 54.8847 48.4239 54.7535C48.518 54.6885 48.5951 54.6282 48.6529 54.5792C48.6817 54.5548 48.7045 54.5342 48.7212 54.5184C48.7296 54.5106 48.7359 54.5043 48.7404 54.4998L48.7467 54.4934C49.1826 54.0206 49.9193 53.9908 50.3921 54.4267Z" fill="#085A78"/>
<path d="M46.2365 58.6226C45.5934 58.6163 45.0671 59.1326 45.0609 59.7757C45.0546 60.4188 45.5709 60.9452 46.214 60.9514C46.4355 60.9535 47.1194 61.0201 47.7104 61.2507C47.9904 61.3599 48.2343 61.5002 48.4239 61.6313C48.518 61.6964 48.5951 61.7567 48.6529 61.8057C48.6659 61.8167 48.6776 61.8269 48.6882 61.8362C48.701 61.8476 48.712 61.8578 48.7212 61.8665C48.7296 61.8743 48.7359 61.8805 48.7404 61.8851C48.7447 61.8894 48.7467 61.8915 48.7467 61.8915C49.1827 62.3643 49.9193 62.3941 50.3921 61.9581C50.8649 61.5221 50.8948 60.7855 50.4588 60.3127C50.1708 60.0003 49.4867 59.4438 48.5569 59.081C47.6356 58.7216 46.6572 58.6266 46.2365 58.6226Z" fill="#085A78"/>
<path d="M27.8096 57.6619C28.0283 57.2324 28.554 57.0604 28.9834 57.2791C28.9843 57.2795 28.986 57.2807 28.9883 57.282C28.9938 57.2847 29.0036 57.2897 29.0157 57.2957C29.0399 57.3075 29.0775 57.3236 29.1241 57.3455C29.2179 57.3894 29.3495 57.4501 29.5 57.5115C29.8222 57.6428 30.1528 57.7508 30.376 57.7771C30.5895 57.8021 30.9221 57.7784 31.253 57.7322C31.4074 57.7106 31.5448 57.6872 31.6426 57.6687C31.6913 57.6595 31.7314 57.6515 31.7569 57.6462C31.7687 57.6438 31.7775 57.6406 31.7832 57.6394C31.7861 57.6388 31.789 57.6387 31.7901 57.6384C32.2606 57.5344 32.727 57.832 32.8311 58.3025C32.9348 58.7727 32.6372 59.2374 32.167 59.3416L32.1621 59.3435C32.1594 59.3441 32.1549 59.3455 32.1504 59.3464L31.9668 59.3826C31.8486 59.4049 31.6833 59.4344 31.4952 59.4607C31.1395 59.5103 30.6199 59.5622 30.1719 59.5095C29.7013 59.4542 29.1881 59.2683 28.8409 59.1267C28.6573 59.0518 28.4976 58.9808 28.3838 58.9275C28.3272 58.901 28.2807 58.8781 28.2481 58.8621C28.2318 58.8541 28.2174 58.8472 28.208 58.8425C28.2036 58.8403 28.1991 58.839 28.1963 58.8376L28.1914 58.8347L28.043 58.739C27.7256 58.4864 27.619 58.0375 27.8096 57.6619ZM30.7305 53.6746C31.6944 53.6746 32.4756 54.4558 32.4756 55.4197C32.4756 56.3836 31.6944 57.1648 30.7305 57.1648C29.7667 57.1647 28.9854 56.3835 28.9854 55.4197C28.9854 54.4559 29.7667 53.6746 30.7305 53.6746Z" fill="#1A1A1A"/>
<path d="M19.6894 57.6617C19.4707 57.2323 18.945 57.0602 18.5155 57.2789C18.5146 57.2795 18.513 57.2807 18.5106 57.2819C18.5051 57.2846 18.4954 57.2896 18.4833 57.2955C18.4591 57.3074 18.4214 57.3236 18.3749 57.3453C18.2811 57.3893 18.1494 57.45 17.9989 57.5114C17.6768 57.6427 17.3462 57.7507 17.123 57.777C16.9094 57.8019 16.5768 57.7782 16.246 57.7321C16.0914 57.7105 15.9542 57.6871 15.8564 57.6686C15.8079 57.6594 15.7685 57.6514 15.7431 57.6461C15.731 57.6436 15.7215 57.6405 15.7157 57.6393C15.7129 57.6387 15.7099 57.6385 15.7089 57.6383C15.2384 57.5343 14.772 57.8319 14.6679 58.3024C14.5642 58.7725 14.8619 59.2372 15.3319 59.3414L15.3368 59.3434C15.3396 59.344 15.3441 59.3454 15.3485 59.3463L15.5321 59.3824C15.6504 59.4048 15.8156 59.4343 16.0038 59.4606C16.3594 59.5102 16.879 59.562 17.3271 59.5094C17.7976 59.454 18.3109 59.2682 18.6581 59.1266C18.8417 59.0517 19.0014 58.9806 19.1151 58.9274C19.1717 58.9009 19.2182 58.878 19.2509 58.8619C19.2671 58.854 19.2816 58.8471 19.2909 58.8424C19.2954 58.8402 19.2999 58.8389 19.3026 58.8375L19.3075 58.8346L19.456 58.7389C19.7734 58.4862 19.8801 58.0375 19.6894 57.6617ZM16.7685 53.6744C15.8046 53.6745 15.0234 54.4557 15.0233 55.4196C15.0233 56.3834 15.8046 57.1647 16.7685 57.1647C17.7323 57.1647 18.5136 56.3834 18.5136 55.4196C18.5135 54.4557 17.7323 53.6744 16.7685 53.6744Z" fill="#1A1A1A"/>
<path d="M27.2529 61.9219H20.2529L23.7529 56.6719L27.2529 61.9219Z" fill="#FFAFA3"/>
<path d="M27.2526 63.0863C27.6819 63.0861 28.0766 62.8492 28.2791 62.4707C28.4814 62.0923 28.4594 61.633 28.2215 61.2759L24.7205 56.0252C24.5045 55.7017 24.1407 55.5066 23.7516 55.5066C23.3626 55.5068 22.9986 55.7015 22.7827 56.0252L19.2833 61.2759C19.0451 61.6331 19.0232 62.0921 19.2256 62.4707C19.4283 62.8493 19.8227 63.0863 20.2521 63.0863H27.2526ZM23.7516 58.7726L25.0768 60.7574H22.4279L23.7516 58.7726Z" fill="#1A1A1A"/>
</svg>
