<svg width="75" height="86" viewBox="0 0 75 86" fill="none" xmlns="http://www.w3.org/2000/svg">
<path d="M63.4252 39.1243C45.0101 41.2203 34.1815 37.2459 31.0684 34.9947L50.957 4.85974L63.4252 39.1243Z" fill="#2F15AC"/>
<path d="M58.4121 35.7647C58.3916 35.6595 58.2897 35.5909 58.1844 35.6114C58.0792 35.632 58.0106 35.7339 58.0311 35.8391C58.0418 35.8938 58.0517 35.9518 58.06 36.0132C58.0289 35.969 58.0004 35.926 57.9741 35.8845C57.9168 35.794 57.7968 35.7671 57.7063 35.8244C57.6157 35.8818 57.5888 36.0017 57.6462 36.0922C57.6834 36.1509 57.7245 36.2122 57.7702 36.2754C57.7286 36.2673 57.6886 36.2586 57.6502 36.2495C57.5459 36.2247 57.4413 36.2891 57.4165 36.3934C57.3916 36.4976 57.456 36.6023 57.5603 36.6271C57.6191 36.6411 57.681 36.6541 57.7461 36.6656C57.7171 36.6864 57.6872 36.7072 57.6566 36.728C57.5677 36.788 57.5444 36.9086 57.6044 36.9974C57.6644 37.0862 57.7851 37.1096 57.8739 37.0496C57.9349 37.0083 57.993 36.9668 58.0484 36.9251C58.0412 36.9721 58.0328 37.0201 58.0233 37.069C58.0029 37.1742 58.0716 37.276 58.1769 37.2965C58.2821 37.3169 58.384 37.2482 58.4044 37.143C58.4157 37.0846 58.4256 37.0273 58.434 36.9712C58.4841 37.0117 58.5367 37.0521 58.5917 37.0922C58.6783 37.1554 58.7997 37.1363 58.8629 37.0497C58.926 36.9631 58.907 36.8417 58.8204 36.7786C58.7817 36.7504 58.7443 36.722 58.7084 36.6936C58.7845 36.6853 58.863 36.6745 58.9437 36.6607C59.0494 36.6427 59.1204 36.5424 59.1024 36.4368C59.0844 36.3311 58.9842 36.2601 58.8785 36.2781C58.8144 36.289 58.7521 36.2979 58.6914 36.3049C58.7527 36.228 58.807 36.1529 58.8552 36.0805C58.9147 35.9913 58.8906 35.8708 58.8014 35.8113C58.7122 35.7519 58.5917 35.776 58.5322 35.8652C58.5062 35.9042 58.4782 35.9442 58.4478 35.9851C58.4378 35.9071 58.4256 35.8337 58.4121 35.7647Z" fill="#FFC21A"/>
<path d="M56.6026 23.8879C56.582 23.7827 56.4801 23.7141 56.3749 23.7346C56.2697 23.7551 56.201 23.8571 56.2216 23.9622C56.2323 24.017 56.2421 24.075 56.2504 24.1364C56.2194 24.0922 56.1908 24.0492 56.1645 24.0077C56.1072 23.9172 55.9873 23.8902 55.8967 23.9476C55.8062 24.0049 55.7792 24.1248 55.8366 24.2154C55.8738 24.2741 55.9149 24.3354 55.9606 24.3985C55.919 24.3905 55.879 24.3818 55.8407 24.3727C55.7364 24.3479 55.6317 24.4123 55.6069 24.5165C55.5821 24.6208 55.6465 24.7254 55.7507 24.7503C55.8095 24.7643 55.8714 24.7773 55.9365 24.7888C55.9075 24.8096 55.8777 24.8304 55.847 24.8511C55.7582 24.9111 55.7348 25.0318 55.7948 25.1206C55.8548 25.2094 55.9755 25.2328 56.0643 25.1727C56.1253 25.1315 56.1834 25.09 56.2388 25.0483C56.2316 25.0953 56.2233 25.1432 56.2138 25.1921C56.1933 25.2973 56.2621 25.3992 56.3673 25.4197C56.4725 25.4401 56.5744 25.3714 56.5948 25.2662C56.6062 25.2077 56.616 25.1505 56.6244 25.0944C56.6746 25.1349 56.7271 25.1753 56.7821 25.2154C56.8687 25.2785 56.9901 25.2595 57.0533 25.1729C57.1165 25.0863 57.0974 24.9649 57.0108 24.9018C56.9721 24.8735 56.9348 24.8452 56.8988 24.8168C56.975 24.8085 57.0534 24.7976 57.1341 24.7839C57.2398 24.7659 57.3109 24.6656 57.2929 24.5599C57.2748 24.4543 57.1746 24.3832 57.0689 24.4012C57.0049 24.4122 56.9425 24.4211 56.8818 24.4281C56.9432 24.3512 56.9974 24.276 57.0457 24.2036C57.1051 24.1145 57.081 23.994 56.9918 23.9345C56.9026 23.8751 56.7821 23.8992 56.7227 23.9883C56.6967 24.0273 56.6686 24.0674 56.6383 24.1083C56.6282 24.0303 56.616 23.9568 56.6026 23.8879Z" fill="#FFC21A"/>
<path d="M48.6055 20.6042C48.585 20.499 48.483 20.4304 48.3778 20.4509C48.2726 20.4714 48.204 20.5734 48.2245 20.6786C48.2352 20.7333 48.245 20.7913 48.2534 20.8527C48.2223 20.8085 48.1938 20.7655 48.1675 20.724C48.1101 20.6335 47.9902 20.6065 47.8997 20.6639C47.8091 20.7212 47.7822 20.8411 47.8395 20.9317C47.8767 20.9904 47.9179 21.0517 47.9636 21.1148C47.9219 21.1068 47.8819 21.0981 47.8436 21.089C47.7393 21.0642 47.6346 21.1286 47.6098 21.2328C47.585 21.3371 47.6494 21.4418 47.7537 21.4666C47.8124 21.4806 47.8744 21.4936 47.9395 21.5051C47.9104 21.5259 47.8806 21.5467 47.8499 21.5674C47.7611 21.6275 47.7377 21.7481 47.7978 21.8369C47.8578 21.9257 47.9784 21.9491 48.0672 21.8891C48.1283 21.8478 48.1864 21.8063 48.2417 21.7646C48.2345 21.8116 48.2262 21.8595 48.2167 21.9084C48.1963 22.0137 48.265 22.1155 48.3702 22.136C48.4754 22.1564 48.5773 22.0877 48.5978 21.9825C48.6091 21.9241 48.6189 21.8668 48.6273 21.8107C48.6775 21.8512 48.73 21.8916 48.7851 21.9317C48.8717 21.9948 48.9931 21.9758 49.0562 21.8892C49.1194 21.8026 49.1004 21.6812 49.0138 21.6181C48.975 21.5898 48.9377 21.5615 48.9017 21.5331C48.9779 21.5248 49.0563 21.5139 49.1371 21.5002C49.2427 21.4822 49.3138 21.3819 49.2958 21.2763C49.2778 21.1706 49.1775 21.0995 49.0718 21.1176C49.0078 21.1285 48.9454 21.1374 48.8848 21.1444C48.9461 21.0675 49.0003 20.9923 49.0486 20.92C49.108 20.8308 49.0839 20.7103 48.9948 20.6508C48.9056 20.5914 48.7851 20.6155 48.7256 20.7047C48.6996 20.7436 48.6715 20.7837 48.6412 20.8246C48.6312 20.7466 48.619 20.6732 48.6055 20.6042Z" fill="#FFC21A"/>
<path d="M53.253 18.7488C53.2324 18.6436 53.1305 18.575 53.0253 18.5956C52.9201 18.6161 52.8514 18.718 52.872 18.8232C52.8827 18.8779 52.8925 18.936 52.9008 18.9974C52.8697 18.9532 52.8412 18.9102 52.8149 18.8687C52.7576 18.7781 52.6377 18.7512 52.5471 18.8085C52.4566 18.8659 52.4296 18.9858 52.487 19.0763C52.5242 19.1351 52.5653 19.1963 52.611 19.2595C52.5694 19.2515 52.5294 19.2428 52.491 19.2336C52.3868 19.2088 52.2821 19.2732 52.2573 19.3775C52.2324 19.4818 52.2969 19.5864 52.4011 19.6112C52.4599 19.6252 52.5218 19.6382 52.5869 19.6497C52.5579 19.6706 52.5281 19.6914 52.4974 19.7121C52.4086 19.7721 52.3852 19.8927 52.4452 19.9816C52.5052 20.0704 52.6259 20.0937 52.7147 20.0337C52.7757 19.9925 52.8338 19.9509 52.8892 19.9092C52.882 19.9562 52.8737 20.0042 52.8642 20.0531C52.8437 20.1583 52.9124 20.2602 53.0177 20.2806C53.1229 20.3011 53.2248 20.2323 53.2452 20.1271C53.2566 20.0687 53.2664 20.0115 53.2748 19.9554C53.325 19.9958 53.3775 20.0362 53.4325 20.0763C53.5191 20.1395 53.6405 20.1205 53.7037 20.0339C53.7668 19.9473 53.7478 19.8259 53.6612 19.7627C53.6225 19.7345 53.5852 19.7061 53.5492 19.6777C53.6254 19.6695 53.7038 19.6586 53.7845 19.6448C53.8902 19.6268 53.9613 19.5266 53.9432 19.4209C53.9252 19.3153 53.825 19.2442 53.7193 19.2622C53.6552 19.2731 53.5929 19.282 53.5322 19.2891C53.5936 19.2121 53.6478 19.137 53.696 19.0646C53.7555 18.9754 53.7314 18.8549 53.6422 18.7955C53.553 18.736 53.4325 18.7601 53.3731 18.8493C53.3471 18.8883 53.319 18.9283 53.2886 18.9692C53.2786 18.8913 53.2664 18.8178 53.253 18.7488Z" fill="#FFC21A"/>
<path d="M44.3574 17.3824C44.3369 17.2772 44.235 17.2086 44.1298 17.2291C44.0246 17.2496 43.9559 17.3516 43.9765 17.4568C43.9871 17.5115 43.997 17.5695 44.0053 17.6309C43.9742 17.5867 43.9457 17.5437 43.9194 17.5022C43.8621 17.4117 43.7422 17.3847 43.6516 17.4421C43.561 17.4994 43.5341 17.6193 43.5915 17.7099C43.6287 17.7686 43.6698 17.8299 43.7155 17.893C43.6739 17.885 43.6339 17.8763 43.5955 17.8672C43.4913 17.8424 43.3866 17.9068 43.3618 18.011C43.3369 18.1153 43.4013 18.2199 43.5056 18.2448C43.5644 18.2588 43.6263 18.2718 43.6914 18.2833C43.6624 18.3041 43.6326 18.3249 43.6019 18.3456C43.513 18.4057 43.4897 18.5263 43.5497 18.6151C43.6097 18.7039 43.7304 18.7273 43.8192 18.6673C43.8802 18.626 43.9383 18.5845 43.9937 18.5428C43.9865 18.5898 43.9782 18.6377 43.9687 18.6866C43.9482 18.7919 44.0169 18.8937 44.1222 18.9142C44.2274 18.9346 44.3293 18.8659 44.3497 18.7607C44.3611 18.7022 44.3709 18.645 44.3793 18.5889C44.4294 18.6294 44.482 18.6698 44.537 18.7099C44.6236 18.773 44.745 18.754 44.8082 18.6674C44.8713 18.5808 44.8523 18.4594 44.7657 18.3963C44.727 18.368 44.6897 18.3397 44.6537 18.3113C44.7299 18.303 44.8083 18.2921 44.889 18.2784C44.9947 18.2604 45.0658 18.1601 45.0477 18.0545C45.0297 17.9488 44.9295 17.8777 44.8238 17.8958C44.7597 17.9067 44.6974 17.9156 44.6367 17.9226C44.698 17.8457 44.7523 17.7705 44.8005 17.6981C44.86 17.609 44.8359 17.4885 44.7467 17.429C44.6575 17.3696 44.537 17.3937 44.4776 17.4828C44.4516 17.5218 44.4235 17.5619 44.3931 17.6028C44.3831 17.5248 44.3709 17.4514 44.3574 17.3824Z" fill="#FFC21A"/>
<path d="M43.9463 23.6005C43.9258 23.4953 43.8238 23.4267 43.7186 23.4472C43.6134 23.4678 43.5448 23.5697 43.5653 23.6749C43.576 23.7296 43.5858 23.7877 43.5942 23.849C43.5631 23.8049 43.5346 23.7619 43.5083 23.7203C43.4509 23.6298 43.331 23.6029 43.2405 23.6602C43.1499 23.7176 43.123 23.8375 43.1803 23.928C43.2175 23.9867 43.2587 24.048 43.3044 24.1112C43.2627 24.1031 43.2227 24.0945 43.1844 24.0853C43.0801 24.0605 42.9755 24.1249 42.9506 24.2292C42.9258 24.3334 42.9902 24.4381 43.0945 24.4629C43.1532 24.4769 43.2152 24.4899 43.2803 24.5014C43.2513 24.5223 43.2214 24.543 43.1907 24.5638C43.1019 24.6238 43.0786 24.7444 43.1386 24.8332C43.1986 24.922 43.3192 24.9454 43.4081 24.8854C43.4691 24.8442 43.5272 24.8026 43.5825 24.7609C43.5753 24.8079 43.567 24.8559 43.5575 24.9048C43.5371 25.01 43.6058 25.1119 43.711 25.1323C43.8163 25.1527 43.9181 25.084 43.9386 24.9788C43.9499 24.9204 43.9597 24.8631 43.9682 24.807C44.0183 24.8475 44.0708 24.8879 44.1259 24.928C44.2125 24.9912 44.3339 24.9722 44.397 24.8856C44.4602 24.799 44.4412 24.6776 44.3546 24.6144C44.3158 24.5862 44.2785 24.5578 44.2425 24.5294C44.3187 24.5211 44.3972 24.5103 44.4779 24.4965C44.5836 24.4785 44.6546 24.3783 44.6366 24.2726C44.6186 24.1669 44.5183 24.0959 44.4127 24.1139C44.3486 24.1248 44.2863 24.1337 44.2256 24.1408C44.2869 24.0638 44.3411 23.9887 44.3894 23.9163C44.4489 23.8271 44.4248 23.7066 44.3356 23.6472C44.2464 23.5877 44.1259 23.6118 44.0664 23.701C44.0404 23.74 44.0124 23.78 43.982 23.8209C43.972 23.743 43.9598 23.6695 43.9463 23.6005Z" fill="#FFC21A"/>
<path d="M47.5049 26.9076C47.4844 26.8025 47.3824 26.7338 47.2772 26.7544C47.172 26.7749 47.1034 26.8768 47.1239 26.982C47.1346 27.0367 47.1444 27.0948 47.1528 27.1562C47.1217 27.112 47.0932 27.069 47.0669 27.0275C47.0095 26.9369 46.8896 26.91 46.7991 26.9674C46.7085 27.0247 46.6816 27.1446 46.7389 27.2351C46.7761 27.2939 46.8173 27.3551 46.863 27.4183C46.8213 27.4103 46.7813 27.4016 46.743 27.3925C46.6387 27.3676 46.5341 27.432 46.5092 27.5363C46.4844 27.6406 46.5488 27.7452 46.6531 27.77C46.7118 27.784 46.7738 27.797 46.8389 27.8085C46.8099 27.8294 46.78 27.8502 46.7493 27.8709C46.6605 27.9309 46.6372 28.0516 46.6972 28.1404C46.7572 28.2292 46.8778 28.2525 46.9666 28.1925C47.0277 28.1513 47.0858 28.1098 47.1411 28.0681C47.1339 28.1151 47.1256 28.163 47.1161 28.2119C47.0957 28.3171 47.1644 28.419 47.2696 28.4394C47.3749 28.4599 47.4767 28.3911 47.4972 28.2859C47.5085 28.2275 47.5183 28.1703 47.5267 28.1142C47.5769 28.1547 47.6294 28.195 47.6845 28.2352C47.7711 28.2983 47.8925 28.2793 47.9556 28.1927C48.0188 28.1061 47.9998 27.9847 47.9132 27.9215C47.8744 27.8933 47.8371 27.865 47.8011 27.8366C47.8773 27.8283 47.9558 27.8174 48.0365 27.8036C48.1422 27.7856 48.2132 27.6854 48.1952 27.5797C48.1772 27.4741 48.0769 27.403 47.9713 27.421C47.9072 27.4319 47.8448 27.4408 47.7842 27.4479C47.8455 27.3709 47.8997 27.2958 47.948 27.2234C48.0075 27.1342 47.9834 27.0137 47.8942 26.9543C47.805 26.8948 47.6845 26.9189 47.625 27.0081C47.599 27.0471 47.571 27.0872 47.5406 27.128C47.5306 27.0501 47.5184 26.9766 47.5049 26.9076Z" fill="#FFC21A"/>
<path d="M40.1621 27.5906C40.1416 27.4854 40.0397 27.4168 39.9344 27.4373C39.8292 27.4579 39.7606 27.5598 39.7811 27.665C39.7918 27.7197 39.8017 27.7778 39.81 27.8392C39.7789 27.795 39.7504 27.752 39.7241 27.7105C39.6668 27.6199 39.5468 27.593 39.4563 27.6503C39.3657 27.7077 39.3388 27.8276 39.3962 27.9181C39.4334 27.9769 39.4745 28.0381 39.5202 28.1013C39.4786 28.0933 39.4386 28.0846 39.4002 28.0754C39.2959 28.0506 39.1913 28.115 39.1665 28.2193C39.1416 28.3236 39.206 28.4282 39.3103 28.453C39.3691 28.467 39.431 28.48 39.4961 28.4915C39.4671 28.5124 39.4372 28.5332 39.4066 28.5539C39.3177 28.6139 39.2944 28.7345 39.3544 28.8234C39.4144 28.9122 39.5351 28.9355 39.6239 28.8755C39.6849 28.8343 39.743 28.7927 39.7984 28.751C39.7912 28.798 39.7828 28.846 39.7733 28.8949C39.7529 29.0001 39.8216 29.102 39.9269 29.1224C40.0321 29.1429 40.134 29.0741 40.1544 28.9689C40.1657 28.9105 40.1756 28.8532 40.184 28.7972C40.2341 28.8376 40.2867 28.878 40.3417 28.9181C40.4283 28.9813 40.5497 28.9623 40.6129 28.8757C40.676 28.7891 40.657 28.6677 40.5704 28.6045C40.5317 28.5763 40.4943 28.5479 40.4584 28.5195C40.5345 28.5113 40.613 28.5004 40.6937 28.4866C40.7994 28.4686 40.8704 28.3684 40.8524 28.2627C40.8344 28.1571 40.7342 28.086 40.6285 28.104C40.5644 28.1149 40.5021 28.1238 40.4414 28.1309C40.5027 28.0539 40.557 27.9788 40.6052 27.9064C40.6647 27.8172 40.6406 27.6967 40.5514 27.6373C40.4622 27.5778 40.3417 27.6019 40.2822 27.6911C40.2562 27.7301 40.2282 27.7701 40.1978 27.811C40.1878 27.7331 40.1756 27.6596 40.1621 27.5906Z" fill="#FFC21A"/>
<path d="M44.4278 31.3401C44.4072 31.235 44.3053 31.1663 44.2001 31.1869C44.0949 31.2074 44.0262 31.3093 44.0468 31.4145C44.0575 31.4692 44.0673 31.5273 44.0756 31.5887C44.0446 31.5445 44.016 31.5015 43.9897 31.46C43.9324 31.3694 43.8125 31.3425 43.7219 31.3999C43.6314 31.4572 43.6044 31.5771 43.6618 31.6676C43.699 31.7264 43.7401 31.7876 43.7858 31.8508C43.7442 31.8428 43.7042 31.8341 43.6658 31.825C43.5616 31.8001 43.4569 31.8645 43.4321 31.9688C43.4073 32.0731 43.4717 32.1777 43.5759 32.2025C43.6347 32.2165 43.6966 32.2295 43.7617 32.241C43.7327 32.2619 43.7029 32.2827 43.6722 32.3034C43.5834 32.3634 43.56 32.4841 43.62 32.5729C43.68 32.6617 43.8007 32.685 43.8895 32.625C43.9505 32.5838 44.0086 32.5423 44.064 32.5006C44.0568 32.5476 44.0485 32.5955 44.039 32.6444C44.0185 32.7496 44.0873 32.8515 44.1925 32.8719C44.2977 32.8924 44.3996 32.8236 44.42 32.7184C44.4314 32.66 44.4412 32.6028 44.4496 32.5467C44.4998 32.5872 44.5523 32.6275 44.6073 32.6676C44.6939 32.7308 44.8153 32.7118 44.8785 32.6252C44.9416 32.5386 44.9226 32.4172 44.836 32.354C44.7973 32.3258 44.76 32.2974 44.724 32.2691C44.8002 32.2608 44.8786 32.2499 44.9593 32.2361C45.065 32.2181 45.1361 32.1179 45.1181 32.0122C45.1 31.9066 44.9998 31.8355 44.8941 31.8535C44.8301 31.8644 44.7677 31.8733 44.707 31.8804C44.7684 31.8034 44.8226 31.7283 44.8708 31.6559C44.9303 31.5667 44.9062 31.4462 44.817 31.3868C44.7278 31.3273 44.6073 31.3514 44.5479 31.4406C44.5219 31.4796 44.4938 31.5196 44.4635 31.5605C44.4534 31.4826 44.4412 31.4091 44.4278 31.3401Z" fill="#FFC21A"/>
<path d="M37.9805 33.3505C37.96 33.2453 37.858 33.1767 37.7528 33.1972C37.6476 33.2178 37.579 33.3197 37.5995 33.4249C37.6102 33.4796 37.62 33.5377 37.6284 33.599C37.5973 33.5549 37.5688 33.5119 37.5425 33.4703C37.4851 33.3798 37.3652 33.3529 37.2747 33.4102C37.1841 33.4676 37.1572 33.5875 37.2145 33.678C37.2517 33.7367 37.2929 33.798 37.3386 33.8612C37.2969 33.8531 37.2569 33.8445 37.2186 33.8353C37.1143 33.8105 37.0096 33.8749 36.9848 33.9792C36.96 34.0834 37.0244 34.1881 37.1287 34.2129C37.1874 34.2269 37.2494 34.2399 37.3145 34.2514C37.2854 34.2723 37.2556 34.293 37.2249 34.3138C37.1361 34.3738 37.1127 34.4944 37.1728 34.5832C37.2328 34.672 37.3534 34.6954 37.4422 34.6354C37.5033 34.5942 37.5614 34.5526 37.6167 34.5109C37.6095 34.5579 37.6012 34.6059 37.5917 34.6548C37.5713 34.76 37.64 34.8619 37.7452 34.8823C37.8504 34.9027 37.9523 34.834 37.9728 34.7288C37.9841 34.6704 37.9939 34.6131 38.0023 34.557C38.0525 34.5975 38.105 34.6379 38.1601 34.678C38.2467 34.7412 38.3681 34.7222 38.4312 34.6356C38.4944 34.549 38.4754 34.4276 38.3888 34.3644C38.35 34.3362 38.3127 34.3078 38.2767 34.2794C38.3529 34.2711 38.4313 34.2603 38.5121 34.2465C38.6177 34.2285 38.6888 34.1283 38.6708 34.0226C38.6528 33.9169 38.5525 33.8459 38.4468 33.8639C38.3828 33.8748 38.3204 33.8837 38.2598 33.8908C38.3211 33.8138 38.3753 33.7387 38.4236 33.6663C38.483 33.5771 38.4589 33.4566 38.3698 33.3972C38.2806 33.3377 38.1601 33.3618 38.1006 33.451C38.0746 33.49 38.0465 33.53 38.0162 33.5709C38.0062 33.493 37.994 33.4195 37.9805 33.3505Z" fill="#FFC21A"/>
<path d="M48.4463 14.2773C48.4258 14.1721 48.3238 14.1035 48.2186 14.124C48.1134 14.1445 48.0448 14.2465 48.0653 14.3517C48.076 14.4064 48.0858 14.4644 48.0942 14.5258C48.0631 14.4816 48.0346 14.4386 48.0083 14.3971C47.9509 14.3066 47.831 14.2796 47.7405 14.337C47.6499 14.3943 47.623 14.5142 47.6803 14.6048C47.7175 14.6635 47.7587 14.7248 47.8044 14.7879C47.7627 14.7799 47.7227 14.7712 47.6844 14.7621C47.5801 14.7373 47.4755 14.8017 47.4506 14.9059C47.4258 15.0102 47.4902 15.1148 47.5945 15.1397C47.6532 15.1537 47.7152 15.1667 47.7803 15.1782C47.7513 15.199 47.7214 15.2198 47.6907 15.2405C47.6019 15.3005 47.5786 15.4212 47.6386 15.51C47.6986 15.5988 47.8192 15.6222 47.9081 15.5621C47.9691 15.5209 48.0272 15.4794 48.0825 15.4377C48.0753 15.4847 48.067 15.5326 48.0575 15.5815C48.0371 15.6868 48.1058 15.7886 48.211 15.8091C48.3163 15.8295 48.4181 15.7608 48.4386 15.6556C48.4499 15.5971 48.4597 15.5399 48.4682 15.4838C48.5183 15.5243 48.5708 15.5647 48.6259 15.6048C48.7125 15.6679 48.8339 15.6489 48.897 15.5623C48.9602 15.4757 48.9412 15.3543 48.8546 15.2912C48.8158 15.2629 48.7785 15.2346 48.7425 15.2062C48.8187 15.1979 48.8972 15.187 48.9779 15.1733C49.0836 15.1553 49.1546 15.055 49.1366 14.9494C49.1186 14.8437 49.0183 14.7726 48.9127 14.7907C48.8486 14.8016 48.7863 14.8105 48.7256 14.8175C48.7869 14.7406 48.8411 14.6654 48.8894 14.593C48.9489 14.5039 48.9248 14.3834 48.8356 14.3239C48.7464 14.2645 48.6259 14.2886 48.5664 14.3777C48.5404 14.4167 48.5124 14.4568 48.482 14.4977C48.472 14.4197 48.4598 14.3462 48.4463 14.2773Z" fill="#FFC21A"/>
<path d="M51.9551 10.0157C51.9346 9.91049 51.8326 9.84186 51.7274 9.8624C51.6222 9.88294 51.5536 9.98486 51.5741 10.0901C51.5848 10.1448 51.5946 10.2028 51.603 10.2642C51.5719 10.22 51.5434 10.177 51.5171 10.1355C51.4597 10.045 51.3398 10.018 51.2493 10.0754C51.1587 10.1327 51.1318 10.2526 51.1891 10.3432C51.2263 10.4019 51.2675 10.4632 51.3132 10.5263C51.2715 10.5183 51.2315 10.5096 51.1932 10.5005C51.0889 10.4757 50.9843 10.5401 50.9594 10.6443C50.9346 10.7486 50.999 10.8532 51.1033 10.8781C51.162 10.8921 51.224 10.9051 51.2891 10.9166C51.2601 10.9374 51.2302 10.9582 51.1995 10.9789C51.1107 11.039 51.0873 11.1596 51.1474 11.2484C51.2074 11.3372 51.328 11.3606 51.4168 11.3006C51.4779 11.2593 51.536 11.2178 51.5913 11.1761C51.5841 11.2231 51.5758 11.271 51.5663 11.3199C51.5459 11.4252 51.6146 11.527 51.7198 11.5475C51.825 11.5679 51.9269 11.4992 51.9474 11.394C51.9587 11.3355 51.9685 11.2783 51.9769 11.2222C52.0271 11.2627 52.0796 11.3031 52.1347 11.3432C52.2213 11.4063 52.3427 11.3873 52.4058 11.3007C52.469 11.2141 52.45 11.0927 52.3634 11.0296C52.3246 11.0013 52.2873 10.973 52.2513 10.9446C52.3275 10.9363 52.406 10.9254 52.4867 10.9117C52.5923 10.8937 52.6634 10.7934 52.6454 10.6878C52.6274 10.5821 52.5271 10.511 52.4215 10.5291C52.3574 10.54 52.295 10.5489 52.2344 10.5559C52.2957 10.479 52.3499 10.4038 52.3982 10.3314C52.4577 10.2423 52.4336 10.1218 52.3444 10.0623C52.2552 10.0029 52.1347 10.027 52.0752 10.1162C52.0492 10.1551 52.0212 10.1952 51.9908 10.2361C51.9808 10.1581 51.9686 10.0847 51.9551 10.0157Z" fill="#FFC21A"/>
<path d="M44.2632 36.3609C56.9333 41.2359 58.8944 28.241 51.5811 24.4373C51.3513 24.3131 51.0998 24.5304 51.1603 24.7788C52.0951 28.6601 52.0423 33.0385 44.271 35.7865C43.9993 35.8796 43.9946 36.2677 44.2632 36.3609Z" fill="#FFC21A"/>
<path fill-rule="evenodd" clip-rule="evenodd" d="M51.0937 3.70332C51.5307 3.75476 51.9014 4.04813 52.0519 4.46162L64.5202 38.7262C64.6421 39.0614 64.6037 39.4339 64.416 39.7372C64.2283 40.0404 63.9119 40.2409 63.5575 40.2813C54.2427 41.3415 46.8146 40.87 41.2943 39.8341C35.8051 38.804 32.1346 37.2023 30.3865 35.9382C29.8811 35.5727 29.7534 34.8739 30.097 34.3534L49.9856 4.2184C50.228 3.85115 50.6567 3.65188 51.0937 3.70332ZM32.6979 34.6406C34.3942 35.5751 37.3899 36.732 41.7239 37.5453C46.7124 38.4814 53.415 38.9506 61.8224 38.1236L50.6546 7.4328L32.6979 34.6406Z" fill="#1A1A1A"/>
</svg>
