<svg width="75" height="86" viewBox="0 0 75 86" fill="none" xmlns="http://www.w3.org/2000/svg">
<path d="M52.0717 50.3987C59.3877 50.3987 65.5609 55.2739 67.5358 61.9503C68.9363 62.7576 69.8757 64.2326 69.8757 65.925C69.8757 67.1205 69.4037 68.2074 68.6351 69.0303C69.4037 69.8532 69.8757 70.94 69.8757 72.1355C69.8757 73.5484 69.2158 74.8215 68.1802 75.6755C68.2703 76.0326 68.323 76.4053 68.323 76.7934C68.323 79.3708 66.2379 81.4513 63.6651 81.4513C62.8143 81.4513 62.0194 81.2184 61.3331 80.8147C60.4698 82.3673 58.9731 83.3921 57.2714 83.3921C56.8662 83.3921 56.4718 83.3299 56.0945 83.2212C55.2142 84.277 53.9814 84.9447 52.6135 84.9447C51.4304 84.9447 50.3467 84.4478 49.5067 83.6249C48.6667 84.4478 47.5845 84.9447 46.403 84.9447C45.2199 84.9447 44.1361 84.4478 43.2962 83.6249C42.4562 84.4478 41.374 84.9447 40.1925 84.9447C38.6041 84.9447 37.1928 84.0442 36.3109 82.6779C35.4274 84.0442 34.0176 84.9447 32.4293 84.9447C31.2462 84.9447 30.1625 84.4478 29.3225 83.6249C28.4825 84.4478 27.4003 84.9447 26.2188 84.9447C24.5916 84.9447 23.1539 84.0131 22.2766 82.5847C22.1059 82.5537 21.9382 82.5381 21.7705 82.5071C20.9476 83.5318 19.7847 84.1684 18.4898 84.1684C17.1747 84.1684 15.9947 83.5163 15.1702 82.4605C14.5927 82.802 13.9235 83.0039 13.2046 83.0039C11.0604 83.0039 9.32304 81.265 9.32304 79.1224C9.32304 78.1287 9.69567 77.2281 10.3043 76.5449C8.8262 76.0015 7.77041 74.5732 7.77041 72.9118C7.77041 72.415 7.86356 71.9492 8.03125 71.5144C6.98788 71.1884 6.21777 70.086 6.21777 68.7662C6.21777 68.5644 6.23485 68.3781 6.26901 68.1762C6.23485 67.9589 6.21777 67.7105 6.21777 67.4776C6.21777 65.9871 6.91646 64.6673 8.0002 63.8133C9.29044 56.2055 15.9171 50.3987 23.9007 50.3987H52.0717Z" fill="white"/>
<path d="M22.5083 80.2565C23.1414 80.3245 23.7175 80.6414 24.1064 81.1359L24.2611 81.3588L24.4688 81.6621C24.9764 82.3189 25.6221 82.6157 26.2185 82.6158V84.9447C24.5916 84.9446 23.1535 84.0136 22.2763 82.5855C22.1056 82.5544 21.9375 82.5377 21.7699 82.5066L22.0746 80.2095C22.2827 80.225 22.3872 80.241 22.5083 80.2565Z" fill="#1A1A1A"/>
<path d="M29.3177 83.6286C28.4784 84.449 27.3981 84.9447 26.2185 84.9447V82.6158C26.7231 82.6158 27.2404 82.3985 27.6984 81.9638L29.3177 83.6286Z" fill="#1A1A1A"/>
<path d="M30.9462 81.9638C31.4041 82.3985 31.9214 82.6157 32.429 82.6158V84.9447C31.2476 84.9447 30.1648 84.4496 29.3253 83.6286L30.9462 81.9638Z" fill="#1A1A1A"/>
<path d="M36.3106 80.349C37.1025 80.349 37.8411 80.7534 38.2696 81.421C38.7974 82.2436 39.5247 82.6157 40.1922 82.6158V84.9447C38.604 84.9446 37.1925 84.0442 36.3106 82.678C35.4272 84.0442 34.0173 84.9447 32.429 84.9447V82.6158C33.0966 82.6158 33.8222 82.2436 34.3516 81.421L34.526 81.1829C34.965 80.6583 35.6164 80.3491 36.3106 80.349Z" fill="#1A1A1A"/>
<path d="M43.2914 83.6286C42.452 84.449 41.3717 84.9447 40.1922 84.9447V82.6158C40.6968 82.6158 41.2141 82.3985 41.6721 81.9638L43.2914 83.6286Z" fill="#1A1A1A"/>
<path d="M44.9198 81.9638C45.3778 82.3985 45.8951 82.6157 46.4027 82.6158V84.9447C45.2213 84.9447 44.1384 84.4496 43.299 83.6286L44.9198 81.9638Z" fill="#1A1A1A"/>
<path d="M49.5019 83.6286C48.6626 84.449 47.5823 84.9447 46.4027 84.9447V82.6158C46.9073 82.6158 47.4246 82.3985 47.8826 81.9638L49.5019 83.6286Z" fill="#1A1A1A"/>
<path d="M51.1304 81.9638C51.5883 82.3985 52.1056 82.6157 52.6133 82.6158V84.9447C51.4318 84.9447 50.349 84.4496 49.5095 83.6286L51.1304 81.9638Z" fill="#1A1A1A"/>
<path d="M54.3024 81.7303C54.8955 81.0161 55.8539 80.7219 56.7435 80.9858C56.9173 81.0324 57.0927 81.0631 57.2712 81.0632V83.3921C56.866 83.3921 56.4718 83.3294 56.0945 83.2208C55.2142 84.2766 53.9811 84.9447 52.6133 84.9447V82.6158C53.1908 82.6158 53.7993 82.3358 54.3024 81.7303Z" fill="#1A1A1A"/>
<path d="M13.987 80.4582C14.9271 79.9052 16.117 80.0745 16.8557 80.8524L16.9983 81.0162L17.1711 81.2163C17.5855 81.6491 18.0553 81.8395 18.4902 81.8395V84.1684L18.2446 84.1608C17.0285 84.0853 15.9425 83.4508 15.1697 82.4611C14.5922 82.8025 13.9232 83.0039 13.2046 83.0039V80.675C13.484 80.675 13.748 80.5978 13.987 80.4582Z" fill="#1A1A1A"/>
<path d="M21.7653 82.5112C20.9428 83.5329 19.7828 84.1683 18.4902 84.1684V81.8395C18.979 81.8393 19.5095 81.6064 19.9595 81.048L21.7653 82.5112Z" fill="#1A1A1A"/>
<path d="M27.6984 81.9638C28.602 81.0788 30.0425 81.0789 30.9462 81.9638L29.3223 83.6256L27.6984 81.9638Z" fill="#1A1A1A"/>
<path d="M41.6721 81.9638C42.5757 81.0788 44.0162 81.0789 44.9198 81.9638L43.296 83.6256L41.6721 81.9638Z" fill="#1A1A1A"/>
<path d="M47.8826 81.9638C48.7862 81.0788 50.2267 81.0789 51.1304 81.9638L49.5065 83.6256L47.8826 81.9638Z" fill="#1A1A1A"/>
<path d="M61.3286 80.8206C60.4648 82.3696 58.9705 83.3921 57.2712 83.3921V81.0632C57.9807 81.0632 58.772 80.6289 59.3014 79.6819L61.3286 80.8206Z" fill="#1A1A1A"/>
<path d="M7.99936 63.8129L9.4413 65.646C8.89015 66.0807 8.54672 66.7324 8.54672 67.4776C8.54672 67.5472 8.54855 67.6091 8.55279 67.6672L8.57098 67.8355L8.59221 68.0235C8.60553 68.2141 8.59526 68.4089 8.56037 68.5951L6.29055 68.1797L6.26781 68.1842L8.56037 68.5951C8.5526 68.6417 8.54672 68.7043 8.54672 68.7664C8.54676 68.9682 8.60752 69.1236 8.6665 69.2168C8.69771 69.2624 8.72249 69.2856 8.73473 69.2956L8.72564 69.2941C9.34034 69.4805 9.84718 69.9312 10.1282 70.5056C10.4075 71.0798 10.4366 71.747 10.2055 72.3523C10.1356 72.5387 10.0994 72.7255 10.0994 72.9118C10.0994 73.4823 10.4163 73.9939 10.8969 74.2689L11.1137 74.372L11.3745 74.4857C11.9648 74.7885 12.4002 75.3344 12.5632 75.9868C12.7493 76.7318 12.5553 77.5231 12.0447 78.0974L10.3056 76.5463L10.304 76.5523L12.0447 78.0974C11.7963 78.3769 11.652 78.7342 11.652 79.1224C11.652 79.9763 12.3476 80.675 13.2046 80.675V83.0039C11.0604 83.0039 9.32304 81.265 9.32304 79.1224C9.32304 78.1287 9.69542 77.2279 10.304 76.5448C8.82608 76.0013 7.77041 74.5731 7.77041 72.9118C7.77041 72.415 7.86351 71.9486 8.0312 71.5139C7.05302 71.2081 6.31514 70.2204 6.22687 69.0106L6.21777 68.7664C6.21777 68.5647 6.2352 68.3783 6.26933 68.1766C6.23517 67.9592 6.21777 67.7105 6.21777 67.4776C6.21777 65.9872 6.91579 64.6668 7.99936 63.8129Z" fill="#1A1A1A"/>
<path d="M22.0746 80.2095L21.7699 82.5066L19.9595 81.048C20.4703 80.4115 21.2704 80.1009 22.0746 80.2095Z" fill="#1A1A1A"/>
<path d="M62.5022 78.8115C62.8515 79.0134 63.2459 79.1224 63.6651 79.1224V81.4513C62.8155 81.4513 62.0218 81.2186 61.3362 80.816L62.5022 78.8115Z" fill="#1A1A1A"/>
<path d="M65.9941 76.7934C65.9941 76.7079 65.9882 76.6184 65.9759 76.525L65.9198 76.2339L65.8849 76.0702C65.7432 75.2513 66.0502 74.4131 66.6991 73.8747L68.179 75.6744L68.1805 75.676C68.2705 76.0329 68.323 76.4055 68.323 76.7934C68.323 79.3708 66.2379 81.4513 63.6651 81.4513V79.1224C64.9507 79.1224 65.9941 78.0821 65.9941 76.7934Z" fill="#1A1A1A"/>
<path d="M60.7161 78.5796C61.3184 78.4088 61.9619 78.4856 62.5022 78.8115L61.3332 80.8145L59.3014 79.6819C59.6056 79.1387 60.1155 78.735 60.7161 78.5796Z" fill="#1A1A1A"/>
<path d="M67.5467 72.1355C67.5467 71.5766 67.3286 71.048 66.9326 70.6132C66.0989 69.7282 66.0989 68.3323 66.9326 67.4473C67.3286 67.0126 67.5467 66.4839 67.5467 65.925C67.5467 65.2319 67.2113 64.5745 66.6279 64.1298L66.3641 63.9539L66.1776 63.8341C65.7594 63.5366 65.4494 63.1054 65.3027 62.6029L67.53 61.9524L67.5331 61.9449C67.5336 61.9468 67.5355 61.949 67.5361 61.9509C68.9363 62.7584 69.8757 64.2328 69.8757 65.925C69.8757 67.1205 69.4039 68.2074 68.6354 69.0303C69.4039 69.8531 69.8757 70.9401 69.8757 72.1355C69.8757 73.5466 69.2168 74.8175 68.1835 75.6714L66.6991 73.8747C67.2395 73.4244 67.5467 72.8032 67.5467 72.1355Z" fill="#1A1A1A"/>
<path d="M52.7543 50.4123C59.7664 50.7045 65.6172 55.4785 67.5331 61.9418L65.3027 62.6029C63.6103 56.8893 58.3258 52.7278 52.072 52.7276H23.9002C17.0721 52.7279 11.4005 57.6959 10.2965 64.201C10.2002 64.7755 9.89467 65.2889 9.4413 65.646L7.99936 63.8129C9.2898 56.2054 15.917 50.3989 23.9002 50.3987H52.072L52.7543 50.4123Z" fill="#1A1A1A"/>
<path d="M36.4943 31.374C50.3375 31.374 61.3845 36.4869 67.7534 40.3483C71.6288 42.6974 73.1457 47.3212 72.1629 51.7493L69.4629 63.9063C69.2672 64.7758 68.3636 65.3038 67.5019 65.0398C57.534 61.9345 47.3705 57.8822 37.1153 57.8822C28.0961 57.8822 17.2681 62.245 7.74111 65.0863C6.90734 65.3348 6.03786 64.8379 5.81894 63.9995L1.68584 48.0509C1.12845 45.8974 1.76347 43.6197 3.53813 42.2798C8.54381 38.5007 20.1513 31.374 36.4943 31.374Z" fill="#FFD966"/>
<path d="M26.4018 59.3261C26.4018 51.563 24.8491 39.1372 24.8491 33.703L26.4018 32.9267L38.0465 31.374L48.1386 32.9267C48.1386 41.6214 49.4319 53.8919 49.6912 59.3261L45.0333 58.5498L35.7175 57.7735L26.4018 59.3261Z" fill="#2C2C2C"/>
<path d="M36.8775 30.2144C53.48 30.2144 66.2792 37.7834 71.701 41.6195L72.0285 41.8697C73.5985 43.1754 74.2426 45.2651 73.8359 47.3024L70.6503 63.3412C70.2432 65.3894 67.9564 66.4608 66.0363 65.608C57.2425 61.7173 46.2751 59.4975 36.8775 59.4975C28.5834 59.4975 17.3253 62.3166 8.91799 65.8779L8.91951 65.8794C7.08762 66.6564 4.96645 65.6648 4.46934 63.7673L0.202633 47.498L0.105594 47.0704C-0.298229 44.9283 0.463654 42.7393 2.26321 41.477C7.7933 37.5987 20.4785 30.2144 36.8775 30.2144ZM36.8775 32.5433C21.1588 32.5433 8.94507 39.6362 3.60053 43.3844C2.63197 44.0641 2.13989 45.2986 2.3936 46.6368L2.45425 46.9067L6.72247 63.1759C6.84381 63.6379 7.42611 63.983 8.00976 63.7354L9.6564 63.0607C18.0459 59.7379 28.7263 57.1686 36.8775 57.1686C46.5889 57.1686 57.8796 59.4505 66.981 63.4777L66.9825 63.4792C67.6488 63.7748 68.2723 63.3547 68.3653 62.8878L71.5509 46.846C71.8078 45.5591 71.3886 44.3685 70.5335 43.6574L70.3561 43.5209C65.1172 39.8142 52.7925 32.5433 36.8775 32.5433Z" fill="#1A1A1A"/>
<path d="M41.2646 74.1196H34.2646L37.7646 68.8696L41.2646 74.1196Z" fill="#FFAFA3"/>
<path d="M41.2653 75.2842C41.6946 75.284 42.0893 75.0471 42.2918 74.6686C42.4941 74.2901 42.4721 73.8309 42.2342 73.4738L38.7332 68.223C38.5172 67.8995 38.1534 67.7045 37.7643 67.7045C37.3753 67.7047 37.0113 67.8994 36.7954 68.223L33.296 73.4738C33.0578 73.831 33.0359 74.29 33.2383 74.6686C33.441 75.0472 33.8354 75.2842 34.2648 75.2842H41.2653ZM37.7643 70.9705L39.0895 72.9552H36.4406L37.7643 70.9705Z" fill="#1A1A1A"/>
<path d="M46.8481 66.4192C47.6162 66.4197 48.2378 66.993 48.2378 67.7001C48.2377 68.4072 47.6162 68.9807 46.8481 68.981H43.2206C42.4523 68.981 41.8293 68.4074 41.8291 67.7001C41.8291 66.9928 42.4523 66.4193 43.2206 66.4192H46.8481Z" fill="#1A1A1A"/>
<path d="M27.6924 66.4192C26.9243 66.4197 26.3027 66.993 26.3027 67.7001C26.3028 68.4072 26.9243 68.9807 27.6924 68.981H31.3199C32.0883 68.981 32.7113 68.4074 32.7114 67.7001C32.7114 66.9928 32.0883 66.4193 31.3199 66.4192H27.6924Z" fill="#1A1A1A"/>
</svg>
