<svg width="75" height="86" viewBox="0 0 75 86" fill="none" xmlns="http://www.w3.org/2000/svg">
<path d="M12.7168 4.60883C11.864 6.56551 11.2607 10.2171 10.9706 12.6349C10.9022 13.205 11.167 13.7603 11.6448 14.0789L20.1738 19.7643C20.625 20.065 21.2004 20.1087 21.6917 19.8795L32.9504 14.626C33.2679 14.4777 33.5373 14.2301 33.6386 13.8948C34.3572 11.5144 32.8813 7.47778 31.6137 4.8501C31.2525 4.1013 30.3738 3.87867 29.7774 4.45777C28.2777 5.91359 26.0963 8.62698 24.7125 10.436C24.4156 10.8241 23.9568 11.0534 23.4682 11.0534H20.5013C19.7612 11.0534 19.136 10.5239 18.8618 9.83641C17.9514 7.55479 15.9236 5.51179 14.3984 4.2859C13.8216 3.82216 13.0125 3.93037 12.7168 4.60883Z" fill="#CB0B96"/>
<path d="M15.4379 33.8622C8.13387 29.602 6.27684 16.7104 6.21197 9.17563C6.20307 8.14194 7.22514 7.44051 8.14831 7.9058C12.9398 10.3209 15.5311 15.0084 16.2739 17.9795C14.512 9.75799 19.4978 4.37268 23.1922 1.48416C23.9365 0.902271 25.0161 1.18126 25.363 2.06016C27.8434 8.34408 27.0747 15.2287 26.3061 18.8154C28.5046 12.7701 33.4886 10.4509 36.8964 9.35231C37.8708 9.03807 38.8467 9.79882 38.8245 10.8223C38.5202 24.8534 35.0851 31.9998 32.1583 33.8622C25.4701 37.2059 17.3886 35.2554 15.4379 33.8622Z" fill="#FF99E0"/>
<path fill-rule="evenodd" clip-rule="evenodd" d="M22.4754 0.566828C23.8155 -0.4808 25.8061 0.00965415 26.4467 1.63272C26.9057 2.79566 27.2585 3.97589 27.5238 5.15133C28.0345 4.57571 28.5266 4.0497 28.9667 3.62243C29.5436 3.06229 30.313 2.8553 31.0416 3.02034C31.7534 3.18157 32.3406 3.67548 32.6631 4.34421C33.2985 5.66121 33.993 7.33735 34.4559 9.01487C35.193 8.70253 35.8974 8.45106 36.5395 8.24407C38.3135 7.67208 40.0279 9.06349 39.9892 10.8475C39.8353 17.947 38.8887 23.363 37.5797 27.275C36.2873 31.137 34.5849 33.6985 32.784 34.8445L32.7333 34.8768L32.6795 34.9037C29.0924 36.697 25.1729 37.0543 21.9307 36.7994C20.3042 36.6715 18.8249 36.3879 17.6117 36.0393C16.454 35.7066 15.4559 35.2913 14.8081 34.8425C10.7929 32.4774 8.40099 27.8477 6.99374 23.0763C5.56916 18.246 5.08101 13.0258 5.04795 9.18564C5.03237 7.37535 6.88815 5.96643 8.67298 6.86603C9.3348 7.19962 9.95722 7.57283 10.5412 7.9768C10.8393 6.54123 11.2094 5.15418 11.6498 4.14365C11.9575 3.4378 12.5651 2.99097 13.2541 2.8717C13.9209 2.75628 14.6008 2.95405 15.1286 3.37838C15.8653 3.97055 16.7391 4.76356 17.5656 5.70049C19.0609 3.49733 20.9073 1.79282 22.4754 0.566828ZM16.3208 7.84062C15.5106 6.81742 14.5566 5.91188 13.7181 5.23273C13.2698 6.33233 12.8863 7.99221 12.5903 9.65487C13.4861 10.5153 14.2558 11.4416 14.9051 12.3785C15.1496 10.7146 15.6552 9.2031 16.3208 7.84062ZM32.3237 10.0656C32.2993 9.96685 32.2736 9.86702 32.2466 9.76617C32.2235 9.67981 32.1996 9.59329 32.175 9.50667C31.7604 8.0454 31.1445 6.55642 30.5654 5.35599C30.5606 5.34613 30.5558 5.3375 30.5513 5.33013C29.8229 6.04229 28.9184 7.07098 28.0248 8.14622C28.2316 9.98536 28.2566 11.764 28.1768 13.3919C29.4521 11.954 30.8966 10.8797 32.3237 10.0656ZM23.9099 2.40149C24.0585 2.28533 24.2271 2.35286 24.2802 2.48758C26.6373 8.45899 25.917 15.0755 25.1679 18.5714L27.401 19.2133C29.4149 13.6755 33.9691 11.5196 37.2543 10.4605C37.4292 10.4041 37.6664 10.5342 37.6607 10.797C37.5104 17.7287 36.5872 22.9014 35.371 26.536C34.1552 30.169 32.7007 32.1087 31.581 32.849C28.4945 34.3752 25.0535 34.7089 22.1133 34.4777C20.6395 34.3618 19.3147 34.1055 18.255 33.8011C17.1679 33.4887 16.4446 33.1499 16.1152 32.9147L16.0715 32.8835L16.0251 32.8564C12.7626 30.9535 10.5861 27.0234 9.22769 22.4175C7.88154 17.8532 7.40874 12.8603 7.37693 9.1656C7.37592 9.04832 7.42855 8.97976 7.47687 8.94756C7.50155 8.93112 7.52357 8.92509 7.54039 8.92386C7.5539 8.92288 7.58053 8.92337 7.62457 8.94557C12.0464 11.1744 14.4637 15.5384 15.1446 18.2619L17.4131 17.7355C15.795 10.1856 20.3248 5.20456 23.9099 2.40149Z" fill="#1A1A1A"/>
</svg>
