<svg width="75" height="86" viewBox="0 0 75 86" fill="none" xmlns="http://www.w3.org/2000/svg">
<path d="M17.8193 29.855C18.2285 25.5079 28.2482 22.8996 40.1986 24.0174C52.1492 25.1508 61.5058 29.5911 61.0965 33.9382C60.6869 38.2854 50.6673 40.8936 38.7172 39.7603C30.742 39.0151 23.924 36.7949 20.391 34.0934L21.8285 32.1683L18.4456 32.0908C17.9729 31.3611 17.749 30.6158 17.8193 29.855Z" fill="#383838"/>
<path d="M17.8183 29.8542C18.2155 25.6432 27.6322 23.0638 39.0846 23.923L40.1991 24.017C52.1487 25.1504 61.5049 29.5905 61.097 33.9373L58.777 33.7204C58.7919 33.5494 58.7535 33.0996 58.0068 32.3241C57.266 31.5478 56.0324 30.7093 54.2842 29.8709C50.806 28.2253 45.7579 26.8892 39.9808 26.3459C34.2036 25.8025 28.9942 26.1763 25.2695 27.1388C23.3973 27.6356 22.0254 28.2401 21.1542 28.8612C20.5907 29.2592 20.3373 29.5808 20.2247 29.8012L21.8744 29.8391L23.2816 29.8709L24.5523 32.4014L23.7547 33.4718C27.1625 35.2879 32.5541 36.8491 38.936 37.4472C44.7131 37.9905 49.9227 37.6183 53.6473 36.6557C55.5195 36.1589 56.8899 35.5528 57.7611 34.9319C58.6403 34.3109 58.7623 33.8757 58.777 33.7204L61.097 33.9373C60.6994 38.1481 51.2839 40.728 39.8322 39.8548L38.7177 39.7608C30.7428 39.0156 23.9246 36.7947 20.3915 34.0934L21.829 32.1679L18.4461 32.0906C17.9733 31.3609 17.7479 30.615 17.8183 29.8542Z" fill="#1A1A1A"/>
<path d="M52.3553 33.4727C41.2704 35.491 30.7318 32.5255 26.823 30.4762C26.2635 30.1812 26.1399 29.467 26.4979 28.9547L32.9564 19.5462L39.9582 9.36159C40.0243 9.25291 40.1114 9.17525 40.2128 9.12867L49.3376 3.91214C49.7317 3.67926 50.2341 3.83447 50.4262 4.25365L54.3437 12.6374L49.2382 9.93602C48.9078 9.76524 48.4998 9.85842 48.2675 10.1534L45.4259 13.7241C45.2999 13.8794 45.2409 14.0812 45.2616 14.283L46.048 21.9993C46.0622 22.1391 46.1129 22.2633 46.1951 22.3719L53.0425 31.6872C53.5392 32.3548 53.1796 33.3174 52.3553 33.4727Z" fill="#383838"/>
<path d="M49.4887 27.9765C42.1033 29.3428 33.3806 27.0761 29.7071 25.6943C29.5816 25.6322 29.4433 25.6787 29.3581 25.7874L26.2126 29.5912C26.0878 29.7465 26.1329 29.9793 26.306 30.0724L31.0129 32.5876C31.0399 32.6031 31.0689 32.6031 31.0989 32.6186L41.8683 34.7301C41.9042 34.7456 41.941 34.7456 41.9772 34.7456L52.7107 33.0379C52.9374 33.0068 53.0481 32.7428 52.9163 32.5565L49.8016 28.1162C49.7314 28.0075 49.6092 27.961 49.4887 27.9765Z" fill="#7C2BDA"/>
<path d="M48.7449 2.91108C49.7297 2.3291 50.9971 2.71848 51.4803 3.76316L51.4818 3.76165L55.3985 12.1445C55.6101 12.5975 55.5087 13.1352 55.1468 13.4802C54.8302 13.782 54.3765 13.8777 53.9716 13.741L53.8018 13.6682L49.0254 11.1529L46.7555 14.3657L46.4128 21.7402L53.8291 30.9236L54.0095 31.1798C54.8113 32.4964 54.1258 34.3312 52.478 34.6337L52.1763 32.9841L52.2673 33.489L52.478 34.6337L52.4735 34.6352C41.5012 36.6079 31.0647 33.8511 26.6855 31.712L26.2806 31.5073L26.2791 31.5058L26.8235 30.4763L27.06 30.026L26.2791 31.5058C25.0225 30.8427 24.8404 29.3047 25.5392 28.2961H25.5376L38.998 8.70281L38.9995 8.70432C39.1577 8.46345 39.372 8.26183 39.6364 8.1206L39.6348 8.11757L48.7449 2.91108ZM40.8661 10.0962L27.5179 29.5227C31.3182 31.4543 41.3813 34.2402 51.9898 32.3534L44.5083 23.0881C44.5024 23.0808 44.4973 23.0728 44.4916 23.0654L45.3802 22.3831L45.4135 22.3573L44.4916 23.0654C44.2156 22.706 44.0568 22.2532 44.0792 21.7751L44.4355 14.1519C44.4529 13.7721 44.5772 13.4237 44.7812 13.127L44.7888 13.1148L47.3241 9.5276C47.9012 8.70379 48.9804 8.48693 49.8245 8.94236H49.823L51.8245 9.99609L49.55 5.13074L40.8661 10.0962ZM52.8344 31.7287L52.0626 32.3534L52.9238 31.6559L52.8344 31.7287ZM26.4975 28.9556L27.3239 29.5212L26.4217 28.9026L26.4975 28.9556ZM49.271 9.96728L48.9162 10.642H48.9147H48.9162L49.315 9.88238L49.271 9.96728ZM48.3173 10.2296L48.9086 10.6374L48.2566 10.1871L48.3173 10.2296Z" fill="#1A1A1A"/>
</svg>
