<svg width="75" height="86" viewBox="0 0 75 86" fill="none" xmlns="http://www.w3.org/2000/svg">
<path d="M31.9875 36.2785C39.3209 40.272 45.8494 40.8901 49.1528 41.5146C52.3671 42.1223 62.4071 42.5036 66.4218 41.0506C66.8872 40.8857 67.167 40.4173 67.1581 39.9258C66.9949 29.9248 58.4746 21.3143 51.0359 20.6664C44.1795 20.0496 33.9699 23.6021 31.3271 34.8264C31.1916 35.4012 31.467 35.9904 31.9875 36.2785Z" fill="#E24C0C"/>
<path d="M52.6222 19.764C56.8347 21.8794 61.1583 28.2983 60.3912 38.561L58.0695 38.3873C58.6991 29.9645 55.645 24.7961 52.7546 22.5907C51.8622 26.4224 50.5472 33.0388 50.529 37.0262L48.2016 37.0145C48.2206 32.856 49.5223 26.2482 50.4244 22.331C46.5968 23.4381 41.2288 27.0746 39.8177 34.5368L37.5292 34.1041C39.4051 24.1835 47.4641 20.0766 51.9908 19.6605L52.0961 20.8114L52.6222 19.764Z" fill="#AA370D"/>
<path d="M51.1382 19.5061C55.2355 19.8632 59.4817 22.3789 62.6984 26.0168C65.9291 29.6706 68.2361 34.5812 68.3237 39.9043L68.3202 40.078C68.2724 40.9391 67.7549 41.8085 66.8169 42.1438L66.8181 42.1456C64.5993 42.9485 60.8992 43.2096 57.4917 43.22C54.0475 43.2304 50.6499 42.9818 48.9376 42.6582C45.7196 42.0498 38.965 41.4036 31.4309 37.3008L31.4237 37.2979C30.4689 36.7695 29.9339 35.6664 30.1946 34.5596C33.0102 22.6015 43.8984 18.8575 51.1379 19.5076L51.1382 19.5061ZM60.9529 27.56C58.0093 24.2308 54.2764 22.1181 50.9354 21.827L50.9324 21.8265C44.4591 21.2441 34.9307 24.6041 32.461 35.0931C32.4511 35.1349 32.4657 35.2082 32.5475 35.256C39.6794 39.1393 45.9817 39.7293 49.3703 40.3699C50.8726 40.6538 54.1021 40.902 57.4844 40.8917C60.882 40.8814 64.1875 40.6074 65.991 39.9663C65.9923 39.9603 65.9948 39.9539 65.9947 39.947L65.9935 39.9452C65.9171 35.2683 63.8824 30.8731 60.9529 27.56Z" fill="#1A1A1A"/>
<path d="M28.738 37.1652C28.857 36.0501 29.168 34.829 29.5241 33.7271C30.0199 32.1934 31.7919 31.6119 33.2759 32.2401C42.6966 36.17 58.2867 37.9326 66.8424 38.4915C68.1025 38.5717 69.1624 39.4829 69.1931 40.737C69.2131 41.594 69.1706 42.4866 69.1232 43.2993C69.0325 44.8305 67.7854 46.1433 66.255 46.1858C53.4189 46.5557 41.6126 43.4388 30.332 39.4416C29.345 39.097 28.6237 38.2181 28.738 37.1652Z" fill="#E24C0C"/>
<path d="M44.2441 35.1193C44.0925 35.9207 43.7539 37.2541 43.3876 38.6765C43.0153 40.1222 42.6056 41.6949 42.2946 43.0326L40.0271 42.5045C40.3459 41.1333 40.7633 39.5276 41.132 38.0959C41.5066 36.6409 41.8215 35.3953 41.9555 34.6866L44.2441 35.1193ZM57.5532 37.6358C57.4192 38.3445 57.2578 39.6183 57.0753 41.1095C56.8957 42.5771 56.6999 44.2253 56.496 45.6184L54.1903 45.2819C54.3892 43.923 54.5828 42.3093 54.7642 40.8275C54.9426 39.3696 55.1131 38.0045 55.2646 37.2031L57.5532 37.6358ZM48.5193 35.8571C48.4172 36.6603 48.1588 38.0085 47.8791 39.4482C47.5946 40.9125 47.2808 42.5073 47.0508 43.8604L44.7543 43.4699C44.99 42.083 45.3108 40.455 45.5925 39.0049C45.8789 37.5311 46.1176 36.2711 46.2077 35.5622L48.5193 35.8571ZM53.2595 36.7534C53.1574 37.5566 52.899 38.9048 52.6193 40.3445C52.3348 41.8088 52.0211 43.4036 51.791 44.7566L49.4945 44.3661C49.7303 42.9793 50.051 41.3513 50.3328 39.9012C50.6191 38.4274 50.8588 37.1676 50.9489 36.4586L53.2595 36.7534ZM61.8347 38.2983C61.7592 39.5042 61.5143 42.5735 61.1052 45.3679L58.7995 45.0313C59.1961 42.3218 59.4377 39.32 59.5109 38.1521L61.8347 38.2983ZM66.2391 39.1311C66.1636 40.3369 65.9175 43.4061 65.5087 46.2005L63.2039 45.8641C63.6004 43.1545 63.8421 40.1528 63.9152 38.9849L66.2391 39.1311ZM35.5687 33.4681C35.2103 34.582 34.3395 37.4649 33.7194 40.1321L31.4518 39.604C32.0914 36.8533 32.9818 33.9061 33.352 32.7558L35.5687 33.4681ZM39.9731 34.3009C39.6147 35.4147 38.7441 38.2968 38.1239 40.9639L35.8562 40.4368C36.4958 37.6861 37.3862 34.7389 37.7563 33.5885L39.9731 34.3009Z" fill="#AA370D"/>
<path d="M66.9159 37.3294C68.6521 37.4399 70.3085 38.7327 70.3572 40.7081L70.3569 40.7096C70.3675 41.1637 70.3621 41.6244 70.3475 42.0734L70.2864 43.3672L70.2862 43.3687C70.1704 45.3174 68.6803 47.0581 66.6921 47.3183L66.288 47.3499C53.2444 47.7257 41.2825 44.5556 29.9484 40.5397C28.5864 40.064 27.3947 38.763 27.5806 37.0415C27.7113 35.8167 28.0464 34.5117 28.4154 33.3696C29.1688 31.0393 31.7638 30.3418 33.7223 31.1665L33.7241 31.1653C42.9463 35.0124 58.3576 36.7717 66.9156 37.3309L66.9159 37.3294ZM66.7682 39.653L66.7667 39.6528C58.213 39.094 42.4468 37.3273 32.8284 33.3151L32.8227 33.3125C31.8143 32.8856 30.8695 33.3507 30.6319 34.0849C30.3317 35.0139 30.0753 36.0009 29.944 36.9066L29.8963 37.2895L29.896 37.291C29.8545 37.6741 30.1047 38.129 30.7157 38.3425L30.7217 38.3436C41.947 42.3212 53.5958 45.3853 66.2222 45.0214L66.2237 45.0217C67.0961 44.997 67.9015 44.2143 67.9603 43.2314C67.9956 42.625 68.0278 41.9942 68.0333 41.3766L68.0286 40.7647C68.0151 40.2326 67.5515 39.7029 66.7682 39.653Z" fill="#1A1A1A"/>
</svg>
