<svg width="75" height="86" viewBox="0 0 75 86" fill="none" xmlns="http://www.w3.org/2000/svg">
<path d="M18.069 36.0521C19.9011 30.8663 34.3593 28.2424 41.3585 27.5903C42.1783 28.584 43.8163 31.5495 43.8163 35.3535C43.8163 40.1045 58.5291 38.1793 59.4342 41.564C60.1578 44.2656 58.0369 46.8274 56.8848 47.7745C58.8629 48.0074 63.0628 49.3738 64.0394 53.0224C65.016 56.6711 63.5114 60.3509 62.6373 61.7482C64.6402 63.5803 68.6445 64.4809 68.6445 69.5114C68.6445 73.5327 65.3684 80.4575 56.0309 82.9572C48.5596 84.9601 41.0666 83.1124 38.2533 81.9324C28.7263 83.0969 9.07152 83.1745 6.65563 74.1693C4.24128 65.1485 12.2234 59.0311 16.5164 57.0903C14.4468 56.8574 10.3059 55.2893 10.3059 50.8798C10.3059 46.4703 15.4808 44.9022 18.069 44.6693C17.3051 43.9551 16.2369 41.2534 18.069 36.0521Z" fill="#FF99E0"/>
<path d="M17.7646 43.1318C19.1931 45.0105 22.8018 48.1314 26.7471 49.7461C28.1411 50.3052 28.7367 52.6805 27.5195 53.5654L22.9912 56.8574C20.7943 59.2174 16.3995 64.7602 16.3994 68.0518C16.3994 79.4015 38.5557 74.1851 38.5557 79.1846C38.5553 82.8794 32.1779 82.7862 29.6191 83.0967L12.501 80.3174L6.20996 74.4023L7.59766 64.3105L15.7402 57.6494L10.8369 53.8604V47.8369L18.707 44.6074L17.7646 43.1318ZM62.0752 49.249L64.7256 52.8516L64.2012 60.5215C63.8425 60.8631 62.1263 60.9255 59.2881 62.5713C55.7402 64.6052 46.5781 64.7757 46.5781 61.6084C46.5786 58.4412 59.6826 59.2016 59.6826 55.584C59.6825 52.6962 58.0414 49.1717 57.2217 47.7744L62.0752 49.249Z" fill="#FF24BD"/>
<path d="M67.4798 69.5113C67.4798 67.3861 66.6678 66.2094 65.63 65.3113C65.0776 64.8333 64.459 64.4342 63.7923 64.0074C63.1575 63.6009 62.4403 63.1463 61.8515 62.6079C61.4371 62.2287 61.3522 61.6073 61.6499 61.131C62.4325 59.8799 63.775 56.5399 62.9144 53.3239C62.5314 51.8928 61.5063 50.8539 60.2519 50.1231C58.9913 49.3888 57.6048 49.0322 56.7494 48.9314C56.2858 48.8768 55.8983 48.5499 55.7669 48.102C55.6357 47.6542 55.7855 47.1716 56.1459 46.8753C56.6204 46.4852 57.3329 45.7231 57.835 44.7799C58.3358 43.8393 58.5689 42.8346 58.3096 41.8657C58.307 41.8563 58.2665 41.727 57.9245 41.5306C57.5745 41.3297 57.0464 41.1399 56.3339 40.965C54.902 40.6137 53.0699 40.3986 51.1226 40.1235C49.2428 39.8579 47.2452 39.534 45.7081 38.9378C44.2207 38.3608 42.6514 37.3133 42.6514 35.3534C42.6514 34.4132 42.6922 33.4122 42.7014 32.6378C42.7112 31.8082 42.6904 31.1199 42.5938 30.5469C42.4981 29.98 42.3397 29.6025 42.1313 29.3415C41.9522 29.1174 41.6769 28.9072 41.1943 28.7562C37.229 28.7778 32.0665 29.5729 27.6724 30.9851C25.4462 31.7006 23.4643 32.5602 21.9501 33.5248C20.4105 34.5057 19.4984 35.5049 19.1678 36.4406C18.2955 38.9175 18.1406 40.7214 18.255 41.9339C18.3731 43.1845 18.7637 43.7243 18.8646 43.8186C19.1999 44.1321 19.3201 44.6141 19.1708 45.0483C19.0215 45.4823 18.6303 45.788 18.1732 45.8291L17.7092 45.8837C16.5688 46.0452 15.066 46.455 13.817 47.2059C12.4126 48.0502 11.4699 49.2218 11.4699 50.8797C11.4699 52.6576 12.2814 53.8287 13.3348 54.6203C14.429 55.4425 15.7722 55.8349 16.6463 55.9334C17.167 55.992 17.5849 56.3908 17.6667 56.9083C17.7483 57.4261 17.4741 57.9356 16.9966 58.1516L16.6084 58.3336C14.625 59.3022 11.9537 61.1376 9.99455 63.6844C7.9277 66.3714 6.68959 69.7895 7.78084 73.8675C8.27271 75.7008 9.65928 77.1675 11.8201 78.3176C13.9873 79.4711 16.823 80.2428 19.9608 80.7133C26.2305 81.6534 33.4139 81.3512 38.1117 80.777L38.2634 80.7679C38.414 80.7692 38.5632 80.8003 38.7031 80.8589C41.3519 81.9698 48.5746 83.7501 55.729 81.8323L56.3324 84.0824C48.7872 86.1051 41.2662 84.367 38.0966 83.1211C33.2644 83.6881 26.0253 83.9777 19.6151 83.0165C16.3469 82.5264 13.2205 81.7017 10.7254 80.3737C8.38002 79.1253 6.49561 77.3756 5.67933 74.9622L5.53074 74.4709C4.20795 69.5286 5.75412 65.3771 8.14777 62.2652C9.7305 60.2076 11.6994 58.5778 13.5122 57.4147C12.9782 57.1663 12.4403 56.8617 11.9353 56.4822C10.4009 55.3292 9.14091 53.5113 9.14091 50.8797C9.14091 48.1282 10.7875 46.3108 12.6177 45.2105C13.7932 44.5038 15.1025 44.0521 16.2642 43.7868C16.1086 43.3081 15.9941 42.7607 15.9367 42.1522C15.7842 40.5354 16.0116 38.389 16.9708 35.6658C17.5562 34.0086 18.9855 32.6516 20.6992 31.5598C22.4382 30.452 24.6214 29.5199 26.9598 28.7684C31.6352 27.2658 37.12 26.4259 41.358 26.4258C41.4596 26.4258 41.5616 26.439 41.6597 26.4652C42.6292 26.7245 43.3968 27.1953 43.9508 27.889C44.4916 28.5662 44.7552 29.3651 44.8893 30.1603C45.0225 30.9497 45.039 31.8111 45.0288 32.6651C45.018 33.5743 44.9803 34.3917 44.9803 35.3534C44.9803 35.7689 45.2517 36.2625 46.5511 36.7666C47.8007 37.2511 49.5377 37.5473 51.4486 37.8173C53.2923 38.0778 55.3092 38.3148 56.8904 38.7028C57.6841 38.8976 58.4553 39.1493 59.0829 39.5094C59.7077 39.868 60.3339 40.4188 60.5597 41.2622L60.6355 41.5867C60.9641 43.1974 60.5161 44.7006 59.891 45.8746C59.6568 46.3146 59.3879 46.7207 59.1117 47.0891C59.8577 47.3298 60.6558 47.6636 61.424 48.1111C63.0081 49.0339 64.571 50.5044 65.1645 52.722C66.0812 56.1477 65.0505 59.528 64.1259 61.4388C64.3984 61.6288 64.7055 61.8252 65.0493 62.0453C65.6966 62.4598 66.4549 62.9446 67.1538 63.5494C68.6189 64.8172 69.8088 66.6062 69.8088 69.5113C69.8088 74.075 66.1641 81.4503 56.3324 84.0824L55.729 81.8323C64.5717 79.4648 67.4798 72.9902 67.4798 69.5113Z" fill="#1A1A1A"/>
<path d="M41.1306 60.6089H34.8306L37.9806 55.5339L41.1306 60.6089Z" fill="#FFAFA3"/>
<path d="M41.131 61.7349C41.5173 61.7347 41.8725 61.5057 42.0548 61.1398C42.2369 60.774 42.2171 60.33 42.003 59.9848L38.8521 54.9091C38.6576 54.5964 38.3302 54.4078 37.9801 54.4078C37.6299 54.408 37.3024 54.5962 37.1081 54.9091L33.9585 59.9848C33.7442 60.3301 33.7245 60.7738 33.9067 61.1398C34.0891 61.5058 34.444 61.7349 34.8305 61.7349H41.131ZM37.9801 57.5649L39.1727 59.4835H36.7888L37.9801 57.5649Z" fill="#1A1A1A"/>
<path d="M27.3956 50.8875C25.9852 50.8877 24.8419 52.0317 24.8419 53.4422C24.842 54.8525 25.9853 55.9957 27.3956 55.9959C28.8061 55.9959 29.9501 54.8526 29.9503 53.4422C29.9503 52.0316 28.8062 50.8875 27.3956 50.8875ZM24.7716 44.0437C23.7279 43.4905 22.4729 43.6834 21.9698 44.4734C21.4671 45.2632 21.9044 46.3517 22.9474 46.9051L22.9522 46.907C22.9541 46.908 22.9559 46.9112 22.9591 46.9129C22.9671 46.9171 22.9816 46.9232 22.9972 46.9314C23.0283 46.9479 23.0737 46.9719 23.1319 47.0027C23.2498 47.0651 23.4204 47.1562 23.6309 47.2674C24.0524 47.4898 24.6359 47.7963 25.2813 48.1346C26.5652 48.8074 28.1232 49.6172 29.1466 50.1277L29.3468 50.2166C30.3572 50.6242 31.4733 50.3794 31.9141 49.6228C32.3842 48.8159 31.9075 47.7322 30.8487 47.2039L29.0831 46.3055C28.4233 45.9643 27.7234 45.5986 27.0802 45.2615C26.4407 44.9264 25.8624 44.6228 25.4444 44.4021L24.8165 44.0681C24.8016 44.0603 24.7891 44.0546 24.7813 44.0506C24.7781 44.0489 24.7763 44.0457 24.7745 44.0447L24.7716 44.0437Z" fill="#1A1A1A"/>
<path d="M47.5453 50.8871C48.9558 50.8871 50.0998 52.0304 50.1 53.4408C50.1 54.8514 48.9559 55.9955 47.5453 55.9955C46.1348 55.9954 44.9916 54.8513 44.9916 53.4408C44.9917 52.0304 46.1349 50.8873 47.5453 50.8871ZM50.1703 44.0434C51.2137 43.4903 52.4678 43.6825 52.971 44.4721C53.4739 45.2619 53.0375 46.3513 51.9945 46.9047L51.9896 46.9067C51.9877 46.9077 51.985 46.9098 51.9818 46.9116C51.9738 46.9158 51.96 46.922 51.9447 46.9301C51.9136 46.9466 51.8681 46.9716 51.8099 47.0024C51.692 47.0647 51.5214 47.1549 51.3109 47.266C50.8894 47.4885 50.3052 47.7958 49.6595 48.1342C48.3755 48.8071 46.8175 49.6169 45.7943 50.1274L45.5951 50.2162C44.5846 50.6238 43.4685 50.3781 43.0277 49.6215C42.5577 48.8145 43.0343 47.7318 44.0931 47.2035L45.8578 46.3051C46.5176 45.964 47.2173 45.5974 47.8607 45.2602C48.5003 44.925 49.0794 44.6215 49.4974 44.4008L50.1253 44.0668C50.1403 44.0589 50.1528 44.0533 50.1605 44.0492C50.1636 44.0476 50.1656 44.0454 50.1673 44.0444L50.1703 44.0434Z" fill="#1A1A1A"/>
</svg>
