<svg width="75" height="86" viewBox="0 0 75 86" fill="none" xmlns="http://www.w3.org/2000/svg">
<path d="M48.9102 63.6544C53.2577 63.0334 54.3446 58.2205 54.3446 55.8917C54.3446 59.6178 58.1829 62.1018 60.1005 62.8781C56.0107 63.4991 55.5946 67.795 55.8973 69.8646C55.4735 66.9691 51.4985 64.4307 48.9102 63.6544Z" fill="#FFE8A3"/>
<path d="M53.1808 55.8916C53.1808 55.2486 53.7022 54.7272 54.3453 54.7272C54.9885 54.7272 55.5098 55.2486 55.5098 55.8916C55.5098 57.3309 56.2491 58.6033 57.3218 59.6623C58.395 60.7217 59.698 61.4585 60.5379 61.7986C61.0241 61.9954 61.3194 62.4937 61.2582 63.0146C61.1968 63.5352 60.794 63.9501 60.2756 64.0289C58.7076 64.2671 57.8814 65.1661 57.4295 66.2697C57.0115 67.291 56.9349 68.4674 57.0095 69.3415L57.0504 69.6963L57.061 69.8145C57.0871 70.4042 56.663 70.9295 56.0663 71.0168C55.4301 71.1097 54.8388 70.669 54.7456 70.0328C54.5978 69.024 53.7789 67.9039 52.4893 66.8747C51.2314 65.8708 49.7224 65.1142 48.5757 64.7703C48.0524 64.6132 47.7088 64.1127 47.7493 63.5679C47.7901 63.0231 48.2047 62.5797 48.7456 62.5021C50.4473 62.259 51.5298 61.2161 52.224 59.8776C52.9345 58.5075 53.1808 56.9151 53.1808 55.8916ZM54.6622 60.1414C54.5514 60.4131 54.4299 60.6841 54.2922 60.9495C53.7544 61.9867 52.9837 62.9777 51.9253 63.7074C52.6179 64.0958 53.3071 64.5486 53.942 65.0553C54.319 65.3562 54.6919 65.6862 55.0413 66.0438C55.1086 65.8234 55.1861 65.604 55.2748 65.3873C55.6932 64.3654 56.3698 63.401 57.3795 62.7053C56.8077 62.3132 56.225 61.8518 55.6857 61.3195C55.3267 60.965 54.9793 60.5714 54.6622 60.1414Z" fill="#FFC21A"/>
<path d="M61.332 55.1154C64.4374 53.5629 64.6968 50.1985 64.4374 48.129C65.0585 51.8551 67.8022 54.3391 69.0956 55.1154C66.7665 56.668 66.3224 58.2205 65.7138 59.7731C64.4375 57.4442 62.7 56.151 61.332 55.1154Z" fill="#FFE8A3"/>
<path d="M64.269 46.9766C64.8963 46.8851 65.4825 47.3126 65.5867 47.9379C66.1347 51.2244 68.5905 53.4552 69.6944 54.1177C70.0366 54.3231 70.2505 54.6891 70.26 55.0881C70.2693 55.487 70.0734 55.8629 69.7414 56.0842C68.7091 56.7723 68.1361 57.4292 67.7505 58.0552C67.3424 58.7177 67.1264 59.3603 66.7982 60.1975C66.6333 60.6183 66.2394 60.9054 65.7884 60.9344C65.3372 60.9632 64.9093 60.7289 64.6921 60.3325L65.7141 59.773L65.7126 59.7715L64.6921 60.3325C63.5476 58.2444 61.9981 57.0802 60.6284 56.0433C60.3077 55.8002 60.1349 55.4084 60.1719 55.0077C60.2091 54.607 60.4518 54.2538 60.8118 54.0738C63.213 52.8729 63.5267 50.2263 63.2819 48.2729C63.2035 47.6443 63.642 47.0682 64.269 46.9766ZM65.0621 52.7001C64.6986 53.5963 64.1406 54.4577 63.3092 55.1836C64.0143 55.7647 64.7694 56.4623 65.4806 57.3441C65.5692 57.1745 65.6641 57.0029 65.7687 56.8332C66.1256 56.254 66.5763 55.6856 67.1819 55.1305C66.4916 54.5216 65.735 53.7041 65.0621 52.7001Z" fill="#FFC21A"/>
<path d="M52.0156 45.8001C54.7841 44.5581 55.5201 41.6595 55.5418 40.3662C56.1629 42.8503 57.8709 44.5068 58.6472 45.0238C56.784 46.2659 56.3182 48.6459 56.3182 49.6815C55.6971 47.8184 53.191 46.3171 52.0156 45.8001Z" fill="#FFE8A3"/>
<path d="M55.214 50.0499C55.0109 49.4405 54.4425 48.7739 53.6537 48.1501C52.8892 47.5458 52.0556 47.0894 51.5476 46.866C51.1263 46.6807 50.8534 46.2647 50.8516 45.8046C50.8499 45.3444 51.12 44.9257 51.54 44.7373C53.7274 43.7555 54.3607 41.4078 54.3785 40.3465L55.5415 40.3662H55.5431L54.3785 40.3465C54.3884 39.7623 54.8291 39.2759 55.4096 39.2094C55.9902 39.1428 56.531 39.5173 56.6727 40.0842C57.2093 42.2295 58.7039 43.6627 59.2929 44.055L58.647 45.0238L59.2944 45.9926C58.6154 46.4453 58.1566 47.1288 57.8661 47.8606C57.5734 48.5979 57.4839 49.3051 57.4839 49.6815C57.4839 50.2523 57.0693 50.7389 56.5059 50.8307C55.9422 50.9222 55.3947 50.5915 55.214 50.0499ZM55.8023 43.7093C55.4345 44.4121 54.9332 45.1103 54.2572 45.7167C54.5362 45.9013 54.8199 46.1039 55.0973 46.3232C55.3134 46.494 55.5342 46.6811 55.7508 46.8841C56.0077 46.2673 56.373 45.6209 56.885 45.0375C56.5299 44.6725 56.1564 44.2276 55.8023 43.7093ZM59.2929 44.055C59.6171 44.2709 59.8129 44.6344 59.813 45.0238C59.813 45.4129 59.6181 45.7766 59.2944 45.9926L58.6485 45.0238L59.2929 44.055Z" fill="#FFC21A"/>
</svg>
