<svg width="75" height="86" viewBox="0 0 75 86" fill="none" xmlns="http://www.w3.org/2000/svg">
<path d="M43.551 31.6674L43.5277 31.669C40.4318 31.7544 36.1108 33.5958 30.7201 36.7492C26.0575 39.4772 20.732 43.1025 14.9019 47.1798L43.7668 50.9325C45.2915 47.9421 47.136 42.9535 47.622 38.7055C47.886 36.3967 47.7198 34.5445 47.1096 33.352C46.8208 32.79 46.4327 32.3708 45.9079 32.0882C45.3691 31.7979 44.6115 31.6146 43.551 31.6674Z" fill="#FF99E0"/>
<path fill-rule="evenodd" clip-rule="evenodd" d="M59.1008 42.1602C60.3491 37.1561 65.6777 35.2945 69.3901 38.5659C71.82 40.7054 72.5388 44.0979 71.7377 46.9361C71.5203 47.7093 71.7734 48.5679 72.3618 49.116C73.6754 50.3426 74.5262 52.0908 74.5262 54.1201C74.5262 59.7453 68.1294 62.981 63.5988 59.6459L60.9919 57.7284C49.5847 71.1571 27.0995 85.2892 14.281 85.2892C0.675267 85.2892 -0.206636 63.2465 1.40034 48.2248C1.66584 45.7375 3.93734 44.0032 6.4231 44.2826L57.1522 49.9637L59.1008 42.1602Z" fill="#FFBDF2"/>
<path fill-rule="evenodd" clip-rule="evenodd" d="M43.939 30.4939C44.9546 30.4983 45.7895 30.7009 46.4605 31.0625L46.459 31.064C47.1221 31.4211 47.6229 31.9278 47.9935 32.5469L48.1451 32.8198L48.1466 32.8213L48.2831 33.1109C48.9304 34.5923 49.0339 36.6075 48.7789 38.8378L48.6682 39.6747C48.2102 42.7345 47.1514 46.0356 46.0466 48.7191L57.1516 49.964L59.1015 42.1599C60.35 37.1561 65.6785 35.2952 69.3907 38.5664C71.8199 40.7059 72.5388 44.0981 71.7378 46.936C71.5205 47.7092 71.7742 48.5683 72.3625 49.1164C73.6756 50.3429 74.5261 52.0911 74.5262 54.12L74.508 54.64C74.1408 59.7697 68.3784 62.6843 64.0292 59.9393L63.5986 59.6452L60.9922 57.7286C49.5851 71.1572 27.0999 85.2891 14.2813 85.2894L13.6521 85.2727C0.648373 84.6012 -0.180944 63.0117 1.40087 48.2248C1.66647 45.7378 3.93714 44.0034 6.42267 44.2826L15.558 45.3045C20.8774 41.6003 25.7827 38.2894 30.1321 35.7446L31.1313 35.167C36.0736 32.3563 40.2728 30.599 43.4826 30.506L43.4933 30.5045L43.939 30.4939ZM67.8517 40.3131C66.6176 39.2265 65.2371 39.0576 64.0899 39.4579C62.9255 39.8647 61.8063 40.9338 61.3591 42.7239L59.4108 50.5265C59.1282 51.6599 58.0521 52.4066 56.8923 52.2777L6.16339 46.5964C4.89359 46.4553 3.83741 47.3341 3.71466 48.472C2.92289 55.8808 2.77136 64.8454 4.40455 71.8615C5.22118 75.3718 6.44072 78.1912 8.07082 80.0947C9.63276 81.9175 11.6077 82.9604 14.2813 82.9604C20.0291 82.9603 28.3958 79.712 36.9628 74.5498C45.4448 69.4401 53.7095 62.7037 59.2167 56.22L59.3729 56.0547C60.1264 55.3237 61.2816 55.1897 62.1825 55.7272L62.372 55.853L64.9784 57.7696C67.9703 59.9727 72.1972 57.8354 72.1972 54.12C72.1972 52.7709 71.6382 51.628 70.772 50.8191C69.5703 49.6966 69.0326 47.9448 69.4968 46.3037L69.5938 45.908C70.0105 43.9131 69.4174 41.6944 67.8517 40.3131ZM43.6085 32.8304L43.607 32.8289L43.6055 32.8304C43.5905 32.8314 43.575 32.833 43.56 32.8335L43.0247 32.8668C40.46 33.1096 36.8836 34.5781 32.3049 37.179L31.3072 37.7537C27.6346 39.9025 23.5401 42.6261 19.0833 45.7003L43.6252 48.4477C44.8591 45.5864 46.0923 41.8314 46.4651 38.5724C46.7208 36.3346 46.5237 34.7647 46.0724 33.8827C45.926 33.5987 45.7595 33.395 45.5629 33.2459L45.3552 33.114L45.2278 33.0518C44.905 32.9097 44.3962 32.7912 43.6085 32.8304Z" fill="#1A1A1A"/>
<path d="M52.5673 57.3434C52.5673 60.8818 38.0284 74.6381 31.807 74.6381C25.5872 74.6381 22.5627 70.0811 26.4971 64.0026C19.3441 57.3433 26.4055 51.875 32.6253 51.875C38.8451 51.875 52.5673 53.8034 52.5673 57.3434Z" fill="#FF99E0"/>
<path d="M36.6019 62.7971C36.6017 60.1265 35.8558 58.7923 35.1523 58.1376C34.7549 57.7877 34.3189 57.7077 33.7923 57.8905C33.2155 58.0908 32.5756 58.5468 32.0243 59.1232L30.3413 60.8851C29.8972 61.3496 29.1612 61.3666 28.6962 60.923C28.2311 60.4788 28.2141 59.7414 28.6583 59.2763L30.6173 57.237C31.2854 56.598 32.119 56.0062 33.0281 55.6904C34.1027 55.3173 35.3845 55.3114 36.4866 56.212L36.4851 56.2135C37.9269 57.3912 38.9307 59.4861 38.9308 62.7971C38.9308 64.8649 38.5515 66.8619 37.6162 68.7074C36.7521 70.2749 35.2593 70.8131 33.7968 70.6709C32.4052 70.5355 31.0167 69.8017 29.9607 68.8271L29.0388 67.9735C28.5666 67.537 28.5372 66.8007 28.9736 66.3284C29.41 65.8563 30.1465 65.8271 30.6188 66.2632L31.5422 67.1153C32.3198 67.833 33.2513 68.2791 34.0227 68.3541C34.9448 68.4437 35.4065 67.918 35.7831 67.176C36.2485 66.1695 36.6019 64.7524 36.6019 62.7971Z" fill="#1A1A1A"/>
<path d="M19.973 64.8789C21.1086 64.879 22.029 65.9211 22.029 67.1851C22.0289 67.5045 21.9706 67.739 21.8638 67.922C21.7612 68.0897 21.6131 68.2022 21.4225 68.2802C21.2155 68.3528 20.9839 68.3944 20.769 68.4082H19.1755C18.9603 68.3943 18.7291 68.353 18.522 68.2802C18.3316 68.2021 18.1831 68.0897 18.0807 67.922C17.9742 67.7391 17.9171 67.5042 17.917 67.1851C17.917 65.921 18.8373 64.8789 19.973 64.8789Z" fill="#1A1A1A"/>
<path d="M7.55237 64.8789C6.41683 64.879 5.49635 65.9211 5.49635 67.1851C5.49645 67.5045 5.55482 67.739 5.66162 67.922C5.76417 68.0897 5.91232 68.2022 6.10285 68.2802C6.30987 68.3528 6.54146 68.3944 6.75635 68.4082H8.34992C8.56511 68.3943 8.79632 68.353 9.00342 68.2802C9.19377 68.2021 9.34228 68.0897 9.44464 67.922C9.55122 67.7391 9.6083 67.5042 9.6084 67.1851C9.6084 65.921 8.68813 64.8789 7.55237 64.8789Z" fill="#1A1A1A"/>
<path fill-rule="evenodd" clip-rule="evenodd" d="M9.91577 69.3843C10.4117 68.9748 11.1457 69.0449 11.5551 69.5408C12.7422 70.9785 14.9286 71.0314 16.1834 69.6527L16.3232 69.4989C16.7558 69.0231 17.4922 68.988 17.9681 69.4206C18.444 69.8532 18.4791 70.5897 18.0464 71.0656L17.9067 71.2193C15.6976 73.6473 11.8488 73.5544 9.75923 71.0237C9.34976 70.5277 9.41985 69.7938 9.91577 69.3843Z" fill="#1A1A1A"/>
</svg>
