<svg width="75" height="86" viewBox="0 0 75 86" fill="none" xmlns="http://www.w3.org/2000/svg">
<ellipse cx="23.0603" cy="10.1492" rx="8.57496" ry="8.57406" fill="url(#paint0_radial_9800_58219)"/>
<path d="M22.9023 18.1014V14.7492C22.9023 14.1061 23.4237 13.5848 24.0669 13.5848C24.71 13.5848 25.2314 14.1061 25.2314 14.7492V18.1014C25.2313 18.7444 24.7099 19.2658 24.0669 19.2658C23.4238 19.2658 22.9025 18.7444 22.9023 18.1014Z" fill="#E8CD7D"/>
<path d="M17.4155 35.8994C16.6391 35.1231 15.8627 18.8214 16.6008 18.6724C17.3389 18.5233 29.8371 17.4179 30.6135 18.0451C31.3898 18.6724 31.3898 35.4693 30.6135 36.6757C29.8371 37.882 22.4959 37.6693 17.4155 35.8994Z" fill="#FFF1C2"/>
<path d="M28.1839 16.6927C28.8417 16.6837 29.4345 16.6916 29.9004 16.7245C30.131 16.7409 30.3589 16.7655 30.56 16.8049C30.6777 16.828 30.9658 16.8845 31.2332 17.0581L31.3454 17.14L31.5016 17.2901C31.6366 17.4426 31.7099 17.5949 31.7442 17.6706C31.8026 17.7997 31.8446 17.9306 31.8746 18.0421C31.9353 18.2676 31.9826 18.5351 32.0217 18.8153C32.1009 19.383 32.1636 20.1314 32.2127 20.9834C32.3115 22.6951 32.3598 24.9162 32.3598 27.1436C32.3598 29.3714 32.3113 31.6263 32.2127 33.4083C32.1636 34.2971 32.1009 35.0857 32.0232 35.7008C31.9846 36.0065 31.9404 36.2891 31.8867 36.5286C31.8431 36.7233 31.7628 37.0418 31.5926 37.3064C31.2871 37.7808 30.7915 38.0209 30.4387 38.1524C30.0444 38.2993 29.5818 38.3974 29.0982 38.4647C28.1252 38.6001 26.8985 38.6301 25.5728 38.5663C22.9219 38.4387 19.7019 37.9283 17.0329 36.9986L16.7797 36.9107L16.5917 36.7227C16.4195 36.5505 16.3255 36.3607 16.2808 36.2618C16.2274 36.1434 16.1861 36.0214 16.1534 35.9115C16.0879 35.6908 16.031 35.4276 15.9806 35.1489C15.8789 34.5865 15.7849 33.8525 15.6985 33.0217C15.5252 31.3534 15.3771 29.2148 15.277 27.1057C15.177 24.9974 15.1243 22.8961 15.1436 21.3033C15.1531 20.5124 15.1796 19.8184 15.233 19.3035C15.2589 19.0538 15.2964 18.7966 15.3559 18.5773C15.3841 18.4732 15.4329 18.3139 15.5242 18.1543C15.5894 18.0402 15.8366 17.6389 16.3703 17.5311L16.7008 17.4826C17.1546 17.4259 17.9546 17.3461 18.8889 17.2628C20.1844 17.1473 21.8494 17.0139 23.5167 16.905C25.1803 16.7962 26.8617 16.7109 28.1839 16.6927ZM28.2157 19.0215C26.9532 19.0389 25.3182 19.1214 23.6683 19.2292C22.0218 19.3369 20.3748 19.4684 19.0951 19.5825C18.4723 19.638 17.9389 19.6892 17.5363 19.7311C17.5039 20.1296 17.4791 20.672 17.4711 21.3321C17.4526 22.8619 17.5042 24.9126 17.603 26.995C17.7018 29.077 17.848 31.1694 18.0155 32.7807C18.0995 33.5891 18.1868 34.2568 18.2733 34.735C18.2893 34.8235 18.3042 34.9024 18.3187 34.9715C20.6307 35.705 23.377 36.1294 25.685 36.2405C26.9257 36.3002 27.9965 36.2672 28.7768 36.1587C29.1684 36.1041 29.4472 36.0359 29.6229 35.9707C29.6511 35.8345 29.6821 35.6479 29.7123 35.4082C29.7802 34.8714 29.8389 34.1447 29.8867 33.2795C29.9822 31.5534 30.0308 29.344 30.0308 27.1436C30.0308 24.9426 29.982 22.7702 29.8867 21.1184C29.8389 20.2889 29.7817 19.6123 29.7154 19.1368C29.7109 19.1049 29.7046 19.0748 29.7002 19.0458C29.3339 19.0217 28.8297 19.0131 28.2157 19.0215Z" fill="#E8CD7D"/>
<path d="M18.9659 26.2129C18.9659 25.907 18.96 25.607 18.9507 25.3138C18.9225 25.3791 18.8938 25.4446 18.8612 25.5063C18.7921 25.6373 18.6626 25.8557 18.4442 26.037C18.1905 26.2473 17.7536 26.4463 17.2342 26.2978C16.9428 26.2145 16.7392 26.0519 16.6353 25.9581C16.5183 25.8526 16.4227 25.7388 16.3517 25.6488C16.2154 25.4759 16.0737 25.2598 15.9817 25.1243C15.9053 25.0116 15.8469 24.9363 15.8059 24.8832C15.4128 24.6962 15.1387 24.2997 15.1387 23.8355C15.1391 23.1928 15.6603 22.6711 16.3032 22.6711C16.6591 22.6711 16.9321 22.8099 17.0932 22.9152C17.1322 22.9407 17.1661 22.9717 17.2009 22.9986C17.229 22.9095 17.2774 22.7694 17.3525 22.6378C17.4686 22.4344 17.6537 22.1528 17.9105 21.907C18.1568 21.6713 18.5994 21.3475 19.2115 21.3475L19.4996 21.3687C19.7843 21.4128 20.0538 21.5248 20.2896 21.7068C20.5856 21.9353 20.7575 22.2211 20.8597 22.4513C21.0432 22.8645 21.1043 23.3603 21.1342 23.5474C21.2794 24.4557 21.2949 25.3873 21.2949 26.2129C21.2949 26.9536 21.3024 27.6395 21.4253 28.1278L21.486 28.3249L21.7468 29.1087C21.8294 29.3624 21.9072 29.5854 21.9955 29.7834C22.0001 29.7939 22.006 29.8036 22.0106 29.8137C21.9993 29.5019 21.9709 29.1602 21.9348 28.8131C21.8905 28.3871 21.8241 27.8547 21.8241 27.5077C21.8241 26.6698 21.8101 25.1287 21.8241 24.2555C21.8438 23.0399 22.7569 22.051 24.041 22.051L24.1835 22.0586C24.5078 22.0908 24.7727 22.2238 24.9083 22.2981C25.1033 22.4052 25.2866 22.5379 25.442 22.665C25.5994 22.7937 25.7547 22.9383 25.8863 23.085C25.9884 23.1988 26.1796 23.4246 26.2851 23.7082L24.7749 24.2691L25.1934 24.1145L26.2851 23.7082L26.2866 23.7112C26.3324 23.835 26.3865 23.9585 26.4458 24.0978C26.5391 23.8212 26.6812 23.4511 26.8628 23.1002C26.9919 22.8509 27.1713 22.5513 27.4042 22.2981C27.6104 22.074 28.043 21.6858 28.6824 21.6856L28.8856 21.7008C29.3367 21.7706 29.6308 22.0576 29.7287 22.1556C29.8927 22.3201 30.0308 22.5128 30.1381 22.6772C30.3569 23.0125 30.5812 23.4374 30.7734 23.8082C30.9794 24.2055 31.1536 24.5502 31.3087 24.815C31.3678 24.916 31.413 24.9831 31.4421 25.0242C31.8358 25.3155 32.0202 25.832 31.8576 26.322C31.6548 26.9323 30.9956 27.2631 30.3852 27.0604C30.1444 26.9803 29.9744 26.8457 29.8818 26.7632C29.7805 26.6728 29.6986 26.5771 29.6362 26.4979C29.5116 26.34 29.3968 26.1589 29.2996 25.993C29.105 25.661 28.8913 25.2391 28.7052 24.8802C28.6923 24.8554 28.6783 24.8315 28.6657 24.8074C28.6351 24.8959 28.6108 24.9673 28.599 25.0105C28.5767 25.0921 28.3817 25.9208 28.1032 26.5646C28.0299 26.734 27.9386 26.9204 27.8272 27.0953C27.7244 27.2565 27.5574 27.4849 27.3056 27.6623C27.024 27.8606 26.5773 28.0272 26.0652 27.87C25.6182 27.7327 25.3466 27.4124 25.1979 27.1893C24.9976 26.8889 24.8755 26.5818 24.7915 26.3387C24.7495 26.2168 24.7118 26.0949 24.6809 25.996C24.648 25.8909 24.6218 25.8068 24.5944 25.7292L24.3761 25.1879C24.3072 25.0275 24.2293 24.8389 24.1532 24.6436C24.1468 25.5086 24.1532 26.737 24.1532 27.5077C24.1532 27.6952 24.1936 28.0282 24.2502 28.572C24.3008 29.058 24.3568 29.6613 24.3442 30.2201C24.3379 30.5011 24.3138 30.8037 24.2517 31.0949C24.1918 31.3762 24.0806 31.7239 23.8499 32.0334C23.5964 32.3731 23.2144 32.6425 22.7187 32.7157C22.2642 32.7827 21.8386 32.6666 21.489 32.5095V32.5079L21.1751 32.3427C20.489 31.9192 20.1045 31.2617 19.8681 30.731C19.7286 30.418 19.6197 30.1013 19.5314 29.8304C19.4362 29.5381 19.3723 29.3281 19.2994 29.1299L19.1842 28.7554C18.9499 27.8588 18.9659 26.8227 18.9659 26.2129Z" fill="#E8CD7D"/>
<path d="M21.2991 6.9864L22.2998 6.39022C22.055 5.9788 21.5829 5.75991 21.1103 5.83754C20.6377 5.91516 20.2608 6.27377 20.1605 6.74263L21.2991 6.9864ZM21.2991 12.1781L22.336 11.6472L22.1882 11.3584L21.9121 11.1876L21.2991 12.1781ZM23.5126 7.63849C23.1226 7.50342 22.7299 7.11371 22.2998 6.39022L20.2985 7.58259C20.7926 8.41164 21.5466 9.42237 22.7507 9.84L23.5126 7.63849ZM20.1605 6.74263C20.0787 7.12456 19.9007 8.37594 19.8288 9.58382C19.7927 10.1878 19.7796 10.8351 19.8304 11.3801C19.8554 11.6502 19.9001 11.9452 19.9882 12.2169C20.0616 12.442 20.238 12.8907 20.6863 13.1671L21.9121 11.1876C22.188 11.3584 22.231 11.5819 22.2036 11.4981C22.1907 11.4577 22.1669 11.3537 22.1494 11.1658C22.1149 10.7932 22.1202 10.284 22.1537 9.72198C22.2209 8.59483 22.3877 7.46461 22.4379 7.23017L20.1605 6.74263ZM20.2624 12.7075C20.6881 13.5397 21.5573 14.0101 22.2596 14.2399C22.9864 14.4774 23.8841 14.5752 24.6514 14.347L23.9898 12.1145C23.8139 12.1673 23.4215 12.1688 22.9836 12.026C22.7809 11.9592 22.6127 11.8754 22.4924 11.7915C22.3677 11.7046 22.3355 11.6456 22.336 11.6472L20.2624 12.7075ZM24.6514 14.347C25.477 14.1033 26.101 13.5335 26.5063 12.9109C26.9111 12.2899 27.1522 11.5353 27.1522 10.7917H24.8231C24.8231 11.051 24.7325 11.3677 24.5545 11.6409C24.3772 11.9126 24.1677 12.0617 23.9898 12.1145L24.6514 14.347ZM27.1522 10.7917C27.1522 10.1644 26.952 9.61951 26.6022 9.18014C26.2706 8.76251 25.847 8.49083 25.4688 8.30608C25.0894 8.12132 24.6912 7.99248 24.3596 7.89311C23.989 7.78133 23.7485 7.72078 23.5126 7.63849L22.7507 9.84C23.0454 9.94092 23.4273 10.0449 23.6915 10.1241C23.9951 10.2141 24.2444 10.3011 24.4464 10.3989C24.6495 10.4983 24.741 10.5806 24.779 10.6287C24.7989 10.6535 24.8231 10.6861 24.8231 10.7917H27.1522Z" fill="#F79722"/>
<defs>
<radialGradient id="paint0_radial_9800_58219" cx="0" cy="0" r="1" gradientTransform="matrix(2.87661 7.7451 -7.74591 2.87631 23.0603 10.1492)" gradientUnits="userSpaceOnUse">
<stop stop-color="#FFD755" stop-opacity="0.8"/>
<stop offset="0.865385" stop-color="#FFD755" stop-opacity="0"/>
</radialGradient>
</defs>
</svg>
