<svg width="75" height="86" viewBox="0 0 75 86" fill="none" xmlns="http://www.w3.org/2000/svg">
<ellipse cx="23.0603" cy="34.9899" rx="8.57496" ry="8.57406" fill="url(#paint0_radial_9800_57749)"/>
<path d="M22.126 42.1659V38.8136C22.126 38.1706 22.6474 37.6492 23.2905 37.6492C23.9337 37.6492 24.455 38.1706 24.455 38.8136V42.1659C24.4549 42.8088 23.9336 43.3303 23.2905 43.3303C22.6474 43.3303 22.1261 42.8088 22.126 42.1659Z" fill="#E8CD7D"/>
<path d="M16.6391 59.9639C15.8627 59.1876 15.0864 42.8859 15.8244 42.7368C16.5625 42.5878 29.0608 41.4824 29.8371 42.1096C30.6135 42.7368 30.6135 59.5338 29.8371 60.7401C29.0608 61.9465 21.7196 61.7338 16.6391 59.9639Z" fill="#FFF1C2"/>
<path d="M27.4075 40.7572C28.0653 40.7481 28.6581 40.7561 29.124 40.789C29.3547 40.8053 29.5826 40.83 29.7836 40.8694C29.9013 40.8924 30.1894 40.949 30.4568 41.1226L30.569 41.2044L30.7252 41.3545C30.8603 41.5071 30.9335 41.6593 30.9678 41.7351C31.0263 41.8642 31.0682 41.995 31.0982 42.1065C31.1589 42.3321 31.2062 42.5996 31.2453 42.8798C31.3245 43.4474 31.3872 44.1958 31.4364 45.0479C31.5352 46.7596 31.5835 48.9806 31.5835 51.208C31.5835 53.4358 31.535 55.6908 31.4364 57.4728C31.3872 58.3615 31.3246 59.1502 31.2468 59.7652C31.2082 60.0709 31.164 60.3535 31.1104 60.5931C31.0667 60.7877 30.9865 61.1063 30.8162 61.3708C30.5107 61.8452 30.0152 62.0853 29.6623 62.2169C29.268 62.3638 28.8055 62.4619 28.3219 62.5292C27.3489 62.6646 26.1222 62.6946 24.7964 62.6308C22.1455 62.5031 18.9255 61.9928 16.2565 61.0631L16.0033 60.9751L15.8153 60.7871C15.6432 60.615 15.5491 60.4251 15.5044 60.3262C15.451 60.2079 15.4097 60.0859 15.3771 59.976C15.3115 59.7552 15.2546 59.4921 15.2042 59.2133C15.1026 58.651 15.0085 57.9169 14.9222 57.0862C14.7488 55.4178 14.6007 53.2792 14.5006 51.1701C14.4006 49.0618 14.348 46.9606 14.3672 45.3678C14.3768 44.5768 14.4033 43.8829 14.4567 43.368C14.4826 43.1182 14.52 42.8611 14.5795 42.6417C14.6077 42.5377 14.6565 42.3784 14.7478 42.2187C14.813 42.1047 15.0603 41.7034 15.5939 41.5956L15.9245 41.5471C16.3782 41.4903 17.1782 41.4105 18.1125 41.3272C19.408 41.2117 21.073 41.0784 22.7403 40.9694C24.404 40.8607 26.0853 40.7753 27.4075 40.7572ZM27.4394 43.086C26.1769 43.1033 24.5419 43.1859 22.8919 43.2937C21.2454 43.4013 19.5984 43.5329 18.3187 43.647C17.6959 43.7025 17.1625 43.7537 16.76 43.7955C16.7275 44.194 16.7027 44.7365 16.6948 45.3966C16.6763 46.9264 16.7279 48.977 16.8267 51.0595C16.9255 53.1414 17.0717 55.2339 17.2391 56.8451C17.3231 57.6536 17.4104 58.3213 17.4969 58.7994C17.5129 58.8879 17.5278 58.9668 17.5424 59.036C19.8543 59.7694 22.6006 60.1938 24.9086 60.305C26.1494 60.3647 27.2202 60.3316 28.0004 60.2231C28.392 60.1686 28.6708 60.1003 28.8465 60.0351C28.8747 59.8989 28.9057 59.7123 28.936 59.4726C29.0038 58.9358 29.0625 58.2091 29.1104 57.3439C29.2058 55.6179 29.2544 53.4084 29.2544 51.208C29.2544 49.0071 29.2057 46.8346 29.1104 45.1828C29.0625 44.3533 29.0054 43.6768 28.939 43.2012C28.9346 43.1694 28.9282 43.1392 28.9238 43.1102C28.5575 43.0861 28.0534 43.0775 27.4394 43.086Z" fill="#E8CD7D"/>
<path d="M18.1895 50.2773C18.1895 49.9715 18.1837 49.6715 18.1743 49.3782C18.1462 49.4436 18.1175 49.5091 18.0849 49.5708C18.0157 49.7017 17.8863 49.9201 17.6679 50.1014C17.4142 50.3117 16.9772 50.5108 16.4579 50.3622C16.1664 50.2789 15.9628 50.1163 15.8589 50.0226C15.7419 49.9171 15.6463 49.8032 15.5754 49.7133C15.439 49.5404 15.2974 49.3242 15.2054 49.1887C15.1289 49.076 15.0705 49.0007 15.0295 48.9476C14.6364 48.7606 14.3623 48.3642 14.3623 47.9C14.3627 47.2572 14.8839 46.7356 15.5268 46.7356C15.8828 46.7356 16.1558 46.8743 16.3168 46.9797C16.3558 47.0052 16.3897 47.0362 16.4245 47.0631C16.4527 46.9739 16.501 46.8339 16.5761 46.7022C16.6922 46.4989 16.8773 46.2172 17.1341 45.9714C17.3804 45.7357 17.823 45.412 18.4351 45.412L18.7232 45.4332C19.0079 45.4772 19.2774 45.5893 19.5132 45.7713C19.8092 45.9997 19.9811 46.2856 20.0834 46.5157C20.2668 46.9289 20.3279 47.4247 20.3578 47.6119C20.503 48.5202 20.5185 49.4517 20.5186 50.2773C20.5186 51.0181 20.5261 51.704 20.649 52.1922L20.7096 52.3893L20.9704 53.1732C21.0531 53.4269 21.1309 53.6499 21.2191 53.8479C21.2238 53.8583 21.2296 53.8681 21.2343 53.8782C21.223 53.5664 21.1945 53.2246 21.1584 52.8775C21.1141 52.4515 21.0477 51.9192 21.0477 51.5721C21.0477 50.7343 21.0337 49.1931 21.0477 48.3199C21.0674 47.1044 21.9805 46.1155 23.2646 46.1155L23.4071 46.123C23.7315 46.1552 23.9964 46.2882 24.1319 46.3626C24.3269 46.4696 24.5103 46.6024 24.6657 46.7295C24.823 46.8582 24.9783 47.0028 25.11 47.1495C25.212 47.2632 25.4032 47.489 25.5087 47.7726L23.9985 48.3336L24.417 48.1789L25.5087 47.7726L25.5103 47.7756C25.556 47.8995 25.6101 48.023 25.6695 48.1623C25.7628 47.8857 25.9049 47.5156 26.0865 47.1646C26.2155 46.9154 26.395 46.6157 26.6278 46.3626C26.834 46.1385 27.2666 45.7502 27.906 45.7501L28.1092 45.7652C28.5604 45.835 28.8545 46.122 28.9523 46.2201C29.1163 46.3845 29.2544 46.5772 29.3617 46.7416C29.5805 47.0769 29.8048 47.5019 29.997 47.8727C30.203 48.27 30.3773 48.6147 30.5323 48.8794C30.5915 48.9804 30.6367 49.0476 30.6657 49.0886C31.0594 49.38 31.2438 49.8965 31.0812 50.3865C30.8784 50.9968 30.2192 51.3276 29.6089 51.1248C29.368 51.0448 29.198 50.9102 29.1055 50.8277C29.0041 50.7372 28.9223 50.6415 28.8598 50.5623C28.7353 50.4045 28.6204 50.2234 28.5232 50.0575C28.3287 49.7255 28.1149 49.3035 27.9288 48.9446C27.916 48.9199 27.9019 48.896 27.8894 48.8718C27.8587 48.9604 27.8344 49.0318 27.8226 49.075C27.8003 49.1566 27.6053 49.9853 27.3268 50.6291C27.2535 50.7985 27.1623 50.9849 27.0508 51.1597C26.948 51.321 26.781 51.5494 26.5292 51.7268C26.2477 51.9251 25.8009 52.0916 25.2889 51.9345C24.8418 51.7972 24.5702 51.4769 24.4215 51.2537C24.2212 50.9534 24.0991 50.6463 24.0152 50.4031C23.9731 50.2812 23.9354 50.1594 23.9045 50.0605C23.8716 49.9553 23.8454 49.8712 23.8181 49.7937L23.5997 49.2524C23.5308 49.0919 23.453 48.9034 23.3768 48.7081C23.3704 49.573 23.3768 50.8014 23.3768 51.5721C23.3768 51.7597 23.4173 52.0926 23.4739 52.6364C23.5244 53.1225 23.5804 53.7257 23.5679 54.2845C23.5616 54.5656 23.5374 54.8681 23.4754 55.1593C23.4154 55.4407 23.3042 55.7884 23.0735 56.0978C22.8201 56.4376 22.4381 56.7069 21.9424 56.7801C21.4879 56.8472 21.0623 56.7311 20.7126 56.5739V56.5724L20.3988 56.4071C19.7126 55.9836 19.3281 55.3261 19.0917 54.7955C18.9523 54.4825 18.8433 54.1657 18.7551 53.8949C18.6599 53.6025 18.596 53.3926 18.5231 53.1944L18.4078 52.8199C18.1736 51.9232 18.1895 50.8871 18.1895 50.2773Z" fill="#E8CD7D"/>
<path d="M20.5227 31.0509L21.5235 30.4547C21.2786 30.0433 20.8066 29.8244 20.3339 29.902C19.8613 29.9796 19.4844 30.3382 19.3841 30.8071L20.5227 31.0509ZM20.5227 36.2426L21.5596 35.7116L21.4118 35.4228L21.1357 35.252L20.5227 36.2426ZM22.7363 31.7029C22.3462 31.5679 21.9536 31.1782 21.5235 30.4547L19.5222 31.647C20.0162 32.4761 20.7702 33.4868 21.9744 33.9045L22.7363 31.7029ZM19.3841 30.8071C19.3023 31.189 19.1244 32.4404 19.0525 33.6483C19.0163 34.2522 19.0033 34.8996 19.054 35.4445C19.079 35.7147 19.1237 36.0097 19.2118 36.2814C19.2852 36.5065 19.4616 36.9552 19.9099 37.2315L21.1357 35.252C21.4117 35.4228 21.4547 35.6464 21.4272 35.5626C21.4143 35.5222 21.3905 35.4181 21.373 35.2303C21.3385 34.8577 21.3438 34.3485 21.3773 33.7864C21.4446 32.6593 21.6113 31.5291 21.6615 31.2946L19.3841 30.8071ZM19.486 36.772C19.9117 37.6041 20.781 38.0746 21.4832 38.3043C22.2101 38.5419 23.1077 38.6397 23.875 38.4115L23.2134 36.1789C23.0375 36.2317 22.6451 36.2333 22.2073 36.0904C22.0045 36.0237 21.8363 35.9398 21.716 35.856C21.5913 35.769 21.5592 35.7101 21.5596 35.7116L19.486 36.772ZM23.875 38.4115C24.7006 38.1677 25.3246 37.598 25.7299 36.9754C26.1347 36.3544 26.3758 35.5998 26.3758 34.8561H24.0468C24.0468 35.1154 23.9561 35.4321 23.7782 35.7054C23.6008 35.9771 23.3914 36.1261 23.2134 36.1789L23.875 38.4115ZM26.3758 34.8561C26.3758 34.2289 26.1757 33.684 25.8259 33.2446C25.4942 32.827 25.0706 32.5553 24.6924 32.3705C24.3131 32.1858 23.9148 32.0569 23.5833 31.9576C23.2126 31.8458 22.9721 31.7852 22.7363 31.7029L21.9744 33.9045C22.2691 34.0054 22.6509 34.1094 22.9152 34.1885C23.2187 34.2786 23.4681 34.3655 23.6701 34.4633C23.8732 34.5627 23.9646 34.645 24.0027 34.6931C24.0225 34.718 24.0468 34.7506 24.0468 34.8561H26.3758Z" fill="#F79722"/>
<defs>
<radialGradient id="paint0_radial_9800_57749" cx="0" cy="0" r="1" gradientTransform="matrix(2.87661 7.7451 -7.74591 2.87631 23.0603 34.9899)" gradientUnits="userSpaceOnUse">
<stop stop-color="#FFD755" stop-opacity="0.8"/>
<stop offset="0.865385" stop-color="#FFD755" stop-opacity="0"/>
</radialGradient>
</defs>
</svg>
