<svg width="75" height="86" viewBox="0 0 75 86" fill="none" xmlns="http://www.w3.org/2000/svg">
<path fill-rule="evenodd" clip-rule="evenodd" d="M46.5745 33.9157C46.8974 29.4193 43.6679 24.7676 40.4183 24.7676C37.24 24.7676 32.9128 29.573 30.1228 33.363H21.8659C13.3792 33.363 1.03418 38.0721 1.03418 47.5121C1.03418 61.0992 9.16535 71.9148 21.8659 71.9148H30.3246C33.1178 77.9778 37.3146 85.3948 40.4183 85.3948C43.6369 85.3948 47.18 79.2029 46.7732 71.4444C54.8065 70.1588 60.5528 65.7587 60.5528 52.6389C60.5528 40.28 54.7134 35.4109 46.5745 33.9157Z" fill="#7DA0C7"/>
<path opacity="0.7" d="M47.4686 47.9981C48.4344 58.646 43.8976 67.76 26.7115 69.3204C14.2812 70.4492 3.42203 62.7326 2.45474 52.0862C1.489 41.4382 9.48661 51.4465 21.917 50.3193C34.3473 49.1905 46.5014 37.3517 47.4686 47.9981Z" fill="#AFD8FF"/>
<path d="M40.4571 53.8374C41.1651 61.6348 37.5102 68.3406 23.8533 69.5796C13.9739 70.477 5.3925 64.8829 4.6845 57.0856C3.9765 49.2867 10.2724 56.5779 20.1518 55.6804C30.0297 54.783 39.7491 46.0401 40.4571 53.8374Z" fill="#D3EDFF"/>
<path fill-rule="evenodd" clip-rule="evenodd" d="M46.7762 71.515C47.1581 79.2407 43.6262 85.3944 40.4186 85.3947L40.1259 85.3735C37.0678 84.937 33.0629 77.8485 30.3583 71.9866H21.8658L21.2745 71.979C9.10956 71.6539 1.28542 61.2965 1.04024 48.2195L1.03418 47.5857C1.03418 38.4408 12.6195 33.7336 21.0592 33.4483L21.8658 33.4346H29.8094L30.3477 32.6083C33.1396 28.408 37.3239 23.2895 40.4186 23.2895L40.7309 23.3061C43.9597 23.6344 47.0539 28.9659 46.5396 33.982C54.6956 35.4694 60.5527 40.3361 60.5527 52.7106L60.5361 53.9145C60.1917 66.1018 54.5585 70.2681 46.7762 71.515ZM37.1981 79.6421C35.5244 77.2031 33.8459 73.9848 32.4735 71.0117L31.8488 69.6577H21.8658C10.8579 69.6576 3.36339 60.3325 3.36313 47.5857C3.36313 44.0395 5.65076 41.1373 9.419 38.9947C13.1794 36.8568 17.9828 35.7636 21.8658 35.7636H31.0831L31.7699 34.6916C33.1129 32.5956 34.8508 30.1922 36.6037 28.3446C37.4823 27.4179 38.3077 26.6925 39.0357 26.2128C39.7981 25.7113 40.2462 25.6184 40.4186 25.6184C40.8271 25.6186 41.8789 26.0834 42.9173 27.867C43.814 29.407 44.3635 31.4228 44.2547 33.3588L44.2243 33.7455L44.0045 35.8879L46.1227 36.273C49.8673 36.9562 52.7998 38.361 54.8229 40.7626C56.8459 43.1661 58.2238 46.8805 58.2238 52.7106C58.2237 58.9598 56.8535 62.7224 54.8956 65.0513C52.7517 67.6004 49.5867 68.6608 46.4077 69.2164L44.3487 69.5454L44.4502 71.6303C44.6226 75.1299 43.9016 78.202 42.8552 80.3214C42.3305 81.3845 41.7629 82.132 41.2631 82.5806C40.7943 83.0025 40.5094 83.0562 40.4337 83.0627L40.4294 83.0613C40.37 83.0409 40.0669 82.9368 39.4952 82.4214C38.8182 81.8112 38.038 80.8687 37.1981 79.6421Z" fill="#1A1A1A"/>
<path d="M34.7989 39.1728C35.9287 39.2213 37.2113 39.5343 38.3454 40.3707C39.4945 41.2183 40.398 42.5344 40.8623 44.4145L40.9912 45.0089C41.54 47.9309 40.6503 50.1276 39.3825 51.5878L39.2233 51.7607C37.5482 53.4935 35.0045 53.2474 33.2265 52.6507L30.3912 51.7031C29.7814 51.499 29.452 50.8391 29.6558 50.2293C29.8598 49.6196 30.5199 49.2903 31.1296 49.4939L33.9649 50.4431L34.2667 50.5371C35.649 50.9376 36.8121 50.8243 37.4872 50.202L37.6251 50.0595C38.4473 49.112 39.1185 47.6259 38.7002 45.4228L38.6016 44.9725C38.2508 43.5524 37.6223 42.7304 36.9641 42.2447C36.2907 41.7481 35.4892 41.5327 34.7003 41.4988H34.5366C33.7181 41.5312 32.8877 42.0686 32.0939 42.968L29.7756 45.5941C29.35 46.076 28.614 46.1211 28.132 45.6957C27.6499 45.2701 27.6034 44.5342 28.0289 44.0521L30.3472 41.426C31.345 40.2955 32.86 39.0896 34.7989 39.1728Z" fill="#1A1A1A"/>
<path d="M22.9412 47.686C23.3601 48.2349 24.0953 48.2988 24.5833 47.8275C25.071 47.3563 25.1263 46.5291 24.7076 45.9802C23.4324 44.3092 21.9582 43.8212 20.5971 44.1141C19.3454 44.3835 18.365 45.2738 17.8284 45.987C17.4129 46.5393 17.474 47.3652 17.9649 47.8327C18.4558 48.3001 19.19 48.2314 19.6054 47.6791C19.9137 47.2694 20.4579 46.8124 21.0337 46.6881C21.5005 46.5876 22.1584 46.6601 22.9412 47.686Z" fill="#1A1A1A"/>
<path d="M10.5203 47.686C10.9392 48.2349 11.6744 48.2988 12.1624 47.8275C12.6501 47.3563 12.7054 46.5291 12.2867 45.9802C11.0115 44.3092 9.53726 43.8212 8.17617 44.1141C6.92446 44.3835 5.94407 45.2738 5.40751 45.987C4.99204 46.5393 5.0531 47.3652 5.54397 47.8327C6.03486 48.3001 6.76906 48.2314 7.18454 47.6791C7.49278 47.2694 8.03701 46.8124 8.61284 46.6881C9.07956 46.5876 9.73748 46.6601 10.5203 47.686Z" fill="#1A1A1A"/>
<path fill-rule="evenodd" clip-rule="evenodd" d="M11.8464 48.3938C12.3259 47.9652 13.062 48.0064 13.4906 48.4858C14.3819 49.4828 15.9302 49.5203 16.8693 48.5673L16.9919 48.4432C17.4441 47.9859 18.1814 47.9817 18.6387 48.4338C19.096 48.886 19.1002 49.6233 18.6481 50.0806L18.5282 50.2019C18.5279 50.2022 18.5285 50.2016 18.5282 50.2019C16.6461 52.111 13.5417 52.0373 11.7544 50.038C11.3257 49.5586 11.3669 48.8224 11.8464 48.3938Z" fill="#1A1A1A"/>
</svg>
