<svg width="75" height="86" viewBox="0 0 75 86" fill="none" xmlns="http://www.w3.org/2000/svg">
<path d="M67.1107 82.7243C53.8279 79.293 18.7571 61.655 3.10498 48.4576C3.10498 48.4576 14.3849 44.4986 29.1566 40.8344C43.9283 37.1546 54.7378 34.158 54.7378 34.158C60.4126 43.2564 67.3311 66.7476 70.025 79.7121C70.4147 81.6063 68.9707 83.2056 67.1107 82.7243Z" fill="#BDE3FF"/>
<path d="M55.7263 33.5424C58.6476 38.2263 61.8326 46.4979 64.6085 55.1291C67.0466 62.7102 69.1993 70.6662 70.6082 76.9099L71.1647 79.4754L71.1662 79.4769C71.4322 80.7697 71.0814 82.0366 70.258 82.9082C69.42 83.7949 68.1572 84.1975 66.8191 83.8513L65.4864 83.4828C58.5159 81.4314 47.0768 76.3736 35.4557 70.2855C23.0479 63.7852 10.2785 56.0289 2.3546 49.3477L0.795898 48.0346L2.72001 47.3584H2.72153C2.72307 47.3578 2.72619 47.3563 2.72911 47.3553C2.73492 47.3533 2.74389 47.3501 2.75488 47.3462C2.77732 47.3384 2.81012 47.3264 2.85344 47.3114C2.9411 47.281 3.07144 47.2362 3.2416 47.1779C3.58187 47.0615 4.08322 46.8913 4.73055 46.6761C6.02548 46.2454 7.90516 45.6346 10.2466 44.9081C14.9285 43.4555 21.463 41.543 28.8752 39.7044C36.2536 37.8663 42.6426 36.1983 47.1868 34.9904C49.4585 34.3866 51.2697 33.8985 52.5119 33.5606C53.1327 33.3917 53.6121 33.2598 53.9356 33.1709C54.0972 33.1265 54.2202 33.092 54.3026 33.0693C54.3437 33.0579 54.3759 33.0508 54.3966 33.045C54.4067 33.0422 54.4142 33.0389 54.4193 33.0375C54.4218 33.0368 54.4241 33.0363 54.4254 33.0359H54.4269L55.2654 32.804L55.7263 33.5424ZM53.1244 35.8076C51.8783 36.1466 50.0625 36.6368 47.7857 37.242C43.2324 38.4523 36.8305 40.122 29.4377 41.9636V41.9651C22.0786 43.7905 15.5872 45.6895 10.9365 47.1324C8.61275 47.8534 6.74902 48.459 5.46744 48.8852C13.2645 55.0996 25.0003 62.1781 36.5368 68.2218C48.9096 74.7038 60.8978 79.9164 67.4014 81.5966H67.4029C67.9247 81.7316 68.3143 81.5747 68.5658 81.3085C68.8312 81.0274 69.0072 80.5485 68.8843 79.9485C67.5468 73.512 65.155 64.4384 62.3902 55.8417C59.7632 47.6734 56.834 40.0492 54.1934 35.5135C53.9054 35.5923 53.5481 35.6924 53.1244 35.8076Z" fill="#1A1A1A"/>
<path d="M51.7812 51.2424C55.3615 51.2424 58.2646 53.52 58.2646 56.3293C58.2646 59.1387 55.3616 61.4163 51.7812 61.4163C48.2011 61.4161 45.2988 59.1386 45.2988 56.3293C45.2989 53.5201 48.2011 51.2426 51.7812 51.2424ZM29.498 49.7053C32.927 49.7053 35.707 52.0182 35.707 54.8704C35.7067 57.7223 32.9268 60.0344 29.498 60.0344C26.0693 60.0344 23.2894 57.7223 23.2891 54.8704C23.2891 52.0182 26.0691 49.7054 29.498 49.7053ZM45.2979 36.4309C48.878 36.4309 51.78 38.7077 51.7803 41.5168C51.7803 44.3262 48.8782 46.6037 45.2979 46.6038C41.7175 46.6038 38.8154 44.3262 38.8154 41.5168C38.8157 38.7077 41.7177 36.4309 45.2979 36.4309Z" fill="#0768CF"/>
<path d="M31.0198 31.7358C25.1617 33.3971 9.98003 39.5922 3.10498 43.1322L8.09979 53.0691C15.8676 49.5601 30.1021 44.2191 32.5724 43.5204C34.9759 42.8372 48.5924 39.0488 55.6321 37.0925C55.9985 36.9993 56.3183 36.7663 56.4907 36.4247C57.0776 35.2603 57.7126 33.2729 57.253 31.7358C56.7996 30.1987 55.5964 28.9255 54.744 28.2579C54.4723 28.0405 54.1229 27.963 53.7782 28.0096C48.2198 28.6151 36.6915 30.121 31.0198 31.7358Z" fill="#0D99FF"/>
<path d="M53.6523 26.8532C54.2541 26.7789 54.9164 26.9117 55.4611 27.343L55.4626 27.3415C56.4107 28.0842 57.819 29.5413 58.3693 31.402L58.4663 31.7901C58.6545 32.6996 58.5753 33.6409 58.4042 34.4587C58.2058 35.4061 57.8628 36.2895 57.5308 36.9484L56.0979 36.2266L56.4907 36.4253L57.5308 36.9484V36.9499L57.3898 37.191C57.039 37.7214 56.5054 38.0625 55.9433 38.2114L55.9448 38.2144C48.9025 40.1715 35.2895 43.9583 32.8904 44.6403L32.3081 44.8207C28.7522 45.9746 15.8379 50.8514 8.57893 54.1304C8.01012 54.387 7.34001 54.1497 7.05966 53.5922L2.06516 43.6547C1.77859 43.0844 2.00438 42.3901 2.57158 42.0975C9.49786 38.5312 24.7511 32.3026 30.7009 30.615C36.472 28.972 48.0663 27.4624 53.6219 26.8563C53.6318 26.8549 53.6423 26.8529 53.6523 26.8517V26.8532ZM53.7781 28.0101L53.9343 29.164C53.9244 29.1653 53.9138 29.166 53.9039 29.167C48.3304 29.7742 36.8993 31.2727 31.3377 32.856L31.1133 32.0646L31.3377 32.856C25.8451 34.4137 11.8804 40.0793 4.66854 43.6502L8.6411 51.5528C16.5991 48.0431 29.8126 43.0903 32.255 42.3993C34.6653 41.7142 48.2839 37.9258 55.3201 35.9704L55.3459 35.9643C55.4227 35.9447 55.4462 35.9084 55.4505 35.9007L55.6431 35.4882C55.8329 35.0466 56.0121 34.5219 56.1252 33.9811C56.2789 33.247 56.2903 32.5805 56.1374 32.0691L56.1359 32.0646C55.7785 30.8538 54.7826 29.7667 54.0268 29.1746L54.7788 28.2133L54.7439 28.2573L54.0268 29.1746L54.0161 29.167C54.0146 29.1664 54.0119 29.1663 54.0086 29.1655C53.996 29.1624 53.9709 29.159 53.9343 29.164L53.7781 28.0086V28.0101Z" fill="#1A1A1A"/>
<path d="M8.83125 47.1378C9.75352 50.2431 8.90579 52.8981 7.05194 53.4105C5.1981 53.9229 2.58966 52.1994 1.66895 49.0941C0.746689 45.9889 1.50283 43.07 3.35667 42.5576C5.21051 42.0452 7.91054 44.0325 8.83125 47.1378Z" fill="#0768CF"/>
<path d="M3.04671 41.4357C4.47943 41.0399 6.00036 41.642 7.1724 42.5835C8.38047 43.5541 9.41997 45.0289 9.94712 46.8063C10.4579 48.5262 10.5046 50.2001 10.1003 51.5748C9.69611 52.9483 8.79077 54.1381 7.36193 54.533C5.97642 54.9159 4.49194 54.4322 3.30902 53.5384C2.10303 52.6269 1.0804 51.2061 0.552489 49.4263L0.38267 48.7819C0.0333956 47.282 0.0231672 45.8065 0.344764 44.5622C0.706054 43.1645 1.5615 41.8462 3.04671 41.4357ZM5.71378 44.3985C4.84269 43.6989 4.08769 43.5636 3.66685 43.6798C3.29835 43.7816 2.84914 44.1788 2.59942 45.1445C2.35602 46.0862 2.37237 47.3746 2.7844 48.7622L2.78591 48.7637C3.17885 50.0885 3.92155 51.0813 4.71306 51.6795C5.52783 52.2952 6.27375 52.4168 6.74179 52.2875C7.16661 52.1699 7.61277 51.7762 7.86532 50.9183C8.11752 50.0612 8.12658 48.8539 7.71522 47.4689C7.3216 46.1413 6.5492 45.0697 5.71378 44.3985Z" fill="#1A1A1A"/>
<path d="M58.0483 75.2791H51.0483L54.5483 70.0291L58.0483 75.2791Z" fill="#FFAFA3"/>
<path d="M58.049 76.4436C58.4783 76.4434 58.8729 76.2065 59.0755 75.828C59.2778 75.4496 59.2558 74.9903 59.0179 74.6332L55.5169 69.3825C55.3009 69.059 54.937 68.8639 54.548 68.8639C54.159 68.8641 53.795 69.0588 53.5791 69.3825L50.0796 74.6332C49.8415 74.9904 49.8196 75.4494 50.022 75.828C50.2247 76.2066 50.6191 76.4436 51.0485 76.4436H58.049ZM54.548 72.1299L55.8732 74.1147H53.2243L54.548 72.1299Z" fill="#1A1A1A"/>
<path d="M57.9396 70.2131C58.1371 69.8411 58.6116 69.6918 58.9992 69.8811C59 69.8815 59.0018 69.8829 59.004 69.884C59.009 69.8864 59.0176 69.8906 59.0285 69.8958C59.0503 69.9061 59.0841 69.9208 59.1261 69.9397C59.2108 69.9778 59.33 70.03 59.466 70.0833C59.7568 70.1972 60.0554 70.2909 60.257 70.3137C60.4498 70.3354 60.7502 70.3147 61.049 70.2747C61.1884 70.256 61.3122 70.236 61.4005 70.22L61.5275 70.1946C61.5298 70.1941 61.5322 70.1937 61.5333 70.1936C61.9581 70.1033 62.3795 70.3609 62.4738 70.7688C62.5674 71.1767 62.2988 71.5808 61.8742 71.6711L61.8693 71.6721C61.8667 71.6727 61.8625 71.6742 61.8585 71.675L61.6935 71.7063C61.5867 71.7257 61.4377 71.7509 61.2677 71.7737C60.9466 71.8168 60.4771 71.8623 60.0724 71.8167C59.6476 71.7686 59.1848 71.6074 58.8712 71.4846C58.7055 71.4197 58.5609 71.358 58.4581 71.3118C58.407 71.2887 58.3646 71.269 58.3351 71.2551C58.3204 71.2482 58.3074 71.2426 58.299 71.2385C58.295 71.2366 58.2917 71.2348 58.2892 71.2336L58.2843 71.2307L58.1505 71.1487C57.8638 70.9295 57.7673 70.5391 57.9396 70.2131ZM60.5773 66.7551C61.4475 66.7553 62.1524 67.4329 62.1525 68.2688C62.1525 69.1048 61.4475 69.7823 60.5773 69.7825C59.7069 69.7825 59.0011 69.1049 59.0011 68.2688C59.0012 67.4328 59.707 66.7551 60.5773 66.7551Z" fill="#1A1A1A"/>
<path d="M50.7928 70.2131C50.5953 69.8408 50.12 69.6915 49.7323 69.8811C49.7314 69.8815 49.7297 69.8829 49.7274 69.884C49.7224 69.8864 49.7138 69.8907 49.703 69.8958C49.6811 69.9061 49.6472 69.9208 49.6053 69.9397C49.5207 69.9778 49.4021 70.0301 49.2665 70.0833C48.9757 70.1971 48.677 70.2909 48.4754 70.3137C48.2826 70.3354 47.9814 70.3147 47.6825 70.2747C47.543 70.2559 47.4192 70.236 47.3309 70.22C47.287 70.212 47.2514 70.204 47.2284 70.1995C47.218 70.1974 47.2101 70.1957 47.2049 70.1946C47.2023 70.194 47.199 70.1938 47.1981 70.1936C46.7734 70.1034 46.3518 70.3609 46.2577 70.7688C46.164 71.1768 46.4335 71.5809 46.8583 71.6711L46.8622 71.6721C46.8647 71.6726 46.8688 71.6742 46.8729 71.675L47.0379 71.7063C47.1446 71.7257 47.2938 71.7509 47.4637 71.7737C47.7848 71.8167 48.2544 71.8623 48.659 71.8167C49.084 71.7686 49.5476 71.6074 49.8612 71.4846C50.0271 71.4196 50.1715 71.358 50.2743 71.3118C50.3252 71.2889 50.3669 71.269 50.3963 71.2551C50.4111 71.2482 50.425 71.2426 50.4335 71.2385C50.4374 71.2367 50.4408 71.2348 50.4432 71.2336L50.4471 71.2307L50.5819 71.1487C50.8686 70.9295 50.9651 70.5391 50.7928 70.2131ZM48.1551 66.7551C47.2848 66.7551 46.579 67.4328 46.579 68.2688C46.579 69.1049 47.2848 69.7825 48.1551 69.7825C49.0254 69.7823 49.7303 69.1048 49.7303 68.2688C49.7303 67.4329 49.0253 66.7553 48.1551 66.7551Z" fill="#1A1A1A"/>
</svg>
