<svg width="75" height="86" viewBox="0 0 75 86" fill="none" xmlns="http://www.w3.org/2000/svg">
<path d="M55.7534 37.4779C37.3382 39.5738 26.5097 35.5994 23.3965 33.3482L43.2851 3.21326L55.7534 37.4779Z" fill="#2F15AC"/>
<path d="M50.7412 34.1182C50.7207 34.013 50.6188 33.9444 50.5136 33.9649C50.4083 33.9855 50.3397 34.0874 50.3603 34.1926C50.3709 34.2473 50.3808 34.3054 50.3891 34.3667C50.358 34.3226 50.3295 34.2796 50.3032 34.238C50.2459 34.1475 50.126 34.1206 50.0354 34.1779C49.9448 34.2353 49.9179 34.3552 49.9753 34.4457C50.0125 34.5044 50.0536 34.5657 50.0993 34.6289C50.0577 34.6208 50.0177 34.6122 49.9793 34.603C49.875 34.5782 49.7704 34.6426 49.7456 34.7469C49.7207 34.8511 49.7851 34.9558 49.8894 34.9806C49.9482 34.9946 50.0101 35.0076 50.0752 35.0191C50.0462 35.04 50.0163 35.0607 49.9857 35.0815C49.8968 35.1415 49.8735 35.2621 49.9335 35.3509C49.9935 35.4397 50.1142 35.4631 50.203 35.4031C50.264 35.3619 50.3221 35.3203 50.3775 35.2786C50.3703 35.3256 50.3619 35.3736 50.3524 35.4225C50.332 35.5277 50.4007 35.6296 50.506 35.65C50.6112 35.6704 50.7131 35.6017 50.7335 35.4965C50.7448 35.4381 50.7547 35.3808 50.7631 35.3247C50.8132 35.3652 50.8658 35.4056 50.9208 35.4457C51.0074 35.5089 51.1288 35.4899 51.192 35.4033C51.2551 35.3167 51.2361 35.1953 51.1495 35.1321C51.1108 35.1039 51.0734 35.0755 51.0375 35.0471C51.1136 35.0388 51.1921 35.028 51.2728 35.0142C51.3785 34.9962 51.4495 34.896 51.4315 34.7903C51.4135 34.6846 51.3133 34.6136 51.2076 34.6316C51.1435 34.6425 51.0812 34.6514 51.0205 34.6585C51.0818 34.5815 51.1361 34.5064 51.1843 34.434C51.2438 34.3448 51.2197 34.2243 51.1305 34.1649C51.0413 34.1054 50.9208 34.1295 50.8613 34.2187C50.8353 34.2577 50.8073 34.2977 50.7769 34.3386C50.7669 34.2607 50.7547 34.1872 50.7412 34.1182Z" fill="#FFC21A"/>
<path d="M48.9307 22.2414C48.9101 22.1362 48.8082 22.0676 48.703 22.0881C48.5978 22.1086 48.5292 22.2106 48.5497 22.3158C48.5604 22.3705 48.5702 22.4285 48.5786 22.4899C48.5475 22.4457 48.519 22.4027 48.4927 22.3612C48.4353 22.2707 48.3154 22.2438 48.2248 22.3011C48.1343 22.3584 48.1074 22.4783 48.1647 22.5689C48.2019 22.6276 48.243 22.6889 48.2887 22.752C48.2471 22.744 48.2071 22.7353 48.1688 22.7262C48.0645 22.7014 47.9598 22.7658 47.935 22.87C47.9102 22.9743 47.9746 23.079 48.0789 23.1038C48.1376 23.1178 48.1995 23.1308 48.2647 23.1423C48.2356 23.1631 48.2058 23.1839 48.1751 23.2047C48.0863 23.2647 48.0629 23.3853 48.1229 23.4741C48.183 23.5629 48.3036 23.5863 48.3924 23.5263C48.4535 23.485 48.5116 23.4435 48.5669 23.4018C48.5597 23.4488 48.5514 23.4967 48.5419 23.5456C48.5215 23.6509 48.5902 23.7527 48.6954 23.7732C48.8006 23.7936 48.9025 23.7249 48.9229 23.6197C48.9343 23.5613 48.9441 23.504 48.9525 23.4479C49.0027 23.4884 49.0552 23.5288 49.1102 23.5689C49.1969 23.632 49.3183 23.613 49.3814 23.5264C49.4446 23.4398 49.4256 23.3184 49.339 23.2553C49.3002 23.227 49.2629 23.1987 49.2269 23.1703C49.3031 23.162 49.3815 23.1511 49.4623 23.1374C49.5679 23.1194 49.639 23.0191 49.621 22.9135C49.603 22.8078 49.5027 22.7368 49.397 22.7548C49.333 22.7657 49.2706 22.7746 49.21 22.7816C49.2713 22.7047 49.3255 22.6296 49.3738 22.5572C49.4332 22.468 49.4091 22.3475 49.3199 22.288C49.2308 22.2286 49.1103 22.2527 49.0508 22.3419C49.0248 22.3809 48.9967 22.4209 48.9664 22.4618C48.9564 22.3838 48.9442 22.3104 48.9307 22.2414Z" fill="#FFC21A"/>
<path d="M40.9336 18.9577C40.9131 18.8525 40.8111 18.7839 40.7059 18.8044C40.6007 18.825 40.5321 18.9269 40.5526 19.0321C40.5633 19.0868 40.5731 19.1448 40.5815 19.2062C40.5504 19.162 40.5219 19.119 40.4956 19.0775C40.4382 18.987 40.3183 18.9601 40.2278 19.0174C40.1372 19.0748 40.1103 19.1946 40.1677 19.2852C40.2049 19.3439 40.246 19.4052 40.2917 19.4684C40.25 19.4603 40.2101 19.4516 40.1717 19.4425C40.0674 19.4177 39.9628 19.4821 39.9379 19.5864C39.9131 19.6906 39.9775 19.7953 40.0818 19.8201C40.1405 19.8341 40.2025 19.8471 40.2676 19.8586C40.2386 19.8794 40.2087 19.9002 40.178 19.921C40.0892 19.981 40.0659 20.1016 40.1259 20.1904C40.1859 20.2792 40.3065 20.3026 40.3954 20.2426C40.4564 20.2013 40.5145 20.1598 40.5698 20.1181C40.5626 20.1651 40.5543 20.2131 40.5448 20.262C40.5244 20.3672 40.5931 20.469 40.6983 20.4895C40.8036 20.5099 40.9054 20.4412 40.9259 20.336C40.9372 20.2776 40.947 20.2203 40.9555 20.1642C41.0056 20.2047 41.0581 20.2451 41.1132 20.2852C41.1998 20.3483 41.3212 20.3293 41.3844 20.2427C41.4475 20.1561 41.4285 20.0347 41.3419 19.9716C41.3032 19.9433 41.2658 19.915 41.2298 19.8866C41.306 19.8783 41.3845 19.8674 41.4652 19.8537C41.5709 19.8357 41.6419 19.7354 41.6239 19.6298C41.6059 19.5241 41.5056 19.4531 41.4 19.4711C41.3359 19.482 41.2736 19.4909 41.2129 19.4979C41.2742 19.421 41.3284 19.3459 41.3767 19.2735C41.4362 19.1843 41.4121 19.0638 41.3229 19.0043C41.2337 18.9449 41.1132 18.969 41.0537 19.0582C41.0277 19.0972 40.9997 19.1372 40.9693 19.1781C40.9593 19.1001 40.9471 19.0267 40.9336 18.9577Z" fill="#FFC21A"/>
<path d="M45.5791 17.1024C45.5586 16.9972 45.4566 16.9285 45.3514 16.9491C45.2462 16.9696 45.1776 17.0715 45.1981 17.1767C45.2088 17.2314 45.2186 17.2895 45.227 17.3509C45.1959 17.3067 45.1674 17.2637 45.1411 17.2222C45.0837 17.1316 44.9638 17.1047 44.8733 17.1621C44.7827 17.2194 44.7558 17.3393 44.8132 17.4299C44.8504 17.4886 44.8915 17.5498 44.9372 17.613C44.8955 17.605 44.8556 17.5963 44.8172 17.5872C44.7129 17.5623 44.6083 17.6267 44.5834 17.731C44.5586 17.8353 44.623 17.9399 44.7273 17.9647C44.7861 17.9787 44.848 17.9917 44.9131 18.0033C44.8841 18.0241 44.8542 18.0449 44.8235 18.0656C44.7347 18.1256 44.7114 18.2463 44.7714 18.3351C44.8314 18.4239 44.952 18.4472 45.0409 18.3872C45.1019 18.346 45.16 18.3045 45.2153 18.2628C45.2081 18.3098 45.1998 18.3577 45.1903 18.4066C45.1699 18.5118 45.2386 18.6137 45.3438 18.6341C45.4491 18.6546 45.5509 18.5859 45.5714 18.4806C45.5827 18.4222 45.5926 18.365 45.601 18.3089C45.6511 18.3494 45.7037 18.3897 45.7587 18.4299C45.8453 18.493 45.9667 18.474 46.0299 18.3874C46.093 18.3008 46.074 18.1794 45.9874 18.1162C45.9487 18.088 45.9113 18.0597 45.8754 18.0313C45.9515 18.023 46.03 18.0121 46.1107 17.9983C46.2164 17.9803 46.2874 17.8801 46.2694 17.7744C46.2514 17.6688 46.1511 17.5977 46.0455 17.6157C45.9814 17.6266 45.9191 17.6355 45.8584 17.6426C45.9197 17.5656 45.9739 17.4905 46.0222 17.4181C46.0817 17.3289 46.0576 17.2084 45.9684 17.149C45.8792 17.0895 45.7587 17.1136 45.6992 17.2028C45.6732 17.2418 45.6452 17.2819 45.6148 17.3227C45.6048 17.2448 45.5926 17.1713 45.5791 17.1024Z" fill="#FFC21A"/>
<path d="M36.6856 15.7359C36.665 15.6307 36.5631 15.5621 36.4579 15.5826C36.3527 15.6032 36.284 15.7051 36.3046 15.8103C36.3153 15.865 36.3251 15.923 36.3334 15.9844C36.3024 15.9402 36.2738 15.8972 36.2475 15.8557C36.1902 15.7652 36.0703 15.7383 35.9797 15.7956C35.8892 15.853 35.8623 15.9728 35.9196 16.0634C35.9568 16.1221 35.9979 16.1834 36.0436 16.2466C36.002 16.2385 35.962 16.2298 35.9237 16.2207C35.8194 16.1959 35.7147 16.2603 35.6899 16.3645C35.6651 16.4688 35.7295 16.5735 35.8337 16.5983C35.8925 16.6123 35.9544 16.6253 36.0195 16.6368C35.9905 16.6576 35.9607 16.6784 35.93 16.6992C35.8412 16.7592 35.8178 16.8798 35.8778 16.9686C35.9378 17.0574 36.0585 17.0808 36.1473 17.0208C36.2083 16.9795 36.2664 16.938 36.3218 16.8963C36.3146 16.9433 36.3063 16.9913 36.2968 17.0402C36.2763 17.1454 36.3451 17.2472 36.4503 17.2677C36.5555 17.2881 36.6574 17.2194 36.6778 17.1142C36.6892 17.0558 36.699 16.9985 36.7074 16.9424C36.7576 16.9829 36.8101 17.0233 36.8651 17.0634C36.9517 17.1265 37.0732 17.1075 37.1363 17.0209C37.1995 16.9343 37.1804 16.8129 37.0938 16.7498C37.0551 16.7215 37.0178 16.6932 36.9818 16.6648C37.058 16.6565 37.1364 16.6456 37.2171 16.6319C37.3228 16.6139 37.3939 16.5136 37.3759 16.408C37.3579 16.3023 37.2576 16.2313 37.1519 16.2493C37.0879 16.2602 37.0255 16.2691 36.9648 16.2761C37.0262 16.1992 37.0804 16.1241 37.1287 16.0517C37.1881 15.9625 37.164 15.842 37.0748 15.7825C36.9856 15.7231 36.8651 15.7472 36.8057 15.8364C36.7797 15.8754 36.7516 15.9154 36.7213 15.9563C36.7112 15.8783 36.699 15.8049 36.6856 15.7359Z" fill="#FFC21A"/>
<path d="M36.2735 21.954C36.2529 21.8488 36.151 21.7802 36.0458 21.8008C35.9406 21.8213 35.8719 21.9232 35.8925 22.0284C35.9032 22.0831 35.913 22.1412 35.9213 22.2026C35.8903 22.1584 35.8617 22.1154 35.8354 22.0739C35.7781 21.9833 35.6582 21.9564 35.5676 22.0137C35.4771 22.0711 35.4501 22.191 35.5075 22.2815C35.5447 22.3403 35.5858 22.4015 35.6315 22.4647C35.5899 22.4567 35.5499 22.448 35.5115 22.4388C35.4073 22.414 35.3026 22.4784 35.2778 22.5827C35.253 22.687 35.3174 22.7916 35.4216 22.8164C35.4804 22.8304 35.5423 22.8434 35.6074 22.8549C35.5784 22.8758 35.5486 22.8966 35.5179 22.9173C35.4291 22.9773 35.4057 23.0979 35.4657 23.1868C35.5257 23.2756 35.6464 23.2989 35.7352 23.2389C35.7962 23.1977 35.8543 23.1561 35.9097 23.1145C35.9025 23.1614 35.8942 23.2094 35.8847 23.2583C35.8642 23.3635 35.933 23.4654 36.0382 23.4858C36.1434 23.5063 36.2453 23.4375 36.2657 23.3323C36.2771 23.2739 36.2869 23.2167 36.2953 23.1606C36.3455 23.201 36.398 23.2414 36.453 23.2815C36.5396 23.3447 36.661 23.3257 36.7242 23.2391C36.7874 23.1525 36.7683 23.0311 36.6817 22.9679C36.643 22.9397 36.6057 22.9113 36.5697 22.8829C36.6459 22.8747 36.7243 22.8638 36.805 22.85C36.9107 22.832 36.9818 22.7318 36.9638 22.6261C36.9457 22.5205 36.8455 22.4494 36.7398 22.4674C36.6758 22.4783 36.6134 22.4872 36.5527 22.4943C36.6141 22.4173 36.6683 22.3422 36.7166 22.2698C36.776 22.1806 36.7519 22.0601 36.6627 22.0007C36.5735 21.9412 36.453 21.9653 36.3936 22.0545C36.3676 22.0935 36.3395 22.1335 36.3092 22.1744C36.2991 22.0965 36.2869 22.023 36.2735 21.954Z" fill="#FFC21A"/>
<path d="M39.833 25.2612C39.8125 25.156 39.7106 25.0873 39.6053 25.1079C39.5001 25.1284 39.4315 25.2303 39.452 25.3355C39.4627 25.3903 39.4725 25.4483 39.4809 25.5097C39.4498 25.4655 39.4213 25.4225 39.395 25.381C39.3377 25.2904 39.2177 25.2635 39.1272 25.3209C39.0366 25.3782 39.0097 25.4981 39.0671 25.5887C39.1043 25.6474 39.1454 25.7087 39.1911 25.7718C39.1495 25.7638 39.1095 25.7551 39.0711 25.746C38.9668 25.7212 38.8622 25.7856 38.8374 25.8898C38.8125 25.9941 38.8769 26.0987 38.9812 26.1236C39.04 26.1375 39.1019 26.1506 39.167 26.1621C39.138 26.1829 39.1081 26.2037 39.0774 26.2244C38.9886 26.2844 38.9653 26.4051 39.0253 26.4939C39.0853 26.5827 39.206 26.606 39.2948 26.546C39.3558 26.5048 39.4139 26.4633 39.4693 26.4216C39.462 26.4686 39.4537 26.5165 39.4442 26.5654C39.4238 26.6706 39.4925 26.7725 39.5978 26.7929C39.703 26.8134 39.8049 26.7447 39.8253 26.6395C39.8366 26.581 39.8465 26.5238 39.8549 26.4677C39.905 26.5082 39.9576 26.5485 40.0126 26.5887C40.0992 26.6518 40.2206 26.6328 40.2838 26.5462C40.3469 26.4596 40.3279 26.3382 40.2413 26.275C40.2026 26.2468 40.1652 26.2185 40.1293 26.1901C40.2054 26.1818 40.2839 26.1709 40.3646 26.1572C40.4703 26.1391 40.5413 26.0389 40.5233 25.9332C40.5053 25.8276 40.4051 25.7565 40.2994 25.7745C40.2353 25.7855 40.173 25.7943 40.1123 25.8014C40.1736 25.7245 40.2279 25.6493 40.2761 25.5769C40.3356 25.4878 40.3115 25.3673 40.2223 25.3078C40.1331 25.2484 40.0126 25.2725 39.9531 25.3616C39.9271 25.4006 39.8991 25.4407 39.8687 25.4816C39.8587 25.4036 39.8465 25.3301 39.833 25.2612Z" fill="#FFC21A"/>
<path d="M32.4903 25.9441C32.4697 25.839 32.3678 25.7703 32.2626 25.7909C32.1574 25.8114 32.0887 25.9133 32.1093 26.0185C32.12 26.0732 32.1298 26.1313 32.1381 26.1927C32.1071 26.1485 32.0785 26.1055 32.0522 26.064C31.9949 25.9734 31.875 25.9465 31.7844 26.0039C31.6939 26.0612 31.6669 26.1811 31.7243 26.2716C31.7615 26.3304 31.8026 26.3916 31.8483 26.4548C31.8067 26.4468 31.7667 26.4381 31.7283 26.429C31.6241 26.4041 31.5194 26.4685 31.4946 26.5728C31.4698 26.6771 31.5342 26.7817 31.6384 26.8065C31.6972 26.8205 31.7591 26.8335 31.8242 26.845C31.7952 26.8659 31.7654 26.8867 31.7347 26.9074C31.6459 26.9674 31.6225 27.0881 31.6825 27.1769C31.7425 27.2657 31.8632 27.289 31.952 27.229C32.013 27.1878 32.0711 27.1463 32.1265 27.1046C32.1193 27.1516 32.111 27.1995 32.1015 27.2484C32.081 27.3536 32.1498 27.4555 32.255 27.4759C32.3602 27.4964 32.4621 27.4276 32.4825 27.3224C32.4939 27.264 32.5037 27.2068 32.5121 27.1507C32.5623 27.1912 32.6148 27.2315 32.6698 27.2717C32.7564 27.3348 32.8778 27.3158 32.941 27.2292C33.0041 27.1426 32.9851 27.0212 32.8985 26.958C32.8598 26.9298 32.8225 26.9015 32.7865 26.8731C32.8627 26.8648 32.9411 26.8539 33.0218 26.8401C33.1275 26.8221 33.1986 26.7219 33.1806 26.6162C33.1625 26.5106 33.0623 26.4395 32.9566 26.4575C32.8926 26.4684 32.8302 26.4773 32.7695 26.4844C32.8309 26.4074 32.8851 26.3323 32.9333 26.2599C32.9928 26.1707 32.9687 26.0502 32.8795 25.9908C32.7903 25.9313 32.6698 25.9554 32.6104 26.0446C32.5844 26.0836 32.5563 26.1237 32.526 26.1645C32.5159 26.0866 32.5037 26.0131 32.4903 25.9441Z" fill="#FFC21A"/>
<path d="M36.7559 29.6937C36.7353 29.5885 36.6334 29.5198 36.5282 29.5404C36.423 29.5609 36.3544 29.6628 36.3749 29.768C36.3856 29.8228 36.3954 29.8808 36.4037 29.9422C36.3727 29.898 36.3442 29.855 36.3179 29.8135C36.2605 29.7229 36.1406 29.696 36.05 29.7534C35.9595 29.8107 35.9326 29.9306 35.9899 30.0212C36.0271 30.0799 36.0682 30.1412 36.1139 30.2043C36.0723 30.1963 36.0323 30.1876 35.994 30.1785C35.8897 30.1536 35.785 30.218 35.7602 30.3223C35.7354 30.4266 35.7998 30.5312 35.9041 30.5561C35.9628 30.57 36.0247 30.5831 36.0899 30.5946C36.0608 30.6154 36.031 30.6362 36.0003 30.6569C35.9115 30.7169 35.8881 30.8376 35.9481 30.9264C36.0082 31.0152 36.1288 31.0385 36.2176 30.9785C36.2786 30.9373 36.3368 30.8958 36.3921 30.8541C36.3849 30.9011 36.3766 30.949 36.3671 30.9979C36.3466 31.1031 36.4154 31.205 36.5206 31.2254C36.6258 31.2459 36.7277 31.1772 36.7481 31.0719C36.7595 31.0135 36.7693 30.9563 36.7777 30.9002C36.8279 30.9407 36.8804 30.981 36.9354 31.0212C37.0221 31.0843 37.1435 31.0653 37.2066 30.9787C37.2698 30.8921 37.2508 30.7707 37.1641 30.7075C37.1254 30.6793 37.0881 30.651 37.0521 30.6226C37.1283 30.6143 37.2067 30.6034 37.2875 30.5897C37.3931 30.5716 37.4642 30.4714 37.4462 30.3657C37.4282 30.2601 37.3279 30.189 37.2222 30.207C37.1582 30.218 37.0958 30.2268 37.0352 30.2339C37.0965 30.157 37.1507 30.0818 37.199 30.0094C37.2584 29.9202 37.2343 29.7998 37.1451 29.7403C37.056 29.6809 36.9354 29.7049 36.876 29.7941C36.85 29.8331 36.8219 29.8732 36.7916 29.914C36.7815 29.8361 36.7693 29.7626 36.7559 29.6937Z" fill="#FFC21A"/>
<path d="M30.3086 31.704C30.2881 31.5988 30.1861 31.5302 30.0809 31.5508C29.9757 31.5713 29.9071 31.6732 29.9276 31.7784C29.9383 31.8331 29.9481 31.8912 29.9565 31.9526C29.9254 31.9084 29.8969 31.8654 29.8706 31.8239C29.8132 31.7333 29.6933 31.7064 29.6028 31.7637C29.5122 31.8211 29.4853 31.941 29.5427 32.0315C29.5799 32.0903 29.621 32.1515 29.6667 32.2147C29.625 32.2067 29.5851 32.198 29.5467 32.1888C29.4424 32.164 29.3378 32.2284 29.3129 32.3327C29.2881 32.437 29.3525 32.5416 29.4568 32.5664C29.5155 32.5804 29.5775 32.5934 29.6426 32.6049C29.6136 32.6258 29.5837 32.6466 29.553 32.6673C29.4642 32.7273 29.4409 32.8479 29.5009 32.9368C29.5609 33.0256 29.6815 33.0489 29.7704 32.9889C29.8314 32.9477 29.8895 32.9061 29.9448 32.8645C29.9376 32.9114 29.9293 32.9594 29.9198 33.0083C29.8994 33.1135 29.9681 33.2154 30.0733 33.2358C30.1786 33.2563 30.2804 33.1875 30.3009 33.0823C30.3122 33.0239 30.322 32.9667 30.3305 32.9106C30.3806 32.951 30.4331 32.9914 30.4882 33.0315C30.5748 33.0947 30.6962 33.0757 30.7594 32.9891C30.8225 32.9025 30.8035 32.7811 30.7169 32.7179C30.6782 32.6897 30.6408 32.6613 30.6048 32.6329C30.681 32.6247 30.7595 32.6138 30.8402 32.6C30.9459 32.582 31.0169 32.4818 30.9989 32.3761C30.9809 32.2705 30.8806 32.1994 30.775 32.2174C30.7109 32.2283 30.6486 32.2372 30.5879 32.2443C30.6492 32.1673 30.7034 32.0922 30.7517 32.0198C30.8112 31.9306 30.7871 31.8101 30.6979 31.7507C30.6087 31.6912 30.4882 31.7153 30.4287 31.8045C30.4027 31.8435 30.3747 31.8835 30.3443 31.9244C30.3343 31.8465 30.3221 31.773 30.3086 31.704Z" fill="#FFC21A"/>
<path d="M40.7735 12.6308C40.7529 12.5256 40.651 12.457 40.5458 12.4775C40.4406 12.498 40.3719 12.6 40.3925 12.7052C40.4032 12.7599 40.413 12.8179 40.4213 12.8793C40.3903 12.8351 40.3617 12.7921 40.3354 12.7506C40.2781 12.6601 40.1582 12.6332 40.0676 12.6905C39.9771 12.7479 39.9501 12.8677 40.0075 12.9583C40.0447 13.017 40.0858 13.0783 40.1315 13.1415C40.0899 13.1334 40.0499 13.1247 40.0115 13.1156C39.9073 13.0908 39.8026 13.1552 39.7778 13.2594C39.753 13.3637 39.8174 13.4684 39.9216 13.4932C39.9804 13.5072 40.0423 13.5202 40.1074 13.5317C40.0784 13.5525 40.0486 13.5733 40.0179 13.5941C39.9291 13.6541 39.9057 13.7747 39.9657 13.8635C40.0257 13.9523 40.1464 13.9757 40.2352 13.9157C40.2962 13.8744 40.3543 13.8329 40.4097 13.7912C40.4025 13.8382 40.3942 13.8862 40.3847 13.9351C40.3642 14.0403 40.433 14.1421 40.5382 14.1626C40.6434 14.183 40.7453 14.1143 40.7657 14.0091C40.7771 13.9507 40.7869 13.8934 40.7953 13.8373C40.8455 13.8778 40.898 13.9182 40.953 13.9583C41.0396 14.0214 41.161 14.0024 41.2242 13.9158C41.2874 13.8292 41.2683 13.7078 41.1817 13.6447C41.143 13.6164 41.1057 13.5881 41.0697 13.5597C41.1459 13.5514 41.2243 13.5405 41.305 13.5268C41.4107 13.5088 41.4818 13.4085 41.4638 13.3029C41.4457 13.1972 41.3455 13.1262 41.2398 13.1442C41.1758 13.1551 41.1134 13.164 41.0527 13.171C41.1141 13.0941 41.1683 13.019 41.2166 12.9466C41.276 12.8574 41.2519 12.7369 41.1627 12.6774C41.0735 12.618 40.953 12.6421 40.8936 12.7313C40.8676 12.7703 40.8395 12.8103 40.8092 12.8512C40.7991 12.7732 40.7869 12.6998 40.7735 12.6308Z" fill="#FFC21A"/>
<path d="M44.2822 8.3692C44.2617 8.264 44.1598 8.19537 44.0546 8.21591C43.9494 8.23645 43.8807 8.33838 43.9013 8.44357C43.9119 8.49829 43.9218 8.55634 43.9301 8.61772C43.899 8.57353 43.8705 8.53053 43.8442 8.48902C43.7869 8.39848 43.667 8.37156 43.5764 8.42891C43.4859 8.48626 43.4589 8.60615 43.5163 8.6967C43.5535 8.75542 43.5946 8.81669 43.6403 8.87985C43.5987 8.87182 43.5587 8.86314 43.5203 8.85401C43.4161 8.82918 43.3114 8.89358 43.2866 8.99785C43.2617 9.10212 43.3262 9.20677 43.4304 9.23159C43.4892 9.24558 43.5511 9.25859 43.6162 9.2701C43.5872 9.29093 43.5574 9.31173 43.5267 9.33246C43.4378 9.39247 43.4145 9.51311 43.4745 9.60192C43.5345 9.69072 43.6552 9.71407 43.744 9.65407C43.805 9.61284 43.8631 9.57131 43.9185 9.52961C43.9113 9.57661 43.903 9.62455 43.8935 9.67346C43.873 9.77867 43.9417 9.88053 44.047 9.90098C44.1522 9.92142 44.2541 9.8527 44.2745 9.74748C44.2859 9.68907 44.2957 9.63181 44.3041 9.57572C44.3543 9.61621 44.4068 9.65658 44.4618 9.6967C44.5484 9.75985 44.6698 9.74083 44.733 9.65423C44.7961 9.56763 44.7771 9.44623 44.6905 9.38308C44.6518 9.35485 44.6145 9.3265 44.5785 9.29811C44.6547 9.28982 44.7331 9.27895 44.8138 9.26519C44.9195 9.24718 44.9906 9.14693 44.9725 9.04127C44.9545 8.93561 44.8543 8.86456 44.7486 8.88257C44.6845 8.89349 44.6222 8.90238 44.5615 8.90943C44.6229 8.83249 44.6771 8.75736 44.7253 8.68497C44.7848 8.59579 44.7607 8.47529 44.6715 8.41584C44.5823 8.35639 44.4618 8.38049 44.4024 8.46967C44.3764 8.50866 44.3483 8.5487 44.3179 8.58959C44.3079 8.51164 44.2957 8.43817 44.2822 8.3692Z" fill="#FFC21A"/>
<path d="M36.5914 34.7144C49.2615 39.5894 51.2225 26.5945 43.9093 22.7908C43.6795 22.6666 43.4279 22.8839 43.4885 23.1323C44.4232 27.0137 44.3704 31.392 36.5991 34.14C36.3274 34.2331 36.3227 34.6213 36.5914 34.7144Z" fill="#FFC21A"/>
<path fill-rule="evenodd" clip-rule="evenodd" d="M43.4209 2.05684C43.8579 2.10828 44.2286 2.40165 44.3791 2.81513L56.8473 37.0797C56.9693 37.4149 56.9309 37.7874 56.7431 38.0907C56.5554 38.394 56.2391 38.5945 55.8847 38.6348C46.5698 39.695 39.1417 39.2235 33.6215 38.1876C28.1323 37.1576 24.4617 35.5558 22.7136 34.2918C22.2082 33.9263 22.0805 33.2274 22.4241 32.7069L42.3127 2.57191C42.5551 2.20467 42.9838 2.00539 43.4209 2.05684ZM25.025 32.9941C26.7213 33.9286 29.717 35.0855 34.0511 35.8988C39.0395 36.8349 45.7422 37.3041 54.1496 36.4771L42.9818 5.78632L25.025 32.9941Z" fill="#1A1A1A"/>
</svg>
