<svg width="75" height="86" viewBox="0 0 75 86" fill="none" xmlns="http://www.w3.org/2000/svg">
<path d="M27.21 29.371L27.1246 28.2748C27.0563 27.4209 27.696 26.6725 28.5499 26.6057L50.7277 24.8684C51.7602 24.7877 52.58 25.7207 52.3673 26.7346L52.1329 27.8572C51.9916 28.531 51.4218 29.0325 50.7339 29.0853L43.0267 29.6893C42.4398 29.7359 41.929 30.11 41.7085 30.6566L38.5629 38.4462C38.3424 38.9927 37.8316 39.3669 37.2447 39.4134L36.5212 39.4693C35.3349 39.5625 34.4888 38.339 34.9949 37.2615L37.2478 32.4701C37.7539 31.3926 36.9093 30.1691 35.7215 30.2622L28.8791 30.7979C28.0236 30.8646 27.2768 30.2265 27.21 29.371Z" fill="#864E37"/>
<path d="M50.6366 23.7083C52.444 23.5669 53.879 25.2005 53.5069 26.9742L53.2734 28.0947V28.0963C53.026 29.276 52.028 30.1522 50.8231 30.2448L50.8246 30.2463L43.1191 30.8498C43.0086 30.8585 42.9092 30.9141 42.8431 30.9983L42.7886 31.0924L39.6424 38.8828C39.2562 39.839 38.362 40.4935 37.3361 40.5749H37.3346L36.6114 40.6295C34.5349 40.7919 33.0556 38.6517 33.9413 36.7661L36.1944 31.9748L36.2263 31.8732C36.2668 31.6342 36.0716 31.4026 35.8123 31.4229L28.9695 31.9596C27.4738 32.0762 26.1664 30.9592 26.0492 29.4624V29.4609L25.9643 28.3677C25.8447 26.8711 26.964 25.5616 28.4586 25.4444L50.6366 23.7083ZM28.6405 27.7672C28.4545 27.7819 28.3095 27.9266 28.2872 28.1038L28.2857 28.1827V28.1842L28.3706 29.2804C28.3873 29.4939 28.573 29.6515 28.7876 29.6352L35.6304 29.1015C37.7095 28.9385 39.1871 31.0799 38.302 32.9649V32.9664L36.0489 37.7578C35.9234 38.0266 36.1346 38.3309 36.4294 38.3081H36.431L37.1527 38.252L37.2588 38.2293C37.3596 38.1915 37.4419 38.1131 37.4832 38.011L40.6294 30.2205C41.0155 29.2643 41.9084 28.61 42.9341 28.5284H42.9356L50.6427 27.9249H50.6442C50.8148 27.9118 50.9576 27.7864 50.9929 27.6186L51.228 26.4966V26.4951C51.2808 26.2413 51.076 26.0095 50.8186 26.0296L28.6405 27.7672Z" fill="#1A1A1A"/>
<path d="M25.997 50.3885C30.67 50.0223 34.1615 45.9373 33.7954 41.2643C33.4293 36.5913 29.3442 33.0999 24.6712 33.466C19.9982 33.8321 16.5068 37.9171 16.8729 42.5901C17.239 47.2632 21.324 50.7546 25.997 50.3885Z" fill="#444444"/>
<path d="M32.6344 41.3562C32.3185 37.3246 28.7944 34.3115 24.7628 34.627C20.731 34.9429 17.7179 38.4682 18.0338 42.5001C18.35 46.5316 21.8751 49.5435 25.9067 49.2276C29.938 48.9114 32.9498 45.3874 32.6344 41.3562ZM34.9562 41.1743C35.3721 46.4879 31.4022 51.1327 26.0887 51.5495C20.7747 51.9658 16.1287 47.9958 15.7119 42.682C15.2956 37.3678 19.2667 32.7215 24.5809 32.3052C29.8948 31.8892 34.5399 35.8603 34.9562 41.1743Z" fill="#1A1A1A"/>
<path d="M36.9262 52.1414C41.5992 51.7753 45.0907 47.6903 44.7245 43.0172C44.3584 38.3442 40.2734 34.8528 35.6004 35.2189C30.9274 35.585 27.436 39.6701 27.8021 44.3431C28.1682 49.0161 32.2532 52.5075 36.9262 52.1414Z" fill="#444444"/>
<path d="M43.5636 43.1091C43.2477 39.0775 39.7236 36.0645 35.692 36.3799C31.6602 36.6958 28.6471 40.2212 28.963 44.253C29.2792 48.2845 32.8043 51.2964 36.8359 50.9806C40.8672 50.6643 43.879 47.1404 43.5636 43.1091ZM45.8854 42.9272C46.3013 48.2408 42.3314 52.8857 37.0178 53.3024C31.7039 53.7187 27.0579 49.7487 26.6411 44.4349C26.2248 39.1207 30.1959 34.4744 35.5101 34.0581C40.824 33.6422 45.4691 37.6133 45.8854 42.9272Z" fill="#1A1A1A"/>
<path d="M22.6792 60.055C27.3522 59.6888 30.8436 55.6038 30.4775 50.9308C30.1114 46.2578 26.0263 42.7664 21.3533 43.1325C16.6803 43.4986 13.1889 47.5836 13.555 52.2566C13.9211 56.9297 18.0061 60.4211 22.6792 60.055Z" fill="#444444"/>
<path d="M29.3165 51.0227C29.0007 46.9911 25.4765 43.978 21.445 44.2935C17.4131 44.6094 14.4 48.1347 14.7159 52.1666C15.0322 56.1981 18.5573 59.21 22.5889 58.8941C26.6201 58.5779 29.632 55.054 29.3165 51.0227ZM31.6384 50.8408C32.0543 56.1544 28.0843 60.7992 22.7708 61.216C17.4569 61.6323 12.8108 57.6623 12.3941 52.3485C11.9777 47.0343 15.9489 42.388 21.263 41.9717C26.5769 41.5557 31.222 45.5268 31.6384 50.8408Z" fill="#1A1A1A"/>
<path d="M39.3408 62.6541C44.0138 62.288 47.5052 58.203 47.1391 53.5299C46.773 48.8569 42.688 45.3655 38.0149 45.7316C33.3419 46.0977 29.8505 50.1828 30.2166 54.8558C30.5827 59.5288 34.6678 63.0202 39.3408 62.6541Z" fill="#444444"/>
<path d="M45.9782 53.6218C45.6623 49.5902 42.1381 46.5772 38.1066 46.8926C34.0747 47.2085 31.0616 50.7338 31.3775 54.7657C31.6938 58.7972 35.2189 61.8091 39.2505 61.4932C43.2817 61.177 46.2936 57.6531 45.9782 53.6218ZM48.3 53.4399C48.7159 58.7535 44.7459 63.3984 39.4324 63.8151C34.1185 64.2314 29.4724 60.2614 29.0557 54.9476C28.6393 49.6334 32.6105 44.9871 37.9247 44.5708C43.2385 44.1549 47.8837 48.126 48.3 53.4399Z" fill="#1A1A1A"/>
<path d="M29.6582 69.6316C34.3312 69.2655 37.8226 65.1805 37.4565 60.5075C37.0904 55.8345 33.0053 52.343 28.3323 52.7092C23.6593 53.0753 20.1679 57.1603 20.534 61.8333C20.9001 66.5063 24.9851 69.9977 29.6582 69.6316Z" fill="#444444"/>
<path d="M36.296 60.5993C35.9802 56.5677 32.456 53.5547 28.4244 53.8702C24.3926 54.186 21.3795 57.7114 21.6954 61.7432C22.0117 65.7747 25.5368 68.7867 29.5684 68.4708C33.5996 68.1545 36.6115 64.6306 36.296 60.5993ZM38.6179 60.4174C39.0338 65.731 35.0638 70.3759 29.7503 70.7926C24.4364 71.209 19.7903 67.2389 19.3736 61.9252C18.9572 56.611 22.9284 51.9647 28.2425 51.5483C33.5564 51.1324 38.2015 55.1035 38.6179 60.4174Z" fill="#1A1A1A"/>
<path d="M49.5168 49.3814C54.173 48.8426 57.5109 44.6312 56.9721 39.975C56.4334 35.3187 52.2219 31.9808 47.5657 32.5196C42.9094 33.0584 39.5715 37.2698 40.1103 41.926C40.6491 46.5823 44.8605 49.9202 49.5168 49.3814Z" fill="#444444"/>
<path d="M55.816 40.11C55.3512 36.0928 51.718 33.2123 47.7008 33.6767C43.6834 34.1415 40.8029 37.776 41.2677 41.7934C41.7329 45.8104 45.3671 48.6898 49.3842 48.225C53.401 47.7598 56.2804 44.1269 55.816 40.11ZM58.1295 39.8423C58.7418 45.1369 54.9464 49.9255 49.6519 50.5385C44.357 51.1512 39.5673 47.3558 38.9542 42.0611C38.3415 36.766 42.138 31.9759 47.4331 31.3632C52.728 30.7509 57.5169 34.5474 58.1295 39.8423Z" fill="#1A1A1A"/>
<path d="M52.392 61.6219C57.0651 61.2557 60.5565 57.1707 60.1904 52.4977C59.8243 47.8247 55.7392 44.3333 51.0662 44.6994C46.3932 45.0655 42.9018 49.1505 43.2679 53.8235C43.634 58.4966 47.719 61.988 52.392 61.6219Z" fill="#444444"/>
<path d="M59.0294 52.5896C58.7136 48.558 55.1894 45.5449 51.1578 45.8604C47.126 46.1763 44.1129 49.7016 44.4288 53.7335C44.7451 57.765 48.2702 60.7769 52.3018 60.461C56.333 60.1448 59.3449 56.6208 59.0294 52.5896ZM61.3513 52.4077C61.7672 57.7213 57.7972 62.3661 52.4837 62.7829C47.1698 63.1992 42.5237 59.2292 42.107 53.9154C41.6906 48.6012 45.6618 43.9549 50.9759 43.5386C56.2898 43.1226 60.9349 47.0937 61.3513 52.4077Z" fill="#1A1A1A"/>
<path d="M40.8046 72.7571C45.4777 72.391 48.9691 68.306 48.603 63.633C48.2368 58.96 44.1518 55.4685 39.4788 55.8346C34.8058 56.2008 31.3144 60.2858 31.6805 64.9588C32.0466 69.6318 36.1316 73.1232 40.8046 72.7571Z" fill="#444444"/>
<path d="M47.442 63.7248C47.1262 59.6932 43.602 56.6802 39.5704 56.9956C35.5386 57.3115 32.5255 60.8369 32.8414 64.8687C33.1577 68.9002 36.6828 71.9121 40.7144 71.5963C44.7456 71.28 47.7575 67.7561 47.442 63.7248ZM49.7639 63.5429C50.1797 68.8565 46.2098 73.5014 40.8963 73.9181C35.5824 74.3344 30.9363 70.3644 30.5196 65.0506C30.1032 59.7365 34.0744 55.0902 39.3885 54.6738C44.7024 54.2579 49.3475 58.229 49.7639 63.5429Z" fill="#1A1A1A"/>
<path d="M16.8754 74.0955C21.5485 73.7294 25.0399 69.6444 24.6738 64.9713C24.3077 60.2983 20.2226 56.8069 15.5496 57.173C10.8766 57.5391 7.38518 61.6242 7.75129 66.2972C8.11741 70.9702 12.2024 74.4616 16.8754 74.0955Z" fill="#444444"/>
<path d="M23.5128 65.0632C23.197 61.0316 19.6728 58.0186 15.6412 58.334C11.6094 58.6499 8.5963 62.1753 8.91219 66.2071C9.22845 70.2386 12.7536 73.2505 16.7852 72.9347C20.8164 72.6184 23.8283 69.0945 23.5128 65.0632ZM25.8347 64.8813C26.2505 70.1949 22.2806 74.8398 16.9671 75.2565C11.6532 75.6728 7.00708 71.7028 6.59035 66.389C6.174 61.0749 10.1452 56.4285 15.4593 56.0122C20.7732 55.5963 25.4183 59.5674 25.8347 64.8813Z" fill="#1A1A1A"/>
<path d="M27.6025 83.1365C32.2755 82.7704 35.7669 78.6854 35.4008 74.0124C35.0347 69.3393 30.9497 65.8479 26.2767 66.214C21.6037 66.5802 18.1122 70.6652 18.4783 75.3382C18.8445 80.0112 22.9295 83.5026 27.6025 83.1365Z" fill="#444444"/>
<path d="M34.2404 74.1042C33.9245 70.0726 30.4003 67.0596 26.3688 67.375C22.3369 67.6909 19.3238 71.2163 19.6397 75.2481C19.956 79.2796 23.4811 82.2915 27.5127 81.9757C31.5439 81.6594 34.5558 78.1355 34.2404 74.1042ZM36.5622 73.9223C36.9781 79.2359 33.0081 83.8808 27.6946 84.2975C22.3807 84.7138 17.7346 80.7438 17.3179 75.43C16.9015 70.1159 20.8727 65.4696 26.1869 65.0532C31.5007 64.6373 36.1459 68.6084 36.5622 73.9223Z" fill="#1A1A1A"/>
<path d="M36.5029 55.8174L36.6212 55.8234C37.2086 55.8829 37.6674 56.3788 37.6674 56.9819C37.6674 57.5849 37.2086 58.0809 36.6212 58.1403L36.5029 58.1463L29.2704 58.1463C28.6273 58.1463 28.106 57.625 28.106 56.9819C28.106 56.3387 28.6273 55.8174 29.2704 55.8174L36.5029 55.8174Z" fill="#D9D9D9"/>
<path d="M41.9628 51.353C42.7309 51.3536 43.3526 51.9764 43.3526 52.7446C43.3525 53.5128 42.731 54.1357 41.9628 54.1361H38.3354C37.567 54.136 36.944 53.5129 36.9438 52.7446C36.9439 51.9761 37.567 51.3532 38.3354 51.353H41.9628Z" fill="#D9D9D9"/>
<path d="M22.8228 51.353C22.0547 51.3536 21.4331 51.9764 21.4331 52.7446C21.4332 53.5128 22.0547 54.1357 22.8228 54.1361H26.4503C27.2186 54.136 27.8416 53.5129 27.8418 52.7446C27.8418 51.9761 27.2186 51.3532 26.4503 51.353H22.8228Z" fill="#D9D9D9"/>
</svg>
