<svg width="75" height="86" viewBox="0 0 75 86" fill="none" xmlns="http://www.w3.org/2000/svg">
<path d="M6.53684 59.3885C-5.86403 43.2535 7.67181 37.751 16.8525 36.1999C17.281 36.127 17.7127 36.1099 18.1474 36.1347L64.0727 38.8022C68.049 39.2633 69.7973 39.1344 71.1527 40.6373C73.2301 42.943 71.9803 46.0498 69.4076 47.7856C68.0521 48.6986 67.5739 50.5928 68.5055 51.9343C69.7926 53.7865 71.4229 55.5457 72.4709 57.6744C73.2891 59.3388 72.7612 61.351 71.2925 62.4828C70.6636 62.9673 70.0767 63.3011 69.4991 63.5619C67.2245 64.5898 65.2822 66.7308 66.4048 68.9604C67.0507 70.2444 67.9822 70.9634 68.7306 72.1682C77.5123 86.2925 33.003 84.0303 11.4059 80.8288C6.33655 80.0758 0.694284 76.41 2.72513 71.704C3.52628 69.847 4.98265 68.2664 6.43126 66.7976C8.45744 64.7435 8.29442 61.6755 6.53684 59.3885Z" fill="white"/>
<path d="M18.213 34.9716L64.14 37.6402L64.1733 37.6417L64.2067 37.6448L66.7843 37.9131C67.5563 37.9929 68.2373 38.0742 68.816 38.1861C70.0743 38.4292 71.1155 38.8578 72.0168 39.857L71.0813 40.7015L71.1526 40.6378L72.0184 39.8585C73.3476 41.3343 73.6202 43.1134 73.1419 44.7514C72.6769 46.3434 71.5242 47.7628 70.0594 48.7512C69.1698 49.3504 68.9493 50.5313 69.462 51.2697L69.9441 51.9414C70.436 52.606 70.9563 53.2609 71.5104 54.0035C72.224 54.9598 72.9436 56.0001 73.5149 57.1603L71.4255 58.1883C70.9488 57.2201 70.3292 56.3153 69.6439 55.3969C68.9841 54.5127 68.2037 53.5409 67.5485 52.5979C66.1987 50.6537 66.9349 48.0464 68.7554 46.8196C69.8628 46.0724 70.6215 45.0708 70.9054 44.0994C71.1757 43.174 71.0343 42.2468 70.2868 41.4172C69.833 40.9141 69.3229 40.6558 68.3748 40.4726C67.3331 40.2712 66.0491 40.2012 63.9853 39.9631L18.0796 37.2976C17.7199 37.2771 17.3778 37.2916 17.0485 37.3476C14.8114 37.7256 12.3321 38.3415 10.0708 39.2838C7.80011 40.2302 5.82279 41.4752 4.49707 43.0699C3.20001 44.6301 2.49024 46.5635 2.7822 49.0393C3.07992 51.5626 4.43039 54.7363 7.45981 58.6781C9.4841 61.3125 9.78745 65.0521 7.25966 67.6148C5.80609 69.0886 4.49835 70.5314 3.79353 72.165C3.39395 73.091 3.38657 73.9147 3.6222 74.6578C3.86523 75.4236 4.39216 76.1789 5.17786 76.8806C6.76395 78.297 9.21587 79.3258 11.5764 79.6765C22.3283 81.2704 38.7674 82.627 51.3868 81.8341C57.7386 81.435 62.9348 80.4995 65.9731 78.9002C67.481 78.1064 68.2819 77.24 68.5674 76.365C68.8422 75.5222 68.7313 74.3766 67.741 72.7837L69.7197 71.554C70.9241 73.4914 71.3436 75.3642 70.7811 77.0883C70.2289 78.7804 68.8244 80.0305 67.0572 80.9608C63.5449 82.8095 57.9097 83.7578 51.5324 84.1585C38.6936 84.9651 22.0802 83.5888 11.2352 81.9812C8.52657 81.5788 5.62132 80.3978 3.62675 78.6167C2.62259 77.7198 1.80306 76.6294 1.4009 75.3613C0.991451 74.0701 1.04005 72.67 1.65563 71.2432C2.55312 69.1629 4.15878 67.444 5.60241 65.9803C7.12683 64.4349 7.10361 62.0369 5.61302 60.0973C2.44261 55.9721 0.83506 52.4069 0.469931 49.3123C0.0993746 46.1705 1.02223 43.6068 2.70639 41.5809C4.36196 39.5895 6.71471 38.1596 9.17619 37.1338C11.6468 36.1043 14.3046 35.4511 16.6573 35.0535C17.1841 34.9639 17.7043 34.9426 18.213 34.9716ZM73.5149 57.1603C74.592 59.3513 73.8844 61.956 72.0032 63.4057C71.2973 63.9495 70.6306 64.3268 69.9775 64.6217L69.979 64.6233C68.9808 65.0743 68.1225 65.744 67.6455 66.4579C67.2523 67.0468 67.1383 67.6136 67.3392 68.1895L67.4454 68.4366L67.6516 68.8096C67.8708 69.1676 68.1275 69.4912 68.4249 69.8497C68.8085 70.3122 69.2931 70.8671 69.7197 71.554L67.741 72.7837C67.4194 72.2659 67.0633 71.8562 66.6327 71.3372C66.2153 70.834 65.7488 70.25 65.3636 69.4843C64.5744 67.9167 64.8998 66.3747 65.7093 65.163C66.4915 63.9923 67.7429 63.0773 69.0192 62.5005C69.5211 62.2739 70.0294 61.9853 70.581 61.5605C71.6372 60.7465 71.9847 59.3261 71.4255 58.1883L73.5149 57.1603Z" fill="#1A1A1A"/>
<path d="M57.7303 33.6721C40.5846 21.3286 25.3284 27.8358 16.7191 35.5834C13.6728 38.3253 12.041 42.5702 13.5331 46.3881C17.5311 56.62 31.3449 59.3868 38.8161 59.3868C49.905 58.9924 56.8546 54.1342 60.8604 49.026C64.6892 44.1461 62.7639 37.2975 57.7303 33.6721Z" fill="#FFD966"/>
<path d="M33.8506 25.9424C41.2004 24.8427 49.6049 26.3881 58.4107 32.7275C63.8236 36.6264 66.1236 44.2031 61.7768 49.7443C57.5729 55.1051 50.3104 60.1431 38.8573 60.5506L38.8148 59.3649V59.3861L38.8573 60.5506H38.8148C34.9621 60.5505 29.4883 59.8418 24.4363 57.8047C19.3893 55.7695 14.6079 52.3413 12.4474 46.8119C10.7291 42.4147 12.6471 37.6818 15.9393 34.7184C20.366 30.7347 26.5353 27.0368 33.8506 25.9424ZM57.0491 34.6168C48.7093 28.6129 40.9119 27.2406 34.1948 28.2455C27.4439 29.2557 21.6804 32.6848 17.498 36.4484C14.6978 38.9688 13.3515 42.7259 14.6171 45.9643C16.4545 50.6666 20.5796 53.7378 25.3066 55.644C30.0242 57.5463 35.1878 58.2189 38.8057 58.2201C49.5115 57.8306 56.1398 53.1576 59.9436 48.3069L60.2393 47.9066C63.0593 43.8449 61.6559 38.2402 57.4767 34.9397L57.0491 34.6168Z" fill="#1A1A1A"/>
<path d="M45.1913 42.3076C46.1557 42.3077 46.9371 43.0893 46.9373 44.0537C46.9373 45.0183 46.1558 45.8006 45.1913 45.8007C44.2266 45.8007 43.4442 45.0183 43.4442 44.0537C43.4444 43.0892 44.2267 42.3076 45.1913 42.3076ZM46.9862 37.6269C47.6998 37.2487 48.5572 37.3807 48.9012 37.9208C49.2451 38.461 48.9466 39.2055 48.2332 39.5839L48.2303 39.5849C48.2291 39.5856 48.2275 39.5877 48.2254 39.5888C48.2199 39.5917 48.2097 39.5959 48.1991 39.6015C48.1778 39.6128 48.147 39.6293 48.1073 39.6503C48.0267 39.693 47.9103 39.7551 47.7664 39.831C47.4783 39.9831 47.079 40.1934 46.6375 40.4248C45.7593 40.885 44.6929 41.4389 43.993 41.788L43.8573 41.8486C43.1663 42.1273 42.403 41.9596 42.1014 41.4423C41.7799 40.8904 42.1057 40.1493 42.8299 39.788L44.037 39.1738C44.4882 38.9405 44.9671 38.6905 45.4071 38.4599C45.8442 38.2308 46.2394 38.0229 46.5252 37.872L46.9549 37.6435C46.9653 37.638 46.9741 37.6336 46.9793 37.6308C46.9815 37.6296 46.983 37.6285 46.9842 37.6279L46.9862 37.6269Z" fill="#1A1A1A"/>
<path d="M31.2476 42.3074C30.2829 42.3074 29.5005 43.0898 29.5005 44.0545C29.5005 45.0192 30.2829 45.8016 31.2476 45.8016C32.2121 45.8014 32.9937 45.019 32.9937 44.0545C32.9937 43.0899 32.2121 42.3076 31.2476 42.3074ZM29.4527 37.6277C28.739 37.2494 27.8808 37.3806 27.5367 37.9207C27.1928 38.4608 27.4915 39.2053 28.2046 39.5838L28.2085 39.5858C28.2098 39.5865 28.2114 39.5876 28.2134 39.5887C28.2189 39.5916 28.2282 39.5967 28.2388 39.6024C28.26 39.6136 28.2909 39.6302 28.3306 39.6512C28.4112 39.6938 28.5284 39.7558 28.6724 39.8319C28.9606 39.984 29.3599 40.1933 29.8013 40.4246C30.6795 40.8849 31.745 41.4388 32.4449 41.7879L32.5816 41.8494C33.2725 42.128 34.036 41.9595 34.3374 41.4422C34.6585 40.8903 34.332 40.15 33.6079 39.7889L32.4009 39.1736C31.9499 38.9404 31.4716 38.6903 31.0318 38.4598C30.5944 38.2306 30.1985 38.0228 29.9126 37.8719L29.4829 37.6434C29.4727 37.638 29.4638 37.6344 29.4585 37.6317C29.4564 37.6305 29.4548 37.6284 29.4536 37.6277H29.4527Z" fill="#1A1A1A"/>
<rect x="31.5527" y="48.1094" width="12.5461" height="5.4761" fill="white"/>
<path d="M41.8955 47.0308C44.0033 47.0312 45.7108 48.7393 45.7109 50.8472C45.7108 52.955 44.0033 54.6641 41.8955 54.6646H33.7559C31.6478 54.6644 29.9396 52.9552 29.9395 50.8472C29.9396 48.7392 31.6479 47.0309 33.7559 47.0308H41.8955ZM38.9893 52.8013H40.3193V48.8921H38.9893V52.8013ZM35.3311 52.8013H36.6602L36.6611 48.8921H35.3311V52.8013ZM33.002 49.0435C32.297 49.3387 31.8019 50.0354 31.8018 50.8472C31.8018 51.6589 32.2971 52.3547 33.002 52.6499V49.0435ZM42.6484 52.6499C43.3535 52.3548 43.8495 51.6591 43.8496 50.8472C43.8495 50.0352 43.3536 49.3386 42.6484 49.0435V52.6499Z" fill="#1A1A1A"/>
<path d="M44.2496 36.0181C47.2509 36.0181 49.6839 34.6454 49.6839 32.952C49.6839 31.2585 47.2509 29.8857 44.2496 29.8857C41.2484 29.8857 38.8154 31.2585 38.8154 32.952C38.8154 34.6454 41.2484 36.0181 44.2496 36.0181Z" fill="white"/>
</svg>
