<svg width="75" height="86" viewBox="0 0 75 86" fill="none" xmlns="http://www.w3.org/2000/svg">
<path d="M53.3818 15.0374C47.5236 14.0903 34.1337 15.0374 28.2755 30.1856L24.9619 44.1771C27.4725 42.2845 33.2967 41.5471 38.3179 41.5471C55.0554 41.5471 60.2159 44.3867 65.0979 44.3867C72.6298 25.4519 59.2398 15.9829 53.3818 15.0374Z" fill="#757575"/>
<path d="M58.7803 42.7676C58.6893 43.0079 58.5932 43.2477 58.4922 43.4854L57.0625 42.8789C57.1554 42.6604 57.2434 42.439 57.3271 42.2178L58.7803 42.7676ZM46.8994 40.5908C46.8763 40.8437 46.8553 41.0974 46.835 41.3506L45.2881 41.2256C45.3089 40.9665 45.3308 40.7068 45.3545 40.4482L46.8994 40.5908ZM59.6475 39.8125C59.5397 40.3131 59.4141 40.8111 59.2695 41.3047L57.7793 40.8701C57.913 40.4137 58.0298 39.9505 58.1299 39.4854L59.6475 39.8125ZM33.6348 39.666C33.6083 39.9109 33.5852 40.1563 33.5654 40.4023L32.0186 40.2783C32.0395 40.018 32.0638 39.7582 32.0918 39.499L33.6348 39.666ZM47.2441 37.5586C47.1763 38.0615 47.1131 38.5671 47.0557 39.0732L45.5137 38.8975C45.5723 38.3805 45.6358 37.8641 45.7051 37.3506L47.2441 37.5586ZM60.0898 36.7793C60.0487 37.2879 59.9922 37.7962 59.9189 38.3018L58.3828 38.0781C58.4512 37.606 58.5033 37.1307 58.542 36.6533L60.0898 36.7793ZM34.1152 36.7441C34.0082 37.2258 33.9152 37.7109 33.835 38.1982L32.3037 37.9463C32.3886 37.4306 32.4873 36.9169 32.6006 36.4072L34.1152 36.7441ZM47.7139 34.543C47.6255 35.0418 47.5425 35.5438 47.4639 36.0479L45.9297 35.8086C46.01 35.2938 46.0954 34.7808 46.1855 34.2715L47.7139 34.543ZM34.918 33.8936C34.7581 34.3614 34.611 34.8339 34.4775 35.3086L32.9834 34.8887C33.1247 34.3863 33.2791 33.8865 33.4482 33.3916L34.918 33.8936ZM60.1611 33.7275C60.177 34.235 60.1803 34.7437 60.1689 35.252L58.6162 35.2178C58.627 34.7382 58.6235 34.2565 58.6084 33.7754L60.1611 33.7275ZM48.3086 31.5469C48.2003 32.0412 48.0954 32.5402 47.9961 33.042L46.4736 32.7402C46.575 32.2283 46.6796 31.7192 46.79 31.2148L48.3086 31.5469ZM36.0273 31.1484C35.8172 31.5971 35.6191 32.0502 35.4346 32.5068L33.9961 31.9248C34.191 31.4426 34.3983 30.9637 34.6201 30.4902L36.0273 31.1484ZM59.917 30.6963C59.9809 31.1976 60.0342 31.7024 60.0752 32.208L58.5264 32.334C58.4874 31.8531 58.4379 31.3721 58.377 30.8936L59.917 30.6963ZM49.0215 28.5801C48.8935 29.0683 48.7692 29.5623 48.6494 30.0605L47.1396 29.6973C47.262 29.1885 47.3888 28.6843 47.5195 28.1855L49.0215 28.5801ZM37.4258 28.5342C37.1689 28.9593 36.9236 29.3892 36.6914 29.8232L35.3223 29.0908C35.5673 28.6328 35.8249 28.1787 36.0957 27.7305L37.4258 28.5342ZM59.4082 27.709C59.5123 28.2004 59.6071 28.6979 59.6924 29.1973L58.1631 29.459C58.0814 28.9806 57.9896 28.5043 57.8896 28.0322L59.4082 27.709ZM39.0879 26.0752C38.7887 26.4732 38.5003 26.8756 38.2246 27.2832L36.9395 26.415C37.2298 25.9858 37.533 25.5611 37.8477 25.1426L39.0879 26.0752ZM49.8564 25.6445C49.7083 26.1251 49.5654 26.6137 49.4248 27.1074L47.9307 26.6816C48.0742 26.1775 48.2227 25.6796 48.374 25.1885L49.8564 25.6445ZM58.6738 24.7783C58.8122 25.2582 58.9449 25.7452 59.0684 26.2373L57.5605 26.6152C57.4417 26.1413 57.3152 25.6712 57.1816 25.208L58.6738 24.7783ZM40.9873 23.7871C40.6505 24.1557 40.3244 24.5304 40.0098 24.9092L38.8145 23.918C39.1448 23.5203 39.4877 23.1276 39.8408 22.7412L40.9873 23.7871ZM50.8213 22.752C50.6518 23.2233 50.485 23.7047 50.3223 24.1934L48.8496 23.7021C49.0162 23.202 49.1866 22.7097 49.3604 22.2266L50.8213 22.752ZM57.7432 21.9082C57.9113 22.3747 58.0753 22.8511 58.2324 23.335L56.7559 23.8145C56.604 23.3466 56.445 22.8861 56.2822 22.4346L57.7432 21.9082ZM43.0938 21.6826C42.7241 22.0202 42.3645 22.3636 42.0156 22.7119L40.9189 21.6143C41.2843 21.2495 41.6613 20.8892 42.0479 20.5361L43.0938 21.6826ZM51.9248 19.916C51.732 20.3742 51.5415 20.845 51.3545 21.3262L49.9062 20.7637C50.0984 20.2694 50.2945 19.7844 50.4932 19.3125L51.9248 19.916ZM56.6328 19.1055C56.8278 19.5566 57.0205 20.0211 57.209 20.4971L55.7656 21.0684C55.5831 20.6076 55.3968 20.1574 55.208 19.7207L56.6328 19.1055ZM45.3789 19.7695C44.9815 20.0751 44.5939 20.3865 44.2158 20.7031L43.2178 19.5127C43.6127 19.182 44.0181 18.8568 44.4326 18.5381L45.3789 19.7695ZM47.8154 18.0459C47.3949 18.3194 46.9827 18.5981 46.5801 18.8828L45.6836 17.6152C46.1031 17.3187 46.5322 17.0277 46.9697 16.7432L47.8154 18.0459ZM53.1895 17.1582C52.9693 17.5977 52.7498 18.0551 52.5342 18.5264L51.123 17.8789C51.3458 17.3922 51.5723 16.9201 51.8008 16.4639L53.1895 17.1582ZM55.3486 16.376C55.5698 16.8087 55.7935 17.2609 56.0146 17.7314L54.6084 18.3926C54.3946 17.9377 54.18 17.5004 53.9668 17.083L55.3486 16.376ZM50.3828 16.5078C49.942 16.7505 49.5092 16.999 49.085 17.2529L48.2871 15.9209C48.7274 15.6574 49.1769 15.4 49.6338 15.1484L50.3828 16.5078ZM54.6377 15.042L54.1953 15.2891C54.0942 15.4635 53.9922 15.6414 53.8916 15.8232L53.5635 15.6416L53.2822 15.7988C53.1947 15.6419 53.1057 15.4896 53.0195 15.3408L52.5332 15.0703C52.6624 14.837 52.7924 14.6086 52.9229 14.3857L53.5928 14.7783L54.2627 14.3857C54.3861 14.5967 54.5116 14.816 54.6377 15.042ZM52.3779 15.4775C52.1521 15.587 51.928 15.6982 51.7061 15.8105L51.0039 14.4248C51.2341 14.3083 51.4681 14.1926 51.7021 14.0791L52.3779 15.4775Z" fill="#2C2C2C"/>
<path d="M53.1304 10.481L55.2564 10.77C56.7154 10.9686 57.772 12.3166 57.6167 13.7808C57.5644 14.2719 57.38 14.712 57.106 15.0747C59.8843 16.423 62.979 18.8396 65.2388 22.3335C68.5978 27.527 70.0739 35.0279 66.1802 44.8169L66.103 44.9761C65.8964 45.3288 65.5147 45.5503 65.0972 45.5503C63.7575 45.5502 62.1095 45.2937 60.2651 44.9546C58.3752 44.6071 56.2775 44.1741 53.8648 43.7603C49.0824 42.9401 43.2911 42.2452 36.7261 42.7095C35.0369 42.8288 32.7933 42.9651 30.6577 43.3022C28.4678 43.648 26.6356 44.1729 25.6323 44.9292L25.479 45.0259C25.1076 45.2238 24.6512 45.2074 24.2915 44.9712C23.8812 44.7011 23.6848 44.2026 23.8003 43.7251L27.1431 29.9116C27.1551 29.8621 27.1716 29.8137 27.19 29.7661C30.2368 21.8875 35.2832 17.6319 40.3784 15.5015C43.8921 14.0324 47.3994 13.5861 50.2505 13.6177C50.193 13.3458 50.1749 13.0618 50.2056 12.7729C50.3614 11.3088 51.6712 10.2826 53.1304 10.481ZM53.1958 16.187C50.432 15.7402 45.8474 15.7395 41.2778 17.6499C36.7628 19.5376 32.2005 23.3139 29.3872 30.5405L26.647 41.856C27.7949 41.4615 29.0689 41.1961 30.2954 41.0024C32.5526 40.6461 34.9105 40.5019 36.562 40.3853C43.3864 39.9026 49.3811 40.6281 54.2573 41.4644C56.6736 41.8788 58.8746 42.3326 60.6851 42.6655C62.1277 42.9308 63.3288 43.1185 64.3091 43.1899C67.5691 34.435 66.1182 27.9822 63.2827 23.5981C60.3115 19.0045 55.7782 16.6039 53.1958 16.187Z" fill="#1A1A1A"/>
<path d="M26.9594 29.0678C21.8113 31.6 20.2368 36.503 24.8935 44.3697C26.9594 43.4227 32.8931 41.7894 37.4467 41.5302C43.7971 41.1669 47.4891 41.5301 55.0208 42.4772C49.8857 26.9952 32.1075 26.5341 26.9594 29.0678Z" fill="#85E0A3"/>
<path d="M32.7607 26.7531C35.3468 26.6787 38.338 26.9963 41.3324 27.9024C47.3394 29.72 53.4148 33.933 56.1271 42.1103C56.253 42.4897 56.1747 42.9082 55.9209 43.2171C55.6672 43.5256 55.2726 43.6822 54.8762 43.6325L55.0217 42.4772H55.0202L54.8762 43.6325C47.3656 42.6881 43.7561 42.3353 37.5128 42.6925C35.3311 42.8167 32.7838 43.2739 30.512 43.8235C28.2269 44.3764 26.3112 45.0005 25.3793 45.4276C24.8374 45.676 24.1954 45.4751 23.8918 44.9622C21.4976 40.9175 20.5773 37.4304 21.1033 34.5113C21.6411 31.527 23.6373 29.405 26.4452 28.0237C27.9383 27.2888 30.1995 26.8269 32.7607 26.7531ZM32.8274 29.0804C30.4468 29.149 28.5542 29.5809 27.4733 30.1129C25.1339 31.2638 23.7682 32.8589 23.3959 34.9252C23.0417 36.8922 23.5456 39.5099 25.402 42.9047C26.5782 42.4694 28.1992 41.9867 29.9631 41.5599C32.3127 40.9914 35.0093 40.5033 37.3809 40.3682C43.266 40.0316 46.9235 40.3125 53.2431 41.0838C50.5876 34.9259 45.654 31.6429 40.6577 30.1311C37.9223 29.3035 35.183 29.0126 32.8274 29.0804Z" fill="#1A1A1A"/>
</svg>
