<svg width="75" height="86" viewBox="0 0 75 86" fill="none" xmlns="http://www.w3.org/2000/svg">
<path d="M19.6983 32.1142C27.6461 34.6759 34.1757 34.0704 37.5377 34.0704C40.8089 34.0704 50.745 32.58 54.4198 30.4064C54.8465 30.158 55.0344 29.6458 54.9344 29.1645C52.9157 19.3679 42.9439 12.4902 35.5143 13.2354C28.6627 13.903 19.2909 19.2902 18.7796 30.8101C18.7533 31.4001 19.1334 31.9279 19.6983 32.1142Z" fill="#5C806D"/>
<path d="M36.9053 12.0547C41.4375 13.351 46.8783 18.8547 48.0312 29.0811L45.7178 29.3418C44.7713 20.9472 40.8097 16.4342 37.5596 14.8047C37.3946 18.7352 37.3325 25.4823 38.0557 29.4043L35.7656 29.8252C35.0116 25.7353 35.0631 18.9999 35.2217 14.9834C31.6665 16.7822 27.0685 21.3532 27.0684 28.9473H24.7393C24.7394 18.8513 31.8942 13.3192 36.2646 12.0693L36.582 13.1816L36.9053 12.0547Z" fill="#517361"/>
<path d="M35.3986 12.0765C39.4909 11.6662 44.1307 13.3493 47.9673 16.3262C51.8207 19.3163 54.9999 23.7128 56.0751 28.927L56.1039 29.0984C56.2169 29.9533 55.8699 30.9037 55.0106 31.4075L55.0121 31.409C52.9811 32.6101 49.3939 33.554 46.0477 34.1972C42.6654 34.8473 39.2808 35.2342 37.5381 35.2343C34.2631 35.2343 27.5061 35.8541 19.3408 33.2223L19.3332 33.2208C18.2968 32.879 17.5661 31.8945 17.6167 30.7586C18.1614 18.4856 28.1644 12.7841 35.3986 12.078V12.0765ZM46.539 18.1669C43.0279 15.4425 38.9675 14.06 35.6306 14.3947H35.6275C29.1587 15.025 20.4206 20.0965 19.9428 30.8617C19.9408 30.9046 19.9688 30.9739 20.058 31.0057C27.7873 33.4965 34.0895 32.9054 37.5381 32.9054C39.067 32.9054 42.2864 32.5492 45.6079 31.9108C48.9445 31.2695 52.1415 30.3863 53.7945 29.4213C53.7946 29.4151 53.7959 29.4084 53.7945 29.4016L53.793 29.4001C52.849 24.8188 50.033 20.8781 46.539 18.1669Z" fill="#1A1A1A"/>
<path d="M16.6702 33.5893C16.58 32.4715 16.6587 31.2139 16.8038 30.065C17.006 28.4659 18.6391 27.5654 20.214 27.907C30.201 30.0184 45.8471 28.8541 54.3577 27.8139C55.6107 27.6587 56.8215 28.3571 57.0847 29.5836C57.2636 30.422 57.3876 31.307 57.4921 32.1143C57.6875 33.6358 56.706 35.1574 55.2101 35.4834C42.6663 38.2314 30.4863 37.362 18.6595 35.53C17.6257 35.3748 16.7536 34.6451 16.6702 33.5893Z" fill="#5C806D"/>
<path d="M31.5264 28.6985C31.5264 29.5141 31.4413 30.8872 31.3457 32.3528C31.2485 33.8425 31.1381 35.464 31.0811 36.8362L28.7549 36.7385C28.8134 35.332 28.9253 33.6767 29.0215 32.2014C29.1193 30.7021 29.1973 29.4197 29.1973 28.6985H31.5264ZM45.0713 28.6985C45.0713 29.4197 45.1493 30.7021 45.2471 32.2014C45.3433 33.6767 45.4571 35.332 45.5156 36.7385L43.1875 36.8362C43.1305 35.464 43.021 33.8425 42.9238 32.3528C42.8282 30.8871 42.7422 29.5141 42.7422 28.6985H45.0713ZM35.8643 28.6292C35.9132 29.4373 35.9097 30.81 35.9023 32.2766C35.8949 33.7683 35.8828 35.3936 35.9082 36.7659L33.5791 36.8088C33.5531 35.4023 33.5658 33.7431 33.5732 32.2659C33.5808 30.7645 33.5813 29.4822 33.5381 28.7688L35.8643 28.6292ZM40.6885 28.6292C40.7374 29.4373 40.7329 30.81 40.7256 32.2766C40.7181 33.7683 40.707 35.3936 40.7324 36.7659L38.4033 36.8088C38.3773 35.4023 38.3891 33.7431 38.3965 32.2659C38.404 30.7645 38.4055 29.4822 38.3623 28.7688L40.6885 28.6292ZM49.4014 28.5549C49.5513 29.7541 49.8798 32.8154 49.9971 35.637L47.6699 35.7336C47.5562 32.9979 47.236 30.0044 47.0908 28.843L49.4014 28.5549ZM53.8838 28.5549C54.0337 29.7541 54.362 32.8154 54.4795 35.637L52.1523 35.7336C52.0385 32.9979 51.7184 30.0044 51.5732 28.843L53.8838 28.5549ZM22.6943 28.6877C22.5491 29.8489 22.229 32.8425 22.1152 35.5784L19.7891 35.4817C19.9064 32.6601 20.2338 29.5988 20.3838 28.3997L22.6943 28.6877ZM27.1777 28.6877C27.0325 29.8489 26.7124 32.8425 26.5986 35.5784L24.2725 35.4817C24.3898 32.66 24.7172 29.5988 24.8672 28.3997L27.1777 28.6877Z" fill="#517361"/>
<path d="M54.2141 26.6582C55.9406 26.4443 57.8084 27.4068 58.2232 29.3388V29.3403C58.318 29.7845 58.3983 30.2383 58.4674 30.6821L58.6478 31.9648V31.9663C58.8962 33.9026 57.7554 35.8898 55.8502 36.5148L55.459 36.6209C42.7123 39.4132 30.3696 38.5204 18.4866 36.68C17.06 36.4656 15.6473 35.4086 15.5101 33.6826C15.411 32.4548 15.4977 31.1103 15.6481 29.9195C15.9554 27.4899 18.3756 26.3224 20.4533 26.7689L20.4548 26.7674C30.2313 28.8344 45.7012 27.7001 54.2141 26.6598V26.6582ZM54.5007 28.9689H54.4992C45.9906 30.0088 30.1706 31.2017 19.9742 29.0462L19.9681 29.0447C18.8979 28.8126 18.056 29.4451 17.959 30.2106C17.8366 31.1792 17.768 32.1967 17.8073 33.111L17.8316 33.4961V33.4976C17.862 33.8818 18.1923 34.2823 18.8324 34.3785H18.8384C30.6074 36.2015 42.6227 37.0483 54.9616 34.3452H54.9632C55.8158 34.1589 56.4618 33.2401 56.3369 32.2635C56.259 31.661 56.1733 31.0352 56.064 30.4274L55.9457 29.827C55.8336 29.3066 55.2797 28.8723 54.5007 28.9689Z" fill="#1A1A1A"/>
</svg>
