<svg width="80" height="86" viewBox="0 0 80 86" fill="none" xmlns="http://www.w3.org/2000/svg">
<path fill-rule="evenodd" clip-rule="evenodd" d="M18.4571 38.6848C15.5644 39.3741 10.874 40.4904 10.874 46.2426C10.874 50.5013 16.8641 54.6372 31.2328 53.5551C34.1488 53.3362 38.4886 52.945 42.5039 52.0383C49.1511 50.537 49.8172 43.0102 43.6452 40.1225C37.9374 37.4521 29.5963 36.0284 18.5705 38.6584C18.5332 38.6662 18.496 38.6755 18.4571 38.6848ZM22.1262 42.8581C19.2847 43.1267 15.8703 43.4496 15.847 45.5999C15.8175 48.3448 22.1666 49.4176 36.6921 48.3013C44.9231 47.6678 45.614 43.6157 37.3707 42.7664C33.2234 42.3395 28.2765 42.2696 22.4383 42.8286C22.3343 42.8379 22.2302 42.8472 22.1262 42.8581Z" fill="#FFE8A3"/>
<path d="M12.0387 46.2427C12.0387 43.7539 13.02 42.3877 14.2544 41.5167C15.5758 40.5821 17.2496 40.1691 18.7278 39.8167L18.189 37.5515C16.7745 37.8884 14.6566 38.379 12.9098 39.6148C11.074 40.9112 9.70996 42.9792 9.70996 46.2427H12.0387ZM31.1463 52.3938C24.0613 52.9279 19.1827 52.1594 16.1301 50.8335C13.0775 49.5077 12.0387 47.7362 12.0387 46.2427H9.70996C9.70996 49.0077 11.6661 51.4344 15.2016 52.9698C18.7355 54.5053 24.0365 55.2645 31.3218 54.7165L31.1463 52.3938ZM42.2482 50.9019C38.3214 51.7884 34.0546 52.1749 31.1463 52.3938L31.3218 54.7165C34.244 54.496 38.6568 54.1001 42.7606 53.1732L42.2482 50.9019ZM43.1519 41.1767C45.852 42.4405 46.897 44.6125 46.7231 46.4926C46.5492 48.3619 45.1409 50.2498 42.2482 50.9019L42.7606 53.1732C46.515 52.3255 48.7634 49.7002 49.0413 46.7084C49.3192 43.7275 47.6113 40.6923 44.1394 39.0668L43.1519 41.1767ZM18.8411 39.7903C29.6371 37.2161 37.705 38.629 43.1519 41.1767L44.1394 39.0668C38.1708 36.2753 29.5579 34.8408 18.3008 37.5251L18.8411 39.7903ZM18.7278 39.8167C18.765 39.8089 18.8039 39.7996 18.8411 39.7903L18.3008 37.5251C18.2635 37.5344 18.2263 37.5422 18.189 37.5515L18.7278 39.8167ZM17.012 45.6123C17.0136 45.4291 17.071 45.3018 17.2263 45.1605C17.4157 44.9867 17.7527 44.8003 18.2821 44.6326C19.3504 44.2957 20.7773 44.1545 22.2353 44.0163L22.0164 41.6984C20.6329 41.8288 18.9327 41.984 17.5788 42.4125C16.8971 42.6283 16.1984 42.9435 15.6519 43.4434C15.0727 43.9744 14.6938 44.6948 14.683 45.5875L17.012 45.6123ZM36.6025 47.14C29.3592 47.6974 24.243 47.6989 20.9714 47.2456C19.3256 47.0174 18.2542 46.6867 17.6285 46.3265C17.04 45.9896 17.0105 45.7396 17.012 45.6123L14.683 45.5875C14.6705 46.8326 15.4236 47.7471 16.4701 48.3479C17.481 48.927 18.9001 49.3089 20.6516 49.5527C24.1793 50.0417 29.5005 50.0216 36.7811 49.4626L36.6025 47.14ZM37.2516 43.9247C39.2391 44.1296 40.5759 44.5193 41.3569 44.9308C42.2094 45.3794 42.0324 45.6185 42.0572 45.4508C42.0619 45.4105 41.9842 45.7722 40.9594 46.224C40.0278 46.6355 38.5822 46.9879 36.6025 47.14L36.7811 49.4626C38.9192 49.2981 40.6458 48.9068 41.9004 48.3541C43.0634 47.8418 44.186 47.0174 44.363 45.78C44.5571 44.4122 43.523 43.4403 42.4438 42.8705C41.2933 42.2635 39.6241 41.8287 37.4907 41.6083L37.2516 43.9247ZM22.549 43.9868C28.3173 43.4356 33.185 43.5055 37.2516 43.9247L37.4907 41.6083C33.2611 41.172 28.2381 41.1037 22.3285 41.6688L22.549 43.9868ZM22.2353 44.0163C22.3409 44.007 22.445 43.9977 22.549 43.9868L22.3285 41.6688C22.226 41.6781 22.122 41.689 22.0164 41.6984L22.2353 44.0163Z" fill="#FFC21A"/>
<ellipse cx="28.7206" cy="46.2719" rx="28.7206" ry="16.2171" fill="url(#paint0_radial_9800_57763)"/>
<defs>
<radialGradient id="paint0_radial_9800_57763" cx="0" cy="0" r="1" gradientTransform="matrix(9.6348 14.6492 -25.9438 5.44028 28.7206 46.2719)" gradientUnits="userSpaceOnUse">
<stop stop-color="#F7C522" stop-opacity="0.5"/>
<stop offset="1" stop-color="#F7C522" stop-opacity="0"/>
</radialGradient>
</defs>
</svg>
