<svg width="75" height="86" viewBox="0 0 75 86" fill="none" xmlns="http://www.w3.org/2000/svg">
<path d="M10.1133 55.4243L13.3344 51.2368L16.73 52.85L18.7271 56.685L28.4672 56.6074L30.0174 53.3826L33.785 51.2896L37.8917 54.5905H40.3075L51.8224 53.3826L59.2305 54.5905L64.5771 58.6678L67.0196 64.4544L70.1816 70.2131V74.6412L68.4102 79.473L65.9945 81.406L56.666 84.1433L47.8078 80.5195L40.3075 81.406L31.6914 84.1433H28.8731L26.5379 80.5195L13.8956 79.473L6.3264 82.4525L3.50807 80.5195L3.10547 77.7822L7.79783 74.5108L7.28112 67.35L10.1133 55.4243Z" fill="#F79722"/>
<path d="M48.4558 71.5659C49.0529 71.4359 49.7 71.5368 50.2478 71.9038C50.4601 72.0461 50.6182 72.198 50.7019 72.2817C50.7984 72.3783 50.8839 72.4744 50.9519 72.5542C51.0868 72.7124 51.2206 72.884 51.3279 73.0258C51.5959 73.38 51.713 73.5491 51.8025 73.6538L50.5935 74.6841V74.686L51.8025 73.6538L51.8054 73.6567L51.8874 73.7397C51.9747 73.8142 52.1097 73.8913 52.5798 74.2417C53.0508 74.5927 53.847 75.2482 54.2087 76.4067L54.2751 76.6469C54.545 77.7508 54.2849 78.9551 53.8249 79.7807C53.6144 80.1586 53.0926 80.9504 52.0798 81.2622C50.9408 81.6126 50.0019 81.1554 49.4138 80.6128C49.4047 80.6086 49.3942 80.6038 49.3835 80.5991C49.1643 80.5026 48.9088 80.4074 48.5134 80.2534C48.1733 80.1209 47.7196 79.9401 47.3113 79.7241C47.1039 79.6144 46.852 79.466 46.6062 79.2739C46.3765 79.0943 46.0281 78.7814 45.7712 78.3051L45.7722 78.3042C45.3182 77.4628 45.2908 76.6304 45.405 75.9702C45.5046 75.395 45.7292 74.8738 45.822 74.6479C45.8495 74.5809 45.8717 74.5256 45.8894 74.4809C45.6094 73.4596 46.0546 72.344 47.0261 71.8188C47.4808 71.5732 47.9805 71.4989 48.4558 71.5659ZM50.8367 78.9008L49.116 80.3042L51.1667 78.6333L50.8367 78.9008ZM47.3191 77.4702L47.821 77.1997L48.4343 76.8667H48.4333L47.3191 77.4702ZM52.7253 77.3608H52.7273C52.7022 77.3301 52.6648 77.2896 52.6179 77.2436C52.653 77.2818 52.6912 77.319 52.7253 77.3608ZM46.5808 53.5659C47.0987 53.5659 47.5749 53.7379 47.9617 54.0239C48.5505 54.1946 49.0733 54.5939 49.3796 55.1801C49.496 55.4032 49.5609 55.6091 49.5945 55.7221C49.6331 55.8523 49.6644 55.9773 49.6863 56.0796C49.7296 56.2823 49.7637 56.4966 49.7908 56.6723C49.858 57.109 49.8826 57.3142 49.9119 57.4516V57.4536L50.0134 58.0405C50.0977 58.6532 50.1329 59.3323 50.1316 59.9565C50.1298 60.7726 50.0664 61.742 49.8621 62.5239C49.7628 62.9038 49.5569 63.5016 49.0749 64.0063C48.8124 64.2811 48.412 64.5829 47.8621 64.7299C47.2876 64.8835 46.7223 64.8209 46.2458 64.6264C45.4022 64.282 44.9806 63.6042 44.8054 63.27C44.5918 62.8623 44.4653 62.4256 44.3884 62.0229C44.2212 61.1461 44.2517 60.3115 44.2517 59.6841V55.895C44.2517 54.6087 45.2946 53.5659 46.5808 53.5659ZM55.8962 52.0132C56.4787 52.0132 57.0094 52.2301 57.4177 52.5835C57.9375 52.7601 58.3953 53.1156 58.6853 53.6176L58.7937 53.8296L58.9001 54.104C58.9909 54.3749 59.0379 54.6234 59.0593 54.7397C59.1006 54.9639 59.1348 55.2071 59.1628 55.4184C59.2287 55.9157 59.261 56.2201 59.2976 56.4194L59.3962 57.0805C59.4787 57.7771 59.5138 58.5644 59.5124 59.3032C59.5106 60.2734 59.4447 61.3754 59.2517 62.2339L59.2507 62.2358C59.1617 62.6307 58.9817 63.2423 58.5466 63.77C58.3114 64.0552 57.9091 64.4266 57.3025 64.6147C56.646 64.818 55.9973 64.7297 55.4753 64.4829C54.6061 64.0715 54.2201 63.3051 54.0788 62.9926C53.9358 62.6762 53.8336 62.3388 53.7615 62.0063L53.698 61.6762C53.5374 60.7013 53.5671 59.7818 53.5671 58.9731V54.3423C53.5671 53.0561 54.6101 52.0133 55.8962 52.0132Z" fill="#DD7C0E"/>
<path opacity="0.7" d="M12.9995 68.3152C15.0335 68.3154 16.682 69.7597 16.6821 71.5418C16.6821 73.3239 15.0336 74.7692 12.9995 74.7693C10.9653 74.7693 9.31592 73.324 9.31592 71.5418C9.31608 69.7596 10.9654 68.3152 12.9995 68.3152ZM33.1831 68.3152C35.2172 68.3152 36.8665 69.7596 36.8667 71.5418C36.8667 73.324 35.2173 74.7693 33.1831 74.7693C31.149 74.7692 29.5005 73.3239 29.5005 71.5418C29.5006 69.7597 31.1491 68.3154 33.1831 68.3152Z" fill="#E24C0C"/>
<path d="M53.9557 52.0181C55.0102 51.9855 56.0486 52.0347 56.8911 52.2637C60.3947 53.118 63.1705 54.8227 65.1653 57.2567C67.0936 59.6098 68.2373 62.5794 68.6663 65.972C71.8788 68.799 72.4914 73.4142 71.027 77.1255C69.3916 81.2705 65.3873 84.2596 59.7492 84.9721L59.5779 84.9948L59.4308 83.8394V83.847L59.5779 84.9948L59.5203 85.0009L59.2898 85.0069L59.2595 83.844L59.2549 83.7166L59.2898 85.0069C57.1902 85.0612 54.0098 84.7383 51.0399 83.4937C50.1661 83.1275 49.2515 82.6473 48.3668 82.0397C46.5704 81.851 45.0546 81.7003 43.6634 81.5347C41.607 81.2906 39.4083 82.2182 37.3619 83.5134C35.9352 84.4155 34.2239 85.147 32.5509 85.3208C30.9594 85.4861 29.295 85.1473 28.0598 83.85L27.8187 83.5786C27.1715 82.7938 26.7764 81.9716 26.63 81.1375C25.6173 81.2345 24.7157 81.2785 23.455 81.2785C20.3909 81.2785 17.4481 81.0012 14.8715 80.3172C13.6558 81.517 11.6653 82.6152 9.7072 83.1844C8.5636 83.5168 7.33872 83.698 6.19558 83.5741C5.11351 83.4568 4.0401 83.0558 3.23739 82.1898L3.08122 82.0093C2.26285 81.0163 1.89162 79.9408 1.94556 78.8586C1.99839 77.8006 2.45094 76.8623 3.04635 76.0945C3.90879 74.9824 5.17068 74.0985 6.41695 73.5608C6.04283 72.488 5.8499 71.3028 5.84988 70.0052C5.84988 67.5141 5.84762 65.6224 6.39118 62.9577C6.66837 59.8737 7.52337 55.2561 10.1621 51.6799L10.3531 51.4404C11.3516 50.2896 12.9524 49.8033 14.4318 50.2198C15.3984 50.492 16.5748 50.965 17.6614 51.9134C18.6302 52.7593 19.4774 53.9414 20.0586 55.5843C21.0345 55.3183 22.0906 54.996 23.455 54.996C24.8888 54.996 26.2156 55.3083 27.4093 55.6222C27.9633 54.0489 28.7568 52.8893 29.67 52.0408C30.7738 51.0154 31.9874 50.5042 32.9982 50.2198L33.2954 50.1485C34.7856 49.8521 36.3642 50.438 37.2664 51.7103C37.7361 52.3731 38.1366 53.0743 38.4824 53.7921H39.7803C41.02 53.7877 42.5137 53.5754 44.2108 53.3311L44.5429 55.6358C42.8963 55.8728 41.2248 56.116 39.7879 56.121L39.7834 54.4911V54.9565L39.7879 56.121H39.4058C39.5858 56.6794 39.7419 57.2365 39.8743 57.7858C40.0251 58.411 39.6413 59.0406 39.0161 59.1914C38.3909 59.3422 37.7613 58.9569 37.6106 58.3317C37.1585 56.4571 36.4619 54.6039 35.3666 53.0582C34.9907 52.5279 34.2832 52.2781 33.6289 52.4623C32.8518 52.681 32.0074 53.0485 31.2545 53.7481C30.5085 54.4414 29.7861 55.5218 29.3425 57.2734L29.341 57.2718C29.2081 57.7997 28.7332 58.1892 28.1659 58.1892H28.1341C28.115 58.1887 28.0845 58.1867 28.0477 58.1831C27.9984 58.1783 27.9353 58.1657 27.8627 58.1467V58.1513C26.2609 57.7382 24.9442 57.3249 23.455 57.3249C22.1325 57.3249 21.52 57.66 19.9297 58.0254L19.9115 58.0284C19.0645 58.2088 18.2641 57.6848 18.0374 56.8988L17.8524 56.3257C17.3967 55.0539 16.7704 54.2269 16.13 53.6677C15.3894 53.0213 14.5651 52.6776 13.8011 52.4623C13.1518 52.2795 12.4347 52.5243 12.0361 53.0628C9.7915 56.1049 8.98614 60.1776 8.71709 63.123C8.71543 63.1683 8.71056 63.2137 8.70345 63.2595C8.70041 63.294 8.6974 63.3293 8.69435 63.3656C8.68627 63.4618 8.66173 63.5526 8.63218 63.6401C8.18303 65.9386 8.17883 67.5957 8.17883 70.0052C8.17886 71.7215 8.58944 73.0862 9.28872 74.184C9.99116 75.2868 11.0264 76.1852 12.3728 76.8966C15.0988 78.3366 18.9837 78.9496 23.455 78.9496C24.8341 78.9495 25.734 78.8916 26.9044 78.7646C27.0315 78.4635 27.1881 78.1789 27.3684 77.914C28.3696 76.4422 30.1246 75.4495 31.7109 75.0771C32.3368 74.9304 32.9633 75.3186 33.1104 75.9444C33.2573 76.5703 32.8689 77.1967 32.2431 77.3439C31.0848 77.6158 29.8943 78.3416 29.294 79.224C29.0075 79.6451 28.8747 80.0701 28.8937 80.4946C28.9128 80.9165 29.0861 81.4553 29.6155 82.0973C30.2266 82.8389 31.1278 83.1282 32.3098 83.0055C33.5167 82.8801 34.8846 82.3246 36.1171 81.5454C38.2751 80.1795 41.0559 78.8799 43.9394 79.2225C44.4598 79.2844 44.9976 79.3405 45.5633 79.4014C44.6545 78.2012 43.9418 76.7454 43.5861 74.9891C43.079 72.4846 44.6992 70.0449 47.2023 69.5367L47.4328 70.6769L47.6648 71.8187C46.421 72.0714 45.6178 73.2833 45.8696 74.5267C46.6092 78.1781 49.3274 80.2499 51.9406 81.3452C54.5349 82.4324 57.3696 82.7275 59.2277 82.6795L59.3414 82.6765L59.4566 82.6613L59.916 82.5976C64.6084 81.8759 67.6332 79.3843 68.8619 76.2704C70.0694 73.2093 69.4365 69.5936 66.9332 67.555L66.8938 67.5216C66.6093 67.2684 66.4348 66.9202 66.3934 66.5512C66.0362 63.3731 65.0109 60.7433 63.364 58.7335C61.7231 56.7312 59.4082 55.2739 56.3407 54.5259L56.3013 54.5168L56.6167 53.3948L56.6197 53.3796L56.3013 54.5168C55.7985 54.3757 55.0279 54.3161 54.0269 54.347C53.0468 54.3773 51.9307 54.4892 50.7792 54.6427C49.6299 54.7958 48.4655 54.9872 47.3888 55.1688C46.3229 55.3486 45.3226 55.523 44.5429 55.6358L44.3776 54.4835L44.2108 53.3311C44.9548 53.2235 45.9092 53.0558 47.0007 52.8717C48.0818 52.6893 49.28 52.4937 50.4714 52.335C51.6603 52.1765 52.8638 52.0518 53.9557 52.0181ZM7.46468 75.6487C6.51409 76.0355 5.51517 76.7115 4.88707 77.5213C4.49527 78.0264 4.29416 78.5201 4.27147 78.9753C4.25009 79.4062 4.38094 79.9247 4.87797 80.528C5.20303 80.9223 5.71001 81.1789 6.44576 81.2588C7.19264 81.3398 8.09866 81.2265 9.05673 80.948C10.2647 80.5968 11.4112 80.025 12.2818 79.4287C11.9398 79.2802 11.6064 79.1251 11.2856 78.9556C9.73486 78.1364 8.41709 77.0535 7.46468 75.6487ZM47.2023 69.5367C49.706 69.0305 52.1476 70.6486 52.6547 73.153C52.7547 73.6457 53.0819 74.201 54.124 74.7344L54.6168 74.9618L55.1596 75.1665C56.4151 75.5923 57.8152 75.7589 58.8183 75.7609C61.5238 75.3606 62.2415 74.1891 62.4224 73.7306C62.5677 73.3619 62.5488 73.1093 62.5179 72.9725C62.5028 72.9058 62.4828 72.8605 62.4709 72.8376C62.0565 72.4205 62.0143 71.7498 62.3936 71.2834C62.7993 70.785 63.5323 70.7099 64.0311 71.1151C64.3939 71.4102 64.6676 71.9132 64.7907 72.457C64.9259 73.0539 64.9051 73.7846 64.5891 74.5858C64.0537 75.9429 62.5374 77.5903 59.073 78.0792L58.9957 78.0898L58.9183 78.0914L58.3725 78.0823C57.0338 78.0314 55.2705 77.7595 53.7176 77.1088C51.8658 76.3341 50.6929 75.2025 50.3713 73.6139C50.1192 72.3708 48.9078 71.5676 47.6648 71.8187L47.2023 69.5367Z" fill="#1A1A1A"/>
<path opacity="0.7" d="M12.8795 54.8003C13.1567 54.4246 13.647 54.257 14.0963 54.3843C14.6486 54.5397 15.8431 55.6151 16.525 56.7779C16.8012 57.2482 16.4756 57.7869 15.9489 57.9283C14.754 58.2481 13.7963 58.6986 12.6979 59.4996C12.0134 59.9979 11.1208 59.5077 11.3365 58.688C11.7171 57.2441 12.2836 55.6077 12.8795 54.8003ZM34.0358 54.3843C34.4851 54.257 34.9754 54.4246 35.2526 54.8003C35.8484 55.6077 36.415 57.2441 36.7955 58.688C37.0113 59.5077 36.1187 59.9979 35.4342 59.4996C34.3358 58.6986 33.3781 58.2481 32.1832 57.9283C31.6564 57.7869 31.3309 57.2482 31.6071 56.7779C32.289 55.6151 33.4835 54.5397 34.0358 54.3843Z" fill="#E24C0C"/>
<path d="M23.2292 73.75C23.658 73.75 24.0056 74.0975 24.0056 74.5263C24.0056 74.955 23.658 75.3026 23.2292 75.3026H21.7373C21.3085 75.3026 20.9609 74.955 20.9609 74.5263C20.9609 74.0975 21.3085 73.75 21.7373 73.75H23.2292Z" fill="#1A1A1A"/>
<path d="M30.5589 71.7549C30.9626 72.2427 31.6711 72.2995 32.1413 71.8807C32.6113 71.4619 32.6646 70.7268 32.2611 70.2389C31.0323 68.7539 29.6116 68.3202 28.2999 68.5805C27.0937 68.8199 26.1489 69.6112 25.6319 70.245C25.2315 70.7358 25.2903 71.4699 25.7634 71.8853C26.2364 72.3006 26.944 72.2396 27.3443 71.7488C27.6414 71.3847 28.1658 70.9785 28.7207 70.8681C29.1705 70.7788 29.8045 70.8432 30.5589 71.7549Z" fill="#1A1A1A"/>
<path d="M18.138 71.7548C18.5417 72.2426 19.2502 72.2995 19.7204 71.8806C20.1904 71.4618 20.2437 70.7267 19.8402 70.2389C18.6114 68.7538 17.1907 68.3201 15.879 68.5804C14.6728 68.8199 13.728 69.6111 13.211 70.2449C12.8106 70.7357 12.8694 71.4698 13.3425 71.8852C13.8155 72.3006 14.5231 72.2395 14.9234 71.7488C15.2205 71.3846 15.7449 70.9784 16.2998 70.868C16.7496 70.7787 17.3836 70.8432 18.138 71.7548Z" fill="#1A1A1A"/>
</svg>
