<svg width="75" height="86" viewBox="0 0 75 86" fill="none" xmlns="http://www.w3.org/2000/svg">
<path d="M39.5924 31.2856C42.9116 31.2856 45.7863 33.1799 47.1994 35.9435C47.2514 35.9435 47.3034 35.9435 47.3556 35.9435C51.3558 35.9435 54.713 38.6918 55.6403 42.4025C59.3543 43.3341 62.1056 46.7033 62.1056 50.6935C62.1056 50.7556 62.102 50.8022 62.1011 50.8488C64.868 52.2617 66.7635 55.1341 66.7635 58.4567C66.7635 58.5188 66.7599 58.5653 66.759 58.6119C69.5259 60.0248 71.4214 62.8972 71.4214 66.2199C71.4214 67.462 71.1517 68.642 70.6739 69.7133C72.0995 71.2349 72.974 73.2843 72.974 75.5356C72.974 80.2556 69.1508 84.0751 64.4345 84.0751C62.7154 84.0751 61.1165 83.5627 59.7766 82.6933C58.4367 83.5627 56.8378 84.0751 55.1187 84.0751C52.6707 84.0751 50.4652 83.0504 48.9082 81.3891C47.3512 83.0504 45.1457 84.0751 42.6977 84.0751C40.633 84.0751 38.74 83.3454 37.2635 82.1188C35.7869 83.3454 33.8939 84.0751 31.8293 84.0751C29.7646 84.0751 27.8716 83.3454 26.395 82.1188C24.9185 83.3454 23.0255 84.0751 20.9608 84.0751C19.5627 84.0751 18.2442 83.7336 17.0793 83.1436C15.9143 83.7336 14.5958 84.0751 13.1977 84.0751C8.4814 84.0751 4.6582 80.2556 4.6582 75.5356C4.6582 73.2843 5.53156 71.2349 6.95687 69.7133C6.47913 68.642 6.21083 67.462 6.21083 66.2199C6.21083 62.8972 8.10551 60.0248 10.8718 58.6119C10.8709 58.5653 10.8687 58.5188 10.8687 58.4567C10.8687 54.5441 13.5004 51.2524 17.0898 50.2432C17.2898 46.4393 19.972 43.3031 23.543 42.4025C24.4702 38.6918 27.8289 35.9435 31.8293 35.9435C31.881 35.9435 31.9325 35.9435 31.9839 35.9435C33.3969 33.1799 36.2729 31.2856 39.5924 31.2856Z" fill="#F5F5F5"/>
<path d="M25.6035 63.9526C32.2057 64.4649 44.8322 65.0556 50.4961 64.0776C50.9675 63.9999 51.4179 64.3257 51.4561 64.8071C51.9053 70.4203 52.8319 79.928 53.7852 83.9711C51.8755 83.6725 50.1766 82.7425 48.9082 81.3891C47.3512 83.0504 45.1453 84.0746 42.6973 84.0746C40.6327 84.0745 38.7401 83.3451 37.2637 82.1186C35.7871 83.3452 33.8938 84.0746 31.8291 84.0746C29.7645 84.0746 27.8711 83.3451 26.3945 82.1186C25.5365 82.8313 24.5375 83.374 23.4463 83.7055C23.9237 77.8445 24.6423 68.4491 24.7539 64.7289C24.7675 64.2788 25.1515 63.9215 25.6035 63.9526Z" fill="#2C2C2C"/>
<path d="M47.1993 35.9435L46.1623 36.4868C46.3648 36.875 46.7753 37.1235 47.2203 37.1079L47.1993 35.9435ZM55.6402 42.4025L54.5105 42.6974C54.6147 43.1166 54.9407 43.4427 55.3584 43.5359L55.6402 42.4025ZM62.101 50.8487L60.9367 50.8331C60.9288 51.2679 61.1752 51.6872 61.5714 51.889L62.101 50.8487ZM66.7589 58.6118L65.5946 58.5963C65.5867 59.031 65.8331 59.4503 66.2293 59.6522L66.7589 58.6118ZM70.6738 69.7132L69.6112 69.2318C69.4195 69.6665 69.5028 70.1635 69.8228 70.5051L70.6738 69.7132ZM59.7765 82.6932L60.4128 81.715C60.0261 81.4666 59.527 81.4666 59.1403 81.715L59.7765 82.6932ZM48.9081 81.389L49.7551 80.5972C49.5351 80.3643 49.2287 80.2245 48.9081 80.2245C48.5875 80.2245 48.2812 80.3643 48.0612 80.5972L48.9081 81.389ZM37.2634 82.1187L38.0049 81.2336C37.5745 80.8765 36.9522 80.8765 36.5219 81.2336L37.2634 82.1187ZM26.395 82.1187L27.1365 81.2336C26.7061 80.8765 26.0838 80.8765 25.6534 81.2336L26.395 82.1187ZM17.0792 83.1435L17.6094 82.1032C17.2764 81.9324 16.882 81.9324 16.549 82.1032L17.0792 83.1435ZM6.9568 69.7132L7.80779 70.5051C8.12763 70.1635 8.21101 69.6665 8.01926 69.2318L6.9568 69.7132ZM10.8718 58.6118L11.4014 59.6522C11.7976 59.4503 12.0438 59.031 12.0359 58.5963L10.8718 58.6118ZM17.0897 50.2431L17.4054 51.361C17.8856 51.2213 18.2264 50.8021 18.2527 50.3053L17.0897 50.2431ZM23.5429 42.4025L23.8251 43.5359C24.2426 43.4427 24.5685 43.1166 24.6726 42.6974L23.5429 42.4025ZM31.9838 35.9435L31.9632 37.1079C32.408 37.1235 32.8185 36.875 33.0208 36.4713L31.9838 35.9435ZM39.5923 31.2856V32.45C42.4566 32.45 44.9402 34.0803 46.1623 36.4868L47.1993 35.9435L48.2363 35.4156C46.6323 32.2793 43.3665 30.1211 39.5923 30.1211V31.2856ZM47.1993 35.9435L47.2203 37.1079C47.3108 37.1079 47.3134 37.1079 47.3555 37.1079V35.9435V34.779C47.2932 34.779 47.1917 34.779 47.1785 34.779L47.1993 35.9435ZM47.3555 35.9435V37.1079C50.8085 37.1079 53.7095 39.4834 54.5105 42.6974L55.6402 42.4025L56.77 42.1229C55.7163 37.9153 51.903 34.779 47.3555 34.779V35.9435ZM55.6402 42.4025L55.3584 43.5359C58.5658 44.3432 60.941 47.2466 60.941 50.6935H62.1055H63.27C63.27 46.1443 60.1425 42.3402 55.9221 41.2844L55.6402 42.4025ZM62.1055 50.6935H60.941C60.941 50.6935 60.941 50.6935 60.9409 50.709C60.9407 50.709 60.9404 50.709 60.9399 50.7245C60.9393 50.7401 60.9375 50.7866 60.9367 50.8331L62.101 50.8487L63.2653 50.8642C63.2655 50.8642 63.2658 50.8487 63.2672 50.8176C63.2683 50.7866 63.27 50.74 63.27 50.6935H62.1055ZM62.101 50.8487L61.5714 51.889C63.9645 53.1156 65.5989 55.5998 65.5989 58.4566H66.7634H67.9279C67.9279 54.6837 65.7714 51.4231 62.6304 49.8084L62.101 50.8487ZM66.7634 58.4566H65.5989C65.5989 58.4566 65.5989 58.4566 65.5988 58.4722C65.5986 58.4722 65.5983 58.4722 65.5978 58.4877C65.5972 58.5032 65.5953 58.5497 65.5946 58.5963L66.7589 58.6118L67.9232 58.6274C67.9234 58.6274 67.9237 58.6118 67.9251 58.5808C67.9262 58.5497 67.9279 58.5032 67.9279 58.4566H66.7634ZM66.7589 58.6118L66.2293 59.6522C68.6224 60.8788 70.2568 63.3629 70.2568 66.2198H71.4213H72.5858C72.5858 62.4469 70.4293 59.1863 67.2883 57.5715L66.7589 58.6118ZM71.4213 66.2198H70.2568C70.2568 67.2911 70.0244 68.3157 69.6112 69.2318L70.6738 69.7132L71.7363 70.1944C72.279 68.9834 72.5858 67.6327 72.5858 66.2198H71.4213ZM70.6738 69.7132L69.8228 70.5051C71.0558 71.8248 71.8094 73.5948 71.8094 75.5356H72.9739H74.1384C74.1384 72.9737 73.1433 70.6448 71.5247 68.9213L70.6738 69.7132ZM72.9739 75.5356H71.8094C71.8094 79.619 68.5076 82.9106 64.4344 82.9106V84.075V85.2395C69.7938 85.2395 74.1384 80.8921 74.1384 75.5356H72.9739ZM64.4344 84.075V82.9106C62.9494 82.9106 61.5703 82.4758 60.4128 81.715L59.7765 82.6932L59.1403 83.6713C60.6626 84.665 62.4814 85.2395 64.4344 85.2395V84.075ZM59.7765 82.6932L59.1403 81.715C57.9828 82.4758 56.6037 82.9106 55.1187 82.9106V84.075V85.2395C57.0717 85.2395 58.8905 84.665 60.4128 83.6713L59.7765 82.6932ZM55.1187 84.075V82.9106C53.0052 82.9106 51.102 82.0256 49.7551 80.5972L48.9081 81.389L48.0612 82.1962C49.8284 84.0749 52.336 85.2395 55.1187 85.2395V84.075ZM48.9081 81.389L48.0612 80.5972C46.7143 82.0256 44.811 82.9106 42.6976 82.9106V84.075V85.2395C45.4802 85.2395 47.9879 84.0749 49.7551 82.1962L48.9081 81.389ZM42.6976 84.075V82.9106C40.9138 82.9106 39.2807 82.2739 38.0049 81.2336L37.2634 82.1187L36.5219 83.0192C38.199 84.401 40.3522 85.2395 42.6976 85.2395V84.075ZM37.2634 82.1187L36.5219 81.2336C35.2461 82.2739 33.613 82.9106 31.8292 82.9106V84.075V85.2395C34.1746 85.2395 36.3278 84.401 38.0049 83.0192L37.2634 82.1187ZM31.8292 84.075V82.9106C30.0454 82.9106 28.4123 82.2739 27.1365 81.2336L26.395 82.1187L25.6534 83.0192C27.3306 84.401 29.4838 85.2395 31.8292 85.2395V84.075ZM26.395 82.1187L25.6534 81.2336C24.3776 82.2739 22.7446 82.9106 20.9608 82.9106V84.075V85.2395C23.3062 85.2395 25.4594 84.401 27.1365 83.0192L26.395 82.1187ZM20.9608 84.075V82.9106C19.7527 82.9106 18.6152 82.6155 17.6094 82.1032L17.0792 83.1435L16.549 84.1836C17.8729 84.8513 19.3726 85.2395 20.9608 85.2395V84.075ZM17.0792 83.1435L16.549 82.1032C15.5432 82.6155 14.4057 82.9106 13.1976 82.9106V84.075V85.2395C14.7858 85.2395 16.2855 84.8513 17.6094 84.1836L17.0792 83.1435ZM13.1976 84.075V82.9106C9.12443 82.9106 5.8226 79.619 5.8226 75.5356H4.65813H3.49365C3.49365 80.8921 7.83823 85.2395 13.1976 85.2395V84.075ZM4.65813 75.5356H5.8226C5.8226 73.5948 6.57547 71.8248 7.80779 70.5051L6.9568 69.7132L6.1058 68.9213C4.48734 70.6448 3.49365 72.9737 3.49365 75.5356H4.65813ZM6.9568 69.7132L8.01926 69.2318C7.60673 68.3157 7.37523 67.2911 7.37523 66.2198H6.21076H5.04628C5.04628 67.6327 5.35138 68.9834 5.89418 70.1944L6.9568 69.7132ZM6.21076 66.2198H7.37523C7.37523 63.3629 9.00907 60.8788 11.4014 59.6522L10.8718 58.6118L10.342 57.5715C7.20165 59.1863 5.04628 62.4469 5.04628 66.2198H6.21076ZM10.8718 58.6118L12.0359 58.5963C12.0344 58.5031 12.0331 58.5032 12.0331 58.4566H10.8687H9.70418C9.70418 58.5187 9.70713 58.6274 9.70744 58.6274L10.8718 58.6118ZM10.8687 58.4566H12.0331C12.0331 55.0874 14.3045 52.2305 17.4054 51.361L17.0897 50.2431L16.7742 49.1253C12.6963 50.2742 9.70418 54.0161 9.70418 58.4566H10.8687ZM17.0897 50.2431L18.2527 50.3053C18.4252 47.0293 20.7409 44.3122 23.8251 43.5359L23.5429 42.4025L23.2608 41.2844C19.2027 42.2936 16.1543 45.8647 15.927 50.181L17.0897 50.2431ZM23.5429 42.4025L24.6726 42.6974C25.4735 39.4834 28.3757 37.1079 31.8292 37.1079V35.9435V34.779C27.2818 34.779 23.4667 37.9153 22.4131 42.1229L23.5429 42.4025ZM31.8292 35.9435V37.1079C31.8716 37.1079 31.871 37.1079 31.9632 37.1079L31.9838 35.9435L32.0045 34.779C31.9938 34.779 31.89 34.779 31.8292 34.779V35.9435ZM31.9838 35.9435L33.0208 36.4713C34.2427 34.0803 36.7274 32.45 39.5923 32.45V31.2856V30.1211C35.8182 30.1211 32.5508 32.2793 30.9468 35.4156L31.9838 35.9435Z" fill="#1A1A1A"/>
<path d="M32.5974 46.2064C32.4722 46.3617 32.3324 46.5015 32.1849 46.6257C31.4483 47.2312 30.0199 47.3863 29.1013 47.0913C26.2633 46.1598 26.0902 41.6572 28.9535 40.9119C29.0242 40.8964 29.0905 40.8808 29.1513 40.8653C29.5916 40.8498 29.9831 40.8809 30.3304 40.943C32.5461 41.3622 34 44.483 32.5974 46.2064Z" fill="#FF5C16"/>
<path d="M29.1179 39.9348C29.6221 39.917 30.0804 39.9517 30.4947 40.0257L30.5038 40.0273L30.7767 40.0894C32.1244 40.451 33.1519 41.5344 33.6727 42.708C34.2263 43.9557 34.3126 45.568 33.3209 46.7897L33.3225 46.7912C33.1561 46.9975 32.9727 47.1798 32.7842 47.3386L32.7766 47.3446L32.2171 46.6654L32.2126 46.6593L32.7766 47.3446C32.2288 47.7949 31.5017 48.0281 30.8388 48.1194C30.1677 48.2118 29.4353 48.1773 28.8162 47.9784L28.8101 47.9769C26.9343 47.361 26.0071 45.5895 25.9581 43.9589C25.9092 42.322 26.751 40.5228 28.7191 40.0106L28.754 40.0015C28.8165 39.9877 28.8722 39.9745 28.9208 39.9621L29.1179 39.9348ZM29.2604 41.7952C29.236 41.8009 29.2111 41.8063 29.1861 41.8119L29.1877 41.8134C28.2929 42.0464 27.789 42.8709 27.82 43.9043C27.8515 44.9434 28.4297 45.8883 29.3908 46.2044C29.6902 46.2995 30.1295 46.3352 30.5841 46.2727C31.0488 46.2087 31.4037 46.0607 31.5924 45.9057C31.6955 45.8181 31.7897 45.7235 31.8714 45.6222L32.6841 46.2772L32.4961 46.1241L31.8714 45.6222L31.8744 45.6176C32.2822 45.1164 32.3443 44.31 31.9684 43.4631C31.5936 42.6189 30.8902 41.9977 30.1565 41.8589C29.8976 41.8132 29.6005 41.7879 29.2604 41.7952Z" fill="#1A1A1A"/>
<path d="M39.0368 42.2939C38.7975 42.2939 38.5663 42.2474 38.3466 42.1853C37.2221 41.8903 36.1296 40.5861 35.8989 39.4837C35.2539 36.394 39.2577 33.832 41.7823 35.866C41.89 35.9591 41.9796 36.0368 42.0501 36.1145C42.3515 36.5492 42.5636 36.9685 42.7049 37.3411C43.5298 39.5924 41.4808 42.4336 39.0368 42.2939Z" fill="#FF5C16"/>
<path d="M37.1577 34.9626C38.6447 34.0332 40.7232 33.8169 42.366 35.14L41.7701 35.8769L41.7823 35.8663L42.366 35.14C42.3744 35.1468 42.3836 35.1542 42.3918 35.1612C42.4876 35.244 42.6232 35.3611 42.739 35.4887L42.0461 36.1164L42.0506 36.1149L42.739 35.4887C42.7664 35.5189 42.7932 35.5508 42.8163 35.5842C43.1603 36.0805 43.4077 36.5673 43.576 37.011L43.579 37.0201C44.1234 38.5058 43.7005 40.1036 42.8482 41.2656C42.0036 42.4168 40.6235 43.293 39.0364 43.2231C39.0288 43.2231 39.0212 43.2231 39.0136 43.2231C39.0036 43.2226 38.9933 43.2236 38.9833 43.2231C38.6544 43.2168 38.357 43.1541 38.1099 43.0851H38.1054C38.1014 43.084 38.0972 43.0832 38.0933 43.0821C37.303 42.8698 36.6045 42.3374 36.0888 41.7538C35.6323 41.2373 35.2507 40.6036 35.0577 39.9541L34.9865 39.6751L36.8105 39.293C36.8852 39.6495 37.1224 40.109 37.4852 40.5196C37.8052 40.8816 38.1555 41.1291 38.4572 41.2429L38.583 41.2838L38.5997 41.2884L38.348 42.1738V42.1814L38.5997 41.2884C38.6878 41.3133 38.7671 41.3323 38.8392 41.3445L39.0364 41.3626L39.0894 41.3642C39.924 41.4119 40.7702 40.9477 41.3456 40.1633C41.9202 39.38 42.1094 38.4346 41.8338 37.6706L41.7368 37.4356C41.6352 37.2107 41.5 36.9658 41.3274 36.7093C41.3008 36.684 41.2606 36.6468 41.1909 36.5865C40.3101 35.8817 39.1284 35.9291 38.1463 36.5425C37.156 37.1615 36.5867 38.2204 36.8105 39.293L34.9865 39.6751C34.5657 37.6581 35.6765 35.8884 37.1577 34.9626Z" fill="#1A1A1A"/>
<path d="M43.8235 38.1947C43.6069 38.1792 43.3976 38.1482 43.1988 38.1017C42.1807 37.8222 41.192 36.6421 40.9831 35.6484C40.3994 32.8536 44.0235 30.5402 46.3087 32.3723C46.4062 32.45 46.4872 32.5276 46.551 32.6053C46.8238 32.9934 47.0159 33.366 47.1437 33.7076C47.8905 35.7415 46.0357 38.3189 43.8235 38.1947Z" fill="#FF5C16"/>
<path d="M42.0773 31.4847C43.4464 30.63 45.3684 30.4245 46.8913 31.6455L46.8898 31.647C47.0248 31.7547 47.1564 31.8752 47.2704 32.0139L46.5502 32.6052H46.5517L47.2704 32.0139C47.2853 32.032 47.2994 32.0508 47.3129 32.07C47.5494 32.4066 47.7387 32.7391 47.8845 33.0616L48.0164 33.3816L48.0179 33.3861C48.5238 34.7638 48.1286 36.2415 47.3447 37.3117C46.6082 38.3168 45.4244 39.1043 44.0484 39.1296L43.7709 39.1251L43.7573 39.1236L43.3676 39.0811C43.2392 39.062 43.1122 39.0376 42.987 39.0083C42.9756 39.0056 42.9635 39.0023 42.9521 38.9992L43.1993 38.1016L43.2099 38.0592L42.9521 38.9992C42.2138 38.7965 41.5654 38.2995 41.0887 37.7589C40.6699 37.284 40.3172 36.7003 40.138 36.0987L40.0713 35.8394C39.6806 33.9691 40.7134 32.3365 42.0773 31.4847ZM45.7253 33.0995C44.9634 32.4887 43.931 32.5225 43.0628 33.0647C42.1895 33.6102 41.7025 34.533 41.8953 35.4573L41.9681 35.6999C42.0678 35.9577 42.2448 36.252 42.4867 36.5262C42.8049 36.8871 43.1526 37.1169 43.4298 37.1979C43.5676 37.2292 43.7166 37.2511 43.8755 37.2631C44.5937 37.3035 45.3339 36.9032 45.8421 36.2093C46.3503 35.5152 46.5095 34.6888 46.2712 34.0335L46.1863 33.8288C46.0961 33.6294 45.9744 33.4128 45.8163 33.1829C45.7994 33.1648 45.7725 33.1362 45.7284 33.101L45.7253 33.0995L46.3091 32.3717L46.397 32.261L45.7253 33.0995Z" fill="#1A1A1A"/>
<path d="M43.8235 44.6073C43.6069 44.5918 43.3976 44.5608 43.1988 44.4987C42.1807 44.2348 41.192 43.0547 40.9831 42.061C40.3994 39.2662 44.0235 36.9528 46.3087 38.7849C46.4062 38.8626 46.4872 38.9402 46.551 39.0179C46.8238 39.406 47.0159 39.7786 47.1437 40.1202C47.8905 42.1541 46.0357 44.7315 43.8235 44.6073Z" fill="#FF5C16"/>
<path d="M42.0773 37.8973C43.4464 37.0426 45.3684 36.8371 46.8913 38.0581L46.8898 38.0596C47.0248 38.1673 47.1564 38.2878 47.2704 38.4265L46.5502 39.0178H46.5517L47.2704 38.4265C47.2853 38.4446 47.2994 38.4634 47.3129 38.4826C47.5494 38.8192 47.7387 39.1517 47.8845 39.4742L48.0164 39.7941L48.0179 39.7987C48.5238 41.1764 48.1286 42.6541 47.3447 43.7242C46.6082 44.7294 45.4244 45.5169 44.0484 45.5422L43.7709 45.5377L43.7573 45.5362L43.3509 45.4892C43.2106 45.4657 43.0656 45.4329 42.9203 45.3876V45.386C42.194 45.1848 41.558 44.6996 41.0902 44.1715C40.6702 43.6974 40.3172 43.113 40.138 42.5113L40.0713 42.252C39.6806 40.3817 40.7134 38.7491 42.0773 37.8973ZM45.7253 39.5121C44.9634 38.9013 43.931 38.9351 43.0628 39.4773C42.1895 40.0228 41.7025 40.9456 41.8953 41.8699L41.9681 42.1125C42.0677 42.37 42.2443 42.6639 42.4851 42.9358C42.8087 43.301 43.1601 43.5262 43.4328 43.5969L43.4768 43.609L43.6587 43.6515C43.7234 43.6623 43.7957 43.6696 43.877 43.6757C44.5949 43.7155 45.3341 43.3154 45.8421 42.6219C46.3503 41.9278 46.5095 41.1014 46.2712 40.4461L46.1863 40.2414C46.0961 40.042 45.9744 39.8254 45.8163 39.5955C45.7994 39.5774 45.7725 39.5488 45.7284 39.5136L45.7253 39.5121L46.3091 38.7843L46.397 38.6736L45.7253 39.5121Z" fill="#1A1A1A"/>
<path d="M37.7235 36.5178C37.6653 36.7196 37.5864 36.8904 37.4939 37.0612C37.0299 37.8841 35.7436 38.5517 34.7618 38.5672C31.7806 38.6603 29.971 34.5304 32.3449 32.8381C32.4105 32.7915 32.4734 32.7448 32.5321 32.7137C32.944 32.5429 33.3263 32.4343 33.6789 32.3877C35.8946 32.0306 38.366 34.4217 37.7235 36.5178Z" fill="#FF5C16"/>
<path d="M33.5573 31.4653C35.0254 31.2394 36.4716 31.9119 37.4328 32.8739C38.3927 33.8346 39.064 35.2919 38.617 36.7752L38.6185 36.7767C38.5358 37.0632 38.4256 37.2979 38.3137 37.5045L37.4601 37.042L37.4934 37.0617L38.3137 37.5045L38.3061 37.5196L38.1636 37.744C37.8082 38.2529 37.285 38.6548 36.7656 38.9358C36.1691 39.2585 35.4607 39.4834 34.79 39.4968L34.7915 39.4983C34.7871 39.4985 34.7822 39.4967 34.7778 39.4968L34.7763 39.4983L34.7748 39.4968C32.8222 39.5503 31.3286 38.2318 30.6885 36.7388C30.0455 35.2379 30.1545 33.2557 31.8045 32.0794L31.806 32.0778L32.1229 32.5266L32.3306 32.8178L31.806 32.0778C31.8385 32.0548 31.9696 31.9573 32.0971 31.8898L32.176 31.8534C32.6449 31.659 33.1068 31.5233 33.5573 31.4638V31.4653ZM33.6831 32.4175L33.8272 33.3075C33.8186 33.3089 33.81 33.3109 33.8014 33.3121L33.6012 33.3454C33.4084 33.3862 33.1919 33.4521 32.9508 33.5486C32.9456 33.5522 32.9407 33.5575 32.9341 33.5622C32.927 33.5673 32.9196 33.573 32.9114 33.5789C32.9032 33.5848 32.8935 33.5919 32.8841 33.5986C32.1623 34.1147 31.9893 35.0421 32.4019 36.0049C32.8166 36.9723 33.712 37.668 34.7324 37.6364H34.7475C35.0545 37.6315 35.4748 37.5166 35.8786 37.2983C36.2869 37.0774 36.5617 36.8127 36.6792 36.6068C36.7491 36.4769 36.795 36.3732 36.8278 36.2596L37.7648 36.5295L37.7103 36.5128L36.8278 36.2596L36.8324 36.2445C37.0184 35.6369 36.7793 34.8576 36.1137 34.1915C35.4516 33.5291 34.5657 33.1885 33.8272 33.3075L33.6755 32.3644L33.6831 32.4175Z" fill="#1A1A1A"/>
<path d="M28.3753 42.6819C28.317 42.8837 28.2382 43.0544 28.1457 43.2252C27.6818 44.0481 26.3954 44.7159 25.4137 44.7314C22.4325 44.8246 20.6229 40.6945 22.9967 39.0021C23.0622 38.9555 23.1253 38.909 23.184 38.878C23.5959 38.7072 23.9781 38.5984 24.3307 38.5518C26.5463 38.1947 29.0177 40.5858 28.3753 42.6819Z" fill="#FF5C16"/>
<path d="M24.2089 37.6293C25.6769 37.4035 27.1232 38.076 28.0844 39.0379C29.0443 39.9987 29.7155 41.456 29.2686 42.9392L29.2701 42.9407C29.1874 43.2267 29.0776 43.4613 28.9653 43.6685L28.1117 43.2061L28.145 43.2258L28.9653 43.6685L28.9578 43.6837L28.8152 43.9081C28.4597 44.4171 27.9368 44.8203 27.4172 45.1014C26.8208 45.4241 26.1123 45.6475 25.4416 45.6609L25.4431 45.6624C25.4387 45.6625 25.4338 45.6607 25.4295 45.6609L25.4279 45.6624L25.4264 45.6609C23.4739 45.7144 21.9803 44.3973 21.3402 42.9043C20.6967 41.4033 20.8058 39.42 22.4561 38.2434C22.4917 38.2181 22.6211 38.123 22.7487 38.0554L22.8276 38.0175C23.2962 37.8232 23.7582 37.6874 24.2089 37.6278V37.6293ZM24.3347 38.5815L24.4788 39.4716C24.4702 39.473 24.4616 39.475 24.453 39.4761L24.2529 39.5095C24.06 39.5503 23.8439 39.6175 23.6024 39.7142C23.5972 39.7178 23.5909 39.723 23.5842 39.7278C23.5776 39.7325 23.5707 39.7374 23.563 39.743C23.5552 39.7485 23.5446 39.7533 23.5357 39.7597L23.5372 39.7612C22.814 40.277 22.6406 41.2054 23.0535 42.169C23.4682 43.1364 24.3636 43.8321 25.384 43.8004H25.3991C25.7061 43.7955 26.1263 43.6808 26.5302 43.4623C26.9385 43.2415 27.2132 42.9768 27.3308 42.7709C27.4004 42.6416 27.4479 42.5379 27.4809 42.4237L28.4043 42.6906L28.3619 42.6769L27.4809 42.4237L27.484 42.4085C27.6699 41.801 27.4309 41.0217 26.7653 40.3555C26.1032 39.6931 25.2172 39.3526 24.4788 39.4716L24.3271 38.5285L24.3347 38.5815Z" fill="#1A1A1A"/>
<path d="M51.8547 40.26C51.7965 40.4618 51.7176 40.6326 51.6253 40.8034C51.1613 41.6263 49.875 42.2938 48.8931 42.3094C45.912 42.4025 44.1024 38.2726 46.4761 36.5802C46.5418 36.5337 46.6047 36.487 46.6635 36.4559C47.0754 36.2851 47.4577 36.1765 47.8103 36.1299C50.0259 35.7728 52.4972 38.1639 51.8547 40.26Z" fill="#FF5C16"/>
<path d="M47.6886 35.207C49.1567 34.9811 50.603 35.6536 51.5641 36.6156C52.524 37.5763 53.1953 39.0337 52.7483 40.5169L52.7498 40.5184C52.667 40.8052 52.5566 41.0398 52.445 41.2462L51.5914 40.7837L51.6248 40.8034L52.445 41.2462L52.4375 41.2613L52.2949 41.4857C51.9394 41.9948 51.4165 42.398 50.897 42.679C50.3005 43.0016 49.592 43.2251 48.9213 43.2385L48.9228 43.24C48.9185 43.2402 48.9135 43.2384 48.9092 43.2385L48.9076 43.24L48.9061 43.2385C46.9535 43.2921 45.4599 41.9735 44.8199 40.4805C44.1768 38.9796 44.2859 36.9974 45.9358 35.8211L46.2542 36.2684L46.462 36.5595L45.9373 35.8195C45.9698 35.7965 46.1004 35.6992 46.2285 35.6315L46.3073 35.5951C46.7762 35.4007 47.2381 35.265 47.6886 35.2055V35.207ZM47.8144 36.1592L47.9585 37.0492C47.9499 37.0506 47.9414 37.0526 47.9327 37.0538L47.7326 37.0871C47.5397 37.1279 47.3232 37.1938 47.0821 37.2903C47.077 37.2939 47.0721 37.2992 47.0654 37.3039C47.0582 37.3091 47.0497 37.3146 47.0412 37.3206C47.0331 37.3264 47.0247 37.3337 47.0154 37.3403C46.2936 37.8564 46.1206 38.7838 46.5332 39.7466C46.948 40.7141 47.8433 41.4098 48.8637 41.3781H48.8788C49.1859 41.3731 49.6061 41.2583 50.01 41.04C50.4182 40.8191 50.693 40.5544 50.8105 40.3486C50.8803 40.2185 50.9264 40.1148 50.9591 40.0013L51.8962 40.2712L51.8416 40.2545L50.9591 40.0013L50.9637 39.9862C51.1497 39.3787 50.9106 38.5993 50.245 37.9332C49.5829 37.2707 48.6969 36.9302 47.9585 37.0492L47.8069 36.1061L47.8144 36.1592Z" fill="#1A1A1A"/>
<path d="M34.0853 44.0326C33.8687 44.0326 33.6592 43.9861 33.4605 43.9395C32.4424 43.6601 31.4537 42.4799 31.2449 41.4863C30.6611 38.6915 34.2852 36.3781 36.5704 38.2102C36.6679 38.2879 36.749 38.3655 36.8128 38.4432C37.0856 38.8313 37.2776 39.2039 37.4054 39.561C38.1521 41.5794 36.2974 44.1568 34.0853 44.0326Z" fill="#FF5C16"/>
<path d="M32.339 37.3226C33.7081 36.4679 35.6302 36.2624 37.1531 37.4833L37.1515 37.4849C37.2865 37.5925 37.4181 37.7131 37.5321 37.8518L36.8119 38.4431H36.8134L37.5321 37.8518C37.547 37.8699 37.5611 37.8887 37.5746 37.9079C37.8884 38.3545 38.1211 38.7974 38.2796 39.2376L38.3645 39.4969C38.7358 40.7932 38.3403 42.151 37.6064 43.1511C36.8303 44.2083 35.5572 45.0248 34.0857 44.963V44.9645C34.0681 44.9645 34.0501 44.9633 34.0326 44.963V44.9615C33.716 44.9545 33.4304 44.8892 33.2472 44.8462C33.236 44.8436 33.2249 44.8402 33.2139 44.8371C32.4755 44.6344 31.8271 44.1374 31.3504 43.5968C30.9316 43.1219 30.5789 42.5382 30.3997 41.9365L30.333 41.6773C29.9423 39.807 30.9751 38.1744 32.339 37.3226ZM35.9871 38.9374C35.2251 38.3266 34.1927 38.3603 33.3245 38.9025C32.4512 39.448 31.9642 40.3709 32.157 41.2952L32.2298 41.5378C32.3295 41.7956 32.5065 42.0899 32.7484 42.3641C33.0677 42.7262 33.4169 42.9555 33.6945 43.0358C33.7868 43.0573 33.8593 43.074 33.9204 43.0843L34.0857 43.101L34.1373 43.1025C34.8557 43.1429 35.5955 42.7412 36.1038 42.0488C36.6141 41.3536 36.7703 40.5294 36.5314 39.8836L36.5284 39.8745L36.445 39.6667C36.3561 39.4651 36.2359 39.2503 36.078 39.0208C36.0611 39.0027 36.0343 38.9741 35.9901 38.9389L35.9871 38.9374L36.5708 38.2096L36.6588 38.0989L35.9871 38.9374Z" fill="#1A1A1A"/>
<path d="M37.6403 48.023C37.4238 48.0075 37.2144 47.9763 37.0156 47.9142C35.9976 47.6347 35.0089 46.4703 34.8 45.4611C34.2163 42.6664 37.8404 40.353 40.1256 42.2006C40.2231 42.2783 40.3041 42.3557 40.3679 42.4178C40.6407 42.8215 40.8328 43.1943 40.9606 43.5359C41.7072 45.5698 39.8526 48.1317 37.6403 48.023Z" fill="#FF5C16"/>
<path d="M35.8941 41.2995C37.2652 40.4455 39.1892 40.2463 40.7112 41.4769L40.7097 41.4784C40.8422 41.5843 40.95 41.6841 41.0175 41.7498L40.3655 42.4185H40.3685L41.0175 41.7498C41.0631 41.7942 41.1047 41.8442 41.1403 41.8969C41.371 42.2383 41.5565 42.5701 41.7013 42.8915L41.8332 43.2099L41.8348 43.2145L41.0054 43.5177L40.9599 43.5359L41.8348 43.2145C42.3405 44.5922 41.9457 46.0656 41.1615 47.134C40.4248 48.1375 39.243 48.9225 37.8713 48.9565L37.5938 48.9535L37.5741 48.9519C37.3237 48.934 37.0486 48.8949 36.769 48.8109V48.8124C36.7583 48.8095 36.7478 48.8064 36.7371 48.8033V48.8018C36.0153 48.5947 35.3789 48.1109 34.907 47.5782C34.4268 47.0359 34.0332 46.3508 33.8881 45.6511C33.4978 43.7813 34.5294 42.1496 35.8941 41.2995ZM39.5392 42.9249C38.7761 42.3082 37.7458 42.3415 36.8797 42.8809C36.0073 43.4242 35.519 44.3459 35.7122 45.2705V45.272C35.7761 45.5809 35.9816 45.9823 36.302 46.344C36.6239 46.7073 36.9791 46.938 37.2618 47.0157L37.2936 47.0248L37.4756 47.0672C37.5427 47.0785 37.6181 47.0853 37.703 47.0915C38.4208 47.1199 39.155 46.718 39.6589 46.0317C40.167 45.3396 40.3262 44.5171 40.088 43.8619L40.0031 43.6557C39.9166 43.4638 39.7982 43.2538 39.6468 43.0219L39.5452 42.9294L39.5392 42.9249Z" fill="#1A1A1A"/>
<path d="M53.3649 44.3431C53.1484 44.3276 52.939 44.2965 52.7403 44.2344C51.7222 43.9704 50.7335 42.7905 50.5247 41.7968C49.9409 39.0021 53.5649 36.6887 55.8502 38.5208C55.9477 38.5984 56.0286 38.6759 56.0924 38.7535C56.3653 39.1417 56.5573 39.5144 56.6852 39.856C57.4319 41.89 55.5772 44.4674 53.3649 44.3431Z" fill="#FF5C16"/>
<path d="M51.6173 37.6334C52.9865 36.7783 54.9097 36.573 56.4329 37.7941L56.4314 37.7956C56.4984 37.849 56.5652 37.9047 56.6285 37.9654L56.812 38.1626L56.8544 38.2171C57.0914 38.5542 57.2803 38.8879 57.426 39.2103L57.558 39.5302L57.5595 39.5348C58.0652 40.9124 57.6701 42.3902 56.8863 43.4603C56.1498 44.4655 54.966 45.2529 53.59 45.2783L53.3125 45.2737L53.2988 45.2722L52.8925 45.2252C52.752 45.2017 52.6072 45.169 52.4619 45.1236V45.1221C51.7356 44.9209 51.0996 44.4357 50.6318 43.9076C50.2118 43.4335 49.8588 42.8491 49.6796 42.2473L49.6129 41.988C49.2222 40.118 50.2537 38.4852 51.6173 37.6334ZM55.2669 39.2482C54.5048 38.6374 53.4725 38.6711 52.6044 39.2133C51.7311 39.7588 51.2441 40.6816 51.4369 41.6059L51.5097 41.8485C51.6093 42.106 51.7859 42.4 52.0267 42.6719C52.3502 43.037 52.7016 43.2622 52.9744 43.3329L53.0183 43.3451L53.2003 43.3875C53.2651 43.3984 53.3374 43.4056 53.4186 43.4118C54.1365 43.4515 54.8758 43.0514 55.3837 42.358C55.8915 41.6644 56.0503 40.8388 55.8128 40.1837L55.7279 39.9775C55.6375 39.7778 55.5159 39.5612 55.3579 39.3316C55.341 39.3136 55.3143 39.285 55.2699 39.2497L55.2669 39.2482L55.8507 38.5204L55.9386 38.4097L55.2669 39.2482Z" fill="#1A1A1A"/>
<path d="M47.6495 47.557C47.4331 47.5415 47.2237 47.5103 47.0249 47.4638C46.0069 47.1843 45.0181 46.0044 44.8093 45.0107C44.2255 42.2159 47.8495 39.9025 50.1348 41.7346C50.2324 41.8123 50.3132 41.8899 50.3771 41.9676C50.65 42.3557 50.8419 42.7283 50.9699 43.0699C51.7165 45.1038 49.8619 47.6812 47.6495 47.557Z" fill="#FF5C16"/>
<path d="M45.902 40.8473C47.2712 39.9921 49.1944 39.7868 50.7176 41.008L50.7161 41.0095C50.8516 41.1176 50.983 41.2382 51.0966 41.3764C51.1114 41.3944 51.1257 41.4135 51.1391 41.4325C51.3759 41.7693 51.565 42.1019 51.7107 42.4241L51.8426 42.7441L51.8441 42.7486C52.3499 44.1263 51.9548 45.6041 51.1709 46.6742C50.4344 47.6794 49.2507 48.4668 47.8746 48.4921L47.5971 48.4876L47.5835 48.4861L47.1938 48.4436C47.065 48.4244 46.937 48.4002 46.8117 48.3708C46.8006 48.3682 46.7895 48.3648 46.7784 48.3617L47.0195 47.4823L47.0255 47.4581L46.7784 48.3617C46.04 48.159 45.3917 47.662 44.9149 47.1215C44.4961 46.6466 44.1434 46.0629 43.9642 45.4612L43.8975 45.2019C43.5069 43.3318 44.5383 41.6991 45.902 40.8473ZM49.5516 42.4621C48.7895 41.8512 47.7572 41.885 46.8891 42.4272C46.0157 42.9727 45.5287 43.8955 45.7216 44.8198L45.7943 45.0624C45.894 45.3202 46.0711 45.6146 46.3129 45.8888C46.6339 46.2527 46.9852 46.4829 47.2636 46.562C47.3995 46.5924 47.5462 46.6138 47.7018 46.6257C48.4201 46.666 49.1601 46.2657 49.6683 45.5719C50.1762 44.8782 50.3349 44.0527 50.0974 43.3976L50.0125 43.1914C49.9222 42.9917 49.8006 42.7752 49.6426 42.5454C49.6255 42.5272 49.5986 42.4986 49.5546 42.4636L49.5516 42.4621L50.1353 41.7343L50.2233 41.6236L49.5516 42.4621Z" fill="#1A1A1A"/>
<path d="M26.149 41.1447C25.9768 41.005 25.8267 40.8652 25.6969 40.6944C25.0257 39.8715 24.9743 38.3189 25.4674 37.3873C26.7969 34.872 31.0404 35.1672 31.7585 37.9309C31.7942 38.0706 31.8138 38.1948 31.8202 38.3035C31.7894 38.7848 31.7028 39.2039 31.5773 39.561C30.869 41.5794 27.8502 42.48 26.149 41.1447Z" fill="#FF5C16"/>
<path d="M28.9162 34.751C30.4166 34.8704 31.9678 35.716 32.5552 37.3574L32.6598 37.697L32.6614 37.7001L31.885 37.8972L31.9214 37.8881L32.6614 37.7001C32.6854 37.7942 32.7055 37.8873 32.7205 37.9791L32.7508 38.249L32.7493 38.3627C32.7137 38.9203 32.6131 39.4245 32.4567 39.8698C31.9788 41.231 30.7631 42.1316 29.4985 42.5035C28.3117 42.8526 26.9076 42.7871 25.7928 42.0365L25.5745 41.8773L25.5623 41.8682C25.3673 41.71 25.1643 41.5222 24.9771 41.2814L24.9755 41.283C24.9714 41.2779 24.969 41.2713 24.9649 41.2663C24.9624 41.263 24.9583 41.2605 24.9558 41.2572L24.9573 41.2557C24.4736 40.6482 24.2576 39.8565 24.2159 39.1344C24.1734 38.398 24.3004 37.5993 24.6435 36.9511C25.5216 35.2902 27.3207 34.624 28.9162 34.751ZM28.7692 36.6084C27.7963 36.5309 26.8671 36.9149 26.3826 37.6667L26.2916 37.8229C26.1418 38.106 26.0487 38.5501 26.0763 39.0283C26.1043 39.5106 26.2461 39.8927 26.419 40.1048L25.6973 40.6931L25.7094 40.6825L26.419 40.1048L26.4387 40.1306L26.5585 40.2656C26.6039 40.3101 26.658 40.3573 26.7238 40.4111C27.2794 40.8472 28.1265 40.9646 28.9723 40.7159C29.8191 40.4669 30.4671 39.9094 30.6978 39.2527C30.7865 39.0003 30.8533 38.6893 30.8828 38.3172C30.8781 38.2785 30.8722 38.2262 30.8555 38.161V38.1595C30.6201 37.2637 29.7999 36.6907 28.7692 36.6084Z" fill="#1A1A1A"/>
<path d="M36.9777 35.3847C36.7278 35.276 36.5082 35.1363 36.3166 34.981C35.2371 34.1115 35.1203 32.1396 35.9575 31.0528C37.6727 28.817 41.5622 28.9723 42.8177 31.5187C42.965 31.8137 43.0332 32.0776 43.0468 32.2794C42.9992 32.9315 42.8394 33.4439 42.613 33.8631C41.6268 35.7108 38.8956 36.2697 36.9777 35.3847Z" fill="#FF5C16"/>
<path d="M39.6135 28.5627C41.2176 28.6554 42.8431 29.4713 43.6497 31.1024H43.6512C43.7953 31.391 43.8927 31.6787 43.9424 31.95L43.9772 32.2169L43.9757 32.3473C43.9192 33.1201 43.7266 33.7624 43.4329 34.3063L43.4314 34.3048C42.7837 35.5148 41.6012 36.2456 40.3701 36.5518C39.1443 36.8566 37.7713 36.7695 36.6068 36.238V36.2395C36.272 36.0939 35.9813 35.9076 35.7319 35.7058C34.9403 35.0678 34.564 34.0884 34.4901 33.1736C34.4162 32.2574 34.6307 31.2481 35.2194 30.4838C36.294 29.0842 38.0135 28.4704 39.6135 28.5627ZM39.5058 30.4217C38.4193 30.3591 37.3367 30.7847 36.6962 31.6195V31.621C36.4478 31.9436 36.3024 32.4647 36.3475 33.0235C36.3927 33.583 36.6139 34.0233 36.9009 34.2547L36.2019 35.122L36.3172 34.981L36.9009 34.2547L36.904 34.2562C36.9708 34.3104 37.0404 34.362 37.1147 34.4079L37.3497 34.5307L37.3679 34.5383C38.1171 34.884 39.0606 34.958 39.9198 34.7445C40.7788 34.5309 41.4519 34.0588 41.7908 33.4238L41.7938 33.4208C41.9446 33.1416 42.0624 32.7819 42.1077 32.2927C42.0949 32.2188 42.0648 32.095 41.9849 31.9349L42.9416 31.4573L42.7233 31.5634L41.9849 31.9349L41.9819 31.9303C41.5321 31.0184 40.5875 30.4842 39.5058 30.4217Z" fill="#1A1A1A"/>
<path d="M24.8428 53.0225C26.5577 53.0225 27.9482 54.0654 27.9482 55.3516C27.9482 56.6378 26.5577 57.6806 24.8428 57.6807C23.1278 57.6807 21.7373 56.6378 21.7373 55.3516C21.7373 54.0653 23.1278 53.0225 24.8428 53.0225ZM52.79 53.0225C54.505 53.0225 55.8955 54.0654 55.8955 55.3516C55.8955 56.6378 54.505 57.6806 52.79 57.6807C51.075 57.6807 49.6846 56.6378 49.6846 55.3516C49.6846 54.0653 51.0751 53.0225 52.79 53.0225Z" fill="#FFAFA3"/>
<path d="M43.2309 54.9263L43.3492 54.9323C43.9366 54.9917 44.3954 55.4877 44.3954 56.0907C44.3954 56.6938 43.9366 57.1897 43.3492 57.2492L43.2309 57.2552L35.9985 57.2552C35.3553 57.2552 34.834 56.7339 34.834 56.0907C34.834 55.4476 35.3553 54.9263 35.9985 54.9263L43.2309 54.9263Z" fill="#1A1A1A"/>
<path d="M48.2874 48.7761C48.8963 48.6144 49.5542 48.8957 49.8467 49.4813C50.1393 50.0681 49.9685 50.7657 49.4716 51.1548L49.2393 51.2995L47.8532 51.9905L49.1394 52.8323L49.3534 53.0056C49.8012 53.4501 49.8917 54.1632 49.5328 54.7117C49.1735 55.2602 48.4825 55.4624 47.896 55.2294L47.6534 55.103L44.3921 52.9648C43.9863 52.6986 43.7524 52.2365 43.7806 51.752C43.8094 51.2673 44.0962 50.8334 44.5307 50.6167L48.0285 48.8739L48.2874 48.7761Z" fill="#1A1A1A"/>
<path d="M29.9548 48.7761C29.3459 48.6144 28.688 48.8957 28.3955 49.4813C28.1029 50.0681 28.2736 50.7657 28.7706 51.1548L29.0029 51.2995L30.389 51.9905L29.1028 52.8323L28.8888 53.0056C28.441 53.4501 28.3505 54.1632 28.7094 54.7117C29.0687 55.2602 29.7597 55.4624 30.3462 55.2294L30.5888 55.103L33.8501 52.9648C34.2559 52.6986 34.4898 52.2365 34.4616 51.752C34.4328 51.2673 34.146 50.8334 33.7115 50.6167L30.2137 48.8739L29.9548 48.7761Z" fill="#1A1A1A"/>
</svg>
