<svg width="75" height="86" viewBox="0 0 75 86" fill="none" xmlns="http://www.w3.org/2000/svg">
<path d="M36.4729 27.9924C18.2683 29.4488 16.1443 45.5915 17.3569 53.4804C18.8986 63.4934 21.9092 64.4032 21.9092 73.5063C22.3377 78.2263 24.0534 80.7555 25.8234 82.0986C27.7797 83.5813 30.4533 83.4944 32.8304 82.8826C45.7762 79.5523 52.7305 65.9014 54.679 58.941C61.2327 32.7248 45.2732 27.3853 36.4729 27.9924Z" fill="url(#paint0_linear_9800_32932)"/>
<path d="M36.3922 26.8301C41.0126 26.5114 47.595 27.7394 52.1808 32.6101C56.8196 37.5371 59.1407 45.8901 55.8076 59.2231C55.805 59.2337 55.803 59.2445 55.8001 59.255L55.5954 59.9509C54.498 63.5233 52.2704 68.4555 48.8026 72.9815C45.1018 77.8116 39.9243 82.2602 33.1201 84.0107C30.7147 84.6297 27.7051 84.8255 25.3463 83.1904L25.1189 83.0266L24.7323 82.7158C22.8152 81.0837 21.173 78.2797 20.7491 73.6107C20.746 73.576 20.7446 73.541 20.7446 73.5061C20.7446 69.1265 20.0302 66.7601 19.1161 64.2298C18.1756 61.6263 16.9956 58.7923 16.2049 53.657C15.5726 49.543 15.8013 43.2737 18.596 37.7956C21.433 32.2351 26.8706 27.5924 36.38 26.8317L36.3922 26.8301ZM50.4856 34.2067C46.53 30.0053 40.7327 28.8662 36.5529 29.1545L36.5514 29.153C27.8651 29.852 23.142 34.0093 20.6703 38.8539C18.1556 43.7832 17.9279 49.529 18.5081 53.3037C19.2591 58.1804 20.3554 60.8081 21.3056 63.4383C22.2773 66.1283 23.0641 68.7561 23.072 73.4349C23.4819 77.8721 25.0705 80.0652 26.5275 81.1707H26.526C28.0483 82.3245 30.2686 82.3388 32.5394 81.7545C38.6808 80.1746 43.4545 76.1331 46.9543 71.5653C50.4467 67.0072 52.6062 62.0046 53.5484 58.653C56.7671 45.7734 54.3875 38.3512 50.4856 34.2067Z" fill="#1A1A1A"/>
<path d="M58.6318 22.8173C47.8752 21.5255 41.1119 27.3168 38.0392 31.9638C37.1806 33.2618 37.7256 34.9651 39.109 35.6824C53.5547 43.163 59.3864 33.6873 60.9313 25.9583C61.2356 24.432 60.1767 23.002 58.6318 22.8173Z" fill="#14AE5C"/>
<path d="M37.3832 30.858C40.7638 26.0386 47.816 20.3453 58.7698 21.6604C60.8366 21.9076 62.3178 23.73 62.1328 25.774L62.0737 26.1864C61.2755 30.1798 59.3373 34.832 55.522 37.4809C51.5983 40.205 46.0405 40.5834 38.5734 36.7167C36.6501 35.7195 35.7832 33.2645 37.0678 31.3219L37.3832 30.858ZM58.4923 23.9742C48.6056 22.7871 42.3121 27.8852 39.2921 32.1923L39.0101 32.6062C38.5779 33.2596 38.8021 34.2113 39.6454 34.6486H39.6439C46.6224 38.2623 51.204 37.6432 54.1938 35.5674C57.2918 33.4164 59.042 29.4656 59.7887 25.73C59.9572 24.8836 59.3783 24.0803 58.4938 23.9742H58.4923Z" fill="#1A1A1A"/>
<path d="M56.0853 29.6444C53.2036 31.5743 50.0098 32.8863 47.4355 33.6921C46.6282 33.9452 46.667 35.0957 47.5132 35.1003C52.2456 35.1329 55.3245 32.7683 57.0277 30.4378C57.4981 29.795 56.7467 29.2004 56.0853 29.6444Z" fill="#008043"/>
<path d="M31.7614 50.7574C32.1896 50.307 32.8777 50.314 33.2983 50.7725C33.7187 51.2313 33.7121 51.9685 33.2842 52.4192L33.1073 52.6057L33.1044 52.6072L32.3459 51.7748L32.2596 51.6808L33.1044 52.6072C30.6696 55.1542 26.7544 55.053 24.438 52.3813C24.0295 51.9101 24.0548 51.1723 24.4946 50.7346C24.9344 50.2969 25.623 50.3241 26.0315 50.7953C27.5164 52.5081 30.0253 52.5734 31.586 50.9408V50.9424L31.7614 50.7574Z" fill="#1A1A1A"/>
<path d="M36.1708 46.5811C37.2813 46.5811 38.1815 47.4813 38.1815 48.5917C38.1815 49.7022 37.2813 50.6024 36.1708 50.6024C35.0604 50.6024 34.1602 49.7022 34.1602 48.5917C34.1602 47.4813 35.0604 46.5811 36.1708 46.5811Z" fill="#1A1A1A"/>
<path d="M22.1972 46.5811C21.0867 46.5811 20.1865 47.4813 20.1865 48.5917C20.1865 49.7022 21.0867 50.6024 22.1972 50.6024C23.3076 50.6024 24.2078 49.7022 24.2078 48.5917C24.2078 47.4813 23.3076 46.5811 22.1972 46.5811Z" fill="#1A1A1A"/>
<defs>
<linearGradient id="paint0_linear_9800_32932" x1="36.6483" y1="27.9474" x2="36.6483" y2="83.5192" gradientUnits="userSpaceOnUse">
<stop stop-color="#F79722"/>
<stop offset="1" stop-color="#FFCD29"/>
</linearGradient>
</defs>
</svg>
