<svg width="75" height="86" viewBox="0 0 75 86" fill="none" xmlns="http://www.w3.org/2000/svg">
<path d="M38.868 82.8438C68.1747 81.5675 71.6411 60.1955 66.1288 49.3302C60.6165 38.4649 44.9735 35.2339 38.868 35.7649C22.7777 37.5287 17.2038 42.8123 11.4705 51.7384C10.4629 53.3081 9.60877 54.9927 9.0593 56.7752C1.90089 79.9854 25.7343 84.3825 38.868 82.8438Z" fill="#FFA629"/>
<path d="M38.767 34.6046C42.0294 34.3209 47.6472 35.0372 53.1455 37.1898C58.6473 39.3437 64.2315 43.0154 67.1677 48.8027C70.0846 54.5523 70.6176 63.0246 66.5718 70.2514C62.4916 77.5396 53.8889 83.3413 38.9717 84.0037C32.2669 84.7835 22.7665 84.0708 15.7792 80.1025C12.2534 78.1 9.3183 75.2387 7.76591 71.2825C6.21366 67.3263 6.10003 62.4191 7.94634 56.4324C8.53444 54.5247 9.44153 52.7431 10.4906 51.1089C13.3906 46.5938 16.3258 42.8779 20.654 40.0873C24.9796 37.2985 30.5908 35.5011 38.7412 34.6076L38.8671 35.7675L38.8686 35.7645L38.7412 34.6076L38.7549 34.6061L38.767 34.6046ZM52.2964 39.358C47.0836 37.3173 41.8416 36.6798 38.9929 36.9214L38.9944 36.9229C31.0551 37.7933 25.8341 39.5194 21.917 42.0448C18.0027 44.5684 15.2841 47.9568 12.4511 52.3674C11.6055 53.6846 10.8857 55.0656 10.3769 56.5006L10.1722 57.1177C8.43945 62.7359 8.62054 67.0839 9.93413 70.4319C11.2477 73.7792 13.7496 76.2728 16.9286 78.0783C23.3406 81.72 32.3049 82.4398 38.7321 81.6869L38.7746 81.6824L38.817 81.6809L40.1437 81.6081C53.6556 80.7101 61.0556 75.3382 64.5401 69.1143C68.1759 62.6198 67.6858 54.9721 65.0905 49.8565C62.5143 44.7789 57.5203 41.4031 52.2964 39.358Z" fill="#1A1A1A"/>
<path d="M50.4484 72.005C56.3825 62.9858 55.8459 53.6887 54.4035 46.8835C54.02 45.0747 55.3146 43.3622 56.8575 44.3822C60.1619 46.5668 63.2012 52.4326 64.6616 59.0903C65.1029 61.1009 65.1088 63.2265 64.2845 65.1145C61.9004 70.5704 56.3963 74.1275 52.2617 75.6475C49.4291 76.6893 48.7895 74.5265 50.4484 72.005Z" fill="#F79722"/>
<path d="M38.0309 45.0266C40.6034 45.0266 42.6888 44.1577 42.6888 43.0858C42.6888 42.0139 40.6034 41.145 38.0309 41.145C35.4585 41.145 33.373 42.0139 33.373 43.0858C33.373 44.1577 35.4585 45.0266 38.0309 45.0266Z" fill="#14AE5C"/>
<path d="M41.6328 63.3438L41.7511 63.3498C42.3385 63.4092 42.7973 63.9051 42.7973 64.5082C42.7973 65.1113 42.3385 65.6072 41.7511 65.6666L41.6328 65.6727L34.4003 65.6727C33.7572 65.6727 33.2358 65.1513 33.2358 64.5082C33.2358 63.8651 33.7572 63.3438 34.4003 63.3438L41.6328 63.3438Z" fill="#1A1A1A"/>
<path d="M47.1274 58.0732C47.8955 58.0738 48.5171 58.6966 48.5171 59.4648C48.517 60.233 47.8955 60.8559 47.1274 60.8563H43.4999C42.7316 60.8563 42.1086 60.2331 42.1084 59.4648C42.1084 58.6964 42.7316 58.0734 43.4999 58.0732H47.1274Z" fill="#1A1A1A"/>
<path d="M27.9874 58.0732C27.2193 58.0738 26.5976 58.6966 26.5976 59.4648C26.5977 60.233 27.2192 60.8559 27.9874 60.8563H31.6148C32.3832 60.8563 33.0062 60.2331 33.0063 59.4648C33.0063 58.6964 32.3832 58.0734 31.6148 58.0732H27.9874Z" fill="#1A1A1A"/>
</svg>
