<svg width="75" height="86" viewBox="0 0 75 86" fill="none" xmlns="http://www.w3.org/2000/svg">
<path fill-rule="evenodd" clip-rule="evenodd" d="M46.5745 33.9157C46.8974 29.4193 43.6679 24.7676 40.4183 24.7676C37.24 24.7676 32.9128 29.573 30.1228 33.363H21.8659C13.3792 33.363 1.03418 38.0721 1.03418 47.5121C1.03418 61.0992 9.16535 71.9148 21.8659 71.9148H30.3246C33.1178 77.9778 37.3146 85.3948 40.4183 85.3948C43.6369 85.3948 47.18 79.2029 46.7732 71.4444C54.8065 70.1588 60.5528 65.7587 60.5528 52.6389C60.5528 40.28 54.7134 35.4109 46.5745 33.9157Z" fill="#7DA0C7"/>
<path opacity="0.7" d="M47.4686 47.9981C48.4344 58.6461 43.8976 67.76 26.7115 69.3204C14.2812 70.4492 3.42203 62.7326 2.45474 52.0862C1.489 41.4382 9.48661 51.4465 21.917 50.3193C34.3473 49.1905 46.5014 37.3517 47.4686 47.9981Z" fill="#AFD8FF"/>
<path d="M40.4571 53.8374C41.1651 61.6348 37.5102 68.3406 23.8533 69.5796C13.9739 70.477 5.3925 64.8829 4.6845 57.0856C3.9765 49.2867 10.2724 56.5779 20.1518 55.6804C30.0297 54.783 39.7491 46.0401 40.4571 53.8374Z" fill="#D3EDFF"/>
<path fill-rule="evenodd" clip-rule="evenodd" d="M46.7762 71.515C47.1581 79.2407 43.6262 85.3944 40.4186 85.3947L40.1259 85.3735C37.0678 84.937 33.0629 77.8485 30.3583 71.9866H21.8658L21.2745 71.979C9.10956 71.6539 1.28542 61.2965 1.04024 48.2195L1.03418 47.5857C1.03418 38.4408 12.6195 33.7336 21.0592 33.4483L21.8658 33.4346H29.8094L30.3477 32.6083C33.1396 28.408 37.3239 23.2895 40.4186 23.2895L40.7309 23.3061C43.9597 23.6344 47.0539 28.9659 46.5396 33.982C54.6956 35.4694 60.5527 40.3361 60.5527 52.7106L60.5361 53.9145C60.1917 66.1018 54.5585 70.2681 46.7762 71.515ZM37.1981 79.6421C35.5244 77.2031 33.8459 73.9848 32.4735 71.0117L31.8488 69.6577H21.8658C10.8579 69.6576 3.36339 60.3325 3.36313 47.5857C3.36313 44.0395 5.65076 41.1373 9.419 38.9947C13.1794 36.8568 17.9828 35.7636 21.8658 35.7636H31.0831L31.7699 34.6916C33.1129 32.5956 34.8508 30.1922 36.6037 28.3446C37.4823 27.4179 38.3077 26.6925 39.0357 26.2128C39.7981 25.7113 40.2462 25.6184 40.4186 25.6184C40.8271 25.6186 41.8789 26.0834 42.9173 27.867C43.814 29.407 44.3635 31.4228 44.2547 33.3588L44.2243 33.7455L44.0045 35.8879L46.1227 36.273C49.8673 36.9562 52.7998 38.361 54.8229 40.7626C56.8459 43.1661 58.2238 46.8805 58.2238 52.7106C58.2237 58.9598 56.8535 62.7224 54.8956 65.0513C52.7517 67.6004 49.5867 68.6608 46.4077 69.2164L44.3487 69.5454L44.4502 71.6303C44.6226 75.1299 43.9016 78.202 42.8552 80.3214C42.3305 81.3845 41.7629 82.132 41.2631 82.5806C40.7943 83.0025 40.5094 83.0562 40.4337 83.0627L40.4294 83.0613C40.37 83.0409 40.0669 82.9368 39.4952 82.4214C38.8182 81.8112 38.038 80.8687 37.1981 79.6421Z" fill="#1A1A1A"/>
<path d="M34.7989 39.1729C35.9287 39.2213 37.2113 39.5344 38.3454 40.3707C39.4945 41.2183 40.398 42.5345 40.8623 44.4145L40.9912 45.0089C41.54 47.931 40.6503 50.1276 39.3825 51.5879L39.2233 51.7607C37.5482 53.4935 35.0045 53.2474 33.2265 52.6507L30.3912 51.7031C29.7814 51.4991 29.452 50.8391 29.6558 50.2293C29.8598 49.6197 30.5199 49.2904 31.1296 49.4939L33.9649 50.4431L34.2667 50.5371C35.649 50.9376 36.8121 50.8243 37.4872 50.202L37.6251 50.0595C38.4473 49.1121 39.1185 47.626 38.7002 45.4228L38.6016 44.9725C38.2508 43.5524 37.6223 42.7304 36.9641 42.2448C36.2907 41.7481 35.4892 41.5327 34.7003 41.4988H34.5366C33.7181 41.5312 32.8877 42.0687 32.0939 42.968L29.7756 45.5942C29.35 46.0761 28.614 46.1211 28.132 45.6957C27.6499 45.2702 27.6034 44.5342 28.0289 44.0521L30.3472 41.426C31.345 40.2956 32.86 39.0896 34.7989 39.1729Z" fill="#1A1A1A"/>
<path d="M18.6719 48.0244C18.8665 47.5949 19.3339 47.423 19.7159 47.6416C19.7167 47.6421 19.7185 47.6433 19.7207 47.6446C19.7256 47.6473 19.7344 47.6523 19.7451 47.6582C19.7667 47.6701 19.7996 47.6873 19.8409 47.709C19.9243 47.753 20.0419 47.8136 20.1758 47.875C20.4623 48.0064 20.7566 48.1134 20.9551 48.1397C21.1451 48.1647 21.441 48.141 21.7354 48.0948C21.873 48.0731 21.995 48.0498 22.0821 48.0313C22.1252 48.0221 22.16 48.0141 22.1826 48.0088C22.1934 48.0063 22.2019 48.0032 22.2071 48.002C22.2094 48.0015 22.2119 48.0022 22.2129 48.002C22.6315 47.8978 23.0461 48.1951 23.1387 48.666C23.231 49.1368 22.9663 49.6019 22.5479 49.7061L22.544 49.708C22.5415 49.7086 22.5373 49.71 22.5332 49.711L22.3701 49.7471C22.265 49.7694 22.1185 49.7989 21.9512 49.8252C21.6348 49.8749 21.1722 49.9268 20.7735 49.8741C20.355 49.8187 19.8988 49.6329 19.5899 49.4912C19.4265 49.4163 19.2839 49.3454 19.1826 49.292C19.1322 49.2655 19.0906 49.2426 19.0616 49.2266C19.0472 49.2187 19.0347 49.2117 19.0264 49.2071C19.0227 49.205 19.019 49.2035 19.0166 49.2022L19.0118 49.1983L18.8789 49.1035C18.5966 48.8507 18.5022 48.4005 18.6719 48.0244ZM21.2705 44.0342C22.128 44.0343 22.8233 44.8166 22.8233 45.7813C22.8231 46.7457 22.1279 47.5273 21.2705 47.5274C20.4132 47.5274 19.718 46.7458 19.7178 45.7813C19.7178 44.8166 20.413 44.0342 21.2705 44.0342Z" fill="#1A1A1A"/>
<path d="M11.448 48.0244C11.2533 47.5947 10.785 47.4227 10.403 47.6416C10.4022 47.6422 10.4009 47.6434 10.3991 47.6445C10.3942 47.6473 10.3855 47.6522 10.3747 47.6582C10.3532 47.6701 10.3203 47.6872 10.279 47.709C10.1956 47.7529 10.078 47.8135 9.94405 47.875C9.65752 48.0064 9.36332 48.1133 9.16475 48.1396C8.97481 48.1647 8.67889 48.1409 8.38448 48.0947C8.24696 48.0731 8.12485 48.0497 8.0378 48.0312C7.99446 48.022 7.95889 48.014 7.93624 48.0088C7.92573 48.0063 7.91788 48.0031 7.9128 48.0019C7.91052 48.0014 7.90804 48.0021 7.90694 48.0019C7.48833 47.8977 7.07281 48.1951 6.98018 48.666C6.88799 49.1367 7.15358 49.6019 7.57198 49.706L7.57589 49.708C7.57837 49.7086 7.58264 49.7099 7.58663 49.7109L7.74874 49.747C7.85393 49.7694 8.0011 49.7988 8.16866 49.8252C8.48507 49.8749 8.94766 49.9267 9.34639 49.874C9.76493 49.8186 10.2211 49.6329 10.53 49.4912C10.6934 49.4162 10.836 49.3453 10.9372 49.292C10.9876 49.2654 11.0292 49.2426 11.0583 49.2265C11.0727 49.2186 11.0852 49.2117 11.0935 49.207C11.0973 49.2049 11.1008 49.2034 11.1032 49.2021L11.1081 49.1982L11.2399 49.1035C11.5224 48.8506 11.6177 48.4005 11.448 48.0244ZM8.84932 44.0341C7.99182 44.0341 7.29659 44.8165 7.29659 45.7812C7.29676 46.7457 7.99193 47.5273 8.84932 47.5273C9.70664 47.5272 10.4019 46.7457 10.4021 45.7812C10.4021 44.8166 9.70675 44.0342 8.84932 44.0341Z" fill="#1A1A1A"/>
<path d="M18.7212 52.764H11.7212L15.2212 47.514L18.7212 52.764Z" fill="#FFAFA3"/>
<path d="M18.7219 53.9285C19.1511 53.9283 19.5458 53.6914 19.7484 53.3129C19.9506 52.9345 19.9287 52.4752 19.6907 52.1181L16.1897 46.8674C15.9737 46.5439 15.6099 46.3488 15.2209 46.3488C14.8318 46.349 14.4679 46.5437 14.252 46.8674L10.7525 52.1181C10.5144 52.4753 10.4925 52.9343 10.6949 53.3129C10.8975 53.6915 11.2919 53.9285 11.7214 53.9285H18.7219ZM15.2209 49.6148L16.5461 51.5995H13.8972L15.2209 49.6148Z" fill="#1A1A1A"/>
</svg>
