<svg width="75" height="86" viewBox="0 0 75 86" fill="none" xmlns="http://www.w3.org/2000/svg">
<path d="M10.1133 55.4242L13.3343 51.2368L16.73 52.85L18.7271 56.685L28.4672 56.6074L30.0174 53.3825L33.785 51.2896L37.8917 54.5905H40.3075L51.8224 53.3825L61.1602 54.5905L64.7061 59.5838L66.9401 63.1719L70.1816 70.2131V74.6412L68.4102 79.473L65.9945 81.406L56.666 84.1433L47.8078 80.5194L40.3075 81.406L31.6914 84.1433H28.8731L26.5379 80.5194L13.8957 79.473L6.32642 82.4525L3.50813 80.5194L3.10547 77.7821L7.79786 74.5107L7.28113 67.35L10.1133 55.4242Z" fill="#FFAFA3"/>
<path d="M30.556 76.4735C31.1428 76.5335 31.5999 77.0291 31.5999 77.6317C31.5999 78.1965 31.1979 78.666 30.6644 78.7723V80.6171C30.6993 80.6407 30.7409 80.6672 30.7845 80.7001L31.0208 80.9052L31.0306 80.9139H31.0287C31.1023 80.9884 31.1707 81.0671 31.2035 81.1053C31.2233 81.1286 31.2359 81.1441 31.2474 81.1571C31.2514 81.1615 31.2549 81.1653 31.2572 81.1678C31.2594 81.1695 31.2631 81.174 31.2699 81.1786L31.306 81.201L31.3197 81.2098L31.5394 81.3583L31.5531 81.368L31.7747 81.5145L31.7855 81.5223C31.8031 81.5265 31.8233 81.5305 31.8431 81.536C31.9075 81.554 32.0399 81.5964 32.1839 81.6864L32.1976 81.6932L32.2093 81.703L32.2747 81.7509C32.3174 81.7673 32.3554 81.7816 32.3841 81.7948L32.387 81.7968H34.6478C35.2906 81.7968 35.8123 82.3182 35.8128 82.9608C35.8128 83.5634 35.3547 84.06 34.7679 84.12L34.6478 84.1259H32.307C32.2525 84.1259 31.9873 84.1351 31.7015 84.0389L31.682 84.0331V84.0321C31.6151 84.0083 31.5591 83.9831 31.5199 83.9647C31.5005 83.9556 31.4809 83.9471 31.4652 83.9393C31.4352 83.9329 31.395 83.9247 31.3519 83.912C31.3164 83.9015 31.2625 83.8825 31.1995 83.8553L30.9876 83.7401L30.9759 83.7313L30.9622 83.7225C30.9511 83.7144 30.9407 83.7044 30.93 83.6962C30.7233 83.6147 30.5525 83.4995 30.4994 83.4628V83.4647C30.4122 83.4078 30.3213 83.3462 30.2523 83.2997V83.2977C30.1694 83.2433 30.0838 83.1852 30.0189 83.1415V83.1405C29.9242 83.0784 29.7681 82.9742 29.6078 82.8124C29.5338 82.7377 29.467 82.6586 29.4339 82.62C29.4134 82.596 29.3999 82.5806 29.388 82.5673C29.3849 82.5637 29.3823 82.5598 29.3802 82.5575L29.3285 82.5243L29.3167 82.5175L29.9671 81.5507L29.9759 81.536L29.3167 82.5175L29.0951 82.368L29.0833 82.3593C29.0483 82.3356 28.977 82.2891 28.9085 82.2362C28.8789 82.2133 28.8328 82.1757 28.7796 82.1259L28.6087 81.9364L28.5999 81.9257L29.5384 81.2372L29.5745 81.2098L28.5999 81.9237C28.3148 81.534 28.3361 81.1231 28.3363 81.08V78.4139L28.3392 78.3007C28.3474 78.161 28.3785 77.9498 28.4994 77.7089L28.5833 77.5604C28.6042 77.5262 28.6246 77.4919 28.637 77.4725C28.6404 77.4673 28.6452 77.4629 28.6478 77.4589C28.6723 77.3932 28.7905 77.0723 29.1322 76.8466L29.1302 76.8446C29.1334 76.8425 29.1378 76.8418 29.141 76.8397C29.1461 76.8363 29.1503 76.8314 29.1556 76.828L29.1576 76.8309C29.1838 76.8144 29.2106 76.8028 29.2347 76.7899C29.2738 76.7558 29.3171 76.7223 29.3656 76.6903L29.3636 76.6884C29.3658 76.6869 29.3693 76.6868 29.3714 76.6854C29.3781 76.6811 29.3841 76.6751 29.391 76.6708L29.3939 76.6737C29.6559 76.5099 29.9126 76.4829 29.9798 76.4764C30.0802 76.4668 30.1786 76.4676 30.2035 76.4677H30.4359L30.556 76.4735ZM57.0374 76.7323C57.4928 76.357 58.1675 76.3797 58.596 76.8036C59.0234 77.2266 59.0535 77.8981 58.6859 78.3573C58.6711 78.3976 58.6543 78.4435 58.6312 78.4901L58.6341 78.4911C58.6315 78.4964 58.628 78.5016 58.6253 78.5067C58.6243 78.5088 58.6234 78.5114 58.6224 78.5135L58.6204 78.5126C58.6081 78.5363 58.5938 78.5567 58.5824 78.576C58.5808 78.5797 58.5809 78.5841 58.5794 78.5878C58.5455 78.6649 58.4781 78.7889 58.3617 78.9159C58.3327 78.9575 58.3047 78.9903 58.2835 79.0155L58.2826 79.0184C58.281 79.0214 58.2811 79.0261 58.2796 79.0292L58.2777 79.0282C58.2091 79.1602 58.133 79.2551 58.0941 79.2997C58.0561 79.3432 58.0122 79.3855 58.0091 79.3885L57.9994 79.4012L57.9867 79.412C57.9733 79.425 57.9611 79.4357 57.9505 79.4462C57.9471 79.452 57.9453 79.4595 57.9417 79.4657C57.9306 79.4845 57.9123 79.5087 57.8939 79.537C57.8432 79.6691 57.7819 79.7939 57.7181 79.8905L57.7152 79.8934L56.7464 79.2489L56.5814 79.1405L57.7152 79.8934C57.6842 79.94 57.6523 79.979 57.6322 80.0048C57.6307 80.0074 57.6296 80.0115 57.6273 80.0155C57.621 80.0264 57.609 80.0461 57.597 80.0663C57.5846 80.0872 57.5665 80.1161 57.5453 80.1483L57.5394 80.1591L57.5335 80.1678L56.5755 79.5067L56.5589 79.4969L57.5335 80.1678C57.4698 80.2603 57.4051 80.331 57.3548 80.3837C57.3502 80.3916 57.3445 80.4001 57.3392 80.4091C57.3268 80.43 57.3087 80.4608 57.2874 80.493L57.2865 80.494C57.2178 80.5974 57.1468 80.6756 57.097 80.7274C57.0918 80.7364 57.0865 80.7474 57.0804 80.7577C57.0661 80.7815 57.044 80.8154 57.0179 80.8534L57.016 80.8524C56.9176 80.9966 56.8144 81.0952 56.7816 81.1278L56.7826 81.1298C56.7274 81.1851 56.6443 81.2678 56.5218 81.371L56.5111 81.3798C56.3674 81.498 56.3277 81.523 56.2249 81.6132C56.1438 81.6843 56.0568 81.772 55.9535 81.8759C55.8573 81.9725 55.7637 82.061 55.7005 82.1239L55.7015 82.1259C55.6255 82.2032 55.5272 82.3036 55.3958 82.4081C55.3361 82.4557 55.2764 82.4974 55.2347 82.5272C55.2038 82.5493 55.1858 82.5616 55.1722 82.5712C55.1697 82.5733 55.1668 82.5761 55.1634 82.579C55.1415 82.5977 55.1107 82.6238 55.0736 82.6561C54.9997 82.7204 54.9046 82.8033 54.8099 82.8866C54.7153 82.9698 54.6223 83.053 54.5511 83.1161L54.3773 83.2704C53.9167 83.64 53.2406 83.6076 52.8177 83.1776C52.3673 82.7193 52.3737 81.9821 52.8314 81.5311C52.8762 81.487 53.1058 81.2854 53.2728 81.1385C53.4353 80.9957 53.6794 80.7815 53.7503 80.7274L53.7669 80.7137C53.7889 80.6976 53.8119 80.6822 53.8294 80.6698C53.8489 80.656 53.863 80.6453 53.8792 80.6337C53.9121 80.6101 53.9328 80.5943 53.9447 80.5848H53.9456L54.0404 80.493L54.0472 80.4852L54.8304 81.2694L54.8704 81.3085L54.0492 80.4852C54.1287 80.4059 54.2024 80.3325 54.3021 80.2323C54.3996 80.1343 54.5399 79.9938 54.6888 79.8632L55.0316 79.5809C55.0531 79.5625 55.0703 79.5472 55.0843 79.5341C55.0946 79.5245 55.1035 79.5137 55.1136 79.5038C55.1153 79.5009 55.1177 79.4979 55.1195 79.495C55.1319 79.4738 55.1514 79.4425 55.1742 79.4081L55.1761 79.4052L55.3167 79.2216C55.3358 79.2 55.3529 79.1821 55.3665 79.1678C55.3705 79.161 55.3758 79.1537 55.3802 79.1464L55.4329 79.0624C55.5062 78.9521 55.5836 78.8676 55.6263 78.8231C55.63 78.8168 55.634 78.8103 55.638 78.8036C55.6506 78.7824 55.6683 78.753 55.6898 78.7206C55.706 78.6961 55.7222 78.6729 55.7367 78.6532C55.752 78.6075 55.7723 78.5544 55.7992 78.4989L55.8079 78.4803L55.9017 78.3212C55.9211 78.2931 55.9381 78.2684 55.9486 78.2548C55.955 78.2436 55.9685 78.2238 55.9808 78.203C55.9934 78.1818 56.0121 78.1523 56.0335 78.12C56.1167 77.9945 56.2001 77.9045 56.2552 77.8495L56.2581 77.8456C56.3234 77.7254 56.391 77.6372 56.431 77.5917L56.4339 77.5887C56.4639 77.5366 56.502 77.4781 56.5511 77.4188C56.6017 77.2925 56.6616 77.1768 56.7191 77.0897L56.8636 76.9022C56.9059 76.8545 56.9388 76.8232 56.9495 76.8124L57.0374 76.7323ZM6.12533 74.9149C6.76834 74.915 7.28937 75.4359 7.28939 76.079C7.28939 76.6416 6.89018 77.1089 6.3597 77.2177C6.35781 77.2552 6.35385 77.2939 6.35385 77.3319V79.0643C6.38917 79.0882 6.43011 79.1162 6.47396 79.1493L6.71029 79.3524L6.7181 79.3602L6.89193 79.5526C6.9123 79.5764 6.92613 79.5912 6.93783 79.6044C6.94259 79.6097 6.94618 79.6135 6.94857 79.6161C6.95099 79.6178 6.95411 79.6223 6.95931 79.6259L6.99545 79.6483L7.00912 79.6571L7.22885 79.8055L7.24252 79.8153L7.4642 79.9618L7.47787 79.9716L7.5306 79.9833C7.56251 79.9921 7.61238 80.0066 7.67123 80.0302L7.87142 80.1337L7.8851 80.1415L7.89877 80.1503C7.92087 80.1649 7.94115 80.1819 7.96127 80.1971C8.00537 80.214 8.04418 80.2295 8.07357 80.243L8.0765 80.244H10.3372C10.9802 80.244 11.501 80.7662 11.5013 81.4091C11.5011 82.0114 11.0439 82.5072 10.4574 82.5673L10.3372 82.5731H7.99642C7.94211 82.5731 7.6768 82.5823 7.39095 82.4862L7.37142 82.4794C7.30455 82.4555 7.2485 82.4304 7.20931 82.412C7.18915 82.4025 7.16878 82.3927 7.15267 82.3846C7.12287 82.3783 7.0836 82.3697 7.04135 82.3573C6.97045 82.3364 6.82785 82.2913 6.67709 82.1884L6.66342 82.1786L6.6517 82.1698C6.64065 82.1618 6.63001 82.1526 6.61947 82.1444C6.39295 82.0552 6.20851 81.9257 6.17513 81.9032V81.9012C6.09255 81.847 6.00742 81.7912 5.94174 81.7469V81.745C5.85883 81.6905 5.77394 81.6329 5.70834 81.5887V81.5878C5.6637 81.5585 5.60436 81.5206 5.53842 81.4706L5.2972 81.2596C5.22319 81.1848 5.15527 81.1056 5.1224 81.0673L5.06869 81.0038C5.0609 80.9982 5.04676 80.9891 5.01986 80.9716L5.00619 80.9647C4.91929 80.9062 4.85395 80.8607 4.78451 80.8153L4.77279 80.8065C4.73747 80.7827 4.66643 80.7363 4.59799 80.6835C4.53843 80.6375 4.41168 80.5361 4.29818 80.3856L4.28744 80.3719L4.28939 80.37C4.00475 79.9802 4.02465 79.5697 4.02474 79.5272V77.3319C4.02478 77.0486 4.04872 76.5582 4.22982 76.0985C4.32427 75.859 4.48695 75.5611 4.77377 75.3182C5.08231 75.0572 5.47088 74.915 5.89291 74.9149H6.12533ZM32.6478 82.205C32.6522 82.2138 32.6466 82.2017 32.64 82.1893C32.6385 82.1867 32.636 82.184 32.6341 82.1805C32.6407 82.1933 32.6466 82.2026 32.6478 82.205ZM53.1683 74.9159C53.4474 74.9277 53.7235 75.039 53.9378 75.2509C54.3653 75.6739 54.3963 76.3463 54.0287 76.8055C54.0139 76.8457 53.9971 76.8908 53.974 76.9374L53.9769 76.9384C53.9748 76.9426 53.9712 76.9469 53.9691 76.951C53.9675 76.9543 53.9669 76.9586 53.9652 76.9618L53.9632 76.9598C53.9498 76.9856 53.9345 77.0077 53.9222 77.0282C53.9213 77.0305 53.9222 77.0337 53.9212 77.036C53.8868 77.1142 53.8189 77.2403 53.6995 77.369C53.672 77.4083 53.6465 77.4407 53.6263 77.4647C53.6245 77.4683 53.6242 77.4728 53.6224 77.4764L53.6195 77.4755C53.5509 77.6074 53.4757 77.7023 53.4369 77.7469C53.3998 77.7894 53.357 77.8306 53.3519 77.8358L53.3421 77.8485L53.3294 77.8593L53.2933 77.8934C53.2897 77.8996 53.2865 77.9073 53.2826 77.9139C53.2722 77.9313 53.256 77.9529 53.2396 77.9784C53.1881 78.1143 53.1238 78.241 53.0599 78.3378C53.0255 78.3898 52.9905 78.434 52.9701 78.4598L52.9691 78.4637C52.9627 78.4749 52.9508 78.4954 52.9388 78.5155C52.9265 78.5362 52.9087 78.5643 52.888 78.5956L52.8773 78.6122L52.7445 78.7821C52.728 78.8006 52.7101 78.8158 52.6956 78.8309C52.6909 78.8391 52.6874 78.8492 52.682 78.8583C52.6696 78.8791 52.6512 78.9085 52.6302 78.9403C52.562 79.0435 52.4905 79.1218 52.4408 79.1737C52.4354 79.1829 52.4295 79.1933 52.4232 79.204C52.4092 79.2274 52.3882 79.2623 52.3626 79.2997L52.3607 79.2977C52.2601 79.4457 52.1537 79.5486 52.1253 79.577L52.1244 79.578C52.0703 79.632 51.9871 79.715 51.8646 79.8182L51.8538 79.827C51.7097 79.9456 51.6689 79.9699 51.5658 80.0604C51.4847 80.1316 51.3975 80.2194 51.2943 80.3231C51.1919 80.4259 51.1005 80.5153 51.0335 80.5819C50.9589 80.6578 50.864 80.7534 50.7386 80.8534V80.8553L50.5775 80.9745C50.5404 81.001 50.5212 81.0126 50.5062 81.0233C50.2783 81.2513 49.9788 81.3651 49.679 81.3641C49.3821 81.3704 49.0827 81.2639 48.8509 81.0419C48.3866 80.597 48.3699 79.8598 48.8148 79.3954L48.9212 79.2938C48.9615 79.2573 49.0077 79.2171 49.0648 79.1737L49.0814 79.162L49.1419 79.118C49.1617 79.104 49.1771 79.0928 49.1937 79.0809C49.2262 79.0576 49.2466 79.043 49.2591 79.0331C49.2723 79.0225 49.2885 79.0078 49.3548 78.9403L49.3636 78.9325L49.6165 78.6796C49.7141 78.5816 49.8545 78.4419 50.0033 78.3114C50.1301 78.2001 50.3166 78.0534 50.346 78.0292C50.3674 78.0109 50.3847 77.9955 50.3988 77.9823C50.4085 77.9732 50.4165 77.9624 50.4261 77.953C50.4283 77.9493 50.4317 77.946 50.4339 77.9423C50.4463 77.9212 50.4643 77.8902 50.4867 77.8563L50.6312 77.6698C50.6514 77.6469 50.6693 77.6284 50.6829 77.6141C50.6865 77.608 50.6908 77.6002 50.6947 77.5936C50.707 77.573 50.7239 77.5447 50.7445 77.5135L50.889 77.327C50.9081 77.3053 50.9245 77.2863 50.9378 77.2723C50.9418 77.2656 50.9462 77.2582 50.9505 77.2509C50.9629 77.2301 50.9814 77.2015 51.0023 77.1698L51.0511 77.1014C51.0661 77.0569 51.085 77.0048 51.1107 76.951L51.1165 76.9393L51.1204 76.9286L51.2162 76.7675C51.2354 76.7397 51.2527 76.7155 51.263 76.702C51.2694 76.691 51.2832 76.6716 51.2953 76.6512C51.3076 76.6305 51.3241 76.6009 51.3451 76.5692L51.4847 76.3866C51.5168 76.3499 51.5459 76.3194 51.5697 76.2958C51.5977 76.2438 51.6243 76.1968 51.6517 76.1581L51.7454 76.0399C51.7755 75.9873 51.8139 75.9281 51.8636 75.868C51.9135 75.743 51.9734 75.6275 52.0326 75.538L52.0355 75.536L52.1781 75.3514C52.2194 75.3047 52.2509 75.2728 52.263 75.2606L52.3509 75.1805C52.5502 75.0161 52.7911 74.9273 53.0355 74.9159H53.1683ZM56.9144 80.0458V80.0438L56.4027 79.7069L56.9144 80.0458ZM57.6302 80.0087L56.6605 79.3641L57.6322 80.0057L56.3949 79.1884L57.6302 80.0087ZM57.8001 79.6698L57.7992 79.6727C57.7997 79.672 57.801 79.6712 57.8021 79.6698C57.8031 79.6684 57.8042 79.6654 57.806 79.663L57.8001 79.6698ZM57.1849 78.5878L57.8607 79.245L57.1605 78.5624L57.1849 78.5878ZM57.5941 79.1542L57.599 79.1581H57.5999L57.1165 78.6884L57.5941 79.1542ZM57.0042 78.7645L57.5199 79.1053L56.9408 78.7216L57.0042 78.7645ZM58.5374 78.5575C58.5391 78.5531 58.5421 78.5493 58.5433 78.5458V78.5438L58.5413 78.5428C58.54 78.5472 58.5391 78.5522 58.5374 78.5575ZM57.5863 78.5536H57.5882L57.3744 78.3456L57.5863 78.5536ZM57.5589 78.0741L58.4329 78.4911L57.5335 78.0604L57.5589 78.0741ZM58.6283 78.452C58.63 78.4469 58.6327 78.4425 58.6341 78.4384C58.6356 78.4336 58.6374 78.4272 58.639 78.4218C58.6378 78.4258 58.6331 78.4363 58.6283 78.452ZM50.3988 78.0018C50.3962 78.0059 50.395 78.0093 50.3949 78.0096C50.3953 78.0094 50.3967 78.0086 50.3978 78.0067C50.3996 78.0037 50.4022 77.999 50.4056 77.993L50.3988 78.0018ZM57.5892 77.9745L57.5453 77.951L57.139 77.7509L57.5892 77.9745ZM56.3988 77.7802C56.3992 77.7787 56.4022 77.7771 56.4027 77.7753C56.4041 77.7702 56.4057 77.7621 56.4085 77.7528C56.4045 77.7653 56.4002 77.7751 56.3988 77.7802ZM28.9349 77.1737C28.9318 77.1796 28.9289 77.1858 28.9271 77.1893C28.9282 77.1871 28.9333 77.1795 28.9388 77.1688C28.9378 77.1707 28.9358 77.1722 28.9349 77.1737ZM13.5218 51.2372C15.4411 52.591 19.2201 55.5606 18.9847 56.6073C15.5888 60.7621 11.405 62.1269 7.76303 64.2323L9.83041 54.8173L13.5218 51.2372ZM33.7816 51.5682C34.2407 51.3571 34.7738 51.3928 35.2064 51.6552L37.6204 53.1141C37.9443 53.3097 38.185 53.6173 38.2982 53.9774L39.8783 59.0175C40.1446 59.8667 39.6483 60.7814 38.7796 60.9755C35.5307 61.7036 31.1668 61.8832 29.179 54.5087C28.9755 53.9466 31.8198 52.475 33.7816 51.5682Z" fill="#FFC7C2"/>
<path d="M12.9992 74.7693C15.0334 74.7693 16.6824 73.3245 16.6824 71.5422C16.6824 69.76 15.0334 68.3152 12.9992 68.3152C10.965 68.3152 9.31592 69.76 9.31592 71.5422C9.31592 73.3245 10.965 74.7693 12.9992 74.7693Z" fill="#F24822"/>
<path d="M33.1834 74.7693C35.2176 74.7693 36.8667 73.3245 36.8667 71.5422C36.8667 69.76 35.2176 68.3152 33.1834 68.3152C31.1492 68.3152 29.5001 69.76 29.5001 71.5422C29.5001 73.3245 31.1492 74.7693 33.1834 74.7693Z" fill="#F24822"/>
<path fill-rule="evenodd" clip-rule="evenodd" d="M51.04 83.4938C50.1662 83.1275 49.2515 82.6474 48.3668 82.0397C47.4787 81.9464 46.659 81.8633 45.8893 81.7819L43.6634 81.5348C41.607 81.2907 39.4082 82.2183 37.3619 83.5135C35.9352 84.4155 34.2239 85.147 32.5509 85.3208C30.9594 85.4861 29.295 85.1473 28.0598 83.8501L27.8187 83.5787C27.1716 82.7938 26.7764 81.9716 26.63 81.1375C25.6173 81.2346 24.7158 81.2785 23.455 81.2785C20.3908 81.2785 17.4481 81.0013 14.8715 80.3172C13.6558 81.517 11.6653 82.6152 9.7072 83.1844C8.56359 83.5169 7.33875 83.698 6.19559 83.5741C5.1135 83.4568 4.04012 83.0558 3.2374 82.1898L3.08122 82.0094C2.26285 81.0163 1.8916 79.9408 1.94556 78.8586C1.99841 77.8007 2.45094 76.8623 3.04635 76.0945C3.9088 74.9825 5.17069 74.0986 6.41696 73.5609C6.04284 72.488 5.84991 71.3028 5.84988 70.0053V69.9746C5.84987 67.4986 5.84987 65.6114 6.39118 62.9578C6.66849 59.8738 7.5233 55.2562 10.1621 51.68L10.3531 51.4404C11.3516 50.2896 12.9524 49.8033 14.4318 50.2198L14.8033 50.332C15.6908 50.6178 16.7105 51.0835 17.6614 51.9135C18.6302 52.7593 19.4774 53.9415 20.0586 55.5843C21.0345 55.3183 22.0906 54.996 23.455 54.996C24.8886 54.996 26.2156 55.3069 27.4093 55.6207C27.9633 54.0481 28.7571 52.8891 29.67 52.0408C30.7738 51.0154 31.9874 50.5042 32.9982 50.2198L33.2954 50.1486C34.7855 49.8521 36.3642 50.438 37.2664 51.7103L37.509 52.0651C37.8766 52.6211 38.1976 53.2009 38.4824 53.7921H39.7803C41.02 53.7877 42.5137 53.5754 44.2108 53.3312C44.9548 53.2235 45.9092 53.0559 47.0007 52.8717C48.0818 52.6894 49.28 52.4937 50.4714 52.335C51.6603 52.1766 52.8638 52.0518 53.9557 52.0181C55.0101 51.9855 56.0487 52.0347 56.8911 52.2637C60.3948 53.1181 63.1705 54.8227 65.1653 57.2567C67.0936 59.6099 68.2373 62.5795 68.6663 65.9721C71.7759 68.7084 72.4501 73.1203 71.162 76.7662L71.0271 77.1255C69.4427 81.1412 65.635 84.0725 60.2723 84.8993L59.7492 84.9721L59.5779 84.9948L59.5203 85.0009L59.2898 85.007C57.1903 85.0612 54.0096 84.7381 51.04 83.4938ZM45.8696 74.5267C45.6178 73.2833 46.4211 72.0714 47.6648 71.8187C48.9078 71.5676 50.1192 72.3709 50.3713 73.6139L50.441 73.9066C50.8415 75.3431 51.9812 76.3824 53.7176 77.1089C55.2705 77.7595 57.0338 78.0314 58.3725 78.0823L58.9183 78.0914L58.9957 78.0899L59.073 78.0793C62.5374 77.5904 64.0537 75.9429 64.5891 74.5858L64.6937 74.2886C64.9076 73.604 64.909 72.9793 64.7907 72.457C64.6676 71.9133 64.3939 71.4102 64.0311 71.1152C63.5323 70.7099 62.7993 70.785 62.3936 71.2835C62.0143 71.7498 62.0565 72.4205 62.4709 72.8376C62.4828 72.8605 62.5043 72.9058 62.5194 72.9726C62.5425 73.0752 62.5576 73.243 62.5027 73.4759L62.4224 73.7307C62.2415 74.1892 61.5238 75.3607 58.8183 75.7609C57.8152 75.7589 56.4151 75.5923 55.1596 75.1666L54.6168 74.9619L54.124 74.7344C53.2301 74.2769 52.8622 73.8031 52.7124 73.3668L52.6548 73.153C52.1476 70.6486 49.706 69.0305 47.2023 69.5367C44.6992 70.045 43.079 72.4846 43.5861 74.9892L43.6831 75.4228C44.0627 76.9867 44.7304 78.3015 45.5633 79.4014L43.9394 79.2225C41.0559 78.8799 38.2751 80.1796 36.1171 81.5454L35.6501 81.8274C34.5463 82.4573 33.3673 82.8957 32.3113 83.0055C31.2027 83.1207 30.3407 82.8734 29.7337 82.2307L29.6155 82.0973C29.0861 81.4553 28.9128 80.9165 28.8937 80.4946C28.8747 80.0701 29.0075 79.6452 29.294 79.224C29.8943 78.3416 31.0848 77.6158 32.2431 77.3439C32.869 77.1967 33.2574 76.5704 33.1104 75.9444C32.9633 75.3186 32.3368 74.9304 31.7109 75.0771C30.1246 75.4495 28.3696 76.4423 27.3684 77.914C27.1881 78.1789 27.0315 78.4635 26.9044 78.7646C25.734 78.8916 24.8342 78.9496 23.455 78.9496C18.9836 78.9496 15.0988 78.3366 12.3728 76.8966C11.0264 76.1852 9.99115 75.2868 9.28872 74.184C8.58945 73.0862 8.17887 71.7215 8.17883 70.0053C8.17883 67.5957 8.18305 65.9387 8.63219 63.6401C8.66158 63.5531 8.6862 63.4628 8.69435 63.3672C8.69708 63.335 8.69915 63.3022 8.70193 63.2701C8.71007 63.2208 8.71531 63.1718 8.7171 63.123C8.98626 60.1776 9.79148 56.1049 12.0361 53.0628L12.0346 53.0613C12.4332 52.523 13.1518 52.2795 13.8011 52.4623L14.0891 52.5488C14.7691 52.7677 15.4817 53.1019 16.13 53.6678C16.7704 54.2269 17.3967 55.054 17.8525 56.3257L18.0374 56.8989L18.086 57.0429C18.3637 57.7476 19.1173 58.1975 19.9115 58.0285L19.9297 58.0254C21.52 57.6601 22.1325 57.3249 23.455 57.3249C24.9441 57.3249 26.2609 57.7382 27.8627 58.1513V58.1467C27.9351 58.1657 27.9983 58.1783 28.0477 58.1831C28.0846 58.1867 28.115 58.1887 28.1341 58.1892H28.1659C28.6676 58.1892 29.0891 57.8875 29.2758 57.4659L29.341 57.2779L29.3425 57.2734C29.7861 55.5219 30.5085 54.4415 31.2545 53.7481C32.0074 53.0486 32.8519 52.681 33.6289 52.4623L33.8761 52.4123C34.4549 52.3439 35.0376 52.5942 35.3666 53.0582L35.7593 53.6511C36.6327 55.067 37.215 56.6913 37.6106 58.3317C37.7613 58.9569 38.391 59.3422 39.0162 59.1914C39.6413 59.0407 40.0251 58.4111 39.8743 57.7859C39.7419 57.2367 39.5873 56.6793 39.4073 56.121H39.7879C41.2066 56.1161 42.8541 55.8789 44.4803 55.6448L44.5429 55.6358C45.3226 55.523 46.3229 55.3486 47.3888 55.1688C48.4656 54.9872 49.6299 54.7958 50.7792 54.6427C51.9307 54.4893 53.0468 54.3773 54.0269 54.347C55.0278 54.3161 55.7985 54.3757 56.3013 54.5169L56.3407 54.526C59.4082 55.2739 61.7231 56.7312 63.364 58.7335C65.0109 60.7433 66.0363 63.3731 66.3934 66.5513L66.4146 66.6892C66.4799 67.0061 66.645 67.3002 66.8938 67.5217L66.9332 67.555C69.2803 69.4664 69.9832 72.764 69.0666 75.6912L68.8619 76.2704C67.6332 79.3843 64.6085 81.8759 59.916 82.5977L59.4566 82.6613L59.3414 82.6765L59.2277 82.6795C57.3696 82.7275 54.5348 82.4324 51.9406 81.3452C49.4091 80.2841 46.7782 78.3069 45.9439 74.8648L45.8696 74.5267ZM4.88707 77.5213C5.51517 76.7115 6.51409 76.0355 7.46468 75.6487C8.41708 77.0535 9.73487 78.1364 11.2856 78.9556C11.6064 79.1251 11.9399 79.2803 12.2818 79.4287C11.4112 80.025 10.2647 80.5968 9.05673 80.948C8.09867 81.2265 7.19265 81.3398 6.44577 81.2588C5.80206 81.1889 5.3332 80.9846 5.00837 80.6705L4.87797 80.528C4.38094 79.9247 4.25009 79.4062 4.27147 78.9754C4.29417 78.5201 4.49527 78.0265 4.88707 77.5213Z" fill="#1A1A1A"/>
<path d="M12.8795 54.8002C12.2837 55.6076 11.7177 57.2441 11.3371 58.688C11.1211 59.5078 12.013 59.9984 12.6976 59.5C13.7963 58.6988 14.7537 58.2486 15.9488 57.9287C16.4758 57.7875 16.8012 57.2487 16.525 56.7783C15.8431 55.6153 14.6487 54.5394 14.0965 54.3841C13.6472 54.2568 13.1567 54.4245 12.8795 54.8002Z" fill="#F24822"/>
<path d="M35.2529 54.8002C35.8488 55.6076 36.4148 57.2441 36.7953 58.688C37.0113 59.5078 36.1194 59.9984 35.4349 59.5C34.3362 58.6988 33.3787 58.2486 32.1837 57.9287C31.6567 57.7875 31.3313 57.2487 31.6075 56.7783C32.2894 55.6153 33.4837 54.5394 34.036 54.3841C34.4853 54.2568 34.9758 54.4245 35.2529 54.8002Z" fill="#F24822"/>
<path d="M23.2292 73.75C23.658 73.75 24.0056 74.0976 24.0056 74.5263C24.0056 74.9551 23.658 75.3026 23.2292 75.3026H21.7373C21.3085 75.3026 20.9609 74.9551 20.9609 74.5263C20.9609 74.0976 21.3085 73.75 21.7373 73.75H23.2292Z" fill="#1A1A1A"/>
<path d="M20.1728 59.5239C20.7241 59.3699 21.2361 59.3552 21.7012 59.5148C22.1674 59.675 22.4945 59.9795 22.7307 60.2881C22.8351 60.4246 22.9273 60.5724 23.0112 60.7171C23.1081 60.5627 23.215 60.4121 23.3312 60.2744C23.5844 59.9743 23.9209 59.6865 24.3622 59.5284C24.816 59.3662 25.3136 59.3656 25.833 59.5314L26.1317 59.6467C26.4188 59.7765 26.6709 59.9544 26.8716 60.1865C27.1424 60.5001 27.2822 60.8701 27.3219 61.2463C27.3972 61.9626 27.118 62.7105 26.7548 63.3493C26.0192 64.6429 24.6602 65.9684 23.407 66.6062L23.1022 66.7609L22.7823 66.6411L22.4578 66.5092C20.8621 65.8079 19.623 64.4912 19.0265 63.2144C18.7108 62.5381 18.5344 61.7838 18.6748 61.0932C18.8284 60.338 19.3463 59.7548 20.1728 59.5239Z" fill="#F24822"/>
<path d="M26.4446 72.0555C26.6322 71.6739 27.0834 71.5213 27.4514 71.7157C27.4522 71.7164 27.4535 71.7177 27.4553 71.7186C27.46 71.7211 27.4685 71.7251 27.4787 71.7303C27.4995 71.7409 27.5317 71.7559 27.5715 71.7753C27.6519 71.8143 27.7649 71.8682 27.8938 71.9227C28.1699 72.0395 28.4534 72.1357 28.6448 72.1591C28.8279 72.1813 29.1131 72.1591 29.3967 72.118C29.5292 72.0988 29.6468 72.0788 29.7307 72.0624C29.7725 72.0542 29.8065 72.0465 29.8283 72.0419C29.8385 72.0397 29.8459 72.0371 29.8508 72.036C29.8531 72.0355 29.8556 72.0362 29.8567 72.036C30.26 71.9434 30.6599 72.2074 30.7492 72.6259C30.8382 73.0442 30.5832 73.4581 30.1799 73.5507L30.176 73.5516C30.1736 73.5522 30.1692 73.5537 30.1653 73.5546L30.009 73.5868C29.9077 73.6066 29.7661 73.6327 29.6047 73.6561C29.2999 73.7003 28.8541 73.7468 28.4699 73.7001C28.0665 73.6508 27.626 73.4852 27.3283 73.3593C27.1711 73.2927 27.0342 73.2299 26.9367 73.1825C26.8883 73.159 26.8485 73.1381 26.8205 73.1239C26.8065 73.1168 26.7934 73.1105 26.7854 73.1063C26.7819 73.1046 26.7788 73.1035 26.7766 73.1024L26.7717 73.0995L26.6448 73.0145C26.3726 72.7898 26.281 72.3898 26.4446 72.0555ZM28.9485 68.5096C29.7748 68.5096 30.4446 69.205 30.4446 70.0624C30.4443 70.9195 29.7747 71.6141 28.9485 71.6141C28.1223 71.6141 27.4526 70.9194 27.4524 70.0624C27.4524 69.2051 28.1222 68.5097 28.9485 68.5096Z" fill="#1A1A1A"/>
<path d="M19.0321 72.0554C18.8445 71.6736 18.3933 71.5211 18.0252 71.7156C18.0244 71.716 18.0226 71.7174 18.0203 71.7185C18.0156 71.721 18.0079 71.7251 17.9979 71.7302C17.9771 71.7408 17.945 71.7558 17.9051 71.7751C17.8248 71.8142 17.7118 71.868 17.5828 71.9226C17.3068 72.0394 17.0233 72.1355 16.8319 72.1589C16.6488 72.1812 16.3627 72.159 16.0789 72.1179C15.9465 72.0987 15.8288 72.0787 15.745 72.0623C15.7035 72.0541 15.6701 72.0464 15.6483 72.0417C15.638 72.0395 15.6298 72.037 15.6248 72.0359C15.6225 72.0354 15.6199 72.0361 15.619 72.0359C15.2156 71.9433 14.8157 72.2072 14.7264 72.6257C14.6375 73.044 14.8926 73.4578 15.2957 73.5505L15.3006 73.5515C15.303 73.5521 15.3067 73.5536 15.3104 73.5544L15.4676 73.5867C15.569 73.6065 15.7107 73.6326 15.8719 73.656C16.1768 73.7002 16.6226 73.7468 17.0067 73.7C17.41 73.6507 17.8497 73.485 18.1473 73.3591C18.3048 73.2925 18.4423 73.2298 18.5399 73.1824C18.5883 73.1588 18.6281 73.138 18.6561 73.1238C18.67 73.1167 18.6823 73.1103 18.6903 73.1062C18.694 73.1043 18.6977 73.1035 18.7 73.1023L18.7039 73.0994L18.8319 73.0144C19.1039 72.7896 19.1956 72.3895 19.0321 72.0554ZM16.5272 68.5095C15.7009 68.5096 15.0311 69.205 15.0311 70.0623C15.0313 70.9194 15.701 71.614 16.5272 71.614C17.3534 71.614 18.0231 70.9194 18.0233 70.0623C18.0233 69.2049 17.3535 68.5095 16.5272 68.5095Z" fill="#1A1A1A"/>
</svg>
