<svg width="75" height="86" viewBox="0 0 75 86" fill="none" xmlns="http://www.w3.org/2000/svg">
<path d="M35.7119 47.3526C40.0595 46.7316 41.1464 41.9187 41.1464 39.5899C41.1464 43.316 44.9841 45.8001 46.9029 46.5764C42.8129 47.1974 42.3962 51.4933 42.6991 53.5628C42.2754 50.6673 38.2998 48.1289 35.7119 47.3526Z" fill="#FFE8A3"/>
<path d="M39.9825 39.5899C39.9825 38.9468 40.5039 38.4255 41.1471 38.4255C41.7902 38.4255 42.3116 38.9468 42.3116 39.5899C42.3116 41.0292 43.0509 42.3016 44.1236 43.3606C45.1966 44.4198 46.4992 45.1567 47.3397 45.4968C47.826 45.6936 48.1211 46.1919 48.06 46.7128C47.9985 47.2332 47.597 47.6482 47.0789 47.7271L46.7923 47.7802C45.408 48.0792 44.655 48.9334 44.2313 49.968C43.8132 50.9893 43.7367 52.1657 43.8112 53.0397L43.8522 53.3945L43.8628 53.5128C43.8889 54.1024 43.4647 54.6278 42.8681 54.7151C42.2318 54.808 41.6405 54.3673 41.5474 53.7311C41.3996 52.7223 40.5808 51.6022 39.2911 50.5729C38.033 49.569 36.524 48.8124 35.3775 48.4685C34.8542 48.3114 34.5105 47.811 34.5511 47.2662C34.5919 46.7213 35.0064 46.2779 35.5473 46.2003C37.249 45.9573 38.3315 44.9144 39.0257 43.5759C39.7362 42.2057 39.9825 40.6133 39.9825 39.5899ZM41.464 43.8397C41.3531 44.1113 41.2316 44.3824 41.094 44.6478C40.5561 45.685 39.7854 46.6759 38.727 47.4057C39.4196 47.794 40.1088 48.2469 40.7437 48.7535C41.1208 49.0545 41.4936 49.3845 41.8431 49.7421C41.9104 49.5217 41.9878 49.3023 42.0766 49.0856C42.495 48.0638 43.1717 47.0992 44.1812 46.4035C43.6094 46.0114 43.0268 45.5501 42.4875 45.0177C42.1284 44.6633 41.781 44.2696 41.464 43.8397Z" fill="#FFC21A"/>
<path d="M48.1338 38.8137C51.2392 37.2611 51.498 33.8968 51.2392 31.8272C51.8603 35.5533 54.6035 38.0374 55.8973 38.8137C53.5683 40.3662 53.1248 41.9188 52.5149 43.4713C51.2392 41.1425 49.5019 39.8492 48.1338 38.8137Z" fill="#FFE8A3"/>
<path d="M51.0708 30.6749C51.6981 30.5835 52.2842 31.0109 52.3885 31.6362C52.9364 34.9224 55.3918 37.1517 56.4962 37.8145C56.8385 38.0199 57.0523 38.3873 57.0617 38.7864C57.0711 39.1852 56.8752 39.5611 56.5432 39.7825C55.5109 40.4706 54.9379 41.1274 54.5522 41.7535C54.144 42.4164 53.9277 43.0593 53.5985 43.8973C53.4332 44.3178 53.0396 44.604 52.5886 44.6327C52.1941 44.6577 51.8182 44.4817 51.5848 44.1717L51.4938 44.0307L51.274 43.6502C50.1563 41.7979 48.7144 40.7137 47.4301 39.7415C47.1095 39.4985 46.9367 39.1066 46.9737 38.706C47.0109 38.3053 47.2536 37.952 47.6136 37.772C50.0146 36.5712 50.328 33.925 50.0837 31.9712C50.0053 31.3426 50.4438 30.7665 51.0708 30.6749ZM51.8623 36.3984C51.4989 37.2944 50.9422 38.1561 50.111 38.8819C50.8161 39.4631 51.5713 40.1605 52.2823 41.0424C52.371 40.8727 52.4659 40.7011 52.5704 40.5315C52.9273 39.9522 53.3781 39.3839 53.9836 38.8288C53.2932 38.2197 52.5354 37.4027 51.8623 36.3984Z" fill="#FFC21A"/>
<path d="M38.8174 29.4984C41.5863 28.2563 42.3218 25.3577 42.3434 24.0645C42.9645 26.5485 44.6725 28.2051 45.4488 28.7221C43.5856 29.9641 43.1198 32.3442 43.1198 33.3797C42.4987 31.5167 39.9928 30.0154 38.8174 29.4984Z" fill="#FFE8A3"/>
<path d="M42.2114 22.9076C42.792 22.8411 43.3312 23.2155 43.473 23.7824C43.9425 25.66 45.1472 26.9914 45.8354 27.5577L46.0947 27.7532L46.2099 27.8412C46.4643 28.0607 46.6132 28.3814 46.6132 28.7221C46.6132 29.1114 46.4186 29.4749 46.0947 29.6909C45.4159 30.1435 44.9583 30.8272 44.6678 31.5588C44.3751 32.2961 44.2842 33.0034 44.2842 33.3797C44.2842 33.9508 43.8699 34.4375 43.3062 34.5289C42.8129 34.6087 42.3324 34.3657 42.0992 33.9407L42.0158 33.7481L41.9218 33.5162C41.6659 32.9719 41.1441 32.394 40.454 31.8484C39.6895 31.244 38.8573 30.7877 38.3493 30.5642C37.9281 30.3789 37.6551 29.963 37.6533 29.5029C37.6517 29.0427 37.9218 28.6239 38.3417 28.4355C40.5295 27.4538 41.1626 25.1061 41.1803 24.0447L41.203 23.8309C41.302 23.3456 41.7034 22.9658 42.2114 22.9076ZM42.6041 27.4076C42.2363 28.1103 41.735 28.8085 41.059 29.4149C41.3379 29.5995 41.6217 29.8022 41.899 30.0214C42.1151 30.1923 42.336 30.3794 42.5525 30.5824C42.8095 29.9655 43.1747 29.3191 43.6868 28.7357C43.3316 28.3708 42.9582 27.9258 42.6041 27.4076Z" fill="#FFC21A"/>
</svg>
