<svg width="75" height="86" viewBox="0 0 75 86" fill="none" xmlns="http://www.w3.org/2000/svg">
<path d="M38.8159 24.3872C40.4384 24.3872 41.8653 25.2179 42.6991 26.4755C43.1012 26.1386 43.5949 25.9398 44.129 25.9398C45.2857 25.9398 46.253 26.873 46.5092 28.126C46.6629 28.1601 46.8166 28.1928 46.9688 28.2285C47.7762 27.5267 48.7807 27.1091 49.8675 27.1091C51.6996 27.1091 53.2942 28.2921 54.1156 30.0342C54.2522 30.0202 54.3888 30.014 54.5285 30.014C56.3016 30.014 57.7937 31.2033 58.2564 32.8274C58.4986 32.7886 58.747 32.7699 59.0001 32.7699C61.5728 32.7699 63.658 34.8551 63.658 37.4278C63.658 37.8346 63.599 38.2259 63.5012 38.6016C64.9855 39.1481 66.0429 40.5703 66.0429 42.2425C66.0429 42.2456 66.0413 42.2487 66.0413 42.2534C67.3129 42.3574 68.3159 43.5855 68.3159 45.0885C68.3159 45.8368 68.0644 46.517 67.656 47.0262C68.9866 48.0277 69.8685 49.7619 69.8685 51.7493C69.8685 52.6498 69.6838 53.5038 69.3577 54.2646C69.6807 54.8856 69.8685 55.5843 69.8685 56.3296C69.8685 57.6959 69.2568 58.9224 68.288 59.7608C69.2568 60.6148 69.8685 61.8414 69.8685 63.2077C69.8685 65.3504 68.3609 67.1513 66.3099 67.6948C66.7384 68.2071 67.0055 68.9059 67.0055 69.6666C67.0055 71.1261 66.0584 72.3372 64.8411 72.4924C64.8411 72.508 64.8427 72.508 64.8427 72.5235C64.8427 74.9922 62.9143 77.0106 60.4798 77.1659C60.1211 79.6035 58.4179 81.4977 56.2892 81.7927C55.4011 83.0037 54.0814 83.7646 52.6064 83.7646C51.6841 83.7646 50.8209 83.4695 50.088 82.9416C49.1999 84.1682 47.8755 84.9446 46.3959 84.9446C45.2128 84.9446 44.129 84.4477 43.289 83.6248C42.4491 84.4477 41.3669 84.9446 40.1853 84.9446C38.597 84.9446 37.1857 84.044 36.3038 82.6777C35.4203 84.044 34.0105 84.9446 32.4222 84.9446C31.2391 84.9446 30.1553 84.4477 29.3154 83.6248C28.4754 84.4477 27.3932 84.9446 26.2117 84.9446C23.8718 84.9446 21.9186 83.0038 21.4668 80.4419C20.838 80.8301 20.1222 81.0475 19.363 81.0475C17.7684 81.0475 16.3711 80.0848 15.5683 78.6409C15.3044 78.703 15.0311 78.7341 14.7501 78.7341C12.6711 78.7341 10.9772 77.0883 10.8779 75.0388C9.55346 74.3556 8.67158 73.1291 8.67158 71.7472C8.67158 70.8622 9.02867 70.0393 9.62643 69.3872C7.91233 69.2009 6.57395 67.5396 6.57395 65.5367C6.57395 64.3877 7.00404 63.3785 7.68564 62.6643C6.20598 61.8879 5.19678 60.3354 5.19678 58.5498C5.19678 56.9041 6.05073 55.4601 7.33942 54.6216C6.52894 54.1558 5.96843 53.1932 5.96843 52.0753C5.96843 50.5227 7.0475 49.2496 8.38432 49.2341L8.38588 49.2185C7.99307 48.5354 7.76328 47.745 7.76328 46.9004C7.76328 45.0884 8.79888 43.5218 10.3096 42.7517C10.2894 42.5841 10.2785 42.4148 10.2785 42.2425C10.2785 40.5548 11.2225 39.1217 12.5392 38.5861C12.4647 38.2662 12.4212 37.9308 12.4212 37.5846C12.4212 35.4404 13.9443 33.703 15.8214 33.703C16.2702 33.703 16.6971 33.804 17.0884 33.9826C17.0822 33.8909 17.0791 33.7962 17.0791 33.703C17.0791 31.1303 19.1643 29.0451 21.737 29.0451C22.4481 29.0451 23.1204 29.2081 23.7228 29.4938C24.4851 27.8806 26.1697 26.7581 28.1307 26.7581C28.6617 26.7581 29.1725 26.8435 29.6507 26.9941C30.4534 26.3342 31.4844 25.9398 32.6054 25.9398C33.436 25.9398 34.2155 26.1603 34.8909 26.5407C35.7184 25.2474 37.1655 24.3872 38.8159 24.3872Z" fill="#E5F4FF"/>
<path d="M15.2672 76.3261C16.2095 76.2014 17.1409 76.663 17.6067 77.5072C18.0772 78.3612 18.7663 78.7187 19.3625 78.7187C19.6606 78.7187 19.9592 78.6408 20.248 78.47L20.5012 78.3351C21.1067 78.0574 21.8071 78.0454 22.4223 78.3305C23.1255 78.641 23.626 79.2772 23.7596 80.0378C24.064 81.7613 25.2596 82.6154 26.2114 82.6154V84.9444L25.7778 84.9216C23.6336 84.6993 21.891 82.8441 21.4671 80.4427C20.8383 80.8308 20.1218 81.0476 19.3625 81.0476C17.768 81.0476 16.3701 80.0852 15.5674 78.6414C15.3038 78.7034 15.0308 78.7338 14.7501 78.7339V76.4049C14.8494 76.4049 14.9582 76.3889 15.0792 76.3579L15.2672 76.3261Z" fill="#1A1A1A"/>
<path d="M27.8656 81.8073C28.7718 81.0812 30.0919 81.1337 30.939 81.9635C31.3971 82.3982 31.9142 82.6154 32.4219 82.6154V84.9444L31.9822 84.9216C30.9712 84.8152 30.0499 84.3449 29.3151 83.6253C28.4752 84.448 27.3928 84.9443 26.2114 84.9444V82.6154C26.7159 82.6154 27.2333 82.3981 27.6913 81.9635L27.8656 81.8073Z" fill="#1A1A1A"/>
<path d="M36.3035 80.3487C37.0953 80.3487 37.834 80.7531 38.2625 81.4206C38.7904 82.2433 39.5175 82.6154 40.1851 82.6154V84.9444L39.8894 84.9338C38.4223 84.8299 37.1303 83.9586 36.3035 82.6776C35.4201 84.0439 34.0102 84.9443 32.4219 84.9444V82.6154C33.0895 82.6154 33.8151 82.2434 34.3445 81.4206L34.5189 81.1826C34.958 80.6581 35.6093 80.3487 36.3035 80.3487Z" fill="#1A1A1A"/>
<path d="M41.8393 81.8073C42.7455 81.0812 44.0655 81.1337 44.9127 81.9635C45.3707 82.3982 45.8879 82.6154 46.3956 82.6154V84.9444L45.9559 84.9216C44.9449 84.8152 44.0236 84.3449 43.2888 83.6253C42.4489 84.448 41.3665 84.9443 40.1851 84.9444V82.6154C40.6896 82.6154 41.207 82.3981 41.6649 81.9635L41.8393 81.8073Z" fill="#1A1A1A"/>
<path d="M48.3546 81.3918C49.1356 80.525 50.4605 80.3636 51.4341 81.0476C51.8082 81.3114 52.2057 81.4358 52.6061 81.4358V83.7648L52.2635 83.7511C51.4702 83.6875 50.729 83.4034 50.0877 82.9414C49.1996 84.1679 47.8752 84.9443 46.3956 84.9444V82.6154C47.0181 82.6154 47.6859 82.2894 48.206 81.5753L48.3546 81.3918Z" fill="#1A1A1A"/>
<path d="M67.5396 63.2075C67.5395 62.5555 67.2542 61.9656 66.7496 61.5154C66.2469 61.0808 65.9582 60.444 65.9582 59.7611C65.9582 59.0937 66.2469 58.4567 66.7496 58.022C67.2542 57.5718 67.5395 56.9819 67.5396 56.3299C67.5396 55.9883 67.4524 55.6457 67.2894 55.3352C66.9682 54.7143 66.9419 53.9842 67.2182 53.3323C67.4198 52.8667 67.5396 52.339 67.5396 51.7493C67.5396 50.4453 66.957 49.4207 66.2553 48.8927C65.7523 48.5045 65.4232 47.94 65.3456 47.3158C65.2666 46.6903 65.4441 46.0596 65.8384 45.5691C65.9082 45.4806 65.987 45.3166 65.987 45.0885C65.987 44.8509 65.9066 44.6901 65.8414 44.6093C65.8223 44.5856 65.8073 44.5736 65.799 44.5669C64.613 44.4421 63.7095 43.444 63.7126 42.247C63.7126 42.2419 63.7126 42.2369 63.7126 42.2319C63.7082 41.5736 63.2926 41.0078 62.6967 40.7884C61.5728 40.3739 60.9464 39.1748 61.2472 38.0152C61.3015 37.8043 61.329 37.6099 61.3291 37.4284C61.3291 36.143 60.2855 35.0997 59.0001 35.0995C58.9317 35.0995 58.8656 35.1022 58.803 35.107L58.4073 35.151C57.3238 35.2231 56.3219 34.5304 56.0177 33.468C55.8313 32.8132 55.2301 32.3432 54.5287 32.3429C54.4667 32.3429 54.4101 32.3459 54.3604 32.3505C53.3763 32.4545 52.4327 31.9254 52.0103 31.0299C51.495 29.9356 50.6284 29.4381 49.8678 29.4378C49.3989 29.4378 48.9256 29.6141 48.4971 29.9867C47.9305 30.4785 47.163 30.6669 46.4335 30.4946C46.3018 30.4636 46.1653 30.4347 46.0135 30.4021C45.113 30.205 44.4121 29.4953 44.2274 28.5933C44.2013 28.4652 44.1511 28.3788 44.1106 28.3234C43.6144 28.704 42.9861 28.8708 42.3639 28.7813C41.7087 28.6866 41.1246 28.3151 40.7582 27.7624C40.336 27.1259 39.6215 26.7163 38.8159 26.7162C37.9961 26.7162 37.2716 27.1405 36.8524 27.7957C36.1862 28.8371 34.8214 29.1775 33.7441 28.5705C33.4042 28.3781 33.0182 28.2689 32.6054 28.2688C32.0404 28.2688 31.5291 28.4659 31.1286 28.7949C30.5184 29.2949 29.6967 29.454 28.9452 29.2149C28.6846 29.1327 28.4133 29.0876 28.131 29.0876C27.0707 29.0876 26.2052 29.6923 25.8293 30.487C25.5654 31.0458 25.0906 31.4783 24.5087 31.6864C23.9281 31.8944 23.286 31.8638 22.7271 31.6C22.4198 31.4541 22.0861 31.3741 21.737 31.374C20.4514 31.374 19.408 32.4159 19.408 33.703C19.408 33.7387 19.4095 33.7836 19.4126 33.844C19.4607 34.6607 19.0782 35.4434 18.4028 35.9046C17.7274 36.3672 16.8599 36.4401 16.1163 36.1002C16.0107 36.052 15.9138 36.0319 15.8206 36.0319C15.6328 36.032 15.3967 36.1125 15.1686 36.3746C14.9357 36.6401 14.7501 37.0613 14.7501 37.5846C14.7501 37.7351 14.769 37.8932 14.8077 38.0561C15.0686 39.1725 14.4778 40.3128 13.4158 40.7444C13.0805 40.8811 12.6077 41.3855 12.6077 42.2425C12.6077 42.3154 12.612 42.395 12.6228 42.4866C12.7329 43.4522 12.2322 44.3852 11.3659 44.8261C10.6023 45.2159 10.0922 46.0016 10.0922 46.9004C10.0922 47.318 10.2043 47.7095 10.4046 48.0573C10.6932 48.5509 10.7819 49.1417 10.6608 49.716L10.6108 49.9131C10.3205 50.8628 9.46664 51.5236 8.47289 51.5598C8.46671 51.5646 8.45743 51.5692 8.44863 51.578C8.38186 51.6556 8.297 51.8269 8.297 52.0753C8.297 52.2458 8.33839 52.3855 8.38949 52.4786C8.4432 52.5707 8.49299 52.6022 8.49563 52.603C9.20188 53.0065 9.64576 53.7518 9.66617 54.5589C9.6879 55.3817 9.28333 56.1438 8.59874 56.5785C7.94668 57.0132 7.5253 57.7268 7.52524 58.5497C7.52524 59.4346 8.02333 60.2114 8.77159 60.5996C9.41748 60.9412 9.86813 61.5775 9.98458 62.2917C10.101 63.0214 9.87058 63.7517 9.36444 64.2795C9.11164 64.5435 8.90203 64.978 8.90198 65.5365C8.90198 66.5923 9.57683 67.0429 9.89512 67.074C10.7642 67.1828 11.5028 67.757 11.8086 68.5796C12.1145 69.4025 11.9346 70.3186 11.3446 70.9707C11.0854 71.2501 11.0005 71.5142 11.0005 71.747C11.0005 72.073 11.2172 72.5855 11.9466 72.9737C12.684 73.3462 13.163 74.0914 13.2036 74.9296C13.2439 75.7525 13.9226 76.4049 14.7501 76.4049V78.7339L14.365 78.7157C12.4653 78.5275 10.9708 76.9603 10.8776 75.0388C9.63613 74.3984 8.78247 73.2805 8.68061 72.0048L8.67152 71.747C8.67157 70.8624 9.02788 70.0397 9.62523 69.3877C7.91143 69.2011 6.57304 67.5391 6.57304 65.5365C6.57308 64.3879 7.00321 63.3789 7.68444 62.6647C6.20498 61.8884 5.19629 60.335 5.19629 58.5497C5.19635 56.9039 6.0501 55.4595 7.33874 54.6211C6.57912 54.1843 6.03866 53.3114 5.97412 52.283L5.96806 52.0753C5.96806 50.5228 7.0468 49.2496 8.38343 49.2339L8.38495 49.2187C8.04122 48.6209 7.82323 47.9407 7.7739 47.2142L7.76329 46.9004C7.76329 45.0885 8.79841 43.5221 10.3091 42.7519C10.299 42.668 10.2916 42.5836 10.2863 42.4987L10.2787 42.2425C10.2787 40.5548 11.2228 39.1225 12.5394 38.5868C12.4836 38.347 12.4445 38.0977 12.4288 37.8423L12.4212 37.5846C12.4212 35.4405 13.9436 33.7032 15.8206 33.703C16.2693 33.703 16.6969 33.8034 17.0882 33.982C17.082 33.8905 17.0791 33.796 17.0791 33.703C17.0791 31.1303 19.1643 29.0451 21.737 29.0451L22.0008 29.0527C22.5265 29.0827 23.0282 29.2016 23.4928 29.3923L23.7217 29.4939C24.4841 27.8807 26.17 26.7586 28.131 26.7586L28.5252 26.7738C28.915 26.8049 29.2918 26.8808 29.6502 26.9936C30.4529 26.3339 31.4845 25.9398 32.6054 25.9398L32.9132 25.9505C33.6283 25.9978 34.2993 26.2074 34.8904 26.5403C35.718 25.2471 37.1656 24.3872 38.8159 24.3872L39.1177 24.3963C40.6142 24.4923 41.9174 25.2962 42.699 26.4751C43.1011 26.1384 43.5949 25.9398 44.1288 25.9398C45.2854 25.94 46.2532 26.8734 46.5093 28.1263L46.9688 28.2278C47.776 27.5264 48.7812 27.1089 49.8678 27.1089L50.2074 27.1225C51.8952 27.2588 53.3447 28.4007 54.1148 30.0337C54.2514 30.0197 54.389 30.014 54.5287 30.014L54.8578 30.0276C56.3755 30.1554 57.6422 31.1573 58.1571 32.5279L58.2557 32.8281C58.4979 32.7893 58.7471 32.7705 59.0001 32.7705L59.2397 32.7766C61.7008 32.9015 63.658 34.9362 63.658 37.4284L63.6474 37.7301C63.6262 38.0294 63.5737 38.3202 63.5003 38.602C64.9847 39.1485 66.0431 40.5703 66.0431 42.2425C66.0431 42.2455 66.0416 42.2486 66.0416 42.2531C67.3128 42.3575 68.3159 43.5858 68.3159 45.0885L68.3038 45.3659C68.25 46.0043 68.0121 46.5807 67.6548 47.0262C68.9854 48.0277 69.8686 49.7619 69.8686 51.7493L69.8595 52.0844C69.8197 52.8617 69.6429 53.599 69.3576 54.2648C69.6804 54.8857 69.8686 55.5847 69.8686 56.3299L69.861 56.5846C69.7901 57.848 69.1953 58.9752 68.2871 59.7611C69.2559 60.615 69.8685 61.8413 69.8686 63.2075L69.8504 63.6048C69.6774 65.5701 68.2326 67.1844 66.3099 67.6941C66.7385 68.2065 67.0044 68.9059 67.0044 69.6667C67.0043 71.1262 66.0579 72.3378 64.8407 72.493C64.8407 72.5079 64.8422 72.5082 64.8422 72.5233L64.8195 72.9812C64.5985 75.2372 62.7619 77.0202 60.48 77.1661C60.1213 79.6035 58.4175 81.4969 56.2891 81.7921C55.401 83.0031 54.081 83.7647 52.6061 83.7648V81.4358C53.2271 81.4357 53.8919 81.1249 54.412 80.4108L54.5606 80.2274C54.9263 79.8207 55.4246 79.5613 55.9692 79.4799C56.8695 79.3556 57.9345 78.4547 58.1753 76.8249L58.2147 76.6233C58.4507 75.6375 59.3042 74.9101 60.3329 74.8371C61.5437 74.7599 62.5016 73.7608 62.5117 72.543C62.5115 72.5309 62.5117 72.5186 62.5117 72.5082C62.5055 71.3438 63.3686 70.3497 64.5283 70.1944C64.4556 70.1944 64.4723 70.2249 64.5374 70.1474C64.6011 70.0542 64.6754 69.8994 64.6754 69.6667C64.6754 69.4342 64.5936 69.2639 64.5238 69.1861C64.0114 68.5806 63.8479 67.7407 64.0902 66.98C64.3308 66.2196 64.9445 65.646 65.714 65.444C66.8273 65.149 67.5396 64.2012 67.5396 63.2075Z" fill="#1A1A1A"/>
<path d="M10.6942 49.5295C10.6911 49.5452 10.6867 49.5761 10.6821 49.6069C10.6867 49.5914 10.6926 49.5604 10.6942 49.5295Z" fill="#1A1A1A"/>
<path d="M60.1519 50.7868C60.1519 60.1957 50.5023 68.2539 38.0269 68.2539C25.5515 68.2539 15.9019 60.1957 15.9019 50.7868C15.9019 41.3639 25.5515 33.3149 38.0269 33.3149C50.5023 33.3149 60.1519 41.3639 60.1519 50.7868Z" fill="#047195"/>
<path d="M58.9873 50.7865C58.9872 42.2321 50.1102 34.4793 38.0268 34.4793C25.9434 34.4793 17.0664 42.2321 17.0663 50.7865C17.0663 59.3272 25.9435 67.0892 38.0268 67.0892C50.1101 67.0892 58.9873 59.3272 58.9873 50.7865ZM61.3163 50.7865C61.3163 61.0637 50.8943 69.4181 38.0268 69.4181C25.1593 69.4181 14.7373 61.0637 14.7373 50.7865C14.7374 40.4953 25.1596 32.1504 38.0268 32.1504C50.894 32.1504 61.3161 40.4953 61.3163 50.7865Z" fill="#085A78"/>
<path d="M56.0952 59.4192L57.3389 56.8884C57.727 56.0965 57.3777 55.1494 56.5703 54.7923L23.9526 40.4025C23.035 39.9972 21.9792 40.5563 21.7991 41.5437L19.3289 55.0252C19.1659 55.9257 19.7978 56.7641 20.6999 56.8573L54.5441 60.2887C55.19 60.3508 55.8095 60.0092 56.0952 59.4192Z" fill="#80CAFF"/>
<path d="M20.6542 41.3338C20.97 39.6061 22.8176 38.6276 24.4235 39.3369L24.422 39.3384L57.0409 53.7275L57.2957 53.8564C58.5197 54.5565 59.0235 56.0974 58.3843 57.4014L57.141 59.9335L57.1395 59.932C56.6379 60.9619 55.5556 61.556 54.433 61.4482L54.5619 60.1154L54.5437 60.2928L54.433 61.4482L54.4269 61.4467L20.5829 58.0154L20.7815 56.058L20.6997 56.857L20.5829 58.0154H20.5799C19.0015 57.8522 17.8993 56.3833 18.1827 54.8177L18.1842 54.8147L19.329 55.0254L19.6686 55.0861L18.1842 54.8147L20.6542 41.3338ZM23.482 41.4672C23.2533 41.3665 22.9905 41.5062 22.9452 41.7522V41.7537L20.4737 55.2316C20.4311 55.4669 20.5939 55.6753 20.8194 55.6986H20.8179L54.6589 59.1284C54.8246 59.143 54.9766 59.0571 55.0471 58.9115L55.0501 58.9055L56.2934 56.3749C56.3872 56.1824 56.3072 55.9499 56.0993 55.8578V55.8563L23.482 41.4687V41.4672ZM23.952 40.4028L23.4911 41.449L23.952 40.4028Z" fill="#0D99FF"/>
<path d="M50.2694 62.4004L50.2616 62.2141C50.2305 61.4067 49.5924 60.7546 48.7913 60.7235L26.0545 59.5281C24.3342 59.4349 23.769 61.7949 25.3434 62.4936L35.7787 67.1359C36.1016 67.2756 36.4634 67.3067 36.8049 67.2135L49.1142 63.9686C49.8175 63.7823 50.2973 63.1301 50.2694 62.4004Z" fill="#80CAFF"/>
<path d="M26.1179 58.3653L26.1164 58.3668L48.8525 59.5601C50.2698 59.6225 51.3699 60.7731 51.4255 62.165L51.4331 62.3515V62.3561L50.2702 62.4L50.0367 62.4091L51.4331 62.3561C51.4816 63.626 50.6459 64.7675 49.412 65.0944L37.1016 68.3391L37.1001 68.3376C36.4958 68.4997 35.8684 68.4427 35.317 68.2042L35.3049 68.1997L35.7794 67.1352L35.7931 67.1019L35.3049 68.1997L24.8716 63.5569C22.1204 62.336 23.1006 58.2019 26.1179 58.3653ZM25.9936 60.6912L25.8951 60.6927C25.8116 60.7025 25.7623 60.7317 25.7298 60.7579C25.6747 60.8026 25.6214 60.8809 25.5964 60.9854C25.5714 61.0898 25.584 61.1839 25.613 61.2492C25.6361 61.3008 25.6837 61.3708 25.8162 61.4296L36.2404 66.0663C36.3311 66.1056 36.4229 66.1109 36.4981 66.0906L36.5087 66.0875L48.8161 62.8428C48.9876 62.7973 49.1112 62.6363 49.1057 62.4485L49.0981 62.262V62.259L49.0875 62.1802C49.0473 62.0072 48.9007 61.8935 48.7463 61.8875L48.7949 60.6624L48.7297 61.886L25.9936 60.6912ZM48.7463 61.8875L48.7297 61.886L48.7918 60.7231L48.7463 61.8875Z" fill="#0D99FF"/>
<path d="M58.2099 51.9201L58.803 49.1563C58.9241 48.5974 58.727 48.0214 58.2907 47.6518L44.2036 35.7043C43.8822 35.4326 43.4646 35.3022 43.0469 35.3441L30.216 36.6049C28.6727 36.757 28.2799 38.8282 29.6617 39.5331L55.9866 52.9758C56.8933 53.4261 57.9941 52.9138 58.2099 51.9201Z" fill="#80CAFF"/>
<path d="M42.9312 34.1856C43.6645 34.1122 44.3948 34.341 44.9554 34.8149L44.9569 34.8164L59.0428 46.7628C59.8048 47.4082 60.1518 48.4187 59.9404 49.3996L59.3491 52.1637L59.3476 52.1667L58.2104 51.9196L58.1512 51.9059L59.3476 52.1667C58.9669 53.9193 57.0386 54.7986 55.469 54.0196L55.986 52.9764L55.9603 53.0249L55.469 54.0196L55.4569 54.0135L29.1319 40.5705L30.1917 38.4963L56.5046 51.9332L56.5971 51.9666C56.8131 52.0162 57.0271 51.8776 57.0717 51.6724L57.6645 48.9114C57.694 48.7753 57.6484 48.6329 57.5387 48.5399L43.4513 36.5934C43.3693 36.5243 43.2648 36.4922 43.1632 36.5024L42.9782 34.6496L43.0464 35.344L43.1632 36.5024H43.1602L30.3297 37.7639C30.2084 37.776 30.1412 37.8187 30.0977 37.861C30.0472 37.9103 30.0032 37.9853 29.9855 38.0778C29.968 38.1704 29.981 38.2563 30.0098 38.3204C30.0345 38.3753 30.0827 38.4406 30.1917 38.4963L29.1319 40.5705C26.7121 39.3356 27.4045 35.7116 30.1023 35.4456L42.9312 34.1856Z" fill="#0D99FF"/>
<path d="M40.2962 77.4176C40.7561 77.8669 41.4933 77.8591 41.9428 77.3994C42.3922 76.9395 42.3829 76.2023 41.9231 75.7527L38.8406 72.7384C38.3881 72.296 37.6647 72.296 37.2122 72.7384L34.1296 75.7527L34.0493 75.8407C33.6712 76.2938 33.69 76.9683 34.1114 77.3994C34.533 77.8304 35.2071 77.8644 35.6686 77.4964L35.7581 77.4176L38.0264 75.1993L40.2962 77.4176Z" fill="#1A1A1A"/>
<path d="M46.6985 69.1367C47.3074 68.988 47.9653 69.2469 48.2578 69.7859C48.5504 70.3261 48.3797 70.9682 47.8828 71.3264L47.6504 71.4596L46.2643 72.0956L47.5505 72.8705L47.7645 73.03C48.2123 73.4392 48.3029 74.0956 47.9439 74.6005C47.5846 75.1054 46.8936 75.2915 46.3071 75.0771L46.0646 74.9607L42.8032 72.9925C42.3974 72.7475 42.1635 72.3221 42.1918 71.8761C42.2205 71.4299 42.5073 71.0305 42.9419 70.831L46.4396 69.2268L46.6985 69.1367Z" fill="#1A1A1A"/>
<path d="M28.366 69.1367C27.757 68.988 27.0992 69.2469 26.8066 69.7859C26.514 70.3261 26.6848 70.9682 27.1817 71.3264L27.4141 71.4596L28.8001 72.0956L27.5139 72.8705L27.2999 73.03C26.8521 73.4392 26.7616 74.0956 27.1205 74.6005C27.4798 75.1054 28.1708 75.2915 28.7573 75.0771L28.9999 74.9607L32.2612 72.9925C32.667 72.7475 32.901 72.3221 32.8727 71.8761C32.844 71.4299 32.5572 71.0305 32.1226 70.831L28.6248 69.2268L28.366 69.1367Z" fill="#1A1A1A"/>
</svg>
