<svg width="75" height="86" viewBox="0 0 75 86" fill="none" xmlns="http://www.w3.org/2000/svg">
<path d="M8.38292 32.1032C16.3307 34.6649 22.8603 34.0594 26.2222 34.0594C29.4935 34.0594 39.4296 32.569 43.1044 30.3954C43.531 30.147 43.7189 29.6348 43.6189 29.1535C41.6003 19.357 31.6285 12.4792 24.1989 13.2244C17.3473 13.892 7.97542 19.2792 7.46418 30.7991C7.43783 31.3891 7.81793 31.9169 8.38292 32.1032Z" fill="#FF99E0"/>
<path d="M25.5898 12.0437C30.1221 13.3399 35.5638 18.8435 36.7168 29.0701L34.4023 29.3308C33.456 20.937 29.4951 16.4246 26.2451 14.7947C26.0802 18.7253 26.0171 25.4716 26.7402 29.3933L24.4512 29.8142C23.6971 25.7239 23.7486 18.9878 23.9072 14.9714C20.3519 16.7699 15.7531 21.3415 15.7529 28.9363H13.4238C13.424 18.8402 20.5798 13.3081 24.9502 12.0583L25.2676 13.1707L25.5898 12.0437Z" fill="#FFBDF2"/>
<path d="M24.0831 12.0655C28.1755 11.6552 32.8153 13.3383 36.6519 16.3153C40.5052 19.3053 43.6845 23.7018 44.7596 28.916L44.7885 29.0874C44.9015 29.9423 44.5545 30.8927 43.6952 31.3965L43.6967 31.398C41.6656 32.5991 38.0785 33.543 34.7322 34.1862C31.3499 34.8363 27.9654 35.2232 26.2227 35.2233C22.9477 35.2233 16.1907 35.8431 8.02535 33.2113L8.01777 33.2098C6.98141 32.868 6.25071 31.8835 6.3013 30.7476C6.84597 18.4746 16.849 12.7731 24.0831 12.067V12.0655ZM35.2235 18.1559C31.7125 15.4315 27.652 14.049 24.3151 14.3837H24.3121C17.8433 15.014 9.10514 20.0856 8.62733 30.8507C8.62541 30.8937 8.65332 30.963 8.74257 30.9947C16.4718 33.4855 22.7741 32.8944 26.2227 32.8944C27.7516 32.8944 30.971 32.5382 34.2925 31.8998C37.629 31.2586 40.8261 30.3753 42.4791 29.4103C42.4792 29.4041 42.4805 29.3974 42.4791 29.3906L42.4776 29.3891C41.5336 24.8078 38.7176 20.8671 35.2235 18.1559Z" fill="#1A1A1A"/>
<path d="M5.35384 33.5783C5.26357 32.4605 5.34226 31.2029 5.48739 30.054C5.68963 28.4549 7.32274 27.5544 8.89757 27.896C18.8845 30.0074 34.5307 28.8431 43.0413 27.8029C44.2943 27.6477 45.5051 28.3461 45.7683 29.5727C45.9472 30.411 46.0712 31.296 46.1757 32.1033C46.3711 33.6248 45.3896 35.1464 43.8937 35.4724C31.3498 38.2204 19.1699 37.351 7.34305 35.519C6.30926 35.3638 5.43721 34.6341 5.35384 33.5783Z" fill="#FF99E0"/>
<path d="M20.21 28.6877C20.21 29.5033 20.1249 30.8764 20.0293 32.342C19.9321 33.8317 19.8207 35.4533 19.7637 36.8254L17.4375 36.7278C17.496 35.3211 17.6089 33.6651 17.7051 32.1897C17.8028 30.6906 17.8809 29.4089 17.8809 28.6877H20.21ZM33.7549 28.6877C33.7549 29.4089 33.8329 30.6906 33.9307 32.1897C34.0269 33.6651 34.1407 35.321 34.1992 36.7278L31.8721 36.8254C31.815 35.4533 31.7046 33.8317 31.6074 32.342C31.5118 30.8764 31.4258 29.5034 31.4258 28.6877H33.7549ZM24.5479 28.6184C24.5968 29.4266 24.5933 30.7993 24.5859 32.2659C24.5785 33.7576 24.5664 35.3829 24.5918 36.7551L22.2627 36.7981C22.2367 35.3916 22.2494 33.7323 22.2568 32.2551C22.2644 30.7534 22.2649 29.4704 22.2217 28.7571L24.5479 28.6184ZM29.373 28.6184C29.422 29.4266 29.4185 30.7993 29.4111 32.2659C29.4037 33.7576 29.3916 35.3829 29.417 36.7551L27.0879 36.7981C27.0619 35.3916 27.0746 33.7323 27.082 32.2551C27.0895 30.7534 27.0901 29.4704 27.0469 28.7571L29.373 28.6184ZM38.0859 28.5442C38.2358 29.7434 38.5643 32.804 38.6816 35.6252L36.3535 35.7229C36.2398 32.9873 35.9196 29.9938 35.7744 28.8323L38.0859 28.5442ZM42.5674 28.5442C42.7173 29.7434 43.0466 32.8039 43.1641 35.6252L40.8359 35.7229C40.7221 32.9872 40.402 29.9938 40.2568 28.8323L42.5674 28.5442ZM11.3789 28.677C11.2337 29.8382 10.9136 32.8318 10.7998 35.5676L8.47363 35.4709C8.59096 32.6495 8.91742 29.5882 9.06738 28.3889L11.3789 28.677ZM15.8613 28.677C15.7161 29.8382 15.395 32.8318 15.2812 35.5676L12.9561 35.4709C13.0734 32.6495 13.3998 29.5882 13.5498 28.3889L15.8613 28.677Z" fill="#FFBDF2"/>
<path d="M42.8977 26.6473C44.6242 26.4333 46.492 27.3959 46.9068 29.3278V29.3293C47.0016 29.7736 47.0819 30.2273 47.151 30.6711L47.3314 31.9538V31.9553C47.5798 33.8916 46.439 35.8788 44.5338 36.5038L44.1426 36.6099C31.3959 39.4022 19.0532 38.5095 7.17024 36.6691C5.74361 36.4547 4.33092 35.3976 4.19371 33.6716C4.09459 32.4439 4.1813 31.0993 4.33169 29.9085C4.63897 27.4789 7.05919 26.3114 9.1369 26.7579L9.13842 26.7564C18.9149 28.8234 34.3848 27.6891 42.8977 26.6488V26.6473ZM43.1843 28.9579H43.1828C34.6742 29.9978 18.8542 31.1907 8.65775 29.0352L8.65168 29.0337C7.58153 28.8016 6.73957 29.4341 6.64256 30.1996C6.5202 31.1682 6.45162 32.1857 6.49093 33.1L6.51519 33.4851V33.4866C6.54558 33.8708 6.87593 34.2713 7.51596 34.3675H7.52203C19.291 36.1905 31.3063 37.0373 43.6452 34.3342H43.6468C44.4994 34.1479 45.1454 33.2291 45.0205 32.2525C44.9426 31.6501 44.8569 31.0243 44.7476 30.4164L44.6293 29.816C44.5172 29.2957 43.9633 28.8614 43.1843 28.9579Z" fill="#1A1A1A"/>
<path d="M24.9028 4.67495C25.7439 4.50955 26.5611 5.05774 26.727 5.89859C26.8634 6.59134 26.9827 7.33449 27.0776 8.1271C27.4325 7.66327 27.754 7.2121 28.0463 6.77749C28.5248 6.06597 29.49 5.87622 30.2016 6.35464C30.9128 6.83314 31.1007 7.79755 30.6225 8.50894C30.1337 9.23575 29.5722 10.0016 28.9243 10.7921C29.5898 10.731 30.2789 10.6478 30.9916 10.5343C31.8383 10.3997 32.634 10.9769 32.769 11.8234C32.9038 12.6701 32.3267 13.4658 31.4799 13.6007C30.6807 13.728 29.9071 13.8202 29.1596 13.8878C29.5407 14.193 29.9384 14.4989 30.3559 14.8019C31.0498 15.3055 31.2052 16.276 30.7016 16.9699C30.1979 17.6638 29.2257 17.8183 28.5317 17.3146C27.9825 16.916 27.4637 16.5124 26.9702 16.1095C26.8878 16.6937 26.7889 17.2933 26.6694 17.9074C26.5054 18.7487 25.6897 19.2986 24.8481 19.1349C24.0069 18.971 23.4582 18.1559 23.6215 17.3146C23.7325 16.7442 23.8242 16.1882 23.8999 15.6476C23.3313 16.0866 22.7304 16.5261 22.0903 16.9572C21.3792 17.4359 20.4151 17.248 19.936 16.5373C19.457 15.8262 19.6449 14.862 20.3559 14.383C20.7238 14.1352 21.0755 13.8824 21.4165 13.632C20.7311 13.5206 20.0854 13.3937 19.4799 13.255C18.6445 13.0633 18.1226 12.2302 18.3139 11.3947C18.5056 10.5593 19.3386 10.0374 20.1743 10.2287C20.6295 10.3329 21.1109 10.4296 21.6176 10.5177C21.1228 9.8456 20.6856 9.19389 20.2983 8.57046C19.8463 7.84229 20.0703 6.88518 20.7983 6.43277C21.5266 5.98074 22.4845 6.20469 22.937 6.93277C23.2506 7.43763 23.6019 7.96426 23.9956 8.50796C23.91 7.7916 23.8017 7.12202 23.6791 6.49917C23.5137 5.65812 24.0618 4.84078 24.9028 4.67495Z" fill="#80CAFF"/>
</svg>
