<svg width="75" height="86" viewBox="0 0 75 86" fill="none" xmlns="http://www.w3.org/2000/svg">
<path d="M33.9917 33.3818C26.2751 33.3818 20.0087 39.1576 19.8612 46.3152C18.7386 45.9891 17.5446 45.8029 16.3041 45.8029C9.87154 45.8029 4.65936 50.6626 4.65936 56.6713C4.65936 58.8916 5.37668 60.9566 6.60482 62.68C2.67666 64.6363 0.00146484 68.5179 0.00146484 72.9739C0.00146484 79.4018 5.56144 84.6187 12.4225 84.6187C12.7905 84.6187 13.1538 84.6031 13.514 84.5721C13.6833 84.6031 13.8556 84.6187 14.0341 84.6187H62.9219C62.9715 84.6187 63.0197 84.6187 63.0694 84.6187C68.5564 84.5255 72.9752 80.3955 72.9752 75.3029C72.9752 70.8003 69.5081 67.0429 64.9014 66.1734C66.0861 64.0463 66.7646 61.6087 66.7646 59.0003C66.7646 50.8489 60.1597 44.2503 52.0146 44.2503C50.6235 44.2503 49.2789 44.4521 48.0042 44.8092C47.0741 38.3502 41.1571 33.3818 33.9917 33.3818Z" fill="#F1E5FF"/>
<path d="M59.7452 64.7761C63.3271 49.3585 53.6868 46.5327 46.8335 45.5545L48.9078 45.0267L54.2846 44.3589C54.8311 44.2813 55.3854 44.359 55.8931 44.5763L60.0029 46.3464C60.3662 46.5016 60.697 46.7191 60.9764 46.9985L64.8549 50.8801C65.0909 51.113 65.2865 51.3925 65.4371 51.6875L65.8626 52.5413C65.9464 52.7121 66.0131 52.883 66.0659 53.0538L66.8904 55.864C67.0441 56.3919 67.0565 56.9509 66.9277 57.4788L65.9868 61.3293L65.6405 63.0682C65.3828 64.3569 65.9619 65.6611 67.0876 66.3443L68.6418 67.2758C68.9399 67.4466 69.2069 67.6796 69.429 67.9435L72.1119 71.1574C72.6615 71.825 72.9131 72.679 72.8075 73.533L72.3138 77.4767C72.2377 78.0822 71.9861 78.6566 71.5887 79.1224L69.5128 81.529C68.9228 82.2277 68.0626 82.6158 67.1574 82.6158H61.1565C70.0081 76.2966 65.5862 71.2971 61.5431 68.8284C60.1675 67.99 59.3803 66.3442 59.7452 64.7761Z" fill="#E4CCFF"/>
<path d="M2.32895 72.9738C2.32895 77.9733 6.70365 82.2896 12.4211 82.2896V84.6186L11.7812 84.6034C5.21892 84.291 0 79.2006 0 72.9738C0 68.5178 2.67671 64.6364 6.60475 62.6801C5.45303 61.0642 4.75033 59.1479 4.66699 57.0851L4.6579 56.6712C4.6579 50.6625 9.8718 45.8028 16.3026 45.8028C16.9463 45.8028 17.5783 45.8491 18.1934 45.9423C18.1929 45.8958 18.1888 45.8493 18.1888 45.8028C18.1888 38.0862 24.8917 31.8291 33.1602 31.8291L33.8516 31.8443C40.9493 32.1458 46.7565 37.0663 47.9178 43.4435C49.428 42.9622 51.0385 42.6975 52.7106 42.6975L53.5142 42.7172C61.7596 43.1355 68.3156 49.9537 68.3158 58.3012C68.3158 61.2045 67.5214 63.9219 66.143 66.2508C70.9525 67.229 74.5263 70.9088 74.5263 75.3028C74.5263 80.442 69.6256 84.6185 63.5791 84.6186V82.2896C68.7058 82.2896 72.1974 78.8272 72.1974 75.3028C72.1974 72.2752 69.6848 69.3402 65.6775 68.5328C64.9395 68.3776 64.3196 67.8816 64.0142 67.1833C63.709 66.5002 63.7562 65.7081 64.1401 65.056C65.3125 63.0842 65.9868 60.7699 65.9868 58.3012C65.9866 50.9729 60.0429 45.0265 52.7106 45.0265C51.2861 45.0265 49.9161 45.2596 48.6319 45.6633C47.9935 45.8649 47.297 45.7877 46.7215 45.4465C46.1456 45.1049 45.7468 44.5296 45.6268 43.862C44.6456 38.4744 39.5387 34.158 33.1602 34.158C26.0302 34.1581 20.5275 39.5052 20.5178 45.7861C20.5183 45.7962 20.5189 45.8093 20.5193 45.8179C20.5202 45.849 20.5219 45.8805 20.5223 45.9271C20.5297 46.6102 20.236 47.263 19.7202 47.7133C19.2045 48.1475 18.5182 48.349 17.8431 48.2561C17.3399 48.1784 16.8248 48.1317 16.3026 48.1317C11.0038 48.1317 6.98684 52.1065 6.98684 56.6712C6.98684 58.3791 7.53771 59.9783 8.50157 61.3291C8.8971 61.888 9.02898 62.5872 8.86395 63.2547C8.69884 63.9064 8.253 64.465 7.64338 64.7755C4.42034 66.3747 2.32895 69.4959 2.32895 72.9738Z" fill="#1A1A1A"/>
<path d="M13.9009 82.2745C13.9894 82.29 14.027 82.2896 14.0343 82.2896V84.6186C13.8565 84.6186 13.6823 84.6026 13.5127 84.5716C13.1532 84.6026 12.7888 84.6186 12.4211 84.6186V82.2896C12.7089 82.2896 13.0076 82.2737 13.3232 82.2426C13.516 82.2271 13.7101 82.2434 13.9009 82.2745Z" fill="#1A1A1A"/>
<path d="M62.9225 84.6186H14.0343V82.2896H62.9225V84.6186Z" fill="#1A1A1A"/>
<path d="M63.5791 82.2896V84.6186L63.3683 84.6171C63.2984 84.6151 63.2286 84.6112 63.1591 84.6034C63.0813 84.6189 63.0023 84.6186 62.9225 84.6186V82.2896H62.9877C63.0695 82.2741 63.1515 82.2745 63.2334 82.2745C63.381 82.29 63.4828 82.2896 63.5791 82.2896Z" fill="#1A1A1A"/>
<path d="M13.1992 69.0923C15.3428 69.0924 17.0801 70.8305 17.0801 72.9741C17.0799 75.1177 15.3428 76.8548 13.1992 76.855C11.0556 76.855 9.31752 75.1177 9.31738 72.9741C9.31738 70.8304 11.0555 69.0923 13.1992 69.0923ZM39.5938 69.0923C41.7375 69.0923 43.4756 70.8304 43.4756 72.9741C43.4754 75.1177 41.7374 76.855 39.5938 76.855C37.4501 76.855 35.7121 75.1177 35.7119 72.9741C35.7119 70.8304 37.45 69.0923 39.5938 69.0923Z" fill="#D9B8FF"/>
<path d="M29.3887 73.9829H22.3887L25.8887 79.2329L29.3887 73.9829Z" fill="#FFAFA3"/>
<path d="M29.3893 72.8188C29.8186 72.819 30.2133 73.056 30.4158 73.4344C30.6181 73.8129 30.5962 74.2721 30.3582 74.6292L26.8572 79.88C26.6412 80.2035 26.2774 80.3985 25.8883 80.3985C25.4993 80.3984 25.1354 80.2036 24.9195 79.88L21.42 74.6292C21.1818 74.272 21.1599 73.813 21.3624 73.4344C21.565 73.0558 21.9594 72.8188 22.3889 72.8188H29.3893ZM25.8883 77.1326L27.2135 75.1478H24.5647L25.8883 77.1326Z" fill="#1A1A1A"/>
<path d="M22.7521 71.6813C23.0851 72.0692 23.6696 72.1144 24.0575 71.7813C24.4453 71.4483 24.4893 70.8638 24.1564 70.4759C23.1426 69.295 21.9706 68.9502 20.8885 69.1572C19.8934 69.3475 19.114 69.9767 18.6874 70.4807C18.3571 70.871 18.4057 71.4546 18.7959 71.785C19.1862 72.1152 19.7699 72.0667 20.1002 71.6765C20.3452 71.3869 20.7779 71.0639 21.2357 70.9761C21.6067 70.9051 22.1297 70.9564 22.7521 71.6813Z" fill="#1A1A1A"/>
<path d="M32.0636 71.6813C32.3966 72.0692 32.9811 72.1144 33.3691 71.7813C33.7568 71.4483 33.8008 70.8638 33.4679 70.4759C32.4542 69.295 31.2821 68.9502 30.2 69.1572C29.2049 69.3475 28.4255 69.9767 27.9989 70.4807C27.6687 70.871 27.7172 71.4546 28.1074 71.785C28.4977 72.1152 29.0814 72.0667 29.4117 71.6765C29.6567 71.3869 30.0894 71.0639 30.5472 70.9761C30.9182 70.9051 31.4413 70.9564 32.0636 71.6813Z" fill="#1A1A1A"/>
</svg>
