<svg width="75" height="86" viewBox="0 0 75 86" fill="none" xmlns="http://www.w3.org/2000/svg">
<path d="M17.2931 35.2757C19.1252 30.0899 33.5834 27.4661 40.5826 26.814C41.4024 27.8076 43.0404 30.7732 43.0404 34.5771C43.0404 39.3282 57.7532 37.4029 58.6583 40.7876C59.3819 43.4892 57.261 46.0511 56.1089 46.9982C58.087 47.2311 62.2869 48.5974 63.2635 52.2461C64.2401 55.8948 62.7356 59.5745 61.8614 60.9719C63.8643 62.804 67.8686 63.7045 67.8686 68.735C67.8686 72.7563 64.5925 79.6811 55.255 82.1809C47.7837 84.1838 40.2907 82.3361 37.4774 81.1561C27.9504 82.3205 8.29564 82.3982 5.87975 73.3929C3.46541 64.3721 11.4475 58.2548 15.7405 56.314C13.6708 56.0811 9.52998 54.5129 9.52998 50.1034C9.52998 45.694 14.7049 44.1258 17.2931 43.8929C16.5292 43.1787 15.461 40.477 17.2931 35.2757Z" fill="#9FC1AA"/>
<path d="M16.9888 42.3555C18.4172 44.2342 22.026 47.355 25.9712 48.9697C27.3653 49.5289 27.9608 51.9041 26.7437 52.7891L22.2153 56.0811C20.0184 58.441 15.6236 63.9838 15.6235 67.2754C15.6235 78.6251 37.7798 73.4087 37.7798 78.4082C37.7794 82.1031 31.4021 82.0098 28.8433 82.3203L11.7251 79.541L5.43408 73.626L6.82178 63.5342L14.9644 56.873L10.061 53.084V47.0605L17.9312 43.8311L16.9888 42.3555ZM61.2993 48.4727L63.9497 52.0752L63.4253 59.7451C63.0666 60.0867 61.3504 60.1491 58.5122 61.7949C54.9643 63.8288 45.8022 63.9994 45.8022 60.832C45.8027 57.6649 58.9067 58.4252 58.9067 54.8076C58.9066 51.9198 57.2656 48.3954 56.4458 46.998L61.2993 48.4727Z" fill="#678E79"/>
<path d="M66.7039 68.7349C66.7039 66.6097 65.8919 65.4331 64.8541 64.535C64.3018 64.0569 63.6831 63.6578 63.0164 63.231C62.3816 62.8246 61.6644 62.37 61.0757 61.8315C60.6612 61.4524 60.5763 60.831 60.874 60.3547C61.6566 59.1036 62.9991 55.7635 62.1385 52.5475C61.7555 51.1164 60.7304 50.0775 59.476 49.3468C58.2154 48.6124 56.8289 48.2558 55.9735 48.155C55.5099 48.1004 55.1224 47.7735 54.991 47.3256C54.8598 46.8779 55.0096 46.3953 55.37 46.099C55.8445 45.7088 56.557 44.9467 57.0591 44.0035C57.5599 43.0629 57.793 42.0582 57.5337 41.0893C57.5311 41.08 57.4906 40.9506 57.1486 40.7542C56.7986 40.5534 56.2706 40.3635 55.5581 40.1887C54.1261 39.8373 52.2941 39.6223 50.3467 39.3471C48.4669 39.0815 46.4693 38.7577 44.9322 38.1614C43.4448 37.5845 41.8755 36.537 41.8755 34.577C41.8755 33.6368 41.9163 32.6358 41.9255 31.8615C41.9354 31.0319 41.9145 30.3435 41.8179 29.7706C41.7222 29.2036 41.5639 28.8262 41.3554 28.5651C41.1764 28.341 40.9011 28.1308 40.4184 27.9799C36.4531 28.0014 31.2906 28.7966 26.8965 30.2088C24.6703 30.9243 22.6884 31.7838 21.1742 32.7485C19.6357 33.7287 18.7216 34.726 18.3904 35.6612C17.5177 38.1388 17.3647 39.9449 17.4792 41.1575C17.5972 42.4082 17.9879 42.948 18.0887 43.0422C18.424 43.3558 18.5442 43.8378 18.395 44.2719C18.2457 44.7059 17.8544 45.0116 17.3973 45.0528L16.9333 45.1073C15.793 45.2688 14.2902 45.6786 13.0411 46.4295C11.6367 47.2739 10.694 48.4455 10.694 50.1034C10.694 51.8812 11.5055 53.0523 12.559 53.8439C13.6532 54.6661 14.9963 55.0586 15.8704 55.157C16.3911 55.2156 16.809 55.6144 16.8909 56.1319C16.9724 56.6497 16.6982 57.1592 16.2207 57.3753L15.8325 57.5572C13.8491 58.5259 11.1779 60.3613 9.21867 62.908C7.15183 65.595 5.91371 69.0131 7.00496 73.0911C7.49683 74.9244 8.8834 76.3911 11.0442 77.5413C13.2114 78.6947 16.0471 79.4664 19.1849 79.9369C25.4546 80.8771 32.638 80.5748 37.3359 80.0006L37.4875 79.9915C37.6381 79.9928 37.7874 80.0239 37.9272 80.0825C40.576 81.1935 47.7987 82.9737 54.9531 81.0559L55.5565 83.306C48.0113 85.3287 40.4903 83.5906 37.3207 82.3447C32.4886 82.9117 25.2494 83.2013 18.8392 82.2401C15.5711 81.75 12.4446 80.9253 9.9495 79.5973C7.60414 78.3489 5.71973 76.5992 4.90345 74.1858L4.75486 73.6946C3.43207 68.7522 4.97825 64.6008 7.37189 61.4888C8.95462 59.4312 10.9235 57.8014 12.7364 56.6384C12.2023 56.39 11.6644 56.0853 11.1595 55.7059C9.62505 54.5528 8.36503 52.7349 8.36503 50.1034C8.36503 47.3521 10.0104 45.5345 11.8403 44.4341C13.0159 43.7273 14.3265 43.2758 15.4883 43.0104C15.3328 42.5318 15.2183 41.9844 15.1608 41.3759C15.0083 39.759 15.2358 37.6126 16.1949 34.8894C16.7804 33.2322 18.2096 31.8752 19.9233 30.7834C21.6623 29.6756 23.8455 28.7436 26.1839 27.992C30.8594 26.4894 36.3442 25.6495 40.5821 25.6494C40.6837 25.6494 40.7857 25.6626 40.8839 25.6888C41.8533 25.9481 42.621 26.4189 43.1749 27.1126C43.7157 27.7898 43.9793 28.5888 44.1135 29.3839C44.2466 30.1734 44.2631 31.0347 44.253 31.8887C44.2422 32.798 44.2044 33.6154 44.2044 34.577C44.2044 34.9926 44.4758 35.4861 45.7753 35.9902C47.0249 36.4748 48.7618 36.7709 50.6727 37.0409C52.5162 37.3014 54.5319 37.5385 56.113 37.9264C56.907 38.1213 57.6792 38.3729 58.307 38.7331C58.9318 39.0916 59.558 39.6424 59.7838 40.4858L59.8596 40.8103C60.1882 42.421 59.7402 43.9243 59.1152 45.0982C58.8809 45.5382 58.612 45.9443 58.3358 46.3128C59.0818 46.5534 59.8799 46.8872 60.6481 47.3347C62.2322 48.2575 63.7951 49.7281 64.3886 51.9456C65.3053 55.3713 64.2746 58.7517 63.35 60.6625C63.6225 60.8524 63.9296 61.0489 64.2734 61.269C64.9207 61.6834 65.679 62.1683 66.378 62.7731C67.843 64.0409 69.0329 65.8298 69.0329 68.7349C69.0329 73.2986 65.3882 80.6739 55.5565 83.306L54.9531 81.0559C63.7958 78.6884 66.7039 72.2138 66.7039 68.7349Z" fill="#1A1A1A"/>
<path d="M40.3542 56.2578H34.0542L37.2042 61.3328L40.3542 56.2578Z" fill="#FFAFA3"/>
<path d="M40.3546 55.1323C40.7409 55.1325 41.0961 55.3615 41.2785 55.7274C41.4605 56.0932 41.4407 56.5372 41.2266 56.8824L38.0757 61.9581C37.8813 62.2708 37.5538 62.4594 37.2037 62.4594C36.8536 62.4592 36.526 62.2709 36.3317 61.9581L33.1822 56.8824C32.9679 56.5371 32.9481 56.0933 33.1303 55.7274C33.3127 55.3614 33.6677 55.1323 34.0542 55.1323H40.3546ZM37.2037 59.3022L38.3964 57.3836H36.0124L37.2037 59.3022Z" fill="#1A1A1A"/>
<path d="M29.3684 55.4511C30.0575 56.2537 31.2669 56.3472 32.0696 55.6581C32.872 54.969 32.9629 53.7595 32.2741 52.9568C30.1765 50.5134 27.7513 49.7999 25.5123 50.2282C23.4533 50.6221 21.8405 51.924 20.9579 52.9668C20.2744 53.7743 20.3749 54.9821 21.1824 55.6656C21.9899 56.349 23.1976 56.2486 23.8811 55.4411C24.3882 54.842 25.2834 54.1737 26.2307 53.9919C26.9984 53.845 28.0807 53.9511 29.3684 55.4511Z" fill="#1A1A1A"/>
<path d="M49.5588 55.4506C50.2479 56.2532 51.4574 56.3467 52.26 55.6576C53.0624 54.9685 53.1533 53.759 52.4646 52.9564C50.3669 50.513 47.9417 49.7994 45.7027 50.2277C43.6437 50.6216 42.0309 51.9235 41.1483 52.9663C40.4649 53.7738 40.5653 54.9816 41.3728 55.6651C42.1803 56.3485 43.3881 56.2481 44.0715 55.4406C44.5786 54.8415 45.4738 54.1732 46.4211 53.9915C47.1888 53.8446 48.2711 53.9506 49.5588 55.4506Z" fill="#1A1A1A"/>
</svg>
