<svg width="75" height="86" viewBox="0 0 75 86" fill="none" xmlns="http://www.w3.org/2000/svg">
<path d="M32.811 10.7949C39.1506 16.8638 38.6927 25.2212 37.6716 32.3769C37.4671 33.8099 35.9899 35.0147 34.5423 35.0116C32.6504 35.0069 31.7853 33.2633 31.8926 31.3754C32.0272 29.0031 31.9977 26.4322 31.9464 24.0645C31.5771 18.0143 30.9569 15.8205 30.2243 14.9154C29.3699 13.8612 27.654 13.6159 26.4353 14.2152C25.2016 14.8207 24.8517 16.2506 24.9389 17.2427C24.9529 17.401 25.0103 17.5578 25.081 17.7006C29.3759 26.3343 20.2965 26.6589 18.1662 23.4125C15.9309 20.6101 18.4418 18.2254 20.3364 17.1743C21.0197 16.794 21.5091 16.0581 21.5008 15.2772C21.4596 11.4672 23.3333 9.58234 25.4496 8.75484C27.9951 7.76121 30.8372 8.90392 32.811 10.7949Z" fill="#B3EE71"/>
<path d="M25.027 7.66968C28.1611 6.44651 31.4675 7.896 33.6154 9.95301C40.4173 16.4645 39.8454 25.3928 38.8255 32.5407C38.6748 33.5966 38.071 34.5011 37.3197 35.1273C36.6622 35.6753 35.8225 36.0684 34.927 36.1568L34.5403 36.1765L34.2886 36.1674C33.0494 36.0891 32.0947 35.4552 31.4941 34.536C30.8838 33.6019 30.6663 32.4293 30.7298 31.3096C30.8608 29.0014 30.835 26.4872 30.7844 24.1352C30.601 21.1317 30.3587 19.1343 30.0824 17.7961C29.8014 16.4356 29.509 15.8816 29.3197 15.6477L30.2249 14.9154L31.1301 14.1816C31.6733 14.8527 32.0583 15.8496 32.3629 17.3246C32.6335 18.6348 32.8592 20.4256 33.0362 22.8934L33.112 24.0396C33.1633 26.4097 33.1933 29.0201 33.0559 31.4415C33.0123 32.2092 33.1744 32.8517 33.4425 33.2624C33.6805 33.6267 34.0153 33.8446 34.5449 33.8461C34.9536 33.847 35.4275 33.6717 35.8277 33.3382C36.228 33.0046 36.4653 32.5888 36.5191 32.2117C37.5093 25.2723 37.8609 17.748 32.5388 12.1696L32.0066 11.6359L31.6624 11.3236C29.9112 9.81362 27.7071 9.12189 25.8731 9.83778C24.9868 10.1844 24.1955 10.7356 23.6244 11.5601C23.0559 12.3809 22.6477 13.5587 22.6661 15.2641C22.6797 16.5327 21.9039 17.6351 20.9041 18.1918C20.0517 18.6647 19.1628 19.3886 18.7267 20.1916C18.5193 20.5735 18.4281 20.9454 18.4568 21.3136C18.4853 21.6781 18.6388 22.1363 19.0769 22.6857L18.1565 23.418L19.1406 22.7736C19.4697 23.2751 20.1495 23.7363 21.0527 23.979C21.9454 24.2188 22.8915 24.1974 23.6229 23.9214C24.3153 23.6598 24.7996 23.1862 24.9784 22.4249C25.1718 21.6015 25.0506 20.254 24.0383 18.2191V18.2161C23.9348 18.0066 23.8107 17.7028 23.779 17.3443C23.6714 16.1188 24.0715 14.0791 25.9216 13.1703L26.234 13.0338C27.8311 12.4113 29.9556 12.7326 31.1301 14.1816L29.3197 15.6477C28.8632 15.0855 27.7651 14.8586 26.9497 15.2596L26.8375 15.3232C26.3023 15.6619 26.0417 16.4147 26.0975 17.1199C26.1013 17.1312 26.1085 17.1519 26.1233 17.1821C27.2582 19.4635 27.6144 21.3945 27.2469 22.9586C26.8647 24.5846 25.7511 25.6086 24.4447 26.1016C23.177 26.5799 21.722 26.5699 20.4477 26.2274C19.2047 25.8934 17.9737 25.1946 17.2331 24.1048C16.5703 23.2634 16.2048 22.3859 16.1353 21.494C16.0653 20.5943 16.302 19.7776 16.6796 19.0818C17.4138 17.7294 18.7293 16.7338 19.7714 16.1556C20.1372 15.9515 20.34 15.5826 20.337 15.2899C20.3143 13.1857 20.8223 11.5159 21.7093 10.235C22.5936 8.95815 23.7972 8.15052 25.027 7.66968ZM19.1103 22.7282L19.1406 22.7736L18.1672 23.4119L19.0769 22.6857L19.1103 22.7282Z" fill="#1A1A1A"/>
<path d="M21.3132 22.9294C22.8349 21.8395 23.0858 20.8211 23.1277 19.9206C23.1405 19.6474 23.4567 19.517 23.6324 19.7265C25.5959 22.0631 24.3371 23.9976 21.4115 23.4837C21.1437 23.4371 21.0923 23.0878 21.3132 22.9294Z" fill="#78B136"/>
</svg>
