<svg width="75" height="86" viewBox="0 0 75 86" fill="none" xmlns="http://www.w3.org/2000/svg">
<path d="M33.1728 10.3509C27.3146 9.40382 13.9247 10.3509 8.06656 25.4991L4.75293 39.4906C7.26355 37.598 13.0877 36.8606 18.1089 36.8606C34.8465 36.8606 40.0069 39.7002 44.8889 39.7002C52.4208 20.7653 39.0308 11.2964 33.1728 10.3509Z" fill="#007BE5" stroke="#1A1A1A" stroke-width="2.74597" stroke-linejoin="round"/>
<path d="M38.5703 38.0815C38.4794 38.3217 38.3832 38.5608 38.2822 38.7983L36.8525 38.1919C36.9454 37.9734 37.0344 37.752 37.1182 37.5308L38.5703 38.0815ZM26.6904 35.9048C26.6673 36.1574 26.6453 36.4106 26.625 36.6636L25.0781 36.5396C25.0989 36.2805 25.1209 36.0208 25.1445 35.7622L26.6904 35.9048ZM39.4375 35.1265C39.3297 35.6271 39.2051 36.125 39.0605 36.6187L37.5693 36.1831C37.703 35.7268 37.8198 35.2643 37.9199 34.7993L39.4375 35.1265ZM13.4258 34.979C13.3993 35.224 13.3753 35.4701 13.3555 35.7163L11.8086 35.5923C11.8295 35.3321 11.8538 35.072 11.8818 34.813L13.4258 34.979ZM27.0342 32.8716C26.9663 33.3744 26.9041 33.8802 26.8467 34.3862L25.3037 34.2104C25.3624 33.6936 25.4259 33.1779 25.4951 32.6646L27.0342 32.8716ZM39.8809 32.0923C39.8397 32.6009 39.7823 33.1091 39.709 33.6147L38.1729 33.3921C38.2413 32.92 38.2934 32.4446 38.332 31.9673L39.8809 32.0923ZM13.9062 32.0581C13.7992 32.5397 13.7062 33.0249 13.626 33.5122L12.0938 33.2603C12.1787 32.7445 12.2783 32.2309 12.3916 31.7212L13.9062 32.0581ZM27.5039 29.856C27.4155 30.355 27.3326 30.8576 27.2539 31.3618L25.7197 31.1226C25.8001 30.6077 25.8854 30.0939 25.9756 29.5845L27.5039 29.856ZM14.708 29.2075C14.5482 29.6752 14.402 30.1471 14.2686 30.6216L12.7734 30.2017C12.9147 29.6995 13.0701 29.2003 13.2393 28.7056L14.708 29.2075ZM39.9521 29.0405C39.9681 29.5483 39.9704 30.0574 39.959 30.5659L38.4062 30.5308C38.417 30.0513 38.4145 29.5703 38.3994 29.0894L39.9521 29.0405ZM28.0986 26.8608C27.9904 27.355 27.8854 27.8535 27.7861 28.355L26.2637 28.0532C26.365 27.5415 26.4706 27.033 26.5811 26.5288L28.0986 26.8608ZM15.8184 26.4614C15.6082 26.9101 15.4101 27.3632 15.2256 27.8198L13.7861 27.2378C13.9811 26.7555 14.1893 26.2768 14.4111 25.8032L15.8184 26.4614ZM39.708 26.0103C39.7718 26.5112 39.8242 27.0157 39.8652 27.521L38.3174 27.647C38.2784 27.1661 38.228 26.6851 38.167 26.2065L39.708 26.0103ZM28.8115 23.8931C28.6835 24.3815 28.5593 24.8761 28.4395 25.3745L26.9297 25.0103C27.052 24.5017 27.1798 23.9981 27.3105 23.4995L28.8115 23.8931ZM17.2158 23.8481C16.9591 24.2731 16.7145 24.7025 16.4824 25.1362L15.1133 24.4038C15.3583 23.9459 15.616 23.4925 15.8867 23.0444L17.2158 23.8481ZM39.1982 23.0229C39.3023 23.5143 39.3981 24.0109 39.4834 24.5103L37.9531 24.7729C37.8714 24.2946 37.7806 23.8182 37.6807 23.3462L39.1982 23.0229ZM18.8779 21.3882C18.5788 21.7862 18.2913 22.1896 18.0156 22.5972L16.7295 21.728C17.0197 21.2989 17.3232 20.875 17.6377 20.4565L18.8779 21.3882ZM29.6465 20.9585C29.4984 21.439 29.3554 21.9278 29.2148 22.4214L27.7207 21.9946C27.8643 21.4905 28.0127 20.9926 28.1641 20.5015L29.6465 20.9585ZM38.4639 20.0923C38.6022 20.5722 38.735 21.0592 38.8584 21.5513L37.3516 21.9282C37.2327 21.4542 37.1062 20.9842 36.9727 20.521L38.4639 20.0923ZM20.7783 19.1011C20.4415 19.4697 20.1145 19.8443 19.7998 20.2231L18.6055 19.231C18.9358 18.8333 19.2787 18.4406 19.6318 18.0542L20.7783 19.1011ZM30.6113 18.0649C30.4418 18.5364 30.2751 19.0186 30.1123 19.5073L28.6396 19.0161C28.8062 18.516 28.9776 18.0237 29.1514 17.5405L30.6113 18.0649ZM37.5332 17.2222C37.7014 17.6888 37.8663 18.1649 38.0234 18.6489L36.5459 19.1284C36.394 18.6607 36.2359 18.2 36.0732 17.7485L37.5332 17.2222ZM22.8838 16.9966C22.5142 17.3341 22.1545 17.6776 21.8057 18.0259L20.71 16.9282C21.0753 16.5635 21.4513 16.2031 21.8379 15.8501L22.8838 16.9966ZM31.7148 15.23C31.522 15.6881 31.3325 16.159 31.1455 16.6401L29.6973 16.0776C29.8894 15.5833 30.0855 15.0984 30.2842 14.6265L31.7148 15.23ZM36.4229 14.4185C36.6179 14.8696 36.8114 15.335 37 15.811L35.5557 16.3823C35.3732 15.9215 35.1868 15.4713 34.998 15.0347L36.4229 14.4185ZM25.1689 15.0825C24.7715 15.3882 24.384 15.7004 24.0059 16.0171L23.0088 14.8267C23.4035 14.4961 23.8084 14.1707 24.2227 13.8521L25.1689 15.0825ZM27.6055 13.3589C27.185 13.6324 26.7728 13.9111 26.3701 14.1958L25.4736 12.9282C25.893 12.6317 26.3224 12.3416 26.7598 12.0571L27.6055 13.3589ZM32.9795 12.4722C32.7595 12.9114 32.5408 13.3683 32.3252 13.8394L30.9131 13.1919C31.1358 12.7054 31.3624 12.2339 31.5908 11.7778L32.9795 12.4722ZM35.1387 11.6899C35.3598 12.1227 35.5835 12.5749 35.8047 13.0454L34.3994 13.7065C34.1856 13.2516 33.9711 12.8134 33.7578 12.396L35.1387 11.6899ZM30.1729 11.8218C29.7321 12.0644 29.2992 12.3121 28.875 12.5659L28.0771 11.2349C28.5175 10.9713 28.9669 10.713 29.4238 10.4614L30.1729 11.8218ZM34.4277 10.356L33.9863 10.6021C33.8851 10.7767 33.7824 10.9542 33.6816 11.1362L33.3535 10.9556L33.0723 11.1118C32.9846 10.9546 32.8949 10.8029 32.8086 10.6538L32.3232 10.3843C32.4525 10.1508 32.5824 9.92175 32.7129 9.69873L33.3828 10.0923L34.0537 9.69873C34.1772 9.90975 34.3016 10.1299 34.4277 10.356ZM32.1689 10.7905C31.943 10.9001 31.7191 11.0122 31.4971 11.1245L30.7949 9.73877C31.0251 9.62232 31.2582 9.50653 31.4922 9.39307L32.1689 10.7905Z" fill="#80CAFF"/>
<path d="M32.9213 5.79392L35.0473 6.08396C36.5064 6.28257 37.5632 7.63044 37.4077 9.0947C37.3554 9.58593 37.1711 10.0259 36.8969 10.3886C39.6752 11.7369 42.77 14.1535 45.0297 17.6474C48.3886 22.8409 49.8646 30.3413 45.9711 40.1299L45.894 40.289C45.6873 40.6418 45.3056 40.8642 44.8881 40.8642C43.5485 40.8642 41.9004 40.6076 40.0561 40.2685C38.1661 39.921 36.0685 39.487 33.6557 39.0732C28.8734 38.253 23.0821 37.5581 16.517 38.0224C14.8278 38.1418 12.5843 38.2781 10.4487 38.6152C8.25889 38.961 6.42659 39.4859 5.42328 40.2422L5.26996 40.3398C4.89859 40.5377 4.44212 40.5213 4.08246 40.2851C3.67212 40.0151 3.47595 39.5165 3.59125 39.039L6.93402 25.2246C6.94602 25.1752 6.96256 25.1265 6.9809 25.0791C10.0277 17.2008 15.0743 12.9459 20.1694 10.8154C23.6831 9.34631 27.1903 8.89911 30.0414 8.93064C29.984 8.65908 29.966 8.37545 29.9965 8.08689C30.1523 6.62276 31.4621 5.59558 32.9213 5.79392ZM32.9868 11.501C30.2229 11.0541 25.6384 11.0533 21.0688 12.9638C16.5537 14.8516 11.9914 18.6276 9.17817 25.8545L6.43793 37.1689C7.58581 36.7745 8.85991 36.509 10.0864 36.3154C12.3436 35.9591 14.7015 35.8149 16.353 35.6982C23.1774 35.2156 29.172 35.942 34.0483 36.7783C36.4645 37.1927 38.6656 37.6456 40.476 37.9785C41.9186 38.2437 43.1198 38.4325 44.1 38.5039C47.36 29.7492 45.909 23.2961 43.0737 18.9121C40.1025 14.3184 35.5692 11.9178 32.9868 11.501Z" fill="#1A1A1A"/>
<path d="M6.75043 24.3813C1.60235 26.9135 0.0278113 31.8165 4.68455 39.6832C6.75043 38.7362 12.6841 37.1029 17.2377 36.8436C23.5881 36.4803 27.2801 36.8436 34.8118 37.7907C29.6767 22.3087 11.8985 21.8475 6.75043 24.3813Z" fill="#034AC1"/>
<path d="M12.5507 22.0667C15.1368 21.9923 18.1281 22.3099 21.1225 23.216C27.1294 25.0336 33.2049 29.2466 35.9172 37.4239C36.043 37.8033 35.9648 38.2218 35.711 38.5307C35.4572 38.8392 35.0626 38.9958 34.6662 38.9461L34.8118 37.7908H34.8103L34.6662 38.9461C27.1557 38.0017 23.5462 37.6489 17.3029 38.0061C15.1212 38.1303 12.5739 38.5875 10.302 39.1371C8.01694 39.69 6.10119 40.3141 5.1693 40.7412C4.62744 40.9896 3.98542 40.7887 3.6818 40.2758C1.28762 36.2311 0.367336 32.744 0.89329 29.8249C1.43113 26.8406 3.42736 24.7186 6.23527 23.3373C7.72836 22.6024 9.98957 22.1405 12.5507 22.0667ZM12.6175 24.394C10.2369 24.4626 8.34428 24.8945 7.26334 25.4265C4.92389 26.5774 3.55826 28.1725 3.18596 30.2388C2.83172 32.2058 3.33563 34.8235 5.19205 38.2183C6.36822 37.783 7.98922 37.3003 9.75313 36.8735C12.1027 36.305 14.7993 35.8169 17.1709 35.6818C23.056 35.3452 26.7135 35.6261 33.0331 36.3974C30.3777 30.2395 25.444 26.9565 20.4477 25.4447C17.7123 24.6171 14.973 24.3262 12.6175 24.394Z" fill="#1A1A1A"/>
</svg>
