<svg width="75" height="86" viewBox="0 0 75 86" fill="none" xmlns="http://www.w3.org/2000/svg">
<path fill-rule="evenodd" clip-rule="evenodd" d="M33.2035 15.3966C30.3109 16.0859 25.6201 17.2022 25.6201 22.9544C25.6201 27.213 31.6089 31.349 45.9792 30.2669C48.8937 30.048 53.235 29.6568 57.2503 28.7501C63.8975 27.2488 64.5636 19.722 58.3916 16.8342C52.6838 14.1639 44.3427 12.7402 33.3153 15.3702C33.2796 15.378 33.2424 15.3873 33.2035 15.3966ZM36.8726 19.5699C34.0311 19.8385 30.6167 20.1614 30.5934 22.3117C30.5639 25.0566 36.913 26.1293 51.4386 25.0131C59.6695 24.3796 60.3604 20.3275 52.1171 19.4782C47.9683 19.0513 43.0229 18.9814 37.1847 19.5404C37.0807 19.5497 36.9766 19.559 36.8726 19.5699Z" fill="#FFE8A3"/>
<path d="M26.7841 22.9544C26.7841 20.4657 27.7654 19.0995 28.9983 18.2285C30.3212 17.2939 31.9935 16.8809 33.4732 16.5284L32.9344 14.2633C31.5199 14.6002 29.4005 15.0908 27.6552 16.3266C25.8184 17.623 24.4551 19.691 24.4551 22.9544H26.7841ZM45.8918 29.1056C38.8052 29.6397 33.9282 28.8712 30.874 27.5453C27.8214 26.2195 26.7841 24.448 26.7841 22.9544H24.4551C24.4551 25.7195 26.4115 28.1462 29.947 29.6816C33.481 31.2171 38.7819 31.9763 46.0657 31.4283L45.8918 29.1056ZM56.9936 27.6136C53.0668 28.5002 48.7984 28.8867 45.8918 29.1056L46.0657 31.4283C48.9879 31.2078 53.4022 30.8119 57.506 29.885L56.9936 27.6136ZM57.8973 17.8885C60.5975 19.1523 61.6424 21.3243 61.4685 23.2044C61.2946 25.0737 59.8863 26.9616 56.9936 27.6136L57.506 29.885C61.2605 29.0373 63.5088 26.4119 63.7867 23.4202C64.0647 20.4393 62.3567 17.4041 58.8848 15.7786L57.8973 17.8885ZM33.585 16.5021C44.3825 13.9279 52.4504 15.3408 57.8973 17.8885L58.8848 15.7786C52.9147 12.9871 44.3033 11.5526 33.0447 14.2369L33.585 16.5021ZM33.4732 16.5284C33.5105 16.5207 33.5477 16.5114 33.585 16.5021L33.0447 14.2369C33.0089 14.2462 32.9717 14.254 32.9344 14.2633L33.4732 16.5284ZM31.7575 22.3241C31.759 22.1409 31.8165 22.0136 31.9717 21.8723C32.1612 21.6985 32.4981 21.5121 33.026 21.3444C34.0959 21.0075 35.5228 20.8663 36.9808 20.7281L36.7618 18.4101C35.3784 18.5406 33.6782 18.6958 32.3242 19.1243C31.6426 19.3401 30.9423 19.6553 30.3973 20.1552C29.8166 20.6862 29.4377 21.4066 29.4284 22.2993L31.7575 22.3241ZM51.348 23.8518C44.1031 24.4092 38.9869 24.4107 35.7169 23.9574C34.0695 23.7292 32.9996 23.3985 32.3739 23.0383C31.7854 22.7014 31.7559 22.4514 31.7575 22.3241L29.4284 22.2993C29.4144 23.5444 30.1691 24.4588 31.2156 25.0597C32.2248 25.6388 33.644 26.0207 35.397 26.2645C38.9248 26.7535 44.2459 26.7334 51.5265 26.1744L51.348 23.8518ZM51.997 20.6365C53.9845 20.8414 55.3214 21.2311 56.1024 21.6425C56.9533 22.0912 56.7778 22.3303 56.8011 22.1626C56.8073 22.1223 56.7297 22.484 55.7049 22.9358C54.7717 23.3473 53.3261 23.6997 51.348 23.8518L51.5265 26.1744C53.6631 26.0099 55.3912 25.6186 56.6443 25.0659C57.8073 24.5535 58.9299 23.7292 59.1069 22.4918C59.3025 21.124 58.2684 20.1521 57.1893 19.5823C56.0372 18.9753 54.3696 18.5405 52.2361 18.3201L51.997 20.6365ZM37.2944 20.6986C43.0612 20.1474 47.9305 20.2173 51.997 20.6365L52.2361 18.3201C48.0066 17.8838 42.9836 17.8155 37.0724 18.3806L37.2944 20.6986ZM36.9808 20.7281C37.0864 20.7188 37.1904 20.7095 37.2944 20.6986L37.0724 18.3806C36.9699 18.3899 36.8674 18.4008 36.7618 18.4101L36.9808 20.7281Z" fill="#FFC21A"/>
<ellipse cx="43.5829" cy="22.9837" rx="28.7206" ry="16.2171" fill="url(#paint0_radial_9800_57537)"/>
<defs>
<radialGradient id="paint0_radial_9800_57537" cx="0" cy="0" r="1" gradientTransform="matrix(9.6348 14.6492 -25.9438 5.44028 43.5829 22.9837)" gradientUnits="userSpaceOnUse">
<stop stop-color="#F7C522" stop-opacity="0.5"/>
<stop offset="1" stop-color="#F7C522" stop-opacity="0"/>
</radialGradient>
</defs>
</svg>
