<svg width="75" height="86" viewBox="0 0 75 86" fill="none" xmlns="http://www.w3.org/2000/svg">
<path d="M57.0622 3.88135C58.5776 3.88135 59.9425 4.56448 60.9036 5.65592C61.506 6.34214 62.5106 6.66969 63.4096 6.51444C63.686 6.46631 63.9702 6.43996 64.2605 6.43996C67.1672 6.44151 69.5227 8.95348 69.5242 12.0539C69.5242 12.7075 69.4171 13.3364 69.2245 13.9201C69.0755 14.3688 69.0755 14.8562 69.2245 15.3049C69.4171 15.8887 69.5242 16.5175 69.5242 17.1726C69.5242 20.2715 67.1672 22.7852 64.2605 22.7852C63.4128 22.7852 62.6116 22.5709 61.902 22.1906C61.1458 21.7869 60.1754 21.7869 59.4192 22.1906C58.7112 22.5709 57.91 22.7852 57.0622 22.7852C56.351 22.7852 55.674 22.6346 55.0561 22.3613C54.4303 22.085 53.6959 22.085 53.0717 22.3613C52.9009 22.4358 52.727 22.5026 52.5485 22.5585C52.2814 22.6424 52.0314 22.7728 51.814 22.9467C50.9352 23.6484 49.8467 24.0644 48.6651 24.0644C45.7585 24.0644 43.4015 21.5524 43.3999 18.452C43.3999 18.2036 43.2866 17.9676 43.0925 17.8124C41.8224 16.7877 41.001 15.1622 41.001 13.3333C41.0025 10.7033 42.6981 8.49554 44.9868 7.88694C45.6218 7.71771 46.1823 7.29225 46.4929 6.71315C47.3981 5.02243 49.1061 3.88135 51.0641 3.88135C51.7752 3.88135 52.4522 4.0319 53.0717 4.3036C53.6959 4.57995 54.4303 4.58001 55.0561 4.30521C55.674 4.03196 56.351 3.88135 57.0622 3.88135Z" fill="white"/>
<path d="M57.0617 5.04574C58.2153 5.04574 59.2696 5.56274 60.0274 6.4244L61.7773 4.88739C60.6143 3.56462 58.9389 2.71692 57.0617 2.71692V5.04574ZM63.6079 7.66026C63.8206 7.62455 64.038 7.60435 64.26 7.60435V5.27553C63.9029 5.27553 63.552 5.30652 63.2088 5.36707L63.6079 7.66026ZM64.26 7.60435C66.454 7.6059 68.3576 9.5248 68.3592 12.0539H70.6882C70.6867 8.38212 67.8794 5.27708 64.26 5.27553V7.60435ZM68.3592 12.0539C68.3592 12.5818 68.2738 13.0863 68.1185 13.5537L70.3296 14.2865C70.5609 13.5863 70.6882 12.8348 70.6882 12.0539H68.3592ZM68.1185 15.6713C68.2738 16.1387 68.3592 16.6432 68.3592 17.1726H70.6882C70.6882 16.3917 70.5609 15.6388 70.3296 14.9386L68.1185 15.6713ZM68.3592 17.1726C68.3592 19.7002 66.454 21.6208 64.26 21.6208V23.9496C67.8794 23.948 70.6867 20.8428 70.6882 17.1726H68.3592ZM64.26 21.6208C63.611 21.6208 62.9977 21.4577 62.4511 21.1643L61.3518 23.2183C62.2244 23.6841 63.2135 23.9496 64.26 23.9496V21.6208ZM58.869 21.1643C58.324 21.4577 57.7107 21.6208 57.0617 21.6208V23.9496C58.1082 23.9496 59.0973 23.6841 59.9699 23.2183L58.869 21.1643ZM57.0617 21.6208C56.5182 21.6208 55.9996 21.5058 55.526 21.2962L54.5851 23.4263C55.3475 23.7632 56.1844 23.9496 57.0617 23.9496V21.6208ZM52.6007 21.2962C52.4688 21.3536 52.3352 21.4049 52.1986 21.4469L52.8958 23.67C53.1162 23.6002 53.3321 23.5195 53.5417 23.4263L52.6007 21.2962ZM51.0868 22.0367C50.4021 22.5848 49.5652 22.9 48.6646 22.9V25.2288C50.1273 25.2288 51.4688 24.7119 52.5402 23.8564L51.0868 22.0367ZM48.6646 22.9C46.4706 22.9 44.5655 20.9795 44.5639 18.452H42.2349C42.2364 22.1238 45.0453 25.2288 48.6646 25.2288V22.9ZM43.8233 16.9056C42.828 16.1029 42.165 14.8113 42.165 13.3332H39.8359C39.8359 15.513 40.8157 17.4708 42.3622 18.7175L43.8233 16.9056ZM42.165 13.3332C42.1666 11.1969 43.5391 9.47673 45.2859 9.01096L44.6866 6.76127C41.856 7.51425 39.8375 10.208 39.8359 13.3332H42.165ZM47.5187 7.26274C48.2438 5.91047 49.5792 5.04574 51.0636 5.04574V2.71692C48.632 2.71692 46.553 4.13435 45.4645 6.16352L47.5187 7.26274ZM51.0636 5.04574C51.6086 5.04574 52.1256 5.1606 52.6007 5.37019L53.5401 3.23857C52.7777 2.90322 51.9408 2.71692 51.0636 2.71692V5.04574ZM55.5245 5.37019C55.9996 5.1606 56.5182 5.04574 57.0617 5.04574V2.71692C56.1844 2.71692 55.3475 2.90322 54.5851 3.23857L55.5245 5.37019ZM52.6007 5.37019C53.5262 5.77696 54.6006 5.77696 55.5245 5.37019L54.5851 3.23857C54.259 3.38296 53.8662 3.38296 53.5401 3.23857L52.6007 5.37019ZM44.5639 18.452C44.5639 17.8465 44.2875 17.2798 43.8233 16.9056L42.3622 18.7175C42.2846 18.6554 42.2349 18.5591 42.2349 18.452H44.5639ZM52.1986 21.4469C51.7995 21.5726 51.4207 21.7697 51.0868 22.0367L52.5402 23.8564C52.6427 23.7757 52.7622 23.7104 52.8958 23.67L52.1986 21.4469ZM62.4511 21.1643C61.3518 20.5759 59.9683 20.5759 58.869 21.1643L59.9699 23.2183C60.3814 22.9963 60.9388 22.9963 61.3518 23.2183L62.4511 21.1643ZM55.526 21.2962C54.6006 20.8879 53.5246 20.8879 52.6007 21.2962L53.5417 23.4263C53.8662 23.2819 54.259 23.2819 54.5851 23.4263L55.526 21.2962ZM45.2859 9.01096C46.2145 8.76411 47.0467 8.14303 47.5187 7.26274L45.4645 6.16352C45.3154 6.44298 45.0297 6.66967 44.6866 6.76127L45.2859 9.01096ZM68.1185 13.5537C67.8903 14.2399 67.8903 14.9851 68.1185 15.6713L70.3296 14.9386C70.2597 14.7274 70.2597 14.4977 70.3296 14.2865L68.1185 13.5537ZM60.0274 6.4244C60.9139 7.432 62.3331 7.88227 63.6079 7.66026L63.2088 5.36707C62.6871 5.45712 62.0971 5.25069 61.7773 4.88739L60.0274 6.4244Z" fill="#1A1A1A"/>
<path d="M39.6081 27.1979C40.9024 27.1979 41.9516 26.1488 41.9516 24.8546C41.9516 23.5605 40.9024 22.5114 39.6081 22.5114C38.3139 22.5114 37.2646 23.5605 37.2646 24.8546C37.2646 26.1488 38.3139 27.1979 39.6081 27.1979Z" fill="white"/>
<path d="M40.7875 24.8554C40.7875 24.2046 40.2601 23.6762 39.6093 23.6758C38.9582 23.6758 38.4296 24.2043 38.4296 24.8554C38.4301 25.5061 38.9585 26.0334 39.6093 26.0334C40.2599 26.033 40.7871 25.5058 40.7875 24.8554ZM43.1166 24.8554C43.1162 26.792 41.5462 28.3618 39.6093 28.3622C37.6722 28.3622 36.101 26.7922 36.1006 24.8554C36.1006 22.9182 37.6719 21.347 39.6093 21.347C41.5464 21.3474 43.1166 22.9184 43.1166 24.8554Z" fill="#1A1A1A"/>
<path d="M34.1736 31.8555C35.0391 31.8555 35.7407 31.154 35.7407 30.2886C35.7407 29.4232 35.0391 28.7216 34.1736 28.7216C33.3081 28.7216 32.6064 29.4232 32.6064 30.2886C32.6064 31.154 33.3081 31.8555 34.1736 31.8555Z" fill="white"/>
<path d="M34.5766 30.2893C34.5766 30.0672 34.3968 29.8864 34.1748 29.886C33.9524 29.886 33.7714 30.067 33.7714 30.2893C33.7719 30.5113 33.9527 30.6911 34.1748 30.6911C34.3965 30.6907 34.5762 30.511 34.5766 30.2893ZM36.9057 30.2893C36.9053 31.7972 35.6828 33.0195 34.1748 33.0199C32.6664 33.0199 31.4428 31.7974 31.4424 30.2893C31.4424 28.7808 32.6661 27.5572 34.1748 27.5572C35.6831 27.5576 36.9057 28.7811 36.9057 30.2893Z" fill="#1A1A1A"/>
<path d="M61.3297 15.468C60.9757 15.468 60.6465 15.3593 60.3391 15.1435C60.0316 14.9262 59.8779 14.5737 59.8779 14.0847C59.8779 13.709 59.9742 13.4062 60.1683 13.1796C60.3608 12.9405 60.5829 12.7635 60.8344 12.6501C61.0952 12.5352 61.3173 12.4794 61.5005 12.4794C61.693 12.4794 61.9104 12.5243 62.1495 12.6159C62.3995 12.6951 62.6153 12.8488 62.7986 13.077C62.9802 13.2928 63.0718 13.6065 63.0718 14.0164C63.0718 14.4138 62.901 14.7553 62.5594 15.041C62.2287 15.3251 61.8188 15.468 61.3297 15.468Z" fill="#1A1A1A"/>
<path d="M55.1188 15.468C54.7648 15.468 54.4356 15.3593 54.1281 15.1435C53.8207 14.9262 53.667 14.5737 53.667 14.0847C53.667 13.709 53.7633 13.4062 53.9573 13.1796C54.1499 12.9405 54.3719 12.7635 54.6235 12.6501C54.8843 12.5352 55.1063 12.4794 55.2896 12.4794C55.4821 12.4794 55.6995 12.5243 55.9386 12.6159C56.1886 12.6951 56.4044 12.8488 56.5876 13.077C56.7693 13.2928 56.8609 13.6065 56.8609 14.0164C56.8609 14.4138 56.6901 14.7553 56.3485 15.041C56.0178 15.3251 55.6079 15.468 55.1188 15.468Z" fill="#1A1A1A"/>
<path d="M48.9078 15.468C48.5538 15.468 48.2246 15.3593 47.9172 15.1435C47.6098 14.9262 47.4561 14.5737 47.4561 14.0847C47.4561 13.709 47.5523 13.4062 47.7464 13.1796C47.9389 12.9405 48.161 12.7635 48.4125 12.6501C48.6734 12.5352 48.8954 12.4794 49.0786 12.4794C49.2712 12.4794 49.4885 12.5243 49.7277 12.6159C49.9776 12.6951 50.1935 12.8488 50.3767 13.077C50.5584 13.2928 50.65 13.6065 50.65 14.0164C50.65 14.4138 50.4792 14.7553 50.1376 15.041C49.8068 15.3251 49.3969 15.468 48.9078 15.468Z" fill="#1A1A1A"/>
</svg>
