<svg width="75" height="86" viewBox="0 0 75 86" fill="none" xmlns="http://www.w3.org/2000/svg">
<path d="M38.868 82.8438C68.1747 81.5675 71.6411 60.1955 66.1288 49.3302C60.6165 38.4649 44.9735 35.2339 38.868 35.7649C22.7777 37.5287 17.2038 42.8123 11.4705 51.7384C10.4629 53.3081 9.60877 54.9927 9.0593 56.7752C1.90089 79.9854 25.7343 84.3825 38.868 82.8438Z" fill="#FFA629"/>
<path d="M38.767 34.6046C42.0294 34.3209 47.6472 35.0372 53.1455 37.1898C58.6473 39.3437 64.2315 43.0154 67.1677 48.8027C70.0846 54.5523 70.6176 63.0246 66.5718 70.2514C62.4916 77.5396 53.8889 83.3413 38.9717 84.0037C32.2669 84.7835 22.7665 84.0708 15.7792 80.1025C12.2534 78.1 9.3183 75.2387 7.76591 71.2825C6.21366 67.3263 6.10003 62.4191 7.94634 56.4324C8.53444 54.5247 9.44153 52.7431 10.4906 51.1089C13.3906 46.5938 16.3258 42.8779 20.654 40.0873C24.9796 37.2985 30.5908 35.5011 38.7412 34.6076L38.8671 35.7675L38.8686 35.7645L38.7412 34.6076L38.7549 34.6061L38.767 34.6046ZM52.2964 39.358C47.0836 37.3173 41.8416 36.6798 38.9929 36.9214L38.9944 36.9229C31.0551 37.7933 25.8341 39.5194 21.917 42.0448C18.0027 44.5684 15.2841 47.9568 12.4511 52.3674C11.6055 53.6846 10.8857 55.0656 10.3769 56.5006L10.1722 57.1177C8.43945 62.7359 8.62054 67.0839 9.93413 70.4319C11.2477 73.7792 13.7496 76.2728 16.9286 78.0783C23.3406 81.72 32.3049 82.4398 38.7321 81.6869L38.7746 81.6824L38.817 81.6809L40.1437 81.6081C53.6556 80.7101 61.0556 75.3382 64.5401 69.1143C68.1759 62.6198 67.6858 54.9721 65.0905 49.8565C62.5143 44.7789 57.5203 41.4031 52.2964 39.358Z" fill="#1A1A1A"/>
<path d="M50.4484 72.0048C56.3825 62.9856 55.8459 53.6884 54.4035 46.8832C54.02 45.0744 55.3146 43.3619 56.8575 44.382C60.1619 46.5666 63.2012 52.4323 64.6616 59.09C65.1029 61.1007 65.1088 63.2262 64.2845 65.1142C61.9004 70.5702 56.3963 74.1273 52.2617 75.6473C49.4291 76.6891 48.7895 74.5263 50.4484 72.0048Z" fill="#F79722"/>
<path d="M38.0309 45.0264C40.6034 45.0264 42.6888 44.1574 42.6888 43.0856C42.6888 42.0137 40.6034 41.1448 38.0309 41.1448C35.4585 41.1448 33.373 42.0137 33.373 43.0856C33.373 44.1574 35.4585 45.0264 38.0309 45.0264Z" fill="#14AE5C"/>
<path d="M41.5166 64.1199H34.5166L38.0166 69.3699L41.5166 64.1199Z" fill="#FFAFA3"/>
<path d="M41.5173 62.9553C41.9465 62.9555 42.3412 63.1924 42.5438 63.5709C42.746 63.9494 42.7241 64.4086 42.4861 64.7657L38.9851 70.0165C38.7691 70.34 38.4053 70.535 38.0163 70.535C37.6272 70.5348 37.2633 70.3401 37.0474 70.0165L33.5479 64.7657C33.3098 64.4085 33.2879 63.9495 33.4903 63.5709C33.6929 63.1923 34.0873 62.9553 34.5168 62.9553H41.5173ZM38.0163 67.269L39.3415 65.2843H36.6926L38.0163 67.269Z" fill="#1A1A1A"/>
<path d="M47.3093 61.4152C47.8099 61.9983 48.6885 62.0662 49.2716 61.5656C49.8545 61.065 49.9205 60.1864 49.4202 59.6033C47.8964 57.8283 46.1346 57.31 44.5081 57.6211C43.0123 57.9073 41.8407 58.853 41.1995 59.6105C40.7031 60.1972 40.776 61.0745 41.3626 61.571C41.9492 62.0675 42.8266 61.9945 43.3231 61.408C43.6914 60.9727 44.3418 60.4872 45.0299 60.3552C45.5876 60.2485 46.3739 60.3256 47.3093 61.4152Z" fill="#1A1A1A"/>
<path d="M31.7986 61.4152C32.2992 61.9983 33.1778 62.0662 33.7609 61.5656C34.3438 61.065 34.4098 60.1864 33.9094 59.6033C32.3856 57.8283 30.6239 57.31 28.9973 57.6211C27.5016 57.9073 26.33 58.853 25.6888 59.6105C25.1923 60.1972 25.2653 61.0745 25.8519 61.571C26.4385 62.0675 27.3159 61.9945 27.8124 61.408C28.1807 60.9727 28.8311 60.4872 29.5192 60.3552C30.0769 60.2485 30.8631 60.3256 31.7986 61.4152Z" fill="#1A1A1A"/>
</svg>
