<svg width="75" height="86" viewBox="0 0 75 86" fill="none" xmlns="http://www.w3.org/2000/svg">
<path d="M46.4843 8.05095C40.6261 7.1039 27.2362 8.05098 21.3781 23.1992L18.0645 37.1907C20.5751 35.2981 26.3993 34.5607 31.4204 34.5607C48.158 34.5607 53.3184 37.4003 58.2004 37.4003C65.7323 18.4654 52.3424 8.99645 46.4843 8.05095Z" fill="#007BE5" stroke="#1A1A1A" stroke-width="2.74597" stroke-linejoin="round"/>
<path d="M51.8818 35.7819C51.7909 36.022 51.6947 36.2611 51.5938 36.4987L50.1641 35.8922C50.257 35.6737 50.3459 35.4524 50.4297 35.2311L51.8818 35.7819ZM40.002 33.6041C39.9788 33.857 39.9569 34.1107 39.9365 34.3639L38.3896 34.2399C38.4105 33.9807 38.4324 33.7203 38.4561 33.4615L40.002 33.6041ZM52.749 32.8268C52.6413 33.3273 52.5166 33.8254 52.3721 34.319L50.8809 33.8834C51.0145 33.4271 51.1313 32.9646 51.2314 32.4996L52.749 32.8268ZM26.7373 32.6793C26.7108 32.9244 26.6868 33.1704 26.667 33.4166L25.1201 33.2926C25.141 33.0324 25.1653 32.7723 25.1934 32.5133L26.7373 32.6793ZM40.3457 30.5719C40.2778 31.0748 40.2156 31.5805 40.1582 32.0865L38.6152 31.9108C38.6739 31.394 38.7374 30.8782 38.8066 30.3649L40.3457 30.5719ZM53.1924 29.7926C53.1512 30.3013 53.0938 30.8094 53.0205 31.3151L51.4844 31.0924C51.5528 30.6201 51.6049 30.1441 51.6436 29.6666L53.1924 29.7926ZM27.2178 29.7584C27.1108 30.2399 27.0167 30.7244 26.9365 31.2115L25.4053 30.9606C25.4902 30.4448 25.5898 29.9312 25.7031 29.4215L27.2178 29.7584ZM40.8154 27.5563C40.7271 28.0553 40.6441 28.5579 40.5654 29.0621L39.0312 28.8229C39.1116 28.308 39.1969 27.7942 39.2871 27.2848L40.8154 27.5563ZM28.0195 26.9078C27.8597 27.3755 27.7135 27.8474 27.5801 28.3219L26.085 27.902C26.2262 27.3997 26.3817 26.9007 26.5508 26.4059L28.0195 26.9078ZM53.2637 26.7408C53.2796 27.2486 53.2819 27.7577 53.2705 28.2662L51.7178 28.2311C51.7285 27.7516 51.726 27.2706 51.7109 26.7897L53.2637 26.7408ZM41.4102 24.5602C41.3019 25.0545 41.197 25.5536 41.0977 26.0553L39.5752 25.7535C39.6766 25.2417 39.7821 24.7325 39.8926 24.2281L41.4102 24.5602ZM29.1299 24.1617C28.9197 24.6105 28.7217 25.0635 28.5371 25.5201L27.0977 24.9381C27.2926 24.4558 27.5008 23.9771 27.7227 23.5035L29.1299 24.1617ZM53.0195 23.7096C53.0834 24.2108 53.1358 24.7158 53.1768 25.2213L51.6289 25.3473C51.5899 24.8664 51.5395 24.3855 51.4785 23.9069L53.0195 23.7096ZM42.123 21.5934C41.995 22.0818 41.8708 22.5764 41.751 23.0748L40.2412 22.7106C40.3635 22.2018 40.4913 21.6976 40.6221 21.1989L42.123 21.5934ZM30.5273 21.5485C30.2706 21.9734 30.026 22.4028 29.7939 22.8365L28.4248 22.1041C28.6698 21.6462 28.9275 21.1928 29.1982 20.7448L30.5273 21.5485ZM52.5098 20.7233C52.6139 21.2147 52.7096 21.7112 52.7949 22.2106L51.2646 22.4733C51.1829 21.995 51.0922 21.5185 50.9922 21.0465L52.5098 20.7233ZM32.1895 19.0885C31.8903 19.4865 31.6028 19.8898 31.3271 20.2975L30.041 19.4283C30.3313 18.9991 30.6346 18.5744 30.9492 18.1559L32.1895 19.0885ZM42.958 18.6578C42.8099 19.1385 42.667 19.6279 42.5264 20.1217L41.0322 19.6949C41.1758 19.1907 41.3242 18.6929 41.4756 18.2018L42.958 18.6578ZM51.7754 17.7926C51.9137 18.2724 52.0465 18.7587 52.1699 19.2506L50.6631 19.6285C50.5442 19.1545 50.4177 18.6845 50.2842 18.2213L51.7754 17.7926ZM34.0898 16.8004C33.753 17.169 33.426 17.5437 33.1113 17.9225L31.917 16.9313C32.2474 16.5336 32.5902 16.1409 32.9434 15.7545L34.0898 16.8004ZM43.9229 15.7653C43.7533 16.2367 43.5866 16.7189 43.4238 17.2076L41.9512 16.7164C42.1177 16.2163 42.2891 15.724 42.4629 15.2408L43.9229 15.7653ZM50.8447 14.9225C51.0129 15.3891 51.1778 15.8652 51.335 16.3492L49.8574 16.8278C49.7056 16.3602 49.5474 15.9001 49.3848 15.4489L50.8447 14.9225ZM36.1953 14.6969C35.8258 15.0344 35.466 15.378 35.1172 15.7262L34.0215 14.6285C34.3869 14.2638 34.7629 13.9034 35.1494 13.5504L36.1953 14.6969ZM45.0264 12.9303C44.8335 13.3884 44.6431 13.8593 44.4561 14.3405L43.0088 13.778C43.2009 13.2836 43.3971 12.7987 43.5957 12.3268L45.0264 12.9303ZM49.7344 12.1188C49.9293 12.5698 50.1221 13.0345 50.3105 13.5104L48.8672 14.0826C48.6847 13.6219 48.4983 13.1716 48.3096 12.735L49.7344 12.1188ZM38.4805 12.7828C38.0831 13.0885 37.6955 13.4008 37.3174 13.7174L36.3203 12.527C36.7151 12.1964 37.1199 11.871 37.5342 11.5524L38.4805 12.7828ZM40.917 11.0592C40.4965 11.3327 40.0843 11.6114 39.6816 11.8961L38.7852 10.6285C39.2046 10.332 39.6338 10.041 40.0713 9.75647L40.917 11.0592ZM46.291 10.1725C46.071 10.6119 45.8514 11.0686 45.6357 11.5397L44.2246 10.8922C44.4473 10.4057 44.6739 9.93422 44.9023 9.47815L46.291 10.1725ZM48.4502 9.39026C48.6713 9.82298 48.8951 10.2752 49.1162 10.7457L47.7109 11.4069C47.4971 10.9519 47.2826 10.5138 47.0693 10.0963L48.4502 9.39026ZM43.4844 9.52209C43.0436 9.76471 42.6107 10.0124 42.1865 10.2662L41.3887 8.93518C41.829 8.67165 42.2784 8.41329 42.7354 8.16174L43.4844 9.52209ZM47.7393 8.0553L47.2979 8.30237C47.1966 8.47699 47.0939 8.65454 46.9932 8.83655L46.665 8.65491L46.3838 8.81213C46.2962 8.65508 46.2073 8.50307 46.1211 8.35413L45.6348 8.08459C45.764 7.85112 45.8939 7.62209 46.0244 7.39905L46.6943 7.79163L47.3652 7.39905C47.4886 7.60994 47.6132 7.82936 47.7393 8.0553ZM45.4805 8.49084C45.2545 8.6004 45.0307 8.71247 44.8086 8.82483L44.1064 7.43909C44.3366 7.32264 44.5697 7.20684 44.8037 7.09338L45.4805 8.49084Z" fill="#80CAFF"/>
<path d="M46.2329 3.49385L48.3589 3.78389C49.8181 3.98244 50.8757 5.33039 50.7202 6.79463C50.668 7.28587 50.4827 7.7258 50.2085 8.08857C52.9868 9.43685 56.0815 11.8534 58.3413 15.3474C61.7003 20.5409 63.1764 28.0419 59.2827 37.8308L59.2056 37.9899C58.999 38.3424 58.6179 38.564 58.2007 38.5642C56.8609 38.5641 55.2123 38.3076 53.3677 37.9685C51.4778 37.621 49.3801 37.187 46.9673 36.7731C42.185 35.953 36.3937 35.259 29.8286 35.7233C28.1394 35.8427 25.896 35.9789 23.7603 36.3161C21.5705 36.6619 19.7382 37.1858 18.7349 37.9421L18.5816 38.0397C18.2103 38.2375 17.7546 38.2211 17.3951 37.9851C16.9845 37.715 16.7884 37.2166 16.9038 36.739L20.2456 22.9255C20.2576 22.8759 20.2741 22.8266 20.2925 22.779C23.3393 14.9008 28.3859 10.6458 33.481 8.51533C36.9947 7.04626 40.502 6.60003 43.3531 6.63154C43.2955 6.35972 43.2775 6.0757 43.3081 5.78682C43.4639 4.32274 44.7738 3.29561 46.2329 3.49385ZM46.2984 9.20088C43.5345 8.7541 38.95 8.75325 34.3804 10.6638C29.8653 12.5515 25.3031 16.3275 22.4898 23.5544L19.7495 34.8688C20.8974 34.4744 22.1715 34.209 23.398 34.0153C25.6551 33.659 28.0131 33.5158 29.6646 33.3991C36.4889 32.9165 42.4836 33.642 47.3599 34.4782C49.7761 34.8926 51.9772 35.3465 53.7876 35.6794C55.2302 35.9446 56.4314 36.1324 57.4117 36.2038C60.6717 27.449 59.2207 20.9961 56.3853 16.612C53.4141 12.0183 48.8808 9.61778 46.2984 9.20088Z" fill="#1A1A1A"/>
<path d="M20.062 22.0814C14.9139 24.6136 13.3393 29.5165 17.9961 37.3833C20.062 36.4362 25.9956 34.803 30.5492 34.5437C36.8996 34.1804 40.5916 34.5437 48.1234 35.4907C42.9883 20.0088 25.21 19.5476 20.062 22.0814Z" fill="#034AC1"/>
<path d="M25.8623 19.7667C28.4484 19.6922 31.4396 20.0098 34.434 20.9159C40.441 22.7336 46.5164 26.9465 49.2287 35.1238C49.3546 35.5033 49.2763 35.9218 49.0225 36.2306C48.7687 36.5391 48.3741 36.6958 47.9777 36.6461L48.1233 35.4907H48.1218L47.9777 36.6461C40.4672 35.7017 36.8577 35.3489 30.6144 35.706C28.4327 35.8303 25.8854 36.2875 23.6136 36.8371C21.3285 37.39 19.4127 38.014 18.4808 38.4412C17.939 38.6896 17.2969 38.4887 16.9933 37.9757C14.5991 33.9311 13.6789 30.444 14.2048 27.5248C14.7427 24.5405 16.7389 22.4185 19.5468 21.0372C21.0399 20.3023 23.3011 19.8404 25.8623 19.7667ZM25.929 22.094C23.5484 22.1626 21.6558 22.5945 20.5749 23.1265C18.2354 24.2773 16.8698 25.8724 16.4975 27.9388C16.1432 29.9057 16.6472 32.5235 18.5036 35.9183C19.6797 35.483 21.3007 35.0003 23.0647 34.5735C25.4143 34.005 28.1109 33.5168 30.4825 33.3818C36.3676 33.0451 40.025 33.326 46.3447 34.0974C43.6892 27.9395 38.7555 24.6565 33.7592 23.1447C31.0239 22.317 28.2845 22.0261 25.929 22.094Z" fill="#1A1A1A"/>
</svg>
