<svg width="75" height="86" viewBox="0 0 75 86" fill="none" xmlns="http://www.w3.org/2000/svg">
<path d="M7.71463 63.1501L2.44811 66.3361L1.55225 60.7824L8.49407 52.3656H25.8525L29.7558 51.2368L34.1808 53.6667L37.1929 54.4337H39.6057L51.106 53.2273L58.5059 54.4337L64.5658 58.8183L69.7081 55.2534L72.0992 57.2843L69.2812 68.2009V76.7714L67.6742 79.2851L65.2614 81.215L59.4018 83.9492H53.6492L52.3047 82.6202L51.3995 80.5427L47.0956 80.33L39.6057 81.215L30.9995 83.9492L29.7558 83.5284L27.4362 80.33L13.2249 79.2851L7.13396 83.8902L3.14212 82.7195L3.8113 78.8721L7.13396 74.3291L6.61848 67.1761L7.71463 63.1501Z" fill="#E6E6E6"/>
<path d="M34.496 78.9984C36.1356 78.2205 38.078 80.1159 37.4989 81.8362C37.3685 82.2243 37.1204 82.6109 36.7323 83.0394C36.1083 83.7302 35.321 84.1438 34.579 84.2386C33.4114 84.3907 32.4235 83.2846 32.3925 82.1077C32.3739 81.3765 32.638 80.6233 33.2792 79.9153C33.6424 79.5119 34.063 79.2048 34.496 78.9984ZM64.3065 73.7825C65.0378 72.9752 66.1469 72.6883 67.2167 72.9212C68.454 73.1915 69.2953 74.3169 69.7704 75.4905C70.2439 76.6611 70.1632 77.4699 69.3622 78.3548C68.4772 79.333 67.0394 79.5472 65.788 79.0023C65.0491 78.6793 64.4962 78.0387 64.1298 77.3216C63.4808 76.0469 63.4107 74.7731 64.3065 73.7825ZM50.4608 65.2103C52.8409 65.2104 54.8626 66.5212 55.5985 68.347C55.985 69.308 55.8158 70.3995 55.3749 71.3372C54.4853 73.2314 52.8781 74.5266 50.4608 74.5267C48.4346 74.5267 46.6654 73.5761 45.7323 72.1663C44.8428 70.8233 45.2578 69.0564 46.0683 67.6653C47.0744 65.9388 48.2406 65.2103 50.4608 65.2103ZM4.6581 60.553C5.90786 60.5531 6.98525 61.2917 7.47743 62.3568C7.85317 63.1672 7.72284 64.1238 7.33778 64.928C6.80991 66.0303 5.92959 66.7629 4.6581 66.763C3.68307 66.763 2.8119 66.313 2.24208 65.6097C1.36329 64.5244 1.65525 62.9092 2.40517 61.7308C2.92837 60.9081 3.57292 60.553 4.6581 60.553ZM25.6181 57.4476C27.2994 57.4476 28.731 58.517 29.2714 60.012C29.5726 60.852 29.4454 61.7856 29.1054 62.6116C28.4641 64.1579 27.3228 65.2103 25.6181 65.2103C24.21 65.2102 22.9758 64.4606 22.2958 63.3382C21.5723 62.1428 21.8932 60.6181 22.539 59.3792C23.2454 58.0223 24.0749 57.4476 25.6181 57.4476ZM60.5526 54.3421C62.4686 54.3421 64.1132 55.3048 64.829 56.682C65.3195 57.6274 65.1385 58.7792 64.6278 59.7122C63.8422 61.1453 62.5058 62.1058 60.5526 62.1058C59.0031 62.1058 57.6303 61.4746 56.7841 60.5042C55.6977 59.2607 56.0918 57.356 57.037 56.0023C57.8475 54.8393 58.8292 54.3421 60.5526 54.3421ZM42.6972 54.3421C44.1333 54.3421 45.3868 54.965 46.0575 55.8919C46.7078 56.7893 46.5228 58.0501 45.8925 58.9583C45.2202 59.9255 44.169 60.553 42.6972 60.553C41.6414 60.553 40.6835 60.2154 39.9833 59.6673C38.6343 58.6115 38.9342 56.4441 40.1405 55.2269C40.7506 54.6123 41.5144 54.3421 42.6972 54.3421ZM15.6386 52.5443C16.528 52.6034 17.3186 53.1406 17.8837 53.8314C18.7607 54.9056 19.085 56.1571 18.4472 57.4378C17.941 58.4532 16.9952 59.1025 15.955 59.2718C14.5763 59.4969 13.305 58.5184 12.538 57.3509C11.8921 56.3712 11.8203 55.5378 12.3808 54.4153C13.008 53.1546 14.3157 52.4573 15.6386 52.5443Z" fill="#1A1A1A"/>
<path d="M28.9458 67.4758C30.4257 67.476 31.6254 68.7207 31.6255 70.2561C31.6255 71.7916 30.4257 73.0363 28.9458 73.0364C27.4658 73.0364 26.2661 71.7916 26.2661 70.2561C26.2662 68.7207 27.4658 67.4758 28.9458 67.4758Z" fill="#1A1A1A"/>
<path d="M27.8467 70.0529C28.2599 70.0529 28.5949 69.7054 28.5949 69.2768C28.5949 68.8481 28.2599 68.5006 27.8467 68.5006C27.4336 68.5006 27.0986 68.8481 27.0986 69.2768C27.0986 69.7054 27.4336 70.0529 27.8467 70.0529Z" fill="white"/>
<path d="M16.5244 67.4757C18.0044 67.4757 19.204 68.7205 19.2041 70.256C19.2041 71.7915 18.0045 73.0363 16.5244 73.0363C15.0445 73.0361 13.8447 71.7914 13.8447 70.256C13.8448 68.7206 15.0446 67.4759 16.5244 67.4757Z" fill="#1A1A1A"/>
<path d="M17.6235 70.0528C17.2103 70.0528 16.8754 69.7053 16.8754 69.2767C16.8754 68.848 17.2103 68.5005 17.6235 68.5005C18.0366 68.5005 18.3716 68.848 18.3716 69.2767C18.3716 69.7053 18.0366 70.0528 17.6235 70.0528Z" fill="white"/>
<path d="M24.2565 73.0187C22.9321 72.9147 21.2754 73.0079 19.9712 73.1336C19.2011 73.2097 18.6329 73.913 19.094 74.5341C19.8035 75.4952 21.1869 76.2621 22.2101 76.6907C22.5362 76.8288 22.9072 76.8351 23.2147 76.6612C24.0081 76.2125 24.6477 75.4315 25.1027 74.6878C25.5514 73.9549 25.112 73.0839 24.2565 73.0187Z" fill="#AB5998"/>
<path d="M30.5336 50.1283C31.1043 50.1283 31.7283 50.3281 32.2955 50.5695C32.8922 50.8236 33.5512 51.1789 34.2287 51.6006C35.1459 52.1715 36.1303 52.8871 37.0899 53.6839H40.2922C41.5294 53.681 43.0203 53.4673 44.7165 53.2229C45.4596 53.1153 46.4131 52.9489 47.5034 52.765C48.5832 52.5829 49.7796 52.3883 50.9695 52.2298C52.157 52.0717 53.3588 51.9481 54.4493 51.9144C55.519 51.8814 56.5727 51.9298 57.4211 52.1676C60.4262 52.9054 62.8954 54.273 64.7946 56.1993C64.9603 56.3661 65.1022 56.5385 65.2116 56.6739L65.4982 57.0181C65.6592 57.197 65.7623 57.2413 65.7953 57.2516C65.8451 57.2347 66.0327 57.143 66.3169 56.6967C67.1472 55.3929 68.4726 54.3843 69.8376 54.1236C70.5387 53.9898 71.3156 54.0451 72.0074 54.4541C72.7098 54.8697 73.177 55.5626 73.4129 56.4131C73.8468 57.9795 73.9492 59.7063 73.3493 61.3773C73.0311 62.2632 72.6546 63.1786 72.3046 64.058C71.9493 64.9506 71.6139 65.825 71.3448 66.6917C70.803 68.4372 70.5729 70.03 70.949 71.4967C71.3286 72.9759 71.573 74.5258 71.4934 75.9393C71.4146 77.3366 71.0074 78.7405 69.9468 79.7496L69.9483 79.7511C68.7602 80.9259 66.8641 82.0695 64.6839 83.0035C62.4845 83.9456 59.9078 84.7126 57.2953 85.0853C55.5088 85.3406 53.6075 84.7347 52.2947 83.6069C51.9793 83.3359 51.6925 83.0274 51.4471 82.6881C51.4235 82.6857 51.3996 82.6844 51.3759 82.6805L49.5336 82.3818H49.5291L49.4381 82.3666C49.3659 82.3551 46.7189 81.9268 44.1055 81.4902C42.3542 81.1965 40.4737 81.863 38.6501 82.9064L37.8722 83.3749C36.447 84.2753 34.739 85.0044 33.0688 85.1777C31.374 85.3535 29.5963 84.9563 28.3442 83.4371C27.698 82.6532 27.3034 81.8321 27.157 80.999C26.1452 81.0961 25.2447 81.14 23.985 81.14C20.9415 81.14 18.0078 80.8654 15.4334 80.1848C14.3072 81.4117 12.4401 82.9597 10.5283 84.0087C9.42652 84.6133 8.2152 85.1067 7.05765 85.2263C5.86739 85.3491 4.6062 85.0779 3.71282 83.9936C1.95873 81.8651 2.46999 79.1694 3.5339 77.1856C4.08051 76.1665 4.8132 75.2381 5.61267 74.5125C6.03926 74.1253 6.50759 73.7769 6.997 73.5027C6.61023 72.4225 6.3996 71.2168 6.3996 69.8773C6.3996 68.7105 6.39999 67.6751 6.4557 66.6296C6.38491 66.6791 6.31451 66.7289 6.24191 66.7751C5.57918 67.1968 4.76901 67.5166 3.86748 67.4787C2.93933 67.4394 2.06709 67.0276 1.30199 66.2626C0.725259 65.6859 0.477279 64.9304 0.408928 64.1945C0.340813 63.4602 0.441468 62.6631 0.640913 61.8701C1.04037 60.2821 1.88785 58.5103 2.97138 56.8847C4.05642 55.2568 5.42526 53.7055 6.92119 52.5983C8.39596 51.5067 10.1455 50.7377 11.9308 50.9835L12.2826 51.0411C13.0993 51.196 13.8805 51.4805 14.5191 51.6915C15.3031 51.9506 15.9341 52.1252 16.5448 52.1252H23.2572C24.4524 52.1251 25.6563 51.6498 26.9841 51.0153L27.3662 50.8424C28.2825 50.448 29.3828 50.1283 30.5336 50.1283ZM8.05837 75.5769C7.78394 75.7387 7.48651 75.9589 7.17895 76.238C6.57515 76.786 6.00567 77.5028 5.58538 78.2864C4.71595 79.9078 4.63554 81.4533 5.50957 82.5137C5.75659 82.8134 6.13492 82.9799 6.81808 82.9094C7.53366 82.8355 8.43004 82.5043 9.40782 81.9679C10.727 81.244 12.0184 80.2413 12.9695 79.3554C12.1705 79.018 11.4235 78.6292 10.7421 78.1757C9.66589 77.4594 8.76094 76.5943 8.05837 75.5769ZM8.72855 69.8773C8.72855 72.8552 9.96249 74.8587 12.0324 76.2365C14.7502 78.0449 18.9871 78.811 23.985 78.811C25.3624 78.811 26.2612 78.7546 27.4299 78.6276C27.5568 78.3269 27.7138 78.0431 27.8938 77.7785C28.8939 76.3084 30.6461 75.3162 32.2303 74.9446C32.8564 74.7978 33.4829 75.1873 33.6298 75.8134C33.7765 76.4394 33.3885 77.066 32.7625 77.2129C31.6064 77.4841 30.417 78.2079 29.818 79.0885C29.5326 79.5082 29.4004 79.9314 29.4192 80.3546C29.438 80.7757 29.6121 81.3141 30.1409 81.9557L30.2592 82.0892C30.8642 82.7294 31.7221 82.9755 32.8277 82.8609C34.0319 82.736 35.3977 82.1832 36.6289 81.4053C38.7717 80.0523 41.585 78.7052 44.4891 79.1916C45.7929 79.4094 47.1061 79.6261 48.1008 79.789C48.598 79.8704 49.016 79.9392 49.3138 79.9876C49.4626 80.0119 49.5819 80.0302 49.6656 80.0437C49.6852 80.0469 49.703 80.0503 49.7186 80.0528L50.589 80.1923C50.5806 79.6718 50.6674 79.1255 50.877 78.5624C51.3544 77.2796 52.4856 76.4273 53.6957 76.1243C54.6446 75.8868 55.5385 75.8786 56.3022 75.8347C56.7136 75.811 57.1331 75.7752 57.5894 75.7012C56.8556 75.1765 56.0236 74.5046 55.3105 73.6922C54.0614 72.2691 53.048 70.2688 53.6988 67.8213C53.8641 67.1998 54.5025 66.8297 55.124 66.995C55.7455 67.1603 56.1157 67.7987 55.9504 68.4202C55.5739 69.8367 56.0968 71.0586 57.0603 72.1563C58.0406 73.2731 59.3466 74.1031 60.1974 74.6399C60.4153 74.7778 60.6811 74.9897 60.8585 75.3085C61.0622 75.675 61.1132 76.125 60.9373 76.5534C60.7846 76.9251 60.5123 77.1584 60.3111 77.2918C60.0985 77.4327 59.8645 77.5289 59.647 77.598L59.6455 77.5996C58.3461 78.0105 57.3167 78.1083 56.4356 78.1591C55.5329 78.211 54.9379 78.2142 54.2613 78.3835C53.6735 78.5307 53.2275 78.9221 53.0589 79.3751C52.7124 80.3062 53.0203 81.1599 53.8125 81.8405C54.6393 82.5508 55.8743 82.9351 56.9663 82.779C59.3606 82.4375 61.7401 81.7306 63.7666 80.8625C65.8127 79.9861 67.4137 78.9825 68.3108 78.0954L68.332 78.0741C68.8055 77.63 69.1062 76.8955 69.1675 75.8074C69.2283 74.7257 69.0429 73.4344 68.6944 72.0759C68.1607 69.9949 68.5285 67.9088 69.1205 66.0018C69.4182 65.0427 69.7823 64.0962 70.1409 63.1953C70.5048 62.2809 70.8563 61.427 71.1568 60.5904C71.501 59.6317 71.5158 58.5829 71.2826 57.5003L71.1689 57.0348C71.0587 56.6375 70.9026 56.5065 70.8217 56.4586C70.73 56.4044 70.5608 56.3569 70.2743 56.4116C69.6647 56.5282 68.841 57.0673 68.2805 57.9476C67.6885 58.877 66.8969 59.5397 65.8984 59.5821C64.9407 59.6225 64.2095 59.0689 63.7666 58.5768C63.6259 58.4206 63.4937 58.2534 63.3997 58.1371C63.2949 58.0075 63.2183 57.9168 63.1434 57.8414L63.1404 57.8369C61.5701 56.2429 59.4835 55.0664 56.8313 54.4208L56.8116 54.4162L56.7934 54.4102C56.2913 54.2693 55.5216 54.2111 54.5221 54.2419C53.543 54.2721 52.4276 54.3844 51.2773 54.5375C50.1297 54.6903 48.9666 54.8808 47.8916 55.0621C46.8269 55.2417 45.8286 55.4164 45.0501 55.5291C43.4056 55.766 41.7342 56.0095 40.2982 56.0128H39.5628C40.4538 56.9742 41.2425 57.9935 41.7887 59.0059C42.5296 60.3793 42.9962 62.0682 42.142 63.547L42.1405 63.5455C41.5945 64.4912 40.8608 65.1386 39.9252 65.3741C39.0294 65.5995 38.1541 65.3945 37.4174 65.0906C36.6762 64.7849 35.9473 64.3251 35.2886 63.8745C34.5483 63.3682 34.0466 62.9845 33.3978 62.5509C32.8631 62.1935 32.719 61.4692 33.0764 60.9346C33.4338 60.4002 34.1566 60.2573 34.6912 60.6146C35.2709 61.0021 36.0544 61.5766 36.6031 61.9519C37.2333 62.383 37.7986 62.7283 38.3059 62.9375C38.8173 63.1484 39.1451 63.168 39.3566 63.1149C39.5284 63.0717 39.8057 62.9349 40.1254 62.381C40.3539 61.9851 40.3679 61.2774 39.7387 60.1112C39.1359 58.994 38.0892 57.7496 36.8397 56.5678C35.5993 55.3947 34.2156 54.336 32.9975 53.5777C32.388 53.1983 31.8379 52.9058 31.3827 52.712C30.898 52.5056 30.6255 52.4572 30.5336 52.4572C29.7938 52.4573 29.0159 52.6689 28.2941 52.9788L27.9879 53.1168C26.6454 53.7583 25.0239 54.454 23.2572 54.4541H16.5448C15.5239 54.4541 14.5778 54.1631 13.7882 53.9022C12.9438 53.6232 12.2879 53.3845 11.6124 53.2912C10.6911 53.1646 9.55594 53.5464 8.30703 54.4708C7.07907 55.3797 5.88512 56.7109 4.90913 58.175C3.93168 59.6414 3.21878 61.1717 2.90011 62.4387C2.74062 63.0728 2.69133 63.5915 2.72726 63.9792C2.76313 64.3653 2.87287 64.5402 2.94863 64.616C3.37035 65.0376 3.71209 65.142 3.96603 65.1527C4.24637 65.1644 4.58871 65.067 4.99253 64.8101C5.72389 64.3445 6.41222 63.5087 6.88025 62.7525L7.06675 62.4341C7.21377 62.1685 7.46776 61.9558 7.78999 61.8701C8.09872 61.7881 8.37914 61.8459 8.57996 61.9383C8.92269 62.0963 9.35016 62.544 9.24559 63.1801C9.24274 63.1995 9.24266 63.2128 9.24255 63.2135L9.21223 63.3802C9.19879 63.4504 9.1807 63.5357 9.16371 63.6228C8.73381 65.8664 8.72855 67.5077 8.72855 69.8773Z" fill="#1A1A1A"/>
</svg>
