<svg width="75" height="86" viewBox="0 0 75 86" fill="none" xmlns="http://www.w3.org/2000/svg">
<path d="M7.71512 63.1501L2.4486 66.3361L1.55273 60.7824L8.49456 52.3656H25.853L29.7563 51.2368L34.1813 53.6667L37.1934 54.4337H39.6062L51.1065 53.2273L58.5064 54.4337L64.5663 58.8183L69.7086 55.2534L72.0997 57.2843L69.2816 68.2009V76.7714L67.6747 79.2851L65.2618 81.215L59.4022 83.9492H53.6497L52.3051 82.6202L51.4 80.5427L47.0961 80.33L39.6062 81.215L30.9999 83.9492L29.7563 83.5284L27.4366 80.33L13.2254 79.2851L7.13445 83.8902L3.14261 82.7195L3.81179 78.8721L7.13445 74.3291L6.61897 67.1761L7.71512 63.1501Z" fill="#E6E6E6"/>
<path d="M34.496 78.9982C36.1356 78.2203 38.078 80.1158 37.4989 81.8361C37.3685 82.2242 37.1203 82.6108 36.7323 83.0392C36.1082 83.7302 35.3202 84.1437 34.578 84.2384C33.4106 84.3903 32.4235 83.2843 32.3925 82.1076C32.3739 81.3764 32.638 80.6232 33.2792 79.9152C33.6424 79.5117 34.063 79.2047 34.496 78.9982ZM64.3065 73.7824C65.0378 72.975 66.1469 72.6882 67.2167 72.9211C68.4539 73.1914 69.2954 74.3168 69.7704 75.4904C70.2439 76.6609 70.1631 77.4698 69.3622 78.3547C68.4772 79.3328 67.0394 79.5471 65.788 79.0021C65.0491 78.6792 64.4962 78.0386 64.1298 77.3215C63.4808 76.0467 63.4107 74.773 64.3065 73.7824ZM50.4608 65.2101C52.841 65.2102 54.8626 66.521 55.5985 68.3468C55.9851 69.3079 55.8158 70.3993 55.3749 71.3371C54.4852 73.2313 52.8782 74.5265 50.4608 74.5265C48.4347 74.5265 46.6665 73.5759 45.7333 72.1662C44.8437 70.8232 45.2578 69.0563 46.0683 67.6652C47.0744 65.9387 48.2406 65.2101 50.4608 65.2101ZM4.6581 60.5529C5.90787 60.553 6.98525 61.2916 7.47743 62.3566C7.85317 63.1671 7.72284 64.1236 7.33778 64.9279C6.8099 66.0302 5.92961 66.7628 4.6581 66.7629C3.68306 66.7629 2.8119 66.3129 2.24208 65.6095C1.36329 64.5243 1.65525 62.9091 2.40517 61.7306C2.92838 60.9079 3.57291 60.5529 4.6581 60.5529ZM25.6181 57.4474C27.2994 57.4474 28.7309 58.5169 29.2714 60.0119C29.5726 60.8519 29.4454 61.7855 29.1054 62.6115C28.4641 64.1578 27.3227 65.2101 25.6181 65.2101C24.21 65.21 22.9758 64.4605 22.2958 63.3381C21.5723 62.1426 21.8941 60.6181 22.5399 59.3791C23.2463 58.0222 24.075 57.4475 25.6181 57.4474ZM60.5526 54.342C62.4684 54.342 64.1122 55.3048 64.828 56.6818C65.3186 57.6273 65.1385 58.779 64.6278 59.7121C63.8422 61.1451 62.5057 62.1056 60.5526 62.1056C59.0031 62.1056 57.6303 61.4745 56.7841 60.5041C55.6976 59.2605 56.0917 57.3559 57.037 56.0021C57.8475 54.8392 58.8292 54.342 60.5526 54.342ZM42.6981 54.342C44.1342 54.3421 45.3868 54.9649 46.0575 55.8918C46.708 56.7892 46.5238 58.0499 45.8934 58.9582C45.2212 59.9254 44.1698 60.5528 42.6981 60.5529C41.6423 60.5529 40.6835 60.2152 39.9833 59.6672C38.6346 58.6112 38.9343 56.4439 40.1405 55.2267C40.7507 54.612 41.5151 54.342 42.6981 54.342ZM15.6376 52.5441C16.5272 52.6031 17.3176 53.1404 17.8827 53.8312C18.7599 54.9056 19.0843 56.1568 18.4462 57.4377C17.9401 58.453 16.9951 59.1023 15.955 59.2717C14.5762 59.4968 13.304 58.5183 12.537 57.3508C11.8913 56.3712 11.8204 55.5376 12.3808 54.4152C13.008 53.1546 14.3149 52.4573 15.6376 52.5441Z" fill="#1A1A1A"/>
<path d="M30.078 67.7426C30.5691 67.6074 31.0996 67.8427 31.3355 68.3326C31.5715 68.8236 31.4338 69.4072 31.0331 69.7328L30.8457 69.8538L29.7279 70.432L30.7651 71.1363L30.9377 71.2812C31.2988 71.6531 31.3718 72.2498 31.0824 72.7086C30.7926 73.1675 30.2354 73.3367 29.7624 73.1418L29.5668 73.0361L26.9369 71.2471C26.6096 71.0244 26.421 70.6378 26.4437 70.2324C26.4669 69.8269 26.6982 69.4638 27.0486 69.2825L29.8693 67.8244L30.078 67.7426Z" fill="#1A1A1A"/>
<path d="M15.3936 67.7425C14.9026 67.6072 14.3721 67.8426 14.1362 68.3325C13.9002 68.8235 14.0379 69.4071 14.4386 69.7326L14.626 69.8537L15.7437 70.4318L14.7066 71.1362L14.534 71.2811C14.1728 71.653 14.0998 72.2497 14.3893 72.7085C14.679 73.1674 15.2363 73.3366 15.7092 73.1417L15.9048 73.0359L18.5348 71.247C18.8621 71.0243 19.0507 70.6377 19.0279 70.2323C19.0048 69.8268 18.7735 69.4637 18.423 69.2824L15.6024 67.8243L15.3936 67.7425Z" fill="#1A1A1A"/>
<path d="M24.257 73.0187C22.9326 72.9147 21.2759 73.0079 19.9717 73.1336C19.2016 73.2097 18.6333 73.913 19.0945 74.5341C19.804 75.4952 21.1874 76.2621 22.2106 76.6907C22.5366 76.8288 22.9077 76.8351 23.2152 76.6612C24.0085 76.2125 24.6482 75.4315 25.1032 74.6878C25.5519 73.9549 25.1125 73.0839 24.257 73.0187Z" fill="#AB5998"/>
<path d="M30.5341 50.1283C31.1048 50.1283 31.7288 50.3281 32.296 50.5695C32.8927 50.8236 33.5517 51.1789 34.2292 51.6006C35.1464 52.1715 36.1308 52.8871 37.0903 53.6839H40.2926C41.5298 53.681 43.0208 53.4673 44.717 53.2229C45.4601 53.1153 46.4136 52.9489 47.5039 52.765C48.5837 52.5829 49.78 52.3883 50.97 52.2298C52.1574 52.0717 53.3592 51.9481 54.4498 51.9144C55.5194 51.8814 56.5732 51.9298 57.4216 52.1676C60.4267 52.9054 62.8959 54.273 64.7951 56.1993C64.9608 56.3661 65.1027 56.5385 65.2121 56.6739L65.4986 57.0181C65.6597 57.197 65.7628 57.2413 65.7958 57.2516C65.8456 57.2347 66.0331 57.143 66.3174 56.6967C67.1477 55.3929 68.4731 54.3843 69.8381 54.1236C70.5392 53.9898 71.3161 54.0451 72.0079 54.4541C72.7103 54.8697 73.1775 55.5626 73.4134 56.4131C73.8473 57.9795 73.9497 59.7063 73.3497 61.3773C73.0316 62.2632 72.6551 63.1786 72.3051 64.058C71.9498 64.9506 71.6143 65.825 71.3453 66.6917C70.8034 68.4372 70.5734 70.03 70.9495 71.4967C71.329 72.9759 71.5735 74.5258 71.4939 75.9393C71.4151 77.3366 71.0079 78.7405 69.9473 79.7496L69.9488 79.7511C68.7607 80.9259 66.8646 82.0695 64.6844 83.0035C62.485 83.9456 59.9083 84.7126 57.2958 85.0853C55.5093 85.3406 53.6079 84.7347 52.2952 83.6069C51.9798 83.3359 51.693 83.0274 51.4476 82.6881C51.424 82.6857 51.4001 82.6844 51.3764 82.6805L49.5341 82.3818H49.5296L49.4386 82.3666C49.3664 82.3551 46.7194 81.9268 44.106 81.4902C42.3547 81.1965 40.4742 81.863 38.6506 82.9064L37.8727 83.3749C36.4475 84.2753 34.7395 85.0044 33.0693 85.1777C31.3745 85.3535 29.5968 84.9563 28.3447 83.4371C27.6985 82.6532 27.3038 81.8321 27.1574 80.999C26.1457 81.0961 25.2451 81.14 23.9855 81.14C20.942 81.14 18.0083 80.8654 15.4339 80.1848C14.3077 81.4117 12.4406 82.9597 10.5288 84.0087C9.42701 84.6133 8.21569 85.1067 7.05814 85.2263C5.86788 85.3491 4.60669 85.0779 3.71331 83.9936C1.95922 81.8651 2.47047 79.1694 3.53439 77.1856C4.08099 76.1665 4.81369 75.2381 5.61316 74.5125C6.03975 74.1253 6.50807 73.7769 6.99749 73.5027C6.61071 72.4225 6.40009 71.2168 6.40009 69.8773C6.40009 68.7105 6.40048 67.6751 6.45619 66.6296C6.3854 66.6791 6.315 66.7289 6.2424 66.7751C5.57966 67.1968 4.7695 67.5166 3.86796 67.4787C2.93982 67.4394 2.06757 67.0276 1.30248 66.2626C0.725748 65.6859 0.477768 64.9304 0.409416 64.1945C0.341301 63.4602 0.441956 62.6631 0.641401 61.8701C1.04086 60.2821 1.88834 58.5103 2.97187 56.8847C4.05691 55.2568 5.42575 53.7055 6.92167 52.5983C8.39644 51.5067 10.1459 50.7377 11.9313 50.9835L12.2831 51.0411C13.0998 51.196 13.881 51.4805 14.5196 51.6915C15.3036 51.9506 15.9345 52.1252 16.5453 52.1252H23.2577C24.4529 52.1251 25.6568 51.6498 26.9846 51.0153L27.3667 50.8424C28.283 50.448 29.3833 50.1283 30.5341 50.1283ZM8.05886 75.5769C7.78442 75.7387 7.487 75.9589 7.17944 76.238C6.57564 76.786 6.00615 77.5028 5.58587 78.2864C4.71644 79.9078 4.63603 81.4533 5.51005 82.5137C5.75708 82.8134 6.1354 82.9799 6.81857 82.9094C7.53415 82.8355 8.43053 82.5043 9.40831 81.9679C10.7275 81.244 12.0188 80.2413 12.97 79.3554C12.171 79.018 11.424 78.6292 10.7426 78.1757C9.66638 77.4594 8.76143 76.5943 8.05886 75.5769ZM8.72903 69.8773C8.72903 72.8552 9.96298 74.8587 12.0329 76.2365C14.7506 78.0449 18.9876 78.811 23.9855 78.811C25.3629 78.811 26.2616 78.7546 27.4304 78.6276C27.5573 78.3269 27.7143 78.0431 27.8943 77.7785C28.8944 76.3084 30.6465 75.3162 32.2308 74.9446C32.8569 74.7978 33.4834 75.1873 33.6303 75.8134C33.7769 76.4394 33.389 77.066 32.763 77.2129C31.6068 77.4841 30.4175 78.2079 29.8184 79.0885C29.5331 79.5082 29.4009 79.9314 29.4197 80.3546C29.4385 80.7757 29.6125 81.3141 30.1414 81.9557L30.2597 82.0892C30.8647 82.7294 31.7226 82.9755 32.8282 82.8609C34.0324 82.736 35.3982 82.1832 36.6294 81.4053C38.7722 80.0523 41.5855 78.7052 44.4896 79.1916C45.7934 79.4094 47.1066 79.6261 48.1013 79.789C48.5985 79.8704 49.0165 79.9392 49.3143 79.9876C49.4631 80.0119 49.5824 80.0302 49.666 80.0437C49.6856 80.0469 49.7035 80.0503 49.7191 80.0528L50.5894 80.1923C50.5811 79.6718 50.6679 79.1255 50.8775 78.5624C51.3549 77.2796 52.4861 76.4273 53.6962 76.1243C54.6451 75.8868 55.539 75.8786 56.3026 75.8347C56.714 75.811 57.1336 75.7752 57.5899 75.7012C56.8561 75.1765 56.0241 74.5046 55.311 73.6922C54.0619 72.2691 53.0485 70.2688 53.6993 67.8213C53.8645 67.1998 54.503 66.8297 55.1245 66.995C55.746 67.1603 56.1162 67.7987 55.9509 68.4202C55.5744 69.8367 56.0973 71.0586 57.0608 72.1563C58.0411 73.2731 59.3471 74.1031 60.1979 74.6399C60.4158 74.7778 60.6816 74.9897 60.8589 75.3085C61.0627 75.675 61.1137 76.125 60.9378 76.5534C60.7851 76.9251 60.5128 77.1584 60.3116 77.2918C60.099 77.4327 59.865 77.5289 59.6475 77.598L59.646 77.5996C58.3466 78.0105 57.3172 78.1083 56.4361 78.1591C55.5334 78.211 54.9384 78.2142 54.2618 78.3835C53.674 78.5307 53.228 78.9221 53.0594 79.3751C52.7129 80.3062 53.0208 81.1599 53.813 81.8405C54.6397 82.5508 55.8748 82.9351 56.9668 82.779C59.3611 82.4375 61.7405 81.7306 63.7671 80.8625C65.8132 79.9861 67.4142 78.9825 68.3113 78.0954L68.3325 78.0741C68.806 77.63 69.1067 76.8955 69.168 75.8074C69.2288 74.7257 69.0434 73.4344 68.6949 72.0759C68.1612 69.9949 68.529 67.9088 69.1209 66.0018C69.4187 65.0427 69.7828 64.0962 70.1414 63.1953C70.5053 62.2809 70.8568 61.427 71.1573 60.5904C71.5015 59.6317 71.5163 58.5829 71.2831 57.5003L71.1694 57.0348C71.0592 56.6375 70.903 56.5065 70.8222 56.4586C70.7305 56.4044 70.5612 56.3569 70.2748 56.4116C69.6652 56.5282 68.8415 57.0673 68.2809 57.9476C67.689 58.877 66.8974 59.5397 65.8989 59.5821C64.9412 59.6225 64.21 59.0689 63.7671 58.5768C63.6264 58.4206 63.4942 58.2534 63.4002 58.1371C63.2954 58.0075 63.2188 57.9168 63.1439 57.8414L63.1409 57.8369C61.5706 56.2429 59.484 55.0664 56.8318 54.4208L56.8121 54.4162L56.7939 54.4102C56.2918 54.2693 55.5221 54.2111 54.5226 54.2419C53.5435 54.2721 52.4281 54.3844 51.2778 54.5375C50.1302 54.6903 48.9671 54.8808 47.892 55.0621C46.8274 55.2417 45.829 55.4164 45.0506 55.5291C43.4061 55.766 41.7347 56.0095 40.2987 56.0128H39.5633C40.4543 56.9742 41.2429 57.9935 41.7892 59.0059C42.5301 60.3793 42.9967 62.0682 42.1425 63.547L42.1409 63.5455C41.595 64.4912 40.8613 65.1386 39.9257 65.3741C39.0299 65.5995 38.1546 65.3945 37.4178 65.0906C36.6767 64.7849 35.9478 64.3251 35.289 63.8745C34.5488 63.3682 34.0471 62.9845 33.3983 62.5509C32.8636 62.1935 32.7195 61.4692 33.0768 60.9346C33.4343 60.4002 34.1571 60.2573 34.6916 60.6146C35.2714 61.0021 36.0549 61.5766 36.6036 61.9519C37.2338 62.383 37.7991 62.7283 38.3064 62.9375C38.8178 63.1484 39.1456 63.168 39.3571 63.1149C39.5289 63.0717 39.8062 62.9349 40.1259 62.381C40.3544 61.9851 40.3684 61.2774 39.7392 60.1112C39.1364 58.994 38.0897 57.7496 36.8402 56.5678C35.5998 55.3947 34.2161 54.336 32.998 53.5777C32.3885 53.1983 31.8384 52.9058 31.3832 52.712C30.8985 52.5056 30.626 52.4572 30.5341 52.4572C29.7943 52.4573 29.0164 52.6689 28.2946 52.9788L27.9883 53.1168C26.6459 53.7583 25.0244 54.454 23.2577 54.4541H16.5453C15.5244 54.4541 14.5783 54.1631 13.7887 53.9022C12.9443 53.6232 12.2884 53.3845 11.6129 53.2912C10.6916 53.1646 9.55642 53.5464 8.30752 54.4708C7.07956 55.3797 5.88561 56.7109 4.90962 58.175C3.93217 59.6414 3.21927 61.1717 2.9006 62.4387C2.74111 63.0728 2.69182 63.5915 2.72775 63.9792C2.76362 64.3653 2.87336 64.5402 2.94912 64.616C3.37084 65.0376 3.71258 65.142 3.96652 65.1527C4.24686 65.1644 4.5892 65.067 4.99302 64.8101C5.72437 64.3445 6.41271 63.5087 6.88074 62.7525L7.06723 62.4341C7.21426 62.1685 7.46825 61.9558 7.79048 61.8701C8.09921 61.7881 8.37963 61.8459 8.58044 61.9383C8.92318 62.0963 9.35065 62.544 9.24607 63.1801C9.24323 63.1995 9.24315 63.2128 9.24304 63.2135L9.21272 63.3802C9.19928 63.4504 9.18119 63.5357 9.1642 63.6228C8.7343 65.8664 8.72904 67.5077 8.72903 69.8773Z" fill="#1A1A1A"/>
</svg>
