<svg width="75" height="86" viewBox="0 0 75 86" fill="none" xmlns="http://www.w3.org/2000/svg">
<path d="M7.13445 74.3291L6.69658 68.2567H2.51536L1.55273 60.7824L8.49456 52.3656H25.853L33.3305 51.1111L35.0616 53.2273L37.1934 54.4337H39.6062L51.1065 53.2273L58.5064 54.4337L63.5679 57.0514L66.5397 57.9023L69.839 53.6667L72.0997 57.2844L69.2816 68.2009V76.7714L67.6747 79.2851L65.2618 81.215L59.4022 83.9492H53.6497L52.3051 82.6202L51.4 80.5428L47.0961 80.33L39.6062 81.215L30.9999 83.9492L29.7563 83.3142L27.6354 80.3052L13.2254 79.2851L7.13445 83.8902L3.14261 82.7195L3.81179 78.8721L7.13445 74.3291Z" fill="#FF99E0"/>
<path d="M34.4963 78.9977C36.1359 78.2198 38.0783 80.1163 37.4992 81.8366C37.3688 82.2246 37.1206 82.6113 36.7326 83.0397C36.1086 83.7305 35.3213 84.1431 34.5793 84.2379C33.4118 84.3901 32.4239 83.2849 32.3928 82.1081C32.3741 81.3768 32.6382 80.6237 33.2795 79.9157C33.6428 79.512 34.0632 79.2042 34.4963 78.9977ZM64.3068 73.7829C65.0381 72.9755 66.1472 72.6877 67.217 72.9206C68.4543 73.1908 69.2956 74.3171 69.7707 75.4909C70.2441 76.6614 70.1636 77.4702 69.3625 78.3551C68.4775 79.3333 67.0397 79.5476 65.7883 79.0026C65.0492 78.6796 64.4965 78.0383 64.1301 77.321C63.4812 76.0464 63.4112 74.7734 64.3068 73.7829ZM50.4601 65.2106C52.8402 65.2106 54.8618 66.5206 55.5978 68.3463C55.9844 69.3074 55.8151 70.3988 55.3742 71.3366C54.4846 73.2308 52.8776 74.526 50.4601 74.526C48.4341 74.5259 46.6657 73.5754 45.7326 72.1657C44.8432 70.8227 45.2572 69.0558 46.0676 67.6647C47.0736 65.9383 48.2401 65.2107 50.4601 65.2106ZM4.65839 60.5524C5.90807 60.5524 6.98544 61.2913 7.47773 62.3561C7.85343 63.1665 7.72306 64.1232 7.33808 64.9274C6.81018 66.0298 5.93 66.7633 4.65839 66.7633C3.68335 66.7633 2.81219 66.3124 2.24237 65.609C1.36392 64.5238 1.65572 62.9094 2.40546 61.7311C2.92869 60.9082 3.57311 60.5524 4.65839 60.5524ZM25.6193 57.4469C27.3007 57.4471 28.7324 58.5173 29.2726 60.0124C29.5737 60.8521 29.4465 61.7852 29.1066 62.611C28.4654 64.1573 27.3239 65.2104 25.6193 65.2106C24.2111 65.2106 22.9761 64.4601 22.2961 63.3376C21.5728 62.1421 21.8944 60.6175 22.5402 59.3786C23.2467 58.0217 24.0761 57.4469 25.6193 57.4469ZM60.5529 54.3415C62.4688 54.3415 64.1135 55.3042 64.8293 56.6813C65.3199 57.6269 65.1389 58.7794 64.6281 59.7126C63.8425 61.1455 62.506 62.1051 60.5529 62.1051C59.0034 62.1051 57.6306 61.4749 56.7844 60.5045C55.6976 59.2609 56.0918 57.3555 57.0373 56.0016C57.8478 54.8387 58.8295 54.3415 60.5529 54.3415ZM41.8469 54.3415C43.2829 54.3415 44.5355 54.9645 45.2062 55.8913C45.8568 56.7886 45.6725 58.0494 45.0422 58.9577C44.3699 59.9249 43.3187 60.5524 41.8469 60.5524C40.7912 60.5524 39.8332 60.2156 39.133 59.6676C37.7839 58.6119 38.0831 56.4445 39.2892 55.2272C39.8994 54.6124 40.6638 54.3415 41.8469 54.3415ZM15.6379 52.5436C16.5275 52.6026 17.3188 53.1408 17.884 53.8317C18.7609 54.906 19.0855 56.1574 18.4475 57.4381C17.9413 58.4535 16.9955 59.1029 15.9553 59.2721C14.5767 59.4972 13.3053 58.5187 12.5383 57.3512C11.8924 56.3715 11.8205 55.5373 12.381 54.4147C13.0083 53.1543 14.3153 52.4569 15.6379 52.5436Z" fill="#FF24BD"/>
<path d="M30.0766 67.7425C30.5676 67.6072 31.0981 67.8426 31.334 68.3325C31.57 68.8235 31.4323 69.4071 31.0316 69.7326L30.8442 69.8537L29.7265 70.4318L30.7637 71.1362L30.9363 71.2811C31.2974 71.653 31.3704 72.2497 31.0809 72.7085C30.7912 73.1674 30.234 73.3366 29.761 73.1417L29.5654 73.0359L26.9354 71.247C26.6082 71.0243 26.4195 70.6377 26.4423 70.2323C26.4655 69.8268 26.6967 69.4637 27.0472 69.2824L29.8678 67.8243L30.0766 67.7425Z" fill="#1A1A1A"/>
<path d="M15.3927 67.7425C14.9016 67.6072 14.3711 67.8426 14.1352 68.3325C13.8992 68.8235 14.0369 69.4071 14.4376 69.7326L14.625 69.8537L15.7428 70.4318L14.7056 71.1362L14.533 71.2811C14.1719 71.653 14.0989 72.2497 14.3883 72.7085C14.6781 73.1674 15.2353 73.3366 15.7083 73.1417L15.9039 73.0359L18.5338 71.247C18.8611 71.0243 19.0497 70.6377 19.027 70.2323C19.0038 69.8268 18.7725 69.4637 18.4221 69.2824L15.6014 67.8243L15.3927 67.7425Z" fill="#1A1A1A"/>
<path d="M24.2565 73.0187C22.9321 72.9147 21.2754 73.0079 19.9712 73.1336C19.2011 73.2097 18.6329 73.913 19.094 74.5341C19.8035 75.4952 21.1869 76.2621 22.2101 76.6907C22.5362 76.8288 22.9072 76.8351 23.2147 76.6612C24.0081 76.2125 24.6477 75.4315 25.1027 74.6878C25.5514 73.9549 25.112 73.0839 24.2565 73.0187Z" fill="#CB0B96"/>
<path d="M32.4983 50.15C33.2212 50.1502 33.8978 50.5416 34.4103 50.9172C34.9704 51.3278 35.5593 51.8896 36.1434 52.5336C36.463 52.886 36.7869 53.2732 37.1138 53.6844H40.2918C41.529 53.6815 43.0201 53.4678 44.7162 53.2234L45.9792 53.0233C46.4468 52.9452 46.9578 52.8575 47.5031 52.7655C48.5829 52.5834 49.7792 52.3872 50.9692 52.2288C52.1566 52.0707 53.3584 51.9471 54.449 51.9134C55.5021 51.8809 56.5398 51.9291 57.3814 52.1575C60.4037 52.8933 62.8886 54.2651 64.7958 56.1998L65.0247 56.4485C65.0941 56.5289 65.1567 56.6053 65.2112 56.6729L65.4978 57.0186L65.6024 57.1247C65.6991 57.2115 65.7688 57.2446 65.798 57.2536H65.7995C65.8067 57.2512 65.8209 57.2464 65.842 57.2339C65.9387 57.1769 66.1637 56.9896 66.453 56.4667C66.7376 55.9523 67.0461 55.1814 67.3476 54.0634C67.6262 53.0297 68.4234 52.29 69.3521 52.065C70.3246 51.8295 71.4154 52.1782 72.0237 53.2128V53.2143C73.3417 55.4588 74.3839 58.4967 73.3489 61.3778C73.0307 62.2637 72.6543 63.1776 72.3042 64.057C71.9488 64.95 71.6136 65.8251 71.3444 66.6922C70.8026 68.4377 70.5741 70.0305 70.9502 71.4972H70.9487C71.3281 72.976 71.5725 74.5251 71.493 75.9383C71.4143 77.3359 71.0074 78.7409 69.9465 79.7501C68.7584 80.9249 66.8638 82.07 64.6836 83.0039C62.7589 83.8284 60.545 84.5173 58.2714 84.9265L57.2949 85.0842C55.5085 85.3396 53.6071 84.7352 52.2944 83.6074C51.979 83.3364 51.6921 83.0278 51.4468 82.6886C51.4232 82.6862 51.3993 82.6849 51.3755 82.681L49.5318 82.3808H49.5288L49.4378 82.3671C49.3656 82.3556 46.7199 81.9258 44.1067 81.4892H44.1052C42.1037 81.1536 39.9331 82.0724 37.8719 83.3739C36.4471 84.2746 34.739 85.005 33.0684 85.1782C31.3738 85.3539 29.596 84.9566 28.3438 83.4376C27.6978 82.6538 27.3031 81.8324 27.1566 80.9995C26.145 81.0966 25.2443 81.1405 23.9846 81.1405C20.9411 81.1405 18.0075 80.8659 15.433 80.1853C14.3069 81.4122 12.4396 82.9603 10.528 84.0092C9.4262 84.6137 8.21481 85.1072 7.05731 85.2268C5.86708 85.3496 4.60586 85.0783 3.71248 83.9941C1.95813 81.8655 2.46952 79.1685 3.53356 77.1846C4.08015 76.1656 4.81449 75.2385 5.61385 74.513C6.04003 74.1263 6.50777 73.7788 6.99666 73.5047C6.63686 72.5005 6.43384 71.3879 6.40684 70.1599C5.84157 70.4051 5.2223 70.4963 4.64042 70.4601C3.33644 70.3789 1.93501 69.665 1.24859 68.307C0.689488 67.202 0.238795 65.8145 0.23877 64.7014C0.23877 61.7349 1.72132 57.9618 3.80649 55.1278C4.85852 53.6981 6.11782 52.432 7.50915 51.6147C8.91012 50.7918 10.5193 50.3874 12.1625 50.8505C12.9906 51.0838 13.891 51.4607 14.5612 51.6981C15.2991 51.9595 15.9304 52.1257 16.5444 52.1257H23.2568C24.52 52.1256 25.8426 51.7216 27.2521 51.2372C28.8363 50.6927 31.0037 50.15 32.4983 50.15ZM8.05954 75.5774C7.78502 75.7392 7.48632 75.9578 7.17861 76.237C6.57483 76.7849 6.00532 77.5018 5.58504 78.2854C4.71539 79.9069 4.6354 81.4522 5.50923 82.5127C5.75625 82.8125 6.13446 82.9805 6.81774 82.9099C7.53343 82.8361 8.42948 82.5034 9.40748 81.9668C10.7273 81.2427 12.0194 80.2406 12.9707 79.3544C12.1714 79.0169 11.4234 78.6298 10.7418 78.1762C9.66588 77.4601 8.76203 76.5944 8.05954 75.5774ZM9.2968 62.8319C9.29762 62.8275 9.29954 62.8244 9.29983 62.8228V62.8167C9.29918 62.821 9.29761 62.8264 9.2968 62.8319ZM2.56772 64.7014C2.56775 65.3053 2.8526 66.3182 3.32735 67.2563L3.43501 67.4337C3.71989 67.8299 4.22946 68.1009 4.78446 68.1357C5.40518 68.1743 5.79493 67.9194 5.94742 67.5474C6.21458 66.8948 6.40644 66.1108 6.55543 65.3443C6.63712 64.5485 6.76018 63.7158 6.95117 62.7894C6.96282 62.7084 6.98208 62.5783 6.99211 62.5104C6.99588 62.4849 6.99873 62.458 7.00121 62.4422C7.00142 62.4408 7.00467 62.428 7.00727 62.4134C7.00797 62.4095 7.00904 62.3982 7.01182 62.3846C7.01314 62.3781 7.01675 62.3641 7.02092 62.3467C7.02149 62.3443 7.03515 62.2837 7.06186 62.2117C7.08408 62.1564 7.18808 61.9661 7.28474 61.8418C7.78484 61.5129 8.88451 61.7118 9.22099 62.1541C9.27006 62.2898 9.30997 62.486 9.31499 62.5423C9.31649 62.5712 9.31817 62.6178 9.31802 62.6363C9.31749 62.668 9.31558 62.6934 9.31499 62.7015C9.31418 62.7126 9.31245 62.7221 9.31196 62.7272C9.31034 62.7443 9.30914 62.7589 9.30893 62.7606C9.30841 62.7649 9.30775 62.7686 9.30741 62.7712C9.30667 62.777 9.30509 62.7842 9.30438 62.7894C9.29898 62.8291 9.28529 62.9314 9.25738 63.1275V63.1291C9.18465 63.6391 9.06687 64.619 8.8586 65.7006C8.72929 67.0326 8.72821 68.2924 8.72821 69.8778C8.72823 72.8557 9.96217 74.8593 12.0321 76.237C14.7498 78.0454 18.9869 78.8115 23.9846 78.8115C25.3621 78.8115 26.2608 78.7536 27.4295 78.6266C27.5565 78.3261 27.7135 78.0419 27.8935 77.7775C28.8938 76.3077 30.6467 75.3168 32.2315 74.9451C32.8576 74.7983 33.4842 75.1878 33.631 75.8139C33.7774 76.4399 33.3896 77.0667 32.7637 77.2134C31.6069 77.4846 30.4184 78.2072 29.8191 79.0875C29.5332 79.5076 29.4 79.9315 29.4188 80.3551C29.4377 80.7762 29.6117 81.3146 30.1406 81.9562L30.2588 82.0897C30.8639 82.7298 31.7229 82.9761 32.8289 82.8614C34.0332 82.7365 35.3985 82.1834 36.6286 81.4058C38.7717 80.0525 41.5856 78.705 44.4903 79.1921L48.1005 79.7895C48.5975 79.8709 49.0157 79.9382 49.3134 79.9866C49.4622 80.0108 49.5816 80.0307 49.6652 80.0442C49.6817 80.0469 49.697 80.0496 49.7107 80.0518H49.7213L49.8138 80.067L50.5886 80.1928C50.5802 79.6723 50.6671 79.126 50.8767 78.5629C51.354 77.2801 52.4853 76.4279 53.6954 76.1248L54.0487 76.0459C54.8658 75.8845 55.6335 75.8721 56.3018 75.8336C56.7127 75.81 57.1319 75.7755 57.5876 75.7017C56.854 75.1771 56.0229 74.5047 55.3102 73.6927C54.061 72.2695 53.0489 70.2681 53.6999 67.8203C53.8655 67.1993 54.5025 66.8303 55.1237 66.9955C55.7451 67.1607 56.1151 67.7978 55.95 68.4192C55.5732 69.836 56.0963 71.0589 57.0599 72.1568C58.0402 73.2735 59.3463 74.1021 60.197 74.6388L60.1985 74.6404C60.4165 74.7783 60.6808 74.9901 60.8581 75.309C61.0618 75.6755 61.113 76.1255 60.937 76.5539C60.7843 76.9252 60.5118 77.1574 60.3107 77.2908C60.0984 77.4315 59.8655 77.5294 59.6482 77.5985H59.6451C58.3456 78.0096 57.3164 78.1088 56.4352 78.1596C55.6451 78.205 55.0908 78.2129 54.5111 78.3279L54.2609 78.384C53.6734 78.5312 53.2272 78.9212 53.0586 79.3741C52.7118 80.3054 53.0199 81.1603 53.8121 81.841C54.6389 82.5512 55.874 82.9356 56.9659 82.7795C59.3602 82.438 61.7397 81.7311 63.7663 80.863C65.8122 79.9866 67.4133 78.9829 68.3104 78.0959L68.3317 78.0746C68.8052 77.6305 69.1058 76.896 69.1671 75.8079C69.228 74.7259 69.0427 73.4339 68.694 72.0749C68.1604 69.9939 68.5282 67.9078 69.1201 66.0008C69.4178 65.0419 69.782 64.0965 70.1405 63.1958C70.5045 62.2813 70.8559 61.4275 71.1564 60.5909C71.8416 58.6838 71.2072 56.4207 70.0162 54.3925V54.394C69.9939 54.3561 69.9763 54.3381 69.9692 54.3318C69.9654 54.3285 69.9626 54.3264 69.9616 54.3258H69.9601C69.96 54.3257 69.9565 54.3232 69.948 54.3227C69.9388 54.3222 69.9229 54.3235 69.901 54.3288C69.8286 54.3463 69.7263 54.4067 69.6553 54.5274L69.5962 54.6699C69.2651 55.8978 68.8966 56.8615 68.4909 57.5948C68.0899 58.3194 67.611 58.8941 67.0247 59.2399C66.3979 59.6094 65.7263 59.6691 65.1112 59.4795C64.5391 59.303 64.0909 58.9359 63.7678 58.5773C63.6268 58.4209 63.4935 58.2541 63.3993 58.1376C63.2945 58.0079 63.218 57.9158 63.1431 57.8404L63.1401 57.8374C61.5698 56.2433 59.4833 55.0669 56.831 54.4213L56.8113 54.4167L56.7931 54.4107C56.2909 54.2698 55.5213 54.21 54.5217 54.2408C53.5426 54.271 52.4273 54.3849 51.277 54.538C50.1293 54.6908 48.9664 54.8813 47.8912 55.0626C47.3588 55.1524 46.8427 55.2403 46.3628 55.3204L45.0498 55.5281C43.405 55.7651 41.7341 56.01 40.2979 56.0133H38.7953C39.0922 56.4644 39.3828 56.9278 39.6626 57.3977C40.7534 59.2296 41.7143 61.2132 42.2675 63.0078C42.5439 63.9047 42.7314 64.7927 42.7663 65.6127C42.8008 66.4227 42.6899 67.2621 42.2766 67.978L42.2751 67.9765C41.1151 69.9867 38.3094 70.9921 36.0024 70.0886C34.7925 69.6147 33.7741 68.6396 33.1928 67.1501C32.622 65.6875 32.4881 63.7763 32.8971 61.3854C33.0058 60.7517 33.6067 60.3263 34.2405 60.4347C34.8743 60.5431 35.3008 61.1443 35.1927 61.7781C34.8285 63.9073 34.9943 65.3587 35.3625 66.3025C35.7202 67.2191 36.2786 67.6959 36.8515 67.9204C38.1101 68.4133 39.6885 67.8041 40.26 66.8135L40.3388 66.6392C40.4101 66.435 40.4569 66.1351 40.4389 65.7112C40.4152 65.1556 40.2821 64.4751 40.0416 63.6946C39.5606 62.134 38.6952 60.3236 37.6626 58.5894C36.6317 56.858 35.4655 55.2533 34.4179 54.0983C33.8922 53.5188 33.42 53.0802 33.032 52.7959C32.5967 52.4768 32.4375 52.479 32.4983 52.479C31.3969 52.479 29.5236 52.9181 28.0087 53.4388C26.6175 53.9169 24.9559 54.4546 23.2568 54.4546H16.5444C15.5268 54.4546 14.5938 54.1807 13.7834 53.8936C12.9057 53.5827 12.2728 53.3007 11.5302 53.0915C10.6668 52.8483 9.71577 53.0205 8.68878 53.6237C7.65253 54.2326 6.61376 55.2429 5.68208 56.5091C3.79929 59.0682 2.56772 62.3674 2.56772 64.7014Z" fill="#1A1A1A"/>
</svg>
