<svg width="75" height="86" viewBox="0 0 75 86" fill="none" xmlns="http://www.w3.org/2000/svg">
<path d="M6.81877 63.1194L7.59975 57.2536L8.53909 50.6269L13.197 51.4032L14.7496 52.9559L17.7695 53.195L24.9566 52.3333L27.947 50.6269H31.8286L34.0721 49.6022L36.297 54.4014H38.7098L50.2101 53.195L57.61 54.4014L63.6699 58.786L66.7628 45.969L69.868 37.4296L69.3898 47.6319V54.4014L65.9865 63.8243L68.3853 76.7406L66.7783 79.2543L64.3655 81.1843L58.5059 83.9185H52.7534L50.5036 83.1406V80.512L46.2013 80.2993L38.7098 81.1843L30.1036 83.9185L27.0853 82.9838L26.309 80.512L24.9566 80.2993L12.3291 79.2543L6.23964 83.8594L2.24628 82.6888L1.55225 77.5651L6.23964 74.2983L5.72262 67.1453L6.81877 63.1194Z" fill="#F1E5FF"/>
<path d="M27.3686 69.4027C28.1948 69.4027 28.8645 70.0973 28.8647 70.9545C28.8647 71.8118 28.1949 72.5072 27.3686 72.5072C26.5424 72.507 25.8725 71.8117 25.8725 70.9545C25.8727 70.0975 26.5425 69.4029 27.3686 69.4027ZM28.9067 65.2435C29.5181 64.9073 30.2526 65.0241 30.5473 65.5043C30.8418 65.9843 30.586 66.6455 29.975 66.9818L29.9721 66.9838C29.9711 66.9844 29.97 66.9857 29.9682 66.9867C29.9635 66.9893 29.9548 66.9925 29.9458 66.9975C29.9275 67.0075 29.9008 67.0227 29.8667 67.0414C29.7976 67.0793 29.6978 67.1341 29.5747 67.2016C29.3278 67.3367 28.986 67.5233 28.6079 67.7289C27.8556 68.1379 26.9427 68.6305 26.3432 68.9408L26.226 68.9945C25.6341 69.2422 24.9803 69.093 24.7221 68.6332C24.4471 68.1428 24.7261 67.4845 25.3461 67.1635L26.3803 66.6176C26.7669 66.4102 27.1772 66.1877 27.5542 65.9828C27.9287 65.7792 28.2673 65.5944 28.5122 65.4603L28.8803 65.2572C28.889 65.2524 28.8964 65.2489 28.9008 65.2465C28.9026 65.2454 28.9037 65.2441 28.9047 65.2435H28.9067Z" fill="#1A1A1A"/>
<path d="M14.9715 69.4023C14.1452 69.4024 13.4754 70.0978 13.4754 70.9551C13.4755 71.8123 14.1453 72.5068 14.9715 72.5068C15.7978 72.5068 16.4676 71.8124 16.4676 70.9551C16.4676 70.0978 15.7979 69.4023 14.9715 69.4023ZM13.4344 65.2432C12.823 64.9069 12.0875 65.0238 11.7928 65.5039C11.4983 65.9839 11.7542 66.6461 12.3651 66.9824L12.368 66.9834C12.3691 66.984 12.371 66.9853 12.3729 66.9863C12.3776 66.9889 12.3854 66.9931 12.3944 66.9981C12.4126 67.008 12.4395 67.0224 12.4735 67.041C12.5425 67.0789 12.6422 67.1347 12.7655 67.2022C13.0124 67.3374 13.355 67.5238 13.7333 67.7295C14.4855 68.1385 15.3985 68.6302 15.9979 68.9404L16.1141 68.9951C16.706 69.2428 17.3597 69.0935 17.618 68.6338C17.8934 68.1433 17.6143 67.4851 16.994 67.1641L15.9598 66.6182C15.5734 66.4109 15.1638 66.1883 14.787 65.9834C14.4123 65.7797 14.0729 65.5951 13.828 65.4609L13.4608 65.2578C13.4522 65.2531 13.4448 65.2495 13.4403 65.2471C13.4384 65.246 13.4365 65.2447 13.4354 65.2441L13.4344 65.2432Z" fill="#1A1A1A"/>
<path d="M23.0082 72.2146C21.6155 72.0127 19.7601 72.1525 18.3425 72.3466C17.605 72.4459 17.0539 73.1089 17.3287 73.8014C17.9078 75.2624 19.3844 76.4501 20.5085 77.124C20.9153 77.3662 21.4276 77.374 21.7878 77.0665C22.7054 76.284 23.4057 74.9053 23.8389 73.7641C24.1028 73.07 23.741 72.3217 23.0082 72.2146Z" fill="#1A1A1A"/>
<path d="M67.3285 39.4311C68.0137 39.2373 68.7207 39.4063 69.2647 39.8845C69.7734 40.3316 70.0773 40.9856 70.2321 41.7085C70.813 44.4224 70.9437 47.8613 70.6278 51.2912C70.312 54.7202 69.5418 58.2278 68.264 61.0649C67.1451 63.5512 66.6773 66.3753 67.5559 68.6521C68.2753 70.517 68.9201 72.6159 69.1222 74.523C69.3174 76.3653 69.1366 78.3912 67.753 79.6904L67.7515 79.6888C66.5616 80.8561 64.677 81.9929 62.5099 82.9215C60.5854 83.746 58.372 84.4372 56.0992 84.8471L55.1212 85.0048C53.3352 85.2591 51.4337 84.6539 50.1207 83.5265C49.8046 83.2551 49.5172 82.946 49.2716 82.6061C49.249 82.6038 49.226 82.6037 49.2033 82.6L47.2656 82.2862L47.0897 82.2574L47.0851 82.2543C46.4431 82.1504 44.1746 81.7846 41.9299 81.4083C40.1788 81.1147 38.3003 81.7816 36.476 82.826L35.6982 83.2945C34.2734 84.1952 32.5639 84.924 30.8932 85.0973C29.1984 85.2729 27.4207 84.876 26.1686 83.3566C25.5227 82.5726 25.1278 81.7515 24.9814 80.9185C23.9705 81.0155 23.0698 81.0595 21.8109 81.0595C18.7653 81.0595 15.8311 80.7844 13.2563 80.1028C12.1301 81.3296 10.2655 82.8794 8.35426 83.9283C7.25225 84.533 6.03975 85.0261 4.88206 85.1458C3.69213 85.2688 2.43074 84.9984 1.53723 83.9146C-0.217234 81.786 0.294301 79.0877 1.35832 77.1037C1.9049 76.0846 2.63916 75.1575 3.4386 74.432C3.86528 74.0449 4.33333 73.6964 4.82293 73.4222C4.4358 72.3419 4.22401 71.1361 4.22401 69.7969C4.22401 67.3082 4.22492 65.4165 4.76835 62.7539C4.98409 61.1127 5.60264 57.322 6.49231 53.9795C6.71592 53.14 7.10947 52.2709 7.76141 51.5535L7.76596 51.5474C7.92751 51.3719 8.08957 51.2109 8.25115 51.0743L8.25267 51.0728C9.46153 50.0561 11.0195 49.9111 12.3844 50.1191C13.5892 50.3028 14.7841 50.7768 15.7672 51.3655L16.175 51.6247L16.1796 51.6278C16.2803 51.6962 16.3846 51.7728 16.4919 51.8582L16.4934 51.8597C16.6778 52.0071 16.819 52.0431 16.8952 52.0432H22.8996C22.974 52.0432 23.0546 52.0194 23.1255 51.9719C24.9755 50.729 26.0828 50.0725 27.0025 49.7901C27.9903 49.4868 28.7829 49.6326 29.5483 49.6779C30.2607 49.7201 30.9519 49.9116 31.5755 50.2146L31.9894 50.4057C32.1241 50.4648 32.2561 50.5196 32.3867 50.574C32.6368 50.6781 32.9126 50.7913 33.163 50.9091C33.6881 51.1561 34.2457 51.4916 34.6823 52.116C34.9746 52.5343 35.1729 53.027 35.313 53.6019H38.1181C39.3553 53.599 40.8463 53.3868 42.5425 53.1425C43.2856 53.0352 44.239 52.8684 45.3293 52.6846C46.4092 52.5025 47.6055 52.3064 48.7955 52.1478C49.9829 51.9896 51.1848 51.8662 52.2752 51.8325C53.3449 51.7993 54.3987 51.8476 55.2471 52.0857H55.2455C58.0986 52.7916 61.144 54.6685 63.1361 56.5116C63.1435 56.4891 63.1528 56.4666 63.1603 56.4433C63.3951 55.7185 63.6491 54.6892 63.9033 53.3699C64.4105 50.7376 64.9023 47.048 65.2649 42.5409L65.2937 42.2816C65.4655 40.9845 66.1435 39.7665 67.3285 39.4311ZM5.8843 75.4949C5.60963 75.6566 5.31137 75.8765 5.00336 76.156C4.39978 76.7037 3.83157 77.421 3.41131 78.2044C2.54153 79.8263 2.45984 81.3727 3.33398 82.4332C3.58081 82.7326 3.95914 82.8996 4.6425 82.829C5.35835 82.7549 6.25562 82.4227 7.23375 81.8859C8.5535 81.1616 9.84424 80.1581 10.7954 79.2719C10.2388 79.0368 9.70607 78.78 9.20487 78.4895L8.56653 78.0938C7.49078 77.378 6.587 76.5125 5.8843 75.4949ZM67.8395 41.8328C67.7602 41.9607 67.6768 42.1571 67.6257 42.4287L67.5862 42.7274C67.2191 47.2922 66.7177 51.0714 66.1898 53.8111C65.9265 55.1775 65.6528 56.3106 65.3771 57.162C65.2397 57.5861 65.0927 57.9663 64.9358 58.281C64.7965 58.5606 64.5827 58.9278 64.252 59.1817L64.2505 59.1832C63.903 59.4488 63.469 59.5383 63.0527 59.4319C62.7147 59.3453 62.4793 59.1516 62.3643 59.0482C62.2379 58.9345 62.1302 58.8103 62.0686 58.7389C61.9879 58.6453 61.9624 58.6148 61.9398 58.5919L61.9382 58.5903C60.2118 56.8511 57.2534 54.9726 54.6557 54.3388L54.636 54.3343L54.6178 54.3282C54.1163 54.1874 53.3473 54.129 52.348 54.1599C51.3691 54.1902 50.2537 54.3038 49.1033 54.4571C47.9554 54.61 46.7915 54.8004 45.716 54.9817C45.184 55.0714 44.6687 55.1595 44.1891 55.2394L42.8745 55.4472C41.2297 55.6841 39.5589 55.9275 38.1226 55.9309H35.6072C35.6414 56.5717 35.6572 57.3035 35.6572 58.1415C35.6572 58.7847 35.1359 59.306 34.4927 59.306C33.8499 59.3057 33.3283 58.7845 33.3283 58.1415C33.3283 56.5714 33.2729 55.4927 33.1615 54.7315C33.0496 53.9672 32.8952 53.6248 32.7733 53.4503C32.669 53.3011 32.5256 53.1833 32.1714 53.0166C31.9823 52.9277 31.7745 52.8415 31.4921 52.724C31.2206 52.611 30.9047 52.4784 30.5581 52.3101C30.2829 52.1763 29.9924 52.0835 29.7014 52.0356L29.4103 52.0023C28.3396 51.9389 28.1546 51.8737 27.6863 52.0174C27.1502 52.1821 26.3226 52.6296 24.4219 53.9067L24.4204 53.9082C23.9758 54.2054 23.4462 54.3722 22.8996 54.3722H16.8952C16.1431 54.372 15.5049 54.0513 15.0409 53.6808L14.8756 53.5579L14.5633 53.3593C13.8114 52.9102 12.9035 52.5549 12.0342 52.4223C11.0292 52.2691 10.2527 52.4339 9.75223 52.8544C9.69417 52.9036 9.60875 52.9861 9.48537 53.1197L9.36256 53.2653C9.08594 53.6192 8.87826 54.0685 8.74241 54.5784C7.88383 57.8042 7.28159 61.5042 7.07607 63.0739L7.07152 63.1163L7.06242 63.1573C6.55767 65.6013 6.55296 67.295 6.55296 69.7969C6.55296 72.773 7.78854 74.7783 9.85685 76.1545C12.5764 77.9633 16.8122 78.7305 21.8109 78.7306C23.1876 78.7306 24.0865 78.674 25.2543 78.5471C25.3813 78.246 25.538 77.9615 25.7183 77.6965C26.7186 76.2261 28.4728 75.2342 30.0577 74.8626C30.6836 74.7163 31.3105 75.1056 31.4572 75.7315C31.6039 76.3575 31.2145 76.9842 30.5884 77.1309C29.4315 77.4022 28.243 78.1259 27.6439 79.0065C27.358 79.4267 27.2262 79.8502 27.2451 80.2741C27.264 80.6955 27.4367 81.2334 27.9653 81.8753C28.5747 82.6147 29.4736 82.9043 30.6536 82.782C31.858 82.6571 33.2232 82.104 34.4533 81.3264V81.3249C36.5978 79.9701 39.4103 78.6241 42.315 79.1112C43.6185 79.3297 44.9305 79.5459 45.9252 79.7086C46.4223 79.7898 46.8405 79.8573 47.1382 79.9057C47.287 79.9298 47.4063 79.9482 47.49 79.9618C47.5318 79.9685 47.565 79.9746 47.5885 79.9784C47.5968 79.9798 47.6039 79.9805 47.6098 79.9815C47.6238 79.9835 47.6384 79.9863 47.6537 79.9891L48.4134 80.1119C48.405 79.5914 48.4918 79.045 48.7014 78.4819L48.7985 78.2469C49.3204 77.0952 50.3857 76.328 51.5201 76.0438C52.4699 75.8055 53.363 75.7966 54.1266 75.7527C54.5378 75.729 54.9576 75.6933 55.4139 75.6193C54.6806 75.0944 53.8492 74.4221 53.1365 73.6102C51.8874 72.1874 50.8737 70.188 51.5247 67.7409C51.69 67.1196 52.3272 66.7496 52.9484 66.9145C53.5699 67.0799 53.9402 67.7183 53.7748 68.3398C53.3984 69.7551 53.9223 70.9763 54.8862 72.0743C55.8659 73.1902 57.1693 74.0197 58.0203 74.5579C58.2389 74.6955 58.505 74.9075 58.6829 75.2265C58.8869 75.593 58.9385 76.0433 58.7632 76.4714C58.611 76.8431 58.3386 77.076 58.137 77.2098C58.0307 77.2804 57.9185 77.3396 57.8065 77.3902L57.4729 77.5176C56.1724 77.9295 55.1428 78.0279 54.2615 78.0786C53.3591 78.1305 52.7641 78.1332 52.0872 78.303H52.0857C51.4982 78.4503 51.0534 78.8417 50.8848 79.2946C50.5382 80.2256 50.8443 81.0794 51.6369 81.76C52.464 82.4703 53.6999 82.8539 54.7922 82.6986L55.6883 82.5545C57.7753 82.178 59.819 81.5404 61.5925 80.7805C63.6382 79.904 65.2387 78.9006 66.1367 78.0134L66.1579 77.9922C66.7025 77.4809 66.9832 76.4464 66.8054 74.7686C66.6345 73.1559 66.0717 71.2756 65.3831 69.4906C64.1875 66.3923 64.8971 62.8742 66.1413 60.1096C67.2824 57.5762 68.0078 54.3372 68.308 51.0774C68.6081 47.8183 68.4745 44.6251 67.9547 42.1967C67.9202 42.0356 67.8761 41.9185 67.8395 41.8328Z" fill="#1A1A1A"/>
<path d="M66.2749 33.5637C67.3298 33.4653 68.3399 33.8532 69.0556 34.5614C69.7362 34.4855 70.4419 34.6093 71.0798 34.9495L71.3876 35.133C72.4868 35.8701 73.0315 37.1235 72.919 38.355C73.4931 38.8101 73.9279 39.4434 74.126 40.1912L74.2003 40.5414C74.3977 41.7919 73.9043 42.9883 73.0055 43.7513C73.0231 44.4902 72.8105 45.2401 72.3429 45.8847C71.5702 46.9495 70.3099 47.4481 69.0905 47.2993C68.3729 48.0567 67.3341 48.4822 66.2415 48.3819L65.8882 48.3304C65.0295 48.1634 64.308 47.6928 63.8079 47.0537C62.8145 47.0394 61.8418 46.6052 61.1727 45.8013L60.9574 45.5162C60.4943 44.8299 60.309 44.0377 60.3736 43.2722C59.5846 42.4477 59.2129 41.2548 59.4912 40.0608L59.5898 39.7181C59.7997 39.1068 60.1691 38.587 60.6375 38.1913C60.6116 36.9978 61.1954 35.8212 62.2826 35.1451L62.5949 34.9723C63.0686 34.7406 63.5745 34.6304 64.0763 34.6235C64.556 34.1229 65.1884 33.7594 65.9201 33.6152L66.2749 33.5637Z" fill="#1A1A1A"/>
<path d="M9.97797 50.0809C10.4748 49.4413 11.3101 49.1034 12.1547 49.285C13.3285 49.5382 14.0748 50.6943 13.8217 51.8681L13.8032 51.9559C14.7315 51.6268 15.7984 51.9621 16.3559 52.8251C17.0079 53.8342 16.7193 55.1787 15.7104 55.8309C15.5366 55.9442 15.3579 56.0565 15.1733 56.1698C16.2692 56.5115 16.916 57.6562 16.6303 58.7802C16.402 59.6805 15.6428 60.3043 14.7719 60.4052C15.1663 60.916 15.3294 61.5962 15.1586 62.2684C14.8636 63.4329 13.6805 64.1367 12.5161 63.8417C12.4556 63.8246 12.3939 63.8084 12.3334 63.7929C12.5632 64.7011 12.1824 65.6902 11.3364 66.1932C10.3039 66.8081 8.97017 66.4699 8.35688 65.4374C8.28862 65.3241 8.22282 65.2112 8.15766 65.0995C8.10975 65.1691 8.06202 65.2403 8.01411 65.3114C7.33871 66.3035 5.98418 66.5596 4.9936 65.8827C4.13533 65.2973 3.82777 64.2063 4.19868 63.2811L4.13227 63.2938C2.95227 63.5174 1.81581 62.7404 1.59223 61.5604C1.41375 60.6134 1.87803 59.6947 2.67915 59.2538L2.67622 59.2499C1.71048 58.5372 1.50457 57.1771 2.21723 56.2099C2.58979 55.7054 3.1398 55.4095 3.71723 55.3427C3.1381 54.5927 3.09989 53.5227 3.68989 52.7216C4.26903 51.9376 5.27322 51.6552 6.14887 51.9579C6.13801 51.8865 6.1275 51.8148 6.11665 51.745C5.93654 50.5572 6.75465 49.4499 7.94086 49.2714C8.74351 49.1488 9.51067 49.4848 9.97797 50.0809ZM29.393 49.285C30.2376 49.1034 31.0735 49.4413 31.5688 50.0809C32.0377 49.4847 32.8032 49.1487 33.6059 49.2714C34.7935 49.4501 35.6096 50.5573 35.4311 51.745C35.4202 51.8148 35.4093 51.8865 35.3969 51.9579C36.2726 51.6552 37.2787 51.9376 37.8579 52.7216C38.4479 53.5227 38.4077 54.5927 37.8286 55.3427C38.4077 55.4094 38.9579 55.7053 39.3305 56.2099C40.0431 57.1771 39.8377 58.5372 38.8706 59.2499L38.8676 59.2538C39.6686 59.6948 40.1345 60.6135 39.9545 61.5604C39.7325 62.7403 38.5944 63.5172 37.4145 63.2938L37.3491 63.2811C37.7185 64.2064 37.4125 65.2973 36.5541 65.8827C35.562 66.5596 34.2096 66.3035 33.5327 65.3114C33.4847 65.2402 33.4365 65.1691 33.3901 65.0995C33.3249 65.2112 33.2576 65.3241 33.1909 65.4374C32.576 66.4699 31.2429 66.808 30.2104 66.1932C29.3642 65.6902 28.9835 64.7011 29.2133 63.7929C29.1528 63.8084 29.0918 63.8246 29.0297 63.8417C27.8669 64.1365 26.6837 63.4328 26.3872 62.2684C26.2165 61.5962 26.3811 60.9159 26.7739 60.4052C25.903 60.3042 25.1438 59.6805 24.9155 58.7802C24.6298 57.6561 25.2789 56.5114 26.3735 56.1698C26.1903 56.0565 26.0103 55.9443 25.8364 55.8309C24.8288 55.1788 24.5394 53.8343 25.1899 52.8251C25.7488 51.962 26.8158 51.6269 27.7426 51.9559L27.7241 51.8681C27.4726 50.6943 28.2193 49.5382 29.393 49.285ZM66.3706 35.9003C67.0008 35.7763 67.6136 36.1864 67.7377 36.8182C67.8185 37.2265 67.892 37.6625 67.9526 38.122C68.1403 37.8706 68.3123 37.6236 68.4721 37.3847C68.8307 36.8506 69.5542 36.7094 70.0883 37.0663C70.6224 37.425 70.7653 38.1484 70.4067 38.6825C70.1039 39.1343 69.7608 39.6081 69.3696 40.0956C69.7577 40.0568 70.157 40.0036 70.5668 39.9384C71.2017 39.839 71.7978 40.2723 71.8989 40.9071C71.9998 41.5421 71.567 42.1391 70.9321 42.2401C70.4663 42.3147 70.0107 42.3719 69.5698 42.4169C69.7732 42.5752 69.9833 42.7337 70.2006 42.8905C70.7206 43.2694 70.8372 43.9974 70.4584 44.5175C70.0812 45.0376 69.3526 45.1526 68.8325 44.7753C68.5002 44.5346 68.185 44.2919 67.8823 44.0497C67.831 44.4006 67.7695 44.76 67.6997 45.1249C67.5753 45.7565 66.9651 46.1672 66.3334 46.0448C65.7016 45.9222 65.29 45.3109 65.4125 44.6806C65.4731 44.3702 65.5257 44.0658 65.5707 43.7694C65.2323 44.024 64.8779 44.2783 64.5053 44.5282C63.9712 44.8883 63.2477 44.7472 62.8891 44.2147C62.529 43.6807 62.6703 42.9573 63.2026 42.5985C63.3888 42.4728 63.5706 42.3453 63.7475 42.2196C63.3548 42.1498 62.9823 42.0724 62.6284 41.9901C62.0027 41.8442 61.6133 41.2164 61.7592 40.5907C61.9052 39.9651 62.532 39.5757 63.1577 39.7216C63.3967 39.7775 63.6484 39.8311 63.9077 39.8807C63.6236 39.4834 63.3669 39.0984 63.1372 38.7274C62.7974 38.1809 62.9657 37.4623 63.5122 37.1239C64.0587 36.784 64.7757 36.9515 65.1157 37.4979C65.2709 37.7478 65.4384 38.0056 65.6215 38.2694C65.5719 37.9187 65.5147 37.585 65.4526 37.2684C65.3284 36.6365 65.7402 36.0245 66.3706 35.9003Z" fill="#D9B8FF"/>
<path d="M3.36885 58.3155C3.68869 58.5515 3.8668 58.934 3.8404 59.3299C3.81385 59.7256 3.58761 60.0806 3.23997 60.273L2.67896 59.2541L3.36885 58.3155Z" fill="#1A1A1A"/>
<path fill-rule="evenodd" clip-rule="evenodd" d="M9.9736 48.554C10.6751 48.1308 11.5328 47.9613 12.3981 48.1476C13.7175 48.4307 14.6818 49.459 14.9545 50.6964C15.895 50.8172 16.7781 51.3342 17.3334 52.193C18.1436 53.4464 18.0062 55.0373 17.1045 56.1291C17.7529 56.9212 18.031 57.9997 17.7595 59.0676C17.5419 59.925 17.0096 60.6181 16.3191 61.0584C16.4188 61.5388 16.4159 62.0493 16.2872 62.5565C15.9407 63.9212 14.7985 64.8705 13.4822 65.0416C13.2914 65.9107 12.7584 66.7027 11.9326 67.1946C10.6725 67.9438 9.12071 67.7667 8.06314 66.8671C6.96514 67.5954 5.49172 67.6339 4.33621 66.8459C3.47856 66.2599 2.98148 65.3454 2.89427 64.3866C1.68223 64.0729 0.695815 63.0908 0.447054 61.7786C0.265338 60.8156 0.517919 59.8723 1.06416 59.148C0.434357 58.0367 0.472354 56.6143 1.27947 55.5196C1.53033 55.1797 1.83507 54.903 2.17102 54.6887C1.98565 53.7931 2.16563 52.8256 2.75174 52.0307C3.31384 51.2695 4.13736 50.8174 5.00639 50.704C5.29492 49.3933 6.35995 48.331 7.76595 48.1188C8.56187 47.9987 9.33368 48.1721 9.9736 48.554ZM10.8985 50.7935C10.6782 51.0774 10.3395 51.2435 9.98118 51.2453C9.66747 51.2453 9.36869 51.12 9.15028 50.8996L8.97288 50.701C8.75289 50.4851 8.4393 50.3732 8.11469 50.422C7.5635 50.5058 7.18482 51.0201 7.26711 51.5713L7.29895 51.7745L7.3126 51.9261C7.32168 52.2781 7.17145 52.6201 6.89715 52.851C6.58354 53.1132 6.15405 53.1922 5.76755 53.0587C5.361 52.9177 4.89437 53.0506 4.62582 53.4135C4.35411 53.7831 4.36934 54.2818 4.63795 54.6296L3.71607 55.3407L3.71759 55.3422L4.63795 54.6296C4.89567 54.9618 4.95259 55.4074 4.78957 55.794C4.62655 56.1805 4.26849 56.4509 3.85102 56.4991C3.58091 56.5301 3.32744 56.6665 3.15355 56.9024C2.8229 57.351 2.91734 57.9833 3.36582 58.314L3.36885 58.3155L2.67745 59.2526L3.23997 60.273C2.86749 60.478 2.65431 60.9072 2.73658 61.345C2.8407 61.8925 3.36714 62.2519 3.9147 62.1486L3.98141 62.1365L4.13759 62.1183C4.5028 62.0993 4.85956 62.2532 5.09737 62.5398C5.36737 62.8688 5.43734 63.3176 5.27932 63.7134L5.22928 63.8771C5.14656 64.2653 5.30128 64.6838 5.64928 64.9203C6.11029 65.2351 6.73665 65.1157 7.0518 64.6549C7.09828 64.5868 7.14331 64.5184 7.18978 64.4502L7.28076 64.332C7.50886 64.071 7.84445 63.9239 8.19657 63.9347C8.54706 63.947 8.87123 64.116 9.08205 64.3911L9.16544 64.5154L9.35649 64.843C9.6422 65.321 10.2611 65.4772 10.7408 65.1932C11.1321 64.9603 11.3104 64.5011 11.2033 64.0788C11.1025 63.6799 11.2194 63.2576 11.5126 62.9674C11.8043 62.6772 12.2267 62.5635 12.6255 62.6656C12.6844 62.6811 12.744 62.6971 12.8029 62.7126C13.3431 62.8492 13.8927 62.5234 14.0295 61.9833C14.1087 61.6712 14.0339 61.3551 13.8491 61.116C13.5933 60.7838 13.536 60.338 13.7005 59.9516C13.8636 59.5651 14.2231 59.2961 14.6391 59.248C15.0454 59.2012 15.3962 58.9101 15.5018 58.4945C15.6353 57.9712 15.3333 57.4398 14.8256 57.2815C14.3896 57.1462 14.0733 56.7673 14.0174 56.3141C13.9616 55.8611 14.1741 55.4176 14.5633 55.1784C14.7387 55.0698 14.9112 54.9611 15.0773 54.8524C15.5461 54.5497 15.6801 53.9264 15.3775 53.4575C15.1198 53.0586 14.6249 52.9006 14.1933 53.0542L14.0417 53.0966C13.6862 53.171 13.3119 53.0744 13.0349 52.8313C12.7166 52.5519 12.575 52.1237 12.6649 51.7108L12.6831 51.6228C12.8007 51.0781 12.4531 50.5414 11.9083 50.425C11.5188 50.3414 11.1297 50.4939 10.8985 50.7935Z" fill="#1A1A1A"/>
<path d="M32.4852 50.7995C32.2632 51.0818 31.9233 51.2453 31.5649 51.2453C31.2064 51.2437 30.8679 51.0774 30.6491 50.7935L31.5679 50.0793L32.4852 50.7995Z" fill="#1A1A1A"/>
<path fill-rule="evenodd" clip-rule="evenodd" d="M29.148 48.1476C30.0133 47.9616 30.8702 48.1303 31.5709 48.5525C32.2107 48.1707 32.9829 47.9989 33.7786 48.1188C35.1846 48.3308 36.2479 49.3934 36.5366 50.704C37.4066 50.8169 38.2317 51.2687 38.7943 52.0307C39.3804 52.8256 39.5586 53.7931 39.3735 54.6887C39.71 54.9031 40.016 55.1791 40.2666 55.5196C41.0737 56.6145 41.11 58.0367 40.4804 59.148C41.0275 59.8724 41.2818 60.8152 41.099 61.7786C40.8513 63.0915 39.8637 64.0734 38.6503 64.3866C38.5633 65.3454 38.0671 66.26 37.2083 66.8459C36.0523 67.6339 34.579 67.5964 33.4814 66.8671C32.4239 67.7662 30.8736 67.9437 29.615 67.1946C28.7889 66.7027 28.2536 65.911 28.0624 65.0416C26.7471 64.8696 25.6064 63.9203 25.2588 62.5565C25.13 62.0488 25.1255 61.5376 25.2255 61.0569C24.5361 60.6166 24.005 59.9242 23.7866 59.0676C23.5151 57.9999 23.792 56.9211 24.4401 56.1291C23.5397 55.0373 23.4025 53.4461 24.2111 52.193C24.7669 51.3346 25.6502 50.8178 26.5901 50.6964C26.862 49.4587 27.8283 48.4307 29.148 48.1476ZM30.6491 50.7935C30.4162 50.4938 30.0275 50.3412 29.6362 50.425C29.0919 50.5416 28.7456 51.0784 28.8614 51.6228L28.8811 51.7108L28.9039 51.8654C28.933 52.228 28.7898 52.5867 28.5127 52.8313C28.2343 53.0744 27.8607 53.171 27.5044 53.0966L27.3528 53.0542L27.189 53.0102C26.8026 52.9431 26.3954 53.1084 26.1686 53.4575C25.866 53.9262 26.0005 54.5495 26.4673 54.8524C26.6349 54.9611 26.8058 55.0698 26.9828 55.1784C27.3709 55.4175 27.586 55.8608 27.5286 56.3141C27.4728 56.7675 27.1553 57.1464 26.719 57.2815C26.213 57.44 25.9123 57.9713 26.0442 58.4945C26.1499 58.9102 26.5005 59.2013 26.907 59.248C27.3246 59.2961 27.684 59.565 27.8471 59.9516C28.0101 60.3382 27.9516 60.7838 27.6954 61.116C27.5107 61.3551 27.4373 61.6712 27.5165 61.9833C27.6549 62.5233 28.2045 62.8492 28.7447 62.7126C28.8034 62.6972 28.8619 62.6811 28.919 62.6656C29.3179 62.5632 29.7416 62.6772 30.0335 62.9674C30.3254 63.2577 30.4422 63.6798 30.3413 64.0788C30.2358 64.5008 30.4145 64.9602 30.8052 65.1932C31.2835 65.4773 31.9039 65.3212 32.1896 64.843C32.2548 64.7327 32.3185 64.6241 32.3806 64.5154L32.464 64.3911C32.6749 64.1161 32.9992 63.947 33.351 63.9347C33.7014 63.924 34.0358 64.0714 34.2638 64.332L34.3548 64.4502L34.4943 64.6549C34.8079 65.1161 35.4372 65.2354 35.8968 64.9203C36.2448 64.6838 36.3995 64.2652 36.3168 63.8771L36.2667 63.7134L36.2182 63.5632C36.1303 63.2077 36.2139 62.8277 36.4502 62.5398C36.6868 62.2532 37.0444 62.0992 37.41 62.1183L37.5662 62.1365L37.6314 62.1486C38.1793 62.2526 38.7069 61.8929 38.8095 61.345C38.8933 60.9071 38.6787 60.478 38.3061 60.273L38.8671 59.2526L38.1757 58.3155L38.1787 58.314C38.6274 57.9833 38.7232 57.3511 38.3925 56.9024C38.2202 56.6664 37.9667 56.5302 37.695 56.4991C37.2789 56.4509 36.918 56.1806 36.755 55.794C36.5921 55.4075 36.6504 54.9617 36.9081 54.6296C37.1766 54.2818 37.1935 53.783 36.9202 53.4135C36.6532 53.0503 36.1852 52.9175 35.7785 53.0587C35.3923 53.1919 34.9639 53.1129 34.6504 52.851C34.3368 52.5871 34.1834 52.1781 34.2486 51.7745C34.2595 51.7063 34.2681 51.6379 34.279 51.5713C34.3628 51.0201 33.9826 50.5058 33.4314 50.422C33.0603 50.3661 32.7042 50.5201 32.4852 50.7995L31.5679 50.0793L30.6491 50.7935ZM38.8671 59.2526L38.3061 60.273C37.9588 60.0805 37.7322 59.7254 37.7057 59.3299C37.6793 58.9341 37.8561 58.5516 38.1757 58.3155L38.8671 59.2526Z" fill="#1A1A1A"/>
</svg>
