<svg width="75" height="86" viewBox="0 0 75 86" fill="none" xmlns="http://www.w3.org/2000/svg">
<path d="M6.81926 63.1194L7.60024 57.2536L8.53958 50.6269L13.1975 51.4032L14.7501 52.9559L17.77 53.195L24.9571 52.3333L27.9475 50.6269H31.829L34.0726 49.6022L36.2975 54.4014H38.7103L50.2106 53.195L57.6105 54.4014L63.6704 58.786L66.7633 45.969L69.8685 37.4296L69.3903 47.6319V54.4014L65.9869 63.8243L68.3858 76.7406L66.7788 79.2543L64.366 81.1843L58.5064 83.9185H52.7538L50.5041 83.1406V80.512L46.2017 80.2993L38.7103 81.1843L30.1041 83.9185L27.0858 82.9838L26.3095 80.512L24.9571 80.2993L12.3296 79.2543L6.24012 83.8594L2.24677 82.6888L1.55273 77.5651L6.24012 74.2983L5.72311 67.1453L6.81926 63.1194Z" fill="#F1E5FF"/>
<path d="M29.0022 69.8091C29.4059 69.3212 30.1144 69.2644 30.5846 69.6832C31.0547 70.102 31.108 70.8372 30.7045 71.325C29.4756 72.8101 28.0549 73.2437 26.7433 72.9834C25.5371 72.744 24.5923 71.9528 24.0752 71.3189C23.6749 70.8281 23.7337 70.0941 24.2067 69.6787C24.6798 69.2633 25.3873 69.3243 25.7877 69.8151C26.0847 70.1792 26.6092 70.5854 27.1641 70.6959C27.6139 70.7852 28.2479 70.7207 29.0022 69.8091Z" fill="#1A1A1A"/>
<path d="M16.5813 69.8089C16.985 69.3211 17.6935 69.2643 18.1637 69.6831C18.6338 70.1019 18.6871 70.837 18.2836 71.3249C17.0547 72.8099 15.634 73.2436 14.3224 72.9833C13.1162 72.7439 12.1714 71.9526 11.6543 71.3188C11.254 70.828 11.3128 70.094 11.7858 69.6786C12.2589 69.2632 12.9664 69.3242 13.3668 69.815C13.6638 70.1791 14.1883 70.5853 14.7432 70.6958C15.193 70.785 15.827 70.7206 16.5813 69.8089Z" fill="#1A1A1A"/>
<path d="M23.0087 72.2147C21.616 72.0128 19.7606 72.1526 18.343 72.3467C17.6055 72.4461 17.0544 73.1091 17.3292 73.8015C17.9083 75.2626 19.3849 76.4502 20.509 77.1241C20.9158 77.3663 21.4281 77.3741 21.7883 77.0667C22.7059 76.2841 23.4062 74.9054 23.8393 73.7642C24.1033 73.0702 23.7415 72.3218 23.0087 72.2147Z" fill="#1A1A1A"/>
<path d="M67.3285 39.431C68.0137 39.2372 68.7207 39.4062 69.2647 39.8843C69.7734 40.3315 70.0773 40.9855 70.2321 41.7084C70.813 44.4223 70.9437 47.8612 70.6278 51.291C70.312 54.7201 69.5418 58.2277 68.264 61.0647C67.1451 63.5511 66.6773 66.3751 67.5559 68.652C68.2753 70.5168 68.9201 72.6158 69.1222 74.5229C69.3174 76.3652 69.1366 78.3911 67.753 79.6902L67.7515 79.6887C66.5616 80.856 64.677 81.9928 62.5099 82.9214C60.5854 83.7459 58.372 84.4371 56.0992 84.847L55.1212 85.0047C53.3352 85.259 51.4337 84.6537 50.1207 83.5263C49.8046 83.255 49.5172 82.9458 49.2716 82.606C49.249 82.6037 49.226 82.6036 49.2033 82.5999L47.2656 82.2861L47.0897 82.2572L47.0851 82.2542C46.4431 82.1503 44.1746 81.7845 41.9299 81.4081C40.1788 81.1145 38.3003 81.7815 36.476 82.8258L35.6982 83.2944C34.2734 84.1951 32.5639 84.9239 30.8932 85.0972C29.1984 85.2728 27.4207 84.8758 26.1686 83.3565C25.5227 82.5725 25.1278 81.7514 24.9814 80.9184C23.9705 81.0154 23.0698 81.0594 21.8109 81.0594C18.7653 81.0594 15.8311 80.7843 13.2563 80.1027C12.1301 81.3295 10.2655 82.8793 8.35426 83.9281C7.25225 84.5329 6.03975 85.0259 4.88206 85.1457C3.69213 85.2687 2.43074 84.9982 1.53723 83.9145C-0.217234 81.7859 0.294301 79.0876 1.35832 77.1035C1.9049 76.0844 2.63916 75.1574 3.4386 74.4319C3.86528 74.0447 4.33333 73.6962 4.82293 73.4221C4.4358 72.3418 4.22401 71.136 4.22401 69.7968C4.22401 67.3081 4.22492 65.4164 4.76835 62.7538C4.98409 61.1126 5.60264 57.3219 6.49231 53.9793C6.71592 53.1399 7.10947 52.2707 7.76141 51.5533L7.76596 51.5473C7.92751 51.3718 8.08957 51.2108 8.25115 51.0742L8.25267 51.0727C9.46153 50.056 11.0195 49.911 12.3844 50.119C13.5892 50.3026 14.7841 50.7767 15.7672 51.3653L16.175 51.6246L16.1796 51.6276C16.2803 51.6961 16.3846 51.7726 16.4919 51.8581L16.4934 51.8596C16.6778 52.0069 16.819 52.0429 16.8952 52.0431H22.8996C22.974 52.0431 23.0546 52.0193 23.1255 51.9718C24.9755 50.7289 26.0828 50.0724 27.0025 49.79C27.9903 49.4867 28.7829 49.6324 29.5483 49.6778C30.2607 49.72 30.9519 49.9115 31.5755 50.2145L31.9894 50.4055C32.1241 50.4647 32.2561 50.5195 32.3867 50.5739C32.6368 50.6779 32.9126 50.7911 33.163 50.9089C33.6881 51.156 34.2457 51.4914 34.6823 52.1159C34.9746 52.5341 35.1729 53.0269 35.313 53.6018H38.1181C39.3553 53.5989 40.8463 53.3867 42.5425 53.1424C43.2856 53.0351 44.239 52.8683 45.3293 52.6845C46.4092 52.5024 47.6055 52.3063 48.7955 52.1477C49.9829 51.9895 51.1848 51.8661 52.2752 51.8323C53.3449 51.7992 54.3987 51.8475 55.2471 52.0855H55.2455C58.0986 52.7915 61.144 54.6684 63.1361 56.5115C63.1435 56.489 63.1528 56.4665 63.1603 56.4432C63.3951 55.7183 63.6491 54.6891 63.9033 53.3698C64.4105 50.7375 64.9023 47.0479 65.2649 42.5408L65.2937 42.2815C65.4655 40.9844 66.1435 39.7664 67.3285 39.431ZM5.8843 75.4948C5.60963 75.6565 5.31137 75.8764 5.00336 76.1559C4.39978 76.7036 3.83157 77.4208 3.41131 78.2043C2.54153 79.8262 2.45984 81.3726 3.33398 82.4331C3.58081 82.7325 3.95914 82.8995 4.6425 82.8289C5.35835 82.7548 6.25562 82.4226 7.23375 81.8858C8.5535 81.1614 9.84424 80.158 10.7954 79.2718C10.2388 79.0367 9.70607 78.7799 9.20487 78.4894L8.56653 78.0936C7.49078 77.3779 6.587 76.5124 5.8843 75.4948ZM67.8395 41.8327C67.7602 41.9606 67.6768 42.157 67.6257 42.4286L67.5862 42.7273C67.2191 47.2921 66.7177 51.0713 66.1898 53.811C65.9265 55.1774 65.6528 56.3105 65.3771 57.1619C65.2397 57.586 65.0927 57.9662 64.9358 58.2809C64.7965 58.5605 64.5827 58.9276 64.252 59.1816L64.2505 59.1831C63.903 59.4487 63.469 59.5382 63.0527 59.4317C62.7147 59.3452 62.4793 59.1515 62.3643 59.0481C62.2379 58.9344 62.1302 58.8102 62.0686 58.7388C61.9879 58.6452 61.9624 58.6146 61.9398 58.5917L61.9382 58.5902C60.2118 56.851 57.2534 54.9725 54.6557 54.3387L54.636 54.3341L54.6178 54.3281C54.1163 54.1873 53.3473 54.1289 52.348 54.1598C51.3691 54.1901 50.2537 54.3037 49.1033 54.4569C47.9554 54.6099 46.7915 54.8003 45.716 54.9816C45.184 55.0712 44.6687 55.1594 44.1891 55.2393L42.8745 55.4471C41.2297 55.684 39.5589 55.9274 38.1226 55.9307H35.6072C35.6414 56.5716 35.6572 57.3034 35.6572 58.1414C35.6572 58.7845 35.1359 59.3059 34.4927 59.3059C33.8499 59.3056 33.3283 58.7844 33.3283 58.1414C33.3283 56.5712 33.2729 55.4926 33.1615 54.7314C33.0496 53.9671 32.8952 53.6246 32.7733 53.4502C32.669 53.301 32.5256 53.1832 32.1714 53.0165C31.9823 52.9276 31.7745 52.8414 31.4921 52.7239C31.2206 52.6109 30.9047 52.4782 30.5581 52.3099C30.2829 52.1762 29.9924 52.0834 29.7014 52.0355L29.4103 52.0022C28.3396 51.9388 28.1546 51.8735 27.6863 52.0173C27.1502 52.182 26.3226 52.6294 24.4219 53.9066L24.4204 53.9081C23.9758 54.2053 23.4462 54.372 22.8996 54.372H16.8952C16.1431 54.3719 15.5049 54.0511 15.0409 53.6806L14.8756 53.5578L14.5633 53.3592C13.8114 52.9101 12.9035 52.5547 12.0342 52.4222C11.0292 52.2689 10.2527 52.4338 9.75223 52.8543C9.69417 52.9035 9.60875 52.9859 9.48537 53.1196L9.36256 53.2652C9.08594 53.6191 8.87826 54.0684 8.74241 54.5782C7.88383 57.804 7.28159 61.5041 7.07607 63.0738L7.07152 63.1162L7.06242 63.1571C6.55767 65.6012 6.55296 67.2949 6.55296 69.7968C6.55296 72.7729 7.78854 74.7781 9.85685 76.1544C12.5764 77.9631 16.8122 78.7304 21.8109 78.7305C23.1876 78.7305 24.0865 78.6739 25.2543 78.547C25.3813 78.2459 25.538 77.9613 25.7183 77.6964C26.7186 76.226 28.4728 75.2341 30.0577 74.8625C30.6836 74.7162 31.3105 75.1054 31.4572 75.7313C31.6039 76.3574 31.2145 76.9841 30.5884 77.1308C29.4315 77.4021 28.243 78.1258 27.6439 79.0064C27.358 79.4266 27.2262 79.8501 27.2451 80.274C27.264 80.6954 27.4367 81.2333 27.9653 81.8751C28.5747 82.6146 29.4736 82.9042 30.6536 82.7819C31.858 82.657 33.2232 82.1039 34.4533 81.3263V81.3248C36.5978 79.97 39.4103 78.624 42.315 79.111C43.6185 79.3296 44.9305 79.5458 45.9252 79.7084C46.4223 79.7897 46.8405 79.8572 47.1382 79.9056C47.287 79.9297 47.4063 79.9481 47.49 79.9617C47.5318 79.9684 47.565 79.9745 47.5885 79.9783C47.5968 79.9797 47.6039 79.9804 47.6098 79.9814C47.6238 79.9833 47.6384 79.9862 47.6537 79.9889L48.4134 80.1118C48.405 79.5913 48.4918 79.0449 48.7014 78.4818L48.7985 78.2468C49.3204 77.0951 50.3857 76.3279 51.5201 76.0437C52.4699 75.8054 53.363 75.7965 54.1266 75.7526C54.5378 75.7289 54.9576 75.6931 55.4139 75.6191C54.6806 75.0943 53.8492 74.422 53.1365 73.6101C51.8874 72.1873 50.8737 70.1879 51.5247 67.7407C51.69 67.1195 52.3272 66.7495 52.9484 66.9144C53.5699 67.0798 53.9402 67.7182 53.7748 68.3397C53.3984 69.755 53.9223 70.9762 54.8862 72.0742C55.8659 73.1901 57.1693 74.0196 58.0203 74.5578C58.2389 74.6954 58.505 74.9074 58.6829 75.2264C58.8869 75.5929 58.9385 76.0432 58.7632 76.4713C58.611 76.843 58.3386 77.0759 58.137 77.2097C58.0307 77.2802 57.9185 77.3395 57.8065 77.3901L57.4729 77.5175C56.1724 77.9294 55.1428 78.0278 54.2615 78.0785C53.3591 78.1304 52.7641 78.1331 52.0872 78.3029H52.0857C51.4982 78.4502 51.0534 78.8416 50.8848 79.2945C50.5382 80.2254 50.8443 81.0792 51.6369 81.7599C52.464 82.4702 53.6999 82.8538 54.7922 82.6985L55.6883 82.5544C57.7753 82.1779 59.819 81.5403 61.5925 80.7804C63.6382 79.9039 65.2387 78.9005 66.1367 78.0133L66.1579 77.9921C66.7025 77.4808 66.9832 76.4463 66.8054 74.7685C66.6345 73.1558 66.0717 71.2755 65.3831 69.4905C64.1875 66.3922 64.8971 62.8741 66.1413 60.1095C67.2824 57.576 68.0078 54.3371 68.308 51.0772C68.6081 47.8182 68.4745 44.625 67.9547 42.1966C67.9202 42.0355 67.8761 41.9184 67.8395 41.8327Z" fill="#1A1A1A"/>
<path d="M66.2749 33.5637C67.3298 33.4653 68.3399 33.8532 69.0556 34.5614C69.7362 34.4855 70.4419 34.6093 71.0798 34.9495L71.3876 35.133C72.4868 35.8701 73.0315 37.1235 72.919 38.355C73.4931 38.8101 73.9279 39.4434 74.126 40.1912L74.2003 40.5414C74.3977 41.7919 73.9043 42.9883 73.0055 43.7513C73.0231 44.4902 72.8105 45.2401 72.3429 45.8847C71.5702 46.9495 70.3099 47.4481 69.0905 47.2993C68.3729 48.0567 67.3341 48.4822 66.2415 48.3819L65.8882 48.3304C65.0295 48.1634 64.308 47.6928 63.8079 47.0537C62.8145 47.0394 61.8418 46.6052 61.1727 45.8013L60.9574 45.5162C60.4943 44.8299 60.309 44.0377 60.3736 43.2722C59.5846 42.4477 59.2129 41.2548 59.4912 40.0608L59.5898 39.7181C59.7997 39.1068 60.1691 38.587 60.6375 38.1913C60.6116 36.9978 61.1954 35.8212 62.2826 35.1451L62.5949 34.9723C63.0686 34.7406 63.5745 34.6304 64.0763 34.6235C64.556 34.1229 65.1884 33.7594 65.9201 33.6152L66.2749 33.5637Z" fill="#1A1A1A"/>
<path d="M9.97693 50.0808C10.4737 49.4412 11.3091 49.1043 12.1537 49.2859C13.3275 49.539 14.0747 50.6941 13.8217 51.8679L13.8031 51.9558C14.7315 51.6269 15.7985 51.9628 16.3558 52.8259C17.0076 53.8351 16.7184 55.1798 15.7094 55.8318C15.5356 55.9451 15.3569 56.0564 15.1722 56.1697C16.2684 56.5113 16.9159 57.6559 16.6302 58.78C16.402 59.6805 15.6428 60.3051 14.7719 60.406C15.1659 60.9167 15.3291 61.5963 15.1586 62.2683C14.8636 63.4327 13.6804 64.1364 12.516 63.8416C12.4554 63.8245 12.393 63.8092 12.3324 63.7937C12.5621 64.7019 12.1814 65.6911 11.3353 66.1941C10.3029 66.8086 8.96904 66.4696 8.35584 65.4373C8.28766 65.3241 8.22267 65.2109 8.15759 65.0994C8.10948 65.1692 8.06118 65.2409 8.01306 65.3123C7.33769 66.3041 5.984 66.5602 4.99353 65.8836C4.13493 65.2982 3.82753 64.2064 4.19861 63.281L4.13123 63.2937C2.95134 63.5171 1.81475 62.7402 1.59119 61.5603C1.41289 60.6134 1.87717 59.6946 2.6781 59.2537L2.67517 59.2507C1.70949 58.5381 1.50465 57.178 2.21716 56.2107C2.5898 55.7061 3.13958 55.4093 3.71716 55.3425C3.13803 54.5926 3.09884 53.5226 3.68884 52.7214C4.26798 51.9374 5.27313 51.655 6.1488 51.9578C6.13794 51.8864 6.12647 51.8148 6.1156 51.7449C5.93559 50.5572 6.75378 49.4499 7.93982 49.2712C8.74253 49.1486 9.50959 49.4846 9.97693 50.0808ZM29.3929 49.2859C30.2375 49.1043 31.0725 49.4412 31.5677 50.0808C32.0366 49.4847 32.8022 49.1487 33.6049 49.2712C34.7926 49.4498 35.6095 50.5572 35.431 51.7449C35.4202 51.8148 35.4093 51.8864 35.3969 51.9578C36.2725 51.6551 37.2787 51.9374 37.8578 52.7214C38.4478 53.5226 38.4075 54.5926 37.8285 55.3425C38.4075 55.4094 38.9569 55.7062 39.3295 56.2107C40.042 57.178 39.8367 58.5381 38.8695 59.2507L38.8666 59.2537C39.6676 59.6946 40.1334 60.6133 39.9535 61.5603C39.7315 62.7403 38.5935 63.5173 37.4135 63.2937L37.348 63.281C37.7175 64.2064 37.4117 65.2982 36.5531 65.8836C35.561 66.5602 34.2085 66.3043 33.5316 65.3123C33.4835 65.2409 33.4356 65.1692 33.389 65.0994C33.324 65.2109 33.2574 65.3241 33.1908 65.4373C32.576 66.4697 31.2418 66.8089 30.2094 66.1941C29.3633 65.6911 28.9827 64.7019 29.2123 63.7937C29.1519 63.8092 29.0916 63.8245 29.0297 63.8416C27.8667 64.1366 26.6836 63.4328 26.3871 62.2683C26.2164 61.5962 26.3811 60.9167 26.7738 60.406C25.9028 60.3051 25.1427 59.6806 24.9144 58.78C24.6288 57.656 25.278 56.5114 26.3724 56.1697C26.1894 56.0564 26.0091 55.945 25.8353 55.8318C24.8278 55.1797 24.5394 53.8351 25.1898 52.8259C25.7488 51.9627 26.8156 51.6267 27.7426 51.9558L27.724 51.8679C27.4725 50.6941 28.2192 49.539 29.3929 49.2859ZM66.3705 35.9002C67.0007 35.7762 67.6135 36.1863 67.7377 36.8181C67.8184 37.2264 67.892 37.6624 67.9525 38.1218C68.1403 37.8704 68.3122 37.6235 68.472 37.3845C68.8306 36.8506 69.5542 36.7094 70.0883 37.0662C70.6224 37.4248 70.7652 38.1483 70.4066 38.6824C70.1039 39.1342 69.7608 39.6079 69.3695 40.0955C69.7576 40.0567 70.157 40.0044 70.5668 39.9392C71.2018 39.8399 71.7979 40.2729 71.8988 40.908C71.9995 41.5428 71.5669 42.139 70.932 42.24C70.4662 42.3145 70.0107 42.3717 69.5697 42.4168C69.7731 42.5751 69.9832 42.7336 70.2006 42.8904C70.7206 43.2692 70.8371 43.9972 70.4584 44.5173C70.0811 45.0375 69.3525 45.1524 68.8324 44.7752C68.5002 44.5346 68.1849 44.2927 67.8822 44.0505C67.831 44.4013 67.7694 44.7601 67.6996 45.1248C67.5753 45.7565 66.9651 46.168 66.3334 46.0457C65.7015 45.923 65.2898 45.3108 65.4125 44.6804C65.473 44.37 65.5257 44.0658 65.5707 43.7693C65.2322 44.0239 64.8779 44.2781 64.5052 44.5281C63.9711 44.8883 63.2477 44.7472 62.889 44.2146C62.529 43.6806 62.6702 42.9571 63.2025 42.5984C63.3888 42.4727 63.5705 42.3452 63.7474 42.2195C63.3548 42.1496 62.9822 42.0723 62.6283 41.99C62.0026 41.844 61.6132 41.2163 61.7592 40.5906C61.9052 39.9652 62.5321 39.5756 63.1576 39.7214C63.3967 39.7773 63.6483 39.8319 63.9076 39.8816C63.6235 39.4841 63.3679 39.0984 63.1381 38.7273C62.7981 38.1808 62.9656 37.4622 63.5121 37.1238C64.0585 36.784 64.7756 36.9515 65.1156 37.4978C65.2708 37.7476 65.4384 38.0055 65.6215 38.2693C65.5718 37.9186 65.5146 37.5849 65.4525 37.2683C65.3283 36.6364 65.7401 36.0244 66.3705 35.9002Z" fill="#D9B8FF"/>
<path d="M3.36885 58.3155C3.68869 58.5515 3.8668 58.934 3.8404 59.3299C3.81385 59.7256 3.58762 60.0806 3.23997 60.273L2.67896 59.2541L3.36885 58.3155Z" fill="#1A1A1A"/>
<path fill-rule="evenodd" clip-rule="evenodd" d="M9.9736 48.554C10.6751 48.1308 11.5328 47.9613 12.3981 48.1476C13.7175 48.4307 14.6818 49.459 14.9545 50.6964C15.895 50.8172 16.7781 51.3342 17.3334 52.193C18.1436 53.4464 18.0062 55.0373 17.1045 56.1291C17.7529 56.9212 18.031 57.9997 17.7595 59.0676C17.5419 59.925 17.0096 60.6181 16.3191 61.0584C16.4188 61.5388 16.4159 62.0493 16.2872 62.5565C15.9407 63.9212 14.7985 64.8705 13.4822 65.0416C13.2914 65.9107 12.7584 66.7027 11.9326 67.1946C10.6725 67.9438 9.12071 67.7667 8.06314 66.8671C6.96514 67.5954 5.49173 67.6339 4.33621 66.8459C3.47856 66.2599 2.98148 65.3454 2.89427 64.3866C1.68223 64.0729 0.695815 63.0908 0.447054 61.7786C0.265338 60.8156 0.517919 59.8723 1.06416 59.148C0.434357 58.0367 0.472354 56.6143 1.27947 55.5196C1.53033 55.1797 1.83507 54.903 2.17102 54.6887C1.98565 53.7931 2.16563 52.8256 2.75174 52.0307C3.31384 51.2695 4.13736 50.8174 5.00639 50.704C5.29492 49.3933 6.35995 48.331 7.76595 48.1188C8.56188 47.9987 9.33368 48.1721 9.9736 48.554ZM10.8985 50.7935C10.6782 51.0774 10.3395 51.2435 9.98118 51.2453C9.66747 51.2453 9.36869 51.12 9.15028 50.8996L8.97288 50.701C8.75289 50.4851 8.43931 50.3732 8.11469 50.422C7.56351 50.5058 7.18482 51.0201 7.26711 51.5713L7.29895 51.7745L7.3126 51.9261C7.32169 52.2781 7.17145 52.6201 6.89715 52.851C6.58354 53.1132 6.15405 53.1922 5.76755 53.0587C5.361 52.9177 4.89437 53.0506 4.62582 53.4135C4.35411 53.7831 4.36934 54.2818 4.63795 54.6296L3.71607 55.3407L3.71759 55.3422L4.63795 54.6296C4.89567 54.9618 4.95259 55.4074 4.78957 55.794C4.62656 56.1805 4.26849 56.4509 3.85102 56.4991C3.58091 56.5301 3.32744 56.6665 3.15355 56.9024C2.8229 57.351 2.91734 57.9833 3.36582 58.314L3.36885 58.3155L2.67745 59.2526L3.23997 60.273C2.86749 60.478 2.65431 60.9072 2.73658 61.345C2.8407 61.8925 3.36714 62.2519 3.9147 62.1486L3.98141 62.1365L4.13759 62.1183C4.5028 62.0993 4.85956 62.2532 5.09737 62.5398C5.36737 62.8688 5.43734 63.3176 5.27932 63.7134L5.22928 63.8771C5.14656 64.2653 5.30128 64.6838 5.64928 64.9203C6.11029 65.2351 6.73665 65.1157 7.0518 64.6549C7.09828 64.5868 7.14332 64.5184 7.18978 64.4502L7.28076 64.332C7.50886 64.071 7.84445 63.9239 8.19657 63.9347C8.54706 63.947 8.87123 64.116 9.08205 64.3911L9.16545 64.5154L9.35649 64.843C9.6422 65.321 10.2611 65.4772 10.7408 65.1932C11.1321 64.9603 11.3104 64.5011 11.2033 64.0788C11.1025 63.6799 11.2194 63.2576 11.5126 62.9674C11.8043 62.6772 12.2267 62.5635 12.6255 62.6656C12.6844 62.6811 12.744 62.6971 12.8029 62.7126C13.3431 62.8492 13.8927 62.5234 14.0295 61.9833C14.1087 61.6712 14.0339 61.3551 13.8491 61.116C13.5933 60.7838 13.536 60.338 13.7005 59.9516C13.8636 59.5651 14.2231 59.2961 14.6391 59.248C15.0455 59.2012 15.3962 58.9101 15.5018 58.4945C15.6353 57.9712 15.3333 57.4398 14.8256 57.2815C14.3896 57.1462 14.0733 56.7673 14.0174 56.3141C13.9616 55.8611 14.1741 55.4176 14.5633 55.1784C14.7387 55.0698 14.9112 54.9611 15.0773 54.8524C15.5461 54.5497 15.6801 53.9264 15.3775 53.4575C15.1198 53.0586 14.6249 52.9006 14.1933 53.0542L14.0417 53.0966C13.6862 53.171 13.312 53.0744 13.0349 52.8313C12.7166 52.5519 12.575 52.1237 12.6649 51.7108L12.6831 51.6228C12.8007 51.0781 12.4531 50.5414 11.9083 50.425C11.5188 50.3414 11.1298 50.4939 10.8985 50.7935Z" fill="#1A1A1A"/>
<path d="M32.4852 50.7995C32.2632 51.0818 31.9234 51.2453 31.5649 51.2453C31.2064 51.2437 30.868 51.0774 30.6491 50.7935L31.5679 50.0793L32.4852 50.7995Z" fill="#1A1A1A"/>
<path fill-rule="evenodd" clip-rule="evenodd" d="M29.148 48.1476C30.0133 47.9616 30.8702 48.1303 31.5709 48.5525C32.2107 48.1707 32.9829 47.9989 33.7786 48.1188C35.1846 48.3308 36.2479 49.3934 36.5366 50.704C37.4066 50.8169 38.2317 51.2687 38.7943 52.0307C39.3804 52.8256 39.5586 53.7931 39.3735 54.6887C39.71 54.9031 40.016 55.1791 40.2666 55.5196C41.0737 56.6145 41.11 58.0367 40.4804 59.148C41.0275 59.8724 41.2818 60.8152 41.099 61.7786C40.8513 63.0915 39.8637 64.0734 38.6503 64.3866C38.5633 65.3454 38.0671 66.26 37.2083 66.8459C36.0523 67.6339 34.579 67.5964 33.4814 66.8671C32.4239 67.7662 30.8736 67.9437 29.615 67.1946C28.7889 66.7027 28.2536 65.911 28.0624 65.0416C26.7471 64.8696 25.6064 63.9203 25.2588 62.5565C25.13 62.0488 25.1255 61.5376 25.2255 61.0569C24.5361 60.6166 24.005 59.9242 23.7866 59.0676C23.5151 57.9999 23.792 56.9211 24.4401 56.1291C23.5397 55.0373 23.4025 53.4461 24.2111 52.193C24.7669 51.3346 25.6502 50.8178 26.5901 50.6964C26.862 49.4587 27.8283 48.4307 29.148 48.1476ZM30.6491 50.7935C30.4162 50.4938 30.0275 50.3412 29.6362 50.425C29.0919 50.5416 28.7456 51.0784 28.8614 51.6228L28.8811 51.7108L28.9039 51.8654C28.933 52.228 28.7898 52.5867 28.5127 52.8313C28.2343 53.0744 27.8607 53.171 27.5044 53.0966L27.3528 53.0542L27.189 53.0102C26.8026 52.9431 26.3954 53.1084 26.1686 53.4575C25.866 53.9262 26.0005 54.5495 26.4673 54.8524C26.6349 54.9611 26.8058 55.0698 26.9828 55.1784C27.3709 55.4175 27.586 55.8608 27.5286 56.3141C27.4728 56.7675 27.1553 57.1464 26.719 57.2815C26.213 57.44 25.9123 57.9713 26.0442 58.4945C26.1499 58.9102 26.5005 59.2013 26.907 59.248C27.3246 59.2961 27.684 59.565 27.8471 59.9516C28.0101 60.3382 27.9516 60.7838 27.6954 61.116C27.5107 61.3551 27.4373 61.6712 27.5165 61.9833C27.6549 62.5233 28.2045 62.8492 28.7447 62.7126C28.8034 62.6972 28.8619 62.6811 28.919 62.6656C29.3179 62.5632 29.7416 62.6772 30.0335 62.9674C30.3254 63.2577 30.4422 63.6798 30.3413 64.0788C30.2358 64.5008 30.4145 64.9602 30.8052 65.1932C31.2835 65.4773 31.9039 65.3212 32.1896 64.843C32.2548 64.7327 32.3185 64.6241 32.3806 64.5154L32.464 64.3911C32.6749 64.1161 32.9992 63.947 33.351 63.9347C33.7014 63.924 34.0358 64.0714 34.2638 64.332L34.3548 64.4502L34.4943 64.6549C34.8079 65.1161 35.4372 65.2354 35.8968 64.9203C36.2448 64.6838 36.3995 64.2652 36.3168 63.8771L36.2667 63.7134L36.2182 63.5632C36.1303 63.2077 36.2139 62.8277 36.4502 62.5398C36.6868 62.2532 37.0444 62.0992 37.41 62.1183L37.5662 62.1365L37.6314 62.1486C38.1793 62.2526 38.7069 61.8929 38.8095 61.345C38.8933 60.9071 38.6787 60.478 38.3061 60.273L38.8671 59.2526L38.1757 58.3155L38.1787 58.314C38.6274 57.9833 38.7232 57.3511 38.3925 56.9024C38.2202 56.6664 37.9667 56.5302 37.695 56.4991C37.2789 56.4509 36.918 56.1806 36.755 55.794C36.5921 55.4075 36.6504 54.9617 36.9081 54.6296C37.1766 54.2818 37.1935 53.783 36.9202 53.4135C36.6532 53.0503 36.1852 52.9175 35.7785 53.0587C35.3923 53.1919 34.9639 53.1129 34.6504 52.851C34.3368 52.5871 34.1835 52.1781 34.2486 51.7745C34.2595 51.7063 34.2681 51.6379 34.279 51.5713C34.3628 51.0201 33.9826 50.5058 33.4314 50.422C33.0603 50.3661 32.7042 50.5201 32.4852 50.7995L31.5679 50.0793L30.6491 50.7935ZM38.8671 59.2526L38.3061 60.273C37.9588 60.0805 37.7322 59.7254 37.7057 59.3299C37.6793 58.9341 37.8561 58.5516 38.1757 58.3155L38.8671 59.2526Z" fill="#1A1A1A"/>
</svg>
