<svg width="75" height="86" viewBox="0 0 75 86" fill="none" xmlns="http://www.w3.org/2000/svg">
<path d="M6.81877 63.1194L7.59975 57.2536L8.53909 50.6269L13.197 51.4032L14.7496 52.9559L17.7695 53.195L24.9566 52.3333L27.947 50.6269H31.8286L34.0721 49.6022L36.297 54.4014H38.7098L50.2101 53.195L57.61 54.4014L63.6699 58.786L66.7628 45.969L69.868 37.4296L69.3898 47.6319V54.4014L65.9865 63.8243L68.3853 76.7406L66.7783 79.2543L64.3655 81.1843L58.5059 83.9185H52.7534L50.5036 83.1406V80.512L46.2013 80.2993L38.7098 81.1843L30.1036 83.9185L27.0853 82.9838L26.309 80.512L24.9566 80.2993L12.3291 79.2543L6.23964 83.8594L2.24628 82.6888L1.55225 77.5651L6.23964 74.2983L5.72262 67.1453L6.81877 63.1194Z" fill="#F1E5FF"/>
<path d="M28.5243 68.4412C29.0154 68.306 29.5459 68.5413 29.7818 69.0312C30.0177 69.5222 29.8801 70.1058 29.4793 70.4314L29.292 70.5524L28.1742 71.1306L29.2114 71.8349L29.384 71.9798C29.7451 72.3517 29.8181 72.9484 29.5287 73.4072C29.2389 73.8661 28.6817 74.0354 28.2087 73.8404L28.0131 73.7347L25.3832 71.9457C25.0559 71.723 24.8672 71.3364 24.89 70.931C24.9132 70.5255 25.1445 70.1624 25.4949 69.9811L28.3156 68.523L28.5243 68.4412Z" fill="#1A1A1A"/>
<path d="M13.8404 68.4412C13.3493 68.306 12.8188 68.5413 12.583 69.0312C12.347 69.5222 12.4847 70.1058 12.8854 70.4314L13.0728 70.5524L14.1905 71.1306L13.1533 71.8349L12.9807 71.9798C12.6196 72.3517 12.5466 72.9484 12.8361 73.4072C13.1258 73.8661 13.683 74.0354 14.156 73.8404L14.3516 73.7347L16.9816 71.9457C17.3088 71.723 17.4975 71.3364 17.4747 70.931C17.4515 70.5255 17.2203 70.1624 16.8698 69.9811L14.0492 68.523L13.8404 68.4412Z" fill="#1A1A1A"/>
<path d="M23.0082 72.2147C21.6155 72.0128 19.7601 72.1526 18.3425 72.3467C17.605 72.4461 17.0539 73.1091 17.3287 73.8015C17.9078 75.2626 19.3844 76.4502 20.5085 77.1241C20.9153 77.3663 21.4276 77.3741 21.7878 77.0667C22.7054 76.2841 23.4057 74.9054 23.8389 73.7642C24.1028 73.0702 23.741 72.3218 23.0082 72.2147Z" fill="#1A1A1A"/>
<path d="M67.3285 39.431C68.0137 39.2372 68.7207 39.4062 69.2647 39.8843C69.7734 40.3315 70.0773 40.9855 70.2321 41.7084C70.813 44.4223 70.9437 47.8612 70.6278 51.291C70.312 54.7201 69.5418 58.2277 68.264 61.0647C67.1451 63.5511 66.6773 66.3751 67.5559 68.652C68.2753 70.5168 68.9201 72.6158 69.1222 74.5229C69.3174 76.3652 69.1366 78.3911 67.753 79.6902L67.7515 79.6887C66.5616 80.856 64.677 81.9928 62.5099 82.9214C60.5854 83.7459 58.372 84.4371 56.0992 84.847L55.1212 85.0047C53.3352 85.259 51.4337 84.6537 50.1207 83.5263C49.8046 83.2549 49.5172 82.9458 49.2716 82.606C49.249 82.6037 49.226 82.6036 49.2033 82.5999L47.2656 82.286L47.0897 82.2572L47.0851 82.2542C46.4431 82.1503 44.1746 81.7845 41.9299 81.4081C40.1788 81.1145 38.3003 81.7815 36.476 82.8258L35.6982 83.2943C34.2734 84.1951 32.5639 84.9239 30.8932 85.0972C29.1984 85.2728 27.4207 84.8758 26.1686 83.3565C25.5227 82.5725 25.1278 81.7514 24.9814 80.9184C23.9705 81.0153 23.0698 81.0594 21.8109 81.0594C18.7653 81.0594 15.8311 80.7843 13.2563 80.1027C12.1301 81.3295 10.2655 82.8793 8.35426 83.9281C7.25225 84.5329 6.03975 85.0259 4.88206 85.1457C3.69213 85.2687 2.43074 84.9982 1.53723 83.9145C-0.217234 81.7859 0.294301 79.0876 1.35832 77.1035C1.9049 76.0844 2.63916 75.1574 3.4386 74.4319C3.86528 74.0447 4.33333 73.6962 4.82293 73.4221C4.4358 72.3418 4.22401 71.136 4.22401 69.7968C4.22401 67.3081 4.22492 65.4164 4.76835 62.7538C4.98409 61.1126 5.60264 57.3219 6.49231 53.9793C6.71592 53.1399 7.10947 52.2707 7.76141 51.5533L7.76596 51.5473C7.92751 51.3718 8.08957 51.2108 8.25115 51.0742L8.25267 51.0727C9.46153 50.056 11.0195 49.911 12.3844 50.119C13.5892 50.3026 14.7841 50.7767 15.7672 51.3653L16.175 51.6246L16.1796 51.6276C16.2803 51.6961 16.3846 51.7726 16.4919 51.8581L16.4934 51.8596C16.6778 52.0069 16.819 52.0429 16.8952 52.0431H22.8996C22.974 52.0431 23.0546 52.0193 23.1255 51.9718C24.9755 50.7289 26.0828 50.0724 27.0025 49.79C27.9903 49.4867 28.7829 49.6324 29.5483 49.6778C30.2607 49.72 30.9519 49.9115 31.5755 50.2145L31.9894 50.4055C32.1241 50.4647 32.2561 50.5195 32.3867 50.5739C32.6368 50.6779 32.9126 50.7911 33.163 50.9089C33.6881 51.156 34.2457 51.4914 34.6823 52.1159C34.9746 52.5341 35.1729 53.0269 35.313 53.6018H38.1181C39.3553 53.5988 40.8463 53.3867 42.5425 53.1424C43.2856 53.0351 44.239 52.8683 45.3293 52.6845C46.4092 52.5024 47.6055 52.3063 48.7955 52.1477C49.9829 51.9895 51.1848 51.8661 52.2752 51.8323C53.3449 51.7992 54.3987 51.8475 55.2471 52.0855H55.2455C58.0986 52.7915 61.144 54.6684 63.1361 56.5115C63.1435 56.489 63.1528 56.4665 63.1603 56.4432C63.3951 55.7183 63.6491 54.6891 63.9033 53.3698C64.4105 50.7375 64.9023 47.0479 65.2649 42.5408L65.2937 42.2815C65.4655 40.9844 66.1435 39.7664 67.3285 39.431ZM5.8843 75.4948C5.60963 75.6565 5.31137 75.8764 5.00336 76.1559C4.39978 76.7036 3.83157 77.4208 3.41131 78.2043C2.54153 79.8262 2.45984 81.3726 3.33398 82.4331C3.58081 82.7325 3.95914 82.8995 4.6425 82.8289C5.35835 82.7548 6.25562 82.4225 7.23375 81.8858C8.5535 81.1614 9.84424 80.158 10.7954 79.2718C10.2388 79.0367 9.70607 78.7799 9.20487 78.4894L8.56653 78.0936C7.49078 77.3779 6.587 76.5124 5.8843 75.4948ZM67.8395 41.8327C67.7602 41.9606 67.6768 42.157 67.6257 42.4286L67.5862 42.7273C67.2191 47.2921 66.7177 51.0713 66.1898 53.811C65.9265 55.1774 65.6528 56.3104 65.3771 57.1619C65.2397 57.586 65.0927 57.9662 64.9358 58.2809C64.7965 58.5605 64.5827 58.9276 64.252 59.1816L64.2505 59.1831C63.903 59.4487 63.469 59.5382 63.0527 59.4317C62.7147 59.3452 62.4793 59.1515 62.3643 59.0481C62.2379 58.9344 62.1302 58.8102 62.0686 58.7388C61.9879 58.6452 61.9624 58.6146 61.9398 58.5917L61.9382 58.5902C60.2118 56.851 57.2534 54.9725 54.6557 54.3387L54.636 54.3341L54.6178 54.3281C54.1163 54.1873 53.3473 54.1288 52.348 54.1598C51.3691 54.1901 50.2537 54.3037 49.1033 54.4569C47.9554 54.6099 46.7915 54.8003 45.716 54.9816C45.184 55.0712 44.6687 55.1594 44.1891 55.2393L42.8745 55.4471C41.2297 55.684 39.5589 55.9274 38.1226 55.9307H35.6072C35.6414 56.5716 35.6572 57.3034 35.6572 58.1414C35.6572 58.7845 35.1359 59.3059 34.4927 59.3059C33.8499 59.3056 33.3283 58.7844 33.3283 58.1414C33.3283 56.5712 33.2729 55.4926 33.1615 54.7314C33.0496 53.9671 32.8952 53.6246 32.7733 53.4502C32.669 53.301 32.5256 53.1832 32.1714 53.0165C31.9823 52.9276 31.7745 52.8414 31.4921 52.7239C31.2206 52.6109 30.9047 52.4782 30.5581 52.3099C30.2829 52.1762 29.9924 52.0834 29.7014 52.0355L29.4103 52.0022C28.3396 51.9388 28.1546 51.8735 27.6863 52.0173C27.1502 52.182 26.3226 52.6294 24.4219 53.9066L24.4204 53.9081C23.9758 54.2053 23.4462 54.372 22.8996 54.372H16.8952C16.1431 54.3719 15.5049 54.0511 15.0409 53.6806L14.8756 53.5578L14.5633 53.3592C13.8114 52.9101 12.9035 52.5547 12.0342 52.4222C11.0292 52.2689 10.2527 52.4338 9.75223 52.8543C9.69417 52.9035 9.60875 52.9859 9.48537 53.1196L9.36256 53.2652C9.08594 53.6191 8.87826 54.0684 8.74241 54.5782C7.88383 57.804 7.28159 61.5041 7.07607 63.0737L7.07152 63.1162L7.06242 63.1571C6.55767 65.6012 6.55296 67.2949 6.55296 69.7968C6.55296 72.7729 7.78854 74.7781 9.85685 76.1544C12.5764 77.9631 16.8122 78.7304 21.8109 78.7305C23.1876 78.7305 24.0865 78.6738 25.2543 78.547C25.3813 78.2459 25.538 77.9613 25.7183 77.6964C26.7186 76.226 28.4728 75.2341 30.0577 74.8625C30.6836 74.7162 31.3105 75.1054 31.4572 75.7313C31.6039 76.3574 31.2145 76.9841 30.5884 77.1308C29.4315 77.4021 28.243 78.1258 27.6439 79.0064C27.358 79.4266 27.2262 79.8501 27.2451 80.274C27.264 80.6954 27.4367 81.2333 27.9653 81.8751C28.5747 82.6146 29.4736 82.9042 30.6536 82.7819C31.858 82.657 33.2232 82.1039 34.4533 81.3263V81.3247C36.5978 79.97 39.4103 78.624 42.315 79.111C43.6185 79.3296 44.9305 79.5458 45.9252 79.7084C46.4223 79.7897 46.8405 79.8572 47.1382 79.9055C47.287 79.9297 47.4063 79.9481 47.49 79.9616C47.5318 79.9684 47.565 79.9745 47.5885 79.9783C47.5968 79.9797 47.6039 79.9804 47.6098 79.9814C47.6238 79.9833 47.6384 79.9862 47.6537 79.9889L48.4134 80.1118C48.405 79.5913 48.4918 79.0449 48.7014 78.4818L48.7985 78.2468C49.3204 77.0951 50.3857 76.3279 51.5201 76.0437C52.4699 75.8054 53.363 75.7965 54.1266 75.7526C54.5378 75.7289 54.9576 75.6931 55.4139 75.6191C54.6806 75.0943 53.8492 74.422 53.1365 73.6101C51.8874 72.1873 50.8737 70.1879 51.5247 67.7407C51.69 67.1195 52.3272 66.7495 52.9484 66.9144C53.5699 67.0798 53.9402 67.7182 53.7748 68.3397C53.3984 69.755 53.9223 70.9761 54.8862 72.0742C55.8659 73.1901 57.1693 74.0196 58.0203 74.5578C58.2389 74.6954 58.505 74.9074 58.6829 75.2264C58.8869 75.5929 58.9385 76.0432 58.7632 76.4713C58.611 76.843 58.3386 77.0759 58.137 77.2097C58.0307 77.2802 57.9185 77.3395 57.8065 77.3901L57.4729 77.5175C56.1724 77.9294 55.1428 78.0277 54.2615 78.0785C53.3591 78.1304 52.7641 78.1331 52.0872 78.3029H52.0857C51.4982 78.4502 51.0534 78.8416 50.8848 79.2945C50.5382 80.2254 50.8443 81.0792 51.6369 81.7599C52.464 82.4702 53.6999 82.8538 54.7922 82.6985L55.6883 82.5544C57.7753 82.1779 59.819 81.5403 61.5925 80.7804C63.6382 79.9039 65.2387 78.9005 66.1367 78.0133L66.1579 77.9921C66.7025 77.4808 66.9832 76.4463 66.8054 74.7685C66.6345 73.1558 66.0717 71.2755 65.3831 69.4905C64.1875 66.3921 64.8971 62.8741 66.1413 60.1095C67.2824 57.576 68.0078 54.3371 68.308 51.0772C68.6081 47.8182 68.4745 44.625 67.9547 42.1966C67.9202 42.0355 67.8761 41.9184 67.8395 41.8327Z" fill="#1A1A1A"/>
<path d="M66.2749 33.5637C67.3298 33.4653 68.3399 33.8532 69.0556 34.5614C69.7362 34.4855 70.4419 34.6093 71.0798 34.9495L71.3876 35.133C72.4868 35.8701 73.0315 37.1235 72.919 38.355C73.4931 38.8101 73.9279 39.4434 74.126 40.1912L74.2003 40.5414C74.3977 41.7919 73.9043 42.9883 73.0055 43.7513C73.0231 44.4902 72.8105 45.2401 72.3429 45.8847C71.5702 46.9495 70.3099 47.4481 69.0905 47.2993C68.3729 48.0567 67.3341 48.4822 66.2415 48.3819L65.8882 48.3304C65.0295 48.1634 64.308 47.6928 63.8079 47.0537C62.8145 47.0394 61.8418 46.6052 61.1727 45.8013L60.9574 45.5162C60.4943 44.8299 60.309 44.0377 60.3736 43.2722C59.5846 42.4477 59.2129 41.2548 59.4912 40.0608L59.5898 39.7181C59.7997 39.1068 60.1691 38.587 60.6375 38.1913C60.6116 36.9978 61.1954 35.8212 62.2826 35.1451L62.5949 34.9723C63.0686 34.7406 63.5745 34.6304 64.0763 34.6235C64.556 34.1229 65.1884 33.7594 65.9201 33.6152L66.2749 33.5637Z" fill="#1A1A1A"/>
<path d="M9.97796 50.0809C10.4748 49.4413 11.3101 49.1044 12.1547 49.286C13.3284 49.5392 14.0748 50.6943 13.8217 51.8681L13.8032 51.9559C14.7316 51.6268 15.7985 51.9628 16.3559 52.8261C17.0078 53.8352 16.7195 55.1799 15.7104 55.8319C15.5366 55.9452 15.3579 56.0565 15.1733 56.1698C16.2692 56.5115 16.916 57.6562 16.6303 58.7802C16.402 59.6805 15.6428 60.3043 14.7719 60.4052C15.1662 60.9159 15.3293 61.5962 15.1586 62.2684C14.8636 63.4329 13.6805 64.1367 12.516 63.8417C12.4557 63.8247 12.3938 63.8093 12.3334 63.7938C12.5629 64.702 12.1824 65.6913 11.3364 66.1942C10.3039 66.8089 8.97013 66.4698 8.35687 65.4374C8.28861 65.3241 8.22281 65.2112 8.15765 65.0995C8.10974 65.1691 8.06201 65.2403 8.0141 65.3114C7.33871 66.3035 5.98416 66.5606 4.99359 65.8837C4.13502 65.2984 3.82767 64.2065 4.19867 63.2811L4.13226 63.2938C2.95226 63.5174 1.8158 62.7404 1.59222 61.5604C1.41377 60.6134 1.87803 59.6947 2.67913 59.2538L2.6762 59.2509C1.71065 58.5383 1.50504 57.1781 2.21722 56.2108C2.58978 55.7063 3.13977 55.4095 3.71722 55.3427C3.13809 54.5927 3.09988 53.5227 3.68988 52.7216C4.26901 51.9376 5.27323 51.6552 6.14886 51.9579C6.138 51.8865 6.1275 51.8148 6.11663 51.745C5.93653 50.5572 6.75464 49.4499 7.94085 49.2714C8.7435 49.1488 9.51066 49.4848 9.97796 50.0809ZM29.393 49.286C30.2376 49.1044 31.0735 49.4413 31.5688 50.0809C32.0377 49.4847 32.8032 49.1487 33.6059 49.2714C34.7935 49.45 35.6096 50.5573 35.4311 51.745C35.4202 51.8148 35.4093 51.8865 35.3969 51.9579C36.2725 51.6552 37.2787 51.9376 37.8578 52.7216C38.4478 53.5227 38.4077 54.5927 37.8285 55.3427C38.4077 55.4094 38.9579 55.7062 39.3305 56.2108C40.0427 57.1781 39.8377 58.5383 38.8705 59.2509L38.8676 59.2538C39.6685 59.6947 40.1345 60.6135 39.9545 61.5604C39.7325 62.7403 38.5944 63.5172 37.4145 63.2938L37.3491 63.2811C37.7185 64.2065 37.4127 65.2984 36.5541 65.8837C35.562 66.5605 34.2096 66.3035 33.5326 65.3114C33.4847 65.2402 33.4365 65.1691 33.3901 65.0995C33.3249 65.2112 33.2576 65.3241 33.1909 65.4374C32.5761 66.4697 31.2428 66.8087 30.2104 66.1942C29.3643 65.6912 28.9837 64.702 29.2133 63.7938C29.1528 63.8094 29.0918 63.8246 29.0297 63.8417C27.8669 64.1365 26.6837 63.4328 26.3871 62.2684C26.2165 61.5962 26.3811 60.9159 26.7739 60.4052C25.903 60.3042 25.1438 59.6805 24.9155 58.7802C24.6298 57.6561 25.2789 56.5114 26.3735 56.1698C26.1904 56.0565 26.0102 55.9452 25.8364 55.8319C24.8289 55.1799 24.5398 53.8352 25.1899 52.8261C25.7488 51.9629 26.8158 51.6269 27.7426 51.9559L27.7241 51.8681C27.4726 50.6944 28.2194 49.5393 29.393 49.286ZM66.3705 35.9003C67.0008 35.7763 67.6135 36.1864 67.7377 36.8182C67.8184 37.2265 67.892 37.6625 67.9526 38.122C68.1403 37.8706 68.3123 37.6236 68.4721 37.3847C68.8307 36.8507 69.5542 36.7095 70.0883 37.0663C70.6224 37.425 70.7653 38.1484 70.4067 38.6825C70.1039 39.1343 69.7608 39.6081 69.3696 40.0956C69.7577 40.0568 70.157 40.0036 70.5668 39.9384C71.2017 39.839 71.7977 40.2723 71.8989 40.9071C71.9998 41.5421 71.567 42.1391 70.9321 42.2401C70.4663 42.3146 70.0107 42.3719 69.5698 42.4169C69.7732 42.5752 69.9833 42.7337 70.2006 42.8905C70.7206 43.2694 70.8372 43.9974 70.4584 44.5175C70.0811 45.0376 69.3526 45.1526 68.8325 44.7753C68.5002 44.5346 68.185 44.2919 67.8823 44.0497C67.831 44.4006 67.7695 44.76 67.6996 45.1249C67.5753 45.7565 66.9651 46.1672 66.3334 46.0448C65.7015 45.9222 65.2899 45.3109 65.4125 44.6806C65.4731 44.3701 65.5257 44.0659 65.5707 43.7694C65.2323 44.024 64.8779 44.2783 64.5053 44.5282C63.9712 44.8883 63.2477 44.7473 62.8891 44.2147C62.5289 43.6807 62.6702 42.9572 63.2026 42.5985C63.3888 42.4728 63.5706 42.3453 63.7475 42.2196C63.3548 42.1498 62.9822 42.0724 62.6284 41.9901C62.0026 41.8442 61.6133 41.2164 61.7592 40.5907C61.9052 39.9651 62.532 39.5757 63.1576 39.7216C63.3967 39.7774 63.6484 39.8311 63.9076 39.8807C63.6236 39.4834 63.3669 39.0984 63.1371 38.7274C62.7974 38.1809 62.9657 37.4623 63.5121 37.1239C64.0586 36.784 64.7757 36.9515 65.1157 37.4979C65.2709 37.7478 65.4384 38.0056 65.6215 38.2694C65.5719 37.9187 65.5146 37.585 65.4526 37.2684C65.3284 36.6365 65.7402 36.0245 66.3705 35.9003Z" fill="#D9B8FF"/>
<path d="M3.36885 58.3154C3.68869 58.5514 3.8668 58.9339 3.8404 59.3298C3.81385 59.7255 3.58761 60.0804 3.23997 60.2729L2.67896 59.254L3.36885 58.3154Z" fill="#1A1A1A"/>
<path fill-rule="evenodd" clip-rule="evenodd" d="M9.9736 48.5538C10.6751 48.1307 11.5328 47.9612 12.3981 48.1475C13.7175 48.4306 14.6818 49.4588 14.9545 50.6963C15.895 50.8171 16.7781 51.334 17.3334 52.1928C18.1436 53.4463 18.0062 55.0372 17.1045 56.129C17.7529 56.9211 18.031 57.9996 17.7595 59.0675C17.5419 59.9249 17.0096 60.618 16.3191 61.0583C16.4188 61.5386 16.4159 62.0492 16.2872 62.5563C15.9407 63.9211 14.7985 64.8704 13.4822 65.0415C13.2914 65.9106 12.7584 66.7026 11.9326 67.1945C10.6725 67.9437 9.12071 67.7666 8.06314 66.867C6.96514 67.5953 5.49172 67.6338 4.33621 66.8458C3.47856 66.2598 2.98148 65.3453 2.89427 64.3864C1.68223 64.0727 0.695815 63.0907 0.447054 61.7785C0.265338 60.8155 0.517919 59.8722 1.06416 59.1478C0.434357 58.0366 0.472354 56.6142 1.27947 55.5195C1.53033 55.1796 1.83507 54.9028 2.17102 54.6886C1.98565 53.793 2.16563 52.8255 2.75174 52.0306C3.31384 51.2694 4.13736 50.8173 5.00639 50.7039C5.29492 49.3932 6.35995 48.3308 7.76595 48.1187C8.56187 47.9985 9.33368 48.172 9.9736 48.5538ZM10.8985 50.7933C10.6782 51.0772 10.3395 51.2434 9.98118 51.2452C9.66747 51.2452 9.36869 51.1198 9.15028 50.8995L8.97288 50.7008C8.75289 50.4849 8.4393 50.3731 8.11469 50.4219C7.5635 50.5057 7.18482 51.02 7.26711 51.5712L7.29895 51.7743L7.3126 51.926C7.32168 52.278 7.17145 52.62 6.89715 52.8509C6.58354 53.1131 6.15405 53.1921 5.76755 53.0586C5.361 52.9176 4.89437 53.0505 4.62582 53.4134C4.35411 53.7829 4.36934 54.2816 4.63795 54.6294L3.71607 55.3405L3.71759 55.3421L4.63795 54.6294C4.89567 54.9617 4.95259 55.4073 4.78957 55.7939C4.62655 56.1803 4.26849 56.4507 3.85102 56.499C3.58091 56.53 3.32744 56.6664 3.15355 56.9023C2.8229 57.3509 2.91734 57.9831 3.36582 58.3139L3.36885 58.3154L2.67745 59.2525L3.23997 60.2729C2.86749 60.4779 2.65431 60.9071 2.73658 61.3449C2.8407 61.8924 3.36714 62.2518 3.9147 62.1485L3.98141 62.1363L4.13759 62.1181C4.5028 62.0992 4.85956 62.2531 5.09737 62.5397C5.36737 62.8686 5.43734 63.3175 5.27932 63.7132L5.22928 63.877C5.14656 64.2651 5.30128 64.6836 5.64928 64.9202C6.11029 65.235 6.73665 65.1156 7.0518 64.6548C7.09828 64.5867 7.14331 64.5183 7.18978 64.4501L7.28076 64.3319C7.50886 64.0709 7.84445 63.9237 8.19657 63.9346C8.54706 63.9468 8.87123 64.1159 9.08205 64.391L9.16544 64.5153L9.35649 64.8428C9.6422 65.3209 10.2611 65.4771 10.7408 65.1931C11.1321 64.9602 11.3104 64.501 11.2033 64.0786C11.1025 63.6798 11.2194 63.2575 11.5126 62.9672C11.8043 62.6771 12.2267 62.5634 12.6255 62.6655C12.6844 62.681 12.744 62.697 12.8029 62.7125C13.3431 62.8491 13.8927 62.5232 14.0295 61.9832C14.1087 61.6711 14.0339 61.355 13.8491 61.1159C13.5933 60.7837 13.536 60.3378 13.7005 59.9514C13.8636 59.565 14.2231 59.296 14.6391 59.2479C15.0454 59.2011 15.3962 58.91 15.5018 58.4943C15.6353 57.9711 15.3333 57.4397 14.8256 57.2813C14.3896 57.1461 14.0733 56.7671 14.0174 56.314C13.9616 55.8609 14.1741 55.4175 14.5633 55.1783C14.7387 55.0696 14.9112 54.961 15.0773 54.8523C15.5461 54.5496 15.6801 53.9263 15.3775 53.4574C15.1198 53.0584 14.6249 52.9005 14.1933 53.0541L14.0417 53.0965C13.6862 53.1709 13.3119 53.0742 13.0349 52.8312C12.7166 52.5517 12.575 52.1236 12.6649 51.7107L12.6831 51.6227C12.8007 51.078 12.4531 50.5413 11.9083 50.4249C11.5188 50.3413 11.1297 50.4938 10.8985 50.7933Z" fill="#1A1A1A"/>
<path d="M32.4852 50.7994C32.2632 51.0817 31.9233 51.2452 31.5649 51.2452C31.2064 51.2436 30.8679 51.0772 30.6491 50.7933L31.5679 50.0792L32.4852 50.7994Z" fill="#1A1A1A"/>
<path fill-rule="evenodd" clip-rule="evenodd" d="M29.148 48.1475C30.0133 47.9615 30.8702 48.1302 31.5709 48.5523C32.2107 48.1705 32.9829 47.9987 33.7786 48.1187C35.1846 48.3307 36.2479 49.3933 36.5366 50.7039C37.4066 50.8168 38.2317 51.2686 38.7943 52.0306C39.3804 52.8255 39.5586 53.793 39.3735 54.6886C39.71 54.903 40.016 55.179 40.2666 55.5195C41.0737 56.6144 41.11 58.0366 40.4804 59.1478C41.0275 59.8723 41.2818 60.8151 41.099 61.7785C40.8513 63.0914 39.8637 64.0733 38.6503 64.3864C38.5633 65.3453 38.0671 66.2598 37.2083 66.8458C36.0523 67.6338 34.579 67.5962 33.4814 66.867C32.4239 67.7661 30.8736 67.9435 29.615 67.1945C28.7889 66.7026 28.2536 65.9109 28.0624 65.0415C26.7471 64.8695 25.6064 63.9202 25.2588 62.5563C25.13 62.0487 25.1255 61.5375 25.2255 61.0568C24.5361 60.6164 24.005 59.9241 23.7866 59.0675C23.5151 57.9998 23.792 56.921 24.4401 56.129C23.5397 55.0372 23.4025 53.446 24.2111 52.1928C24.7669 51.3345 25.6502 50.8177 26.5901 50.6963C26.862 49.4586 27.8283 48.4305 29.148 48.1475ZM30.6491 50.7933C30.4162 50.4937 30.0275 50.341 29.6362 50.4249C29.0919 50.5415 28.7456 51.0782 28.8614 51.6227L28.8811 51.7107L28.9039 51.8653C28.933 52.2279 28.7898 52.5865 28.5127 52.8312C28.2343 53.0743 27.8607 53.1709 27.5044 53.0965L27.3528 53.0541L27.189 53.0101C26.8026 52.9429 26.3954 53.1083 26.1686 53.4574C25.866 53.926 26.0005 54.5494 26.4673 54.8523C26.6349 54.961 26.8058 55.0696 26.9828 55.1783C27.3709 55.4174 27.586 55.8607 27.5286 56.314C27.4728 56.7673 27.1553 57.1463 26.719 57.2813C26.213 57.4398 25.9123 57.9712 26.0442 58.4943C26.1499 58.9101 26.5005 59.2012 26.907 59.2479C27.3246 59.296 27.684 59.5649 27.8471 59.9514C28.0101 60.338 27.9516 60.7836 27.6954 61.1159C27.5107 61.355 27.4373 61.6711 27.5165 61.9832C27.6549 62.5232 28.2045 62.8491 28.7447 62.7125C28.8034 62.6971 28.8619 62.681 28.919 62.6655C29.3179 62.5631 29.7416 62.6771 30.0335 62.9672C30.3254 63.2576 30.4422 63.6796 30.3413 64.0786C30.2358 64.5007 30.4145 64.9601 30.8052 65.1931C31.2835 65.4772 31.9039 65.321 32.1896 64.8428C32.2548 64.7326 32.3185 64.624 32.3806 64.5153L32.464 64.391C32.6749 64.116 32.9992 63.9468 33.351 63.9346C33.7014 63.9238 34.0358 64.0713 34.2638 64.3319L34.3548 64.4501L34.4943 64.6548C34.8079 65.1159 35.4372 65.2353 35.8968 64.9202C36.2448 64.6836 36.3995 64.2651 36.3168 63.877L36.2667 63.7132L36.2182 63.5631C36.1303 63.2075 36.2139 62.8276 36.4502 62.5397C36.6868 62.2531 37.0444 62.099 37.41 62.1181L37.5662 62.1363L37.6314 62.1485C38.1793 62.2525 38.7069 61.8928 38.8095 61.3449C38.8933 60.907 38.6787 60.4778 38.3061 60.2729L38.8671 59.2525L38.1757 58.3154L38.1787 58.3139C38.6274 57.9832 38.7232 57.351 38.3925 56.9023C38.2202 56.6663 37.9667 56.53 37.695 56.499C37.2789 56.4508 36.918 56.1805 36.755 55.7939C36.5921 55.4074 36.6504 54.9616 36.9081 54.6294C37.1766 54.2816 37.1935 53.7829 36.9202 53.4134C36.6532 53.0502 36.1852 52.9173 35.7785 53.0586C35.3923 53.1918 34.9639 53.1128 34.6504 52.8509C34.3368 52.5869 34.1834 52.178 34.2486 51.7743C34.2595 51.7062 34.2681 51.6378 34.279 51.5712C34.3628 51.02 33.9826 50.5057 33.4314 50.4219C33.0603 50.366 32.7042 50.5199 32.4852 50.7994L31.5679 50.0792L30.6491 50.7933ZM38.8671 59.2525L38.3061 60.2729C37.9588 60.0804 37.7322 59.7253 37.7057 59.3298C37.6793 58.934 37.8561 58.5514 38.1757 58.3154L38.8671 59.2525Z" fill="#1A1A1A"/>
</svg>
