<svg width="75" height="86" viewBox="0 0 75 86" fill="none" xmlns="http://www.w3.org/2000/svg">
<path d="M7.13445 74.3291L6.69661 68.2567H2.51536L1.55273 60.7824L8.49454 52.3656H25.853L33.3304 51.1111L35.0616 53.2273L37.1934 54.4337H39.6062L51.1065 53.2273L58.5064 54.4337L63.568 57.0514L66.5397 57.9023L69.839 53.6667L72.0997 57.2844L69.2816 68.2009V76.7714L67.6747 79.2851L65.2619 81.215L59.4022 83.9492H53.6497L52.3052 82.6202L51.4 80.5428L47.0961 80.33L39.6062 81.215L31 83.9492L29.7563 83.3142L27.6354 80.3052L13.2254 79.2851L7.13445 83.8902L3.14263 82.7195L3.81182 78.8721L7.13445 74.3291Z" fill="#0D99FF"/>
<path d="M34.4965 78.9979C36.136 78.22 38.0785 80.1164 37.4994 81.8367C37.3689 82.2248 37.1208 82.6115 36.7328 83.0399C36.1086 83.7308 35.3206 84.1434 34.5785 84.2381C33.4111 84.39 32.4241 83.2849 32.3929 82.1082C32.3743 81.3769 32.6384 80.6238 33.2797 79.9158C33.6429 79.5122 34.0633 79.2043 34.4965 78.9979ZM64.307 73.783C65.0383 72.9756 66.1474 72.6878 67.2172 72.9207C68.4544 73.191 69.2958 74.3173 69.7709 75.491C70.2442 76.6615 70.1637 77.4704 69.3627 78.3553C68.4777 79.3334 67.0398 79.5477 65.7884 79.0027C65.0494 78.6798 64.4967 78.0384 64.1302 77.3211C63.4813 76.0465 63.4113 74.7736 64.307 73.783ZM50.4603 65.2108C52.8403 65.2108 54.8619 66.5208 55.598 68.3465C55.9846 69.3075 55.8153 70.399 55.3744 71.3367C54.4847 73.2309 52.8778 74.5262 50.4603 74.5262C48.4343 74.5261 46.6659 73.5755 45.7328 72.1658C44.8434 70.8228 45.2583 69.0559 46.0687 67.6649C47.0747 65.9387 48.2405 65.2108 50.4603 65.2108ZM4.65857 60.5525C5.90811 60.5527 6.98572 61.2915 7.4779 62.3563C7.85357 63.1666 7.72315 64.1234 7.33825 64.9275C6.81042 66.0298 5.92991 66.7633 4.65857 66.7635C3.68351 66.7635 2.81237 66.3125 2.24255 65.6092C1.3638 64.5239 1.65572 62.9097 2.40564 61.7313C2.92887 60.9084 3.57328 60.5525 4.65857 60.5525ZM25.6185 57.4471C27.3 57.4471 28.7315 58.5173 29.2718 60.0125C29.5729 60.8524 29.4458 61.7853 29.1058 62.6111C28.4646 64.1576 27.3233 65.2108 25.6185 65.2108C24.2103 65.2107 22.9763 64.4602 22.2963 63.3377C21.5728 62.1422 21.8936 60.6177 22.5394 59.3787C23.2459 58.0217 24.0753 57.4471 25.6185 57.4471ZM60.5531 54.3416C62.4687 54.3417 64.1126 55.3046 64.8285 56.6815C65.3191 57.627 65.1391 58.7796 64.6283 59.7127C63.8427 61.1456 62.5061 62.1052 60.5531 62.1053C59.0036 62.1053 57.6307 61.4751 56.7845 60.5047C55.6977 59.2611 56.092 57.3557 57.0375 56.0018C57.8479 54.8388 58.8297 54.3416 60.5531 54.3416ZM41.847 54.3416C43.283 54.3417 44.5357 54.9647 45.2064 55.8914C45.8569 56.7887 45.6725 58.0496 45.0424 58.9578C44.3701 59.925 43.3188 60.5524 41.847 60.5525C40.7913 60.5525 39.8324 60.2159 39.1322 59.6678C37.7833 58.612 38.0832 56.4446 39.2894 55.2274C39.8996 54.6125 40.6639 54.3416 41.847 54.3416ZM15.6381 52.5447C16.5277 52.6037 17.318 53.1409 17.8832 53.8318C18.7603 54.9062 19.0848 56.1574 18.4467 57.4383C17.9405 58.4535 16.9955 59.103 15.9554 59.2723C14.5767 59.4974 13.3045 58.5189 12.5375 57.3514C11.8916 56.3717 11.8207 55.5374 12.3812 54.4149C13.0085 53.1544 14.3154 52.4579 15.6381 52.5447Z" fill="#007BE5"/>
<path d="M28.9454 68.7039C29.7718 68.7039 30.4417 69.3989 30.4417 70.2562C30.4417 71.1135 29.7718 71.8085 28.9454 71.8085C28.1191 71.8085 27.4492 71.1135 27.4492 70.2562C27.4492 69.3989 28.1191 68.7039 28.9454 68.7039Z" fill="#1A1A1A"/>
<path d="M16.5248 68.7037C17.3511 68.7037 18.021 69.3987 18.021 70.2561C18.021 71.1134 17.3511 71.8084 16.5248 71.8084C15.6984 71.8084 15.0286 71.1134 15.0286 70.2561C15.0286 69.3987 15.6984 68.7037 16.5248 68.7037Z" fill="#1A1A1A"/>
<path d="M24.257 73.0187C22.9326 72.9147 21.2759 73.0079 19.9717 73.1336C19.2016 73.2097 18.6333 73.913 19.0945 74.5341C19.804 75.4952 21.1874 76.2621 22.2106 76.6907C22.5366 76.8288 22.9077 76.8351 23.2152 76.6612C24.0085 76.2125 24.6482 75.4315 25.1032 74.6878C25.5519 73.9549 25.1125 73.0839 24.257 73.0187Z" fill="#0768CF"/>
<path d="M32.4988 50.15C33.2214 50.1502 33.8969 50.5417 34.4093 50.9172C34.9695 51.3279 35.5596 51.8894 36.1439 52.5336C36.4635 52.886 36.7874 53.2732 37.1143 53.6844H40.2923C41.5295 53.6815 43.0206 53.4678 44.7167 53.2234L45.9797 53.0233C46.4473 52.9452 46.9583 52.8575 47.5036 52.7655C48.5834 52.5834 49.7797 52.3872 50.9697 52.2288C52.1571 52.0707 53.3589 51.9471 54.4495 51.9134C55.5026 51.8809 56.5403 51.9291 57.3819 52.1575C60.4042 52.8933 62.8891 54.2651 64.7963 56.1998L65.0252 56.4485C65.0946 56.5289 65.1572 56.6053 65.2117 56.6729L65.4983 57.0186L65.6029 57.1247C65.6996 57.2115 65.7694 57.2446 65.7985 57.2536H65.8C65.8072 57.2512 65.8214 57.2464 65.8425 57.2339C65.9392 57.1769 66.1642 56.9896 66.4535 56.4667C66.7381 55.9523 67.0466 55.1814 67.3481 54.0634C67.6267 53.0297 68.4239 52.29 69.3526 52.065C70.3251 51.8295 71.4159 52.1782 72.0242 53.2128V53.2143C73.3422 55.4588 74.3844 58.4967 73.3494 61.3778C73.0312 62.2637 72.6548 63.1776 72.3047 64.057C71.9493 64.95 71.6141 65.8251 71.3449 66.6922C70.8031 68.4377 70.5746 70.0305 70.9507 71.4972H70.9492C71.3286 72.976 71.573 74.5251 71.4935 75.9383C71.4148 77.3359 71.0079 78.7409 69.947 79.7501C68.7589 80.9249 66.8643 82.07 64.6841 83.004C62.7594 83.8284 60.5455 84.5173 58.2719 84.9265L57.2954 85.0842C55.509 85.3396 53.6076 84.7352 52.2949 83.6074C51.9795 83.3364 51.6926 83.0278 51.4473 82.6886C51.4237 82.6862 51.3998 82.6849 51.376 82.681L49.5323 82.3808H49.5293L49.4383 82.3671C49.3661 82.3556 46.7191 81.9258 44.1057 81.4892C42.1041 81.1535 39.9337 82.0738 37.8724 83.3754C36.4477 84.2759 34.7393 85.005 33.0689 85.1782C31.3743 85.3539 29.5965 84.9566 28.3443 83.4376C27.6983 82.6538 27.3036 81.8324 27.1571 80.9995C26.1454 81.0966 25.2448 81.1405 23.9851 81.1405C20.9416 81.1405 18.008 80.8659 15.4335 80.1853C14.3074 81.4122 12.4401 82.9603 10.5285 84.0092C9.4267 84.6137 8.2153 85.1072 7.0578 85.2268C5.86757 85.3496 4.60635 85.0783 3.71297 83.9941C1.95861 81.8655 2.47002 79.1685 3.53405 77.1846C4.08055 76.1658 4.8136 75.2384 5.61282 74.513C6.03932 74.1259 6.50784 73.7774 6.99715 73.5032C6.63765 72.4993 6.43432 71.3873 6.40733 70.1599C5.84207 70.4051 5.22279 70.4963 4.64091 70.4601C3.33693 70.3789 1.9355 69.6651 1.24907 68.307C0.689965 67.202 0.239283 65.8145 0.239258 64.7014C0.239258 61.7349 1.72181 57.9618 3.80698 55.1278C4.85901 53.6981 6.11831 52.432 7.50964 51.6147C8.91061 50.7918 10.5198 50.3874 12.163 50.8505C12.9911 51.0838 13.8915 51.4607 14.5617 51.6981C15.2996 51.9595 15.9308 52.1257 16.5449 52.1257H23.2573C24.5205 52.1256 25.8431 51.7216 27.2526 51.2372C28.8368 50.6927 31.0042 50.15 32.4988 50.15ZM8.06003 75.5774C7.78551 75.7392 7.48681 75.9578 7.1791 76.237C6.57533 76.7849 6.00581 77.5018 5.58553 78.2854C4.71588 79.9069 4.63588 81.4522 5.50971 82.5127C5.75674 82.8125 6.13495 82.9805 6.81823 82.9099C7.53392 82.8361 8.42997 82.5034 9.40797 81.9668C10.7274 81.2429 12.02 80.242 12.9711 79.3559C12.1717 79.0184 11.424 78.6299 10.7423 78.1762C9.66638 77.4601 8.76252 76.5944 8.06003 75.5774ZM9.29729 62.8319C9.29811 62.8275 9.30003 62.8244 9.30032 62.8228V62.8167C9.29967 62.821 9.2981 62.8264 9.29729 62.8319ZM2.56821 64.7014C2.56824 65.3053 2.8531 66.3182 3.32784 67.2563L3.4355 67.4337C3.72039 67.8299 4.22994 68.101 4.78495 68.1357C5.40568 68.1743 5.79542 67.9194 5.94791 67.5474C6.21507 66.8948 6.40693 66.1108 6.55592 65.3443C6.63762 64.5485 6.76067 63.7158 6.95166 62.7894C6.96331 62.7084 6.98257 62.5783 6.9926 62.5104C6.99637 62.4849 6.99922 62.458 7.0017 62.4422C7.00191 62.4408 7.00516 62.428 7.00776 62.4134C7.00846 62.4095 7.00953 62.3982 7.01231 62.3846C7.01363 62.3781 7.01723 62.3641 7.02141 62.3467C7.02198 62.3443 7.03564 62.2837 7.06235 62.2117C7.08458 62.1564 7.18857 61.9661 7.28523 61.8418C7.78534 61.5129 8.88501 61.7118 9.22148 62.1541C9.27055 62.2898 9.31046 62.486 9.31548 62.5423C9.31698 62.5712 9.31866 62.6178 9.31851 62.6363C9.31797 62.668 9.31607 62.6934 9.31548 62.7015C9.31467 62.7127 9.31294 62.7221 9.31245 62.7273C9.31083 62.7443 9.30963 62.7589 9.30942 62.7606C9.30889 62.7649 9.30824 62.7686 9.3079 62.7712C9.30716 62.777 9.30558 62.7842 9.30487 62.7894C9.29947 62.8291 9.28578 62.9314 9.25786 63.1275V63.1291C9.18514 63.6391 9.06736 64.619 8.85909 65.7006C8.72977 67.0326 8.7287 68.2924 8.7287 69.8778C8.72872 72.8557 9.96266 74.8593 12.0326 76.237C14.7503 78.0453 18.9874 78.8115 23.9851 78.8115C25.3626 78.8115 26.2613 78.7536 27.43 78.6266C27.557 78.3261 27.714 78.0419 27.894 77.7775C28.8943 76.3077 30.6472 75.3168 32.232 74.9451C32.8581 74.7983 33.4847 75.1878 33.6315 75.8139C33.7779 76.4399 33.3901 77.0667 32.7642 77.2134C31.6074 77.4846 30.4189 78.2072 29.8196 79.0875C29.5337 79.5076 29.4005 79.9315 29.4193 80.3551C29.4382 80.7762 29.6122 81.3146 30.1411 81.9562L30.2593 82.0897C30.8644 82.7298 31.7234 82.9761 32.8294 82.8614C34.0337 82.7365 35.399 82.1834 36.6291 81.4058L37.463 80.9024C39.477 79.7446 41.9491 78.7659 44.4908 79.1921L48.101 79.7895C48.598 79.8709 49.0162 79.9382 49.3139 79.9866C49.4627 80.0108 49.582 80.0307 49.6657 80.0443C49.6822 80.0469 49.6975 80.0496 49.7112 80.0518H49.7218L49.8143 80.067L50.5891 80.1928C50.5807 79.6723 50.6676 79.126 50.8772 78.5629C51.3545 77.2801 52.4858 76.4279 53.6959 76.1248L54.0492 76.0459C54.8663 75.8845 55.634 75.8721 56.3023 75.8336C56.7132 75.81 57.1323 75.7755 57.5881 75.7017C56.8545 75.1771 56.0234 74.5047 55.3107 73.6927C54.0615 72.2695 53.0494 70.2681 53.7004 67.8203C53.866 67.1993 54.5029 66.8303 55.1242 66.9955C55.7456 67.1607 56.1156 67.7978 55.9505 68.4192C55.5737 69.836 56.0968 71.0589 57.0604 72.1568C58.0407 73.2735 59.3468 74.1021 60.1975 74.6388L60.199 74.6404C60.417 74.7783 60.6813 74.9901 60.8586 75.309C61.0623 75.6755 61.1134 76.1255 60.9375 76.5539C60.7848 76.9252 60.5123 77.1574 60.3112 77.2908C60.0986 77.4317 59.8646 77.5294 59.6471 77.5986H59.6456C58.3461 78.0096 57.3169 78.1088 56.4357 78.1596C55.6456 78.205 55.0913 78.2129 54.5116 78.3279L54.2614 78.384C53.6739 78.5312 53.2277 78.9213 53.0591 79.3741C52.7123 80.3054 53.0204 81.1603 53.8126 81.841C54.6394 82.5512 55.8745 82.9356 56.9664 82.7796C59.3607 82.438 61.7402 81.7311 63.7668 80.863C65.8127 79.9866 67.4138 78.9829 68.3109 78.0959L68.3322 78.0747C68.8057 77.6305 69.1063 76.896 69.1676 75.8079C69.2285 74.7259 69.0432 73.4339 68.6945 72.0749C68.1609 69.9939 68.5287 67.9078 69.1206 66.0008C69.4183 65.0419 69.7825 64.0965 70.141 63.1958C70.505 62.2813 70.8564 61.4275 71.1569 60.5909C71.8421 58.6838 71.2077 56.4207 70.0167 54.3925V54.394C69.9944 54.3561 69.9768 54.3381 69.9697 54.3318C69.9659 54.3285 69.9631 54.3264 69.9621 54.3258H69.9606C69.9605 54.3257 69.957 54.3232 69.9485 54.3227C69.9393 54.3222 69.9234 54.3235 69.9015 54.3288C69.8291 54.3463 69.7268 54.4067 69.6558 54.5274L69.5967 54.6699C69.2656 55.8978 68.8971 56.8615 68.4914 57.5948C68.0904 58.3194 67.6115 58.8941 67.0252 59.2399C66.3984 59.6094 65.7268 59.6691 65.1117 59.4795C64.5396 59.303 64.0914 58.9359 63.7683 58.5773C63.6273 58.4209 63.494 58.2541 63.3998 58.1376C63.295 58.0079 63.2185 57.9158 63.1436 57.8404L63.1406 57.8374C61.5703 56.2433 59.4838 55.0669 56.8315 54.4213L56.8118 54.4167L56.7936 54.4107C56.2914 54.2698 55.5218 54.2101 54.5222 54.2408C53.5431 54.271 52.4278 54.3849 51.2775 54.538C50.1298 54.6908 48.9669 54.8813 47.8917 55.0626C47.3593 55.1524 46.8432 55.2403 46.3633 55.3204L45.0503 55.5281C43.4055 55.7651 41.7346 56.01 40.2984 56.0133H38.7958C39.0927 56.4644 39.3833 56.9278 39.6631 57.3977C40.7539 59.2296 41.7148 61.2132 42.268 63.0078C42.5444 63.9047 42.7319 64.7927 42.7668 65.6127C42.8013 66.4227 42.6904 67.2621 42.2771 67.978L42.2755 67.9765C41.1156 69.9867 38.3099 70.9921 36.0029 70.0886C34.793 69.6147 33.7746 68.6396 33.1933 67.1501C32.6225 65.6875 32.4886 63.7763 32.8976 61.3854C33.0063 60.7517 33.6072 60.3263 34.241 60.4347C34.8747 60.5431 35.3013 61.1443 35.1932 61.7781C34.829 63.9073 34.9948 65.3587 35.363 66.3025C35.7207 67.2191 36.2791 67.6959 36.852 67.9204C38.1106 68.4133 39.689 67.8041 40.2605 66.8135L40.3393 66.6392C40.4106 66.435 40.4574 66.1351 40.4394 65.7112C40.4157 65.1556 40.2826 64.4751 40.0421 63.6946C39.5611 62.134 38.6957 60.3236 37.6631 58.5894C36.6322 56.858 35.466 55.2533 34.4184 54.0983C33.8927 53.5187 33.4205 53.0802 33.0325 52.7959C32.5972 52.4768 32.438 52.479 32.4988 52.479C31.3974 52.479 29.5241 52.9181 28.0092 53.4388C26.618 53.9169 24.9564 54.4546 23.2573 54.4546H16.5449C15.5272 54.4546 14.5943 54.1807 13.7838 53.8936C12.9062 53.5827 12.2733 53.3007 11.5307 53.0915C10.6673 52.8483 9.71626 53.0205 8.68927 53.6237C7.65301 54.2326 6.61425 55.2429 5.68257 56.5091C3.79978 59.0682 2.56821 62.3674 2.56821 64.7014Z" fill="#1A1A1A"/>
</svg>
