<svg width="75" height="86" viewBox="0 0 75 86" fill="none" xmlns="http://www.w3.org/2000/svg">
<path d="M7.13445 74.3292L6.69661 68.2569H2.51536L1.55273 60.7826L8.49454 52.3657H25.853L33.3304 51.1112L35.0616 53.2274L37.1934 54.4339H39.6062L51.1065 53.2274L58.5064 54.4339L63.5679 57.0516L66.5397 57.9025L69.839 53.6668L72.0996 57.2845L69.2816 68.2011V76.7715L67.6747 79.2853L65.2619 81.2151L59.4022 83.9493H53.6497L52.3052 82.6203L51.4 80.5429L47.0961 80.3301L39.6062 81.2151L30.9999 83.9493L29.7563 83.3143L27.6354 80.3053L13.2254 79.2853L7.13445 83.8904L3.14263 82.7196L3.81182 78.8723L7.13445 74.3292Z" fill="#0D99FF"/>
<path d="M34.4963 78.998C36.1359 78.2201 38.0784 80.1165 37.4993 81.8368C37.3688 82.2249 37.1207 82.6116 36.7327 83.04C36.1085 83.7309 35.3205 84.1435 34.5784 84.2382C33.411 84.3901 32.424 83.285 32.3928 82.1083C32.3742 81.377 32.6383 80.6239 33.2795 79.9159C33.6428 79.5123 34.0632 79.2044 34.4963 78.998ZM64.3069 73.7831C65.0382 72.9758 66.1473 72.6879 67.217 72.9208C68.4543 73.1911 69.2957 74.3174 69.7708 75.4911C70.2441 76.6616 70.1635 77.4705 69.3626 78.3554C68.4776 79.3335 67.0397 79.5477 65.7883 79.0028C65.0493 78.6799 64.4966 78.0385 64.1301 77.3212C63.4812 76.0466 63.4112 74.7737 64.3069 73.7831ZM50.4602 65.2109C52.8403 65.2109 54.8619 66.5209 55.5979 68.3466C55.9845 69.3076 55.8151 70.3991 55.3743 71.3368C54.4846 73.231 52.8777 74.5263 50.4602 74.5263C48.4341 74.5263 46.6658 73.5757 45.7327 72.1659C44.8432 70.8229 45.2572 69.056 46.0676 67.665C47.0737 65.9385 48.24 65.2109 50.4602 65.2109ZM4.65845 60.5527C5.9081 60.5527 6.98554 61.2915 7.47779 62.3564C7.85348 63.1667 7.72309 64.1234 7.33814 64.9277C6.81027 66.03 5.92998 66.7635 4.65845 66.7636C3.6834 66.7636 2.81225 66.3126 2.24244 65.6093C1.36387 64.5241 1.65572 62.9097 2.40552 61.7314C2.92876 60.9085 3.57316 60.5527 4.65845 60.5527ZM25.6184 57.4472C27.2999 57.4472 28.7314 58.5174 29.2717 60.0126C29.5729 60.8525 29.4457 61.7853 29.1057 62.6112C28.4645 64.1577 27.3232 65.2109 25.6184 65.2109C24.2103 65.2107 22.9761 64.4602 22.2961 63.3378C21.5728 62.1423 21.8944 60.6177 22.5403 59.3788C23.2467 58.0221 24.0754 57.4473 25.6184 57.4472ZM60.553 54.3417C62.4686 54.3418 64.1125 55.3047 64.8284 56.6816C65.319 57.6271 65.139 58.7797 64.6282 59.7128C63.8426 61.1457 62.506 62.1053 60.553 62.1054C59.0035 62.1054 57.6306 61.4751 56.7844 60.5048C55.6976 59.2612 56.0919 57.3558 57.0374 56.0019C57.8478 54.8389 58.8296 54.3417 60.553 54.3417ZM41.8469 54.3417C43.2829 54.3418 44.5356 54.9648 45.2063 55.8915C45.8568 56.7889 45.6725 58.0497 45.0422 58.9579C44.37 59.9252 43.3187 60.5526 41.8469 60.5527C40.7913 60.5527 39.8333 60.2158 39.1331 59.6679C37.7839 58.6122 38.0831 56.4448 39.2893 55.2275C39.8995 54.6126 40.6638 54.3417 41.8469 54.3417ZM15.6379 52.5439C16.5276 52.6029 17.3179 53.141 17.8831 53.8319C18.7602 54.9063 19.0847 56.1575 18.4465 57.4384C17.9404 58.4536 16.9954 59.1031 15.9553 59.2724C14.5766 59.4975 13.3044 58.5191 12.5374 57.3515C11.8915 56.3718 11.8206 55.5375 12.3811 54.415C13.0084 53.1546 14.3154 52.4571 15.6379 52.5439Z" fill="#007BE5"/>
<path d="M28.9209 68.7041C29.7471 68.7041 30.4167 69.3987 30.4169 70.2559C30.4169 71.1132 29.7472 71.8086 28.9209 71.8086C28.0947 71.8084 27.4248 71.1131 27.4248 70.2559C27.425 69.3988 28.0948 68.7043 28.9209 68.7041ZM30.4589 64.5449C31.0703 64.2087 31.8048 64.3255 32.0996 64.8057C32.394 65.2857 32.1382 65.9469 31.5273 66.2832L31.5244 66.2852C31.5233 66.2858 31.5222 66.2871 31.5205 66.2881C31.5158 66.2907 31.5071 66.2939 31.498 66.2988C31.4798 66.3089 31.453 66.3241 31.4189 66.3428C31.3499 66.3807 31.2501 66.4355 31.1269 66.5029C30.8801 66.6381 30.5382 66.8247 30.1601 67.0303C29.4079 67.4393 28.495 67.9319 27.8955 68.2422L27.7783 68.2959C27.1863 68.5436 26.5326 68.3944 26.2744 67.9346C25.9993 67.4442 26.2783 66.7859 26.8984 66.4649L27.9326 65.919C28.3191 65.7116 28.7295 65.4891 29.1064 65.2842C29.4809 65.0805 29.8196 64.8958 30.0644 64.7617L30.4326 64.5586C30.4413 64.5538 30.4486 64.5503 30.4531 64.5479C30.4549 64.5468 30.456 64.5455 30.457 64.5449H30.4589Z" fill="#1A1A1A"/>
<path d="M16.5233 68.7037C15.697 68.7038 15.0272 69.3992 15.0272 70.2565C15.0272 71.1137 15.697 71.8082 16.5233 71.8082C17.3496 71.8082 18.0193 71.1138 18.0194 70.2565C18.0194 69.3991 17.3496 68.7037 16.5233 68.7037ZM14.9862 64.5446C14.3748 64.2083 13.6393 64.3252 13.3446 64.8053C13.05 65.2853 13.306 65.9474 13.9168 66.2838L13.9198 66.2848C13.9209 66.2854 13.9228 66.2867 13.9247 66.2877C13.9294 66.2903 13.9372 66.2945 13.9461 66.2994C13.9643 66.3094 13.9913 66.3238 14.0252 66.3424C14.0943 66.3803 14.194 66.4361 14.3172 66.5035C14.5641 66.6388 14.9068 66.8252 15.285 67.0309C16.0372 67.4399 16.9502 67.9316 17.5497 68.2418L17.6659 68.2965C18.2577 68.5442 18.9115 68.3949 19.1698 67.9352C19.4452 67.4447 19.1661 66.7865 18.5458 66.4655L17.5116 65.9196C17.1251 65.7123 16.7155 65.4897 16.3387 65.2848C15.9641 65.0811 15.6246 64.8964 15.3797 64.7623L15.0125 64.5592C15.004 64.5545 14.9966 64.5509 14.992 64.5485C14.9901 64.5474 14.9882 64.5461 14.9872 64.5455L14.9862 64.5446Z" fill="#1A1A1A"/>
<path d="M24.2565 73.0189C22.9321 72.9149 21.2754 73.0081 19.9712 73.1339C19.2011 73.21 18.6329 73.9133 19.094 74.5343C19.8035 75.4954 21.1869 76.2624 22.2101 76.6909C22.5362 76.8291 22.9072 76.8353 23.2147 76.6614C24.0081 76.2127 24.6477 75.4317 25.1027 74.688C25.5514 73.9552 25.112 73.0841 24.2565 73.0189Z" fill="#0768CF"/>
<path d="M32.4983 50.15C33.2209 50.1502 33.8964 50.5417 34.4088 50.9172C34.969 51.3279 35.5591 51.8894 36.1434 52.5336C36.463 52.886 36.7869 53.2732 37.1138 53.6844H40.2918C41.529 53.6815 43.0201 53.4678 44.7162 53.2234L45.9792 53.0233C46.4468 52.9452 46.9578 52.8575 47.5031 52.7655C48.5829 52.5834 49.7792 52.3872 50.9692 52.2288C52.1566 52.0707 53.3584 51.9471 54.449 51.9134C55.5021 51.8809 56.5398 51.9291 57.3814 52.1575C60.4037 52.8933 62.8886 54.2651 64.7958 56.1998L65.0247 56.4485C65.0941 56.5289 65.1567 56.6053 65.2112 56.6729L65.4978 57.0186L65.6024 57.1247C65.6991 57.2115 65.7689 57.2446 65.798 57.2536H65.7995C65.8067 57.2512 65.8209 57.2464 65.842 57.2339C65.9387 57.1769 66.1637 56.9896 66.453 56.4667C66.7376 55.9523 67.0461 55.1814 67.3476 54.0634C67.6262 53.0297 68.4234 52.29 69.3521 52.065C70.3246 51.8295 71.4154 52.1782 72.0237 53.2128V53.2143C73.3417 55.4588 74.3839 58.4967 73.3489 61.3778C73.0307 62.2637 72.6543 63.1776 72.3042 64.057C71.9488 64.95 71.6136 65.8251 71.3444 66.6922C70.8026 68.4377 70.5741 70.0305 70.9502 71.4972H70.9487C71.3281 72.976 71.5725 74.5251 71.493 75.9383C71.4143 77.3359 71.0074 78.7409 69.9465 79.7501C68.7584 80.9249 66.8638 82.07 64.6836 83.0039C62.7589 83.8284 60.545 84.5173 58.2714 84.9265L57.2949 85.0842C55.5085 85.3396 53.6071 84.7352 52.2944 83.6074C51.979 83.3364 51.6921 83.0278 51.4468 82.6886C51.4232 82.6862 51.3993 82.6849 51.3755 82.681L49.5318 82.3808H49.5288L49.4378 82.3671C49.3656 82.3556 46.7186 81.9258 44.1052 81.4892C42.1036 81.1535 39.9332 82.0738 37.8719 83.3754C36.4472 84.2759 34.7388 85.005 33.0684 85.1782C31.3738 85.3539 29.596 84.9565 28.3438 83.4376C27.6978 82.6538 27.3031 81.8324 27.1566 80.9995C26.1449 81.0966 25.2443 81.1405 23.9846 81.1405C20.9411 81.1405 18.0075 80.8659 15.433 80.1853C14.3069 81.4122 12.4396 82.9603 10.528 84.0092C9.42621 84.6137 8.21481 85.1072 7.05731 85.2268C5.86708 85.3496 4.60586 85.0783 3.71248 83.9941C1.95812 81.8655 2.46953 79.1685 3.53356 77.1846C4.08006 76.1658 4.81312 75.2384 5.61233 74.513C6.03883 74.1259 6.50735 73.7774 6.99666 73.5032C6.63716 72.4993 6.43383 71.3873 6.40684 70.1599C5.84158 70.4051 5.2223 70.4963 4.64042 70.4601C3.33644 70.3789 1.93501 69.665 1.24859 68.307C0.689477 67.202 0.238795 65.8145 0.23877 64.7014C0.23877 61.7349 1.72133 57.9618 3.80649 55.1278C4.85852 53.6981 6.11782 52.432 7.50915 51.6147C8.91012 50.7918 10.5193 50.3874 12.1625 50.8505C12.9906 51.0838 13.891 51.4607 14.5612 51.6981C15.2991 51.9595 15.9303 52.1257 16.5444 52.1257H23.2568C24.52 52.1256 25.8426 51.7216 27.2521 51.2372C28.8363 50.6927 31.0037 50.15 32.4983 50.15ZM8.05954 75.5774C7.78502 75.7392 7.48632 75.9578 7.17861 76.237C6.57484 76.7849 6.00532 77.5018 5.58504 78.2854C4.71539 79.9069 4.63539 81.4522 5.50923 82.5127C5.75625 82.8125 6.13446 82.9805 6.81774 82.9099C7.53344 82.8361 8.42948 82.5034 9.40748 81.9668C10.7269 81.2429 12.0195 80.242 12.9707 79.3559C12.1712 79.0184 11.4235 78.6299 10.7418 78.1762C9.66589 77.4601 8.76203 76.5944 8.05954 75.5774ZM9.2968 62.8319C9.29762 62.8275 9.29954 62.8244 9.29983 62.8228V62.8167C9.29918 62.821 9.29761 62.8264 9.2968 62.8319ZM2.56772 64.7014C2.56775 65.3053 2.85261 66.3182 3.32735 67.2563L3.43501 67.4337C3.7199 67.8299 4.22945 68.101 4.78446 68.1357C5.40519 68.1743 5.79493 67.9194 5.94742 67.5474C6.21458 66.8948 6.40644 66.1108 6.55543 65.3443C6.63713 64.5485 6.76018 63.7158 6.95117 62.7894C6.96282 62.7084 6.98208 62.5783 6.99211 62.5104C6.99588 62.4849 6.99873 62.458 7.00121 62.4422C7.00142 62.4408 7.00467 62.428 7.00727 62.4134C7.00797 62.4095 7.00904 62.3982 7.01182 62.3846C7.01314 62.3781 7.01674 62.3641 7.02092 62.3467C7.02149 62.3443 7.03515 62.2837 7.06186 62.2117C7.08409 62.1564 7.18808 61.9661 7.28474 61.8418C7.78485 61.5129 8.88452 61.7118 9.22099 62.1541C9.27006 62.2898 9.30997 62.486 9.31499 62.5423C9.31649 62.5712 9.31817 62.6178 9.31802 62.6363C9.31749 62.668 9.31558 62.6934 9.31499 62.7015C9.31418 62.7126 9.31245 62.7221 9.31196 62.7272C9.31034 62.7443 9.30914 62.7589 9.30893 62.7606C9.30841 62.7649 9.30775 62.7686 9.30741 62.7712C9.30667 62.777 9.30509 62.7842 9.30438 62.7894C9.29898 62.8291 9.28529 62.9313 9.25738 63.1275V63.1291C9.18465 63.6391 9.06687 64.619 8.8586 65.7006C8.72928 67.0326 8.72821 68.2924 8.72821 69.8778C8.72823 72.8557 9.96217 74.8593 12.0321 76.237C14.7498 78.0453 18.9869 78.8115 23.9846 78.8115C25.3621 78.8115 26.2608 78.7536 27.4295 78.6266C27.5565 78.3261 27.7135 78.0419 27.8935 77.7775C28.8938 76.3077 30.6467 75.3167 32.2315 74.9451C32.8576 74.7983 33.4842 75.1878 33.631 75.8139C33.7774 76.4399 33.3896 77.0667 32.7637 77.2134C31.6069 77.4846 30.4184 78.2072 29.8191 79.0875C29.5332 79.5076 29.4 79.9315 29.4188 80.3551C29.4377 80.7762 29.6117 81.3146 30.1406 81.9562L30.2588 82.0897C30.8639 82.7298 31.7229 82.9761 32.8289 82.8614C34.0332 82.7365 35.3985 82.1834 36.6286 81.4058L37.4625 80.9024C39.4766 79.7446 41.9486 78.7659 44.4903 79.1921L48.1005 79.7895C48.5975 79.8709 49.0157 79.9382 49.3134 79.9866C49.4622 80.0108 49.5815 80.0307 49.6652 80.0442C49.6817 80.0469 49.697 80.0496 49.7107 80.0518H49.7213L49.8138 80.067L50.5886 80.1928C50.5802 79.6723 50.6671 79.126 50.8767 78.5629C51.354 77.2801 52.4853 76.4278 53.6954 76.1248L54.0487 76.0459C54.8658 75.8845 55.6335 75.8721 56.3018 75.8336C56.7127 75.81 57.1318 75.7755 57.5876 75.7017C56.854 75.1771 56.0229 74.5047 55.3102 73.6927C54.061 72.2695 53.0489 70.2681 53.6999 67.8203C53.8655 67.1993 54.5025 66.8303 55.1237 66.9955C55.7451 67.1607 56.1151 67.7978 55.95 68.4192C55.5732 69.836 56.0963 71.0589 57.0599 72.1568C58.0402 73.2735 59.3463 74.1021 60.197 74.6388L60.1985 74.6404C60.4165 74.7783 60.6808 74.9901 60.8581 75.309C61.0618 75.6755 61.113 76.1255 60.937 76.5539C60.7843 76.9252 60.5118 77.1574 60.3107 77.2908C60.0981 77.4317 59.8642 77.5294 59.6466 77.5985H59.6451C58.3456 78.0096 57.3164 78.1088 56.4352 78.1596C55.6451 78.205 55.0908 78.2129 54.5111 78.3279L54.2609 78.384C53.6734 78.5312 53.2272 78.9213 53.0586 79.3741C52.7118 80.3054 53.0199 81.1603 53.8121 81.841C54.6389 82.5512 55.874 82.9356 56.9659 82.7795C59.3602 82.438 61.7397 81.7311 63.7663 80.863C65.8122 79.9866 67.4133 78.9829 68.3104 78.0959L68.3317 78.0746C68.8052 77.6305 69.1058 76.896 69.1671 75.8079C69.228 74.7259 69.0427 73.4339 68.694 72.0749C68.1604 69.9939 68.5282 67.9078 69.1201 66.0008C69.4178 65.0419 69.782 64.0965 70.1405 63.1958C70.5045 62.2813 70.8559 61.4275 71.1564 60.5909C71.8416 58.6838 71.2072 56.4207 70.0162 54.3925V54.394C69.9939 54.3561 69.9763 54.3381 69.9692 54.3318C69.9654 54.3285 69.9626 54.3264 69.9616 54.3258H69.9601C69.96 54.3257 69.9565 54.3232 69.948 54.3227C69.9388 54.3222 69.9229 54.3235 69.901 54.3288C69.8286 54.3463 69.7263 54.4067 69.6553 54.5274L69.5962 54.6699C69.2651 55.8978 68.8966 56.8615 68.4909 57.5948C68.0899 58.3194 67.611 58.8941 67.0247 59.2399C66.3979 59.6094 65.7263 59.6691 65.1112 59.4795C64.5391 59.303 64.0909 58.9359 63.7678 58.5773C63.6268 58.4209 63.4935 58.2541 63.3993 58.1376C63.2945 58.0079 63.218 57.9158 63.1431 57.8404L63.1401 57.8374C61.5698 56.2433 59.4833 55.0669 56.831 54.4213L56.8113 54.4167L56.7931 54.4107C56.2909 54.2698 55.5213 54.2101 54.5217 54.2408C53.5426 54.271 52.4273 54.3849 51.277 54.538C50.1293 54.6908 48.9664 54.8813 47.8912 55.0626C47.3588 55.1524 46.8427 55.2403 46.3628 55.3204L45.0498 55.5281C43.405 55.7651 41.7341 56.01 40.2979 56.0133H38.7953C39.0922 56.4644 39.3828 56.9278 39.6626 57.3977C40.7534 59.2296 41.7143 61.2132 42.2675 63.0078C42.5439 63.9047 42.7314 64.7927 42.7663 65.6127C42.8008 66.4227 42.6899 67.2621 42.2766 67.978L42.2751 67.9765C41.1151 69.9867 38.3094 70.9921 36.0024 70.0886C34.7925 69.6147 33.7741 68.6396 33.1928 67.1501C32.622 65.6875 32.4881 63.7763 32.8971 61.3854C33.0058 60.7517 33.6067 60.3263 34.2405 60.4347C34.8742 60.5431 35.3008 61.1443 35.1927 61.7781C34.8285 63.9073 34.9943 65.3587 35.3625 66.3025C35.7202 67.2191 36.2786 67.6959 36.8515 67.9204C38.1101 68.4133 39.6885 67.8041 40.26 66.8135L40.3388 66.6392C40.4101 66.435 40.4569 66.1351 40.4389 65.7112C40.4152 65.1556 40.2822 64.4751 40.0416 63.6946C39.5606 62.134 38.6952 60.3236 37.6626 58.5894C36.6317 56.858 35.4655 55.2533 34.4179 54.0983C33.8922 53.5187 33.42 53.0802 33.032 52.7959C32.5967 52.4768 32.4375 52.479 32.4983 52.479C31.3969 52.479 29.5236 52.9181 28.0087 53.4388C26.6175 53.9169 24.9559 54.4546 23.2568 54.4546H16.5444C15.5268 54.4546 14.5938 54.1807 13.7834 53.8936C12.9057 53.5827 12.2728 53.3007 11.5302 53.0915C10.6668 52.8483 9.71577 53.0205 8.68878 53.6237C7.65253 54.2326 6.61376 55.2429 5.68208 56.5091C3.79929 59.0682 2.56772 62.3674 2.56772 64.7014Z" fill="#1A1A1A"/>
</svg>
