<svg width="75" height="86" viewBox="0 0 75 86" fill="none" xmlns="http://www.w3.org/2000/svg">
<path d="M6.81926 63.1194L7.60024 57.2536L8.53958 50.6269L13.1975 51.4032L14.7501 52.9559L17.77 53.195L24.9571 52.3333L27.9475 50.6269H31.829L34.0726 49.6022L36.2975 54.4014H38.7103L50.2107 53.195L57.6105 54.4014L63.6704 58.786L66.7633 45.969L69.8685 37.4296L69.3903 47.6319V54.4014L65.9869 63.8243L68.3858 76.7406L66.7788 79.2543L64.366 81.1843L58.5064 83.9185H52.7539L50.5041 83.1406V80.512L46.2018 80.2993L38.7103 81.1843L30.1041 83.9185L27.0858 82.9838L26.3095 80.512L24.9571 80.2993L12.3295 79.2543L6.24012 83.8594L2.24677 82.6888L1.55273 77.5651L6.24012 74.2983L5.72311 67.1453L6.81926 63.1194Z" fill="#D7F4B7"/>
<path d="M27.3691 69.4027C28.1953 69.4027 28.865 70.0973 28.8652 70.9545C28.8652 71.8118 28.1954 72.5072 27.3691 72.5072C26.5429 72.507 25.873 71.8117 25.873 70.9545C25.8732 70.0975 26.543 69.4029 27.3691 69.4027ZM28.9072 65.2435C29.5186 64.9073 30.2531 65.0241 30.5478 65.5043C30.8422 65.9843 30.5865 66.6455 29.9755 66.9818L29.9726 66.9838C29.9716 66.9844 29.9704 66.9857 29.9687 66.9867C29.964 66.9893 29.9553 66.9925 29.9462 66.9975C29.928 67.0075 29.9013 67.0227 29.8671 67.0414C29.7981 67.0793 29.6983 67.1341 29.5751 67.2016C29.3283 67.3367 28.9864 67.5233 28.6084 67.7289C27.8561 68.1379 26.9432 68.6305 26.3437 68.9408L26.2265 68.9945C25.6346 69.2422 24.9808 69.093 24.7226 68.6332C24.4476 68.1428 24.7266 67.4845 25.3466 67.1635L26.3808 66.6176C26.7674 66.4102 27.1777 66.1877 27.5546 65.9828C27.9292 65.7792 28.2678 65.5944 28.5126 65.4603L28.8808 65.2572C28.8895 65.2524 28.8969 65.2489 28.9013 65.2465C28.9031 65.2454 28.9042 65.2441 28.9052 65.2435H28.9072Z" fill="#1A1A1A"/>
<path d="M14.9715 69.4023C14.1452 69.4024 13.4754 70.0978 13.4754 70.9551C13.4755 71.8123 14.1453 72.5068 14.9715 72.5068C15.7978 72.5068 16.4676 71.8124 16.4676 70.9551C16.4676 70.0978 15.7979 69.4023 14.9715 69.4023ZM13.4344 65.2432C12.823 64.9069 12.0875 65.0238 11.7928 65.5039C11.4983 65.9839 11.7542 66.6461 12.3651 66.9824L12.368 66.9834C12.3691 66.984 12.371 66.9853 12.3729 66.9863C12.3776 66.9889 12.3854 66.9931 12.3944 66.9981C12.4126 67.008 12.4395 67.0224 12.4735 67.041C12.5425 67.0789 12.6422 67.1347 12.7655 67.2022C13.0124 67.3374 13.355 67.5238 13.7333 67.7295C14.4855 68.1385 15.3985 68.6302 15.9979 68.9404L16.1141 68.9951C16.706 69.2428 17.3597 69.0935 17.618 68.6338C17.8934 68.1433 17.6143 67.4851 16.994 67.1641L15.9598 66.6182C15.5734 66.4109 15.1638 66.1883 14.787 65.9834C14.4123 65.7797 14.0729 65.5951 13.828 65.4609L13.4608 65.2578C13.4522 65.2531 13.4448 65.2495 13.4403 65.2471C13.4384 65.246 13.4365 65.2447 13.4354 65.2441L13.4344 65.2432Z" fill="#1A1A1A"/>
<path d="M23.0087 72.2146C21.616 72.0127 19.7606 72.1525 18.343 72.3466C17.6055 72.4459 17.0544 73.1089 17.3292 73.8014C17.9083 75.2624 19.3849 76.4501 20.509 77.124C20.9158 77.3662 21.4281 77.374 21.7883 77.0665C22.7059 76.284 23.4062 74.9053 23.8394 73.7641C24.1033 73.07 23.7415 72.3217 23.0087 72.2146Z" fill="#1A1A1A"/>
<path d="M67.329 39.4311C68.0142 39.2373 68.7212 39.4063 69.2652 39.8845C69.7739 40.3316 70.0778 40.9856 70.2326 41.7085C70.8135 44.4224 70.9442 47.8613 70.6283 51.2912C70.3125 54.7202 69.5423 58.2278 68.2645 61.0649C67.1455 63.5512 66.6778 66.3753 67.5564 68.6521C68.2758 70.517 68.9205 72.6159 69.1227 74.523C69.3179 76.3653 69.1371 78.3912 67.7535 79.6904L67.752 79.6888C66.5621 80.8561 64.6775 81.9929 62.5104 82.9215C60.5859 83.746 58.3725 84.4372 56.0997 84.8471L55.1217 85.0048C53.3357 85.2591 51.4342 84.6539 50.1211 83.5265C49.8051 83.2551 49.5177 82.946 49.272 82.6061C49.2495 82.6038 49.2265 82.6037 49.2038 82.6L47.2661 82.2862L47.0902 82.2574L47.0856 82.2543C46.4437 82.1505 44.1751 81.7846 41.9304 81.4083C40.1793 81.1147 38.3008 81.7816 36.4765 82.826L35.6986 83.2945C34.2738 84.1952 32.5643 84.924 30.8937 85.0973C29.1989 85.2729 27.4212 84.876 26.1691 83.3566C25.5231 82.5726 25.1283 81.7515 24.9819 80.9185C23.9709 81.0155 23.0703 81.0595 21.8114 81.0595C18.7658 81.0595 15.8316 80.7844 13.2568 80.1028C12.1306 81.3296 10.266 82.8794 8.35475 83.9283C7.25274 84.533 6.04024 85.0261 4.88255 85.1458C3.69261 85.2688 2.43123 84.9984 1.53772 83.9146C-0.216746 81.786 0.294789 79.0877 1.35881 77.1037C1.90539 76.0846 2.63965 75.1575 3.43909 74.432C3.86577 74.0449 4.33382 73.6964 4.82342 73.4222C4.43629 72.3419 4.2245 71.1361 4.2245 69.7969C4.2245 67.3082 4.22541 65.4165 4.76883 62.7539C4.98458 61.1127 5.60313 57.322 6.4928 53.9795C6.71641 53.14 7.10996 52.2709 7.76189 51.5535L7.76644 51.5474C7.928 51.3719 8.09006 51.2109 8.25164 51.0743L8.25316 51.0728C9.46202 50.0561 11.02 49.9111 12.3849 50.1191C13.5897 50.3028 14.7846 50.7768 15.7677 51.3655L16.1755 51.6247L16.1801 51.6278C16.2808 51.6963 16.385 51.7728 16.4924 51.8582L16.4939 51.8597C16.6782 52.007 16.8195 52.0431 16.8957 52.0432H22.9001C22.9745 52.0432 23.055 52.0194 23.126 51.972C24.976 50.729 26.0833 50.0725 27.003 49.7901C27.9908 49.4868 28.7834 49.6326 29.5488 49.6779C30.2611 49.7201 30.9523 49.9116 31.576 50.2146L31.9899 50.4057C32.1246 50.4648 32.2566 50.5196 32.3872 50.574C32.6372 50.6781 32.9131 50.7913 33.1635 50.9091C33.6886 51.1561 34.2462 51.4916 34.6828 52.116C34.9751 52.5343 35.1733 53.027 35.3135 53.6019H38.1186C39.3558 53.599 40.8468 53.3868 42.543 53.1425C43.2861 53.0352 44.2395 52.8684 45.3298 52.6846C46.4097 52.5025 47.606 52.3064 48.7959 52.1478C49.9834 51.9896 51.1853 51.8662 52.2757 51.8325C53.3454 51.7993 54.3992 51.8476 55.2476 52.0857H55.246C58.0991 52.7916 61.1445 54.6685 63.1366 56.5116C63.144 56.4891 63.1533 56.4666 63.1608 56.4433C63.3956 55.7185 63.6495 54.6892 63.9038 53.3699C64.411 50.7376 64.9028 47.048 65.2654 42.5409L65.2942 42.2816C65.466 40.9845 66.144 39.7665 67.329 39.4311ZM5.88479 75.4949C5.61012 75.6566 5.31186 75.8765 5.00385 76.156C4.40026 76.7037 3.83206 77.421 3.4118 78.2044C2.54202 79.8263 2.46033 81.3727 3.33447 82.4332C3.5813 82.7326 3.95963 82.8996 4.64299 82.829C5.35884 82.7549 6.25611 82.4227 7.23424 81.8859C8.55399 81.1616 9.84473 80.1581 10.7959 79.2719C10.2393 79.0368 9.70656 78.78 9.20536 78.4895L8.56702 78.0938C7.49127 77.378 6.58749 76.5125 5.88479 75.4949ZM67.8399 41.8328C67.7342 42.0035 67.6227 42.2966 67.5882 42.7274H67.5867C67.2195 47.2922 66.7182 51.0714 66.1903 53.8112C65.9269 55.1775 65.6533 56.3106 65.3776 57.162C65.2402 57.5861 65.0932 57.9663 64.9363 58.281C64.797 58.5606 64.5832 58.9278 64.2525 59.1817L64.251 59.1832C63.9035 59.4488 63.4695 59.5384 63.0532 59.4319C62.7152 59.3453 62.4798 59.1516 62.3648 59.0483C62.2384 58.9345 62.1307 58.8103 62.0691 58.7389C61.9884 58.6453 61.9629 58.6148 61.9402 58.5919L61.9387 58.5903C60.2123 56.8511 57.2539 54.9726 54.6562 54.3388L54.6365 54.3343L54.6183 54.3282C54.1168 54.1874 53.3478 54.129 52.3485 54.1599C51.3696 54.1902 50.2542 54.3038 49.1037 54.4571C47.9559 54.61 46.792 54.8004 45.7165 54.9817C45.1845 55.0714 44.6692 55.1595 44.1896 55.2395L42.875 55.4472C41.2302 55.6841 39.5594 55.9275 38.1231 55.9309H35.6077C35.6419 56.5717 35.6577 57.3035 35.6577 58.1415C35.6577 58.7847 35.1364 59.306 34.4932 59.306C33.8504 59.3057 33.3288 58.7845 33.3288 58.1415C33.3288 56.5714 33.2734 55.4927 33.162 54.7315C33.0501 53.9672 32.8957 53.6248 32.7738 53.4503C32.6695 53.3011 32.5261 53.1833 32.1719 53.0166C31.9828 52.9277 31.775 52.8416 31.4926 52.724C31.2211 52.611 30.9052 52.4784 30.5586 52.3101C30.2834 52.1763 29.9929 52.0835 29.7019 52.0356L29.4108 52.0023C28.3401 51.9389 28.1551 51.8737 27.6868 52.0174C27.1507 52.1821 26.3231 52.6296 24.4224 53.9067L24.4208 53.9082C23.9763 54.2054 23.4467 54.3722 22.9001 54.3722H16.8957C16.1436 54.372 15.5054 54.0513 15.0414 53.6808L14.8761 53.5579L14.5638 53.3593C13.8119 52.9102 12.904 52.5549 12.0347 52.4223C11.0297 52.2691 10.2532 52.4339 9.75272 52.8544C9.69466 52.9036 9.60924 52.9861 9.48586 53.1197L9.36305 53.2653C9.08643 53.6192 8.87875 54.0685 8.7429 54.5784C7.88432 57.8042 7.28208 61.5042 7.07655 63.0739L7.072 63.1163L7.06291 63.1573C6.55816 65.6013 6.55345 67.295 6.55345 69.7969C6.55345 72.773 7.78902 74.7783 9.85734 76.1545C12.5768 77.9633 16.8127 78.7305 21.8114 78.7306C23.1881 78.7306 24.087 78.674 25.2548 78.5471C25.3818 78.246 25.5385 77.9615 25.7187 77.6965C26.7191 76.2261 28.4733 75.2342 30.0582 74.8626C30.6841 74.7163 31.311 75.1056 31.4577 75.7315C31.6044 76.3575 31.215 76.9842 30.5889 77.1309C29.432 77.4022 28.2435 78.1259 27.6444 79.0065C27.3585 79.4267 27.2266 79.8502 27.2456 80.2741C27.2645 80.6955 27.4372 81.2334 27.9658 81.8753C28.5752 82.6147 29.4741 82.9043 30.6541 82.782C31.8585 82.6571 33.2237 82.104 34.4538 81.3264V81.3249C36.5983 79.9701 39.4108 78.6241 42.3155 79.1112C43.619 79.3297 44.931 79.5459 45.9257 79.7086C46.4228 79.7898 46.841 79.8573 47.1387 79.9057C47.2875 79.9298 47.4068 79.9482 47.4905 79.9618C47.5323 79.9685 47.5655 79.9746 47.589 79.9784C47.5973 79.9798 47.6044 79.9805 47.6102 79.9815C47.6243 79.9835 47.6389 79.9863 47.6542 79.9891L48.4139 80.1119C48.4055 79.5914 48.4923 79.045 48.7019 78.4819L48.799 78.2469C49.3209 77.0952 50.3862 76.328 51.5206 76.0438C52.4704 75.8055 53.3634 75.7966 54.1271 75.7527C54.5383 75.729 54.9581 75.6933 55.4143 75.6193C54.681 75.0944 53.8497 74.4221 53.1369 73.6102C51.8879 72.1874 50.8742 70.188 51.5252 67.7409C51.6905 67.1196 52.3277 66.7496 52.9489 66.9145C53.5704 67.0799 53.9406 67.7183 53.7753 68.3398C53.3989 69.7551 53.9227 70.9763 54.8867 72.0743C55.8664 73.1902 57.1698 74.0197 58.0208 74.5579C58.2393 74.6955 58.5055 74.9075 58.6834 75.2265C58.8874 75.593 58.939 76.0433 58.7637 76.4714C58.6115 76.8431 58.3391 77.076 58.1375 77.2098C58.0311 77.2803 57.919 77.3396 57.807 77.3902L57.4734 77.5176C56.1729 77.9295 55.1432 78.0279 54.262 78.0786C53.3596 78.1305 52.7646 78.1332 52.0877 78.303H52.0862C51.4987 78.4503 51.0538 78.8417 50.8853 79.2946C50.5387 80.2256 50.8448 81.0794 51.6374 81.76C52.4645 82.4703 53.7003 82.8539 54.7927 82.6986L55.6888 82.5545C57.7758 82.178 59.8195 81.5404 61.593 80.7805C63.6387 79.904 65.2392 78.9006 66.1372 78.0134L66.1584 77.9922C66.703 77.4809 66.9836 76.4464 66.8059 74.7686C66.6349 73.1559 66.0722 71.2756 65.3836 69.4906C64.188 66.3923 64.8976 62.8742 66.1417 60.1096C67.2829 57.5762 68.0083 54.3372 68.3085 51.0774C68.6086 47.8183 68.475 44.6251 67.9552 42.1967C67.9207 42.0356 67.8766 41.9185 67.8399 41.8328Z" fill="#1A1A1A"/>
<path d="M66.2753 33.5637C67.3303 33.4653 68.3403 33.8532 69.0561 34.5614C69.7367 34.4855 70.4424 34.6093 71.0803 34.9495L71.3881 35.133C72.4873 35.8701 73.032 37.1235 72.9195 38.355C73.4936 38.8101 73.9284 39.4434 74.1264 40.1912L74.2007 40.5414C74.3982 41.7919 73.9048 42.9883 73.0059 43.7513C73.0236 44.4902 72.811 45.2401 72.3433 45.8847C71.5707 46.9495 70.3104 47.4481 69.091 47.2993C68.3734 48.0567 67.3346 48.4822 66.242 48.3819L65.8887 48.3304C65.03 48.1634 64.3085 47.6928 63.8084 47.0537C62.8149 47.0394 61.8422 46.6052 61.1732 45.8013L60.9579 45.5162C60.4948 44.8299 60.3095 44.0377 60.3741 43.2722C59.5851 42.4477 59.2134 41.2548 59.4917 40.0608L59.5902 39.7181C59.8002 39.1068 60.1696 38.587 60.638 38.1913C60.6121 36.9978 61.1959 35.8212 62.2831 35.1451L62.5954 34.9723C63.0691 34.7406 63.575 34.6304 64.0768 34.6235C64.5565 34.1229 65.1889 33.7594 65.9205 33.6152L66.2753 33.5637Z" fill="#1A1A1A"/>
<path d="M9.97701 50.0806C10.4738 49.441 11.3092 49.1042 12.1538 49.2857C13.3276 49.5388 14.0748 50.6939 13.8217 51.8677L13.8032 51.9566C14.7317 51.6274 15.7985 51.9625 16.3559 52.8257C17.0078 53.8349 16.7186 55.1796 15.7094 55.8316C15.5356 55.9449 15.357 56.0562 15.1723 56.1695C16.2685 56.5111 16.916 57.6557 16.6303 58.7798C16.4021 59.6804 15.643 60.3049 14.7719 60.4058C15.1662 60.9166 15.3294 61.5969 15.1587 62.2691C14.8635 63.4333 13.6804 64.1362 12.5161 63.8414C12.4555 63.8243 12.393 63.809 12.3325 63.7935C12.5622 64.7018 12.1816 65.6909 11.3354 66.1939C10.303 66.8084 8.96916 66.4703 8.35592 65.438C8.28762 65.3247 8.22287 65.2109 8.15768 65.0992C8.10955 65.169 8.06127 65.2407 8.01315 65.3121C7.33776 66.304 5.98411 66.5601 4.99361 65.8834C4.13501 65.298 3.82761 64.2062 4.19869 63.2808L4.13131 63.2935C2.95156 63.5168 1.81499 62.7408 1.59127 61.5611C1.41273 60.6141 1.87713 59.6945 2.67818 59.2535L2.67526 59.2505C1.70956 58.5379 1.5047 57.1778 2.21725 56.2105C2.58988 55.7059 3.13967 55.4091 3.71725 55.3423C3.13812 54.5924 3.09893 53.5224 3.68893 52.7212C4.26807 51.9372 5.27323 51.6548 6.14889 51.9576C6.13802 51.8862 6.12655 51.8145 6.11568 51.7447C5.93575 50.5572 6.75401 49.4508 7.9399 49.272C8.74257 49.1494 9.50966 49.4845 9.97701 50.0806ZM29.393 49.2857C30.2376 49.1041 31.0726 49.441 31.5678 50.0806C32.0367 49.4844 32.8023 49.1494 33.6049 49.272C34.7926 49.4506 35.6095 50.557 35.4311 51.7447C35.4202 51.8145 35.4094 51.8862 35.3969 51.9576C36.2725 51.6549 37.2787 51.9373 37.8579 52.7212C38.4478 53.5224 38.4076 54.5924 37.8286 55.3423C38.4076 55.4092 38.957 55.706 39.3296 56.2105C40.0421 57.1777 39.8377 58.5379 38.8706 59.2505L38.8667 59.2535C39.6678 59.6944 40.1337 60.614 39.9536 61.5611C39.7313 62.7408 38.5934 63.5171 37.4135 63.2935L37.3481 63.2808C37.7176 64.2062 37.4118 65.298 36.5532 65.8834C35.5611 66.56 34.2086 66.3041 33.5317 65.3121C33.4836 65.2407 33.4357 65.169 33.3891 65.0992C33.3239 65.2109 33.2576 65.3248 33.1909 65.438C32.576 66.4704 31.2419 66.8087 30.2094 66.1939C29.3633 65.6909 28.9827 64.7017 29.2124 63.7935C29.152 63.809 29.0916 63.8243 29.0297 63.8414C27.867 64.1363 26.6839 63.4333 26.3872 62.2691C26.2164 61.5968 26.3811 60.9166 26.7739 60.4058C25.9029 60.3049 25.1437 59.6803 24.9155 58.7798C24.6298 57.6558 25.2781 56.5112 26.3725 56.1695C26.1895 56.0563 26.0091 55.9448 25.8354 55.8316C24.8279 55.1795 24.5395 53.8349 25.1899 52.8257C25.7489 51.9625 26.8157 51.6274 27.7426 51.9566L27.7241 51.8677C27.4726 50.6939 28.2192 49.5388 29.393 49.2857ZM66.3706 35.9C67.0009 35.7758 67.6145 36.186 67.7387 36.8179C67.8194 37.2261 67.8921 37.6622 67.9526 38.1216C68.1404 37.8702 68.3132 37.6234 68.4731 37.3843C68.8318 36.8505 69.5553 36.7089 70.0893 37.066C70.6233 37.4245 70.766 38.1481 70.4077 38.6822C70.105 39.1339 69.7617 39.6078 69.3706 40.0953C69.7585 40.0565 70.1573 40.0042 70.5669 39.939C71.2019 39.8397 71.7989 40.2727 71.8999 40.9078C72.0006 41.5427 71.567 42.1389 70.9321 42.2398C70.4664 42.3143 70.0116 42.3715 69.5708 42.4166C69.7741 42.5748 69.9834 42.7335 70.2006 42.8902C70.7207 43.269 70.8372 43.997 70.4585 44.5171C70.0812 45.0372 69.3536 45.1521 68.8335 44.775C68.5014 44.5344 68.1859 44.2924 67.8833 44.0503C67.832 44.4012 67.7695 44.7598 67.6997 45.1246C67.5754 45.7564 66.9653 46.168 66.3335 46.0455C65.7015 45.9228 65.2899 45.3106 65.4126 44.6802C65.4731 44.3698 65.5257 44.0656 65.5708 43.7691C65.2325 44.0236 64.8787 44.2781 64.5063 44.5279C63.9722 44.8881 63.2478 44.747 62.8891 44.2144C62.5292 43.6803 62.6711 42.9568 63.2036 42.5982C63.3898 42.4725 63.5716 42.345 63.7485 42.2193C63.3557 42.1494 62.9824 42.0721 62.6284 41.9898C62.0028 41.8437 61.6133 41.216 61.7592 40.5904C61.9053 39.9651 62.5323 39.5756 63.1577 39.7212C63.3967 39.7771 63.6485 39.8317 63.9077 39.8814C63.6237 39.4841 63.3679 39.099 63.1381 38.7281C62.7981 38.1816 62.9656 37.4621 63.5122 37.1236C64.0586 36.7837 64.7756 36.9514 65.1157 37.4976C65.2709 37.7476 65.4393 38.0061 65.6225 38.2701C65.5728 37.9192 65.5147 37.5849 65.4526 37.2681C65.3284 36.6362 65.7402 36.0242 66.3706 35.9Z" fill="#B3EE71"/>
<path d="M3.36934 58.3155C3.68918 58.5515 3.86729 58.934 3.84089 59.3299C3.81434 59.7256 3.5881 60.0806 3.24046 60.273L2.67945 59.2541L3.36934 58.3155Z" fill="#1A1A1A"/>
<path fill-rule="evenodd" clip-rule="evenodd" d="M9.97409 48.554C10.6756 48.1308 11.5333 47.9613 12.3986 48.1476C13.718 48.4307 14.6823 49.459 14.9549 50.6964C15.8955 50.8172 16.7786 51.3342 17.3339 52.193C18.144 53.4464 18.0067 55.0373 17.105 56.1291C17.7534 56.9212 18.0315 57.9997 17.76 59.0676C17.5424 59.925 17.0101 60.6181 16.3196 61.0584C16.4193 61.5388 16.4164 62.0493 16.2877 62.5565C15.9412 63.9212 14.7989 64.8705 13.4827 65.0416C13.2919 65.9107 12.7589 66.7027 11.9331 67.1946C10.673 67.9438 9.1212 67.7667 8.06362 66.8671C6.96563 67.5954 5.49221 67.6339 4.3367 66.8459C3.47905 66.2599 2.98197 65.3454 2.89476 64.3866C1.68272 64.0729 0.696303 63.0908 0.447543 61.7786C0.265826 60.8156 0.518407 59.8723 1.06465 59.148C0.434845 58.0367 0.472843 56.6143 1.27996 55.5196C1.53081 55.1797 1.83556 54.903 2.17151 54.6887C1.98614 53.7931 2.16612 52.8256 2.75223 52.0307C3.31432 51.2695 4.13785 50.8174 5.00688 50.704C5.29541 49.3933 6.36044 48.331 7.76644 48.1188C8.56236 47.9987 9.33417 48.1721 9.97409 48.554ZM10.899 50.7935C10.6787 51.0774 10.34 51.2435 9.98167 51.2453C9.66796 51.2453 9.36918 51.12 9.15077 50.8996L8.97337 50.701C8.75338 50.4851 8.43979 50.3732 8.11518 50.422C7.56399 50.5058 7.18531 51.0201 7.2676 51.5713L7.29944 51.7745L7.31309 51.9261C7.32217 52.2781 7.17194 52.6201 6.89764 52.851C6.58403 53.1132 6.15454 53.1922 5.76803 53.0587C5.36149 52.9177 4.89486 53.0506 4.6263 53.4135C4.35459 53.7831 4.36983 54.2818 4.63843 54.6296L3.71656 55.3407L3.71808 55.3422L4.63843 54.6296C4.89616 54.9618 4.95308 55.4074 4.79006 55.794C4.62704 56.1805 4.26898 56.4509 3.85151 56.4991C3.5814 56.5301 3.32793 56.6665 3.15403 56.9024C2.82339 57.351 2.91782 57.9833 3.36631 58.314L3.36934 58.3155L2.67793 59.2526L3.24046 60.273C2.86798 60.478 2.6548 60.9072 2.73707 61.345C2.84119 61.8925 3.36763 62.2519 3.91519 62.1486L3.9819 62.1365L4.13807 62.1183C4.50329 62.0993 4.86005 62.2532 5.09786 62.5398C5.36786 62.8688 5.43783 63.3176 5.2798 63.7134L5.22977 63.8771C5.14705 64.2653 5.30177 64.6838 5.64977 64.9203C6.11078 65.2351 6.73714 65.1157 7.05229 64.6549C7.09877 64.5868 7.1438 64.5184 7.19027 64.4502L7.28124 64.332C7.50935 64.071 7.84494 63.9239 8.19705 63.9347C8.54755 63.947 8.87172 64.116 9.08254 64.3911L9.16593 64.5154L9.35698 64.843C9.64269 65.321 10.2616 65.4772 10.7413 65.1932C11.1326 64.9603 11.3109 64.5011 11.2038 64.0788C11.103 63.6799 11.2199 63.2576 11.5131 62.9674C11.8048 62.6772 12.2272 62.5635 12.626 62.6656C12.6849 62.6811 12.7445 62.6971 12.8034 62.7126C13.3436 62.8492 13.8932 62.5234 14.03 61.9833C14.1092 61.6712 14.0344 61.3551 13.8496 61.116C13.5938 60.7838 13.5365 60.338 13.701 59.9516C13.8641 59.5651 14.2236 59.2961 14.6396 59.248C15.0459 59.2012 15.3967 58.9101 15.5023 58.4945C15.6358 57.9712 15.3338 57.4398 14.8261 57.2815C14.3901 57.1462 14.0738 56.7673 14.0179 56.3141C13.9621 55.8611 14.1746 55.4176 14.5638 55.1784C14.7392 55.0698 14.9116 54.9611 15.0778 54.8524C15.5466 54.5497 15.6806 53.9264 15.378 53.4575C15.1203 53.0586 14.6254 52.9006 14.1938 53.0542L14.0422 53.0966C13.6867 53.171 13.3124 53.0744 13.0354 52.8313C12.7171 52.5519 12.5754 52.1237 12.6654 51.7108L12.6836 51.6228C12.8011 51.0781 12.4535 50.5414 11.9088 50.425C11.5193 50.3414 11.1302 50.4939 10.899 50.7935Z" fill="#1A1A1A"/>
<path d="M32.4857 50.7995C32.2637 51.0818 31.9238 51.2453 31.5654 51.2453C31.2069 51.2437 30.8684 51.0774 30.6496 50.7935L31.5684 50.0793L32.4857 50.7995Z" fill="#1A1A1A"/>
<path fill-rule="evenodd" clip-rule="evenodd" d="M29.1485 48.1476C30.0138 47.9616 30.8707 48.1303 31.5714 48.5525C32.2112 48.1707 32.9833 47.9989 33.7791 48.1188C35.1851 48.3308 36.2484 49.3934 36.5371 50.704C37.4071 50.8169 38.2322 51.2687 38.7948 52.0307C39.3809 52.8256 39.559 53.7931 39.374 54.6887C39.7105 54.9031 40.0165 55.1791 40.2671 55.5196C41.0742 56.6145 41.1105 58.0367 40.4809 59.148C41.028 59.8724 41.2823 60.8152 41.0995 61.7786C40.8518 63.0915 39.8642 64.0734 38.6508 64.3866C38.5638 65.3454 38.0675 66.26 37.2088 66.8459C36.0528 67.6339 34.5795 67.5964 33.4819 66.8671C32.4244 67.7662 30.8741 67.9437 29.6155 67.1946C28.7894 66.7027 28.2541 65.911 28.0629 65.0416C26.7476 64.8696 25.6069 63.9203 25.2593 62.5565C25.1305 62.0488 25.126 61.5376 25.226 61.0569C24.5366 60.6166 24.0055 59.9242 23.7871 59.0676C23.5156 57.9999 23.7924 56.9211 24.4406 56.1291C23.5402 55.0373 23.403 53.4461 24.2116 52.193C24.7674 51.3346 25.6507 50.8178 26.5906 50.6964C26.8625 49.4587 27.8288 48.4307 29.1485 48.1476ZM30.6496 50.7935C30.4167 50.4938 30.028 50.3412 29.6367 50.425C29.0923 50.5416 28.7461 51.0784 28.8619 51.6228L28.8816 51.7108L28.9044 51.8654C28.9335 52.228 28.7903 52.5867 28.5132 52.8313C28.2347 53.0744 27.8611 53.171 27.5049 53.0966L27.3533 53.0542L27.1895 53.0102C26.8031 52.9431 26.3959 53.1084 26.1691 53.4575C25.8665 53.9262 26.001 54.5495 26.4678 54.8524C26.6354 54.9611 26.8063 55.0698 26.9833 55.1784C27.3714 55.4175 27.5865 55.8608 27.5291 56.3141C27.4732 56.7675 27.1558 57.1464 26.7195 57.2815C26.2135 57.44 25.9128 57.9713 26.0447 58.4945C26.1504 58.9102 26.5009 59.2013 26.9075 59.248C27.3251 59.2961 27.6845 59.565 27.8475 59.9516C28.0106 60.3382 27.9521 60.7838 27.6959 61.116C27.5112 61.3551 27.4378 61.6712 27.517 61.9833C27.6554 62.5233 28.205 62.8492 28.7452 62.7126C28.8039 62.6972 28.8624 62.6811 28.9195 62.6656C29.3184 62.5632 29.7421 62.6772 30.034 62.9674C30.3259 63.2577 30.4427 63.6798 30.3418 64.0788C30.2362 64.5008 30.415 64.9602 30.8057 65.1932C31.2839 65.4773 31.9044 65.3212 32.1901 64.843C32.2553 64.7327 32.319 64.6241 32.3811 64.5154L32.4645 64.3911C32.6754 64.1161 32.9997 63.947 33.3515 63.9347C33.7019 63.924 34.0363 64.0714 34.2643 64.332L34.3553 64.4502L34.4947 64.6549C34.8084 65.1161 35.4377 65.2354 35.8973 64.9203C36.2452 64.6838 36.3999 64.2652 36.3173 63.8771L36.2672 63.7134L36.2187 63.5632C36.1308 63.2077 36.2144 62.8277 36.4507 62.5398C36.6873 62.2532 37.0449 62.0992 37.4105 62.1183L37.5667 62.1365L37.6319 62.1486C38.1798 62.2526 38.7074 61.8929 38.81 61.345C38.8938 60.9071 38.6792 60.478 38.3066 60.273L38.8676 59.2526L38.1762 58.3155L38.1792 58.314C38.6279 57.9833 38.7236 57.3511 38.393 56.9024C38.2207 56.6664 37.9672 56.5302 37.6955 56.4991C37.2794 56.4509 36.9185 56.1806 36.7555 55.794C36.5926 55.4075 36.6509 54.9617 36.9086 54.6296C37.1771 54.2818 37.1939 53.783 36.9207 53.4135C36.6537 53.0503 36.1857 52.9175 35.779 53.0587C35.3927 53.1919 34.9644 53.1129 34.6509 52.851C34.3373 52.5871 34.1839 52.1781 34.2491 51.7745C34.26 51.7063 34.2686 51.6379 34.2794 51.5713C34.3633 51.0201 33.983 50.5058 33.4319 50.422C33.0608 50.3661 32.7046 50.5201 32.4857 50.7995L31.5684 50.0793L30.6496 50.7935ZM38.8676 59.2526L38.3066 60.273C37.9593 60.0805 37.7327 59.7254 37.7061 59.3299C37.6798 58.9341 37.8566 58.5516 38.1762 58.3155L38.8676 59.2526Z" fill="#1A1A1A"/>
</svg>
