<svg width="75" height="86" viewBox="0 0 75 86" fill="none" xmlns="http://www.w3.org/2000/svg">
<path d="M7.71512 63.1501L2.4486 66.3361L1.55273 60.7824L8.49456 52.3655H25.853L29.7563 51.2368L34.1813 53.6667L37.1934 54.4337H39.6062L51.1065 53.2272L58.5064 54.4337L62.6069 56.1276L64.4343 56.671L68.3159 34.9342L70.6448 32.6052L72.9738 50.4605L69.2816 68.2009V76.7714L67.6747 79.2851L65.2618 81.215L59.4022 83.9491H53.6497L52.3051 82.6202L51.4 80.5427L47.0961 80.33L39.6062 81.215L30.9999 83.9491L29.1368 83.488L27.8667 80.33L13.2254 79.2851L7.13445 83.8902L3.14261 82.7195L3.81179 78.8721L7.13445 74.3291L6.61897 67.1761L7.71512 63.1501Z" fill="#2C2C2C"/>
<path d="M28.9218 68.7041C29.748 68.7041 30.4177 69.3987 30.4179 70.2559C30.4179 71.1132 29.7482 71.8086 28.9218 71.8086C28.0956 71.8084 27.4257 71.1131 27.4257 70.2559C27.4259 69.3988 28.0958 68.7043 28.9218 68.7041ZM30.4599 64.5449C31.0713 64.2087 31.8058 64.3255 32.1005 64.8057C32.395 65.2857 32.1392 65.9469 31.5283 66.2832L31.5253 66.2852C31.5243 66.2858 31.5232 66.2871 31.5214 66.2881C31.5167 66.2907 31.5081 66.2939 31.499 66.2988C31.4808 66.3089 31.454 66.3241 31.4199 66.3428C31.3508 66.3807 31.251 66.4355 31.1279 66.5029C30.881 66.6381 30.5392 66.8247 30.1611 67.0303C29.4088 67.4393 28.496 67.9319 27.8964 68.2422L27.7792 68.2959C27.1873 68.5436 26.5336 68.3944 26.2753 67.9346C26.0003 67.4442 26.2793 66.7859 26.8994 66.4649L27.9335 65.919C28.3201 65.7116 28.7305 65.4891 29.1074 65.2842C29.4819 65.0805 29.8205 64.8958 30.0654 64.7617L30.4335 64.5586C30.4423 64.5538 30.4496 64.5503 30.4541 64.5479C30.4558 64.5468 30.4569 64.5455 30.458 64.5449H30.4599Z" fill="#D9D9D9"/>
<path d="M16.5248 68.7037C15.6985 68.7038 15.0287 69.3992 15.0287 70.2565C15.0287 71.1137 15.6985 71.8082 16.5248 71.8082C17.3511 71.8082 18.0208 71.1138 18.0208 70.2565C18.0208 69.3991 17.3511 68.7037 16.5248 68.7037ZM14.9876 64.5446C14.3763 64.2083 13.6408 64.3252 13.346 64.8053C13.0515 65.2853 13.3074 65.9474 13.9183 66.2838L13.9212 66.2848C13.9224 66.2854 13.9242 66.2867 13.9261 66.2877C13.9308 66.2903 13.9387 66.2945 13.9476 66.2994C13.9658 66.3094 13.9927 66.3238 14.0267 66.3424C14.0957 66.3803 14.1954 66.4361 14.3187 66.5035C14.5656 66.6388 14.9083 66.8252 15.2865 67.0309C16.0387 67.4399 16.9517 67.9316 17.5511 68.2418L17.6673 68.2965C18.2592 68.5442 18.9129 68.3949 19.1712 67.9352C19.4466 67.4447 19.1675 66.7865 18.5472 66.4655L17.513 65.9196C17.1266 65.7123 16.717 65.4897 16.3402 65.2848C15.9655 65.0811 15.6261 64.8964 15.3812 64.7623L15.014 64.5592C15.0054 64.5545 14.998 64.5509 14.9935 64.5485C14.9916 64.5474 14.9897 64.5461 14.9886 64.5455L14.9876 64.5446Z" fill="#D9D9D9"/>
<path d="M24.257 73.0187C22.9326 72.9147 21.2759 73.0079 19.9717 73.1336C19.2016 73.2097 18.6333 73.913 19.0945 74.5341C19.804 75.4952 21.1874 76.2621 22.2106 76.6907C22.5366 76.8288 22.9077 76.8351 23.2152 76.6612C24.0085 76.2125 24.6482 75.4315 25.1032 74.6878C25.5519 73.9549 25.1125 73.0839 24.257 73.0187Z" fill="#DAAACE"/>
<path d="M69.5546 31.5064C71.1099 31.2697 72.1754 32.544 72.5295 34.04C73.3944 37.6941 73.9856 42.5055 74.0624 47.2829C74.139 52.0427 73.7071 56.8801 72.4597 60.5409V60.5424C71.8769 62.252 71.2873 64.2035 70.9526 66.1434C70.6159 68.0955 70.5527 69.9497 70.9496 71.4972C71.3289 72.9761 71.5734 74.5252 71.4939 75.9383C71.4152 77.3359 71.0082 78.7409 69.9473 79.7501C68.7592 80.925 66.8645 82.0688 64.6845 83.0025C62.485 83.9445 59.9082 84.7108 57.2958 85.0843C55.5095 85.3396 53.608 84.7351 52.2952 83.6075C51.9799 83.3365 51.6929 83.0278 51.4477 82.6886C51.424 82.6862 51.4002 82.6849 51.3764 82.681L49.5327 82.3808H49.516L49.4129 82.3626C49.4099 82.3622 49.3751 82.3566 49.2916 82.3429C49.208 82.3293 49.0889 82.3096 48.9398 82.2853C48.6417 82.2367 48.2232 82.1682 47.7253 82.0867L44.106 81.4878C42.1042 81.1535 39.9338 82.074 37.8728 83.3755C36.4476 84.2758 34.7395 85.005 33.0693 85.1783C31.3744 85.3541 29.5969 84.9557 28.3447 83.4361V83.4376C27.6983 82.6534 27.3037 81.8314 27.1575 80.998C26.1457 81.0951 25.2452 81.1405 23.9855 81.1405C20.942 81.1405 18.0083 80.866 15.4339 80.1853C14.3077 81.4122 12.4405 82.9603 10.5289 84.0093C9.42709 84.6138 8.21567 85.1072 7.05817 85.2268C5.94235 85.342 4.76368 85.1109 3.88468 84.1882L3.71334 83.9941C1.95888 81.8655 2.47037 79.1686 3.53443 77.1847C4.08094 76.1658 4.81397 75.2385 5.6132 74.513C6.03972 74.1259 6.5082 73.7775 6.99752 73.5032C6.61051 72.4228 6.40014 71.2171 6.40013 69.8779C6.40013 68.7111 6.40054 67.6756 6.45623 66.6301C6.38551 66.6796 6.31496 66.7295 6.24244 66.7757C5.57975 67.1972 4.76943 67.5172 3.868 67.4792C2.93975 67.44 2.06767 67.0268 1.30252 66.2617C0.725962 65.685 0.477801 64.9308 0.409454 64.195C0.34125 63.4607 0.441969 62.6638 0.641439 61.8706C1.04087 60.2825 1.88825 58.5095 2.9719 56.8837C4.05689 55.256 5.42595 53.7059 6.92171 52.5988C8.39654 51.5072 10.1459 50.7382 11.9314 50.984L12.2831 51.0416C13.0998 51.1965 13.8811 51.4811 14.5196 51.6921C15.3036 51.9511 15.9346 52.1257 16.5453 52.1257H23.2577C24.4525 52.1256 25.6559 51.6501 26.9831 51.0158L27.3652 50.8415C28.2831 50.4455 29.3838 50.1289 30.5341 50.1288C31.1192 50.1288 31.7653 50.3488 32.3461 50.6065C32.9621 50.8798 33.6493 51.2617 34.3611 51.7148C35.2249 52.2647 36.1523 52.9381 37.0707 53.6844H40.2927C41.5297 53.6816 43.0216 53.4678 44.7171 53.222L45.9801 53.0218C46.4476 52.9439 46.9587 52.8574 47.5039 52.7656C48.5837 52.5837 49.7801 52.3872 50.9701 52.2288C52.1574 52.0708 53.3593 51.9471 54.4498 51.9135C55.503 51.881 56.5407 51.9291 57.3822 52.1576C59.9852 52.7912 62.189 53.8976 63.9688 55.4281C64.0674 54.9933 64.176 54.4774 64.2857 53.8891C64.5639 52.3961 64.8658 50.4834 65.1803 48.3457C65.8099 44.0658 66.4769 38.953 67.0847 34.5798L67.1317 34.3008C67.4023 32.9163 68.2357 31.7072 69.5546 31.5064ZM8.05889 75.5759C7.78449 75.7377 7.48702 75.958 7.17947 76.237C6.5757 76.785 6.00619 77.5019 5.5859 78.2855C4.71622 79.907 4.63616 81.4522 5.51009 82.5127C5.75712 82.8126 6.13532 82.9805 6.81861 82.91C7.5343 82.8361 8.43038 82.5035 9.40835 81.9669C10.7278 81.2429 12.0188 80.2405 12.97 79.3544C12.1712 79.0171 11.4239 78.6296 10.7426 78.1763C9.66627 77.4599 8.76149 76.5937 8.05889 75.5759ZM8.72907 69.8779C8.72912 72.8543 9.96315 74.8594 12.033 76.237C14.7507 78.0453 18.9878 78.8116 23.9855 78.8116C25.363 78.8116 26.2616 78.7536 27.4304 78.6266C27.5573 78.3262 27.713 78.0419 27.8929 77.7775C28.8929 76.3073 30.6469 75.3161 32.2308 74.9437C32.8567 74.7967 33.4831 75.1851 33.6303 75.811C33.7775 76.437 33.3891 77.0632 32.763 77.2104C31.6068 77.4824 30.4192 78.2069 29.82 79.0875C29.5341 79.5079 29.4008 79.9315 29.4197 80.3551C29.4362 80.7237 29.5718 81.1812 29.9595 81.7197L30.1414 81.9563L30.2597 82.0897C30.8647 82.7298 31.7228 82.976 32.8282 82.8615C34.0324 82.7366 35.3983 82.1837 36.6294 81.4059L37.4634 80.9025C39.4774 79.7446 41.9498 78.766 44.4912 79.1907C46.7901 79.5761 49.1564 79.9611 49.7101 80.0519H49.7207L49.8147 80.067L50.5895 80.1929C50.5811 79.6722 50.6678 79.1248 50.8776 78.5614C51.3551 77.2792 52.4864 76.4278 53.6963 76.1248C54.6452 75.8874 55.539 75.8776 56.3027 75.8337C56.7141 75.81 57.1336 75.7743 57.59 75.7003C56.8563 75.1756 56.0239 74.5048 55.3111 73.6928C54.0618 72.2696 53.0483 70.2681 53.6993 67.8204C53.8647 67.199 54.5032 66.8302 55.1246 66.9955C55.7459 67.1608 56.116 67.7979 55.9509 68.4193C55.5742 69.8357 56.0975 71.0576 57.0608 72.1553C58.0412 73.2722 59.3471 74.1021 60.1979 74.6389H60.1964C60.415 74.7766 60.6811 74.988 60.859 75.3076C61.0632 75.6746 61.1134 76.1246 60.9378 76.5524C60.7854 76.9239 60.513 77.1571 60.3116 77.2908C60.099 77.4319 59.8654 77.5294 59.6475 77.5986H59.646C58.3465 78.0096 57.3173 78.1089 56.4361 78.1596C55.5334 78.2116 54.9385 78.2147 54.2618 78.384C53.6742 78.5312 53.228 78.9212 53.0594 79.3741C52.7127 80.3054 53.0207 81.1603 53.813 81.841C54.6398 82.5512 55.875 82.9357 56.9668 82.7796C59.3613 82.4373 61.7406 81.7294 63.7671 80.8616C65.8132 79.9853 67.4143 78.9829 68.3113 78.0959L68.3219 78.0838L68.3325 78.0747C68.8061 77.6306 69.1067 76.896 69.168 75.8079C69.2289 74.7259 69.0436 73.434 68.6949 72.0749C68.182 70.075 68.2955 67.8519 68.6585 65.7477C69.0237 63.6312 69.6565 61.5461 70.2551 59.7903L70.4583 59.1596C71.4298 55.9327 71.8035 51.6796 71.7335 47.3208C71.6589 42.6884 71.0839 38.0461 70.2627 34.5768C70.1542 34.1182 69.9978 33.913 69.92 33.8414C69.9072 33.8296 69.8956 33.8223 69.8882 33.8171C69.8587 33.8324 69.8 33.8724 69.7244 33.9718C69.6011 34.1341 69.4578 34.4311 69.3924 34.9012C68.7891 39.2427 68.116 44.3962 67.485 48.6854C67.1692 50.8318 66.8617 52.7795 66.5752 54.3167C66.4321 55.0846 66.2919 55.7614 66.1567 56.3151C66.0269 56.8467 65.8833 57.3383 65.7201 57.6903V57.6934C65.5904 57.9707 65.3301 58.3067 64.8755 58.4485C64.4551 58.5794 64.0926 58.4709 63.8975 58.3878C63.5395 58.2353 63.2594 57.9566 63.144 57.8405L63.1409 57.8374C61.5706 56.2433 59.4842 55.067 56.8318 54.4213L56.8121 54.4168L56.7939 54.4107C56.2917 54.2699 55.521 54.2101 54.5211 54.2409C53.5422 54.2711 52.4279 54.3851 51.2778 54.5381C50.13 54.6908 48.9659 54.88 47.8906 55.0612C47.3585 55.1508 46.8433 55.239 46.3637 55.3189L45.0506 55.5267C43.405 55.7653 41.7352 56.01 40.2987 56.0134H39.6377C40.7558 57.152 41.7602 58.3739 42.4397 59.569C43.2383 60.9736 43.8019 62.729 42.9294 64.2405C42.3291 65.2797 41.2808 66.0378 40.1395 66.5088C38.9839 66.9857 37.6316 67.2125 36.2883 67.1077C33.554 66.8945 30.7752 65.277 29.9186 61.5932C29.773 60.9669 30.1628 60.341 30.7889 60.1952C31.4153 60.0495 32.0412 60.4391 32.1869 61.0655C32.7742 63.5914 34.5634 64.6376 36.4687 64.7864C37.4454 64.8625 38.432 64.6938 39.251 64.3557C40.0838 64.012 40.6467 63.5363 40.9128 63.076C41.1225 62.7128 41.1348 61.985 40.4155 60.7198C39.7373 59.5269 38.5874 58.1893 37.2359 56.9171C35.8934 55.6532 34.4062 54.5049 33.1102 53.6799C32.4619 53.2672 31.8799 52.9476 31.4014 52.7353C30.8872 52.5071 30.6117 52.4578 30.5341 52.4578C29.6878 52.4578 28.792 52.7315 27.9899 53.1158L27.9884 53.1174C26.646 53.7589 25.0243 54.4546 23.2577 54.4547H16.5453C15.5245 54.4547 14.5783 54.1637 13.7888 53.9028C12.9444 53.6237 12.2885 53.3836 11.613 53.2902C10.6918 53.1637 9.55622 53.5458 8.30756 54.4698C7.07949 55.3788 5.88569 56.7113 4.90966 58.1755C3.93219 59.642 3.21931 61.1722 2.90064 62.4392C2.74118 63.0734 2.69179 63.5921 2.72779 63.9797C2.76362 64.3655 2.87341 64.5391 2.94916 64.615C3.37099 65.0369 3.71257 65.141 3.96656 65.1518C4.2469 65.1634 4.58922 65.0675 4.99305 64.8106C5.8293 64.2784 6.60854 63.2611 7.06727 62.4331H7.06879C7.21596 62.1681 7.46873 61.9546 7.79052 61.8691C8.09935 61.7871 8.37966 61.8464 8.58048 61.9389C8.92163 62.0961 9.34832 62.5402 9.24914 63.1716C9.24573 63.1958 9.2432 63.2133 9.24308 63.214L9.21275 63.3808C9.19877 63.4539 9.18041 63.5433 9.16272 63.634C8.73491 65.872 8.72907 67.5119 8.72907 69.8779Z" fill="#1A1A1A"/>
</svg>
