<svg width="75" height="86" viewBox="0 0 75 86" fill="none" xmlns="http://www.w3.org/2000/svg">
<path d="M7.71464 63.1501L2.44812 66.3361L1.55225 60.7824L8.49406 52.3655H25.8525L29.7558 51.2368L34.1808 53.6667L37.1929 54.4337H39.6057L51.106 53.2272L58.5059 54.4337L62.6064 56.1276L64.4338 56.671L68.3154 34.9342L70.6443 32.6052L72.9733 50.4605L69.2811 68.2009V76.7714L67.6742 79.2851L65.2614 81.215L59.4017 83.9491H53.6492L52.3047 82.6202L51.3995 80.5427L47.0956 80.33L39.6057 81.215L30.9995 83.9491L29.7558 83.4322L28.1845 80.33L13.2249 79.2851L7.13396 83.8902L3.14214 82.7195L3.81133 78.8721L7.13396 74.3291L6.61848 67.1761L7.71464 63.1501Z" fill="#FFD966"/>
<path d="M28.9204 68.7041C29.7466 68.7041 30.4163 69.3987 30.4165 70.2559C30.4165 71.1132 29.7467 71.8086 28.9204 71.8086C28.0942 71.8084 27.4243 71.1131 27.4243 70.2559C27.4245 69.3988 28.0943 68.7043 28.9204 68.7041ZM30.4584 64.5449C31.0698 64.2087 31.8044 64.3255 32.0991 64.8057C32.3935 65.2857 32.1377 65.9469 31.5268 66.2832L31.5239 66.2852C31.5228 66.2858 31.5217 66.2871 31.52 66.2881C31.5153 66.2907 31.5066 66.2939 31.4975 66.2988C31.4793 66.3089 31.4525 66.3241 31.4184 66.3428C31.3494 66.3807 31.2496 66.4355 31.1264 66.5029C30.8796 66.6381 30.5377 66.8247 30.1596 67.0303C29.4074 67.4393 28.4945 67.9319 27.895 68.2422L27.7778 68.2959C27.1858 68.5436 26.5321 68.3944 26.2739 67.9346C25.9989 67.4442 26.2778 66.7859 26.8979 66.4649L27.9321 65.919C28.3186 65.7116 28.729 65.4891 29.1059 65.2842C29.4804 65.0805 29.8191 64.8958 30.0639 64.7617L30.4321 64.5586C30.4408 64.5538 30.4481 64.5503 30.4526 64.5479C30.4544 64.5468 30.4555 64.5455 30.4565 64.5449H30.4584Z" fill="#1A1A1A"/>
<path d="M16.5233 68.7037C15.697 68.7038 15.0272 69.3992 15.0272 70.2565C15.0272 71.1137 15.697 71.8082 16.5233 71.8082C17.3496 71.8082 18.0193 71.1138 18.0194 70.2565C18.0194 69.3991 17.3496 68.7037 16.5233 68.7037ZM14.9862 64.5446C14.3748 64.2083 13.6393 64.3252 13.3446 64.8053C13.05 65.2853 13.306 65.9474 13.9168 66.2838L13.9198 66.2848C13.9209 66.2854 13.9228 66.2867 13.9247 66.2877C13.9294 66.2903 13.9372 66.2945 13.9461 66.2994C13.9643 66.3094 13.9913 66.3238 14.0252 66.3424C14.0943 66.3803 14.194 66.4361 14.3172 66.5035C14.5641 66.6388 14.9068 66.8252 15.285 67.0309C16.0372 67.4399 16.9502 67.9316 17.5497 68.2418L17.6659 68.2965C18.2577 68.5442 18.9115 68.3949 19.1698 67.9352C19.4452 67.4447 19.1661 66.7865 18.5458 66.4655L17.5116 65.9196C17.1251 65.7123 16.7155 65.4897 16.3387 65.2848C15.9641 65.0811 15.6246 64.8964 15.3797 64.7623L15.0125 64.5592C15.004 64.5545 14.9966 64.5509 14.992 64.5485C14.9901 64.5474 14.9882 64.5461 14.9872 64.5455L14.9862 64.5446Z" fill="#1A1A1A"/>
<path d="M24.257 73.0187C22.9326 72.9147 21.2759 73.0079 19.9717 73.1336C19.2016 73.2097 18.6333 73.913 19.0945 74.5341C19.804 75.4952 21.1874 76.2621 22.2106 76.6907C22.5367 76.8288 22.9078 76.8351 23.2152 76.6612C24.0086 76.2125 24.6482 75.4315 25.1032 74.6878C25.5519 73.9549 25.1125 73.0839 24.257 73.0187Z" fill="#FFAFA3"/>
<path d="M69.5546 31.5063C71.1098 31.2698 72.1754 32.544 72.5295 34.04C73.3944 37.6941 73.9855 42.5055 74.0624 47.2828C74.139 52.0427 73.7071 56.8801 72.4597 60.5408V60.5424C71.8769 62.2519 71.2872 64.2035 70.9526 66.1434C70.6158 68.0954 70.5527 69.9496 70.9496 71.4972C71.3289 72.976 71.5719 74.5252 71.4924 75.9383C71.4137 77.3358 71.0081 78.7409 69.9473 79.7501C68.7592 80.925 66.8644 82.0688 64.6844 83.0024C62.485 83.9444 59.9081 84.7108 57.2958 85.0842C55.5092 85.3396 53.6065 84.7353 52.2937 83.6074C51.9785 83.3366 51.6928 83.0276 51.4477 82.6886C51.424 82.6862 51.4001 82.6849 51.3764 82.681L49.5326 82.3808H49.516L49.4129 82.3626C49.4126 82.3626 49.3786 82.3571 49.2916 82.3429C49.208 82.3292 49.089 82.3096 48.9398 82.2853C48.6417 82.2367 48.2232 82.1682 47.7253 82.0866L44.106 81.4877C42.3544 81.1952 40.4741 81.8636 38.6506 82.9069L37.8727 83.3754C36.4476 84.2758 34.7394 85.0049 33.0693 85.1783C31.3743 85.354 29.5953 84.9556 28.3432 83.4361C27.6971 82.652 27.3021 81.8312 27.1559 80.998C26.1448 81.095 25.2446 81.1405 23.9855 81.1405C20.9421 81.1405 18.0083 80.8659 15.4339 80.1853C14.3077 81.4122 12.4405 82.9603 10.5288 84.0092C9.42683 84.6139 8.21437 85.1073 7.05664 85.2268C5.94106 85.3418 4.76347 85.1105 3.88466 84.1882L3.71332 83.9941C1.95886 81.8655 2.46884 79.1686 3.53289 77.1846C4.07946 76.1656 4.81376 75.2386 5.61317 74.513C6.03975 74.1259 6.50811 73.7774 6.9975 73.5032C6.61047 72.4228 6.40012 71.2171 6.4001 69.8779C6.4001 68.7111 6.40051 67.6755 6.4562 66.6301C6.38544 66.6796 6.31499 66.7295 6.24241 66.7756C5.57956 67.1973 4.76819 67.5173 3.86646 67.4792C2.93849 67.4397 2.06745 67.0266 1.3025 66.2616C0.725927 65.6849 0.47774 64.9308 0.409432 64.195C0.341286 63.4607 0.441941 62.6637 0.641417 61.8706C1.04087 60.2825 1.88827 58.5094 2.97188 56.8837C4.05682 55.256 5.42598 53.7059 6.92169 52.5988C8.39645 51.5072 10.1459 50.7382 11.9314 50.984L12.2831 51.0416C13.0995 51.1965 13.8797 51.4811 14.5181 51.6921C15.3024 51.9512 15.9344 52.1257 16.5453 52.1257H23.2577C24.4525 52.1255 25.6559 51.65 26.9831 51.0158L27.3652 50.8414C28.2831 50.4455 29.3838 50.1288 30.5341 50.1288C31.1192 50.1288 31.7652 50.3487 32.346 50.6064C32.9621 50.8798 33.6493 51.2617 34.3611 51.7148C35.2249 52.2647 36.1522 52.9381 37.0706 53.6844H40.2927C41.5297 53.6815 43.0216 53.4678 44.717 53.2219L45.9801 53.0218C46.4476 52.9439 46.9587 52.8574 47.5039 52.7656C48.5837 52.5836 49.78 52.3872 50.97 52.2288C52.1575 52.0708 53.3592 51.947 54.4498 51.9134C55.5025 51.881 56.5394 51.9293 57.3807 52.1575H57.3822C59.9848 52.7911 62.1876 53.8979 63.9673 55.4281C64.0658 54.9933 64.1745 54.4775 64.2842 53.8891C64.5624 52.3961 64.8657 50.4835 65.1803 48.3457C65.8099 44.0658 66.4769 38.953 67.0847 34.5798L67.1317 34.3008C67.4023 32.9163 68.2357 31.7072 69.5546 31.5063ZM8.05887 75.5759C7.78446 75.7376 7.48702 75.9579 7.17945 76.237C6.57571 76.7849 6.00616 77.5019 5.58588 78.2854C4.71617 79.907 4.63604 81.4522 5.51007 82.5127L5.60862 82.6188C5.85576 82.8511 6.22031 82.9717 6.81859 82.91C7.53428 82.836 8.43039 82.5035 9.40833 81.9669C10.7278 81.2428 12.0188 80.2405 12.97 79.3544C12.1712 79.0171 11.4239 78.6295 10.7426 78.1763C9.66629 77.4599 8.76146 76.5936 8.05887 75.5759ZM8.72905 69.8779C8.7291 72.8542 9.96313 74.8594 12.0329 76.237C14.7507 78.0452 18.9879 78.8116 23.9855 78.8116C25.3629 78.8115 26.2616 78.7536 27.4304 78.6266C27.5572 78.3262 27.713 78.0419 27.8928 77.7775C28.8929 76.3073 30.6469 75.316 32.2308 74.9436C32.8566 74.7968 33.4831 75.1851 33.6303 75.8109C33.7775 76.437 33.389 77.0632 32.763 77.2104C31.6066 77.4823 30.4176 78.2067 29.8185 79.0875C29.5327 79.5077 29.4008 79.9315 29.4197 80.3551C29.4362 80.7237 29.5717 81.1812 29.9595 81.7197L30.1414 81.9562L30.2582 82.0897C30.8633 82.7302 31.7223 82.9761 32.8282 82.8614C34.0324 82.7366 35.3982 82.1837 36.6294 81.4058L37.4633 80.9025C39.4772 79.7447 41.9486 78.7662 44.4896 79.1906H44.4911C46.7883 79.5758 49.1526 79.9607 49.7085 80.0518H49.7206L49.8147 80.067L50.5895 80.1929C50.581 79.6721 50.6678 79.1247 50.8775 78.5614C51.3551 77.2791 52.4864 76.4277 53.6962 76.1248L54.0495 76.0459C54.8663 75.8846 55.6331 75.8721 56.3011 75.8337C56.7129 75.81 57.1332 75.7743 57.5899 75.7002C56.8563 75.1756 56.0239 74.5048 55.311 73.6927C54.0618 72.2695 53.0482 70.2681 53.6993 67.8203C53.8647 67.199 54.5032 66.8302 55.1245 66.9955C55.7458 67.1609 56.1159 67.7979 55.9509 68.4192C55.5741 69.8358 56.0974 71.0575 57.0608 72.1553C58.0411 73.2721 59.3471 74.1021 60.1979 74.6389H60.1964C60.415 74.7765 60.6811 74.9879 60.859 75.3075C61.0632 75.6745 61.1133 76.1245 60.9378 76.5524C60.7854 76.9239 60.513 77.157 60.3116 77.2908C60.0989 77.432 59.8654 77.5293 59.6475 77.5986H59.646C58.3464 78.0096 57.3172 78.1088 56.4361 78.1596C55.6461 78.205 55.0916 78.213 54.512 78.3279L54.2618 78.384C53.6741 78.5312 53.2281 78.9212 53.0594 79.3741C52.7127 80.3053 53.0194 81.1603 53.8115 81.841C54.6381 82.5512 55.8734 82.9354 56.9653 82.7796C59.36 82.4372 61.7404 81.7295 63.7671 80.8615C65.8132 79.9852 67.4143 78.9829 68.3113 78.0959L68.3219 78.0838L68.3325 78.0747C68.806 77.6305 69.1067 76.896 69.168 75.8079C69.2289 74.7259 69.0421 73.4339 68.6934 72.0749C68.1806 70.075 68.2955 67.8518 68.6585 65.7476C69.0236 63.6311 69.6565 61.546 70.2551 59.7903L70.4583 59.1595C71.4297 55.9327 71.8035 51.6795 71.7334 47.3207C71.6589 42.6883 71.0839 38.0461 70.2627 34.5767C70.1539 34.1168 69.9961 33.9124 69.9185 33.8413C69.9058 33.8297 69.8955 33.8223 69.8882 33.8171C69.8588 33.8323 69.8001 33.8722 69.7244 33.9717C69.601 34.134 69.4578 34.431 69.3924 34.9012C68.7891 39.2427 68.116 44.3961 67.4849 48.6853C67.1691 50.8318 66.8602 52.7795 66.5737 54.3167C66.4306 55.0844 66.2919 55.7614 66.1567 56.3151C66.0269 56.8467 65.8833 57.3382 65.72 57.6903L65.7185 57.6933C65.5889 57.9706 65.3299 58.3067 64.8755 58.4484C64.4551 58.5793 64.0926 58.4708 63.8975 58.3878C63.5394 58.2353 63.2593 57.9565 63.1439 57.8404L63.1409 57.8374C61.5706 56.2433 59.4842 55.067 56.8318 54.4213L56.8121 54.4167L56.7924 54.4107C56.2902 54.2699 55.5206 54.2101 54.5211 54.2409C53.5422 54.2711 52.4279 54.385 51.2778 54.538C50.13 54.6908 48.9659 54.88 47.8905 55.0611C47.3585 55.1508 46.8432 55.239 46.3637 55.3189L45.0506 55.5266C43.405 55.7652 41.7352 56.01 40.2987 56.0133H39.6361C40.7545 57.1522 41.7601 58.3737 42.4397 59.5689C43.2382 60.9736 43.8019 62.729 42.9294 64.2405C42.3291 65.2796 41.2807 66.0377 40.1395 66.5088C38.9839 66.9857 37.6316 67.2124 36.2883 67.1077C33.5539 66.8945 30.7752 65.277 29.9185 61.5931C29.7729 60.9668 30.1626 60.3409 30.7889 60.1951C31.4153 60.0495 32.0412 60.439 32.1868 61.0655C32.7742 63.5914 34.5633 64.6376 36.4687 64.7863C37.4454 64.8625 38.4319 64.6937 39.251 64.3557C40.0837 64.012 40.6467 63.5363 40.9128 63.076L40.981 62.9213C41.1137 62.5213 41.0445 61.8262 40.4155 60.7198C39.7372 59.5268 38.586 58.1893 37.2344 56.917C35.8919 55.6534 34.4061 54.5048 33.1102 53.6798C32.4619 53.2672 31.8799 52.9476 31.4014 52.7352C30.8872 52.5071 30.6116 52.4578 30.5341 52.4578C29.6878 52.4578 28.792 52.7315 27.9899 53.1158L27.9884 53.1173C26.646 53.7588 25.0243 54.4545 23.2577 54.4546H16.5453C15.5243 54.4546 14.5769 54.1637 13.7872 53.9027C12.9432 53.6238 12.2882 53.3835 11.6129 53.2902V53.2917C10.6915 53.165 9.55507 53.5453 8.30602 54.4698C7.07809 55.3788 5.88557 56.7114 4.90964 58.1755C3.93221 59.642 3.21931 61.1721 2.90062 62.4392C2.74114 63.0734 2.69179 63.592 2.72777 63.9797C2.76357 64.3655 2.87344 64.5391 2.94914 64.615L3.10379 64.759C3.45468 65.0613 3.7429 65.1422 3.96502 65.1517C4.24537 65.1636 4.58758 65.0675 4.99151 64.8106C5.82789 64.2785 6.60844 63.2612 7.06725 62.4331H7.06877C7.21612 62.1678 7.46892 61.9544 7.7905 61.8691C8.09913 61.7872 8.37982 61.845 8.58046 61.9373C8.92098 62.0941 9.34846 62.5392 9.24912 63.1715C9.24571 63.1958 9.24318 63.2132 9.24306 63.214L9.21273 63.3808C9.19875 63.4538 9.18039 63.5433 9.1627 63.634C8.73488 65.872 8.72905 67.5119 8.72905 69.8779Z" fill="#1A1A1A"/>
</svg>
