<svg width="75" height="86" viewBox="0 0 75 86" fill="none" xmlns="http://www.w3.org/2000/svg">
<path d="M6.81926 63.1194L7.60024 57.2536L8.53958 50.6269L13.1975 51.4032L14.7501 52.9559L17.77 53.195L24.9571 52.3333L27.9475 50.6269H31.829L34.0726 49.6022L36.2975 54.4014H38.7103L50.2107 53.195L57.6105 54.4014L63.6704 58.786L66.7633 45.969L69.8685 37.4296L69.3903 47.6319V54.4014L65.9869 63.8243L68.3858 76.7406L66.7788 79.2543L64.366 81.1843L58.5064 83.9185H52.7539L50.5041 83.1406V80.512L46.2018 80.2993L38.7103 81.1843L30.1041 83.9185L27.0858 82.9838L26.3095 80.512L24.9571 80.2993L12.3295 79.2543L6.24012 83.8594L2.24677 82.6888L1.55273 77.5651L6.24012 74.2983L5.72311 67.1453L6.81926 63.1194Z" fill="#D7F4B7"/>
<path d="M28.5248 68.4412C29.0159 68.306 29.5464 68.5413 29.7823 69.0312C30.0182 69.5222 29.8806 70.1058 29.4798 70.4314L29.2924 70.5524L28.1747 71.1306L29.2119 71.8349L29.3845 71.9798C29.7456 72.3517 29.8186 72.9484 29.5291 73.4072C29.2394 73.8661 28.6822 74.0354 28.2092 73.8404L28.0136 73.7347L25.3836 71.9457C25.0564 71.723 24.8677 71.3364 24.8905 70.931C24.9137 70.5255 25.145 70.1624 25.4954 69.9811L28.3161 68.523L28.5248 68.4412Z" fill="#1A1A1A"/>
<path d="M13.8404 68.4412C13.3493 68.306 12.8188 68.5413 12.583 69.0312C12.347 69.5222 12.4847 70.1058 12.8854 70.4314L13.0728 70.5524L14.1905 71.1306L13.1533 71.8349L12.9807 71.9798C12.6196 72.3517 12.5466 72.9484 12.8361 73.4072C13.1258 73.8661 13.683 74.0354 14.156 73.8404L14.3516 73.7347L16.9816 71.9457C17.3088 71.723 17.4975 71.3364 17.4747 70.931C17.4515 70.5255 17.2203 70.1624 16.8698 69.9811L14.0492 68.523L13.8404 68.4412Z" fill="#1A1A1A"/>
<path d="M23.0087 72.2147C21.616 72.0128 19.7606 72.1526 18.343 72.3467C17.6055 72.4461 17.0544 73.1091 17.3292 73.8015C17.9083 75.2626 19.3849 76.4502 20.509 77.1241C20.9158 77.3663 21.4281 77.3741 21.7883 77.0667C22.7059 76.2841 23.4062 74.9054 23.8394 73.7642C24.1033 73.0702 23.7415 72.3218 23.0087 72.2147Z" fill="#1A1A1A"/>
<path d="M67.329 39.431C68.0142 39.2372 68.7212 39.4062 69.2652 39.8843C69.7739 40.3315 70.0778 40.9855 70.2326 41.7084C70.8135 44.4223 70.9442 47.8612 70.6283 51.291C70.3125 54.7201 69.5423 58.2277 68.2645 61.0647C67.1455 63.5511 66.6778 66.3751 67.5564 68.652C68.2758 70.5168 68.9205 72.6158 69.1227 74.5229C69.3179 76.3652 69.1371 78.3911 67.7535 79.6902L67.752 79.6887C66.5621 80.856 64.6775 81.9928 62.5104 82.9214C60.5859 83.7459 58.3725 84.4371 56.0997 84.847L55.1217 85.0047C53.3357 85.259 51.4342 84.6537 50.1211 83.5263C49.8051 83.2549 49.5177 82.9458 49.272 82.606C49.2495 82.6037 49.2265 82.6036 49.2038 82.5999L47.2661 82.286L47.0902 82.2572L47.0856 82.2542C46.4437 82.1503 44.1751 81.7845 41.9304 81.4081C40.1793 81.1145 38.3008 81.7815 36.4765 82.8258L35.6986 83.2943C34.2738 84.1951 32.5643 84.9239 30.8937 85.0972C29.1989 85.2728 27.4212 84.8758 26.1691 83.3565C25.5231 82.5725 25.1283 81.7514 24.9819 80.9184C23.9709 81.0153 23.0703 81.0594 21.8114 81.0594C18.7658 81.0594 15.8316 80.7843 13.2568 80.1027C12.1306 81.3295 10.266 82.8793 8.35475 83.9281C7.25274 84.5329 6.04024 85.0259 4.88255 85.1457C3.69261 85.2687 2.43123 84.9982 1.53772 83.9145C-0.216746 81.7859 0.294789 79.0876 1.35881 77.1035C1.90539 76.0844 2.63965 75.1574 3.43909 74.4319C3.86577 74.0447 4.33382 73.6962 4.82342 73.4221C4.43629 72.3418 4.2245 71.136 4.2245 69.7968C4.2245 67.3081 4.22541 65.4164 4.76883 62.7538C4.98458 61.1126 5.60313 57.3219 6.4928 53.9793C6.71641 53.1399 7.10996 52.2707 7.76189 51.5533L7.76644 51.5473C7.928 51.3718 8.09006 51.2108 8.25164 51.0742L8.25316 51.0727C9.46202 50.056 11.02 49.911 12.3849 50.119C13.5897 50.3026 14.7846 50.7767 15.7677 51.3653L16.1755 51.6246L16.1801 51.6276C16.2808 51.6961 16.385 51.7726 16.4924 51.8581L16.4939 51.8596C16.6782 52.0069 16.8195 52.0429 16.8957 52.0431H22.9001C22.9745 52.0431 23.055 52.0193 23.126 51.9718C24.976 50.7289 26.0833 50.0724 27.003 49.79C27.9908 49.4867 28.7834 49.6324 29.5488 49.6778C30.2611 49.72 30.9523 49.9115 31.576 50.2145L31.9899 50.4056C32.1246 50.4647 32.2566 50.5195 32.3872 50.5739C32.6372 50.6779 32.9131 50.7911 33.1635 50.9089C33.6886 51.156 34.2462 51.4914 34.6828 52.1159C34.9751 52.5341 35.1733 53.0269 35.3135 53.6018H38.1186C39.3558 53.5989 40.8468 53.3867 42.543 53.1424C43.2861 53.0351 44.2395 52.8683 45.3298 52.6845C46.4097 52.5024 47.606 52.3063 48.7959 52.1477C49.9834 51.9895 51.1853 51.8661 52.2757 51.8323C53.3454 51.7992 54.3992 51.8475 55.2476 52.0855H55.246C58.0991 52.7915 61.1445 54.6684 63.1366 56.5115C63.144 56.489 63.1533 56.4665 63.1608 56.4432C63.3956 55.7183 63.6495 54.6891 63.9038 53.3698C64.411 50.7375 64.9028 47.0479 65.2654 42.5408L65.2942 42.2815C65.466 40.9844 66.144 39.7664 67.329 39.431ZM5.88479 75.4948C5.61012 75.6565 5.31186 75.8764 5.00385 76.1559C4.40026 76.7036 3.83206 77.4208 3.4118 78.2043C2.54202 79.8262 2.46033 81.3726 3.33447 82.4331C3.5813 82.7325 3.95963 82.8995 4.64299 82.8289C5.35884 82.7548 6.25611 82.4225 7.23424 81.8858C8.55399 81.1614 9.84473 80.158 10.7959 79.2718C10.2393 79.0367 9.70656 78.7799 9.20536 78.4894L8.56702 78.0936C7.49127 77.3779 6.58749 76.5124 5.88479 75.4948ZM67.8399 41.8327C67.7342 42.0034 67.6227 42.2965 67.5882 42.7273H67.5867C67.2195 47.2921 66.7182 51.0713 66.1903 53.811C65.9269 55.1774 65.6533 56.3105 65.3776 57.1619C65.2402 57.586 65.0932 57.9662 64.9363 58.2809C64.797 58.5605 64.5832 58.9276 64.2525 59.1816L64.251 59.1831C63.9035 59.4487 63.4695 59.5382 63.0532 59.4317C62.7152 59.3452 62.4798 59.1515 62.3648 59.0481C62.2384 58.9344 62.1307 58.8102 62.0691 58.7388C61.9884 58.6452 61.9629 58.6146 61.9402 58.5917L61.9387 58.5902C60.2123 56.851 57.2539 54.9725 54.6562 54.3387L54.6365 54.3341L54.6183 54.3281C54.1168 54.1873 53.3478 54.1289 52.3485 54.1598C51.3696 54.1901 50.2542 54.3037 49.1037 54.4569C47.9559 54.6099 46.792 54.8003 45.7165 54.9816C45.1845 55.0712 44.6692 55.1594 44.1896 55.2393L42.875 55.4471C41.2302 55.684 39.5594 55.9274 38.1231 55.9307H35.6077C35.6419 56.5716 35.6577 57.3034 35.6577 58.1414C35.6577 58.7845 35.1364 59.3059 34.4932 59.3059C33.8504 59.3056 33.3288 58.7844 33.3288 58.1414C33.3288 56.5712 33.2734 55.4926 33.162 54.7314C33.0501 53.9671 32.8957 53.6247 32.7738 53.4502C32.6695 53.301 32.5261 53.1832 32.1719 53.0165C31.9828 52.9276 31.775 52.8414 31.4926 52.7239C31.2211 52.6109 30.9052 52.4782 30.5586 52.3099C30.2834 52.1762 29.9929 52.0834 29.7019 52.0355L29.4108 52.0022C28.3401 51.9388 28.1551 51.8735 27.6868 52.0173C27.1507 52.182 26.3231 52.6294 24.4224 53.9066L24.4208 53.9081C23.9763 54.2053 23.4467 54.372 22.9001 54.372H16.8957C16.1436 54.3719 15.5054 54.0511 15.0414 53.6806L14.8761 53.5578L14.5638 53.3592C13.8119 52.9101 12.904 52.5547 12.0347 52.4222C11.0297 52.2689 10.2532 52.4338 9.75272 52.8543C9.69466 52.9035 9.60924 52.9859 9.48586 53.1196L9.36305 53.2652C9.08643 53.6191 8.87875 54.0684 8.7429 54.5782C7.88432 57.804 7.28208 61.5041 7.07655 63.0737L7.072 63.1162L7.06291 63.1571C6.55816 65.6012 6.55345 67.2949 6.55345 69.7968C6.55345 72.7729 7.78902 74.7781 9.85734 76.1544C12.5768 77.9631 16.8127 78.7304 21.8114 78.7305C23.1881 78.7305 24.087 78.6738 25.2548 78.547C25.3818 78.2459 25.5385 77.9613 25.7187 77.6964C26.7191 76.226 28.4733 75.2341 30.0582 74.8625C30.6841 74.7162 31.311 75.1054 31.4577 75.7313C31.6044 76.3574 31.215 76.9841 30.5889 77.1308C29.432 77.4021 28.2435 78.1258 27.6444 79.0064C27.3585 79.4266 27.2266 79.8501 27.2456 80.274C27.2645 80.6954 27.4372 81.2333 27.9658 81.8751C28.5752 82.6146 29.4741 82.9042 30.6541 82.7819C31.8585 82.657 33.2237 82.1039 34.4538 81.3263V81.3247C36.5983 79.97 39.4108 78.624 42.3155 79.111C43.619 79.3296 44.931 79.5458 45.9257 79.7084C46.4228 79.7897 46.841 79.8572 47.1387 79.9055C47.2875 79.9297 47.4068 79.9481 47.4905 79.9616C47.5323 79.9684 47.5655 79.9745 47.589 79.9783C47.5973 79.9797 47.6044 79.9804 47.6102 79.9814C47.6243 79.9833 47.6389 79.9862 47.6542 79.9889L48.4139 80.1118C48.4055 79.5913 48.4923 79.0449 48.7019 78.4818L48.799 78.2468C49.3209 77.095 50.3862 76.3279 51.5206 76.0437C52.4704 75.8053 53.3634 75.7965 54.1271 75.7526C54.5383 75.7289 54.9581 75.6931 55.4143 75.6191C54.681 75.0943 53.8497 74.422 53.1369 73.6101C51.8879 72.1873 50.8742 70.1879 51.5252 67.7407C51.6905 67.1195 52.3277 66.7495 52.9489 66.9144C53.5704 67.0798 53.9406 67.7182 53.7753 68.3397C53.3989 69.755 53.9227 70.9761 54.8867 72.0742C55.8664 73.1901 57.1698 74.0196 58.0208 74.5578C58.2393 74.6954 58.5055 74.9074 58.6834 75.2264C58.8874 75.5929 58.939 76.0432 58.7637 76.4713C58.6115 76.8429 58.3391 77.0759 58.1375 77.2097C58.0311 77.2802 57.919 77.3395 57.807 77.3901L57.4734 77.5175C56.1729 77.9294 55.1432 78.0277 54.262 78.0785C53.3596 78.1304 52.7646 78.133 52.0877 78.3029H52.0862C51.4987 78.4502 51.0538 78.8416 50.8853 79.2945C50.5387 80.2254 50.8448 81.0792 51.6374 81.7599C52.4645 82.4702 53.7003 82.8538 54.7927 82.6985L55.6888 82.5544C57.7758 82.1779 59.8195 81.5403 61.593 80.7804C63.6387 79.9039 65.2392 78.9005 66.1372 78.0133L66.1584 77.9921C66.703 77.4808 66.9836 76.4463 66.8059 74.7685C66.6349 73.1558 66.0722 71.2755 65.3836 69.4905C64.188 66.3921 64.8976 62.8741 66.1417 60.1095C67.2829 57.576 68.0083 54.3371 68.3085 51.0772C68.6086 47.8182 68.475 44.625 67.9552 42.1966C67.9207 42.0355 67.8766 41.9184 67.8399 41.8327Z" fill="#1A1A1A"/>
<path d="M66.2753 33.5636C67.3303 33.4652 68.3403 33.8531 69.0561 34.5612C69.7367 34.4854 70.4424 34.6092 71.0803 34.9494L71.3881 35.1329C72.4873 35.87 73.032 37.1234 72.9195 38.3549C73.4936 38.81 73.9284 39.4433 74.1264 40.1911L74.2007 40.5413C74.3982 41.7918 73.9048 42.9882 73.0059 43.7512C73.0236 44.4901 72.811 45.24 72.3433 45.8845C71.5707 46.9493 70.3104 47.448 69.091 47.2992C68.3734 48.0566 67.3346 48.4821 66.242 48.3818L65.8887 48.3302C65.03 48.1633 64.3085 47.6927 63.8084 47.0536C62.8149 47.0393 61.8422 46.605 61.1732 45.8011L60.9579 45.5161C60.4948 44.8298 60.3095 44.0376 60.3741 43.2721C59.5851 42.4475 59.2134 41.2546 59.4917 40.0607L59.5902 39.718C59.8002 39.1066 60.1696 38.5869 60.638 38.1911C60.6121 36.9977 61.1959 35.821 62.2831 35.145L62.5954 34.9721C63.0691 34.7405 63.575 34.6302 64.0768 34.6234C64.5565 34.1228 65.1889 33.7592 65.9205 33.6151L66.2753 33.5636Z" fill="#1A1A1A"/>
<path d="M9.97693 50.0806C10.4737 49.441 11.3092 49.1042 12.1537 49.2857C13.3275 49.5388 14.0747 50.6939 13.8217 51.8677L13.8031 51.9556C14.7315 51.6266 15.7985 51.9626 16.3558 52.8257C17.0076 53.8349 16.7184 55.1796 15.7094 55.8316C15.5356 55.9449 15.3569 56.0562 15.1722 56.1695C16.2684 56.5111 16.9159 57.6557 16.6303 58.7798C16.402 59.6803 15.6428 60.3049 14.7719 60.4058C15.166 60.9165 15.3292 61.5961 15.1586 62.2681C14.8636 63.4325 13.6804 64.1363 12.516 63.8414C12.4554 63.8243 12.393 63.809 12.3324 63.7935C12.562 64.7017 12.1814 65.6909 11.3353 66.1939C10.3029 66.8084 8.96903 66.4694 8.35584 65.4371C8.28767 65.324 8.22268 65.2107 8.15759 65.0992C8.10949 65.169 8.06116 65.2407 8.01306 65.3121C7.33767 66.3039 5.98398 66.56 4.99353 65.8834C4.13493 65.298 3.82753 64.2062 4.19861 63.2808L4.13123 63.2935C2.95137 63.5169 1.81474 62.74 1.59119 61.5601C1.41288 60.6133 1.87721 59.6944 2.6781 59.2535L2.67517 59.2505C1.70951 58.5379 1.50471 57.1778 2.21716 56.2105C2.5898 55.7059 3.13959 55.4091 3.71716 55.3423C3.13804 54.5924 3.09887 53.5224 3.68884 52.7213C4.26798 51.9372 5.27312 51.6548 6.14881 51.9576C6.13794 51.8862 6.12647 51.8146 6.1156 51.7447C5.93557 50.5571 6.75381 49.4497 7.93982 49.2711C8.74253 49.1484 9.50959 49.4844 9.97693 50.0806ZM29.3929 49.2857C30.2375 49.1041 31.0725 49.441 31.5678 50.0806C32.0366 49.4845 32.8022 49.1485 33.6049 49.2711C34.7926 49.4496 35.6095 50.557 35.431 51.7447C35.4202 51.8146 35.4093 51.8862 35.3969 51.9576C36.2725 51.6548 37.2787 51.9372 37.8578 52.7213C38.4478 53.5224 38.4076 54.5924 37.8285 55.3423C38.4075 55.4092 38.9569 55.706 39.3295 56.2105C40.042 57.1777 39.8376 58.5379 38.8705 59.2505L38.8666 59.2535C39.6676 59.6944 40.1334 60.6131 39.9535 61.5601C39.7315 62.7401 38.5935 63.5171 37.4135 63.2935L37.348 63.2808C37.7176 64.2062 37.4117 65.298 36.5531 65.8834C35.561 66.5599 34.2085 66.304 33.5316 65.3121C33.4835 65.2407 33.4356 65.169 33.389 65.0992C33.324 65.2108 33.2574 65.324 33.1908 65.4371C32.576 66.4696 31.2418 66.8087 30.2094 66.1939C29.3633 65.6909 28.9827 64.7017 29.2123 63.7935C29.1519 63.809 29.0916 63.8243 29.0297 63.8414C27.8667 64.1364 26.6836 63.4326 26.3871 62.2681C26.2164 61.596 26.3811 60.9165 26.7738 60.4058C25.9028 60.3049 25.1437 59.6803 24.9154 58.7798C24.6298 57.6559 25.278 56.5112 26.3724 56.1695C26.1894 56.0563 26.0091 55.9448 25.8353 55.8316C24.8278 55.1795 24.5395 53.8349 25.1898 52.8257C25.7488 51.9625 26.8156 51.6265 27.7426 51.9556L27.724 51.8677C27.4725 50.6939 28.2192 49.5388 29.3929 49.2857ZM66.3705 35.9C67.0008 35.7758 67.6144 36.186 67.7386 36.8179C67.8194 37.2261 67.892 37.6623 67.9525 38.1216C68.1403 37.8702 68.3131 37.6234 68.473 37.3843C68.8317 36.8504 69.5552 36.7089 70.0892 37.066C70.6232 37.4246 70.766 38.1481 70.4076 38.6822C70.1049 39.1339 69.7617 39.6078 69.3705 40.0953C69.7584 40.0565 70.1572 40.0042 70.5668 39.939C71.2018 39.8397 71.7989 40.2727 71.8998 40.9078C72.0004 41.5426 71.5669 42.1389 70.932 42.2398C70.4663 42.3143 70.0115 42.3715 69.5707 42.4166C69.774 42.5749 69.9833 42.7335 70.2006 42.8902C70.7207 43.269 70.8372 43.997 70.4584 44.5171C70.0811 45.0372 69.3535 45.152 68.8334 44.775C68.5013 44.5344 68.1858 44.2924 67.8832 44.0504C67.832 44.4011 67.7694 44.7598 67.6996 45.1246C67.5753 45.7563 66.9651 46.168 66.3334 46.0455C65.7015 45.9228 65.2898 45.3106 65.4125 44.6802C65.473 44.3698 65.5257 44.0656 65.5707 43.7691C65.2324 44.0236 64.8786 44.2781 64.5062 44.5279C63.9721 44.8881 63.2477 44.747 62.889 44.2144C62.529 43.6803 62.671 42.9568 63.2035 42.5982C63.3897 42.4725 63.5715 42.345 63.7484 42.2193C63.3556 42.1494 62.9823 42.0721 62.6283 41.9898C62.0027 41.8437 61.6132 41.216 61.7592 40.5904C61.9052 39.965 62.5321 39.5756 63.1576 39.7213C63.3966 39.7771 63.6484 39.8317 63.9076 39.8814C63.6235 39.4839 63.3679 39.0982 63.1381 38.7271C62.7982 38.1806 62.9656 37.462 63.5121 37.1236C64.0585 36.7836 64.7755 36.9513 65.1156 37.4976C65.2708 37.7476 65.4393 38.0052 65.6224 38.2691C65.5728 37.9183 65.5146 37.5848 65.4525 37.2681C65.3283 36.6362 65.7401 36.0242 66.3705 35.9Z" fill="#B3EE71"/>
<path d="M3.36934 58.3155C3.68918 58.5515 3.86729 58.934 3.84089 59.3299C3.81434 59.7256 3.5881 60.0806 3.24046 60.273L2.67945 59.2541L3.36934 58.3155Z" fill="#1A1A1A"/>
<path fill-rule="evenodd" clip-rule="evenodd" d="M9.97409 48.554C10.6756 48.1308 11.5333 47.9613 12.3986 48.1476C13.718 48.4307 14.6823 49.459 14.9549 50.6964C15.8955 50.8172 16.7786 51.3342 17.3339 52.193C18.144 53.4464 18.0067 55.0373 17.105 56.1291C17.7534 56.9212 18.0315 57.9997 17.76 59.0676C17.5424 59.925 17.0101 60.6181 16.3196 61.0584C16.4193 61.5388 16.4164 62.0493 16.2877 62.5565C15.9412 63.9212 14.7989 64.8705 13.4827 65.0416C13.2919 65.9107 12.7589 66.7027 11.9331 67.1946C10.673 67.9438 9.1212 67.7667 8.06362 66.8671C6.96563 67.5954 5.49221 67.6339 4.3367 66.8459C3.47905 66.2599 2.98197 65.3454 2.89476 64.3866C1.68272 64.0729 0.696303 63.0908 0.447543 61.7786C0.265826 60.8156 0.518407 59.8723 1.06465 59.148C0.434845 58.0367 0.472843 56.6143 1.27996 55.5196C1.53081 55.1797 1.83556 54.903 2.17151 54.6887C1.98614 53.7931 2.16612 52.8256 2.75223 52.0307C3.31432 51.2695 4.13785 50.8174 5.00688 50.704C5.29541 49.3933 6.36044 48.331 7.76644 48.1188C8.56236 47.9987 9.33417 48.1721 9.97409 48.554ZM10.899 50.7935C10.6787 51.0774 10.34 51.2435 9.98167 51.2453C9.66796 51.2453 9.36918 51.12 9.15077 50.8996L8.97337 50.701C8.75338 50.4851 8.43979 50.3732 8.11518 50.422C7.56399 50.5058 7.18531 51.0201 7.2676 51.5713L7.29944 51.7745L7.31309 51.9261C7.32217 52.2781 7.17194 52.6201 6.89764 52.851C6.58403 53.1132 6.15454 53.1922 5.76803 53.0587C5.36149 52.9177 4.89486 53.0506 4.6263 53.4135C4.35459 53.7831 4.36983 54.2818 4.63843 54.6296L3.71656 55.3407L3.71808 55.3422L4.63843 54.6296C4.89616 54.9618 4.95308 55.4074 4.79006 55.794C4.62704 56.1805 4.26898 56.4509 3.85151 56.4991C3.5814 56.5301 3.32793 56.6665 3.15403 56.9024C2.82339 57.351 2.91782 57.9833 3.36631 58.314L3.36934 58.3155L2.67793 59.2526L3.24046 60.273C2.86798 60.478 2.6548 60.9072 2.73707 61.345C2.84119 61.8925 3.36763 62.2519 3.91519 62.1486L3.9819 62.1365L4.13807 62.1183C4.50329 62.0993 4.86005 62.2532 5.09786 62.5398C5.36786 62.8688 5.43783 63.3176 5.2798 63.7134L5.22977 63.8771C5.14705 64.2653 5.30177 64.6838 5.64977 64.9203C6.11078 65.2351 6.73714 65.1157 7.05229 64.6549C7.09877 64.5868 7.1438 64.5184 7.19027 64.4502L7.28124 64.332C7.50935 64.071 7.84494 63.9239 8.19705 63.9347C8.54755 63.947 8.87172 64.116 9.08254 64.3911L9.16593 64.5154L9.35698 64.843C9.64269 65.321 10.2616 65.4772 10.7413 65.1932C11.1326 64.9603 11.3109 64.5011 11.2038 64.0788C11.103 63.6799 11.2199 63.2576 11.5131 62.9674C11.8048 62.6772 12.2272 62.5635 12.626 62.6656C12.6849 62.6811 12.7445 62.6971 12.8034 62.7126C13.3436 62.8492 13.8932 62.5234 14.03 61.9833C14.1092 61.6712 14.0344 61.3551 13.8496 61.116C13.5938 60.7838 13.5365 60.338 13.701 59.9516C13.8641 59.5651 14.2236 59.2961 14.6396 59.248C15.0459 59.2012 15.3967 58.9101 15.5023 58.4945C15.6358 57.9712 15.3338 57.4398 14.8261 57.2815C14.3901 57.1462 14.0738 56.7673 14.0179 56.3141C13.9621 55.8611 14.1746 55.4176 14.5638 55.1784C14.7392 55.0698 14.9116 54.9611 15.0778 54.8524C15.5466 54.5497 15.6806 53.9264 15.378 53.4575C15.1203 53.0586 14.6254 52.9006 14.1938 53.0542L14.0422 53.0966C13.6867 53.171 13.3124 53.0744 13.0354 52.8313C12.7171 52.5519 12.5754 52.1237 12.6654 51.7108L12.6836 51.6228C12.8011 51.0781 12.4535 50.5414 11.9088 50.425C11.5193 50.3414 11.1302 50.4939 10.899 50.7935Z" fill="#1A1A1A"/>
<path d="M32.4857 50.7995C32.2637 51.0818 31.9238 51.2453 31.5654 51.2453C31.2069 51.2437 30.8684 51.0774 30.6496 50.7935L31.5684 50.0793L32.4857 50.7995Z" fill="#1A1A1A"/>
<path fill-rule="evenodd" clip-rule="evenodd" d="M29.1485 48.1476C30.0138 47.9616 30.8707 48.1303 31.5714 48.5525C32.2112 48.1707 32.9833 47.9989 33.7791 48.1188C35.1851 48.3308 36.2484 49.3934 36.5371 50.704C37.4071 50.8169 38.2322 51.2687 38.7948 52.0307C39.3809 52.8256 39.559 53.7931 39.374 54.6887C39.7105 54.9031 40.0165 55.1791 40.2671 55.5196C41.0742 56.6145 41.1105 58.0367 40.4809 59.148C41.028 59.8724 41.2823 60.8152 41.0995 61.7786C40.8518 63.0915 39.8642 64.0734 38.6508 64.3866C38.5638 65.3454 38.0675 66.26 37.2088 66.8459C36.0528 67.6339 34.5795 67.5964 33.4819 66.8671C32.4244 67.7662 30.8741 67.9437 29.6155 67.1946C28.7894 66.7027 28.2541 65.911 28.0629 65.0416C26.7476 64.8696 25.6069 63.9203 25.2593 62.5565C25.1305 62.0488 25.126 61.5376 25.226 61.0569C24.5366 60.6166 24.0055 59.9242 23.7871 59.0676C23.5156 57.9999 23.7924 56.9211 24.4406 56.1291C23.5402 55.0373 23.403 53.4461 24.2116 52.193C24.7674 51.3346 25.6507 50.8178 26.5906 50.6964C26.8625 49.4587 27.8288 48.4307 29.1485 48.1476ZM30.6496 50.7935C30.4167 50.4938 30.028 50.3412 29.6367 50.425C29.0923 50.5416 28.7461 51.0784 28.8619 51.6228L28.8816 51.7108L28.9044 51.8654C28.9335 52.228 28.7903 52.5867 28.5132 52.8313C28.2347 53.0744 27.8611 53.171 27.5049 53.0966L27.3533 53.0542L27.1895 53.0102C26.8031 52.9431 26.3959 53.1084 26.1691 53.4575C25.8665 53.9262 26.001 54.5495 26.4678 54.8524C26.6354 54.9611 26.8063 55.0698 26.9833 55.1784C27.3714 55.4175 27.5865 55.8608 27.5291 56.3141C27.4732 56.7675 27.1558 57.1464 26.7195 57.2815C26.2135 57.44 25.9128 57.9713 26.0447 58.4945C26.1504 58.9102 26.5009 59.2013 26.9075 59.248C27.3251 59.2961 27.6845 59.565 27.8475 59.9516C28.0106 60.3382 27.9521 60.7838 27.6959 61.116C27.5112 61.3551 27.4378 61.6712 27.517 61.9833C27.6554 62.5233 28.205 62.8492 28.7452 62.7126C28.8039 62.6972 28.8624 62.6811 28.9195 62.6656C29.3184 62.5632 29.7421 62.6772 30.034 62.9674C30.3259 63.2577 30.4427 63.6798 30.3418 64.0788C30.2362 64.5008 30.415 64.9602 30.8057 65.1932C31.2839 65.4773 31.9044 65.3212 32.1901 64.843C32.2553 64.7327 32.319 64.6241 32.3811 64.5154L32.4645 64.3911C32.6754 64.1161 32.9997 63.947 33.3515 63.9347C33.7019 63.924 34.0363 64.0714 34.2643 64.332L34.3553 64.4502L34.4947 64.6549C34.8084 65.1161 35.4377 65.2354 35.8973 64.9203C36.2452 64.6838 36.3999 64.2652 36.3173 63.8771L36.2672 63.7134L36.2187 63.5632C36.1308 63.2077 36.2144 62.8277 36.4507 62.5398C36.6873 62.2532 37.0449 62.0992 37.4105 62.1183L37.5667 62.1365L37.6319 62.1486C38.1798 62.2526 38.7074 61.8929 38.81 61.345C38.8938 60.9071 38.6792 60.478 38.3066 60.273L38.8676 59.2526L38.1762 58.3155L38.1792 58.314C38.6279 57.9833 38.7236 57.3511 38.393 56.9024C38.2207 56.6664 37.9672 56.5302 37.6955 56.4991C37.2794 56.4509 36.9185 56.1806 36.7555 55.794C36.5926 55.4075 36.6509 54.9617 36.9086 54.6296C37.1771 54.2818 37.1939 53.783 36.9207 53.4135C36.6537 53.0503 36.1857 52.9175 35.779 53.0587C35.3927 53.1919 34.9644 53.1129 34.6509 52.851C34.3373 52.5871 34.1839 52.1781 34.2491 51.7745C34.26 51.7063 34.2686 51.6379 34.2794 51.5713C34.3633 51.0201 33.983 50.5058 33.4319 50.422C33.0608 50.3661 32.7046 50.5201 32.4857 50.7995L31.5684 50.0793L30.6496 50.7935ZM38.8676 59.2526L38.3066 60.273C37.9593 60.0805 37.7327 59.7254 37.7061 59.3299C37.6798 58.9341 37.8566 58.5516 38.1762 58.3155L38.8676 59.2526Z" fill="#1A1A1A"/>
</svg>
