<svg width="75" height="86" viewBox="0 0 75 86" fill="none" xmlns="http://www.w3.org/2000/svg">
<path d="M7.71463 63.1501L2.44811 66.3361L1.55225 60.7824L8.49407 52.3656H25.8525L29.7558 51.2368L34.1808 53.6667L37.1929 54.4337H39.6057L51.106 53.2273L58.5059 54.4337L62.6064 56.1276L64.4338 56.671L68.3154 34.9342L70.6443 32.6052L72.9733 50.4605L69.2812 68.2009V76.7714L67.6742 79.2851L65.2614 81.215L59.4017 83.9492H53.6492L52.3046 82.6202L51.3995 80.5427L47.0956 80.33L39.6057 81.215L30.9995 83.9492L29.1363 83.488L27.8662 80.33L13.2249 79.2851L7.13396 83.8902L3.14212 82.7195L3.8113 78.8721L7.13396 74.3291L6.61848 67.1761L7.71463 63.1501Z" fill="#2C2C2C"/>
<path d="M28.9458 67.4757C30.4257 67.4758 31.6254 68.7206 31.6255 70.256C31.6255 71.7914 30.4257 73.0361 28.9458 73.0363C27.4658 73.0363 26.2661 71.7915 26.2661 70.256C26.2662 68.7205 27.4658 67.4757 28.9458 67.4757Z" fill="#D9D9D9"/>
<path d="M27.8467 70.0528C28.2599 70.0528 28.5949 69.7053 28.5949 69.2767C28.5949 68.848 28.2599 68.5005 27.8467 68.5005C27.4336 68.5005 27.0986 68.848 27.0986 69.2767C27.0986 69.7053 27.4336 70.0528 27.8467 70.0528Z" fill="white"/>
<path d="M16.5244 67.4756C18.0044 67.4756 19.204 68.7204 19.2041 70.2559C19.2041 71.7914 18.0045 73.0361 16.5244 73.0361C15.0445 73.036 13.8447 71.7913 13.8447 70.2559C13.8448 68.7205 15.0446 67.4758 16.5244 67.4756Z" fill="#D9D9D9"/>
<path d="M17.6235 70.0527C17.2103 70.0527 16.8754 69.7052 16.8754 69.2765C16.8754 68.8479 17.2103 68.5004 17.6235 68.5004C18.0366 68.5004 18.3716 68.8479 18.3716 69.2765C18.3716 69.7052 18.0366 70.0527 17.6235 70.0527Z" fill="white"/>
<path d="M24.2565 73.0187C22.9321 72.9147 21.2754 73.0079 19.9712 73.1336C19.2011 73.2097 18.6329 73.913 19.094 74.5341C19.8035 75.4952 21.1869 76.2621 22.2101 76.6907C22.5362 76.8288 22.9072 76.8351 23.2147 76.6612C24.0081 76.2125 24.6477 75.4315 25.1027 74.6878C25.5514 73.9549 25.112 73.0839 24.2565 73.0187Z" fill="#DAAACE"/>
<path d="M69.5541 31.5064C71.1094 31.2697 72.1749 32.544 72.529 34.04C73.3939 37.6941 73.9851 42.5055 74.0619 47.2829C74.1385 52.0427 73.7066 56.8801 72.4593 60.5409V60.5424C71.8764 62.252 71.2868 64.2035 70.9521 66.1434C70.6154 68.0955 70.5522 69.9497 70.9491 71.4972C71.3285 72.9761 71.5729 74.5252 71.4934 75.9383C71.4147 77.3359 71.0077 78.7409 69.9468 79.7501C68.7587 80.925 66.864 82.0688 64.684 83.0025C62.4845 83.9445 59.9077 84.7108 57.2953 85.0843C55.509 85.3396 53.6075 84.7351 52.2948 83.6075C51.9794 83.3365 51.6924 83.0278 51.4472 82.6886C51.4235 82.6862 51.3997 82.6849 51.3759 82.681L49.5322 82.3808H49.5155L49.4124 82.3626C49.4094 82.3622 49.3746 82.3566 49.2911 82.3429C49.2075 82.3293 49.0884 82.3096 48.9393 82.2853C48.6412 82.2367 48.2227 82.1682 47.7248 82.0867L44.1055 81.4878C42.1037 81.1535 39.9333 82.074 37.8723 83.3755C36.4471 84.2758 34.739 85.005 33.0688 85.1783C31.3739 85.3541 29.5964 84.9557 28.3442 83.4361V83.4376C27.6978 82.6534 27.3033 81.8314 27.157 80.998C26.1452 81.0951 25.2447 81.1405 23.985 81.1405C20.9416 81.1405 18.0079 80.866 15.4334 80.1853C14.3072 81.4122 12.44 82.9603 10.5284 84.0093C9.42661 84.6138 8.21518 85.1072 7.05769 85.2268C5.94187 85.342 4.76319 85.1109 3.88419 84.1882L3.71286 83.9941C1.95839 81.8655 2.46988 79.1686 3.53394 77.1847C4.08045 76.1658 4.81348 75.2385 5.61271 74.513C6.03923 74.1259 6.50771 73.7775 6.99704 73.5032C6.61002 72.4228 6.39965 71.2171 6.39964 69.8779C6.39964 68.7111 6.40005 67.6756 6.45574 66.6301C6.38502 66.6796 6.31447 66.7295 6.24195 66.7757C5.57926 67.1972 4.76894 67.5172 3.86751 67.4792C2.93927 67.44 2.06718 67.0268 1.30203 66.2617C0.725474 65.685 0.477313 64.9308 0.408966 64.195C0.340762 63.4607 0.441481 62.6638 0.640951 61.8706C1.04038 60.2825 1.88776 58.5095 2.97141 56.8837C4.05641 55.256 5.42546 53.7059 6.92122 52.5988C8.39605 51.5072 10.1454 50.7382 11.9309 50.984L12.2827 51.0416C13.0993 51.1965 13.8806 51.4811 14.5191 51.6921C15.3031 51.9511 15.9341 52.1257 16.5448 52.1257H23.2572C24.452 52.1256 25.6554 51.6501 26.9826 51.0158L27.3647 50.8415C28.2826 50.4455 29.3833 50.1289 30.5337 50.1288C31.1187 50.1288 31.7648 50.3488 32.3456 50.6065C32.9616 50.8798 33.6488 51.2617 34.3607 51.7148C35.2244 52.2647 36.1518 52.9381 37.0702 53.6844H40.2922C41.5292 53.6816 43.0211 53.4678 44.7166 53.222L45.9796 53.0218C46.4471 52.9439 46.9583 52.8574 47.5034 52.7656C48.5832 52.5837 49.7796 52.3872 50.9696 52.2288C52.157 52.0708 53.3588 51.9471 54.4493 51.9135C55.5026 51.881 56.5402 51.9291 57.3818 52.1576C59.9847 52.7912 62.1885 53.8976 63.9683 55.4281C64.0669 54.9933 64.1756 54.4774 64.2852 53.8891C64.5634 52.3961 64.8653 50.4834 65.1798 48.3457C65.8095 44.0658 66.4765 38.953 67.0842 34.5798L67.1312 34.3008C67.4018 32.9163 68.2352 31.7072 69.5541 31.5064ZM8.05841 75.5759C7.784 75.7377 7.48654 75.958 7.17899 76.237C6.57521 76.785 6.0057 77.5019 5.58542 78.2855C4.71573 79.907 4.63567 81.4522 5.5096 82.5127C5.75663 82.8126 6.13484 82.9805 6.81812 82.91C7.53381 82.8361 8.42989 82.5035 9.40786 81.9669C10.7273 81.2429 12.0183 80.2405 12.9695 79.3544C12.1707 79.0171 11.4234 78.6296 10.7422 78.1763C9.66578 77.4599 8.761 76.5937 8.05841 75.5759ZM8.72858 69.8779C8.72863 72.8543 9.96267 74.8594 12.0325 76.237C14.7502 78.0453 18.9873 78.8116 23.985 78.8116C25.3625 78.8116 26.2611 78.7536 27.4299 78.6266C27.5568 78.3262 27.7126 78.0419 27.8924 77.7775C28.8924 76.3073 30.6464 75.3161 32.2303 74.9437C32.8562 74.7967 33.4827 75.1851 33.6298 75.811C33.777 76.437 33.3886 77.0632 32.7625 77.2104C31.6063 77.4824 30.4187 78.2069 29.8195 79.0875C29.5336 79.5079 29.4003 79.9315 29.4192 80.3551C29.4357 80.7237 29.5713 81.1812 29.959 81.7197L30.141 81.9563L30.2592 82.0897C30.8642 82.7298 31.7223 82.976 32.8277 82.8615C34.0319 82.7366 35.3978 82.1837 36.629 81.4059L37.4629 80.9025C39.477 79.7446 41.9493 78.766 44.4907 79.1907C46.7896 79.5761 49.1559 79.9611 49.7096 80.0519H49.7202L49.8142 80.067L50.589 80.1929C50.5806 79.6722 50.6673 79.1248 50.8771 78.5614C51.3546 77.2792 52.4859 76.4278 53.6958 76.1248C54.6447 75.8874 55.5385 75.8776 56.3022 75.8337C56.7136 75.81 57.1331 75.7743 57.5895 75.7003C56.8558 75.1756 56.0234 74.5048 55.3106 73.6928C54.0613 72.2696 53.0478 70.2681 53.6988 67.8204C53.8642 67.199 54.5027 66.8302 55.1241 66.9955C55.7454 67.1608 56.1155 67.7979 55.9504 68.4193C55.5737 69.8357 56.097 71.0576 57.0603 72.1553C58.0407 73.2722 59.3466 74.1021 60.1974 74.6389H60.1959C60.4145 74.7766 60.6806 74.988 60.8585 75.3076C61.0627 75.6746 61.1129 76.1246 60.9373 76.5524C60.7849 76.9239 60.5125 77.1571 60.3111 77.2908C60.0985 77.4319 59.8649 77.5294 59.647 77.5986H59.6455C58.346 78.0096 57.3168 78.1089 56.4356 78.1596C55.5329 78.2116 54.938 78.2147 54.2613 78.384C53.6737 78.5312 53.2276 78.9212 53.0589 79.3741C52.7122 80.3054 53.0203 81.1603 53.8125 81.841C54.6393 82.5512 55.8745 82.9357 56.9663 82.7796C59.3608 82.4373 61.7401 81.7294 63.7666 80.8616C65.8127 79.9853 67.4138 78.9829 68.3108 78.0959L68.3214 78.0838L68.332 78.0747C68.8056 77.6306 69.1062 76.896 69.1675 75.8079C69.2284 74.7259 69.0431 73.434 68.6944 72.0749C68.1816 70.075 68.295 67.8519 68.658 65.7477C69.0232 63.6312 69.656 61.5461 70.2546 59.7903L70.4578 59.1596C71.4293 55.9327 71.8031 51.6796 71.733 47.3208C71.6585 42.6884 71.0834 38.0461 70.2622 34.5768C70.1537 34.1182 69.9973 33.913 69.9196 33.8414C69.9067 33.8296 69.8951 33.8223 69.8877 33.8171C69.8582 33.8324 69.7995 33.8724 69.724 33.9718C69.6006 34.1341 69.4573 34.4311 69.3919 34.9012C68.7886 39.2427 68.1155 44.3962 67.4845 48.6854C67.1687 50.8318 66.8612 52.7795 66.5747 54.3167C66.4316 55.0846 66.2914 55.7614 66.1562 56.3151C66.0264 56.8467 65.8828 57.3383 65.7196 57.6903V57.6934C65.5899 57.9707 65.3296 58.3067 64.875 58.4485C64.4546 58.5794 64.0921 58.4709 63.897 58.3878C63.539 58.2353 63.2589 57.9566 63.1435 57.8405L63.1404 57.8374C61.5702 56.2433 59.4837 55.067 56.8314 54.4213L56.8116 54.4168L56.7934 54.4107C56.2912 54.2699 55.5205 54.2101 54.5206 54.2409C53.5417 54.2711 52.4274 54.3851 51.2774 54.5381C50.1295 54.6908 48.9654 54.88 47.8901 55.0612C47.358 55.1508 46.8428 55.239 46.3632 55.3189L45.0502 55.5267C43.4045 55.7653 41.7348 56.01 40.2983 56.0134H39.6372C40.7553 57.152 41.7597 58.3739 42.4392 59.569C43.2378 60.9736 43.8014 62.729 42.9289 64.2405C42.3286 65.2797 41.2803 66.0378 40.1391 66.5088C38.9834 66.9857 37.6311 67.2125 36.2878 67.1077C33.5535 66.8945 30.7747 65.277 29.9181 61.5932C29.7725 60.9669 30.1623 60.341 30.7884 60.1952C31.4148 60.0495 32.0407 60.4391 32.1864 61.0655C32.7737 63.5914 34.5629 64.6376 36.4682 64.7864C37.4449 64.8625 38.4315 64.6938 39.2505 64.3557C40.0833 64.012 40.6462 63.5363 40.9123 63.076C41.122 62.7128 41.1343 61.985 40.415 60.7198C39.7368 59.5269 38.5869 58.1893 37.2354 56.9171C35.8929 55.6532 34.4057 54.5049 33.1098 53.6799C32.4614 53.2672 31.8794 52.9476 31.4009 52.7353C30.8867 52.5071 30.6112 52.4578 30.5337 52.4578C29.6873 52.4578 28.7915 52.7315 27.9894 53.1158L27.9879 53.1174C26.6455 53.7589 25.0239 54.4546 23.2572 54.4547H16.5448C15.5241 54.4547 14.5779 54.1637 13.7883 53.9028C12.9439 53.6237 12.288 53.3836 11.6125 53.2902C10.6913 53.1637 9.55573 53.5458 8.30707 54.4698C7.079 55.3788 5.8852 56.7113 4.90917 58.1755C3.93171 59.642 3.21882 61.1722 2.90015 62.4392C2.74069 63.0734 2.6913 63.5921 2.7273 63.9797C2.76314 64.3655 2.87293 64.5391 2.94867 64.615C3.37051 65.0369 3.71208 65.141 3.96607 65.1518C4.24642 65.1634 4.58873 65.0675 4.99256 64.8106C5.82881 64.2784 6.60805 63.2611 7.06678 62.4331H7.0683C7.21548 62.1681 7.46824 61.9546 7.79003 61.8691C8.09886 61.7871 8.37917 61.8464 8.57999 61.9389C8.92114 62.0961 9.34783 62.5402 9.24866 63.1716C9.24524 63.1958 9.24271 63.2133 9.24259 63.214L9.21227 63.3808C9.19828 63.4539 9.17992 63.5433 9.16223 63.634C8.73442 65.872 8.72858 67.5119 8.72858 69.8779Z" fill="#1A1A1A"/>
</svg>
