<svg width="75" height="86" viewBox="0 0 75 86" fill="none" xmlns="http://www.w3.org/2000/svg">
<path d="M6.81926 62.953L7.59961 57.0872L11.5593 44.0016L14.6644 42.449L17.7698 45.5542V53.0286L24.9569 52.1669L27.8619 45.5542L30.9672 44.0016L34.0724 49.4358L36.2972 54.235H38.71L50.211 53.0286L57.6102 54.235L63.6704 58.6196L68.8129 55.0563L71.2036 57.0872L68.3859 68.0021V76.5742L66.7789 79.0879L64.366 81.0179L58.5067 83.7521H52.7545L50.5046 82.9741V80.3455L46.2013 80.1329L38.71 81.0179L30.1042 83.7521L27.0856 82.8174L26.3093 80.3455L24.9569 80.1329L12.33 79.0879L6.23951 83.693L2.2463 82.5224L1.55273 77.3986L6.23951 74.1319L5.72341 66.9789L6.81926 62.953Z" fill="#F79722"/>
<path d="M22.5132 53.3169C22.5132 58.7511 24.0663 72.7254 29.5005 76.6069L28.2739 78.2417C29.9966 78.5263 32.0615 79.6435 32.605 82.9478H29.5005L27.1714 82.1714L26.687 79.7124H21.7368L13.9741 78.936L10.8687 77.3833C14.4914 75.5729 20.1841 66.9801 20.1841 53.3169H22.5132ZM44.4634 75.1646C46.485 74.9115 50.963 74.9811 52.5161 76.6284C52.6081 76.7256 52.6753 76.8341 52.7251 76.9487C54.0085 77.6669 55.3436 79.5515 55.895 82.9038H53.5659L50.3608 80.9292C49.9408 81.0548 49.4905 81.0946 49.0347 81.0298L46.3599 80.6479C46.1368 80.6153 45.9295 80.5129 45.77 80.353C45.4531 80.0365 44.9686 79.9575 44.5679 80.1577L43.8921 80.4956C43.7558 80.5639 43.6123 80.6175 43.4644 80.6548L43.0923 80.7476C41.9551 81.0317 40.5478 79.9726 40.4116 78.8081C40.225 77.2121 40.4964 75.6598 44.4634 75.1646ZM1.55322 78.2212C3.10605 77.9636 6.52119 78.3771 7.76318 82.103L3.88135 82.8794L1.55322 82.103V78.2212ZM69.9741 56.2983L71.2007 59.5444C69.8897 60.4154 67.1021 61.4653 65.1821 57.3667L67.3862 55.6411L69.9741 56.2983Z" fill="white"/>
<path d="M31.4407 45.5543C32.1411 45.5543 32.768 45.9894 33.0139 46.6461L34.7366 51.2379C34.8673 51.5857 34.9338 51.9561 34.9338 52.3287V55.3453C34.9337 56.8637 33.8149 58.2345 32.3137 58.0094C30.6896 57.7672 29.4496 57.0563 28.6643 56.3903C28.1521 55.9555 27.9378 55.283 27.9963 54.6139C28.2205 52.0505 29.1727 48.7507 29.886 46.65C30.1113 45.9872 30.7404 45.5544 31.4407 45.5543ZM12.7707 43.1598C12.9875 42.7997 13.4865 42.7377 13.7844 43.0358C13.9057 43.1569 13.9735 43.3215 13.9729 43.4938C13.9636 46.4515 13.7997 52.4615 13.1975 54.8698C12.7336 56.0296 11.2302 57.8552 8.68773 56.8785C8.10462 56.6549 7.82108 56.0198 7.90941 55.402L8.50414 51.2379C8.52776 51.0735 8.57795 50.9123 8.65258 50.7633L10.8684 46.3307L12.7707 43.1598Z" fill="#EBB49D"/>
<path d="M27.3926 68.0038C28.8725 68.0039 30.0722 69.2487 30.0723 70.7841C30.0723 72.3195 28.8725 73.5642 27.3926 73.5643C25.9125 73.5643 24.7129 72.3196 24.7129 70.7841C24.713 69.2486 25.9126 68.0038 27.3926 68.0038Z" fill="#1A1A1A"/>
<path d="M26.2935 70.5809C26.7067 70.5809 27.0416 70.2334 27.0416 69.8047C27.0416 69.3761 26.7067 69.0286 26.2935 69.0286C25.8804 69.0286 25.5454 69.3761 25.5454 69.8047C25.5454 70.2334 25.8804 70.5809 26.2935 70.5809Z" fill="white"/>
<path d="M14.9717 68.0037C13.4917 68.0037 12.2921 69.2485 12.292 70.7839C12.292 72.3195 13.4916 73.5642 14.9717 73.5642C16.4516 73.564 17.6514 72.3194 17.6514 70.7839C17.6513 69.2486 16.4515 68.0038 14.9717 68.0037Z" fill="#1A1A1A"/>
<path d="M13.8726 70.5808C14.2858 70.5808 14.6207 70.2333 14.6207 69.8046C14.6207 69.3759 14.2858 69.0284 13.8726 69.0284C13.4595 69.0284 13.1245 69.3759 13.1245 69.8046C13.1245 70.2333 13.4595 70.5808 13.8726 70.5808Z" fill="white"/>
<path d="M23.0078 72.0482C21.616 71.8463 19.7606 71.9861 18.3432 72.1802C17.6059 72.2796 17.0541 72.9426 17.3284 73.635C17.9086 75.0961 19.385 76.2837 20.5091 76.9576C20.9152 77.1998 21.4278 77.2076 21.788 76.9002C22.706 76.1176 23.4059 74.7389 23.8394 73.5977C24.1026 72.9037 23.7411 72.1553 23.0078 72.0482Z" fill="#1A1A1A"/>
<path d="M14.1892 40.7955C15.5688 40.7821 16.8956 41.5865 17.4066 43.1578C18.1623 45.4818 18.4299 48.1886 17.8782 51.2257C17.8466 51.3997 17.8954 51.5735 17.9934 51.7003C18.0871 51.8213 18.2045 51.8761 18.3285 51.8761H22.3299C22.4828 51.876 22.6352 51.7812 22.7029 51.6199C24.1582 48.1517 25.4688 45.7746 26.7573 44.0099H26.7588C28.1471 42.1099 30.9713 41.9965 32.3689 43.9674L32.4993 44.1661L32.8875 44.8302C34.1941 47.1981 35.0221 50.1193 35.4059 53.4348H38.1185C39.3555 53.4319 40.8461 53.2197 42.5414 52.9754C43.2845 52.8682 44.2392 52.7014 45.3297 52.5175C46.4095 52.3355 47.6061 52.1393 48.7959 51.9808C49.9832 51.8226 51.1852 51.6992 52.2756 51.6654C53.329 51.6328 54.3664 51.6808 55.2081 51.9095C58.2307 52.647 60.7152 54.0175 62.624 55.9533C62.7885 56.12 62.9293 56.2929 63.0379 56.4279C63.1566 56.5753 63.2356 56.6753 63.3215 56.7706C63.483 56.9494 63.5864 56.9935 63.6202 57.0041C63.6688 56.9878 63.8561 56.8966 64.1418 56.4476C64.9722 55.1436 66.2987 54.1361 67.664 53.8761C68.3651 53.7425 69.1407 53.7988 69.8322 54.2081C70.5343 54.6238 71.0019 55.3152 71.2378 56.1656L71.3833 56.76C71.686 58.162 71.7008 59.6674 71.1756 61.1298C70.8574 62.0159 70.4809 62.9296 70.1309 63.809C69.7755 64.702 69.4387 65.5772 69.1696 66.4442C68.6281 68.1891 68.3995 69.7812 68.7754 71.2477C69.155 72.7271 69.398 74.2782 69.3182 75.6918C69.2393 77.089 68.8335 78.4936 67.7732 79.5021C66.5847 80.6767 64.6903 81.8219 62.5103 82.7559C60.3109 83.6982 57.7337 84.4642 55.1216 84.8377H55.1201C53.3341 85.092 51.4323 84.4869 50.1195 83.3594C49.8043 83.0885 49.5187 82.7796 49.2735 82.4406C49.2499 82.4382 49.2259 82.4368 49.2022 82.433L47.266 82.1191L47.1113 82.0948L47.1037 82.0903C46.4873 81.9906 44.1972 81.6212 41.9303 81.2412C39.9291 80.9056 37.7601 81.8245 35.6986 83.1274C34.2735 84.028 32.5642 84.7585 30.8936 84.9317C29.1988 85.1074 27.4213 84.7088 26.169 83.1896C25.5228 82.4054 25.1282 81.5846 24.9818 80.7515C23.9705 80.8485 23.0702 80.894 21.8113 80.894C18.7671 80.894 15.8328 80.6185 13.2582 79.9372C12.1322 81.164 10.2659 82.7122 8.35466 83.7612C7.25277 84.366 6.04009 84.859 4.88247 84.9787C3.69254 85.1018 2.43111 84.8314 1.53764 83.7476C-0.216751 81.6192 0.294854 78.9222 1.35872 76.9381C1.90532 75.9188 2.63935 74.9906 3.43901 74.265C3.8657 73.8779 4.33372 73.5292 4.82334 73.2552C4.43652 72.1751 4.22599 70.9701 4.22594 69.6313C4.22594 67.1347 4.22205 65.2371 4.77178 62.5596C5.015 60.7258 5.74839 56.2687 6.80052 52.7101L6.80203 52.7055C7.94019 48.9254 9.08569 46.2108 10.8095 42.9364C11.5249 41.5776 12.8531 40.8085 14.1892 40.7955ZM5.88471 75.3294C5.60996 75.4911 5.31178 75.711 5.00377 75.9905C4.39999 76.5383 3.83045 77.2552 3.4102 78.0389C2.54093 79.6604 2.46171 81.2058 3.3359 82.2662C3.58275 82.5654 3.95999 82.7325 4.6429 82.6619C5.35865 82.5879 6.25615 82.2556 7.23416 81.7188C8.55315 80.9948 9.84338 79.9922 10.7943 79.1063C9.99555 78.7689 9.24818 78.38 8.56694 77.9267C7.4911 77.2111 6.58711 76.3465 5.88471 75.3294ZM46.9658 82.0281C46.9679 82.0291 46.9717 82.0306 46.9764 82.0327L46.9703 82.0297L46.9627 82.0266L46.9658 82.0281ZM33.3287 57.976C33.3287 52.6543 32.3461 48.3442 30.5191 45.3897V45.3912C30.1103 44.7302 29.1723 44.6537 28.6389 45.3836C27.4924 46.9538 26.2624 49.1544 24.8499 52.5206C24.4277 53.5266 23.4426 54.2049 22.3299 54.2051H18.3285C16.4749 54.2051 15.2885 52.4559 15.5871 50.8102C16.0693 48.1559 15.8291 45.8389 15.1914 43.878C15.0116 43.3252 14.6295 43.1203 14.2119 43.1244C13.7509 43.1289 13.1953 43.4032 12.87 44.0205C11.2116 47.1708 10.1251 49.7483 9.03243 53.3772C8.02207 56.7968 7.30633 61.1572 7.07647 62.9068L7.07041 62.9493L7.06131 62.9917C6.55609 65.4353 6.55489 67.1285 6.55489 69.6313C6.55503 72.6074 7.78844 74.6115 9.85726 75.9874V75.9889C12.5753 77.7976 16.8134 78.565 21.8113 78.565C23.1874 78.565 24.0858 78.5069 25.2532 78.3801C25.3802 78.0789 25.5383 77.7945 25.7187 77.5294C26.719 76.0593 28.4721 75.0687 30.0566 74.6971C30.6827 74.5503 31.3092 74.9384 31.4561 75.5644C31.6029 76.1904 31.2147 76.8168 30.5888 76.9639C29.4323 77.2351 28.2436 77.9589 27.6443 78.8395C27.3585 79.2596 27.2251 79.6833 27.244 80.1071C27.2629 80.5284 27.437 81.0664 27.9657 81.7082C28.5755 82.4479 29.4742 82.7373 30.654 82.6149C31.8582 82.49 33.2231 81.937 34.4537 81.1593C36.5976 79.8043 39.4105 78.4569 42.3155 78.9441C43.6193 79.1626 44.931 79.3788 45.9256 79.5415C46.4228 79.6228 46.8409 79.6903 47.1386 79.7386C47.2875 79.7628 47.4067 79.7827 47.4904 79.7962C47.5321 79.803 47.5655 79.8076 47.5889 79.8114L47.6253 79.8175H47.6268C47.6304 79.818 47.6338 79.8199 47.6375 79.8205L48.4138 79.9448C48.4055 79.4245 48.4923 78.8778 48.7019 78.3149C49.1796 77.0329 50.3106 76.1815 51.5206 75.8783L51.8738 75.7994C52.6915 75.6373 53.4588 75.6256 54.127 75.5871C54.5384 75.5635 54.9579 75.5278 55.4143 75.4537C54.6806 74.9288 53.8483 74.2568 53.1354 73.4447C51.8861 72.0217 50.8736 70.0211 51.5251 67.5738C51.6905 66.9523 52.3289 66.582 52.9504 66.7474C53.5715 66.9131 53.9406 67.5514 53.7752 68.1727C53.3984 69.5883 53.9227 70.8092 54.8866 71.9072C55.8673 73.0242 57.1724 73.8544 58.0237 74.3923L58.1935 74.5106C58.3686 74.6433 58.5518 74.8215 58.6848 75.061C58.8884 75.4279 58.9376 75.8785 58.7621 76.3058C58.6097 76.677 58.3375 76.909 58.1359 77.0427C57.9231 77.1838 57.6897 77.2801 57.4718 77.349C56.1712 77.761 55.1417 77.8608 54.2604 77.9115C53.358 77.9635 52.7641 77.9676 52.0876 78.1375C51.5003 78.2846 51.0529 78.6741 50.8837 79.1276C50.5371 80.0587 50.845 80.9124 51.6373 81.593C52.464 82.303 53.6989 82.6882 54.7911 82.533L55.6887 82.3875C57.7758 82.0109 59.8197 81.3747 61.593 80.615C63.639 79.7384 65.2395 78.7335 66.1371 77.8463L66.1584 77.8251C66.631 77.3819 66.9324 76.6485 66.9938 75.5598C67.0472 74.613 66.9117 73.5054 66.6436 72.3333L66.5192 71.8269C65.9856 69.7462 66.3536 67.661 66.9453 65.7543C67.243 64.7953 67.6086 63.8488 67.9672 62.9477C68.3311 62.0335 68.6826 61.1797 68.9831 60.3428C69.3765 59.2476 69.3393 58.0336 68.9937 56.7888C68.8835 56.3914 68.7276 56.2591 68.6465 56.2111C68.5547 56.1568 68.3853 56.1096 68.0991 56.1641C67.5661 56.2658 66.8695 56.6904 66.3282 57.3847L66.1068 57.6985C65.5147 58.629 64.7224 59.2923 63.7233 59.3345C62.7661 59.3748 62.0357 58.8223 61.593 58.3323V58.3308C61.4513 58.1737 61.3193 58.0058 61.2245 57.888L60.9667 57.5893C59.3951 55.9951 57.309 54.819 54.6561 54.1717L54.6379 54.1672L54.6182 54.1626C54.1162 54.0218 53.3467 53.9619 52.3469 53.9928C51.3681 54.0232 50.2537 54.1368 49.1037 54.29C47.9557 54.4429 46.7919 54.6333 45.7164 54.8146C44.6517 54.9941 43.6539 55.1677 42.8749 55.2801C41.2305 55.5171 39.5593 55.7605 38.123 55.7638H35.6C35.6376 56.4861 35.6576 57.2244 35.6576 57.976C35.6572 58.6188 35.136 59.1405 34.4932 59.1405C33.8506 59.1401 33.3291 58.6186 33.3287 57.976Z" fill="#1A1A1A"/>
</svg>
