<svg width="75" height="86" viewBox="0 0 75 86" fill="none" xmlns="http://www.w3.org/2000/svg">
<path d="M7.71479 63.1501L2.44832 66.3361L1.55273 60.7824L8.49517 52.3656H25.8525L29.7561 51.2368L34.1819 53.6667L37.1928 54.4337H39.6056L51.1065 53.2273L58.5057 54.4337L62.6069 56.1276L64.4343 56.671L68.3159 34.9342L70.6448 32.6052L72.9738 50.4605L69.2816 68.2009V76.7714L67.6745 79.2851L65.2617 81.215L59.4022 83.9492H53.65L52.3048 82.6202L51.4001 80.5427L47.0969 80.33L39.6056 81.215L30.9998 83.9492H29.4863L26.8488 80.4138L13.2256 79.2851L7.13507 83.8902L3.14191 82.7195L3.81183 78.8721L7.13507 74.3291L6.61896 67.1761L7.71479 63.1501Z" fill="#DC3412"/>
<path d="M24.2559 73.0187C22.932 72.9147 21.2763 73.0079 19.9711 73.1336C19.2009 73.2097 18.6335 73.913 19.0934 74.5341C19.803 75.4952 21.1864 76.2621 22.2099 76.6907C22.5361 76.8288 22.9071 76.8351 23.215 76.6612C24.0086 76.2125 24.6475 75.4315 25.1024 74.6878C25.551 73.9549 25.1125 73.0839 24.2559 73.0187Z" fill="#1A1A1A"/>
<path d="M69.5546 31.5063C71.1098 31.2698 72.1755 32.5445 72.5295 34.04C73.3945 37.694 73.9852 42.5055 74.0624 47.2828C74.1392 52.0429 73.7074 56.8815 72.4597 60.5423C71.8769 62.2519 71.2887 64.2035 70.9541 66.1433C70.6174 68.0955 70.5542 69.9496 70.9511 71.4972C71.3304 72.9761 71.5735 74.5253 71.4939 75.9383C71.4145 77.3455 71.0041 78.7622 69.9276 79.7728L69.9261 79.7713C68.7362 80.9386 66.8514 82.0744 64.6844 83.0024C62.4849 83.9444 59.908 84.7108 57.2958 85.0842C55.5092 85.3396 53.6066 84.7353 52.2937 83.6074C51.9785 83.3366 51.6928 83.0276 51.4476 82.6886C51.424 82.6862 51.4001 82.6849 51.3764 82.681L51.3885 82.6052H51.387L51.3764 82.681L49.5326 82.3808H49.5144L49.4113 82.3626C49.4068 82.3619 49.3722 82.3561 49.2915 82.3429C49.208 82.3292 49.0889 82.3096 48.9398 82.2853C48.6418 82.2367 48.2232 82.1682 47.7253 82.0866C46.729 81.9235 45.4127 81.707 44.1045 81.4877C42.353 81.1955 40.474 81.8636 38.6506 82.9069L37.8727 83.3754C36.4478 84.2759 34.7396 85.005 33.0693 85.1782C31.3743 85.354 29.5956 84.9568 28.3431 83.4376C27.6966 82.6533 27.3022 81.8315 27.1559 80.998C26.1449 81.0949 25.2443 81.1405 23.9855 81.1405C20.9413 81.1405 18.0071 80.8662 15.4323 80.1853C14.3062 81.4121 12.4401 82.9604 10.5288 84.0092C9.4269 84.6139 8.21435 85.1073 7.05663 85.2268C5.94106 85.3418 4.76345 85.1106 3.88465 84.1881L3.71332 83.9941C1.95858 81.8656 2.46883 79.1687 3.53288 77.1846C4.07946 76.1655 4.81363 75.2386 5.61317 74.513C6.03982 74.1258 6.508 73.7774 6.99749 73.5032C6.61048 72.4228 6.40011 71.2171 6.4001 69.8778C6.4001 68.711 6.40059 67.6755 6.4562 66.6301C6.38546 66.6796 6.31496 66.7295 6.24241 66.7756C5.57977 67.1972 4.76942 67.5171 3.86797 67.4792C2.93975 67.4399 2.06774 67.0267 1.30249 66.2616C0.725904 65.6849 0.477716 64.9308 0.409424 64.195C0.341302 63.4607 0.441915 62.6637 0.641409 61.8706C1.04092 60.2825 1.88823 58.5094 2.97187 56.8837C4.05685 55.256 5.42602 53.7059 6.92168 52.5988C8.39637 51.5072 10.146 50.7382 11.9313 50.984L12.2831 51.0416C13.0993 51.1965 13.8797 51.4811 14.5181 51.692C15.3024 51.9512 15.934 52.1257 16.5453 52.1257H23.2562C24.4512 52.1257 25.6544 51.6501 26.9831 51.0158C27.9691 50.5432 29.2187 50.1288 30.5341 50.1288C31.119 50.1288 31.7639 50.3488 32.3445 50.6064C32.9608 50.8798 33.6489 51.2614 34.3611 51.7148C35.225 52.2647 36.1521 52.938 37.0706 53.6844H40.2927C41.5295 53.6815 43.0208 53.4677 44.7155 53.2219H44.717C45.4601 53.1147 46.4137 52.9492 47.5039 52.7655C48.5838 52.5836 49.78 52.3871 50.97 52.2288C52.1574 52.0708 53.3593 51.947 54.4498 51.9134C55.503 51.881 56.5407 51.929 57.3822 52.1575C59.9848 52.7912 62.1871 53.8981 63.9672 55.4281C64.0658 54.9933 64.1745 54.4775 64.2841 53.8891C64.5624 52.3961 64.8657 50.4834 65.1802 48.3457C65.8101 44.0657 66.478 38.9531 67.0862 34.5797C67.2944 33.0823 68.1479 31.7207 69.5546 31.5063ZM8.05886 75.5759C7.78414 75.7378 7.48581 75.9576 7.17793 76.237C6.57417 76.7849 6.0061 77.502 5.58587 78.2854C4.71626 79.9069 4.63579 81.4521 5.51006 82.5127L5.60862 82.6188C5.85575 82.8511 6.22037 82.9717 6.81858 82.9099C7.53416 82.836 8.43052 82.5034 9.40832 81.9668C10.7277 81.2428 12.0189 80.2405 12.97 79.3544C12.1712 79.0171 11.4239 78.6295 10.7426 78.1762C9.66636 77.4598 8.76146 76.5937 8.05886 75.5759ZM53.6993 67.8203C53.8648 67.199 54.5031 66.8301 55.1245 66.9955C55.7457 67.1609 56.1159 67.798 55.9509 68.4192L53.6993 67.8203ZM8.72904 69.8778C8.72909 72.8542 9.96333 74.8593 12.0329 76.237C14.7507 78.0452 18.9875 78.8115 23.9855 78.8115C25.3621 78.8115 26.2609 78.7535 27.4289 78.6266C27.5558 78.326 27.7128 78.042 27.8928 77.7775C28.8931 76.3073 30.6465 75.316 32.2308 74.9436C32.8568 74.7965 33.483 75.185 33.6303 75.8109C33.7774 76.4367 33.3901 77.0629 32.7645 77.2104C31.6075 77.4823 30.4178 78.2066 29.8185 79.0875C29.5325 79.5078 29.4008 79.9315 29.4197 80.3551C29.4385 80.7762 29.6109 81.3146 30.1399 81.9562C30.7495 82.6957 31.6486 82.9836 32.8282 82.8614C34.0325 82.7365 35.3987 82.1836 36.6294 81.4058L37.4633 80.9024C39.3337 79.8273 41.5978 78.9066 43.9468 79.1209L44.4896 79.1906C46.7877 79.5758 49.1527 79.9607 49.7085 80.0518H49.7206L49.8131 80.067L50.5894 80.1928C50.581 79.6721 50.6663 79.1247 50.876 78.5614C51.3537 77.2791 52.4863 76.4278 53.6962 76.1248L54.0495 76.0459C54.8664 75.8846 55.6331 75.8721 56.3011 75.8336C56.7128 75.81 57.1331 75.7743 57.5899 75.7002C56.8563 75.1756 56.0239 74.5047 55.311 73.6927C54.0616 72.2696 53.0479 70.2682 53.6993 67.8203L54.8243 68.1205L55.9509 68.4192C55.574 69.8356 56.0972 71.0575 57.0608 72.1552C58.0413 73.2721 59.3471 74.102 60.1979 74.6388C60.4165 74.7767 60.6815 74.9892 60.859 75.309C61.0626 75.6761 61.1128 76.1254 60.9378 76.5523C60.7857 76.9234 60.5128 77.1553 60.3116 77.2892C60.0992 77.4305 59.8666 77.5292 59.649 77.5986H59.6475C58.3473 78.0096 57.3172 78.1088 56.4361 78.1596C55.5337 78.2115 54.9387 78.2147 54.2618 78.384C53.6742 78.5311 53.2283 78.9222 53.0594 79.3756C52.7132 80.3064 53.0194 81.1604 53.8115 81.841C54.6384 82.5514 55.8747 82.9356 56.9668 82.7796C59.3612 82.4372 61.7405 81.7295 63.7671 80.8615C65.8132 79.9852 67.4136 78.9815 68.3113 78.0944L68.3219 78.0853L68.3325 78.0747C68.8057 77.6305 69.1065 76.8961 69.168 75.8079C69.229 74.7258 69.0435 73.4337 68.6949 72.0749C68.1821 70.075 68.2956 67.8518 68.6585 65.7476C69.0236 63.6311 69.6566 61.546 70.2551 59.7903L70.4583 59.1595C71.4298 55.9327 71.8038 51.6796 71.7334 47.3207C71.6586 42.6884 71.084 38.0461 70.2627 34.5767C70.1538 34.1166 69.996 33.9108 69.9185 33.8398C69.9062 33.8285 69.8954 33.8222 69.8882 33.8171C69.8588 33.8323 69.7999 33.8724 69.7244 33.9717C69.6011 34.1341 69.4577 34.4312 69.3924 34.9012C68.7886 39.2426 68.1161 44.3962 67.4849 48.6853C67.1691 50.8318 66.8602 52.7795 66.5737 54.3167C66.4305 55.0845 66.2904 55.7613 66.1552 56.3151C66.0254 56.8466 65.8833 57.3382 65.72 57.6903C65.5907 57.9687 65.3308 58.3063 64.8755 58.4484C64.4551 58.5794 64.0925 58.4707 63.8975 58.3878C63.5389 58.2351 63.2593 57.9572 63.1424 57.8389L63.1409 57.8374C61.5692 56.2431 59.4834 55.0669 56.8318 54.4213L56.8121 54.4167L56.7939 54.4107C56.2918 54.2698 55.5221 54.2101 54.5226 54.2408C53.5435 54.271 52.4282 54.385 51.2778 54.538C50.1299 54.6908 48.966 54.88 47.8905 55.0611C46.8264 55.2404 45.8293 55.4142 45.0506 55.5266C43.4056 55.7652 41.735 56.0099 40.2987 56.0133H39.6361C40.7545 57.1522 41.7601 58.3736 42.4396 59.5689C43.2383 60.9736 43.8021 62.729 42.9294 64.2405C42.3292 65.2798 41.2807 66.0377 40.1395 66.5088C38.984 66.9857 37.6316 67.2124 36.2883 67.1077C33.6396 66.901 30.9498 65.3766 30.0049 61.9327L29.9185 61.5931L29.8973 61.4748C29.8227 60.8896 30.2018 60.3317 30.7888 60.1951C31.3759 60.0586 31.9622 60.3921 32.1535 60.9502L32.1868 61.0655L32.3112 61.5218C32.999 63.7188 34.6838 64.647 36.4702 64.7863C37.4467 64.8624 38.4322 64.6936 39.251 64.3557C40.0839 64.0119 40.6469 63.5363 40.9128 63.076C41.1225 62.7128 41.1348 61.9849 40.4155 60.7197C39.7372 59.5268 38.586 58.1893 37.2344 56.917C35.8919 55.6533 34.4061 54.5048 33.1102 53.6798C32.4615 53.2669 31.8786 52.9476 31.3999 52.7352C30.8863 52.5074 30.6118 52.4578 30.5341 52.4577C29.6873 52.4577 28.7918 52.7314 27.9899 53.1158L27.9883 53.1173C26.645 53.7587 25.0232 54.4546 23.2562 54.4546H16.5453C15.524 54.4546 14.5771 54.1637 13.7872 53.9027C12.9429 53.6238 12.288 53.3835 11.6129 53.2902V53.2917C10.6919 53.1649 9.55644 53.5455 8.30753 54.4698C7.07953 55.3788 5.88567 56.7112 4.90963 58.1755C3.93217 59.642 3.21935 61.1721 2.90061 62.4392C2.74111 63.0733 2.6918 63.592 2.72776 63.9797C2.76356 64.3655 2.87344 64.5391 2.94913 64.615L3.10379 64.759C3.4547 65.0612 3.74292 65.1422 3.96501 65.1517C4.24535 65.1636 4.58764 65.0675 4.99151 64.8106C5.82771 64.2785 6.60836 63.2613 7.06724 62.4331H7.06876C7.20911 62.1805 7.45403 61.9601 7.78442 61.8706C8.09849 61.7856 8.38706 61.8451 8.59561 61.9449C8.95111 62.1152 9.30612 62.5409 9.25215 63.1033L9.2567 63.1048C9.25193 63.1589 9.24345 63.2086 9.24305 63.2109C9.24024 63.2279 9.23686 63.2464 9.23395 63.2625C9.22802 63.2952 9.21946 63.3359 9.21121 63.3792C9.20192 63.428 9.19078 63.4841 9.17937 63.543C8.73488 65.8278 8.72904 67.4801 8.72904 69.8778Z" fill="#1A1A1A"/>
<path d="M30.555 69.1102C30.9587 68.6224 31.6672 68.5656 32.1374 68.9844C32.6074 69.4032 32.6607 70.1383 32.2572 70.6261C31.0284 72.1112 29.6077 72.5449 28.296 72.2846C27.0898 72.0451 26.145 71.2539 25.628 70.6201C25.2276 70.1293 25.2864 69.3952 25.7595 68.9798C26.2325 68.5644 26.94 68.6255 27.3404 69.1163C27.6375 69.4804 28.1619 69.8866 28.7168 69.997C29.1666 70.0863 29.8006 70.0219 30.555 69.1102Z" fill="#1A1A1A"/>
<path d="M14.9153 69.1101C14.5116 68.6223 13.8031 68.5654 13.3328 68.9843C12.8628 69.4031 12.8095 70.1382 13.213 70.626C14.4418 72.1111 15.8626 72.5448 17.1742 72.2845C18.3804 72.045 19.3252 71.2538 19.8423 70.62C20.2426 70.1292 20.1838 69.3951 19.7108 68.9797C19.2377 68.5643 18.5302 68.6254 18.1298 69.1161C17.8327 69.4803 17.3083 69.8865 16.7534 69.9969C16.3036 70.0862 15.6696 70.0217 14.9153 69.1101Z" fill="#1A1A1A"/>
</svg>
