<svg width="75" height="86" viewBox="0 0 75 86" fill="none" xmlns="http://www.w3.org/2000/svg">
<path d="M3.29102 53.4842C3.7002 49.1371 13.7199 46.5288 25.6703 47.6466C37.6209 48.78 46.9775 53.2203 46.5682 57.5674C46.1586 61.9145 36.1389 64.5228 24.1888 63.3894C16.2137 62.6442 9.39567 60.424 5.86269 57.7226L7.30015 55.7975L3.91725 55.7199C3.44455 54.9902 3.22066 54.2449 3.29102 53.4842Z" fill="#383838"/>
<path d="M3.28998 53.4832C3.68716 49.2722 13.1039 46.6927 24.5563 47.5519L25.6708 47.6459C37.6204 48.7793 46.9766 53.2194 46.5687 57.5662L44.2487 57.3494C44.2635 57.1783 44.2252 56.7286 43.4784 55.953C42.7376 55.1767 41.5041 54.3382 39.7559 53.4998C36.2777 51.8542 31.2295 50.5182 25.4525 49.9748C19.6752 49.4314 14.4659 49.8052 10.7412 50.7677C8.86895 51.2645 7.49708 51.869 6.62587 52.4901C6.06234 52.8882 5.80902 53.2097 5.69637 53.4301L7.34613 53.468L8.75327 53.4998L10.0239 56.0303L9.22636 57.1007C12.6342 58.9168 18.0258 60.478 24.4077 61.0761C30.1848 61.6194 35.3944 61.2472 39.119 60.2846C40.9912 59.7878 42.3616 59.1818 43.2328 58.5608C44.112 57.9398 44.234 57.5046 44.2487 57.3494L46.5687 57.5662C46.171 61.777 36.7556 64.3569 25.3039 63.4837L24.1894 63.3897C16.2144 62.6445 9.39624 60.4236 5.86317 57.7223L7.30064 55.7968L3.91773 55.7195C3.44503 54.9898 3.21962 54.2439 3.28998 53.4832Z" fill="#1A1A1A"/>
<path d="M37.827 57.1016C26.742 59.1199 16.2035 56.1544 12.2947 54.1051C11.7352 53.8101 11.6116 53.096 11.9696 52.5836L18.4281 43.1751L25.4298 32.9905C25.496 32.8818 25.5831 32.8042 25.6845 32.7576L34.8093 27.541C35.2034 27.3082 35.7058 27.4634 35.8979 27.8826L39.8154 36.2663L34.7099 33.5649C34.3795 33.3942 33.9714 33.4873 33.7392 33.7823L30.8975 37.3531C30.7716 37.5083 30.7126 37.7101 30.7333 37.9119L31.5197 45.6282C31.5339 45.768 31.5846 45.8922 31.6668 46.0008L38.5142 55.3161C39.0109 55.9837 38.6513 56.9463 37.827 57.1016Z" fill="#383838"/>
<path d="M34.9604 51.6057C27.5749 52.9719 18.8523 50.7053 15.1787 49.3235C15.0533 49.2614 14.915 49.3079 14.8298 49.4165L11.6842 53.2204C11.5595 53.3757 11.6046 53.6084 11.7776 53.7016L16.4846 56.2167C16.5116 56.2322 16.5406 56.2323 16.5706 56.2478L27.34 58.3592C27.3759 58.3747 27.4127 58.3748 27.4489 58.3748L38.1824 56.667C38.4091 56.636 38.5198 56.3719 38.388 56.1856L35.2733 51.7454C35.2031 51.6367 35.0809 51.5902 34.9604 51.6057Z" fill="#7C2BDA"/>
<path d="M34.2165 26.5401C35.2014 25.9581 36.4688 26.3475 36.952 27.3922L36.9535 27.3907L40.8701 35.7735C41.0818 36.2265 40.9803 36.7642 40.6184 37.1092C40.3019 37.411 39.8482 37.5067 39.4433 37.37L39.2735 37.2973L34.4971 34.7819L32.2271 37.9947L31.8845 45.3693L39.3008 54.5526L39.4812 54.8089C40.283 56.1255 39.5975 57.9602 37.9497 58.2627L37.648 56.6131L37.739 57.118L37.9497 58.2627L37.9452 58.2642C26.9729 60.2369 16.5363 57.4801 12.1572 55.341L11.7523 55.1364L11.7508 55.1348L12.2952 54.1054L12.5317 53.6551L11.7508 55.1348C10.4941 54.4717 10.3121 52.9338 11.0108 51.9251H11.0093L24.4697 32.3318L24.4712 32.3334C24.6293 32.0925 24.8437 31.8909 25.108 31.7496L25.1065 31.7466L34.2165 26.5401ZM26.3378 33.7252L12.9896 53.1517C16.7899 55.0833 26.853 57.8692 37.4615 55.9824L29.98 46.7171C29.9741 46.7098 29.969 46.7018 29.9633 46.6944L30.8518 46.0121L30.8852 45.9864L29.9633 46.6944C29.6873 46.3351 29.5285 45.8822 29.5508 45.4041L29.9072 37.7809C29.9246 37.4011 30.0489 37.0527 30.2529 36.756L30.2605 36.7439L32.7958 33.1566C33.3729 32.3328 34.4521 32.116 35.2962 32.5714H35.2946L37.2962 33.6251L35.0217 28.7598L26.3378 33.7252ZM38.3061 55.3577L37.5343 55.9824L38.3955 55.2849L38.3061 55.3577ZM11.9691 52.5847L12.7955 53.1502L11.8933 52.5316L11.9691 52.5847ZM34.7427 33.5963L34.3879 34.271H34.3864H34.3879L34.7867 33.5114L34.7427 33.5963ZM33.7889 33.8586L34.3803 34.2665L33.7283 33.8162L33.7889 33.8586Z" fill="#1A1A1A"/>
</svg>
