<svg width="75" height="86" viewBox="0 0 75 86" fill="none" xmlns="http://www.w3.org/2000/svg">
<path d="M6.53684 59.3885C-5.86403 43.2535 7.67181 37.751 16.8525 36.1999C17.281 36.127 17.7127 36.1099 18.1474 36.1347L64.0727 38.8022C68.049 39.2633 69.7973 39.1344 71.1527 40.6373C73.2301 42.943 71.9803 46.0498 69.4076 47.7856C68.0521 48.6986 67.5739 50.5928 68.5055 51.9343C69.7926 53.7865 71.4229 55.5457 72.4709 57.6744C73.2891 59.3388 72.7612 61.351 71.2925 62.4828C70.6636 62.9673 70.0767 63.3011 69.4991 63.5619C67.2245 64.5898 65.2822 66.7308 66.4048 68.9604C67.0507 70.2444 67.9822 70.9634 68.7306 72.1682C77.5123 86.2925 33.003 84.0303 11.4059 80.8288C6.33655 80.0758 0.694284 76.41 2.72513 71.704C3.52628 69.847 4.98265 68.2664 6.43126 66.7976C8.45744 64.7435 8.29442 61.6755 6.53684 59.3885Z" fill="white"/>
<path d="M18.213 34.9716L64.14 37.6402L64.1733 37.6417L64.2067 37.6448L66.7843 37.9131C67.5563 37.9929 68.2373 38.0742 68.816 38.1861C70.0743 38.4292 71.1155 38.8578 72.0168 39.857L71.0813 40.7015L71.1526 40.6378L72.0184 39.8585C73.3476 41.3343 73.6202 43.1134 73.1419 44.7514C72.6769 46.3434 71.5242 47.7628 70.0594 48.7512C69.1698 49.3504 68.9493 50.5313 69.462 51.2697L69.9441 51.9414C70.436 52.606 70.9563 53.2609 71.5104 54.0035C72.224 54.9598 72.9436 56.0001 73.5149 57.1603L71.4255 58.1883C70.9488 57.2201 70.3292 56.3153 69.6439 55.3969C68.9841 54.5127 68.2037 53.5409 67.5485 52.5979C66.1987 50.6537 66.9349 48.0464 68.7554 46.8196C69.8628 46.0724 70.6215 45.0708 70.9054 44.0994C71.1757 43.174 71.0343 42.2468 70.2868 41.4172C69.833 40.9141 69.3229 40.6558 68.3748 40.4726C67.3331 40.2712 66.0491 40.2012 63.9853 39.9631L18.0796 37.2976C17.7199 37.2771 17.3778 37.2916 17.0485 37.3476C14.8114 37.7256 12.3321 38.3415 10.0708 39.2838C7.80011 40.2302 5.82279 41.4752 4.49707 43.0699C3.20001 44.6301 2.49024 46.5635 2.7822 49.0393C3.07992 51.5626 4.43039 54.7363 7.45981 58.6781C9.4841 61.3125 9.78745 65.0521 7.25966 67.6148C5.80609 69.0886 4.49835 70.5314 3.79353 72.165C3.39395 73.091 3.38657 73.9147 3.6222 74.6578C3.86523 75.4236 4.39216 76.1789 5.17786 76.8806C6.76395 78.297 9.21587 79.3258 11.5764 79.6765C22.3283 81.2704 38.7674 82.627 51.3868 81.8341C57.7386 81.435 62.9348 80.4995 65.9731 78.9002C67.481 78.1064 68.2819 77.24 68.5674 76.365C68.8422 75.5222 68.7313 74.3766 67.741 72.7837L69.7197 71.554C70.9241 73.4914 71.3436 75.3642 70.7811 77.0883C70.2289 78.7804 68.8244 80.0305 67.0572 80.9608C63.5449 82.8095 57.9097 83.7578 51.5324 84.1585C38.6936 84.9651 22.0802 83.5888 11.2352 81.9812C8.52657 81.5788 5.62132 80.3978 3.62675 78.6167C2.62259 77.7198 1.80306 76.6294 1.4009 75.3613C0.991451 74.0701 1.04005 72.67 1.65563 71.2432C2.55312 69.1629 4.15878 67.444 5.60241 65.9803C7.12683 64.4349 7.10361 62.0369 5.61302 60.0973C2.44261 55.9721 0.83506 52.4069 0.469931 49.3123C0.0993746 46.1705 1.02223 43.6068 2.70639 41.5809C4.36196 39.5895 6.71471 38.1596 9.17619 37.1338C11.6468 36.1043 14.3046 35.4511 16.6573 35.0535C17.1841 34.9639 17.7043 34.9426 18.213 34.9716ZM73.5149 57.1603C74.592 59.3513 73.8844 61.956 72.0032 63.4057C71.2973 63.9495 70.6306 64.3268 69.9775 64.6217L69.979 64.6233C68.9808 65.0743 68.1225 65.744 67.6455 66.4579C67.2523 67.0468 67.1383 67.6136 67.3392 68.1895L67.4454 68.4366L67.6516 68.8096C67.8708 69.1676 68.1275 69.4912 68.4249 69.8497C68.8085 70.3122 69.2931 70.8671 69.7197 71.554L67.741 72.7837C67.4194 72.2659 67.0633 71.8562 66.6327 71.3372C66.2153 70.834 65.7488 70.25 65.3636 69.4843C64.5744 67.9167 64.8998 66.3747 65.7093 65.163C66.4915 63.9923 67.7429 63.0773 69.0192 62.5005C69.5211 62.2739 70.0294 61.9853 70.581 61.5605C71.6372 60.7465 71.9847 59.3261 71.4255 58.1883L73.5149 57.1603Z" fill="#1A1A1A"/>
<path d="M57.7303 33.6721C40.5846 21.3286 25.3284 27.8358 16.7191 35.5834C13.6728 38.3253 12.041 42.5702 13.5331 46.3881C17.5311 56.62 31.3449 59.3868 38.8161 59.3868C49.905 58.9924 56.8546 54.1342 60.8604 49.026C64.6892 44.1461 62.7639 37.2975 57.7303 33.6721Z" fill="#FFD966"/>
<path d="M33.8506 25.9424C41.2004 24.8427 49.6049 26.3881 58.4107 32.7275C63.8236 36.6264 66.1236 44.2031 61.7768 49.7443C57.5729 55.1051 50.3104 60.1431 38.8573 60.5506L38.8148 59.3649V59.3861L38.8573 60.5506H38.8148C34.9621 60.5505 29.4883 59.8418 24.4363 57.8047C19.3893 55.7695 14.6079 52.3413 12.4474 46.8119C10.7291 42.4147 12.6471 37.6818 15.9393 34.7184C20.366 30.7347 26.5353 27.0368 33.8506 25.9424ZM57.0491 34.6168C48.7093 28.6129 40.9119 27.2406 34.1948 28.2455C27.4439 29.2557 21.6804 32.6848 17.498 36.4484C14.6978 38.9688 13.3515 42.7259 14.6171 45.9643C16.4545 50.6666 20.5796 53.7378 25.3066 55.644C30.0242 57.5463 35.1878 58.2189 38.8057 58.2201C49.5115 57.8306 56.1398 53.1576 59.9436 48.3069L60.2393 47.9066C63.0593 43.8449 61.6559 38.2402 57.4767 34.9397L57.0491 34.6168Z" fill="#1A1A1A"/>
<path d="M42.2961 46.2979C42.5151 45.8682 43.0412 45.6962 43.4709 45.915C43.4718 45.9155 43.4735 45.9167 43.4758 45.918C43.4813 45.9207 43.4911 45.9257 43.5032 45.9316C43.5274 45.9435 43.5649 45.9606 43.6116 45.9824C43.7054 46.0264 43.837 46.0871 43.9875 46.1484C44.3099 46.2799 44.6411 46.3868 44.8645 46.4131C45.0782 46.4381 45.4112 46.4144 45.7424 46.3682C45.8972 46.3465 46.0351 46.3232 46.1331 46.3047C46.1816 46.2955 46.2209 46.2875 46.2463 46.2822C46.2582 46.2798 46.2669 46.2766 46.2727 46.2754C46.2753 46.2748 46.2782 46.2755 46.2795 46.2754C46.7505 46.1712 47.2173 46.4685 47.3215 46.9395C47.4253 47.41 47.1279 47.8751 46.6575 47.9795L46.6526 47.9814C46.6499 47.982 46.6453 47.9834 46.6409 47.9844L46.4573 48.0205C46.339 48.0428 46.174 48.0723 45.9856 48.0986C45.6296 48.1483 45.109 48.2002 44.6604 48.1475C44.1894 48.092 43.6759 47.9064 43.3284 47.7646C43.1445 47.6897 42.9843 47.6188 42.8704 47.5654C42.8137 47.5389 42.7673 47.516 42.7346 47.5C42.7183 47.492 42.7039 47.4852 42.6946 47.4805C42.6903 47.4783 42.6865 47.4769 42.6838 47.4756L42.679 47.4717L42.5295 47.377C42.2118 47.1241 42.1052 46.6739 42.2961 46.2979ZM45.22 42.3076C46.1845 42.3078 46.9661 43.0901 46.9661 44.0547C46.9658 45.0191 46.1843 45.8006 45.22 45.8008C44.2554 45.8008 43.4731 45.0192 43.4729 44.0547C43.4729 43.09 44.2553 42.3076 45.22 42.3076Z" fill="#1A1A1A"/>
<path d="M34.1697 46.2979C33.9507 45.8683 33.4246 45.6962 32.9949 45.915C32.994 45.9156 32.9923 45.9167 32.99 45.918C32.9845 45.9207 32.9748 45.9257 32.9627 45.9316C32.9384 45.9435 32.9008 45.9606 32.8543 45.9824C32.7604 46.0264 32.6288 46.0871 32.4783 46.1484C32.1559 46.2799 31.8248 46.3868 31.6013 46.4131C31.3876 46.4381 31.0546 46.4144 30.7234 46.3682C30.5688 46.3466 30.4317 46.3232 30.3337 46.3047C30.285 46.2955 30.245 46.2875 30.2195 46.2822C30.2076 46.2798 30.1989 46.2766 30.1931 46.2754C30.1904 46.2748 30.1875 46.2756 30.1863 46.2754C29.7154 46.1712 29.2485 46.4685 29.1443 46.9395C29.0405 47.4102 29.3386 47.8753 29.8093 47.9795L29.8142 47.9814C29.817 47.9821 29.8216 47.9834 29.8259 47.9844L30.0085 48.0205C30.1269 48.0429 30.2927 48.0723 30.4812 48.0986C30.8371 48.1483 31.3571 48.2001 31.8054 48.1475C32.2764 48.0921 32.7899 47.9064 33.1375 47.7646C33.3214 47.6897 33.4815 47.6188 33.5955 47.5654C33.6521 47.5389 33.6985 47.516 33.7312 47.5C33.7475 47.492 33.7619 47.4852 33.7712 47.4805C33.7754 47.4784 33.7793 47.4769 33.782 47.4756L33.7878 47.4717L33.9363 47.377C34.254 47.1241 34.3606 46.6739 34.1697 46.2979ZM31.2468 42.3076C30.2821 42.3076 29.4998 43.09 29.4998 44.0547C29.5 45.0192 30.2823 45.8008 31.2468 45.8008C32.2112 45.8005 32.9927 45.0191 32.9929 44.0547C32.9929 43.0902 32.2113 42.3079 31.2468 42.3076Z" fill="#1A1A1A"/>
<path d="M41.3262 51.8281H34.3262L37.8262 46.5781L41.3262 51.8281Z" fill="#FFAFA3"/>
<path d="M41.3259 52.9927C41.7551 52.9925 42.1498 52.7556 42.3524 52.3771C42.5546 51.9986 42.5327 51.5394 42.2947 51.1823L38.7937 45.9315C38.5777 45.608 38.2139 45.413 37.8249 45.413C37.4358 45.4132 37.0719 45.6079 36.856 45.9315L33.3565 51.1823C33.1184 51.5395 33.0965 51.9985 33.2989 52.3771C33.5015 52.7557 33.8959 52.9927 34.3254 52.9927H41.3259ZM37.8249 48.679L39.1501 50.6637H36.5012L37.8249 48.679Z" fill="#1A1A1A"/>
<path d="M44.2496 36.0181C47.2509 36.0181 49.6839 34.6454 49.6839 32.952C49.6839 31.2585 47.2509 29.8857 44.2496 29.8857C41.2484 29.8857 38.8154 31.2585 38.8154 32.952C38.8154 34.6454 41.2484 36.0181 44.2496 36.0181Z" fill="white"/>
</svg>
