<svg width="75" height="86" viewBox="0 0 75 86" fill="none" xmlns="http://www.w3.org/2000/svg">
<path d="M48.3986 38.5891L48.5322 38.6341L48.6719 38.6481C58.6584 39.5564 63.1517 43.8152 65.2493 48.2045C67.2103 52.3081 67.1684 56.6788 67.1435 59.2034C67.142 59.458 67.1389 59.694 67.1389 59.9098C67.1389 73.1367 53.9866 84.2302 37.257 84.2302C20.5289 84.2302 7.375 73.1367 7.375 59.9098C7.375 53.1295 10.03 45.194 16.371 40.266C22.6591 35.3783 32.8521 33.2387 48.3986 38.5891Z" fill="#FFC7C2"/>
<path d="M65.9792 59.1969L67.1437 59.2029L66.9769 59.2014L65.9792 59.1969V59.1923L65.9853 58.1704C65.9819 55.6311 65.8015 52.0592 64.1991 48.706C63.2307 46.6798 61.7155 44.691 59.2804 43.0944C56.8386 41.4934 53.4119 40.2479 48.5667 39.8072L48.6789 38.5729L48.6713 38.6488L48.5667 39.8072H48.5561L48.415 39.7935L48.2846 39.7799L48.0269 39.6919L48.0193 39.6904C32.712 34.4224 22.966 36.6142 17.0849 41.1854C11.0994 45.8374 8.5395 53.3878 8.5394 59.9095C8.5394 72.2912 20.9495 83.0655 37.257 83.0655C53.566 83.0655 65.9746 72.2912 65.9746 59.9095C65.9746 59.6903 65.9777 59.4388 65.9792 59.1969ZM68.3036 59.9095C68.3036 73.9815 54.4071 85.3944 37.257 85.3945C20.1085 85.3945 6.21045 73.9815 6.21045 59.9095C6.21056 52.8708 8.96073 44.5501 15.6566 39.3462C22.3506 34.1434 32.9881 32.0571 48.7683 37.4858L48.7744 37.4873L48.788 37.4888C53.9243 37.9572 57.733 39.2959 60.5571 41.1475C63.3895 43.0046 65.1714 45.3393 66.3006 47.7022C68.3912 52.0771 68.3329 56.7019 68.3081 59.2151C68.3065 59.4799 68.3036 59.6986 68.3036 59.9095Z" fill="#1A1A1A"/>
<path d="M18.1191 64.5437C18.1191 49.7435 30.5361 37.4636 48.2393 37.4636C48.8821 37.464 49.4038 37.9852 49.4038 38.6281C49.4038 39.271 48.8821 39.7922 48.2393 39.7926C31.651 39.7926 20.4481 51.1947 20.4481 64.5437C20.4477 65.1865 19.9265 65.7082 19.2836 65.7082C18.6407 65.7082 18.1195 65.1865 18.1191 64.5437Z" fill="#1A1A1A"/>
<path d="M48.0584 73.7686C54.6773 64.0166 54.0329 53.9321 52.4353 46.6208C52.0393 44.8073 53.2861 43.0064 55.0017 43.7144C59.2792 45.4781 63.5831 51.5349 64.0644 61.2295C64.125 62.4359 64.0256 63.6594 63.6483 64.8068C61.4296 71.5452 54.6804 75.8444 49.8579 77.512C46.9793 78.5072 46.3489 76.2901 48.0584 73.7686Z" fill="#FFAFA3"/>
<path d="M49.1129 38.628H42.9023L49.1129 27.022C51.0832 27.879 55.0237 29.646 55.0237 29.8664C53.6186 30.3804 50.4978 35.9202 49.1129 38.628Z" fill="#A55E40"/>
<path d="M48.209 26.2866C48.5325 25.8885 49.09 25.743 49.5767 25.9546C50.5671 26.3854 52.0559 27.0459 53.3006 27.6285C53.9206 27.9187 54.4942 28.1958 54.9184 28.4185C55.1266 28.5277 55.3229 28.6361 55.4764 28.7338C55.5485 28.7798 55.6465 28.8455 55.7387 28.9249C55.7826 28.9627 55.8607 29.0339 55.9373 29.1341C55.9863 29.1982 56.1875 29.4649 56.1875 29.8665C56.1875 30.3554 55.8825 30.7918 55.4233 30.9597C55.4649 30.9445 55.3985 30.9634 55.2141 31.1341C55.0477 31.2881 54.8436 31.5103 54.6076 31.8027C54.1364 32.3864 53.5997 33.1697 53.0459 34.0468C51.9411 35.7961 50.8316 37.825 50.1498 39.158C49.9507 39.5473 49.55 39.7918 49.1127 39.7918H42.9022C42.4929 39.7918 42.1134 39.5774 41.903 39.2262C41.6928 38.8751 41.6826 38.4393 41.8757 38.0784L48.0862 26.4731L48.209 26.2866ZM44.846 37.4628H48.4092C49.112 36.1263 50.0895 34.366 51.0763 32.8034C51.6513 31.8928 52.2433 31.0238 52.7957 30.3395C52.8693 30.2484 52.9458 30.1611 53.0201 30.0742C52.801 29.9684 52.5639 29.8548 52.3135 29.7376C51.4566 29.3365 50.4753 28.8979 49.6283 28.5231L44.846 37.4628Z" fill="#1A1A1A"/>
<path d="M25.6897 27.1975C37.9695 23.4914 43.1258 33.54 44.3213 38.5534L41.9846 38.3593C34.0801 37.7072 26.5251 34.8193 20.1981 30.0356C20.0522 29.9021 20.9464 29.1476 25.6897 27.1975Z" fill="#78B136"/>
<path d="M25.3537 26.0824C31.884 24.1118 36.6662 25.7932 39.9415 28.7404C43.1439 31.6223 44.8201 35.6293 45.453 38.2836C45.5395 38.6466 45.4474 39.0285 45.2044 39.3116C44.9611 39.5948 44.5969 39.7443 44.2249 39.7134L41.8884 39.5194C33.7637 38.849 25.9978 35.8813 19.495 30.9647C19.4661 30.9429 19.4383 30.9194 19.4116 30.895C19.1662 30.6705 19.0266 30.3581 19.0189 30.0307C19.0123 29.7464 19.1062 29.5274 19.169 29.4091C19.29 29.1812 19.4612 29.0207 19.5617 28.933C19.7903 28.7334 20.1199 28.5186 20.5397 28.2825C21.3993 27.7989 22.8593 27.1016 25.2461 26.1203L25.3537 26.0824ZM38.3828 30.4719C35.7189 28.075 31.7978 26.5859 26.0755 28.2976C24.2141 29.0641 22.9828 29.6341 22.1909 30.0413C28.0669 34.1328 34.9255 36.6092 42.0794 37.1995H42.0809L42.7208 37.2526C41.9586 35.0704 40.5664 32.4369 38.3828 30.4719Z" fill="#1A1A1A"/>
<path d="M30.7607 31.6737C33.9358 32.6969 36.8113 34.2402 38.9524 35.622C39.665 36.0831 40.5019 35.3596 39.9569 34.709C37.1994 31.4128 33.6206 30.4579 30.7902 30.4548C29.975 30.4533 29.9782 31.4206 30.7607 31.6737Z" fill="#538619"/>
<path d="M42.5054 60.9658H35.5054L39.0054 66.2158L42.5054 60.9658Z" fill="#FFAFA3"/>
<path d="M42.506 59.8013C42.9353 59.8015 43.33 60.0384 43.5325 60.4169C43.7348 60.7953 43.7129 61.2546 43.4749 61.6117L39.9739 66.8624C39.7579 67.1859 39.3941 67.381 39.005 67.381C38.616 67.3808 38.2521 67.186 38.0362 66.8624L34.5367 61.6117C34.2985 61.2545 34.2766 60.7954 34.4791 60.4169C34.6817 60.0382 35.0761 59.8013 35.5056 59.8013H42.506ZM39.005 64.115L40.3302 62.1302H37.6814L39.005 64.115Z" fill="#1A1A1A"/>
<path d="M48.2624 59.0678C48.763 59.6509 49.6416 59.7188 50.2247 59.2182C50.8076 58.7176 50.8737 57.839 50.3733 57.2559C48.8495 55.4809 47.0877 54.9625 45.4612 55.2737C43.9654 55.5598 42.7939 56.5055 42.1527 57.2631C41.6562 57.8497 41.7292 58.7271 42.3157 59.2236C42.9024 59.7201 43.7797 59.6471 44.2762 59.0605C44.6446 58.6253 45.2949 58.1398 45.983 58.0078C46.5408 57.9011 47.327 57.9781 48.2624 59.0678Z" fill="#1A1A1A"/>
<path d="M32.7517 59.0678C33.2523 59.6509 34.1309 59.7188 34.714 59.2182C35.2969 58.7176 35.3629 57.839 34.8626 57.2559C33.3388 55.4809 31.577 54.9625 29.9505 55.2737C28.4547 55.5598 27.2831 56.5055 26.6419 57.2631C26.1454 57.8497 26.2184 58.7271 26.805 59.2236C27.3916 59.7201 28.269 59.6471 28.7655 59.0605C29.1338 58.6253 29.7842 58.1398 30.4723 58.0078C31.03 57.9011 31.8162 57.9781 32.7517 59.0678Z" fill="#1A1A1A"/>
</svg>
