<svg width="75" height="86" viewBox="0 0 75 86" fill="none" xmlns="http://www.w3.org/2000/svg">
<path d="M58.6145 2.3288C60.1293 2.3288 61.4946 3.01192 62.4548 4.10336C63.0575 4.78959 64.062 5.11714 64.9613 4.96189C65.2385 4.91376 65.5228 4.88741 65.8125 4.88741C68.719 4.88896 71.0753 7.40093 71.0756 10.5014C71.0756 11.155 70.9697 11.7838 70.7762 12.3676C70.6276 12.8162 70.6276 13.3037 70.7762 13.7524C70.9698 14.3361 71.0756 14.9649 71.0756 15.6201C71.0754 18.719 68.7192 21.2326 65.8125 21.2326C64.9644 21.2326 64.1632 21.0184 63.4536 20.638C62.6978 20.2343 61.7278 20.2343 60.9718 20.638C60.2628 21.0184 59.4622 21.2326 58.6145 21.2326C57.9036 21.2326 57.226 21.082 56.6077 20.8088C55.9822 20.5324 55.2483 20.5324 54.6231 20.8088C54.4529 20.8833 54.2782 20.9501 54.0996 21.006C53.8335 21.0898 53.5838 21.2202 53.3658 21.3941C52.4878 22.0959 51.3986 22.5119 50.2171 22.5119C47.3103 22.5119 44.9528 19.9999 44.9525 16.8995C44.9525 16.651 44.8385 16.4151 44.6452 16.2598C43.3749 15.2351 42.5537 13.6096 42.5537 11.7807C42.5539 9.1507 44.2499 6.94299 46.539 6.33439C47.1743 6.16516 47.7339 5.7397 48.0442 5.1606C48.9506 3.46988 50.6579 2.3288 52.616 2.3288C53.3269 2.3288 54.0046 2.47935 54.6231 2.75105C55.2485 3.0274 55.982 3.02746 56.6074 2.75266C57.226 2.47941 57.9038 2.3288 58.6145 2.3288Z" fill="white"/>
<path d="M58.6149 3.49325C59.7677 3.49325 60.8229 4.01025 61.5806 4.87191L63.3299 3.3349C62.1671 2.01213 60.4917 1.16443 58.6151 1.16443L58.6149 3.49325ZM65.1611 6.10777C65.3728 6.07206 65.5905 6.05186 65.813 6.05186L65.8131 3.72304C65.4562 3.72304 65.1049 3.75403 64.7626 3.81458L65.1611 6.10777ZM65.813 6.05186C68.0071 6.05341 69.9113 7.9723 69.9115 10.5014H72.2406C72.2403 6.82963 69.4322 3.72459 65.8131 3.72304L65.813 6.05186ZM69.9115 10.5014C69.9115 11.0293 69.8261 11.5338 69.6711 12.0012L71.882 12.734C72.1143 12.0338 72.2406 11.2823 72.2406 10.5014H69.9115ZM69.6711 14.1189C69.8261 14.5862 69.9115 15.0907 69.9115 15.6201H72.2406C72.2406 14.8392 72.1143 14.0863 71.882 13.3861L69.6711 14.1189ZM69.9115 15.6201C69.9113 18.1477 68.0069 20.0683 65.8128 20.0683L65.813 22.3971C69.432 22.3955 72.2404 19.2904 72.2406 15.6201H69.9115ZM65.8128 20.0683C65.1636 20.0683 64.5506 19.9052 64.0039 19.6118L62.9044 21.6658C63.7767 22.1316 64.7661 22.3971 65.813 22.3971L65.8128 20.0683ZM60.4224 19.6118C59.8762 19.9052 59.2638 20.0683 58.6149 20.0683V22.3971C59.6615 22.3971 60.6504 22.1316 61.5222 21.6658L60.4224 19.6118ZM58.6149 20.0683C58.0709 20.0683 57.5532 19.9533 57.0784 19.7437L56.1379 21.8738C56.8998 22.2107 57.7372 22.3971 58.6149 22.3971V20.0683ZM54.1529 19.7437C54.0222 19.8012 53.8883 19.8525 53.7518 19.8944L54.4485 22.1175C54.6692 22.0477 54.8845 21.967 55.094 21.8738L54.1529 19.7437ZM52.6396 20.4843C51.9546 21.0323 51.1183 21.3475 50.2176 21.3475V23.6763C51.6798 23.6763 53.0221 23.1594 54.0931 22.3039L52.6396 20.4843ZM50.2176 21.3475C48.0231 21.3475 46.1178 19.427 46.1175 16.8995H43.7884C43.7887 20.5713 46.5984 23.6763 50.2176 23.6763V21.3475ZM45.377 15.3531C44.3817 14.5504 43.7187 13.2588 43.7187 11.7808H41.3896C41.3896 13.9605 42.3693 15.9183 43.9144 17.165L45.377 15.3531ZM43.7187 11.7808C43.7189 9.64445 45.0915 7.92424 46.839 7.45847L46.2402 5.20878C43.4091 5.96176 41.3898 8.65548 41.3896 11.7808H43.7187ZM49.0712 5.71025C49.7963 4.35798 51.1315 3.49325 52.6165 3.49325V1.16443C50.1854 1.16443 48.1059 2.58186 47.0182 4.61103L49.0712 5.71025ZM52.6165 3.49325C53.161 3.49325 53.6792 3.60811 54.154 3.8177L55.0932 1.68608C54.331 1.35073 53.4936 1.16443 52.6165 1.16443V3.49325ZM57.0776 3.8177C57.5524 3.60811 58.0705 3.49325 58.6149 3.49325L58.6151 1.16443C57.738 1.16443 56.9004 1.35073 56.1384 1.68608L57.0776 3.8177ZM54.154 3.8177C55.0785 4.22447 56.153 4.22447 57.0776 3.8177L56.1384 1.68608C55.8121 1.83047 55.4195 1.83047 55.0932 1.68608L54.154 3.8177ZM46.1175 16.8995C46.1175 16.294 45.8408 15.7273 45.377 15.3531L43.9144 17.165C43.8373 17.1029 43.7884 17.0066 43.7884 16.8995H46.1175ZM53.7518 19.8944C53.3522 20.0201 52.9735 20.2172 52.6396 20.4843L54.0931 22.3039C54.1953 22.2232 54.3158 22.1579 54.4485 22.1175L53.7518 19.8944ZM64.0039 19.6118C62.9044 19.0234 61.5219 19.0234 60.4224 19.6118L61.5222 21.6658C61.9346 21.4438 62.4919 21.4438 62.9044 21.6658L64.0039 19.6118ZM57.0784 19.7437C56.1533 19.3354 55.0779 19.3354 54.1529 19.7437L55.094 21.8738C55.4198 21.7294 55.8121 21.7294 56.1379 21.8738L57.0784 19.7437ZM46.839 7.45847C47.7672 7.21162 48.5998 6.59054 49.0712 5.71025L47.0182 4.61103C46.8688 4.89049 46.5822 5.11718 46.2402 5.20878L46.839 7.45847ZM69.6711 12.0012C69.4438 12.6874 69.4438 13.4326 69.6711 14.1189L71.882 13.3861C71.8123 13.1749 71.8123 12.9452 71.882 12.734L69.6711 12.0012ZM61.5806 4.87191C62.4663 5.87951 63.8856 6.32978 65.1611 6.10777L64.7626 3.81458C64.2395 3.90463 63.6497 3.6982 63.3299 3.3349L61.5806 4.87191Z" fill="#1A1A1A"/>
<path d="M41.1609 25.6453C42.4551 25.6453 43.5043 24.5962 43.5043 23.3021C43.5043 22.008 42.4551 20.9589 41.1609 20.9589C39.8666 20.9589 38.8174 22.008 38.8174 23.3021C38.8174 24.5962 39.8666 25.6453 41.1609 25.6453Z" fill="white"/>
<path d="M42.3403 23.3029C42.3403 22.6521 41.8128 22.1237 41.1621 22.1233C40.511 22.1233 39.9824 22.6518 39.9824 23.3029C39.9828 23.9536 40.5112 24.4809 41.1621 24.4809C41.8126 24.4805 42.3398 23.9533 42.3403 23.3029ZM44.6693 23.3029C44.6689 25.2395 43.0989 26.8093 41.1621 26.8098C39.2249 26.8098 37.6537 25.2398 37.6533 23.3029C37.6533 21.3657 39.2247 19.7945 41.1621 19.7945C43.0991 19.7949 44.6693 21.3659 44.6693 23.3029Z" fill="#1A1A1A"/>
<path d="M35.7273 30.303C36.5928 30.303 37.2944 29.6014 37.2944 28.736C37.2944 27.8706 36.5928 27.1691 35.7273 27.1691C34.8618 27.1691 34.1602 27.8706 34.1602 28.736C34.1602 29.6014 34.8618 30.303 35.7273 30.303Z" fill="white"/>
<path d="M36.1293 28.7368C36.1293 28.5147 35.9495 28.3339 35.7275 28.3335C35.5052 28.3335 35.3242 28.5144 35.3242 28.7368C35.3246 28.9587 35.5054 29.1385 35.7275 29.1385C35.9493 29.1381 36.1289 28.9585 36.1293 28.7368ZM38.4584 28.7368C38.458 30.2446 37.2356 31.4669 35.7275 31.4674C34.2191 31.4674 32.9955 30.2449 32.9951 28.7368C32.9951 27.2283 34.2189 26.0046 35.7275 26.0046C37.2358 26.005 38.4584 27.2285 38.4584 28.7368Z" fill="#1A1A1A"/>
<path d="M62.8815 13.9155C62.5285 13.9155 62.1983 13.8069 61.8908 13.5911C61.5834 13.3737 61.4297 13.0213 61.4297 12.5322C61.4297 12.1565 61.5266 11.8537 61.72 11.6271C61.9137 11.388 62.1357 11.211 62.3862 11.0976C62.6481 10.9827 62.8701 10.9269 63.0523 10.9269C63.2459 10.9269 63.4622 10.9718 63.7013 11.0634C63.9519 11.1426 64.1682 11.2963 64.3503 11.5245C64.5326 11.7403 64.6236 12.054 64.6236 12.4639C64.6236 12.8613 64.4528 13.2029 64.1112 13.4885C63.7811 13.7726 63.3712 13.9155 62.8815 13.9155Z" fill="#1A1A1A"/>
<path d="M56.6705 13.9155C56.3176 13.9155 55.9873 13.8069 55.6799 13.5911C55.3725 13.3737 55.2188 13.0213 55.2188 12.5322C55.2188 12.1565 55.3156 11.8537 55.5091 11.6271C55.7027 11.388 55.9248 11.211 56.1752 11.0976C56.4372 10.9827 56.6592 10.9269 56.8413 10.9269C57.035 10.9269 57.2512 10.9718 57.4904 11.0634C57.741 11.1426 57.9573 11.2963 58.1394 11.5245C58.3217 11.7403 58.4127 12.054 58.4127 12.4639C58.4127 12.8613 58.2419 13.2029 57.9003 13.4885C57.5702 13.7726 57.1603 13.9155 56.6705 13.9155Z" fill="#1A1A1A"/>
<path d="M50.4596 13.9155C50.1067 13.9155 49.7764 13.8069 49.469 13.5911C49.1615 13.3737 49.0078 13.0213 49.0078 12.5322C49.0078 12.1565 49.1047 11.8537 49.2982 11.6271C49.4918 11.388 49.7138 11.211 49.9643 11.0976C50.2262 10.9827 50.4483 10.9269 50.6304 10.9269C50.824 10.9269 51.0403 10.9718 51.2794 11.0634C51.53 11.1426 51.7463 11.2963 51.9285 11.5245C52.1107 11.7403 52.2017 12.054 52.2017 12.4639C52.2017 12.8613 52.0309 13.2029 51.6893 13.4885C51.3592 13.7726 50.9493 13.9155 50.4596 13.9155Z" fill="#1A1A1A"/>
</svg>
