<svg width="75" height="86" viewBox="0 0 75 86" fill="none" xmlns="http://www.w3.org/2000/svg">
<path d="M18.0694 36.0521C19.9018 30.8663 34.3591 28.2424 41.3589 27.5903C42.178 28.584 43.8167 31.5495 43.8167 35.3535C43.8167 40.1045 58.53 38.1793 59.4346 41.564C60.1583 44.2656 58.0365 46.8274 56.885 47.7745C58.8634 48.0074 63.0639 49.3738 64.04 53.0224C65.0162 56.6711 63.5123 60.3509 62.6383 61.7482C64.6407 63.5803 68.6453 64.4809 68.6453 69.5114C68.6453 73.5327 65.3684 80.4575 56.0308 82.9572C48.5604 84.9601 41.0667 83.1124 38.2534 81.9324C28.7273 83.0969 9.07127 83.1745 6.65631 74.1693C4.24135 65.1485 12.2237 59.0311 16.5168 57.0903C14.4466 56.8574 10.3062 55.2893 10.3062 50.8798C10.3062 46.4703 15.4816 44.9022 18.0694 44.6693C17.3058 43.9551 16.2368 41.2534 18.0694 36.0521Z" fill="#D4693B"/>
<path d="M17.7642 43.1318C19.1941 45.0105 22.8018 48.1313 26.7476 49.7461C28.1414 50.305 28.7379 52.6804 27.52 53.5654L22.9907 56.8574C20.7941 59.2174 16.401 64.7602 16.4009 68.0518C16.4009 79.4015 38.5562 74.1851 38.5562 79.1846C38.5558 82.8795 32.1786 82.7862 29.6187 83.0967L12.5024 80.3174L6.21045 74.4023L7.59814 64.3105L15.7407 57.6494L10.8364 53.8604V47.8369L18.7075 44.6074L17.7642 43.1318ZM62.0757 49.249L64.7261 52.8516L64.2007 60.5215C63.8422 60.8629 62.1261 60.9257 59.2886 62.5713C55.7408 64.605 46.5786 64.7757 46.5786 61.6084C46.5791 58.4412 59.6831 59.2016 59.6831 55.584C59.683 52.6962 58.0424 49.1717 57.2222 47.7744L62.0757 49.249Z" fill="#864E37"/>
<path d="M42.652 35.3534C42.652 34.4131 42.6913 33.4123 42.7005 32.6378C42.7104 31.8082 42.691 31.1199 42.5944 30.5469C42.4987 29.98 42.3404 29.6025 42.1319 29.3415C41.9529 29.1174 41.6776 28.9072 41.1949 28.7562C37.2297 28.7778 32.0671 29.5729 27.6731 30.9851C25.4469 31.7006 23.4649 32.5602 21.9508 33.5248C20.4122 34.505 19.4982 35.5024 19.1669 36.4375C18.294 38.9151 18.1412 40.7213 18.2557 41.9339C18.3738 43.1844 18.7643 43.7242 18.8652 43.8186C19.2005 44.1322 19.3207 44.6141 19.1715 45.0483C19.0222 45.4823 18.6309 45.788 18.1738 45.8291C17.0034 45.9345 15.245 46.3478 13.8176 47.2059C12.4132 48.0503 11.4705 49.2219 11.4705 50.8797C11.4705 52.6577 12.2822 53.8287 13.3355 54.6203C14.4296 55.4424 15.7727 55.835 16.647 55.9334C17.1677 55.9919 17.5855 56.3908 17.6674 56.9083C17.749 57.426 17.4747 57.9356 16.9972 58.1516L16.609 58.3336C14.6255 59.3023 11.9529 61.1373 9.99368 63.6844C7.92688 66.3713 6.68996 69.7895 7.78149 73.8675C8.2731 75.7007 9.65858 77.1675 11.8192 78.3176C13.9865 79.4713 16.8232 80.2427 19.9615 80.7133C26.2313 81.6534 33.415 81.3512 38.1124 80.777L38.264 80.7679C38.4146 80.7692 38.5639 80.8002 38.7037 80.8589C41.3524 81.9698 48.576 83.7503 55.7296 81.8323C64.5731 79.4649 67.4805 72.9901 67.4805 69.5113C67.4805 67.386 66.6685 66.2095 65.6307 65.3113C65.0784 64.8334 64.461 64.4341 63.7945 64.0074C63.2389 63.6516 62.6201 63.2584 62.0796 62.805L61.8522 62.6079L61.7127 62.4547C61.4229 62.0754 61.3902 61.5478 61.6505 61.131L61.8037 60.8718C62.5926 59.4622 63.7215 56.3389 62.9151 53.3239C62.5322 51.8929 61.5071 50.8539 60.2526 50.1231C58.9915 49.3886 57.604 49.0321 56.7485 48.9314C56.2852 48.8766 55.8989 48.5496 55.7675 48.102C55.6364 47.6545 55.785 47.1717 56.1451 46.8753C56.6195 46.4851 57.3333 45.7232 57.8357 44.7799C58.3366 43.8393 58.5696 42.8344 58.3102 41.8657V41.8642C58.3083 41.8569 58.27 41.7287 57.9251 41.5306C57.5753 41.3298 57.0482 41.1398 56.3361 40.965C54.9041 40.6136 53.0709 40.3987 51.1233 40.1235C49.2434 39.8579 47.2459 39.534 45.7088 38.9378C44.2213 38.3608 42.652 37.3134 42.652 35.3534ZM44.981 35.3534C44.981 35.7689 45.2522 36.2625 46.5518 36.7666C47.8014 37.2511 49.5383 37.5473 51.4493 37.8173C53.293 38.0778 55.3099 38.3148 56.891 38.7028C57.6847 38.8976 58.4559 39.1493 59.0835 39.5094C59.7083 39.868 60.3346 40.4188 60.5604 41.2622L60.6362 41.5867C60.9648 43.1974 60.5168 44.7007 59.8917 45.8746C59.6575 46.3145 59.3885 46.7207 59.1123 47.0891C59.8584 47.3297 60.6564 47.6636 61.4246 48.1111C63.0089 49.0339 64.5719 50.5043 65.1652 52.722C66.0816 56.1481 65.0525 59.5296 64.1281 61.4404C64.4001 61.6299 64.7068 61.8257 65.0499 62.0453C65.6972 62.4597 66.4556 62.9447 67.1545 63.5494C68.6195 64.8172 69.8094 66.6061 69.8094 69.5113C69.8094 74.0751 66.1635 81.4488 56.3316 84.0809L56.3331 84.0824C48.7889 86.1051 41.2669 84.367 38.0972 83.1211C33.2655 83.6881 26.0261 83.9777 19.6158 83.0165C16.3476 82.5264 13.2211 81.7016 10.726 80.3737C8.22447 79.0421 6.24723 77.1403 5.53138 74.4709C4.20824 69.5285 5.75472 65.3772 8.14842 62.2652C9.73118 60.2075 11.7 58.5778 13.5129 57.4147C12.9788 57.1663 12.441 56.8617 11.936 56.4822C10.4016 55.3291 9.14156 53.5113 9.14156 50.8797C9.14156 48.1281 10.7882 46.3108 12.6183 45.2105C13.7939 44.5038 15.1032 44.0521 16.2649 43.7868C16.1093 43.3082 15.9948 42.7608 15.9374 42.1522C15.7847 40.5353 16.012 38.389 16.9714 35.6658V35.6642C17.557 34.0071 18.9861 32.6516 20.6999 31.5598C22.4388 30.452 24.6221 29.5199 26.9604 28.7684C31.6359 27.2657 37.1207 26.4258 41.3587 26.4258C41.4602 26.4258 41.5623 26.439 41.6604 26.4652C42.6298 26.7245 43.3975 27.1953 43.9514 27.889C44.4923 28.5662 44.7559 29.3651 44.89 30.1603C45.0231 30.9497 45.0397 31.8111 45.0295 32.6651C45.0187 33.5742 44.981 34.3919 44.981 35.3534Z" fill="#1A1A1A"/>
<path fill-rule="evenodd" clip-rule="evenodd" d="M34.9423 56.3846C35.3738 55.9703 36.0364 56.0101 36.4221 56.4736C37.2243 57.4373 38.6177 57.4736 39.4629 56.5523L39.5733 56.4324C39.9802 55.9903 40.6438 55.9862 41.0554 56.4233C41.467 56.8604 41.4708 57.5731 41.0638 58.0152L40.9559 58.1324C40.9557 58.1327 40.9562 58.1322 40.9559 58.1324C39.262 59.9779 36.4681 59.9067 34.8595 57.974C34.4737 57.5106 34.5108 56.799 34.9423 56.3846Z" fill="#1A1A1A"/>
<path d="M31.6709 56.7227C31.3509 56.0942 30.5807 55.842 29.9522 56.1621C29.9509 56.1628 29.9488 56.1651 29.9453 56.167C29.9373 56.171 29.923 56.1788 29.9053 56.1875C29.8698 56.2049 29.8151 56.2289 29.7471 56.2607C29.6099 56.325 29.4175 56.4141 29.1973 56.5039C28.726 56.6961 28.2418 56.8531 27.9151 56.8916C27.6026 56.9282 27.1153 56.8928 26.6309 56.8252C26.4046 56.7936 26.2038 56.7595 26.0606 56.7324C25.9893 56.719 25.9318 56.7069 25.8946 56.6992C25.8771 56.6956 25.864 56.6923 25.8555 56.6904C25.8513 56.6895 25.8463 56.6888 25.8448 56.6885C25.1563 56.5364 24.4737 56.9717 24.3213 57.6602C24.1695 58.3485 24.6056 59.0293 25.294 59.1816L25.3008 59.1846C25.3049 59.1855 25.3118 59.1861 25.3184 59.1875L25.586 59.2412C25.759 59.2739 26.0008 59.316 26.2764 59.3545C26.7969 59.4272 27.558 59.5048 28.2139 59.4277C28.9023 59.3467 29.6521 59.0734 30.1602 58.8662C30.4291 58.7566 30.6635 58.6532 30.8301 58.5752C30.913 58.5364 30.9815 58.5029 31.0293 58.4795C31.0531 58.4678 31.0743 58.458 31.0879 58.4512C31.0941 58.4481 31.0996 58.4463 31.1035 58.4443L31.1114 58.4385L31.3291 58.2998C31.7937 57.9301 31.95 57.2725 31.6709 56.7227ZM27.3955 50.8877C25.9851 50.8877 24.842 52.031 24.8418 53.4414C24.8418 54.852 25.985 55.9961 27.3955 55.9961C28.8061 55.9961 29.9493 54.852 29.9493 53.4414C29.9491 52.031 28.806 50.8877 27.3955 50.8877Z" fill="#1A1A1A"/>
<path d="M43.3121 56.7222C43.6321 56.0939 44.4014 55.8418 45.0298 56.1616C45.0312 56.1623 45.0339 56.1646 45.0377 56.1665C45.0457 56.1705 45.059 56.1783 45.0767 56.187C45.1121 56.2044 45.1669 56.2284 45.2349 56.2603C45.3722 56.3245 45.5654 56.4136 45.7857 56.5034C46.2571 56.6956 46.7413 56.8527 47.0679 56.8911C47.3805 56.9277 47.8678 56.8923 48.3521 56.8247C48.5783 56.7931 48.7793 56.7599 48.9224 56.7329C48.9935 56.7195 49.0512 56.7064 49.0884 56.6987C49.1058 56.6951 49.1191 56.6917 49.1275 56.6899C49.1315 56.6891 49.1357 56.6893 49.1373 56.689C49.8258 56.5366 50.5082 56.9712 50.6607 57.6597C50.8125 58.3479 50.3772 59.0287 49.689 59.1812L49.6812 59.1841C49.6772 59.185 49.6709 59.1857 49.6646 59.187L49.396 59.2407C49.2231 59.2734 48.9819 59.3155 48.7066 59.354C48.1861 59.4267 47.425 59.5043 46.7691 59.4272C46.0804 59.3462 45.33 59.0729 44.8218 58.8657C44.553 58.7561 44.3185 58.6527 44.1519 58.5747C44.0692 58.5359 44.0014 58.5024 43.9537 58.479C43.9298 58.4673 43.9088 58.4575 43.8951 58.4507C43.8886 58.4474 43.8825 58.4459 43.8785 58.4438L43.8716 58.438L43.6539 58.2993C43.1892 57.9296 43.0329 57.2721 43.3121 56.7222ZM47.5865 50.8872C48.997 50.8872 50.141 52.0305 50.1412 53.4409C50.1412 54.8515 48.9971 55.9956 47.5865 55.9956C46.176 55.9954 45.0328 54.8514 45.0328 53.4409C45.0329 52.0306 46.1761 50.8874 47.5865 50.8872Z" fill="#1A1A1A"/>
</svg>
