<svg width="75" height="86" viewBox="0 0 75 86" fill="none" xmlns="http://www.w3.org/2000/svg">
<path d="M22.0244 36.0406C28.7653 38.1303 34.2949 37.6274 37.1586 37.6274C39.9253 37.6274 48.224 36.4117 51.5269 34.6185C52.0163 34.3531 52.2293 33.7894 52.1073 33.246C50.2651 25.047 41.7631 19.3243 35.4144 19.9454C29.5626 20.5167 21.5776 25.0082 21.0035 34.5875C20.9639 35.2488 21.3916 35.845 22.0244 36.0406Z" fill="#4D49FC" stroke="#385ED9" stroke-width="2.74597" stroke-linecap="round"/>
<path d="M22.0542 36.1602C26.3778 37.4907 27.4754 37.4612 30.1819 37.4612C30.8789 30.0509 31.8068 25.7705 35.6359 19.8988C29.9842 20.4267 21.6706 25.7954 21.0116 34.6852C20.9617 35.3575 21.4086 35.9614 22.0542 36.1602Z" fill="#F24822"/>
<path d="M51.512 34.2055C48.7496 35.8543 45.551 36.7377 42.3405 36.7377C41.448 29.877 39.9447 26.0515 36.1016 19.8988C41.7382 20.4484 50.8156 26.5608 52.1508 32.8051C52.2693 33.3594 51.999 33.9136 51.512 34.2055Z" fill="#FFCD29"/>
<path d="M35.3115 18.2844C38.8788 17.9363 42.9992 19.5202 46.414 22.1566C49.8479 24.8082 52.7467 28.659 53.756 33.0988C53.9793 34.0819 53.6041 35.2021 52.599 35.7505L52.5975 35.752L52.2351 35.9385C50.3458 36.8632 47.3715 37.6347 44.602 38.1824C41.6267 38.7708 38.6586 39.1437 37.1584 39.1437C34.4674 39.1437 28.9874 39.6265 22.3273 37.6988L21.6798 37.5047H21.6783C20.5552 37.1548 19.7684 36.0881 19.8405 34.8711C20.4542 24.5474 29.0082 18.9014 35.3115 18.2844ZM35.539 20.6026C30.1367 21.1314 22.6974 26.0534 22.165 35.0091C22.1589 35.1138 22.2268 35.2352 22.3667 35.2805H22.3682C28.8984 37.3034 34.2088 36.8149 37.1584 36.8149C38.4277 36.8148 41.2179 36.4774 44.1501 35.8976C47.1015 35.3139 49.9689 34.5272 51.4815 33.7067L51.483 33.7052C51.4878 33.6936 51.4953 33.6615 51.4845 33.6143C50.6208 29.8152 48.0979 26.3999 44.9902 24.0003C41.863 21.5858 38.3209 20.3315 35.539 20.6026Z" fill="#1A1A1A"/>
<path d="M36.3094 21.016C33.1999 25.0232 31.4677 30.2177 30.9129 36.9705L29.3662 36.8432C29.9371 29.8966 31.7325 24.3813 35.0827 20.0638L36.3094 21.016Z" fill="#BD2915"/>
<path d="M36.3102 19.6603C39.6257 23.9329 42.2535 29.9579 43.0412 36.3001L41.5006 36.4911C40.7472 30.4259 38.2262 24.6643 35.082 20.6124L36.3102 19.6603Z" fill="#EBA611"/>
<path d="M40.9974 10.5846C41.1919 10.5846 41.3597 10.6327 41.4192 10.65C41.5114 10.6769 41.6059 10.7116 41.6966 10.7506C41.8693 10.825 42.1006 10.9466 42.3118 11.1266C42.4974 11.2847 42.8496 11.6447 42.8909 12.2115C42.9374 12.8545 42.5634 13.3074 42.2405 13.5582L42.0179 13.7223C41.4844 14.0899 40.8793 14.3561 40.3362 14.5651C40.0197 14.6868 39.7025 14.7972 39.4114 14.8971C39.1129 14.9996 38.848 15.0898 38.6058 15.1803H38.6028L38.1985 14.0885L38.1253 13.8961L38.6028 15.1803C38.2993 15.293 37.8475 15.46 37.3685 15.5533C37.1382 15.5982 36.8657 15.6315 36.5735 15.6256C36.7109 15.7764 36.8118 15.9639 36.8548 16.1783C37.0892 17.3511 37.055 18.5033 37.055 19.5133C37.055 20.1564 36.5331 20.6783 35.8899 20.6783C35.247 20.6781 34.7259 20.1562 34.7259 19.5133C34.7259 18.4003 34.7496 17.5277 34.5716 16.6364C34.5361 16.459 34.544 16.283 34.5862 16.1188H30.4183C30.0877 16.1188 29.4792 16.0481 28.9398 15.9479C28.6607 15.896 28.3599 15.8301 28.0931 15.7477C27.9599 15.7065 27.8145 15.655 27.6761 15.5914C27.5531 15.5349 27.3593 15.4337 27.1839 15.2672H27.1819C26.9148 15.0131 26.8219 14.7067 26.7952 14.4879C26.7703 14.2827 26.7968 14.1077 26.8187 14.0026C26.8616 13.7969 26.9418 13.6054 26.9847 13.5055C27.0478 13.3585 27.0658 13.3255 27.096 13.2516C27.1814 12.6977 27.6134 12.4313 27.7386 12.3639C27.9209 12.2659 28.1003 12.2239 28.1966 12.2047C28.4104 12.1622 28.6547 12.1463 28.8714 12.1403C29.325 12.1277 29.9061 12.1512 30.4759 12.1891C31.0522 12.2275 31.6487 12.283 32.1419 12.3424C32.5783 12.395 33.0754 12.466 33.3548 12.5592C33.7448 12.6894 34.0744 12.8846 34.3138 13.0338C34.589 13.2053 34.7265 13.2996 34.888 13.3805C34.9189 13.396 34.948 13.4144 34.9769 13.4323C35.0664 13.3047 35.161 13.1907 35.2532 13.0914C35.5675 12.7533 35.9529 12.469 36.3138 12.2418C37.034 11.7885 37.8373 11.4523 38.3118 11.2994H38.3138C38.4828 11.2453 38.6491 11.1821 38.8333 11.11C39.0084 11.0414 39.2196 10.9564 39.428 10.8824C39.8617 10.7285 40.3786 10.5847 40.9974 10.5846Z" fill="#444444"/>
</svg>
