<svg width="75" height="86" viewBox="0 0 75 86" fill="none" xmlns="http://www.w3.org/2000/svg">
<path d="M60.0716 63.6581C60.0716 70.1729 57.4445 75.278 53.2183 78.7745C48.9687 82.2897 43.0377 84.2304 36.3939 84.2304C29.7518 84.2304 23.8192 82.2897 19.5696 78.7745C15.3434 75.278 12.7163 70.1729 12.7163 63.6581C12.7163 57.4367 16.9674 53.8268 22.2339 49.644C22.3877 49.5214 22.5429 49.3987 22.6966 49.276C27.7287 45.2873 33.4284 40.7692 35.2263 32.9393C35.7154 30.8153 36.9498 29.9645 37.8782 29.9148C38.7477 29.8698 40.0721 30.5094 40.7988 33.0029C43.0408 40.6993 47.7934 45.4085 51.9265 49.5059C52.0973 49.6735 52.2665 49.8412 52.4342 50.0089C56.7319 54.2771 60.0716 57.8668 60.0716 63.6581Z" fill="#33293D"/>
<path d="M58.907 63.658C58.907 58.4058 55.9389 55.1304 51.6139 50.8351L51.6109 50.8321C51.4458 50.667 51.2788 50.5015 51.1105 50.3363L51.106 50.3332L49.526 48.7563C45.7787 44.968 41.7242 40.3422 39.6811 33.3286C39.0458 31.1485 38.0812 31.0699 37.9389 31.077C37.6825 31.0917 36.7714 31.4167 36.3605 33.2012C34.4587 41.4809 28.4149 46.2294 23.4194 50.1892L23.4179 50.1877C23.341 50.249 23.2647 50.3125 23.1889 50.3727C23.1117 50.434 23.0353 50.4945 22.96 50.5546L22.9584 50.5561L22.2337 49.6433L21.941 49.2764L22.9584 50.5561C17.6207 54.7955 13.8807 58.0759 13.8807 63.658C13.8807 69.8282 16.3556 74.6035 20.3126 77.8773C24.3153 81.188 29.9691 83.0659 36.3939 83.0659C42.8205 83.0659 48.4739 81.1883 52.4766 77.8773C56.4334 74.6035 58.907 69.828 58.907 63.658ZM61.236 63.658C61.236 70.5171 58.4562 75.9517 53.961 79.671C49.4647 83.3903 43.2547 85.3948 36.3939 85.3948C29.5346 85.3948 23.3231 83.3903 18.8267 79.671C14.3316 75.9517 11.5518 70.5171 11.5518 63.658C11.5518 56.7974 16.3138 52.8582 21.5089 48.7321C21.5864 48.6703 21.6645 48.6093 21.7409 48.5486C21.8183 48.4871 21.8943 48.4254 21.9699 48.3652L21.9729 48.3636C27.0412 44.3462 32.3962 40.0573 34.0907 32.6781H34.0922C34.6587 30.218 36.2136 28.8383 37.8161 28.7526L37.8176 28.7511C39.4162 28.6683 41.0988 29.8729 41.916 32.6766C44.0643 40.0512 48.6051 44.5733 52.742 48.6745C52.9142 48.8436 53.0852 49.0131 53.2545 49.1824C57.5248 53.4234 61.236 57.3276 61.236 63.658Z" fill="#1A1A1A"/>
<path d="M40.7973 33.0029C40.8113 33.0495 40.8268 33.0929 40.8454 33.1364L44.6509 42.0082L42.5937 41.5114C42.0767 41.3872 41.5425 41.6277 41.2926 42.0966L39.2167 45.9906C39.063 46.281 38.6407 46.2608 38.5165 45.9565L36.2186 40.4105C36.0385 39.9758 35.6146 39.6917 35.1426 39.6917C34.0061 39.6917 33.1382 39.6917 32.0591 39.7926C32.3168 39.2787 32.604 38.6995 32.899 38.1002C33.8306 36.206 34.8973 33.9702 35.2 33.0371C35.2109 33.0045 35.2187 32.9719 35.2264 32.9393C35.7139 30.8153 36.9498 29.9645 37.8783 29.9148C38.7462 29.8698 40.0706 30.5094 40.7973 33.0029Z" fill="#678E79"/>
<path d="M37.8175 28.7511C39.4132 28.6683 41.0933 29.8708 41.9113 32.6675H41.9129C41.9137 32.6704 41.9135 32.6737 41.9144 32.6766H41.9159L45.7201 41.5497C45.8938 41.9547 45.824 42.4229 45.5397 42.7596C45.2553 43.0961 44.8051 43.2436 44.3767 43.1402L42.3207 42.6429L42.3192 42.6444L40.2435 46.5381C39.6293 47.6926 37.9417 47.6197 37.4399 46.4016L35.1428 40.8567C34.0026 40.8567 33.1854 40.8571 32.168 40.9523C31.7468 40.9916 31.3364 40.7994 31.0975 40.4504C30.8588 40.1011 30.8277 39.6489 31.0171 39.2707C31.2732 38.7602 31.56 38.1836 31.8541 37.5862L32.5667 36.1215C33.266 34.6656 33.8875 33.3036 34.0906 32.6781C34.6556 30.2168 36.2141 28.8383 37.816 28.7526L37.8175 28.7511ZM37.9388 31.077C37.6818 31.0918 36.7697 31.4166 36.3604 33.1997L36.3589 33.2088C36.3531 33.2332 36.3337 33.3099 36.3058 33.3953L36.3073 33.3968C35.9767 34.4155 34.8858 36.6916 33.9799 38.5354C34.3532 38.5305 34.7344 38.5278 35.1428 38.5278C36.0862 38.528 36.9343 39.0961 37.2944 39.9652L38.9622 43.9908L40.2647 41.5481C40.7323 40.6715 41.6988 40.1932 42.6679 40.3397L39.775 33.5955C39.7373 33.5076 39.7063 33.4221 39.6809 33.3377L39.6794 33.3286C39.0439 31.1475 38.0787 31.07 37.9388 31.077Z" fill="#1A1A1A"/>
<path d="M39.2551 67.1082C39.8981 67.1083 40.4196 67.6296 40.4196 68.2726C40.4196 68.9156 39.8981 69.4369 39.2551 69.4371H34.5214C33.8783 69.4371 33.3569 68.9157 33.3569 68.2726C33.3569 67.6295 33.8783 67.1082 34.5214 67.1082H39.2551Z" fill="#D9D9D9"/>
<path d="M45.5525 60.9582C46.1614 60.7966 46.8193 61.0779 47.1118 61.6635C47.4044 62.2502 47.2337 62.9479 46.7368 63.3369L46.5044 63.4816L45.1183 64.1726L46.4045 65.0145L46.6185 65.1877C47.0663 65.6322 47.1569 66.3454 46.7979 66.8938C46.4386 67.4423 45.7476 67.6446 45.1611 67.4115L44.9186 67.2852L41.6573 65.147C41.2514 64.8808 41.0175 64.4187 41.0458 63.9342C41.0745 63.4494 41.3613 63.0155 41.7959 62.7988L45.2936 61.056L45.5525 60.9582Z" fill="#D9D9D9"/>
<path d="M27.2356 60.9582C26.6266 60.7966 25.9688 61.0779 25.6763 61.6635C25.3837 62.2502 25.5544 62.9479 26.0513 63.3369L26.2837 63.4816L27.6698 64.1726L26.3836 65.0145L26.1695 65.1877C25.7217 65.6322 25.6312 66.3454 25.9902 66.8938C26.3494 67.4423 27.0404 67.6446 27.627 67.4115L27.8695 67.2852L31.1308 65.147C31.5366 64.8808 31.7706 64.4187 31.7423 63.9342C31.7136 63.4494 31.4268 63.0155 30.9922 62.7988L27.4945 61.056L27.2356 60.9582Z" fill="#D9D9D9"/>
</svg>
