<svg width="75" height="86" viewBox="0 0 75 86" fill="none" xmlns="http://www.w3.org/2000/svg">
<path d="M33.9917 33.3818C26.2751 33.3818 20.0087 39.1576 19.8612 46.3152C18.7386 45.9891 17.5446 45.8029 16.3041 45.8029C9.87154 45.8029 4.65936 50.6626 4.65936 56.6713C4.65936 58.8916 5.37668 60.9566 6.60482 62.68C2.67666 64.6363 0.00146484 68.5179 0.00146484 72.9739C0.00146484 79.4018 5.56144 84.6187 12.4225 84.6187C12.7905 84.6187 13.1538 84.6031 13.514 84.5721C13.6833 84.6031 13.8556 84.6187 14.0341 84.6187H62.9219C62.9715 84.6187 63.0197 84.6187 63.0694 84.6187C68.5564 84.5255 72.9752 80.3955 72.9752 75.3029C72.9752 70.8003 69.5081 67.0429 64.9014 66.1734C66.0861 64.0463 66.7646 61.6087 66.7646 59.0003C66.7646 50.8489 60.1597 44.2503 52.0146 44.2503C50.6235 44.2503 49.2789 44.4521 48.0042 44.8092C47.0741 38.3502 41.1571 33.3818 33.9917 33.3818Z" fill="#F1E5FF"/>
<path d="M59.7452 64.7761C63.3271 49.3585 53.6868 46.5327 46.8335 45.5545L48.9078 45.0267L54.2846 44.3589C54.8311 44.2813 55.3854 44.359 55.8931 44.5763L60.0029 46.3464C60.3662 46.5016 60.697 46.7191 60.9764 46.9985L64.8549 50.8801C65.0909 51.113 65.2865 51.3925 65.4371 51.6875L65.8626 52.5413C65.9464 52.7121 66.0131 52.883 66.0659 53.0538L66.8904 55.864C67.0441 56.3919 67.0565 56.9509 66.9277 57.4788L65.9868 61.3293L65.6405 63.0682C65.3828 64.3569 65.9619 65.6611 67.0876 66.3443L68.6418 67.2758C68.9399 67.4466 69.2069 67.6796 69.429 67.9435L72.1119 71.1574C72.6615 71.825 72.9131 72.679 72.8075 73.533L72.3138 77.4767C72.2377 78.0822 71.9861 78.6566 71.5887 79.1224L69.5128 81.529C68.9228 82.2277 68.0626 82.6158 67.1574 82.6158H61.1565C70.0081 76.2966 65.5862 71.2971 61.5431 68.8284C60.1675 67.99 59.3803 66.3442 59.7452 64.7761Z" fill="#E4CCFF"/>
<path d="M2.32895 72.9738C2.32895 77.9733 6.70365 82.2896 12.4211 82.2896V84.6186L11.7812 84.6034C5.21892 84.291 0 79.2006 0 72.9738C0 68.5178 2.67671 64.6364 6.60475 62.6801C5.45303 61.0642 4.75033 59.1479 4.66699 57.0851L4.6579 56.6712C4.6579 50.6625 9.8718 45.8028 16.3026 45.8028C16.9463 45.8028 17.5783 45.8491 18.1934 45.9423C18.1929 45.8958 18.1888 45.8493 18.1888 45.8028C18.1888 38.0862 24.8917 31.8291 33.1602 31.8291L33.8516 31.8443C40.9493 32.1458 46.7565 37.0663 47.9178 43.4435C49.428 42.9622 51.0385 42.6975 52.7106 42.6975L53.5142 42.7172C61.7596 43.1355 68.3156 49.9537 68.3158 58.3012C68.3158 61.2045 67.5214 63.9219 66.143 66.2508C70.9525 67.229 74.5263 70.9088 74.5263 75.3028C74.5263 80.442 69.6256 84.6185 63.5791 84.6186V82.2896C68.7058 82.2896 72.1974 78.8272 72.1974 75.3028C72.1974 72.2752 69.6848 69.3402 65.6775 68.5328C64.9395 68.3776 64.3196 67.8816 64.0142 67.1833C63.709 66.5002 63.7562 65.7081 64.1401 65.056C65.3125 63.0842 65.9868 60.7699 65.9868 58.3012C65.9866 50.9729 60.0429 45.0265 52.7106 45.0265C51.2861 45.0265 49.9161 45.2596 48.6319 45.6633C47.9935 45.8649 47.297 45.7877 46.7215 45.4465C46.1456 45.1049 45.7468 44.5296 45.6268 43.862C44.6456 38.4744 39.5387 34.158 33.1602 34.158C26.0302 34.1581 20.5275 39.5052 20.5178 45.7861C20.5183 45.7962 20.5189 45.8093 20.5193 45.8179C20.5202 45.849 20.5219 45.8805 20.5223 45.9271C20.5297 46.6102 20.236 47.263 19.7202 47.7133C19.2045 48.1475 18.5182 48.349 17.8431 48.2561C17.3399 48.1784 16.8248 48.1317 16.3026 48.1317C11.0038 48.1317 6.98684 52.1065 6.98684 56.6712C6.98684 58.3791 7.53771 59.9783 8.50157 61.3291C8.8971 61.888 9.02898 62.5872 8.86395 63.2547C8.69884 63.9064 8.253 64.465 7.64338 64.7755C4.42034 66.3747 2.32895 69.4959 2.32895 72.9738Z" fill="#1A1A1A"/>
<path d="M13.9009 82.2745C13.9894 82.29 14.027 82.2896 14.0343 82.2896V84.6186C13.8565 84.6186 13.6823 84.6026 13.5127 84.5716C13.1532 84.6026 12.7888 84.6186 12.4211 84.6186V82.2896C12.7089 82.2896 13.0076 82.2737 13.3232 82.2426C13.516 82.2271 13.7101 82.2434 13.9009 82.2745Z" fill="#1A1A1A"/>
<path d="M62.9225 84.6186H14.0343V82.2896H62.9225V84.6186Z" fill="#1A1A1A"/>
<path d="M63.5791 82.2896V84.6186L63.3683 84.6171C63.2984 84.6151 63.2286 84.6112 63.1591 84.6034C63.0813 84.6189 63.0023 84.6186 62.9225 84.6186V82.2896H62.9877C63.0695 82.2741 63.1515 82.2745 63.2334 82.2745C63.381 82.29 63.4828 82.2896 63.5791 82.2896Z" fill="#1A1A1A"/>
<path d="M13.1992 69.0923C15.3428 69.0924 17.0801 70.8305 17.0801 72.9741C17.0799 75.1177 15.3428 76.8548 13.1992 76.855C11.0556 76.855 9.31752 75.1177 9.31738 72.9741C9.31738 70.8304 11.0555 69.0923 13.1992 69.0923ZM39.5938 69.0923C41.7375 69.0923 43.4756 70.8304 43.4756 72.9741C43.4754 75.1177 41.7374 76.855 39.5938 76.855C37.4501 76.855 35.7121 75.1177 35.7119 72.9741C35.7119 70.8304 37.45 69.0923 39.5938 69.0923Z" fill="#D9B8FF"/>
<path d="M29.3887 77.6812H22.3887L25.8887 72.4312L29.3887 77.6812Z" fill="#FFAFA3"/>
<path d="M29.3893 78.8457C29.8186 78.8455 30.2133 78.6086 30.4158 78.2301C30.6181 77.8517 30.5962 77.3924 30.3582 77.0353L26.8572 71.7846C26.6412 71.4611 26.2774 71.266 25.8883 71.266C25.4993 71.2662 25.1354 71.4609 24.9195 71.7846L21.42 77.0353C21.1818 77.3925 21.1599 77.8515 21.3624 78.2301C21.565 78.6087 21.9594 78.8457 22.3889 78.8457H29.3893ZM25.8883 74.532L27.2135 76.5168H24.5647L25.8883 74.532Z" fill="#1A1A1A"/>
<path d="M23.4898 71.9209C23.3351 71.6172 22.9625 71.4947 22.6588 71.6494C22.6581 71.6498 22.6574 71.6515 22.6558 71.6523C22.6519 71.6543 22.6449 71.6579 22.6363 71.6621C22.6192 71.6705 22.5928 71.682 22.5601 71.6973C22.4938 71.7283 22.4 71.771 22.2935 71.8145C22.0658 71.9073 21.8322 71.9834 21.6744 72.002C21.5234 72.0196 21.2882 72.0024 21.0543 71.9697C20.9449 71.9545 20.8471 71.9388 20.7779 71.9258C20.7435 71.9193 20.7158 71.9129 20.6978 71.9092C20.6896 71.9075 20.6833 71.9062 20.6793 71.9053C20.6774 71.9049 20.6753 71.9044 20.6744 71.9043C20.3416 71.8307 20.0117 72.0412 19.938 72.374C19.8649 72.7066 20.0752 73.0348 20.4078 73.1084L20.4107 73.1104C20.4127 73.1108 20.4163 73.1116 20.4195 73.1123L20.5484 73.1377C20.632 73.1535 20.7492 73.1738 20.8824 73.1924C21.1339 73.2275 21.5019 73.2648 21.8189 73.2275C22.1515 73.1884 22.5138 73.0571 22.7593 72.957C22.8893 72.904 23.0031 72.8541 23.0836 72.8164C23.1236 72.7976 23.1562 72.7809 23.1793 72.7695C23.1908 72.7639 23.201 72.7592 23.2076 72.7559L23.2193 72.75L23.3248 72.6826C23.549 72.504 23.6243 72.1864 23.4898 71.9209ZM21.4234 69.1006C20.7417 69.1006 20.189 69.6533 20.189 70.335C20.189 71.0167 20.7417 71.5693 21.4234 71.5693C22.1051 71.5693 22.6578 71.0167 22.6578 70.335C22.6578 69.6533 22.1051 69.1006 21.4234 69.1006Z" fill="#1A1A1A"/>
<path d="M28.6689 71.9209C28.8236 71.6172 29.1962 71.4947 29.4999 71.6494C29.5006 71.6498 29.5012 71.6515 29.5029 71.6523C29.5067 71.6543 29.5138 71.6579 29.5224 71.6621C29.5395 71.6705 29.5659 71.682 29.5986 71.6973C29.6649 71.7283 29.7587 71.771 29.8652 71.8145C30.0929 71.9073 30.3265 71.9834 30.4843 72.002C30.6353 72.0197 30.8713 72.0024 31.1054 71.9697C31.2146 71.9545 31.3117 71.9388 31.3808 71.9258C31.4151 71.9193 31.4429 71.9129 31.4609 71.9092C31.4691 71.9075 31.4753 71.9062 31.4794 71.9053C31.4812 71.9049 31.4834 71.9044 31.4843 71.9043C31.8171 71.8307 32.147 72.0412 32.2206 72.374C32.2938 72.7066 32.0835 73.0348 31.7509 73.1084L31.748 73.1104C31.746 73.1108 31.7424 73.1116 31.7392 73.1123L31.6103 73.1377C31.5267 73.1535 31.4095 73.1738 31.2763 73.1924C31.0247 73.2275 30.6568 73.2648 30.3398 73.2275C30.0072 73.1884 29.6449 73.0571 29.3993 72.957C29.2694 72.904 29.1556 72.8531 29.0751 72.8154C29.0352 72.7967 29.0024 72.7808 28.9794 72.7695C28.9679 72.7639 28.9577 72.7592 28.9511 72.7559L28.9394 72.75L28.8339 72.6826C28.6097 72.504 28.5344 72.1864 28.6689 71.9209ZM30.7353 69.1006C31.417 69.1006 31.9697 69.6533 31.9697 70.335C31.9696 71.0166 31.4169 71.5693 30.7353 71.5693C30.0536 71.5693 29.501 71.0166 29.5009 70.335C29.5009 69.6533 30.0536 69.1006 30.7353 69.1006Z" fill="#1A1A1A"/>
</svg>
