<svg width="75" height="86" viewBox="0 0 75 86" fill="none" xmlns="http://www.w3.org/2000/svg">
<path d="M66.6358 66.5054C66.6358 76.95 55.0702 83.8142 38.0798 83.8142C21.0878 83.8142 11.5469 73.1802 11.5469 65.0972C11.5469 57.0158 15.9067 53.9028 20.4528 46.4719C25.0858 38.8981 25.904 29.3789 38.0798 29.3789C50.2555 29.3789 53.5844 40.3979 57.778 49.0026C60.4206 54.4259 66.6358 56.0609 66.6358 66.5054Z" fill="#7F699B"/>
<path d="M10.3823 65.0969C10.3824 60.8005 11.5554 57.7942 13.3011 54.9336C14.1577 53.53 15.1589 52.1511 16.1971 50.7017C17.2432 49.2413 18.3474 47.6822 19.4601 45.8634C20.5771 44.0372 21.4674 42.0888 22.3955 40.1108C23.3108 38.1602 24.2653 36.176 25.4811 34.4218C26.7076 32.6522 28.2226 31.0808 30.2845 29.9611C32.347 28.841 34.8797 28.2144 38.0795 28.2144C44.6101 28.2144 48.8052 31.209 51.8531 35.2649C54.8206 39.214 56.7937 44.3252 58.8247 48.4926L59.0567 48.9399C59.6198 49.9648 60.336 50.8664 61.1491 51.7859C62.0462 52.8002 63.1452 53.923 64.1119 55.1504C66.1401 57.7256 67.8009 60.9947 67.8009 66.5055C67.8008 72.2282 64.6076 76.8945 59.3296 80.0744C54.0784 83.238 46.7117 84.9779 38.0795 84.9779C20.6805 84.9778 10.3823 74.036 10.3823 65.0969ZM12.7113 65.0969C12.7113 72.3238 21.4948 82.6489 38.0795 82.649C46.4375 82.649 53.3496 80.9584 58.1288 78.079C62.8809 75.2158 65.4719 71.2271 65.4719 66.5055C65.4719 61.5718 64.0233 58.8001 62.2833 56.5908C61.3661 55.4264 60.4152 54.4714 59.4039 53.3279C58.4248 52.2206 57.4598 51.0091 56.7308 49.513C54.5683 45.0759 52.7802 40.3743 49.9911 36.6629C47.2822 33.0583 43.7244 30.5433 38.0795 30.5433C35.1916 30.5433 33.056 31.1065 31.3959 32.008C29.7354 32.9098 28.4736 34.1918 27.3946 35.7486C26.3048 37.3208 25.4247 39.1367 24.5031 41.1009C23.5945 43.0374 22.6455 45.1192 21.4463 47.0794C20.2861 48.9758 19.1392 50.5932 18.0894 52.0588C17.0318 53.5352 16.0904 54.8332 15.2889 56.1466C13.7182 58.7204 12.7113 61.3121 12.7113 65.0969Z" fill="#1A1A1A"/>
<path d="M22.7115 38.5426C25.8991 30.3634 33.4899 28.0407 37.2426 27.9475C47.4527 27.9475 52.7984 34.6798 54.9488 39.7926C55.4426 40.9679 54.2501 41.9756 53.0872 41.4554L42.9237 36.9L38.5763 43.7518C37.9615 44.7206 36.5424 44.7097 35.9415 43.7316L31.7525 36.9L24.6554 40.2195C23.491 40.7645 22.2442 39.7413 22.7115 38.5426Z" fill="#009951"/>
<path d="M37.2428 26.783C48.0807 26.783 53.7617 33.9644 56.0229 39.3405C56.4702 40.4058 56.1524 41.4836 55.4058 42.1364C54.725 42.7317 53.7385 42.9369 52.7994 42.5943L52.6114 42.5185L43.3669 38.3731L39.5596 44.3759C38.4828 46.0722 36.0013 46.0515 34.9502 44.341L34.9487 44.3395L31.3021 38.3943L25.1492 41.2737C24.1452 41.7436 23.0576 41.5477 22.3199 40.9234C21.5653 40.2849 21.2016 39.2112 21.627 38.1199C25.0379 29.3675 33.1572 26.8837 37.214 26.783H37.2428ZM37.264 29.1119C33.8125 29.2005 26.7587 31.3655 23.7967 38.966C23.7673 39.0416 23.7766 39.0756 23.7785 39.0827C23.7823 39.0964 23.7935 39.1206 23.824 39.1464C23.8841 39.197 24.002 39.2396 24.1621 39.1646L32.2013 35.4043L36.9335 43.122C37.0841 43.3673 37.4399 43.3687 37.593 43.128L42.4799 35.4255L53.5636 40.3927C53.7327 40.4684 53.8355 40.4162 53.8729 40.3836C53.8931 40.366 53.8963 40.3524 53.8972 40.3488C53.8978 40.3462 53.8999 40.3395 53.8987 40.326C53.8975 40.3125 53.8931 40.2853 53.8759 40.2442C51.8378 35.3982 46.8323 29.1212 37.264 29.1119Z" fill="#1A1A1A"/>
<path d="M36.0366 24.6187H42.7254L40.2784 31.2763L39.7459 31.489C39.0565 31.7654 38.291 31.7856 37.5893 31.5449L36.799 31.2763L36.0366 24.6187Z" fill="#009951"/>
<path d="M42.7246 23.4541C43.1049 23.4541 43.462 23.6397 43.6798 23.9514C43.8976 24.2635 43.9491 24.6632 43.8178 25.0204L41.3706 31.6782C41.2566 31.988 41.0161 32.235 40.7095 32.3575L40.1773 32.5682L40.1788 32.5697C39.2314 32.9495 38.1782 32.9784 37.2115 32.6471V32.6456L36.4246 32.3787C35.9983 32.2338 35.6935 31.8557 35.6422 31.4083L34.8796 24.7505C34.842 24.421 34.9469 24.0913 35.1676 23.8438C35.3886 23.5961 35.7045 23.4541 36.0365 23.4541H42.7246ZM37.8711 30.4106L37.9636 30.4425L37.9666 30.444C38.4034 30.5938 38.8819 30.5804 39.3131 30.4076L39.3646 30.3864L41.0567 25.783H37.3419L37.8711 30.4106Z" fill="#1A1A1A"/>
<path d="M40.1243 65.5554C40.7672 65.5556 41.2887 66.0769 41.2887 66.7199C41.2887 67.3629 40.7672 67.8842 40.1243 67.8844H35.3905C34.7474 67.8844 34.2261 67.363 34.2261 66.7199C34.2261 66.0768 34.7474 65.5554 35.3905 65.5554H40.1243Z" fill="#1A1A1A"/>
<path d="M45.0181 59.0864C46.8532 59.0867 48.3403 60.5745 48.3403 62.4097C48.3401 64.2447 46.8531 65.7317 45.0181 65.7319C43.1829 65.7319 41.6951 64.2448 41.6948 62.4097C41.6948 60.5743 43.1827 59.0864 45.0181 59.0864Z" fill="#1A1A1A"/>
<path d="M43.6548 62.1664C44.1671 62.1664 44.5825 61.7511 44.5825 61.2387C44.5825 60.7264 44.1671 60.311 43.6548 60.311C43.1424 60.311 42.7271 60.7264 42.7271 61.2387C42.7271 61.7511 43.1424 62.1664 43.6548 62.1664Z" fill="white"/>
<path d="M29.5063 59.0864C27.6712 59.0867 26.1841 60.5745 26.1841 62.4097C26.1843 64.2446 27.6714 65.7317 29.5063 65.7319C31.3415 65.7319 32.8294 64.2448 32.8296 62.4097C32.8296 60.5743 31.3417 59.0864 29.5063 59.0864Z" fill="#1A1A1A"/>
<path d="M28.144 62.1664C28.6564 62.1664 29.0717 61.7511 29.0717 61.2387C29.0717 60.7264 28.6564 60.311 28.144 60.311C27.6317 60.311 27.2163 60.7264 27.2163 61.2387C27.2163 61.7511 27.6317 62.1664 28.144 62.1664Z" fill="white"/>
</svg>
