<svg width="75" height="86" viewBox="0 0 75 86" fill="none" xmlns="http://www.w3.org/2000/svg">
<path d="M8.04877 63.9837C14.7897 66.0734 20.3193 65.5705 23.183 65.5705C25.9498 65.5705 34.2484 64.3548 37.5513 62.5617C38.0407 62.2962 38.2537 61.7325 38.1317 61.1891C36.2896 52.9902 27.7875 47.2674 21.4388 47.8885C15.587 48.4598 7.60204 52.9514 7.02793 62.5306C6.98831 63.192 7.41597 63.7881 8.04877 63.9837Z" fill="#4D49FC" stroke="#385ED9" stroke-width="2.74597" stroke-linecap="round"/>
<path d="M8.07954 64.1033C12.4032 65.4338 13.5008 65.4043 16.2073 65.4043C16.9043 57.994 17.8322 53.7136 21.6613 47.8419C16.0096 48.3698 7.69594 53.7385 7.03701 62.6283C6.98707 63.3006 7.43399 63.9046 8.07954 64.1033Z" fill="#F24822"/>
<path d="M37.5364 62.1486C34.774 63.7974 31.5754 64.6808 28.3649 64.6808C27.4724 57.8201 25.9691 53.9947 22.126 47.8419C27.7626 48.3915 36.8401 54.5039 38.1752 60.7482C38.2937 61.3025 38.0234 61.8567 37.5364 62.1486Z" fill="#FFCD29"/>
<path d="M21.3369 46.2275C24.9042 45.8795 29.0246 47.4633 32.4394 50.0998C35.8733 52.7513 38.7721 56.6022 39.7814 61.0419C40.0047 62.025 39.6294 63.1453 38.6244 63.6936L38.6229 63.6952L38.2605 63.8816C36.3712 64.8064 33.3969 65.5779 30.6274 66.1256C27.6521 66.7139 24.684 67.0868 23.1838 67.0868C20.4928 67.0868 15.0127 67.5697 8.35267 65.6419L7.70521 65.4478H7.70369C6.58063 65.0979 5.79374 64.0312 5.86592 62.8143C6.47962 52.4905 15.0336 46.8445 21.3369 46.2275ZM21.5643 48.5457C16.1621 49.0745 8.72281 53.9965 8.19043 62.9522C8.18429 63.0569 8.25222 63.1783 8.3921 63.2236H8.39362C14.9238 65.2465 20.2342 64.758 23.1838 64.758C24.4531 64.758 27.2433 64.4206 30.1755 63.8407C33.1269 63.257 35.9943 62.4703 37.5069 61.6499L37.5084 61.6483C37.5132 61.6367 37.5207 61.6046 37.5099 61.5574C36.6462 57.7583 34.1233 54.343 31.0155 51.9434C27.8883 49.5289 24.3463 48.2746 21.5643 48.5457Z" fill="#1A1A1A"/>
<path d="M22.3338 48.9592C19.2243 52.9665 17.4922 58.1609 16.9373 64.9138L15.3906 64.7864C15.9615 57.8398 17.7569 52.3245 21.1071 48.0071L22.3338 48.9592Z" fill="#BD2915"/>
<path d="M22.3356 47.6034C25.6511 51.876 28.2789 57.901 29.0666 64.2432L27.526 64.4343C26.7726 58.369 24.2516 52.6074 21.1074 48.5555L22.3356 47.6034Z" fill="#EBA611"/>
<path d="M27.022 38.5282C27.2165 38.5282 27.3842 38.5763 27.4438 38.5936C27.536 38.6205 27.6304 38.6542 27.7212 38.6932C27.8938 38.7676 28.1251 38.8893 28.3364 39.0692C28.522 39.2274 28.8753 39.588 28.9165 40.1552C28.9629 40.798 28.5889 41.251 28.2661 41.5018L28.0425 41.6649C27.509 42.0326 26.9039 42.2987 26.3608 42.5077C26.0443 42.6295 25.7271 42.7398 25.436 42.8397C25.1376 42.9422 24.8736 43.0334 24.6313 43.1239H24.6284L24.2231 42.0321L24.1499 41.8397L24.6284 43.1239C24.3249 43.2366 23.873 43.4036 23.394 43.4969C23.1638 43.5418 22.8911 43.575 22.5991 43.5692C22.7361 43.7198 22.8364 43.907 22.8794 44.121C23.1138 45.2939 23.0796 46.4468 23.0796 47.4569C23.0796 48.0999 22.5586 48.6209 21.9155 48.621C21.2724 48.6209 20.7505 48.1 20.7505 47.4569C20.7505 46.3435 20.7743 45.4706 20.5962 44.579C20.5608 44.4018 20.5697 44.2265 20.6118 44.0624H16.4429C16.1122 44.0624 15.5039 43.9908 14.9643 43.8905C14.6854 43.8386 14.3853 43.7727 14.1186 43.6903C13.9856 43.6492 13.84 43.5986 13.7016 43.535C13.5787 43.4785 13.3841 43.3766 13.2085 43.2098H13.2075C12.9403 42.9556 12.8474 42.6494 12.8208 42.4305C12.7959 42.2254 12.8214 42.0503 12.8432 41.9452C12.8862 41.7394 12.9674 41.5478 13.0102 41.4481C13.0733 41.3014 13.0904 41.2691 13.1206 41.1952C13.2059 40.6411 13.6378 40.374 13.7632 40.3065C13.9454 40.2086 14.1248 40.1665 14.2212 40.1473C14.4349 40.1048 14.6794 40.0899 14.896 40.0839C15.3496 40.0713 15.9306 40.0948 16.5005 40.1327C17.0767 40.1711 17.6732 40.2256 18.1665 40.285C18.603 40.3376 19.101 40.4086 19.3804 40.5018C19.7702 40.632 20.099 40.8273 20.3384 40.9764C20.6138 41.1481 20.7511 41.2432 20.9126 41.3241C20.9439 41.3398 20.9733 41.3588 21.0024 41.3768C21.0921 41.249 21.1863 41.1336 21.2788 41.0341C21.593 40.6961 21.9777 40.4125 22.3384 40.1854C23.0587 39.732 23.8618 39.395 24.3364 39.2421H24.3384C24.5075 39.1879 24.6744 39.1248 24.8589 39.0526C25.0338 38.9841 25.2444 38.899 25.4526 38.8251C25.8863 38.6712 26.4032 38.5284 27.022 38.5282Z" fill="#444444"/>
</svg>
