<svg width="75" height="86" viewBox="0 0 75 86" fill="none" xmlns="http://www.w3.org/2000/svg">
<path d="M38.7965 66.3713C42.0243 66.3713 44.6409 63.7552 44.6409 60.5275C44.6409 59.3444 44.6394 58.3167 44.2093 56.3682C43.7897 54.4679 42.9626 51.6857 41.3433 46.9427C40.512 44.5083 37.08 44.5037 36.2458 46.9396C34.6283 51.664 33.8021 54.4477 33.3832 56.3543C32.9539 58.3074 32.9521 59.346 32.9521 60.5275C32.9521 63.7552 35.5688 66.3713 38.7965 66.3713Z" fill="#007BE5"/>
<path d="M31.7871 60.528C31.7871 59.3067 31.7902 58.1732 32.245 56.1039C32.6791 54.1287 33.5249 51.2927 35.1442 46.5627C36.3388 43.0748 41.2557 43.0836 42.4453 46.5657L40.2406 47.3193C39.7673 45.9334 37.8218 45.9332 37.3474 47.3162C35.732 52.0347 34.9233 54.7664 34.5195 56.6042C34.1158 58.441 34.1162 59.3864 34.1162 60.528C34.1165 63.1122 36.2113 65.2066 38.7955 65.2069C41.38 65.2069 43.4761 63.1124 43.4764 60.528C43.4764 59.3853 43.4759 58.4512 43.0715 56.6194C42.667 54.787 41.8581 52.057 40.2406 47.3193L42.4453 46.5657C44.0662 51.3134 44.9115 54.1495 45.346 56.1175C45.8018 58.1823 45.8055 59.3048 45.8055 60.528C45.8052 64.3987 42.6662 67.5357 38.7955 67.5357C34.9251 67.5354 31.7874 64.3985 31.7871 60.528Z" fill="#1A1A1A"/>
<path d="M41.6115 53.1389C42.9167 57.8493 42.869 60.509 42.4055 61.8488C41.6109 64.1479 36.9939 65.182 36.9934 63.3567C36.9934 61.7654 39.9111 63.2132 40.8752 61.6486C42.0304 59.7747 41.7535 57.9285 41.6115 53.1389ZM38.0569 47.5354C38.5418 47.6891 37.3008 56.8833 35.9875 56.6877C35.1844 56.566 37.4878 47.536 38.0569 47.5354Z" fill="#BDE3FF"/>
</svg>
