<svg width="75" height="86" viewBox="0 0 75 86" fill="none" xmlns="http://www.w3.org/2000/svg">
<path d="M33.9909 33.3818C26.2745 33.3818 20.0082 39.1576 19.8607 46.3152C18.7382 45.9891 17.5442 45.8029 16.3037 45.8029C9.87132 45.8029 4.65925 50.6626 4.65925 56.6713C4.65925 58.8916 5.37654 60.9566 6.60464 62.68C2.67657 64.6363 0.00146484 68.5179 0.00146484 72.9739C0.00146484 79.4018 5.56131 84.6187 12.4222 84.6187C12.7902 84.6187 13.1535 84.6031 13.5137 84.5721C13.6829 84.6031 13.8553 84.6187 14.0338 84.6187H62.9204C62.9701 84.6187 63.0182 84.6187 63.0679 84.6187C68.5548 84.5255 72.9735 80.3955 72.9735 75.3029C72.9735 70.8003 69.5065 67.0429 64.9 66.1734C66.0846 64.0463 66.7631 61.6087 66.7631 59.0003C66.7631 50.8489 60.1584 44.2503 52.0134 44.2503C50.6223 44.2503 49.2777 44.4521 48.0031 44.8092C47.0731 38.3502 41.1561 33.3818 33.9909 33.3818Z" fill="#383838"/>
<path d="M59.7442 64.7761C63.3261 49.3585 53.6858 46.5327 46.8325 45.5545L48.9068 45.0267L54.2836 44.3589C54.8301 44.2813 55.3844 44.359 55.8921 44.5763L60.0019 46.3464C60.3652 46.5016 60.696 46.7191 60.9755 46.9985L64.8539 50.8801C65.0899 51.113 65.2855 51.3925 65.4361 51.6875L65.8616 52.5413C65.9454 52.7121 66.0122 52.883 66.065 53.0538L66.8894 55.864C67.0431 56.3919 67.0556 56.9509 66.9267 57.4788L65.9858 61.3293L65.6396 63.0682C65.3818 64.3569 64.9393 66.0804 66.065 66.7635L68.6408 67.2758C68.9389 67.4466 69.206 67.6796 69.428 67.9435L72.1109 71.1574C72.6606 71.825 72.9121 72.679 72.8065 73.533L72.3128 77.4767C72.2367 78.0822 71.9852 78.6566 71.5877 79.1224L69.5118 81.529C68.9218 82.2277 68.0616 82.6158 67.1565 82.6158H61.1556C70.0071 76.2966 65.5852 71.2971 61.5421 68.8284C60.1665 67.99 59.3794 66.3442 59.7442 64.7761Z" fill="#2C2C2C"/>
<path d="M2.32895 72.9738C2.32895 77.9733 6.70365 82.2896 12.4211 82.2896V84.6186L11.7812 84.6034C5.21892 84.291 0 79.2006 0 72.9738C0 68.5178 2.67671 64.6364 6.60475 62.6801C5.45303 61.0642 4.75033 59.1479 4.66699 57.0851L4.6579 56.6712C4.6579 50.6625 9.8718 45.8028 16.3026 45.8028C16.9463 45.8028 17.5783 45.8491 18.1934 45.9423C18.1929 45.8958 18.1888 45.8493 18.1888 45.8028C18.1888 38.0862 24.8917 31.8291 33.1602 31.8291L33.8516 31.8443C40.9493 32.1458 46.7565 37.0663 47.9178 43.4435C49.428 42.9622 51.0385 42.6975 52.7106 42.6975L53.5142 42.7172C61.7596 43.1355 68.3156 49.9537 68.3158 58.3012C68.3158 61.2045 67.5214 63.9219 66.143 66.2508C70.9525 67.229 74.5263 70.9088 74.5263 75.3028C74.5263 80.442 69.6256 84.6185 63.5791 84.6186V82.2896C68.7058 82.2896 72.1974 78.8272 72.1974 75.3028C72.1974 72.2752 69.6848 69.3402 65.6775 68.5328C64.9395 68.3776 64.3196 67.8816 64.0142 67.1833C63.709 66.5002 63.7562 65.7081 64.1401 65.056C65.3125 63.0842 65.9868 60.7699 65.9868 58.3012C65.9866 50.9729 60.0429 45.0265 52.7106 45.0265C51.2861 45.0265 49.9161 45.2596 48.6319 45.6633C47.9935 45.8649 47.297 45.7877 46.7215 45.4465C46.1456 45.1049 45.7468 44.5296 45.6268 43.862C44.6456 38.4744 39.5387 34.158 33.1602 34.158C26.0302 34.1581 20.5275 39.5052 20.5178 45.7861C20.5183 45.7962 20.5189 45.8093 20.5193 45.8179C20.5202 45.849 20.5219 45.8805 20.5223 45.9271C20.5297 46.6102 20.236 47.263 19.7202 47.7133C19.2045 48.1475 18.5182 48.349 17.8431 48.2561C17.3399 48.1784 16.8248 48.1317 16.3026 48.1317C11.0038 48.1317 6.98684 52.1065 6.98684 56.6712C6.98684 58.3791 7.53771 59.9783 8.50157 61.3291C8.8971 61.888 9.02898 62.5872 8.86395 63.2547C8.69884 63.9064 8.253 64.465 7.64338 64.7755C4.42034 66.3747 2.32895 69.4959 2.32895 72.9738Z" fill="#1A1A1A"/>
<path d="M13.9009 82.2745C13.9894 82.29 14.027 82.2896 14.0343 82.2896V84.6186C13.8565 84.6186 13.6823 84.6026 13.5127 84.5716C13.1532 84.6026 12.7888 84.6186 12.4211 84.6186V82.2896C12.7089 82.2896 13.0076 82.2737 13.3232 82.2426C13.516 82.2271 13.7101 82.2434 13.9009 82.2745Z" fill="#1A1A1A"/>
<path d="M62.9225 84.6186H14.0343V82.2896H62.9225V84.6186Z" fill="#1A1A1A"/>
<path d="M63.5791 82.2896V84.6186L63.3683 84.6171C63.2984 84.6151 63.2286 84.6112 63.1591 84.6034C63.0813 84.6189 63.0023 84.6186 62.9225 84.6186V82.2896H62.9877C63.0695 82.2741 63.1515 82.2745 63.2334 82.2745C63.381 82.29 63.4828 82.2896 63.5791 82.2896Z" fill="#1A1A1A"/>
<path d="M13.1992 69.0923C15.3428 69.0924 17.0801 70.8305 17.0801 72.9741C17.0799 75.1177 15.3428 76.8548 13.1992 76.855C11.0556 76.855 9.31752 75.1177 9.31738 72.9741C9.31738 70.8304 11.0555 69.0923 13.1992 69.0923ZM39.5928 69.0923C41.7365 69.0923 43.4746 70.8304 43.4746 72.9741C43.4745 75.1177 41.7364 76.855 39.5928 76.855C37.4492 76.8549 35.7111 75.1177 35.7109 72.9741C35.7109 70.8304 37.4491 69.0924 39.5928 69.0923Z" fill="#757575"/>
<path fill-rule="evenodd" clip-rule="evenodd" d="M22.5139 75.7481C22.9933 76.1767 23.7295 76.1355 24.1581 75.656C25.0494 74.6591 26.5977 74.6216 27.5368 75.5746L27.6594 75.6987C28.1116 76.156 28.8489 76.1602 29.3062 75.708C29.7635 75.2559 29.7677 74.5186 29.3156 74.0612L29.1957 73.94C29.1954 73.9397 29.196 73.9403 29.1957 73.94C27.3136 72.0309 24.2092 72.1045 22.4218 74.1038C21.9932 74.5833 22.0344 75.3195 22.5139 75.7481Z" fill="#D9D9D9"/>
<path d="M21.4243 68.1245C20.2033 68.1245 19.2134 69.1145 19.2134 70.3354C19.2136 71.5563 20.2034 72.5454 21.4243 72.5454C22.645 72.5452 23.6341 71.5561 23.6343 70.3354C23.6343 69.1146 22.6451 68.1248 21.4243 68.1245Z" fill="#D9D9D9"/>
<path d="M20.5176 70.1733C20.8584 70.1733 21.1347 69.897 21.1347 69.5561C21.1347 69.2153 20.8584 68.939 20.5176 68.939C20.1767 68.939 19.9004 69.2153 19.9004 69.5561C19.9004 69.897 20.1767 70.1733 20.5176 70.1733Z" fill="white"/>
<path d="M30.7358 68.1245C31.9567 68.1247 32.9458 69.1146 32.9458 70.3354C32.9456 71.5561 31.9565 72.5452 30.7358 72.5454C29.515 72.5454 28.5251 71.5563 28.5249 70.3354C28.5249 69.1145 29.5148 68.1245 30.7358 68.1245Z" fill="#D9D9D9"/>
<path d="M29.8291 70.1733C30.1699 70.1733 30.4463 69.897 30.4463 69.5561C30.4463 69.2153 30.1699 68.939 29.8291 68.939C29.4882 68.939 29.2119 69.2153 29.2119 69.5561C29.2119 69.897 29.4882 70.1733 29.8291 70.1733Z" fill="white"/>
</svg>
