<svg width="628" height="297" viewBox="0 0 628 297" fill="none" xmlns="http://www.w3.org/2000/svg">
<rect x="6" y="6" width="615.776" height="285" rx="142.5" fill="#313030"/>
<rect x="6" y="6" width="615.776" height="285" rx="142.5" stroke="black" stroke-width="12"/>
<rect x="33.5" y="32.5" width="231" height="231" rx="115.5" fill="white" fill-opacity="0.71"/>
<rect x="33.5" y="32.5" width="231" height="231" rx="115.5" stroke="black" stroke-width="11"/>
<path fill-rule="evenodd" clip-rule="evenodd" d="M194.928 183.495C188.457 206.429 164.822 230.629 140.445 230.629C111.826 230.629 86.3633 206.284 86.3633 176.254C86.3633 146.224 112.082 121.879 138.183 121.879C159.119 121.879 184.093 137.575 193.157 156.948L198.91 151.196C201.351 148.752 204.692 146.934 207.916 148.169C212.627 149.973 217.67 155.208 217.67 167.563C217.67 178.224 214.353 184.631 210.768 188.189C207.441 191.491 202.37 190.059 198.853 186.96L194.928 183.495Z" fill="#FFD966"/>
<path d="M81.7797 189.96C82.4074 191.274 83.9785 191.67 85.2857 191.029L90.4853 188.475L88.7019 167.578L85.5429 166.24C84.1137 165.657 82.4348 166.222 81.699 167.578C80.2163 170.315 78.4701 174.33 78.9758 179.707C79.3549 183.737 80.6055 187.504 81.7797 189.96Z" fill="#FFCD29"/>
<path d="M179.575 179.707C180.106 174.055 178.148 169.904 176.625 167.168C175.977 166.001 174.627 165.397 173.322 165.663L169.346 166.476L162.865 170.385C160.932 175.227 160.874 180.613 162.705 185.495L162.865 185.921L169.346 189.848L173.398 191.349C174.656 191.815 176.07 191.389 176.662 190.186C177.867 187.736 179.184 183.861 179.575 179.707Z" fill="#FFCD29"/>
<path d="M83.6906 168.659C83.8535 168.358 84.2843 168.174 84.6866 168.338L89.053 170.122L90.1121 165.609L86.3987 164.143C83.9428 163.141 81.016 164.086 79.7076 166.498C78.1259 169.418 76.1545 173.904 76.7202 179.919C77.1274 184.249 78.4626 188.274 79.7357 190.937C81.0037 193.591 84.0593 194.153 86.2847 193.063L90.6121 190.937L88.8538 186.752L84.2884 188.995C84.1181 189.078 83.9769 189.071 83.9061 189.051C83.8731 189.041 83.8579 189.03 83.853 189.026C83.853 189.026 83.8386 189.014 83.8238 188.983C82.7487 186.734 81.5824 183.225 81.2316 179.495C80.786 174.757 82.307 171.213 83.6906 168.659Z" fill="#1A1A1A"/>
<path d="M197.926 180.1L194.929 183.495L190.567 182.266C190.99 180.767 192.154 179.589 193.648 179.151C195.142 178.71 196.758 179.067 197.926 180.1Z" fill="#1A1A1A"/>
<path d="M189.053 158.869C184.97 150.142 177.144 141.974 167.693 135.974C158.24 129.972 147.595 126.41 138.183 126.41C114.649 126.41 90.8951 148.662 90.8951 176.254C90.8951 203.738 114.285 226.098 140.446 226.098C151.151 226.098 162.114 220.748 171.347 212.317C180.56 203.904 187.587 192.829 190.567 182.266L194.929 183.495V183.495C194.49 185.05 193.971 186.613 193.38 188.172C185.248 209.601 163.169 230.629 140.446 230.629C111.827 230.629 86.3639 206.284 86.3639 176.254C86.3639 146.224 112.083 121.879 138.183 121.879C157.591 121.879 180.47 135.368 190.926 152.77C191.75 154.14 192.496 155.534 193.157 156.948L198.911 151.196V151.196C201.352 148.753 204.693 146.934 207.916 148.169C212.628 149.973 217.67 155.208 217.67 167.563C217.67 178.223 214.354 184.63 210.77 188.189V188.189C207.443 191.49 202.37 190.059 198.854 186.96L194.931 183.497L197.926 180.1L201.852 183.562C203.115 184.676 204.493 185.329 205.583 185.498C206.546 185.649 207.112 185.434 207.577 184.972C210.156 182.411 213.139 177.242 213.139 167.563C213.139 161.99 212.002 158.449 210.676 156.244C209.372 154.072 207.752 152.957 206.296 152.402C205.966 152.275 205.517 152.229 204.775 152.523C203.977 152.837 203.039 153.474 202.115 154.398L196.361 160.153C195.317 161.198 193.828 161.667 192.373 161.413C190.918 161.156 189.679 160.208 189.053 158.869Z" fill="#1A1A1A"/>
<path d="M168.405 168.452C169.412 167.544 170.747 167.093 172.097 167.205C173.408 167.313 174.606 168.056 175.248 169.142C176.552 171.355 177.945 174.314 177.945 178.801C177.945 182.955 176.751 185.955 175.582 188.007C175.013 189.004 173.71 189.643 172.174 189.467C170.857 189.314 169.611 188.765 168.604 187.895L164.349 184.208C163.403 183.389 161.973 183.492 161.153 184.437C160.334 185.383 160.436 186.814 161.382 187.633L165.641 191.323C167.332 192.785 169.428 193.711 171.654 193.969C174.581 194.305 177.862 193.156 179.518 190.251C180.997 187.656 182.476 183.889 182.476 178.801C182.476 173.234 180.702 169.473 179.152 166.841C177.736 164.442 175.195 162.914 172.469 162.689C169.875 162.475 167.306 163.342 165.371 165.086L161.35 168.703C160.42 169.54 160.344 170.973 161.181 171.903C162.018 172.833 163.451 172.909 164.381 172.072L168.405 168.452Z" fill="#1A1A1A"/>
<path fill-rule="evenodd" clip-rule="evenodd" d="M203.82 163.36C202.432 164.005 201.191 164.783 200.506 165.276C199.491 166.007 198.075 165.776 197.344 164.76C196.613 163.745 196.844 162.329 197.859 161.598C198.753 160.955 200.24 160.027 201.911 159.251C203.531 158.498 205.589 157.761 207.538 157.761C208.79 157.761 209.804 158.775 209.804 160.026C209.804 161.278 208.79 162.292 207.538 162.292C206.591 162.292 205.26 162.691 203.82 163.36Z" fill="#DD940E"/>
<path d="M138.633 117.76C139.858 118.014 140.646 119.212 140.392 120.438C140.053 122.075 139.559 124.641 139.178 127.009C138.987 128.194 138.828 129.306 138.73 130.217C138.682 130.672 138.65 131.058 138.637 131.366C138.63 131.519 138.628 131.642 138.63 131.737C138.63 131.784 138.632 131.82 138.633 131.847L138.636 131.878L138.636 131.888C138.79 133.13 137.907 134.26 136.665 134.413C135.423 134.566 134.292 133.684 134.139 132.442C134.048 131.703 134.124 130.68 134.225 129.735C134.334 128.712 134.507 127.511 134.704 126.288C135.099 123.838 135.607 121.203 135.955 119.52C136.208 118.294 137.407 117.507 138.633 117.76Z" fill="#DD940E"/>
<path d="M124.253 123.707C124.24 122.456 123.215 121.452 121.964 121.465C120.713 121.478 119.709 122.503 119.722 123.754C119.743 125.752 119.818 128.872 119.977 131.751C120.056 133.188 120.158 134.589 120.287 135.769C120.408 136.87 120.574 138.014 120.851 138.788C121.272 139.966 122.569 140.58 123.747 140.159C124.925 139.737 125.539 138.44 125.118 137.262C125.045 137.059 124.917 136.422 124.792 135.276C124.675 134.21 124.579 132.899 124.501 131.501C124.347 128.707 124.273 125.658 124.253 123.707Z" fill="#DD940E"/>
<path d="M86.741 145.33C87.4701 144.313 88.8855 144.08 89.9024 144.809C91.4886 145.946 93.992 147.69 96.3357 149.217C97.5091 149.982 98.6227 150.679 99.5513 151.216C100.549 151.792 101.139 152.066 101.345 152.127C102.545 152.484 103.227 153.746 102.87 154.945C102.513 156.145 101.252 156.827 100.052 156.47C99.2649 156.236 98.2438 155.693 97.2852 155.14C96.2572 154.546 95.0678 153.8 93.8619 153.014C91.4469 151.44 88.8862 149.656 87.262 148.491C86.2451 147.762 86.0118 146.347 86.741 145.33Z" fill="#DD940E"/>
<path d="M208.969 171.692C210.22 171.662 211.21 170.624 211.18 169.373C211.15 168.122 210.112 167.132 208.861 167.162L201.109 167.346C199.858 167.376 198.868 168.414 198.897 169.665C198.927 170.916 199.965 171.906 201.216 171.876L208.969 171.692Z" fill="#DD940E"/>
<path d="M200.661 173.474C199.713 172.658 198.283 172.764 197.466 173.712C196.649 174.66 196.756 176.091 197.704 176.907C198.595 177.674 200.084 178.787 201.765 179.721C203.378 180.618 205.492 181.538 207.538 181.538C208.79 181.538 209.804 180.523 209.804 179.272C209.804 178.021 208.79 177.006 207.538 177.006C206.687 177.006 205.413 176.565 203.967 175.761C202.588 174.994 201.349 174.066 200.661 173.474Z" fill="#DD940E"/>
<path d="M161.125 125.692C161.978 124.777 161.927 123.343 161.012 122.49C160.097 121.637 158.663 121.687 157.81 122.603C156.638 123.86 154.835 125.848 153.225 127.736C152.421 128.679 151.65 129.615 151.025 130.433C150.448 131.188 149.852 132.023 149.546 132.702C149.032 133.843 149.54 135.184 150.68 135.698C151.821 136.213 153.163 135.705 153.677 134.564C153.677 134.564 153.678 134.561 153.681 134.555L153.695 134.528C153.708 134.504 153.725 134.472 153.749 134.432C153.797 134.349 153.863 134.245 153.948 134.118C154.12 133.862 154.347 133.549 154.625 133.185C155.181 132.458 155.895 131.59 156.673 130.676C158.229 128.851 159.985 126.915 161.125 125.692Z" fill="#DD940E"/>
<path d="M105.408 132.68C105.447 131.429 104.465 130.384 103.214 130.344C101.964 130.305 100.918 131.287 100.879 132.538C100.86 133.144 101.025 133.837 101.153 134.316L101.748 136.183C102.205 137.453 102.817 138.901 103.392 139.895C104.511 141.833 106.641 144.123 108.22 145.271C109.232 146.007 110.649 145.783 111.385 144.771C112.121 143.759 111.897 142.342 110.885 141.606C109.797 140.815 108.105 138.996 107.316 137.629C106.935 136.971 106.429 135.809 106.012 134.649C105.808 134.083 105.642 133.56 105.531 133.147C105.432 132.776 105.41 132.623 105.41 132.623C105.41 132.623 105.409 132.643 105.408 132.68Z" fill="#DD940E"/>
<path d="M176.632 130.973C177.08 129.805 176.495 128.495 175.327 128.047C174.159 127.599 172.849 128.183 172.401 129.351C171.816 130.878 170.235 133.399 168.88 134.756C168.223 135.413 167.034 136.358 165.836 137.191C165.247 137.599 164.695 137.954 164.247 138.212C163.922 138.399 163.735 138.486 163.661 138.521C163.614 138.543 163.613 138.543 163.652 138.534C162.433 138.817 161.674 140.034 161.956 141.253C162.239 142.472 163.457 143.231 164.675 142.948C165.309 142.801 166.003 142.43 166.509 142.138C167.098 141.799 167.761 141.37 168.42 140.912C169.717 140.012 171.153 138.89 172.083 137.961C173.903 136.139 175.827 133.072 176.632 130.973Z" fill="#DD940E"/>
<path d="M189.813 139.767C190.368 138.645 189.908 137.286 188.787 136.732C187.665 136.177 186.306 136.636 185.751 137.758C184.877 139.527 182.825 142.238 181.218 143.564C180.441 144.207 179.073 145.077 177.716 145.808C177.049 146.167 176.431 146.467 175.937 146.675C175.606 146.814 175.415 146.874 175.336 146.9L175.325 146.903L175.293 146.915L175.351 146.913C174.102 146.983 173.146 148.052 173.215 149.301C173.285 150.551 174.354 151.507 175.604 151.437C176.326 151.397 177.132 151.088 177.693 150.852L179.863 149.798C181.343 149.002 183 147.97 184.104 147.058C186.259 145.278 188.689 142.04 189.813 139.767Z" fill="#DD940E"/>
<path d="M105.564 195.525C105.719 194.283 104.839 193.151 103.597 192.995C102.356 192.839 101.223 193.72 101.067 194.961C100.955 195.855 100.823 197.287 100.785 198.735C100.748 200.096 100.78 201.788 101.141 203.022C101.491 204.223 102.749 204.913 103.951 204.562C105.152 204.211 105.841 202.953 105.49 201.752C105.35 201.271 105.278 200.223 105.314 198.857C105.348 197.578 105.467 196.296 105.564 195.525Z" fill="#DD940E"/>
<path d="M113.419 202.749C114.669 202.695 115.726 203.666 115.779 204.916C115.81 205.648 115.951 206.854 116.26 207.977C116.606 209.234 117.008 209.811 117.184 209.94C118.193 210.679 118.411 212.097 117.672 213.106C116.932 214.115 115.514 214.334 114.505 213.594C112.995 212.487 112.27 210.555 111.891 209.179C111.475 207.667 111.295 206.114 111.252 205.109C111.199 203.859 112.169 202.802 113.419 202.749Z" fill="#DD940E"/>
<path d="M148.932 199.379C148.405 198.244 147.058 197.751 145.923 198.278C144.788 198.805 144.295 200.152 144.822 201.287C145.246 202.2 146.006 203.566 146.968 204.804C147.844 205.932 149.253 207.44 151.071 207.886C152.286 208.185 153.513 207.442 153.811 206.226C154.11 205.011 153.366 203.784 152.151 203.486C151.939 203.434 151.347 203.054 150.546 202.024C149.832 201.105 149.24 200.044 148.932 199.379Z" fill="#DD940E"/>
<path d="M161.458 202.957C162.593 202.431 163.941 202.924 164.467 204.059C165.079 205.377 166.531 207.406 168.269 208.397C169.356 209.018 169.734 210.401 169.114 211.488C168.494 212.575 167.11 212.953 166.023 212.333C163.197 210.721 161.209 207.802 160.357 205.966C159.83 204.831 160.323 203.484 161.458 202.957Z" fill="#DD940E"/>
<path d="M125.592 214.241C125.289 213.027 124.059 212.289 122.845 212.593C121.631 212.896 120.893 214.126 121.196 215.34C121.452 216.362 122.04 217.887 123.082 219.095C123.618 219.715 124.351 220.34 125.312 220.7C126.314 221.075 127.42 221.104 128.541 220.732C129.729 220.338 130.372 219.055 129.978 217.868C129.583 216.68 128.301 216.037 127.114 216.432C126.958 216.483 126.912 216.462 126.901 216.457C126.852 216.438 126.712 216.365 126.512 216.133C126.083 215.636 125.742 214.839 125.592 214.241Z" fill="#DD940E"/>
<path d="M130.874 200.997C132.105 201.217 132.926 202.393 132.706 203.625C132.598 204.232 132.583 205.098 132.771 205.726C132.858 206.019 132.955 206.142 132.992 206.179C133 206.188 133.035 206.228 133.198 206.245C134.443 206.371 135.35 207.483 135.223 208.728C135.096 209.973 133.984 210.879 132.739 210.752C131.565 210.633 130.568 210.153 129.807 209.401C129.078 208.681 128.665 207.811 128.43 207.026C127.972 205.498 128.06 203.866 128.245 202.829C128.465 201.597 129.642 200.777 130.874 200.997Z" fill="#DD940E"/>
<path d="M146.106 212.782C146.106 211.531 145.092 210.516 143.841 210.516C142.589 210.516 141.575 211.531 141.575 212.782C141.575 213.938 141.86 215.447 142.612 216.783C143.392 218.17 144.789 219.529 146.958 219.784C148.2 219.93 149.326 219.041 149.472 217.798C149.618 216.555 148.729 215.429 147.486 215.283C147.136 215.242 146.842 215.06 146.561 214.561C146.252 214.012 146.106 213.293 146.106 212.782Z" fill="#DD940E"/>
<path d="M174.041 170.894C174.961 171.742 175.019 173.175 174.171 174.095C173.611 174.703 172.28 175.786 170.471 176.492C168.678 177.191 166.775 177.376 165.956 177.383C164.705 177.396 163.681 176.391 163.669 175.14C163.657 173.889 164.661 172.865 165.912 172.852C166.343 172.848 167.674 172.719 168.824 172.27C169.368 172.058 169.843 171.785 170.212 171.53C170.395 171.403 170.545 171.286 170.658 171.19C170.714 171.143 170.758 171.103 170.79 171.072C170.807 171.057 170.819 171.045 170.828 171.036L170.84 171.023C171.688 170.104 173.122 170.045 174.041 170.894Z" fill="#DD940E"/>
<path d="M165.956 179.057C164.705 179.045 163.681 180.05 163.669 181.301C163.657 182.552 164.661 183.576 165.912 183.588C166.343 183.592 167.674 183.722 168.824 184.17C169.368 184.383 169.843 184.656 170.212 184.911C170.395 185.038 170.545 185.155 170.658 185.25C170.683 185.272 170.706 185.292 170.726 185.31C170.751 185.332 170.773 185.352 170.79 185.369C170.807 185.384 170.819 185.396 170.828 185.405C170.836 185.413 170.84 185.417 170.84 185.417C171.688 186.337 173.122 186.395 174.041 185.547C174.961 184.699 175.019 183.265 174.171 182.345C173.611 181.738 172.28 180.655 170.471 179.949C168.678 179.25 166.775 179.065 165.956 179.057Z" fill="#DD940E"/>
<path d="M130.407 170.394C131.506 169.517 133.107 169.696 133.985 170.795C134.379 171.288 135.031 171.771 135.613 171.889C135.853 171.938 136.082 171.925 136.339 171.823C136.609 171.716 137.049 171.453 137.596 170.779C138.482 169.687 140.088 169.521 141.181 170.407C142.271 171.294 142.438 172.897 141.552 173.989C139.509 176.506 137.008 177.367 134.602 176.88C132.472 176.448 130.864 175.047 130.006 173.972C129.128 172.873 129.308 171.272 130.407 170.394Z" fill="#1A1A1A"/>
<path d="M113.999 170.394C112.9 169.517 111.299 169.696 110.421 170.795C110.028 171.288 109.375 171.771 108.793 171.889C108.553 171.938 108.324 171.925 108.067 171.823C107.797 171.716 107.358 171.453 106.81 170.779C105.924 169.687 104.318 169.521 103.226 170.407C102.135 171.294 101.968 172.897 102.854 173.989C104.897 176.506 107.398 177.367 109.805 176.88C111.934 176.448 113.542 175.047 114.401 173.972C115.278 172.873 115.098 171.272 113.999 170.394Z" fill="#1A1A1A"/>
<path d="M129.022 185.476H115.402L122.212 175.262L129.022 185.476Z" fill="#FFAFA3"/>
<path d="M129.022 187.742C129.857 187.742 130.625 187.281 131.019 186.544C131.413 185.808 131.37 184.914 130.907 184.22L124.096 174.004C123.675 173.374 122.967 172.995 122.211 172.995C121.454 172.995 120.746 173.374 120.325 174.004L113.517 184.22C113.053 184.915 113.011 185.808 113.405 186.544C113.799 187.281 114.566 187.742 115.402 187.742H129.022ZM122.211 179.349L124.789 183.211H119.635L122.211 179.349Z" fill="#1A1A1A"/>
<path d="M110.673 123.09C111.469 114.631 130.963 109.556 154.213 111.731C177.463 113.937 195.666 122.576 194.87 131.034C194.073 139.493 174.58 144.568 151.33 142.363C135.814 140.913 122.55 136.593 115.676 131.336L118.473 127.591L111.891 127.44C110.972 126.02 110.536 124.57 110.673 123.09Z" fill="#383838"/>
<path d="M110.669 123.088C111.442 114.895 129.762 109.876 152.043 111.548L154.212 111.73C177.46 113.936 195.663 122.575 194.869 131.033L190.355 130.611C190.384 130.278 190.31 129.403 188.857 127.894C187.416 126.383 185.016 124.752 181.614 123.121C174.848 119.919 165.026 117.319 153.787 116.262C142.547 115.204 132.412 115.932 125.166 117.805C121.523 118.771 118.854 119.948 117.159 121.156C116.063 121.93 115.57 122.556 115.351 122.985L118.56 123.059L121.298 123.121L123.77 128.044L122.218 130.127C128.848 133.661 139.338 136.698 151.754 137.862C162.994 138.919 173.129 138.195 180.375 136.322C184.018 135.355 186.684 134.176 188.379 132.968C190.089 131.76 190.327 130.913 190.355 130.611L194.869 131.033C194.095 139.226 175.777 144.245 153.498 142.547L151.329 142.364C135.814 140.914 122.549 136.592 115.675 131.336L118.472 127.59L111.89 127.439C110.971 126.02 110.532 124.568 110.669 123.088Z" fill="#1A1A1A"/>
<path d="M177.863 130.129C156.297 134.056 135.794 128.286 128.19 124.298C127.101 123.724 126.861 122.335 127.557 121.338L140.122 103.031L153.744 83.215C153.873 83.0035 154.043 82.8524 154.24 82.7618L171.992 72.6119C172.759 72.1587 173.737 72.4607 174.11 73.2763L181.732 89.5889L171.799 84.3327C171.156 84.0004 170.362 84.1817 169.91 84.7557L164.382 91.7034C164.137 92.0054 164.022 92.3981 164.062 92.7908L165.592 107.805C165.62 108.077 165.719 108.318 165.878 108.53L179.2 126.655C180.167 127.954 179.467 129.827 177.863 130.129Z" fill="#383838"/>
<path d="M172.286 119.435C157.917 122.093 140.947 117.683 133.8 114.994C133.556 114.873 133.287 114.964 133.121 115.175L127.001 122.576C126.759 122.879 126.846 123.331 127.183 123.513L136.34 128.406C136.393 128.437 136.45 128.437 136.508 128.467L157.46 132.575C157.53 132.605 157.601 132.605 157.672 132.605L178.554 129.283C178.995 129.222 179.211 128.708 178.954 128.346L172.894 119.706C172.758 119.495 172.52 119.404 172.286 119.435Z" fill="#7C2BDA"/>
<path d="M170.836 70.6639C172.752 69.5315 175.218 70.2892 176.158 72.3218L176.161 72.3189L183.781 88.6296C184.193 89.511 183.996 90.5572 183.291 91.2286C182.676 91.8157 181.793 92.0019 181.005 91.736L180.675 91.5944L171.382 86.7003L166.966 92.9514L166.299 107.3L180.728 125.169L181.079 125.667C182.639 128.229 181.305 131.799 178.099 132.387L177.512 129.178L177.689 130.16L178.099 132.387L178.091 132.39C156.744 136.229 136.439 130.865 127.919 126.703L127.132 126.304L127.129 126.302L128.188 124.298L128.648 123.422L127.129 126.302C124.684 125.011 124.33 122.019 125.689 120.056H125.686L151.874 81.933L151.877 81.936C152.184 81.4673 152.601 81.075 153.116 80.8002L153.113 80.7943L170.836 70.6639ZM155.508 84.6441L129.539 122.443C136.932 126.201 156.51 131.622 177.149 127.951L162.594 109.923C162.583 109.909 162.573 109.893 162.562 109.879L164.29 108.551L164.355 108.501L162.562 109.879C162.025 109.18 161.716 108.298 161.759 107.368L162.452 92.5355C162.486 91.7964 162.728 91.1185 163.125 90.5412L163.14 90.5176L168.072 83.5379C169.195 81.935 171.295 81.513 172.937 82.3992H172.934L176.828 84.4494L172.403 74.9828L155.508 84.6441ZM178.793 126.735L177.291 127.951L178.967 126.594L178.793 126.735ZM127.554 121.34L129.161 122.44L127.406 121.236L127.554 121.34ZM171.86 84.3934L171.17 85.7061H171.167H171.17L171.946 84.2282L171.86 84.3934ZM170.004 84.9037L171.155 85.6973L169.886 84.8211L170.004 84.9037Z" fill="#1A1A1A"/>
<path d="M297.625 180V173.084L323.495 142.092H297.817V135.176H333.036V142.092L307.166 173.084H332.844V180H297.625ZM338.016 180V174.685L355.049 154.002H338.016V147.983H364.078V153.234L347.045 174.045H364.206V180H338.016ZM368.97 180V174.685L386.003 154.002H368.97V147.983H395.032V153.234L377.999 174.045H395.16V180H368.97ZM399.924 180V174.685L416.957 154.002H399.924V147.983H425.986V153.234L408.952 174.045H426.114V180H399.924ZM430.878 180V174.685L447.911 154.002H430.878V147.983H456.939V153.234L439.906 174.045H457.068V180H430.878ZM461.832 180V174.685L478.865 154.002H461.832V147.983H487.893V153.234L470.86 174.045H488.021V180H461.832ZM497.844 180.896C496.606 180.896 495.539 180.47 494.642 179.616C493.789 178.719 493.362 177.652 493.362 176.414C493.362 175.176 493.789 174.109 494.642 173.212C495.539 172.316 496.606 171.868 497.844 171.868C499.082 171.868 500.149 172.316 501.046 173.212C501.942 174.109 502.391 175.176 502.391 176.414C502.391 177.652 501.942 178.719 501.046 179.616C500.149 180.47 499.082 180.896 497.844 180.896ZM512.727 180.896C511.489 180.896 510.422 180.47 509.525 179.616C508.672 178.719 508.245 177.652 508.245 176.414C508.245 175.176 508.672 174.109 509.525 173.212C510.422 172.316 511.489 171.868 512.727 171.868C513.965 171.868 515.032 172.316 515.929 173.212C516.825 174.109 517.273 175.176 517.273 176.414C517.273 177.652 516.825 178.719 515.929 179.616C515.032 180.47 513.965 180.896 512.727 180.896ZM527.61 180.896C526.372 180.896 525.305 180.47 524.408 179.616C523.554 178.719 523.128 177.652 523.128 176.414C523.128 175.176 523.554 174.109 524.408 173.212C525.305 172.316 526.372 171.868 527.61 171.868C528.848 171.868 529.915 172.316 530.812 173.212C531.708 174.109 532.156 175.176 532.156 176.414C532.156 177.652 531.708 178.719 530.812 179.616C529.915 180.47 528.848 180.896 527.61 180.896Z" fill="white"/>
</svg>
