<svg width="75" height="86" viewBox="0 0 75 86" fill="none" xmlns="http://www.w3.org/2000/svg">
<path d="M28.4358 26.4103C28.0781 25.1816 26.7811 24.434 25.5387 24.7405C24.2962 25.047 23.579 26.2914 23.9366 27.5201L30.4044 49.7419C30.762 50.9706 32.0591 51.7182 33.3015 51.4117C34.5439 51.1052 35.2612 49.8608 34.9036 48.6321L28.4358 26.4103Z" fill="#D9D9D9"/>
<path d="M17.0791 37.7166L19.6021 40.356C20.9762 41.7953 23.2741 41.7953 24.6482 40.356C26.0223 38.9183 28.3202 38.9183 29.6942 40.356C31.0683 41.7953 33.3662 41.7953 34.7403 40.356C36.1144 38.9183 38.4123 38.9183 39.7863 40.356L39.9012 40.4755C41.2132 41.8496 43.4055 41.8496 44.7175 40.4755L44.9333 40.2505C46.2142 38.9106 48.3848 39.0083 49.54 40.4585C50.6361 41.8357 52.6654 42.0064 53.9759 40.8311L57.4475 37.7166L52.7151 79.2728C52.5365 80.8409 51.209 82.0271 49.63 82.0271H24.1094C22.5071 82.0271 21.1687 80.8083 21.0166 79.2153L17.0791 37.7166Z" fill="#2C2C2C"/>
<path d="M36.6169 78.4123C36.4539 78.6126 36.2706 78.7912 36.0797 78.948C35.1201 79.7336 33.2616 79.9494 32.0646 79.5597C28.3709 78.3533 28.1457 72.4735 31.872 71.5078C31.9652 71.4845 32.0506 71.4658 32.1298 71.4549C32.7042 71.4363 33.2135 71.4767 33.6653 71.5606C36.5501 72.104 38.4428 76.1656 36.6169 78.4123Z" fill="#E6E6E6"/>
<path d="M32.1099 70.8349C32.7254 70.815 33.2802 70.8575 33.7793 70.9501H33.7808C35.4726 71.269 36.8101 72.5965 37.4759 74.0963C38.0992 75.5011 38.196 77.2118 37.2924 78.5435L37.0983 78.8043C36.9059 79.0406 36.6923 79.2479 36.4736 79.4274L36.0794 78.9483L36.2098 79.1075L36.4736 79.4274V79.429L36.2386 79.6018C35.6688 79.9848 34.9485 80.2112 34.2478 80.3099C33.5431 80.4092 32.7948 80.3888 32.1448 80.228L31.8718 80.1507C29.7188 79.4475 28.6231 77.3997 28.5649 75.4625C28.5067 73.5213 29.4934 71.4823 31.7157 70.9062L31.7217 70.9046C31.8226 70.8794 31.933 70.8548 32.0447 70.8395L32.1099 70.8349ZM32.1933 72.0737C32.1506 72.0806 32.0965 72.0907 32.025 72.1085C30.523 72.4991 29.7607 73.884 29.8067 75.4246C29.8531 76.9701 30.7166 78.4663 32.257 78.9695L32.448 79.0241C32.9124 79.1381 33.4949 79.1619 34.0749 79.0802C34.7421 78.9862 35.3236 78.7634 35.6852 78.4677C35.8484 78.3337 36.0019 78.1845 36.1355 78.0204L36.2614 77.8506C36.8546 76.9747 36.8521 75.7529 36.3402 74.5997C35.795 73.3714 34.7431 72.3954 33.5503 72.1707V72.1692C33.1574 72.0964 32.7076 72.0598 32.1933 72.0737Z" fill="#444444"/>
<path d="M48.7291 80.8174C48.4465 80.8018 48.1748 80.7552 47.9155 80.6854C46.5911 80.3252 45.304 78.7974 45.0307 77.4963C44.2715 73.8585 48.9899 70.8479 51.9648 73.2405C52.0906 73.343 52.1961 73.4424 52.28 73.5355C52.634 74.0448 52.884 74.5277 53.0516 74.9811C54.0236 77.6236 51.6093 80.9726 48.7291 80.8174Z" fill="#E6E6E6"/>
<path d="M46.7691 72.5801C48.3931 71.5674 50.6141 71.3559 52.3549 72.756L52.358 72.759L52.5627 72.9379C52.6271 72.9983 52.6868 73.0591 52.7416 73.1199C52.7588 73.139 52.7754 73.1594 52.7901 73.1805C53.0758 73.5916 53.3024 73.9927 53.477 74.3814L53.6347 74.765C54.2092 76.3272 53.769 78.0425 52.8356 79.3152C51.9011 80.5894 50.3937 81.5294 48.6963 81.438L48.763 80.1977C49.9455 80.2614 51.0852 79.6034 51.8349 78.5814C52.5856 77.5578 52.866 76.2744 52.4687 75.1941C52.3244 74.8046 52.1053 74.3809 51.7909 73.9235C51.7359 73.8656 51.6652 73.798 51.5756 73.7249L51.3406 73.5505C50.1405 72.7465 48.6356 72.8805 47.4272 73.6339C46.1346 74.4399 45.3262 75.8651 45.6395 77.3684L45.6896 77.5685C45.832 78.0418 46.1348 78.5682 46.5447 79.0317C47.0144 79.5627 47.5687 79.9467 48.0776 80.0855C48.2984 80.145 48.527 80.1847 48.763 80.1977L48.6963 81.438C48.3676 81.4199 48.052 81.365 47.7547 81.2848L47.9472 80.5707L47.9154 80.6859L47.7547 81.2848C46.9396 81.0632 46.1866 80.5027 45.6137 79.855C45.0398 79.206 44.5875 78.4047 44.4235 77.6246C43.9781 75.4905 45.1489 73.5905 46.7691 72.5801Z" fill="#444444"/>
<path d="M50.8675 75.009C50.7915 75.2558 50.689 75.4887 50.5679 75.7045C49.9655 76.7898 48.2902 77.6408 47.0124 77.678C43.1308 77.7883 40.7755 72.4161 43.8652 70.2051C43.9506 70.143 44.0329 70.0918 44.1089 70.0499C44.6462 69.8325 45.143 69.6959 45.6026 69.6214C48.4874 69.1571 51.7044 72.281 50.8675 75.009Z" fill="#E6E6E6"/>
<path d="M45.504 69.0081C47.1928 68.7366 48.9082 69.514 50.0694 70.679C51.2284 71.8419 51.9698 73.5338 51.4614 75.1913C51.3715 75.483 51.2507 75.757 51.1096 76.0086L51.1081 76.0071C50.7293 76.6883 50.0528 77.2452 49.3386 77.6309C48.6187 78.0197 47.7848 78.2761 47.0294 78.2981L46.6124 78.292C44.56 78.1706 42.9689 76.727 42.2532 75.0564C41.4887 73.2715 41.6502 71.0251 43.5026 69.6995C43.6088 69.6225 43.7125 69.5585 43.8089 69.5054L43.8756 69.4736C44.4525 69.2402 44.9956 69.0905 45.504 69.0081L45.7012 70.2347C45.3015 70.2995 44.8623 70.4174 44.3805 70.6092C44.3334 70.6364 44.2832 70.6694 44.2304 70.7078L44.2258 70.7108L43.865 70.2044L43.7664 70.0694L44.2258 70.7108C42.9891 71.5962 42.784 73.1419 43.3949 74.5681C44.0071 75.9966 45.3652 77.102 46.993 77.0563C47.5153 77.0411 48.1596 76.855 48.7473 76.5377C49.3397 76.2178 49.8001 75.8065 50.024 75.4036L50.6335 75.7402L50.5668 75.7038L50.024 75.4036L50.0255 75.4006C50.1263 75.2209 50.2104 75.0289 50.2726 74.8274L50.3257 74.6242C50.5433 73.6031 50.0914 72.4614 49.19 71.5569C48.2311 70.5946 46.8965 70.0426 45.7012 70.2347L45.504 69.0081Z" fill="#444444"/>
<path d="M29.1302 73.4565C29.0542 73.7033 28.9517 73.9362 28.8306 74.1521C28.2282 75.2373 26.5529 76.0883 25.2751 76.1255C21.3935 76.2358 19.0382 70.8636 22.1279 68.6526C22.2133 68.5905 22.2956 68.5393 22.3716 68.4974C22.9088 68.2801 23.4057 68.1434 23.8653 68.0689C26.7501 67.6047 29.9671 70.7285 29.1302 73.4565Z" fill="#E6E6E6"/>
<path d="M23.7677 67.4556C25.4565 67.1841 27.1719 67.9615 28.3331 69.1265C29.4921 70.2895 30.2335 71.9813 29.725 73.6388C29.6351 73.9305 29.5144 74.2046 29.3733 74.4561L29.3717 74.4546C28.993 75.1358 28.3165 75.6927 27.6023 76.0785C26.8823 76.4672 26.0485 76.7236 25.293 76.7456L24.8761 76.7395C22.8237 76.6181 21.2325 75.1745 20.5169 73.5039C19.7523 71.719 19.9138 69.4726 21.7663 68.147C21.8725 68.07 21.9762 68.006 22.0726 67.9529L22.1393 67.9211C22.7161 67.6877 23.2592 67.538 23.7677 67.4556L23.9648 68.6822C23.5652 68.7471 23.126 68.8649 22.6442 69.0567C22.5971 69.0839 22.5469 69.1169 22.4941 69.1553L22.4895 69.1583L22.1287 68.6519L22.0301 68.517L22.4895 69.1583C21.2527 70.0437 21.0477 71.5894 21.6586 73.0156C22.2708 74.4441 23.6289 75.5495 25.2567 75.5038C25.779 75.4886 26.4233 75.3025 27.011 74.9852C27.6034 74.6653 28.0638 74.254 28.2876 73.8511L28.8972 74.1877L28.8304 74.1513L28.2876 73.8511L28.2891 73.8481C28.3899 73.6685 28.4741 73.4764 28.5363 73.2749L28.5894 73.0717C28.807 72.0506 28.355 70.9089 27.4537 70.0044C26.4948 69.0421 25.1602 68.4901 23.9648 68.6822L23.7677 67.4556Z" fill="#444444"/>
<path d="M37.861 76.1594C37.5784 76.1439 37.3067 76.0973 37.0474 76.0259C35.723 75.6672 34.4359 74.1395 34.1626 72.8384C33.4034 69.2006 38.1202 66.19 41.0951 68.5826C41.2224 68.6835 41.328 68.7844 41.4118 68.8776C41.7658 69.3868 42.0158 69.8697 42.1835 70.3231C43.1555 72.9657 40.7411 76.3147 37.861 76.1594Z" fill="#E6E6E6"/>
<path d="M35.9009 67.9223C37.5246 66.9097 39.7446 66.6982 41.4852 68.0981C41.6379 68.2194 41.7664 68.3432 41.8734 68.462L41.4079 68.879L41.4125 68.8775L41.8734 68.462C41.8907 68.4812 41.9072 68.5015 41.9219 68.5227C42.2076 68.9337 42.4342 69.3349 42.6088 69.7236L42.7665 70.1072C43.3411 71.6694 42.9009 73.3847 41.9674 74.6574C41.0329 75.9316 39.5256 76.8716 37.8281 76.7801L37.8948 75.5399C39.0773 75.6036 40.2171 74.9456 40.9667 73.9235C41.7175 72.8999 41.9978 71.6166 41.6005 70.5363C41.4567 70.1482 41.2398 69.7256 40.9273 69.2702C40.9026 69.2439 40.8759 69.2154 40.8454 69.1868L40.7089 69.0701L40.7059 69.067L41.0804 68.6015L41.0834 68.5955L40.7059 69.067C39.4718 68.0745 37.8461 68.1722 36.5575 68.976C35.2654 69.7821 34.458 71.2072 34.7713 72.7106L34.8214 72.9107C34.9638 73.384 35.2666 73.9105 35.6765 74.3739C36.1464 74.9049 36.7007 75.2881 37.2094 75.4261L37.2125 75.4277L37.0472 76.0266L37.0108 76.16L37.2125 75.4277C37.431 75.4878 37.6588 75.5268 37.8948 75.5399L37.8281 76.7801C37.4996 76.762 37.1829 76.7079 36.8835 76.6255C36.0689 76.4043 35.3179 75.8441 34.7456 75.1972C34.1715 74.5483 33.7193 73.7468 33.5553 72.9668C33.1099 70.8327 34.281 68.9327 35.9009 67.9223Z" fill="#444444"/>
<path d="M40.9665 80.8174C40.6839 80.8018 40.4121 80.7552 40.1529 80.6854C38.8285 80.3252 37.5413 78.7974 37.2681 77.4963C36.5088 73.8585 41.2257 70.8479 44.2006 73.2405C44.3279 73.343 44.4335 73.4424 44.5173 73.5355C44.8713 74.0448 45.1213 74.5277 45.289 74.9811C46.2609 77.6236 43.8466 80.9726 40.9665 80.8174Z" fill="#E6E6E6"/>
<path d="M39.0054 72.5802C40.6291 71.5677 42.8491 71.3562 44.5897 72.7561C44.7383 72.8757 44.8683 72.9983 44.9779 73.12L44.5124 73.537L44.517 73.5355L44.9779 73.12C44.9951 73.1392 45.0117 73.1595 45.0264 73.1807C45.3121 73.5917 45.5387 73.9928 45.7133 74.3815L45.871 74.7651C46.4456 76.3274 46.0053 78.0427 45.0719 79.3154C44.1374 80.5896 42.6301 81.5296 40.9326 81.4381L40.9993 80.1978C42.1818 80.2616 43.3216 79.6036 44.0712 78.5815C44.8219 77.5579 45.1023 76.2746 44.705 75.1942C44.5612 74.8062 44.3443 74.3836 44.0318 73.9282C43.976 73.8689 43.9034 73.7999 43.8104 73.725C42.5763 72.7325 40.9506 72.8302 39.662 73.634C38.3699 74.44 37.5625 75.8651 37.8758 77.3685L37.9259 77.5687C38.0683 78.0419 38.3711 78.5683 38.781 79.0318C39.2507 79.5629 39.805 79.9468 40.3139 80.0856C40.5347 80.1451 40.7634 80.1848 40.9993 80.1978L40.9326 81.4381C40.6039 81.42 40.2883 81.3651 39.991 81.285L40.1835 80.5708L40.1517 80.686L39.991 81.285C39.1759 81.0633 38.4229 80.5028 37.85 79.8551C37.2761 79.2062 36.8238 78.4048 36.6598 77.6248C36.2144 75.4907 37.3855 73.5907 39.0054 72.5802Z" fill="#444444"/>
<path d="M25.2611 79.6265C25.036 79.4495 24.8419 79.2539 24.6727 79.0458C23.7986 77.9683 23.7318 75.9515 24.3731 74.7389C26.1042 71.4675 31.6285 71.8431 32.5632 75.4452C32.6098 75.6253 32.6346 75.7868 32.6439 75.925C32.6036 76.5585 32.4902 77.1019 32.3272 77.5662C31.405 80.1963 27.4752 81.3623 25.2611 79.6265Z" fill="#E6E6E6"/>
<path d="M28.8153 71.8951C30.7189 72.0453 32.6145 73.1669 33.1654 75.2899C33.2208 75.5045 33.2518 75.704 33.2639 75.8828L32.6377 75.9237H32.6438L33.2639 75.8828C33.2657 75.9098 33.2656 75.9376 33.2639 75.9647L33.2169 76.462C33.1552 76.9443 33.0514 77.3799 32.9137 77.772C32.37 79.322 30.9674 80.3846 29.4536 80.8288C27.9391 81.2732 26.1809 81.1365 24.8776 80.1146C24.6137 79.9071 24.3866 79.6792 24.1907 79.4384L25.1551 78.6545C25.2974 78.8294 25.4588 78.9919 25.6448 79.1382L25.8207 79.2655C26.7198 79.8683 27.9465 79.9763 29.1033 79.637C30.3382 79.2747 31.3628 78.4409 31.7416 77.3611C31.8808 76.9647 31.9814 76.4898 32.0206 75.9252C32.017 75.8876 32.0127 75.8465 32.0054 75.8024L31.963 75.6008C31.5791 74.1219 30.2431 73.2542 28.7182 73.1338C27.1899 73.0133 25.6467 73.6623 24.9231 75.0291C24.6668 75.5138 24.5335 76.2036 24.5743 76.9078C24.6154 77.6144 24.8253 78.2479 25.1551 78.6545L24.6729 79.0457L24.1907 79.4384V79.4369C23.6466 78.7661 23.3862 77.8529 23.3356 76.979C23.2848 76.1023 23.4389 75.1763 23.8238 74.4484L24.0255 74.1042C25.0915 72.4482 27.0341 71.7548 28.8153 71.8951Z" fill="#444444"/>
<path d="M59.961 29.9534H14.565C13.3808 29.9534 12.4209 30.9133 12.4209 32.0974C12.4209 33.2816 13.3808 34.2415 14.565 34.2415H59.961C61.1452 34.2415 62.1051 33.2816 62.1051 32.0974C62.1051 30.9133 61.1452 29.9534 59.961 29.9534Z" fill="#1A1A1A"/>
<path d="M58.1281 31.894C59.2761 31.894 60.19 32.8862 60.0568 34.0501V34.0517C58.8796 44.2023 56.5222 64.3428 55.0411 77.2752C54.615 81.0043 51.4597 83.8177 47.707 83.8177H26.604C23.3985 83.8177 20.5857 81.7022 20.0462 78.4305C18.4363 68.6756 15.837 46.6734 14.4604 34.0335H14.4589L14.4482 33.8166C14.4495 32.7448 15.3307 31.894 16.3905 31.894H58.1281ZM16.8227 34.223C18.2119 46.9348 20.7654 68.4815 22.3448 78.0515C22.681 80.0898 24.4249 81.4888 26.604 81.4888H47.707C50.2764 81.4888 52.4343 79.5623 52.7258 77.0098H52.7273C54.1875 64.2599 56.4988 44.5015 57.6915 34.223H16.8227Z" fill="#1A1A1A"/>
<path d="M40.3318 60.4666C40.7917 60.916 41.529 60.9082 41.9785 60.4484C42.4278 59.9886 42.4185 59.2513 41.9588 58.8018L38.8762 55.7875C38.4237 55.3451 37.7003 55.3451 37.2478 55.7875L34.1653 58.8018L34.0849 58.8898C33.7069 59.3429 33.7256 60.0174 34.1471 60.4484C34.5687 60.8794 35.2428 60.9134 35.7043 60.5455L35.7937 60.4666L38.062 58.2484L40.3318 60.4666Z" fill="#D9D9D9"/>
<path d="M45.2936 51.6921C46.3183 51.6921 47.1491 52.4569 47.1491 53.4001C47.1489 54.3432 46.3182 55.1081 45.2936 55.1081C44.2691 55.108 43.4383 54.3431 43.4381 53.4001C43.4381 52.4569 44.269 51.6922 45.2936 51.6921ZM47.2008 47.1159C47.9589 46.7461 48.8696 46.8748 49.235 47.403C49.6002 47.9311 49.2835 48.6589 48.526 49.029L48.5221 49.03C48.5207 49.0307 48.5186 49.0328 48.5162 49.0339C48.5103 49.0367 48.4999 49.0412 48.4889 49.0466C48.4663 49.0576 48.4333 49.074 48.3912 49.0944C48.3056 49.1361 48.1817 49.197 48.0289 49.2712C47.7228 49.4199 47.2986 49.6251 46.8297 49.8513C45.897 50.3012 44.7655 50.8429 44.0221 51.1843L43.8766 51.2439C43.1427 51.5163 42.3316 51.3521 42.0114 50.8464C41.6699 50.3067 42.0165 49.5814 42.7858 49.2282L44.068 48.6276C44.5473 48.3995 45.0557 48.1549 45.5231 47.9294C45.9876 47.7053 46.4079 47.5027 46.7116 47.3552L47.1676 47.1315C47.1783 47.1263 47.1874 47.1225 47.193 47.1198C47.1954 47.1187 47.1975 47.1166 47.1989 47.1159H47.2008Z" fill="#D9D9D9"/>
<path d="M29.8129 51.6916C28.7883 51.6916 27.9576 52.4565 27.9574 53.3996C27.9574 54.3429 28.7882 55.1076 29.8129 55.1076C30.8376 55.1076 31.6684 54.3428 31.6684 53.3996C31.6683 52.4565 30.8375 51.6916 29.8129 51.6916ZM27.9067 47.1154C27.1486 46.7455 26.2371 46.8744 25.8715 47.4025C25.5062 47.9307 25.8238 48.6585 26.5815 49.0285L26.5844 49.0305C26.5858 49.0311 26.5879 49.0323 26.5903 49.0334C26.5961 49.0362 26.6064 49.0406 26.6176 49.0461C26.6402 49.0571 26.673 49.0734 26.7153 49.0939C26.8009 49.1357 26.9246 49.1964 27.0776 49.2707C27.3837 49.4195 27.8078 49.6245 28.2768 49.8508C29.2096 50.3008 30.3419 50.8424 31.0854 51.1838L31.2299 51.2434C31.9639 51.5159 32.7749 51.3518 33.0951 50.8459C33.4365 50.3063 33.0899 49.5819 32.3207 49.2287L31.0385 48.6281C30.5592 48.4 30.0508 48.1553 29.5834 47.9299C29.1188 47.7058 28.6986 47.5022 28.3949 47.3547L27.9389 47.132C27.9279 47.1267 27.9191 47.1221 27.9135 47.1193C27.9114 47.1183 27.9098 47.1171 27.9086 47.1164L27.9067 47.1154Z" fill="#D9D9D9"/>
</svg>
