<svg width="906" height="387" viewBox="0 0 906 387" fill="none" xmlns="http://www.w3.org/2000/svg">
<path d="M530.515 0H375.184L375.258 60.9143L383.281 42.1943H512.984L503.401 64.7771H375.258C375.258 70.8686 375.258 76.8857 375.258 82.5314H495.749L486.166 105.189H375.184C375.258 109.497 375.926 113.657 377.486 117.669C378.229 119.451 379.046 121.234 379.864 122.943H478.292L468.784 145.6H397.544C403.486 151.32 409.949 156.52 416.858 161.274C428.149 169.149 440.258 175.909 452.812 182C465.366 175.909 477.475 169.149 488.766 161.274C497.235 155.406 505.184 148.943 512.092 141.589C518.926 134.383 524.572 126.583 528.138 117.669C529.846 113.434 530.515 109.051 530.441 104.52L530.515 0Z" fill="#7B7B7B"/>
<path d="M104.7 361.302V383.102H0V285.102H103V306.902H28.1V323.002H89.9V343.902H28.2V361.302H104.7Z" fill="#7B7B7B"/>
<path d="M151.4 285.199L183.7 355.799L215.9 285.199H246.4L198.4 383.199H168.4L120.5 285.199H151.4Z" fill="#7B7B7B"/>
<path d="M366.898 361.302V383.102H262.398V285.102H365.398V306.902H290.498V323.002H352.198V343.902H290.498V361.302H366.898Z" fill="#7B7B7B"/>
<path d="M504.699 285.199V383.199H479.599L416.299 318.799V383.199H388.699V285.199H418.899L476.999 345.099V285.199H504.699Z" fill="#7B7B7B"/>
<path d="M636.402 307.999H595.702V383.199H567.102V307.999H526.602V285.199H636.402V307.999Z" fill="#7B7B7B"/>
<path d="M771.902 285.199V336.999C771.902 366.799 751.602 386.399 715.102 386.399C678.602 386.399 658.102 366.799 658.102 336.999V285.199H686.702V334.799C686.702 351.899 696.202 362.899 715.102 362.899C734.002 362.899 743.402 351.799 743.402 334.799V285.199H771.902Z" fill="#7B7B7B"/>
<path d="M905.701 352.5C905.701 372.7 887.101 386.4 851.501 386.4C826.301 386.4 805.201 379.5 789.801 367.2L804.801 349.6C816.401 359.4 832.501 364.9 852.101 364.9C868.901 364.9 877.301 361.8 877.301 355.4C877.301 349.1 869.501 347 849.301 345.3C820.201 342.8 793.701 336.3 793.701 314.5C793.701 293.5 816.401 282 847.501 282C868.501 282 887.801 287 901.301 296.6L886.901 314.4C876.001 306.7 862.801 303.6 847.601 303.5C836.101 303.5 822.301 305.3 822.301 312.3C822.301 318.9 833.601 319.7 851.101 321.1C883.001 323.7 905.701 330 905.701 352.5Z" fill="#7B7B7B"/>
</svg>
