<svg width="75" height="86" viewBox="0 0 75 86" fill="none" xmlns="http://www.w3.org/2000/svg">
<path d="M38.868 82.8438C68.1747 81.5675 71.6411 60.1955 66.1288 49.3302C60.6165 38.4649 44.9735 35.2339 38.868 35.7649C22.7777 37.5287 17.2038 42.8123 11.4705 51.7384C10.4629 53.3081 9.60877 54.9927 9.0593 56.7752C1.90089 79.9854 25.7343 84.3825 38.868 82.8438Z" fill="#FFA629"/>
<path d="M38.767 34.6046C42.0294 34.3209 47.6472 35.0372 53.1455 37.1898C58.6473 39.3437 64.2315 43.0154 67.1677 48.8027C70.0846 54.5523 70.6176 63.0246 66.5718 70.2514C62.4916 77.5396 53.8889 83.3413 38.9717 84.0037C32.2669 84.7835 22.7665 84.0708 15.7792 80.1025C12.2534 78.1 9.3183 75.2387 7.76591 71.2825C6.21366 67.3263 6.10003 62.4191 7.94634 56.4324C8.53444 54.5247 9.44153 52.7431 10.4906 51.1089C13.3906 46.5938 16.3258 42.8779 20.654 40.0873C24.9796 37.2985 30.5908 35.5011 38.7412 34.6076L38.8671 35.7675L38.8686 35.7645L38.7412 34.6076L38.7549 34.6061L38.767 34.6046ZM52.2964 39.358C47.0836 37.3173 41.8416 36.6798 38.9929 36.9214L38.9944 36.9229C31.0551 37.7933 25.8341 39.5194 21.917 42.0448C18.0027 44.5684 15.2841 47.9568 12.4511 52.3674C11.6055 53.6846 10.8857 55.0656 10.3769 56.5006L10.1722 57.1177C8.43945 62.7359 8.62054 67.0839 9.93413 70.4319C11.2477 73.7792 13.7496 76.2728 16.9286 78.0783C23.3406 81.72 32.3049 82.4398 38.7321 81.6869L38.7746 81.6824L38.817 81.6809L40.1437 81.6081C53.6556 80.7101 61.0556 75.3382 64.5401 69.1143C68.1759 62.6198 67.6858 54.9721 65.0905 49.8565C62.5143 44.7789 57.5203 41.4031 52.2964 39.358Z" fill="#1A1A1A"/>
<path d="M50.4484 72.0048C56.3825 62.9856 55.8459 53.6884 54.4035 46.8832C54.02 45.0744 55.3146 43.3619 56.8575 44.382C60.1619 46.5666 63.2012 52.4323 64.6616 59.09C65.1029 61.1007 65.1088 63.2262 64.2845 65.1142C61.9004 70.5702 56.3963 74.1273 52.2617 75.6473C49.4291 76.6891 48.7895 74.5263 50.4484 72.0048Z" fill="#F79722"/>
<path d="M38.0309 45.0264C40.6034 45.0264 42.6888 44.1574 42.6888 43.0856C42.6888 42.0137 40.6034 41.1448 38.0309 41.1448C35.4585 41.1448 33.373 42.0137 33.373 43.0856C33.373 44.1574 35.4585 45.0264 38.0309 45.0264Z" fill="#14AE5C"/>
<path d="M41.5166 67.8179H34.5166L38.0166 62.5679L41.5166 67.8179Z" fill="#FFAFA3"/>
<path d="M41.5173 68.9824C41.9465 68.9822 42.3412 68.7453 42.5438 68.3668C42.746 67.9884 42.7241 67.5291 42.4861 67.172L38.9851 61.9213C38.7691 61.5978 38.4053 61.4027 38.0163 61.4027C37.6272 61.4029 37.2633 61.5976 37.0474 61.9213L33.5479 67.172C33.3098 67.5292 33.2879 67.9883 33.4903 68.3668C33.6929 68.7455 34.0873 68.9824 34.5168 68.9824H41.5173ZM38.0163 64.6687L39.3415 66.6535H36.6926L38.0163 64.6687Z" fill="#1A1A1A"/>
<path d="M42.2073 61.7744C42.4399 61.3183 42.999 61.135 43.4553 61.3672C43.4563 61.3677 43.4584 61.3697 43.4612 61.3711C43.4671 61.374 43.4768 61.3795 43.4895 61.3857C43.5153 61.3984 43.5552 61.4163 43.6047 61.4395C43.7044 61.4861 43.8443 61.5501 44.0042 61.6152C44.3466 61.7549 44.6985 61.8695 44.9358 61.8975C45.1628 61.924 45.5166 61.8987 45.8684 61.8496C46.0328 61.8267 46.1785 61.8019 46.2825 61.7822C46.3343 61.7724 46.3765 61.7634 46.4036 61.7578C46.4162 61.7552 46.4258 61.7523 46.4319 61.751C46.4347 61.7504 46.4375 61.7502 46.4387 61.75C46.939 61.6393 47.4355 61.9558 47.5462 62.4561C47.6564 62.9561 47.3391 63.4509 46.8391 63.5615L46.8342 63.5635C46.8313 63.5641 46.8262 63.5644 46.8215 63.5654L46.6272 63.6045C46.5016 63.6282 46.3263 63.6595 46.1262 63.6875C45.7482 63.7403 45.1954 63.7962 44.719 63.7402C44.2187 63.6814 43.6731 63.4826 43.304 63.332C43.1088 63.2524 42.9386 63.1777 42.8176 63.1211C42.7574 63.0929 42.7078 63.0688 42.6731 63.0518C42.6557 63.0432 42.6401 63.0353 42.6301 63.0303C42.6256 63.0281 42.6212 63.0268 42.6184 63.0254L42.6135 63.0215L42.4553 62.9209C42.1178 62.6523 42.0045 62.1739 42.2073 61.7744ZM45.3128 57.5361C46.3374 57.5362 47.1682 58.3669 47.1682 59.3916C47.1682 60.4162 46.3374 61.247 45.3128 61.2471C44.2881 61.2471 43.4574 60.4162 43.4573 59.3916C43.4573 58.3669 44.288 57.5361 45.3128 57.5361Z" fill="#1A1A1A"/>
<path d="M32.9075 61.7744C32.6749 61.3183 32.1158 61.1351 31.6594 61.3672C31.6584 61.3677 31.6563 61.3697 31.6536 61.3711C31.6477 61.374 31.638 61.3795 31.6252 61.3857C31.5995 61.3984 31.5595 61.4163 31.51 61.4395C31.4104 61.4861 31.2704 61.55 31.1106 61.6152C30.7681 61.7549 30.4163 61.8695 30.1789 61.8975C29.9519 61.9241 29.5982 61.8987 29.2463 61.8496C29.0821 61.8267 28.9363 61.8019 28.8323 61.7822C28.7805 61.7724 28.7382 61.7634 28.7112 61.7578C28.6985 61.7552 28.689 61.7523 28.6828 61.751C28.6798 61.7503 28.6761 61.7502 28.675 61.75C28.175 61.6397 27.6792 61.956 27.5686 62.4561C27.4583 62.956 27.7748 63.4508 28.2746 63.5615L28.2805 63.5635C28.2834 63.5641 28.2878 63.5645 28.2922 63.5654L28.4875 63.6045C28.6132 63.6282 28.7885 63.6595 28.9885 63.6875C29.3666 63.7403 29.9193 63.7962 30.3957 63.7402C30.896 63.6814 31.4416 63.4826 31.8108 63.332C32.006 63.2524 32.1762 63.1777 32.2971 63.1211C32.3573 63.0929 32.4069 63.0688 32.4416 63.0518C32.4589 63.0433 32.4737 63.0352 32.4836 63.0303C32.4882 63.028 32.4925 63.0268 32.4953 63.0254L32.5012 63.0215L32.6594 62.9209C32.9969 62.6523 33.1103 62.1739 32.9075 61.7744ZM29.802 57.5361C28.7773 57.5361 27.9465 58.3669 27.9465 59.3916C27.9466 60.4163 28.7773 61.2471 29.802 61.2471C30.8266 61.247 31.6574 60.4162 31.6575 59.3916C31.6575 58.367 30.8266 57.5363 29.802 57.5361Z" fill="#1A1A1A"/>
</svg>
