<svg width="75" height="86" viewBox="0 0 75 86" fill="none" xmlns="http://www.w3.org/2000/svg">
<path d="M10.1141 55.4243L13.3342 51.2368L16.7298 52.85L18.7265 56.685L28.4677 56.6074L30.0172 53.3826L31.691 55.4243L35.5865 52.85L37.8922 54.5905H40.3081L51.8224 53.3826L59.23 54.5905L62.7234 56.6897L64.7061 59.5838L66.9885 62.4235L70.1823 70.2131V74.6412L68.4107 79.473L65.9948 81.406L56.6666 84.1433L47.8073 80.5195L40.3081 81.406L31.691 84.1433H28.873L26.5378 80.5195L13.8963 79.473L6.3272 82.4525L3.5076 80.5195L3.10547 77.7822L7.79753 74.5108L7.28049 67.35L10.1141 55.4243Z" fill="#2C2C2C"/>
<path opacity="0.7" d="M12.999 68.3148C15.0332 68.3149 16.6826 69.7602 16.6826 71.5424C16.6824 73.3245 15.0331 74.7689 12.999 74.769C10.9649 74.769 9.31562 73.3245 9.31543 71.5424C9.31543 69.7601 10.9648 68.3148 12.999 68.3148ZM33.1836 68.3148C35.2176 68.3151 36.8662 69.7603 36.8662 71.5424C36.866 73.3244 35.2175 74.7687 33.1836 74.769C31.1495 74.769 29.5002 73.3245 29.5 71.5424C29.5 69.7601 31.1494 68.3148 33.1836 68.3148Z" fill="#FFAFA3"/>
<path opacity="0.7" d="M12.8788 54.7997C13.1552 54.4241 13.6464 54.2564 14.0966 54.3837C14.6479 54.5392 15.8428 55.6155 16.5244 56.7782C16.8007 57.2487 16.4745 57.7873 15.9482 57.9286C14.7528 58.2485 13.7948 58.6988 12.6972 59.4999C12.0126 59.9981 11.12 59.5078 11.3369 58.6884C11.7172 57.2444 12.2826 55.6071 12.8788 54.7997ZM34.0351 54.3837C34.4853 54.2564 34.9765 54.4241 35.2529 54.7997C35.8491 55.6071 36.4135 57.2444 36.7939 58.6884C37.0109 59.5079 36.1191 59.998 35.4345 59.4999C34.3368 58.6988 33.3781 58.2485 32.1826 57.9286C31.6565 57.7872 31.3311 57.2486 31.6074 56.7782C32.2889 55.6154 33.4839 54.539 34.0351 54.3837Z" fill="#FFAFA3"/>
<path d="M23.2292 73.75C23.658 73.75 24.0056 74.0976 24.0056 74.5263C24.0056 74.9551 23.658 75.3026 23.2292 75.3026H21.7373C21.3085 75.3026 20.9609 74.9551 20.9609 74.5263C20.9609 74.0976 21.3085 73.75 21.7373 73.75H23.2292Z" fill="#D9D9D9"/>
<path d="M5.84836 70.0054C5.84836 67.5082 5.84633 65.6131 6.39421 62.9382C6.67318 59.8538 7.52832 55.2484 10.1606 51.6801C11.137 50.3598 12.853 49.7758 14.4318 50.2199L14.8048 50.3321C15.6922 50.618 16.7111 51.0838 17.6614 51.9136C18.6299 52.7595 19.4775 53.9416 20.0586 55.5844C21.0343 55.3184 22.0901 54.9962 23.4534 54.9961C24.8901 54.9961 26.2201 55.308 27.4154 55.6223C27.6419 55.0082 27.9076 54.4894 28.2144 54.0318C28.6831 53.3328 29.215 52.8255 29.7261 52.373L31.2697 54.1167L29.7277 52.3715C29.9826 52.1463 30.3633 51.9286 30.8482 51.9439C31.3216 51.9591 31.6665 52.1905 31.8701 52.376C32.227 52.7013 32.4722 53.1887 32.6024 53.4419C32.6385 53.5121 32.6711 53.5761 32.701 53.6345C32.7133 53.6225 32.7277 53.6122 32.7404 53.5996C33.065 53.2779 33.3853 52.9091 33.773 52.4897C34.1123 52.1228 34.5451 51.669 34.9814 51.3889C35.1953 51.2517 35.5502 51.0622 35.9882 51.0539C36.4597 51.0449 36.8657 51.2461 37.1512 51.5663L37.2664 51.7104L37.509 52.0652C37.8767 52.6212 38.1975 53.2011 38.4824 53.7922H39.7788C41.0185 53.7879 42.5136 53.5755 44.2108 53.3313L45.4753 53.1296C45.9436 53.0514 46.4561 52.9639 47.0022 52.8718C48.0831 52.6895 49.2803 52.4938 50.4714 52.3351C51.6602 52.1767 52.8639 52.0519 53.9557 52.0182C55.01 51.9856 56.0487 52.0349 56.8911 52.2638C60.3945 53.1181 63.1704 54.8228 65.1653 57.2568C67.0937 59.6099 68.2374 62.5795 68.6663 65.9722C71.8794 68.7991 72.4924 73.4146 71.0286 77.1256C69.3933 81.2707 65.3866 84.2597 59.7492 84.9722L59.4566 82.6614C64.4109 82.0354 67.5938 79.4847 68.8619 76.2705C70.0692 73.2092 69.437 69.5937 66.9332 67.5551L66.915 67.54L66.8968 67.5233L67.6686 66.6514L67.6762 66.6408L66.8968 67.5233C66.6092 67.2688 66.4313 66.9165 66.3919 66.5423C66.034 63.3682 65.0094 60.7415 63.364 58.7336C61.723 56.7313 59.4078 55.274 56.3407 54.5261L56.321 54.5215L56.3028 54.5154L56.1012 54.4669C55.6033 54.3615 54.9042 54.3201 54.0285 54.3471C53.0481 54.3774 51.931 54.4893 50.7792 54.6428C49.63 54.7959 48.4655 54.9873 47.3888 55.1689C46.3229 55.3488 45.3241 55.5231 44.5444 55.6359C42.898 55.8729 41.2245 56.1161 39.7879 56.1211H39.4073C39.5873 56.6794 39.742 57.2367 39.8743 57.786C40.0249 58.4111 39.6412 59.0408 39.0162 59.1915C38.3909 59.3421 37.7612 58.9571 37.6106 58.3318C37.2231 56.7231 36.6525 55.1312 35.8063 53.7346C35.7115 53.83 35.602 53.9397 35.4818 54.0697C35.1646 54.4127 34.752 54.8861 34.381 55.2538C34.1886 55.4446 33.9759 55.6387 33.7548 55.8042C33.5973 55.9221 33.3975 56.0542 33.165 56.153L32.9209 56.2394C31.9308 56.5174 31.3018 55.7752 31.1044 55.5086C30.924 55.2648 30.7628 54.9567 30.6404 54.7171C30.4595 54.9097 30.2978 55.108 30.1492 55.3297C29.8504 55.7755 29.5717 56.3678 29.3425 57.2735L29.338 57.272C29.1987 57.8289 28.7012 58.1893 28.1659 58.1893H28.1371C28.1204 58.1889 28.0897 58.1882 28.0522 58.1847C28.0194 58.1817 27.951 58.173 27.8627 58.1499C26.2614 57.7369 24.9433 57.325 23.4534 57.325C22.1321 57.3252 21.52 57.6602 19.9297 58.0255L19.913 58.0286C19.0636 58.2102 18.2661 57.6829 18.0374 56.905L18.0359 56.899L17.8509 56.3258C17.3952 55.0541 16.7701 54.2269 16.13 53.6679C15.4822 53.1022 14.7703 52.7678 14.0907 52.5489L13.8011 52.4624C13.1511 52.2796 12.434 52.523 12.0346 53.0614L12.0361 53.0629C9.79694 56.0984 8.9893 60.1599 8.71861 63.1034C8.71781 63.144 8.71466 63.185 8.70951 63.2262C8.70781 63.2399 8.70391 63.253 8.70193 63.2657C8.70144 63.2718 8.70102 63.2792 8.70041 63.2869C8.69857 63.3104 8.69629 63.3452 8.69283 63.3809C8.6839 63.4728 8.65922 63.5594 8.63067 63.6432C8.18187 65.9401 8.17731 67.5968 8.17731 70.0054C8.17735 71.7214 8.58804 73.0864 9.2872 74.1841C9.98974 75.287 11.0261 76.1853 12.3728 76.8967C15.0987 78.3366 18.9825 78.9496 23.4534 78.9497C24.8322 78.9497 25.7329 78.8917 26.9029 78.7647C27.0299 78.4637 27.1867 78.179 27.3669 77.9141C28.3681 76.4423 30.1244 75.4496 31.7109 75.0772C32.3368 74.9305 32.9633 75.3187 33.1104 75.9445C33.2573 76.5704 32.8689 77.1968 32.2431 77.344C31.0845 77.6159 29.8928 78.3417 29.2925 79.2241C29.0064 79.6449 28.8748 80.0691 28.8937 80.4932C28.9127 80.915 29.0859 81.4538 29.6155 82.0959L28.5586 82.9677L28.7178 82.8373L29.617 82.0974C30.2277 82.8385 31.1278 83.1283 32.3098 83.0056C33.5167 82.8802 34.8845 82.3247 36.1171 81.5455L37.3619 83.5151C35.9351 84.4171 34.2238 85.1471 32.5509 85.3209C30.8534 85.4973 29.0726 85.0994 27.8187 83.5772C27.1714 82.7925 26.7765 81.9718 26.63 81.1376C25.617 81.2347 24.7144 81.2786 23.4534 81.2786C20.3899 81.2786 17.4477 81.0012 14.8715 80.3173C13.6555 81.5169 11.6654 82.6153 9.7072 83.1845C8.56356 83.517 7.33877 83.6981 6.19558 83.5742C5.04141 83.4491 3.89793 82.9999 3.08122 82.0095C2.26291 81.0163 1.8916 79.9409 1.94556 78.8587C1.99839 77.8008 2.45095 76.8625 3.04635 76.0946C3.90846 74.9829 5.16946 74.0987 6.41544 73.561C6.04136 72.4882 5.84839 71.3028 5.84836 70.0054ZM45.8696 74.5268C46.6096 78.1786 49.3277 80.2501 51.9406 81.3453C54.5344 82.4323 57.3688 82.7275 59.2277 82.6796L59.3414 82.6766L59.4566 82.6614L59.7492 84.9722L59.5779 84.9949L59.5218 85.001L59.2913 85.0071C57.3224 85.058 54.4035 84.7776 51.5994 83.7167L51.0399 83.4939C50.1661 83.1276 49.2514 82.6475 48.3668 82.0398C46.571 81.8511 45.0545 81.7004 43.6634 81.5349C41.6071 81.2908 39.4096 82.2186 37.3634 83.5136L36.1171 81.5455C38.2751 80.1796 41.0557 78.88 43.9394 79.2226C44.4598 79.2845 44.9976 79.3406 45.5633 79.4015C44.6547 78.2014 43.9435 76.7453 43.5876 74.9893L45.8696 74.5268ZM7.46468 75.6488C6.51399 76.0356 5.51512 76.7116 4.88707 77.5214C4.49532 78.0265 4.29417 78.5202 4.27147 78.9755C4.2501 79.4062 4.38004 79.9251 4.87645 80.5281C5.20164 80.9225 5.70996 81.179 6.44576 81.2589C7.19267 81.3399 8.09867 81.2265 9.05673 80.9481C10.2643 80.5971 11.4111 80.0264 12.2818 79.4303C11.9396 79.2818 11.6066 79.1253 11.2856 78.9557C9.73489 78.1366 8.41713 77.0535 7.46468 75.6488ZM47.2023 69.5353C49.6282 69.045 51.9941 70.549 52.6017 72.9196L52.6547 73.1516C52.7543 73.6442 53.0815 74.201 54.124 74.7345L54.6168 74.962L55.1596 75.1667C56.4147 75.5924 57.8144 75.759 58.8183 75.761C61.5233 75.3609 62.2417 74.1894 62.4239 73.7293C62.5682 73.3615 62.5504 73.1091 62.5194 72.9727C62.5047 72.9076 62.4829 72.8642 62.4709 72.8407C62.0551 72.4242 62.013 71.7522 62.3921 71.2851C62.7973 70.7857 63.5302 70.71 64.0296 71.1153C64.3932 71.4104 64.6658 71.9133 64.7892 72.4571C64.9247 73.0539 64.9045 73.7833 64.5891 74.5844V74.5874C64.0524 75.9429 62.5381 77.5904 59.073 78.0794L58.9957 78.09L58.9183 78.0915C57.5408 78.1016 55.4921 77.8525 53.7176 77.109C51.8655 76.3342 50.6923 75.2029 50.3713 73.614C50.1181 72.3705 48.9066 71.5659 47.6633 71.8173L47.6648 71.8188C46.4216 72.0714 45.6178 73.2845 45.8696 74.5268L43.5876 74.9893C43.0791 72.484 44.6997 70.0452 47.2008 69.5368L47.2023 69.5353ZM6.40937 62.8654C6.40839 62.8701 6.40777 62.8773 6.40634 62.8851C6.40825 62.8739 6.41019 62.8628 6.41241 62.8517C6.41152 62.8557 6.41044 62.8602 6.40937 62.8654ZM28.175 56.9778L27.0864 56.7019L28.1644 56.9763L28.175 56.9778L28.2129 56.9884L28.2372 56.993L28.175 56.9778Z" fill="#1A1A1A"/>
<path d="M28.9492 67.2813C30.4291 67.2815 31.6288 68.5262 31.6289 70.0616C31.6289 71.5971 30.4292 72.8418 28.9492 72.8419C27.4692 72.8419 26.2695 71.5972 26.2695 70.0616C26.2696 68.5262 27.4692 67.2813 28.9492 67.2813Z" fill="#D9D9D9"/>
<path d="M27.8502 69.8585C28.2633 69.8585 28.5983 69.511 28.5983 69.0823C28.5983 68.6536 28.2633 68.3062 27.8502 68.3062C27.437 68.3062 27.1021 68.6536 27.1021 69.0823C27.1021 69.511 27.437 69.8585 27.8502 69.8585Z" fill="white"/>
<path d="M18.138 71.7549C18.5417 72.2427 19.2502 72.2995 19.7204 71.8807C20.1904 71.4619 20.2437 70.7267 19.8402 70.2389C18.6114 68.7539 17.1907 68.3202 15.879 68.5805C14.6728 68.8199 13.728 69.6111 13.211 70.245C12.8106 70.7358 12.8694 71.4698 13.3425 71.8852C13.8155 72.3006 14.5231 72.2396 14.9234 71.7488C15.2205 71.3847 15.7449 70.9785 16.2998 70.868C16.7496 70.7787 17.3836 70.8432 18.138 71.7549Z" fill="#D9D9D9"/>
</svg>
