<svg width="75" height="86" viewBox="0 0 75 86" fill="none" xmlns="http://www.w3.org/2000/svg">
<path d="M18.838 37.1882C25.1777 43.2571 24.7197 51.6145 23.698 58.7702C23.493 60.2032 22.0164 61.408 20.5693 61.4049C18.6765 61.4002 17.8117 59.6566 17.9188 57.7687C18.0539 55.3965 18.0244 52.8255 17.9731 50.4578C17.6036 44.4076 16.9825 42.2138 16.2512 41.3087C15.3957 40.2545 13.6799 40.0092 12.461 40.6085C11.2282 41.214 10.8788 42.6439 10.9658 43.636C10.9797 43.7943 11.0372 43.9511 11.1071 44.094C15.4019 52.7277 6.32317 53.0522 4.19255 49.8058C1.95727 47.0034 4.46816 44.6187 6.36199 43.5677C7.04674 43.1873 7.53584 42.4514 7.52652 41.6705C7.48615 37.8605 9.36027 35.9757 11.4766 35.1481C14.0215 34.1545 16.863 35.2972 18.838 37.1882Z" fill="#B3EE71"/>
<path d="M11.3465 33.9569C14.3916 32.9312 17.5589 34.3539 19.6408 36.3464C26.4429 42.8579 25.8714 51.7861 24.8508 58.9341L24.7735 59.3237C24.5466 60.2123 24.0023 60.9727 23.3451 61.5206C22.594 62.1469 21.6044 62.5721 20.5657 62.5698C19.2038 62.5664 18.1602 61.9099 17.5195 60.9293C16.9091 59.9952 16.6917 58.8226 16.7552 57.703C16.8867 55.3949 16.8604 52.8806 16.8098 50.5285C16.6264 47.5249 16.3827 45.5276 16.1062 44.1895C15.8254 42.8299 15.5343 42.2756 15.3451 42.0411C14.8866 41.4793 13.7895 41.2529 12.9751 41.6529L11.947 39.5637C13.4678 38.816 15.6133 39.0012 16.9084 40.3005L17.1555 40.5749L17.1571 40.5764L16.4535 41.1435L16.7264 40.9236L16.27 41.2936L16.2503 41.3088L17.1571 40.5764C17.6991 41.2473 18.0836 42.2427 18.3883 43.7179C18.659 45.0282 18.8845 46.8189 19.0615 49.2868L19.1358 50.3875V50.4102L19.1374 50.433L17.991 50.4557L17.9728 50.4572L19.1374 50.433C19.1822 52.5068 19.2111 54.7648 19.1252 56.9191L19.0813 57.8349C19.0377 58.6027 19.1998 59.2451 19.4679 59.6558C19.706 60.0201 20.0411 60.2397 20.5718 60.241C20.9801 60.2418 21.4531 60.065 21.8531 59.7316C22.2533 59.3979 22.4905 58.9825 22.5445 58.6051C23.5353 51.6659 23.8875 44.1413 18.5657 38.563L18.032 38.0293L17.6878 37.717C16.0523 36.3077 14.0249 35.6129 12.2715 36.1083L11.9 36.2327C11.0136 36.5793 10.2212 37.1288 9.64977 37.9535C9.08131 38.7741 8.67224 39.9516 8.68994 41.656C8.70509 42.9258 7.9286 44.0285 6.92647 44.5852C6.07443 45.058 5.1881 45.7819 4.75207 46.585C4.54476 46.9669 4.45351 47.3388 4.48216 47.7069C4.51067 48.0715 4.66423 48.5296 5.10234 49.0791L4.18193 49.8114L5.16602 49.167C5.49524 49.6685 6.17498 50.1297 7.0781 50.3723C7.97082 50.6121 8.917 50.5907 9.64826 50.3147C10.3406 50.0532 10.825 49.5795 11.0038 48.8183C11.1971 47.9948 11.0759 46.6472 10.0637 44.6125L10.0607 44.6049C9.98504 44.4502 9.89638 44.2414 9.84386 43.9954L9.80595 43.7376L9.79079 43.4996C9.75272 42.263 10.212 40.416 11.947 39.5637L12.9751 41.6529C12.3645 41.9529 12.0636 42.7631 12.1244 43.5178C12.1289 43.5307 12.1383 43.5525 12.1532 43.583C13.2854 45.8615 13.6378 47.7894 13.2707 49.352C12.8886 50.9778 11.7764 52.0019 10.4701 52.495C9.20241 52.9733 7.74741 52.9632 6.47309 52.6208C5.23009 52.2867 3.99917 51.5879 3.2585 50.4982C2.59571 49.6568 2.23019 48.7793 2.16068 47.8874C2.09066 46.9876 2.32745 46.171 2.70504 45.4752C3.34747 44.2916 4.43519 43.3816 5.39499 42.7855L5.79681 42.549C6.1177 42.3703 6.31203 42.0658 6.3533 41.797L6.3624 41.6848C6.3401 39.5807 6.84757 37.9092 7.73466 36.6284C8.61917 35.3516 9.82264 34.5439 11.0524 34.063L11.3465 33.9569ZM5.1357 49.1215L5.16602 49.167L4.19255 49.8053L5.10234 49.0791L5.1357 49.1215Z" fill="#1A1A1A"/>
<path d="M7.3395 49.3227C8.86115 48.2329 9.11114 47.2144 9.15306 46.3139C9.16548 46.0407 9.48224 45.9103 9.6577 46.1199C11.6219 48.4564 10.3626 50.3909 7.43733 49.877C7.16871 49.8304 7.11746 49.4811 7.3395 49.3227Z" fill="#78B136"/>
</svg>
