<svg width="75" height="86" viewBox="0 0 75 86" fill="none" xmlns="http://www.w3.org/2000/svg">
<path d="M28.2334 33.3008C28.6426 28.9537 38.6623 26.3454 50.6127 27.4632C62.5632 28.5966 71.9199 33.0369 71.5106 37.384C71.101 41.7312 61.0813 44.3394 49.1312 43.2061C41.156 42.4609 34.3381 40.2407 30.8051 37.5393L32.2425 35.6141L28.8596 35.5366C28.3869 34.8069 28.163 34.0616 28.2334 33.3008Z" fill="#383838"/>
<path d="M28.2324 33.3C28.6295 29.089 38.0463 26.5096 49.4987 27.3688L50.6132 27.4628C62.5627 28.5962 71.919 33.0363 71.5111 37.3831L69.1911 37.1662C69.2059 36.9952 69.1676 36.5454 68.4208 35.7699C67.68 34.9936 66.4465 34.1551 64.6983 33.3167C61.2201 31.6711 56.1719 30.3351 50.3948 29.7917C44.6176 29.2483 39.4082 29.6221 35.6835 30.5846C33.8113 31.0814 32.4395 31.6859 31.5683 32.307C31.0047 32.705 30.7514 33.0266 30.6388 33.247L32.2885 33.2849L33.6956 33.3167L34.9663 35.8472L34.1687 36.9176C37.5766 38.7337 42.9681 40.2949 49.3501 40.893C55.1272 41.4363 60.3367 41.0641 64.0614 40.1015C65.9335 39.6047 67.304 38.9986 68.1752 38.3777C69.0544 37.7567 69.1764 37.3215 69.1911 37.1662L71.5111 37.3831C71.1134 41.5939 61.698 44.1738 50.2462 43.3006L49.1318 43.2066C41.1568 42.4614 34.3386 40.2405 30.8056 37.5392L32.243 35.6137L28.8601 35.5364C28.3874 34.8067 28.162 34.0608 28.2324 33.3Z" fill="#1A1A1A"/>
<path d="M62.7694 36.9185C51.6844 38.9368 41.1459 35.9713 37.2371 33.922C36.6776 33.627 36.554 32.9128 36.912 32.4005L43.3704 22.992L50.3722 12.8074C50.4384 12.6987 50.5255 12.621 50.6269 12.5745L59.7517 7.35794C60.1457 7.12506 60.6482 7.28027 60.8403 7.69945L64.7578 16.0832L59.6523 13.3818C59.3219 13.211 58.9138 13.3042 58.6815 13.5992L55.8399 17.1699C55.714 17.3252 55.655 17.527 55.6757 17.7288L56.4621 25.4451C56.4762 25.5849 56.527 25.7091 56.6091 25.8177L63.4566 35.133C63.9533 35.8006 63.5937 36.7632 62.7694 36.9185Z" fill="#383838"/>
<path d="M59.9028 31.4223C52.5173 32.7886 43.7947 30.5219 40.1211 29.1401C39.9957 29.078 39.8574 29.1245 39.7722 29.2332L36.6266 33.037C36.5019 33.1923 36.547 33.4251 36.72 33.5182L41.4269 36.0334C41.454 36.0489 41.483 36.0489 41.513 36.0644L52.2824 38.1759C52.3183 38.1914 52.3551 38.1914 52.3912 38.1914L63.1248 36.4837C63.3515 36.4526 63.4622 36.1886 63.3304 36.0023L60.2156 31.562C60.1455 31.4533 60.0233 31.4068 59.9028 31.4223Z" fill="#7C2BDA"/>
<path d="M59.1589 6.35688C60.1437 5.7749 61.4111 6.16428 61.8944 7.20897L61.8959 7.20745L65.8125 15.5903C66.0242 16.0433 65.9227 16.581 65.5608 16.926C65.2443 17.2278 64.7906 17.3235 64.3857 17.1868L64.2158 17.114L59.4394 14.5987L57.1695 17.8115L56.8268 25.186L64.2431 34.3694L64.4236 34.6256C65.2254 35.9422 64.5399 37.777 62.8921 38.0795L62.5904 36.4299L62.6813 36.9348L62.8921 38.0795L62.8876 38.081C51.9153 40.0537 41.4787 37.2969 37.0996 35.1578L36.6947 34.9531L36.6932 34.9516L37.2375 33.9221L37.4741 33.4718L36.6932 34.9516C35.4365 34.2885 35.2544 32.7505 35.9532 31.7419H35.9517L49.412 12.1486L49.4136 12.1501C49.5717 11.9092 49.7861 11.7076 50.0504 11.5664L50.0489 11.5634L59.1589 6.35688ZM51.2801 13.542L37.932 32.9685C41.7323 34.9001 51.7954 37.686 62.4038 35.7992L54.9223 26.5339C54.9164 26.5266 54.9114 26.5186 54.9057 26.5112L55.7942 25.8289L55.8276 25.8031L54.9057 26.5112C54.6297 26.1518 54.4709 25.699 54.4932 25.2209L54.8496 17.5977C54.867 17.2179 54.9913 16.8695 55.1953 16.5728L55.2029 16.5606L57.7381 12.9734C58.3153 12.1496 59.3945 11.9327 60.2385 12.3882H60.237L62.2386 13.4419L59.9641 8.57654L51.2801 13.542ZM63.2484 35.1745L62.4766 35.7992L63.3379 35.1017L63.2484 35.1745ZM36.9115 32.4014L37.7379 32.967L36.8357 32.3484L36.9115 32.4014ZM59.6851 13.4131L59.3303 14.0878H59.3288H59.3303L59.7291 13.3282L59.6851 13.4131ZM58.7313 13.6754L59.3227 14.0832L58.6707 13.6329L58.7313 13.6754Z" fill="#1A1A1A"/>
</svg>
