<svg width="75" height="86" viewBox="0 0 75 86" fill="none" xmlns="http://www.w3.org/2000/svg">
<path d="M37.697 76.137C36.9843 78.0932 35.8209 80.3975 34.3036 82.0291C33.3992 83.0007 32.4287 83.6695 31.4152 83.9411C30.4332 84.205 29.2952 84.1308 27.9581 83.4059C25.0508 81.8315 22.6418 79.1441 20.803 76.3478C19.5927 74.5064 18.6551 72.6568 18.001 71.1243L37.697 76.137Z" fill="#9747FF"/>
<path d="M54.5742 67.126C55.5083 69.0031 56.4157 71.4225 56.6242 73.5154C56.7462 74.7405 56.6137 75.7117 56.2451 76.3933C55.9042 77.0233 55.2709 77.574 54.0178 77.7882C51.2368 78.2648 47.9743 77.6456 44.9552 76.6116C43.0141 75.9471 41.2219 75.1283 39.7939 74.3721L54.5742 67.126Z" fill="#9747FF"/>
<path d="M24.3237 29.7582C27.1565 27.7056 30.6739 26.5413 34.716 27.8114C41.8129 30.0395 46.4283 35.3339 48.576 38.8754L19.1624 35.3744C20.3214 33.53 22.0881 31.3791 24.3237 29.7582Z" fill="#9747FF"/>
<path fill-rule="evenodd" clip-rule="evenodd" d="M60.7372 62.3847C51.7363 72.393 41.8316 78.4281 27.9441 78.4281C17.0279 78.4281 0 74.2841 0 55.4523C0 36.6219 14.4595 32.4764 29.8705 32.4764C42.4333 32.4764 51.4202 39.8468 61.0847 47.9841L64.1639 44.8975C65.4189 43.6383 67.1263 42.7114 68.8072 43.2874C71.5201 44.2174 74.5262 47.1301 74.5262 54.3002C74.5262 60.5573 72.5025 64.2138 70.3938 66.1639C68.6212 67.8035 66.025 67.0613 64.2162 65.4621L60.7372 62.3847Z" fill="#D9B8FF"/>
<path fill-rule="evenodd" clip-rule="evenodd" d="M23.6412 28.8148C26.6845 26.6099 30.5799 25.2906 35.0646 26.6996C42.518 29.0397 47.3327 34.578 49.572 38.2701C49.6637 38.4212 49.9127 38.8941 50.1664 39.4315C53.8622 41.934 57.4257 44.9037 61.0848 47.9846L64.1643 44.8991C65.4193 43.6399 67.1262 42.7128 68.8071 43.2888C71.5199 44.219 74.5263 47.1315 74.5263 54.3013L74.5203 54.8805C74.3994 60.7842 72.4369 64.2752 70.3946 66.1644C68.6221 67.8034 66.0245 67.0612 64.2159 65.4624L60.7376 62.3859C59.1666 64.1327 57.5645 65.7547 55.922 67.2485C56.7767 69.0879 57.5783 71.3526 57.7825 73.4014L57.8204 73.8972C57.8791 75.0438 57.729 76.0989 57.27 76.9479L57.2685 76.9464C56.7377 77.9276 55.7761 78.6685 54.2132 78.9357L54.2147 78.9372C51.3437 79.4292 48.1039 78.8544 45.1613 77.9077L44.5775 77.7136C43.348 77.2927 42.1794 76.81 41.119 76.3217C40.2865 76.6078 39.4389 76.8655 38.5747 77.095C37.8209 79.0073 36.6704 81.1944 35.1571 82.8218L34.775 83.2115C33.9991 83.9658 33.1374 84.567 32.1944 84.9142L31.7167 85.0659C30.4232 85.4134 28.9786 85.2841 27.4015 84.429C24.5425 82.8801 22.1852 80.3699 20.3571 77.7606C10.7392 76.0291 0.418606 70.4974 0.0121299 56.3255L0 55.4537C0 41.1362 8.3601 35.3118 19.141 33.3408C20.2988 31.7764 21.8182 30.1366 23.6412 28.8148ZM35.7469 77.7303C33.2859 78.1873 30.6936 78.4293 27.9443 78.4293L26.9042 78.4171C25.8544 78.3921 24.7582 78.3251 23.6337 78.214C25.0563 79.9149 26.6918 81.3966 28.5114 82.3821L28.9117 82.5792C29.815 82.9789 30.5269 82.9733 31.1133 82.8158L31.3908 82.7278C31.9518 82.5207 32.5426 82.1332 33.1481 81.5451L33.4513 81.2343C34.3502 80.2676 35.1242 79.0099 35.7469 77.7303ZM54.0843 68.8481C50.9972 71.4156 47.7429 73.524 44.2151 75.1011C44.5808 75.2425 44.9535 75.3807 45.3326 75.5105L46.4395 75.8668C49.029 76.642 51.6333 77.0163 53.8205 76.6416C54.3144 76.5572 54.6236 76.4175 54.8182 76.2853C55.0073 76.1566 55.1312 76.0064 55.2215 75.8395L55.2973 75.6773C55.4413 75.3234 55.5336 74.787 55.496 74.0291L55.4656 73.6319C55.3167 72.1374 54.7572 70.4065 54.0843 68.8481ZM29.87 34.807C22.2866 34.807 15.3517 35.844 10.3711 38.8902C5.60173 41.8092 2.32895 46.7517 2.32895 55.4537C2.32928 64.0063 6.1185 69.0161 11.0807 72.0095C16.1987 75.096 22.7093 76.1003 27.9443 76.1003C40.9864 76.1003 50.3065 70.5013 59.0061 60.8287L59.1729 60.6604C60.0414 59.8715 61.3817 59.8477 62.2796 60.6422L65.7594 63.7187C66.41 64.2942 67.1222 64.6354 67.6972 64.73C68.2128 64.8152 68.5431 64.7052 68.8131 64.4556C70.3624 63.0225 72.1972 60.0312 72.1974 54.3013C72.1974 51.035 71.5122 48.973 70.7099 47.692C69.9193 46.4299 68.9336 45.7947 68.052 45.4919C67.8476 45.4222 67.5845 45.4113 67.1907 45.5678C66.7705 45.7355 66.2858 46.0677 65.8125 46.5427L62.733 49.6298L62.5677 49.7814C61.71 50.4905 60.4529 50.4961 59.5853 49.7662C49.8225 41.5466 41.4599 34.807 29.87 34.807ZM34.3656 28.9209C30.7671 27.7906 27.6292 28.8014 25.0074 30.701L25.0059 30.6995C24.1229 31.3397 23.3161 32.0743 22.595 32.8404C24.9587 32.5845 27.4021 32.4781 29.87 32.478L31.0375 32.4993C36.3971 32.6964 41.1064 34.246 45.5161 36.6037C43.1903 33.8026 39.6789 30.7597 34.9918 29.1287L34.3656 28.9209Z" fill="#1A1A1A"/>
<path d="M30.6746 55.1829L32.3663 53.4862C32.9729 52.8785 34.3953 51.6862 35.3502 52.4112C36.0922 52.9745 36.9516 54.2237 36.9516 56.9629C36.9516 59.1255 36.4781 60.591 35.9092 61.5555C35.5679 62.1334 35.0629 62.3457 34.3661 62.2762C33.6055 62.2003 32.6929 61.7712 31.924 61.0915L30.9508 60.2302C30.4692 59.804 29.7332 59.8489 29.307 60.3305C28.8808 60.8121 28.9257 61.548 29.4073 61.9743L30.3814 62.8363C31.4212 63.7557 32.7748 64.4579 34.1349 64.5936C35.5587 64.7356 37.0291 64.2397 37.9151 62.7389C38.7292 61.3589 39.2805 59.4704 39.2805 56.9629C39.2805 53.7183 38.2375 51.679 36.7584 50.5562C35.659 49.7215 34.4112 49.7377 33.3607 50.0975C32.342 50.4466 31.4206 51.1369 30.7175 51.8415L29.0254 53.5385C28.5713 53.9939 28.5724 54.7312 29.0278 55.1853C29.4832 55.6394 30.2205 55.6383 30.6746 55.1829Z" fill="#1A1A1A"/>
<path d="M19.9725 52.5713C21.1081 52.5714 22.0286 53.6135 22.0286 54.8775C22.0285 55.1969 21.9701 55.4313 21.8633 55.6144C21.7607 55.782 21.6126 55.8945 21.4221 55.9726C21.215 56.0452 20.9834 56.0867 20.7686 56.1005H19.175C18.9598 56.0866 18.7286 56.0454 18.5215 55.9726C18.3311 55.8945 18.1826 55.782 18.0803 55.6144C17.9737 55.4314 17.9166 55.1965 17.9165 54.8775C17.9165 53.6134 18.8368 52.5713 19.9725 52.5713Z" fill="#1A1A1A"/>
<path d="M7.55189 52.5713C6.41635 52.5714 5.49586 53.6135 5.49586 54.8775C5.49596 55.1969 5.55433 55.4313 5.66113 55.6144C5.76369 55.782 5.91183 55.8945 6.10236 55.9726C6.30938 56.0452 6.54097 56.0867 6.75586 56.1005H8.34943C8.56462 56.0866 8.79583 56.0454 9.00293 55.9726C9.19328 55.8945 9.34179 55.782 9.44416 55.6144C9.55073 55.4314 9.60782 55.1965 9.60791 54.8775C9.60791 53.6134 8.68764 52.5713 7.55189 52.5713Z" fill="#1A1A1A"/>
<path fill-rule="evenodd" clip-rule="evenodd" d="M9.91577 56.911C10.4117 56.5015 11.1457 56.5716 11.5551 57.0675C12.7422 58.5052 14.9286 58.558 16.1834 57.1793L16.3232 57.0256C16.7558 56.5498 17.4922 56.5147 17.9681 56.9473C18.444 57.3799 18.4791 58.1164 18.0464 58.5923L17.9067 58.746C15.6976 61.174 11.8488 61.0811 9.75923 58.5504C9.34976 58.0544 9.41985 57.3205 9.91577 56.911Z" fill="#1A1A1A"/>
<path d="M43.4737 55.5517C43.4735 49.8546 40.597 45.8266 39.3131 44.6378C38.6844 44.0551 38.6473 43.0728 39.2297 42.4438C39.8124 41.815 40.7947 41.7779 41.4237 42.3604C43.2451 44.0473 46.5788 48.866 46.5789 55.5517C46.5789 62.2394 43.2452 67.0592 41.4237 68.746C40.7946 69.3286 39.8123 69.2903 39.2297 68.6611C38.6472 68.0319 38.684 67.0497 39.3131 66.4671C40.597 65.2782 43.4737 61.2506 43.4737 55.5517Z" fill="#9747FF"/>
<path d="M51.2367 55.5517C51.2366 51.3612 49.4514 48.4451 48.7274 47.649C48.1504 47.0148 48.1964 46.0336 48.8305 45.4565C49.4647 44.8796 50.4459 44.9256 51.023 45.5596C52.2398 46.8972 54.3419 50.5484 54.342 55.5517C54.342 60.5552 52.2404 64.2066 51.0245 65.5452C50.4479 66.1799 49.4652 66.2279 48.8305 65.6514C48.1958 65.0748 48.1493 64.092 48.7259 63.4574C49.4508 62.6593 51.2367 59.7425 51.2367 55.5517Z" fill="#9747FF"/>
</svg>
