<svg width="75" height="86" viewBox="0 0 75 86" fill="none" xmlns="http://www.w3.org/2000/svg">
<path d="M39.5924 31.2856C42.9119 31.2856 45.7858 33.1799 47.1987 35.9435C47.2515 35.9435 47.3028 35.9435 47.3556 35.9435C51.3551 35.9435 54.7135 38.6918 55.6404 42.4025C59.3543 43.3341 62.1056 46.7033 62.1056 50.6935C62.1056 50.7556 62.1025 50.8022 62.1009 50.8488C64.8677 52.2617 66.7635 55.1341 66.7635 58.4567C66.7635 58.5188 66.7604 58.5653 66.7588 58.6119C69.5256 60.0248 71.4214 62.8972 71.4214 66.2199C71.4214 67.462 71.1512 68.642 70.6746 69.7133C72.0999 71.2349 72.974 73.2843 72.974 75.5356C72.974 80.2556 69.1514 84.0751 64.4345 84.0751C62.7158 84.0751 61.1165 83.5627 59.7766 82.6933C58.4367 83.5627 56.8375 84.0751 55.1187 84.0751C52.6702 84.0751 50.4655 83.0504 48.9082 81.3891C47.3509 83.0504 45.1462 84.0751 42.6977 84.0751C40.6327 84.0751 38.74 83.3454 37.2635 82.1188C35.7869 83.3454 33.8943 84.0751 31.8293 84.0751C29.7643 84.0751 27.8716 83.3454 26.395 82.1188C24.9185 83.3454 23.0258 84.0751 20.9608 84.0751C19.5619 84.0751 18.2437 83.7336 17.0793 83.1436C15.9148 83.7336 14.5966 84.0751 13.1977 84.0751C8.48078 84.0751 4.6582 80.2556 4.6582 75.5356C4.6582 73.2843 5.5308 71.2349 6.95611 69.7133C6.47946 68.642 6.21083 67.462 6.21083 66.2199C6.21083 62.8972 8.10507 60.0248 10.8719 58.6119C10.8703 58.5653 10.8687 58.5188 10.8687 58.4567C10.8687 54.5441 13.5004 51.2524 17.0901 50.2432C17.2904 46.4393 19.9718 43.3031 23.5429 42.4025C24.4698 38.6918 27.8281 35.9435 31.8293 35.9435C31.8805 35.9435 31.9317 35.9435 31.9845 35.9435C33.3974 33.1799 36.2729 31.2856 39.5924 31.2856Z" fill="#FFF0FE"/>
<path d="M25.603 63.9526C32.2049 64.4649 44.8326 65.0547 50.4966 64.0766C50.9668 63.9992 51.4165 64.3251 51.4556 64.8061C51.904 70.4195 52.8316 79.9282 53.7847 83.9711C51.875 83.6725 50.1763 82.7424 48.9077 81.3891C47.3505 83.0501 45.146 84.0746 42.6978 84.0746C40.6328 84.0746 38.7397 83.3452 37.2632 82.1186C35.7867 83.3451 33.8935 84.0746 31.8286 84.0746C29.7639 84.0745 27.8714 83.345 26.395 82.1186C25.5368 82.8315 24.5372 83.374 23.4458 83.7055C23.9233 77.8446 24.6411 68.4493 24.7534 64.7289C24.7674 64.2787 25.1512 63.9215 25.603 63.9526Z" fill="#5F114C"/>
<path d="M47.1987 35.9435L46.1631 36.4868C46.3649 36.875 46.7748 37.1235 47.2204 37.1079L47.1987 35.9435ZM55.6403 42.4025L54.51 42.6974C54.6141 43.1166 54.9401 43.4427 55.3577 43.5359L55.6403 42.4025ZM62.1009 50.8487L60.9364 50.8331C60.9286 51.2679 61.1755 51.6872 61.5714 51.889L62.1009 50.8487ZM66.7587 58.6118L65.5943 58.5963C65.5865 59.031 65.8334 59.4503 66.2293 59.6522L66.7587 58.6118ZM70.6745 69.7132L69.6109 69.2318C69.42 69.6665 69.5022 70.1635 69.8236 70.5051L70.6745 69.7132ZM59.7765 82.6932L60.4131 81.715C60.0265 81.4666 59.5266 81.4666 59.14 81.715L59.7765 82.6932ZM48.9081 81.389L49.7558 80.5972C49.5354 80.3643 49.228 80.2245 48.9081 80.2245C48.5883 80.2245 48.2809 80.3643 48.0604 80.5972L48.9081 81.389ZM37.2634 82.1187L38.0055 81.2336C37.5739 80.8765 36.9529 80.8765 36.5212 81.2336L37.2634 82.1187ZM26.395 82.1187L27.1371 81.2336C26.7055 80.8765 26.0844 80.8765 25.6528 81.2336L26.395 82.1187ZM17.0792 83.1435L17.6086 82.1032C17.2764 81.9324 16.882 81.9324 16.5497 82.1032L17.0792 83.1435ZM6.95604 69.7132L7.8084 70.5051C8.12824 70.1635 8.21056 69.6665 8.01959 69.2318L6.95604 69.7132ZM10.8718 58.6118L11.4012 59.6522C11.7971 59.4503 12.044 59.031 12.0363 58.5963L10.8718 58.6118ZM17.09 50.2431L17.4052 51.361C17.885 51.2213 18.2266 50.8021 18.253 50.3053L17.09 50.2431ZM23.5428 42.4025L23.8254 43.5359C24.243 43.4427 24.5691 43.1166 24.6731 42.6974L23.5428 42.4025ZM31.9845 35.9435L31.9627 37.1079C32.4083 37.1235 32.8182 36.875 33.0216 36.4713L31.9845 35.9435ZM39.5923 31.2856V32.45C42.4569 32.45 44.9396 34.0803 46.1631 36.4868L47.1987 35.9435L48.2358 35.4156C46.6319 32.2793 43.3668 30.1211 39.5923 30.1211V31.2856ZM47.1987 35.9435L47.2204 37.1079C47.3105 37.1079 47.3136 37.1079 47.3555 37.1079V35.9435V34.779C47.2934 34.779 47.1924 34.779 47.1785 34.779L47.1987 35.9435ZM47.3555 35.9435V37.1079C50.8085 37.1079 53.7089 39.4834 54.51 42.6974L55.6403 42.4025L56.7706 42.1229C55.7164 37.9153 51.9032 34.779 47.3555 34.779V35.9435ZM55.6403 42.4025L55.3577 43.5359C58.5655 44.3432 60.941 47.2466 60.941 50.6935H62.1055H63.27C63.27 46.1443 60.143 42.3402 55.9229 41.2844L55.6403 42.4025ZM62.1055 50.6935H60.941C60.941 50.6935 60.941 50.6935 60.941 50.709C60.941 50.709 60.941 50.709 60.9395 50.7245C60.9395 50.7401 60.9379 50.7866 60.9364 50.8331L62.1009 50.8487L63.2653 50.8642C63.2653 50.8642 63.2653 50.8487 63.2668 50.8176C63.2684 50.7866 63.27 50.74 63.27 50.6935H62.1055ZM62.1009 50.8487L61.5714 51.889C63.964 53.1156 65.5989 55.5998 65.5989 58.4566H66.7634H67.9279C67.9279 54.6837 65.7713 51.4231 62.6303 49.8084L62.1009 50.8487ZM66.7634 58.4566H65.5989C65.5989 58.4566 65.5989 58.4566 65.5989 58.4722C65.5989 58.4722 65.5989 58.4722 65.5974 58.4877C65.5974 58.5032 65.5958 58.5497 65.5943 58.5963L66.7587 58.6118L67.9232 58.6274C67.9232 58.6274 67.9232 58.6118 67.9247 58.5808C67.9263 58.5497 67.9279 58.5032 67.9279 58.4566H66.7634ZM66.7587 58.6118L66.2293 59.6522C68.6219 60.8788 70.2568 63.3629 70.2568 66.2198H71.4213H72.5858C72.5858 62.4469 70.4292 59.1863 67.2882 57.5715L66.7587 58.6118ZM71.4213 66.2198H70.2568C70.2568 67.2911 70.0239 68.3157 69.6109 69.2318L70.6745 69.7132L71.7365 70.1944C72.2783 68.9834 72.5858 67.6327 72.5858 66.2198H71.4213ZM70.6745 69.7132L69.8236 70.5051C71.0564 71.8248 71.8094 73.5948 71.8094 75.5356H72.9739H74.1384C74.1384 72.9737 73.1431 70.6448 71.5253 68.9213L70.6745 69.7132ZM72.9739 75.5356H71.8094C71.8094 79.619 68.507 82.9106 64.4344 82.9106V84.075V85.2395C69.7941 85.2395 74.1384 80.8921 74.1384 75.5356H72.9739ZM64.4344 84.075V82.9106C62.9501 82.9106 61.5698 82.4758 60.4131 81.715L59.7765 82.6932L59.14 83.6713C60.6631 84.665 62.4812 85.2395 64.4344 85.2395V84.075ZM59.7765 82.6932L59.14 81.715C57.9833 82.4758 56.603 82.9106 55.1187 82.9106V84.075V85.2395C57.0719 85.2395 58.89 84.665 60.4131 83.6713L59.7765 82.6932ZM55.1187 84.075V82.9106C53.0055 82.9106 51.102 82.0256 49.7558 80.5972L48.9081 81.389L48.0604 82.1962C49.8289 84.0749 52.3363 85.2395 55.1187 85.2395V84.075ZM48.9081 81.389L48.0604 80.5972C46.7143 82.0256 44.8107 82.9106 42.6976 82.9106V84.075V85.2395C45.4799 85.2395 47.9874 84.0749 49.7558 82.1962L48.9081 81.389ZM42.6976 84.075V82.9106C40.9136 82.9106 39.2803 82.2739 38.0055 81.2336L37.2634 82.1187L36.5212 83.0192C38.1996 84.401 40.3516 85.2395 42.6976 85.2395V84.075ZM37.2634 82.1187L36.5212 81.2336C35.2465 82.2739 33.6132 82.9106 31.8292 82.9106V84.075V85.2395C34.1752 85.2395 36.3271 84.401 38.0055 83.0192L37.2634 82.1187ZM31.8292 84.075V82.9106C30.0452 82.9106 28.4118 82.2739 27.1371 81.2336L26.395 82.1187L25.6528 83.0192C27.3312 84.401 29.4832 85.2395 31.8292 85.2395V84.075ZM26.395 82.1187L25.6528 81.2336C24.3781 82.2739 22.7447 82.9106 20.9608 82.9106V84.075V85.2395C23.3068 85.2395 25.4587 84.401 27.1371 83.0192L26.395 82.1187ZM20.9608 84.075V82.9106C19.7528 82.9106 18.6147 82.6155 17.6086 82.1032L17.0792 83.1435L16.5497 84.1836C17.8726 84.8513 19.3724 85.2395 20.9608 85.2395V84.075ZM17.0792 83.1435L16.5497 82.1032C15.5436 82.6155 14.4055 82.9106 13.1976 82.9106V84.075V85.2395C14.7859 85.2395 16.2858 84.8513 17.6086 84.1836L17.0792 83.1435ZM13.1976 84.075V82.9106C9.12505 82.9106 5.8226 79.619 5.8226 75.5356H4.65813H3.49365C3.49365 80.8921 7.83792 85.2395 13.1976 85.2395V84.075ZM4.65813 75.5356H5.8226C5.8226 73.5948 6.57561 71.8248 7.8084 70.5051L6.95604 69.7132L6.10519 68.9213C4.48735 70.6448 3.49365 72.9737 3.49365 75.5356H4.65813ZM6.95604 69.7132L8.01959 69.2318C7.60659 68.3157 7.37523 67.2911 7.37523 66.2198H6.21076H5.04628C5.04628 67.6327 5.35058 68.9834 5.89401 70.1944L6.95604 69.7132ZM6.21076 66.2198H7.37523C7.37523 63.3629 9.00858 60.8788 11.4012 59.6522L10.8718 58.6118L10.3423 57.5715C7.20135 59.1863 5.04628 62.4469 5.04628 66.2198H6.21076ZM10.8718 58.6118L12.0363 58.5963C12.0347 58.5031 12.0331 58.5032 12.0331 58.4566H10.8687H9.70418C9.70418 58.5187 9.70731 58.6274 9.70731 58.6274L10.8718 58.6118ZM10.8687 58.4566H12.0331C12.0331 55.0874 14.3046 52.2305 17.4052 51.361L17.09 50.2431L16.7748 49.1253C12.6961 50.2742 9.70418 54.0161 9.70418 58.4566H10.8687ZM17.09 50.2431L18.253 50.3053C18.4253 47.0293 20.7403 44.3122 23.8254 43.5359L23.5428 42.4025L23.2602 41.2844C19.2032 42.2936 16.1538 45.8647 15.9271 50.181L17.09 50.2431ZM23.5428 42.4025L24.6731 42.6974C25.4727 39.4834 28.3761 37.1079 31.8292 37.1079V35.9435V34.779C27.2815 34.779 23.4667 37.9153 22.4125 42.1229L23.5428 42.4025ZM31.8292 35.9435V37.1079C31.8711 37.1079 31.8711 37.1079 31.9627 37.1079L31.9845 35.9435L32.0046 34.779C31.9938 34.779 31.8897 34.779 31.8292 34.779V35.9435ZM31.9845 35.9435L33.0216 36.4713C34.2435 34.0803 36.7277 32.45 39.5923 32.45V31.2856V30.1211C35.8179 30.1211 32.5512 32.2793 30.9473 35.4156L31.9845 35.9435Z" fill="#1A1A1A"/>
<path d="M24.8428 53.0225C26.5577 53.0225 27.9482 54.0654 27.9482 55.3516C27.9482 56.6378 26.5577 57.6806 24.8428 57.6807C23.1278 57.6807 21.7373 56.6378 21.7373 55.3516C21.7373 54.0653 23.1278 53.0225 24.8428 53.0225ZM52.79 53.0225C54.505 53.0225 55.8955 54.0654 55.8955 55.3516C55.8955 56.6378 54.505 57.6806 52.79 57.6807C51.075 57.6807 49.6846 56.6378 49.6846 55.3516C49.6846 54.0653 51.0751 53.0225 52.79 53.0225Z" fill="#FFAFA3"/>
<path d="M43.1147 59.4004H36.1147L39.6147 54.1504L43.1147 59.4004Z" fill="#FFAFA3"/>
<path d="M43.1154 60.5649C43.5447 60.5648 43.9394 60.3278 44.1419 59.9493C44.3442 59.5709 44.3222 59.1117 44.0843 58.7545L40.5833 53.5038C40.3673 53.1803 40.0035 52.9852 39.6144 52.9852C39.2254 52.9854 38.8614 53.1802 38.6455 53.5038L35.146 58.7545C34.9079 59.1118 34.886 59.5708 35.0884 59.9493C35.2911 60.328 35.6855 60.5649 36.1149 60.5649H43.1154ZM39.6144 56.2512L40.9396 58.236H38.2907L39.6144 56.2512Z" fill="#1A1A1A"/>
<path d="M43.7781 54.1631C44.0107 53.7069 44.5698 53.5237 45.0261 53.7559C45.0271 53.7564 45.0292 53.7584 45.032 53.7598C45.0379 53.7627 45.0476 53.7682 45.0603 53.7744C45.0861 53.7871 45.126 53.8049 45.1755 53.8281C45.2752 53.8748 45.4151 53.9387 45.575 54.0039C45.9174 54.1435 46.2693 54.2582 46.5066 54.2861C46.7336 54.3127 47.0874 54.2874 47.4392 54.2383C47.6036 54.2153 47.7493 54.1905 47.8533 54.1709C47.9051 54.1611 47.9473 54.1521 47.9744 54.1465C47.987 54.1439 47.9966 54.1409 48.0027 54.1396C48.0055 54.1391 48.0083 54.1389 48.0095 54.1387C48.5098 54.028 49.0063 54.3445 49.117 54.8447C49.2272 55.3447 48.9099 55.8396 48.4099 55.9502L48.405 55.9521C48.4021 55.9528 48.397 55.9531 48.3923 55.9541L48.198 55.9932C48.0724 56.0169 47.8971 56.0482 47.697 56.0762C47.3191 56.129 46.7662 56.1848 46.2898 56.1289C45.7895 56.07 45.2439 55.8712 44.8748 55.7207C44.6796 55.6411 44.5094 55.5664 44.3884 55.5098C44.3282 55.4816 44.2786 55.4575 44.2439 55.4404C44.2265 55.4319 44.2109 55.4239 44.2009 55.4189C44.1964 55.4167 44.192 55.4155 44.1892 55.4141L44.1843 55.4102L44.0261 55.3096C43.6886 55.041 43.5753 54.5626 43.7781 54.1631ZM46.8836 49.9248C47.9082 49.9249 48.739 50.7556 48.739 51.7803C48.739 52.8049 47.9082 53.6357 46.8836 53.6357C45.8589 53.6357 45.0282 52.8049 45.0281 51.7803C45.0281 50.7556 45.8588 49.9248 46.8836 49.9248Z" fill="#1A1A1A"/>
<path d="M34.4626 54.1631C34.2301 53.7069 33.6709 53.5238 33.2146 53.7559C33.2136 53.7564 33.2115 53.7584 33.2087 53.7598C33.2029 53.7627 33.1932 53.7681 33.1804 53.7744C33.1546 53.7871 33.1147 53.8049 33.0652 53.8281C32.9655 53.8748 32.8256 53.9387 32.6658 54.0039C32.3233 54.1435 31.9715 54.2582 31.7341 54.2861C31.5071 54.3127 31.1533 54.2874 30.8015 54.2383C30.6372 54.2153 30.4915 54.1905 30.3874 54.1709C30.3356 54.1611 30.2934 54.1521 30.2663 54.1465C30.2536 54.1438 30.2441 54.141 30.238 54.1396C30.235 54.139 30.2313 54.1389 30.2302 54.1387C29.7302 54.0283 29.2344 54.3447 29.1238 54.8447C29.0135 55.3447 29.3299 55.8394 29.8298 55.9502L29.8357 55.9521C29.8386 55.9528 29.843 55.9531 29.8474 55.9541L30.0427 55.9932C30.1684 56.0169 30.3436 56.0482 30.5437 56.0762C30.9217 56.129 31.4745 56.1849 31.9509 56.1289C32.4512 56.07 32.9968 55.8712 33.366 55.7207C33.5611 55.6411 33.7314 55.5664 33.8523 55.5098C33.9125 55.4816 33.9621 55.4575 33.9968 55.4404C34.0141 55.4319 34.0289 55.4239 34.0388 55.4189C34.0434 55.4166 34.0476 55.4155 34.0505 55.4141L34.0564 55.4102L34.2146 55.3096C34.5521 55.041 34.6654 54.5626 34.4626 54.1631ZM31.3572 49.9248C30.3325 49.9248 29.5017 50.7556 29.5017 51.7803C29.5017 52.805 30.3325 53.6357 31.3572 53.6357C32.3818 53.6356 33.2126 52.8049 33.2126 51.7803C33.2126 50.7556 32.3818 49.9249 31.3572 49.9248Z" fill="#1A1A1A"/>
</svg>
