<svg width="75" height="86" viewBox="0 0 75 86" fill="none" xmlns="http://www.w3.org/2000/svg">
<path d="M66.6358 66.5054C66.6358 76.95 55.0702 83.8142 38.0798 83.8142C21.0878 83.8142 11.5469 73.1802 11.5469 65.0972C11.5469 57.0158 15.9067 53.9028 20.4528 46.4719C25.0858 38.8981 25.904 29.3789 38.0798 29.3789C50.2555 29.3789 53.5844 40.3979 57.778 49.0026C60.4206 54.4259 66.6358 56.0609 66.6358 66.5054Z" fill="#7F699B"/>
<path d="M10.3823 65.0969C10.3824 60.8005 11.5554 57.7942 13.3011 54.9336C14.1577 53.53 15.1589 52.1511 16.1971 50.7017C17.2432 49.2413 18.3474 47.6822 19.4601 45.8634C20.5771 44.0372 21.4674 42.0888 22.3955 40.1108C23.3108 38.1602 24.2653 36.176 25.4811 34.4218C26.7076 32.6522 28.2226 31.0808 30.2845 29.9611C32.347 28.841 34.8797 28.2144 38.0795 28.2144C44.6101 28.2144 48.8052 31.209 51.8531 35.2649C54.8206 39.214 56.7937 44.3252 58.8247 48.4926L59.0567 48.9399C59.6198 49.9648 60.336 50.8664 61.1491 51.7859C62.0462 52.8002 63.1452 53.923 64.1119 55.1504C66.1401 57.7256 67.8009 60.9947 67.8009 66.5055C67.8008 72.2282 64.6076 76.8945 59.3296 80.0744C54.0784 83.238 46.7117 84.9779 38.0795 84.9779C20.6805 84.9778 10.3823 74.036 10.3823 65.0969ZM12.7113 65.0969C12.7113 72.3238 21.4948 82.6489 38.0795 82.649C46.4375 82.649 53.3496 80.9584 58.1288 78.079C62.8809 75.2158 65.4719 71.2271 65.4719 66.5055C65.4719 61.5718 64.0233 58.8001 62.2833 56.5908C61.3661 55.4264 60.4152 54.4714 59.4039 53.3279C58.4248 52.2206 57.4598 51.0091 56.7308 49.513C54.5683 45.0759 52.7802 40.3743 49.9911 36.6629C47.2822 33.0583 43.7244 30.5433 38.0795 30.5433C35.1916 30.5433 33.056 31.1065 31.3959 32.008C29.7354 32.9098 28.4736 34.1918 27.3946 35.7486C26.3048 37.3208 25.4247 39.1367 24.5031 41.1009C23.5945 43.0374 22.6455 45.1192 21.4463 47.0794C20.2861 48.9758 19.1392 50.5932 18.0894 52.0588C17.0318 53.5352 16.0904 54.8332 15.2889 56.1466C13.7182 58.7204 12.7113 61.3121 12.7113 65.0969Z" fill="#1A1A1A"/>
<path d="M22.7115 38.5426C25.8991 30.3634 33.4899 28.0407 37.2426 27.9475C47.4527 27.9475 52.7984 34.6798 54.9488 39.7926C55.4426 40.9679 54.2501 41.9756 53.0872 41.4554L42.9237 36.9L38.5763 43.7518C37.9615 44.7206 36.5424 44.7097 35.9415 43.7316L31.7525 36.9L24.6554 40.2195C23.491 40.7645 22.2442 39.7413 22.7115 38.5426Z" fill="#009951"/>
<path d="M37.2428 26.783C48.0807 26.783 53.7617 33.9644 56.0229 39.3405C56.4702 40.4058 56.1524 41.4836 55.4058 42.1364C54.725 42.7317 53.7385 42.9369 52.7994 42.5943L52.6114 42.5185L43.3669 38.3731L39.5596 44.3759C38.4828 46.0722 36.0013 46.0515 34.9502 44.341L34.9487 44.3395L31.3021 38.3943L25.1492 41.2737C24.1452 41.7436 23.0576 41.5477 22.3199 40.9234C21.5653 40.2849 21.2016 39.2112 21.627 38.1199C25.0379 29.3675 33.1572 26.8837 37.214 26.783H37.2428ZM37.264 29.1119C33.8125 29.2005 26.7587 31.3655 23.7967 38.966C23.7673 39.0416 23.7766 39.0756 23.7785 39.0827C23.7823 39.0964 23.7935 39.1206 23.824 39.1464C23.8841 39.197 24.002 39.2396 24.1621 39.1646L32.2013 35.4043L36.9335 43.122C37.0841 43.3673 37.4399 43.3687 37.593 43.128L42.4799 35.4255L53.5636 40.3927C53.7327 40.4684 53.8355 40.4162 53.8729 40.3836C53.8931 40.366 53.8963 40.3524 53.8972 40.3488C53.8978 40.3462 53.8999 40.3395 53.8987 40.326C53.8975 40.3125 53.8931 40.2853 53.8759 40.2442C51.8378 35.3982 46.8323 29.1212 37.264 29.1119Z" fill="#1A1A1A"/>
<path d="M36.0366 24.6187H42.7254L40.2784 31.2763L39.7459 31.489C39.0565 31.7654 38.291 31.7856 37.5893 31.5449L36.799 31.2763L36.0366 24.6187Z" fill="#009951"/>
<path d="M42.7246 23.4541C43.1049 23.4541 43.462 23.6397 43.6798 23.9514C43.8976 24.2635 43.9491 24.6632 43.8178 25.0204L41.3706 31.6782C41.2566 31.988 41.0161 32.235 40.7095 32.3575L40.1773 32.5682L40.1788 32.5697C39.2314 32.9495 38.1782 32.9784 37.2115 32.6471V32.6456L36.4246 32.3787C35.9983 32.2338 35.6935 31.8557 35.6422 31.4083L34.8796 24.7505C34.842 24.421 34.9469 24.0913 35.1676 23.8438C35.3886 23.5961 35.7045 23.4541 36.0365 23.4541H42.7246ZM37.8711 30.4106L37.9636 30.4425L37.9666 30.444C38.4034 30.5938 38.8819 30.5804 39.3131 30.4076L39.3646 30.3864L41.0567 25.783H37.3419L37.8711 30.4106Z" fill="#1A1A1A"/>
<path d="M40.0861 66.7198C40.0861 68.0061 39.0434 69.0488 37.7572 69.0488C36.4709 69.0488 35.4282 68.0061 35.4282 66.7198C35.4282 65.4336 36.4709 64.3909 37.7572 64.3909C39.0434 64.3909 40.0861 65.4336 40.0861 66.7198Z" fill="#FFAFA3"/>
<path d="M38.9216 66.72C38.9216 66.0769 38.4002 65.5555 37.7571 65.5555C37.114 65.5555 36.5926 66.0769 36.5926 66.72C36.5926 67.3631 37.114 67.8845 37.7571 67.8845C38.4002 67.8845 38.9216 67.3631 38.9216 66.72ZM41.2505 66.72C41.2505 68.6493 39.6865 70.2134 37.7571 70.2134C35.8277 70.2134 34.2637 68.6493 34.2637 66.72C34.2637 64.7906 35.8277 63.2266 37.7571 63.2266C39.6865 63.2266 41.2505 64.7906 41.2505 66.72Z" fill="#1A1A1A"/>
<path d="M44.9874 60.554C46.0121 60.554 46.8429 61.3848 46.8429 62.4095C46.8427 63.4341 46.012 64.265 44.9874 64.265C43.9629 64.2648 43.1321 63.434 43.1319 62.4095C43.1319 61.3849 43.9628 60.5542 44.9874 60.554ZM46.8946 55.5824C47.6526 55.1807 48.5632 55.3204 48.9288 55.8939C49.294 56.4675 48.9772 57.2584 48.2198 57.6605L48.2159 57.6624C48.2145 57.6632 48.2124 57.6651 48.2101 57.6663C48.2041 57.6694 48.1937 57.6742 48.1827 57.68C48.1601 57.692 48.1271 57.7095 48.0851 57.7318C47.9994 57.7771 47.8756 57.8435 47.7228 57.9242C47.4166 58.0857 46.9924 58.3083 46.5235 58.554C45.5908 59.0429 44.4593 59.6315 43.7159 60.0023L43.5704 60.0667C42.8364 60.3628 42.0254 60.1846 41.7052 59.6351C41.3637 59.0489 41.7105 58.262 42.4796 57.8783L43.7618 57.2249C44.2411 56.9771 44.7496 56.712 45.2169 56.4671C45.6815 56.2236 46.1017 56.0024 46.4054 55.8421L46.8614 55.5999C46.8723 55.5942 46.8812 55.5892 46.8868 55.5863L46.8946 55.5824Z" fill="#1A1A1A"/>
<path d="M29.5068 60.5537C28.4822 60.5537 27.6515 61.3846 27.6514 62.4092C27.6514 63.4339 28.4821 64.2646 29.5068 64.2646C30.5315 64.2646 31.3623 63.4339 31.3623 62.4092C31.3622 61.3846 30.5314 60.5538 29.5068 60.5537ZM27.6006 55.582C26.8424 55.1801 25.9309 55.3206 25.5654 55.8945C25.2001 56.4683 25.5177 57.2591 26.2754 57.6611L26.2783 57.6621C26.2797 57.6628 26.2818 57.6648 26.2842 57.666C26.2901 57.6691 26.3003 57.6738 26.3115 57.6797C26.3341 57.6916 26.367 57.7091 26.4092 57.7314C26.4948 57.7768 26.6185 57.8431 26.7715 57.9238C27.0776 58.0854 27.5017 58.3079 27.9707 58.5537C28.9035 59.0426 30.0359 59.6311 30.7793 60.0019L30.9238 60.0664C31.6579 60.3625 32.4688 60.1844 32.7891 59.6348C33.1303 59.0485 32.7838 58.2616 32.0146 57.8779L30.7324 57.2256C30.2531 56.9777 29.7447 56.7117 29.2773 56.4668C28.8128 56.2233 28.3925 56.003 28.0889 55.8428L27.6328 55.5996C27.622 55.5939 27.613 55.5899 27.6074 55.5869C27.6052 55.5857 27.6038 55.5838 27.6025 55.583L27.6006 55.582Z" fill="#1A1A1A"/>
</svg>
