<svg width="75" height="86" viewBox="0 0 75 86" fill="none" xmlns="http://www.w3.org/2000/svg">
<path fill-rule="evenodd" clip-rule="evenodd" d="M61.1277 60.9034C57.8019 72.691 45.6542 85.1291 33.1249 85.1291C18.4154 85.1291 5.32812 72.6165 5.32812 57.1817C5.32812 41.747 18.5469 29.2344 31.962 29.2344C42.7226 29.2344 55.5589 37.3019 60.2172 47.2589L63.1744 44.3027C64.429 43.0466 66.1461 42.1119 67.8031 42.7469C70.2247 43.6739 72.8164 46.3646 72.8164 52.7148C72.8164 58.1941 71.1114 61.4872 69.2692 63.3162C67.5592 65.0132 64.9526 64.2773 63.1452 62.6843L61.1277 60.9034Z" fill="#B3B3B3"/>
<path d="M2.97129 64.2263C3.29389 64.9017 4.1014 65.1051 4.7733 64.7759L7.44575 63.4632L6.52911 52.7228L4.90546 52.035C4.17091 51.7354 3.30797 52.0257 2.92983 52.7228C2.16775 54.1295 1.27027 56.193 1.53018 58.9566C1.725 61.0279 2.36781 62.964 2.97129 64.2263Z" fill="#757575"/>
<path d="M53.2353 58.9566C53.5086 56.0517 52.5023 53.9183 51.7194 52.5117C51.3863 51.9123 50.6924 51.6018 50.0216 51.7384L47.9781 52.1561L44.6473 54.1652C43.6534 56.6541 43.6239 59.4224 44.5648 61.9315L44.6473 62.1504L47.9781 64.1688L50.0607 64.9405C50.7074 65.1796 51.4341 64.9606 51.7383 64.3427C52.3575 63.0835 53.0344 61.0915 53.2353 58.9566Z" fill="#757575"/>
<path d="M3.95385 53.2779C4.03761 53.1235 4.25903 53.0288 4.4658 53.113L6.70998 54.0301L7.25432 51.7106L5.34575 50.9567C4.0835 50.4417 2.57918 50.9277 1.90668 52.1675C1.09376 53.668 0.0804814 55.9737 0.371256 59.0655C0.580564 61.2907 1.26678 63.3596 1.92114 64.7284C2.57285 66.0923 4.14334 66.3813 5.28715 65.821L7.51134 64.7284L6.60763 62.5776L4.2611 63.7302C4.1736 63.773 4.10102 63.7693 4.06461 63.7588C4.04768 63.754 4.03987 63.7482 4.03732 63.7461C4.03732 63.7461 4.02991 63.7398 4.02231 63.7239C3.46976 62.5681 2.8703 60.7645 2.68997 58.8475C2.46096 56.4123 3.2427 54.5907 3.95385 53.2779Z" fill="#1A1A1A"/>
<path d="M62.6679 59.1583L61.1274 60.9034L58.8859 60.2715C59.1032 59.5014 59.7013 58.8958 60.4692 58.6707C61.2372 58.444 62.0675 58.6273 62.6679 59.1583Z" fill="#1A1A1A"/>
<path d="M58.1074 48.2464C56.0088 43.7608 51.9864 39.5625 47.1292 36.479C42.2705 33.3939 36.7989 31.5633 31.9617 31.5633C19.8659 31.5633 7.65679 43 7.65679 57.1817C7.65679 71.3076 19.6784 82.8002 33.1246 82.8002C38.627 82.8002 44.2615 80.0505 49.0069 75.7171C53.7423 71.393 57.354 65.701 58.8859 60.2715L61.1274 60.9034V60.9034C60.9018 61.7028 60.6354 62.5061 60.3314 63.3074C56.1517 74.3214 44.8039 85.1291 33.1246 85.1291C18.4151 85.1291 5.32784 72.6165 5.32784 57.1817C5.32784 41.747 18.5466 29.2344 31.9617 29.2344C41.937 29.2344 53.696 36.1673 59.0703 45.1115C59.4934 45.8156 59.877 46.5322 60.2169 47.2589L63.1741 44.3027V44.3027C64.4287 43.0468 66.146 42.112 67.8028 42.7469C70.2244 43.6739 72.8161 46.3646 72.8161 52.7148C72.8161 58.1936 71.1114 61.4867 69.2694 63.3158V63.3158C67.5593 65.0128 64.9523 64.2773 63.1449 62.6843L61.1287 60.9046L62.6679 59.1583L64.6856 60.9376C65.3347 61.5105 66.0433 61.8459 66.6037 61.9328C67.0982 62.0104 67.3892 61.9002 67.6281 61.6626C68.9541 60.346 70.4871 57.6895 70.4871 52.7148C70.4871 49.8502 69.9029 48.0305 69.2213 46.8971C68.5512 45.7808 67.7182 45.2079 66.97 44.9222C66.8004 44.857 66.5694 44.8337 66.1884 44.9843C65.7778 45.1458 65.2958 45.4733 64.821 45.9485L61.8638 48.9062C61.3268 49.4434 60.5619 49.6841 59.814 49.5537C59.0661 49.4217 58.4292 48.9342 58.1074 48.2464Z" fill="#1A1A1A"/>
<path d="M47.4948 53.1714C48.0122 52.7049 48.6987 52.4734 49.3924 52.5307C50.0664 52.5862 50.6823 52.9681 51.0121 53.5263C51.6821 54.6637 52.3982 56.1846 52.3982 58.4906C52.3982 60.6261 51.7845 62.168 51.1837 63.2222C50.8915 63.7346 50.2217 64.0634 49.4321 63.9729C48.7552 63.8943 48.1146 63.6119 47.5974 63.165L45.4103 61.2701C44.9242 60.8489 44.1888 60.9016 43.7677 61.3877C43.3465 61.8737 43.3992 62.6092 43.8853 63.0303L46.0743 64.9268C46.9433 65.6781 48.0206 66.1539 49.165 66.2865C50.6695 66.4596 52.3553 65.869 53.2069 64.3757C53.9671 63.042 54.7271 61.106 54.7271 58.4906C54.7271 55.6296 53.8153 53.6964 53.0183 52.3435C52.2908 51.1105 50.9847 50.3251 49.5839 50.2097C48.2503 50.0995 46.93 50.5451 45.9354 51.4415L43.8689 53.3009C43.3908 53.731 43.3519 54.4673 43.7821 54.9454C44.2123 55.4235 44.9485 55.4623 45.4266 55.0322L47.4948 53.1714Z" fill="#1A1A1A"/>
<path fill-rule="evenodd" clip-rule="evenodd" d="M65.6978 50.5547C64.9844 50.8862 64.3461 51.286 63.9943 51.5392C63.4724 51.9149 62.7447 51.7963 62.369 51.2743C61.9933 50.7523 62.1119 50.0246 62.6338 49.6489C63.0932 49.3183 63.8577 48.8416 64.7165 48.4426C65.5489 48.0559 66.6066 47.6767 67.6087 47.6767C68.2518 47.6767 68.7731 48.198 68.7731 48.8411C68.7731 49.4843 68.2518 50.0056 67.6087 50.0056C67.1218 50.0056 66.4377 50.2109 65.6978 50.5547Z" fill="#383838"/>
<path d="M32.1929 27.1174C32.8227 27.2477 33.2276 27.8639 33.0972 28.4937C32.9232 29.3349 32.669 30.6542 32.473 31.8709C32.3748 32.4801 32.2932 33.0519 32.2432 33.5198C32.2181 33.7539 32.202 33.9521 32.1951 34.1103C32.1916 34.1889 32.1906 34.2522 32.1913 34.3012C32.1917 34.3253 32.1925 34.3441 32.1933 34.3579L32.1944 34.3735L32.1949 34.3786C32.2736 35.0169 31.8199 35.5981 31.1816 35.6768C30.5433 35.7554 29.9621 35.3017 29.8834 34.6634C29.8366 34.2835 29.8754 33.7581 29.9274 33.272C29.9837 32.7462 30.0724 32.1294 30.1737 31.5006C30.3765 30.2412 30.6376 28.8868 30.8166 28.0218C30.9469 27.392 31.5631 26.9871 32.1929 27.1174Z" fill="#383838"/>
<path d="M24.8022 30.1741C24.7956 29.531 24.2689 29.0151 23.6258 29.0217C22.9827 29.0284 22.4668 29.5551 22.4734 30.1982C22.484 31.2251 22.5226 32.8288 22.6044 34.3082C22.6452 35.047 22.6974 35.7669 22.7638 36.3736C22.8258 36.9393 22.9113 37.5275 23.0536 37.9253C23.2702 38.5309 23.9366 38.8462 24.5422 38.6297C25.1477 38.4131 25.4631 37.7466 25.2465 37.141C25.2091 37.0366 25.1434 36.709 25.0789 36.12C25.0189 35.5721 24.9695 34.8985 24.9298 34.1797C24.8504 32.744 24.8126 31.1765 24.8022 30.1741Z" fill="#383838"/>
<path d="M5.52192 41.2876C5.89667 40.7649 6.62416 40.645 7.14681 41.0198C7.96207 41.6043 9.24876 42.5007 10.4534 43.2857C11.0565 43.6787 11.6288 44.0371 12.1061 44.3127C12.6191 44.609 12.922 44.7497 13.0283 44.7813C13.6447 44.9649 13.9956 45.6133 13.812 46.2297C13.6285 46.8461 12.98 47.197 12.3637 47.0134C11.9589 46.8929 11.4341 46.614 10.9414 46.3295C10.413 46.0244 9.80171 45.6408 9.18189 45.2369C7.94068 44.4281 6.62454 43.511 5.78973 42.9125C5.26708 42.5377 5.14717 41.8102 5.52192 41.2876Z" fill="#383838"/>
<path d="M68.3439 54.8369C68.9868 54.8216 69.4956 54.288 69.4803 53.6451C69.4651 53.0021 68.9315 52.4933 68.2885 52.5086L64.304 52.6033C63.6611 52.6186 63.1522 53.1522 63.1675 53.7951C63.1828 54.4381 63.7164 54.9469 64.3593 54.9316L68.3439 54.8369Z" fill="#383838"/>
<path d="M64.0741 55.753C63.5868 55.3333 62.8516 55.388 62.4318 55.8753C62.0121 56.3626 62.0668 57.0978 62.5541 57.5176C63.0118 57.9118 63.7776 58.4837 64.6413 58.9639C65.4702 59.4247 66.5571 59.8974 67.6087 59.8974C68.2518 59.8974 68.7731 59.376 68.7731 58.7329C68.7731 58.0898 68.2518 57.5684 67.6087 57.5684C67.1712 57.5684 66.5165 57.3417 65.773 56.9284C65.0645 56.5344 64.4275 56.0575 64.0741 55.753Z" fill="#383838"/>
<path d="M43.7533 31.1942C44.1918 30.7237 44.1658 29.9869 43.6953 29.5484C43.2248 29.11 42.488 29.1359 42.0495 29.6064C41.4473 30.2526 40.5207 31.2742 39.6931 32.2449C39.2799 32.7296 38.8837 33.2107 38.5625 33.6307C38.2655 34.019 37.9594 34.448 37.802 34.7971C37.5378 35.3834 37.7988 36.0729 38.3851 36.3372C38.9714 36.6015 39.661 36.3404 39.9253 35.7541C39.9253 35.7541 39.9259 35.7528 39.9275 35.7495L39.9346 35.7356C39.9411 35.7234 39.9502 35.707 39.9624 35.6861C39.9872 35.6439 40.0209 35.5904 40.0647 35.5249C40.1528 35.3935 40.2695 35.2324 40.4125 35.0454C40.6984 34.6716 41.0651 34.2255 41.4655 33.7559C42.265 32.818 43.1676 31.8228 43.7533 31.1942Z" fill="#383838"/>
<path d="M15.1163 34.7858C15.1364 34.1429 14.6317 33.6055 13.9889 33.5854C13.3461 33.5653 12.8086 34.07 12.7885 34.7128C12.7788 35.0242 12.8638 35.3807 12.9295 35.6269L13.235 36.5861C13.4698 37.2392 13.7848 37.9833 14.0799 38.4943C14.6552 39.4905 15.7498 40.667 16.5617 41.2573C17.0819 41.6355 17.8101 41.5204 18.1883 41.0003C18.5665 40.4801 18.4514 39.7518 17.9313 39.3736C17.3722 38.9672 16.5024 38.0321 16.0967 37.3296C15.9014 36.9913 15.6409 36.394 15.4266 35.7981C15.3219 35.5068 15.2364 35.2384 15.1796 35.026C15.1287 34.8352 15.1175 34.7566 15.1175 34.7566C15.1175 34.7566 15.1169 34.7669 15.1163 34.7858Z" fill="#383838"/>
<path d="M51.7235 33.9087C51.9537 33.3082 51.6535 32.6347 51.053 32.4045C50.4524 32.1744 49.779 32.4746 49.5488 33.0751C49.2481 33.8596 48.4358 35.1556 47.7394 35.8529C47.4015 36.1903 46.7906 36.6764 46.1745 37.1043C45.8722 37.3143 45.5883 37.4965 45.3581 37.6291C45.1912 37.7252 45.0948 37.7702 45.0569 37.7879C45.0328 37.7991 45.0322 37.7994 45.052 37.7948C44.4255 37.9402 44.0355 38.5658 44.1808 39.1923C44.3261 39.8188 44.9518 40.2089 45.5783 40.0635C45.9037 39.9881 46.2604 39.797 46.5206 39.6471C46.8233 39.4727 47.1641 39.2525 47.5031 39.0171C48.1694 38.5543 48.9076 37.9778 49.3858 37.5001C50.3211 36.5639 51.31 34.9872 51.7235 33.9087Z" fill="#383838"/>
<path d="M58.4983 38.4283C58.7834 37.8519 58.5473 37.1534 57.9708 36.8683C57.3944 36.5831 56.6959 36.8193 56.4108 37.3958C55.9611 38.3048 54.9068 39.6983 54.0808 40.3801C53.6812 40.7105 52.9784 41.1578 52.2806 41.5333C51.9381 41.7177 51.6203 41.8721 51.3663 41.9789C51.1965 42.0502 51.0984 42.0815 51.0578 42.0944L51.052 42.0962L51.0356 42.1023L51.0653 42.1013C50.4232 42.1372 49.9317 42.6868 49.9675 43.3289C50.0034 43.971 50.553 44.4625 51.1951 44.4266C51.5664 44.4059 51.9807 44.2469 52.2687 44.1259L53.3845 43.5841C54.1448 43.1748 54.9967 42.6447 55.5641 42.1755C56.6716 41.2611 57.9205 39.5964 58.4983 38.4283Z" fill="#383838"/>
<path d="M15.1962 67.0866C15.2763 66.4485 14.8239 65.8663 14.1857 65.7863C13.5476 65.7062 12.9654 66.1586 12.8854 66.7968C12.8278 67.2562 12.7599 67.9921 12.74 68.7366C12.7212 69.436 12.7378 70.3057 12.923 70.94C13.1033 71.5574 13.7499 71.9117 14.3672 71.7314C14.9846 71.5512 15.3389 70.9046 15.1586 70.2872C15.0863 70.0396 15.0492 69.5012 15.0681 68.799C15.0857 68.1418 15.1466 67.4826 15.1962 67.0866Z" fill="#383838"/>
<path d="M19.2337 70.7994C19.8763 70.772 20.4193 71.2707 20.4467 71.9132C20.4627 72.2895 20.5353 72.9095 20.694 73.4864C20.8718 74.1328 21.0786 74.4292 21.1688 74.4953C21.6875 74.8755 21.7998 75.6042 21.4196 76.1229C21.0394 76.6416 20.3107 76.7539 19.792 76.3737C19.0158 75.8048 18.6431 74.8117 18.4484 74.1042C18.2347 73.3272 18.1419 72.5289 18.1199 72.0124C18.0925 71.3698 18.5912 70.8268 19.2337 70.7994Z" fill="#383838"/>
<path d="M37.4866 69.0676C37.2158 68.4843 36.5234 68.2309 35.9401 68.5017C35.3567 68.7725 35.1033 69.4649 35.3741 70.0482C35.5918 70.5173 35.9827 71.2195 36.4772 71.8559C36.9276 72.4355 37.6514 73.2106 38.5858 73.4401C39.2104 73.5934 39.841 73.2114 39.9944 72.5869C40.1477 71.9623 39.7657 71.3317 39.1412 71.1783C39.0322 71.1516 38.7276 70.9563 38.3163 70.4269C37.949 69.9543 37.6451 69.4091 37.4866 69.0676Z" fill="#383838"/>
<path d="M43.9248 70.9066C44.5081 70.6359 45.2005 70.8893 45.4713 71.4726C45.7858 72.1502 46.5322 73.1931 47.4253 73.7027C47.9839 74.0214 48.1783 74.7326 47.8596 75.2912C47.5409 75.8498 46.8297 76.0443 46.2711 75.7256C44.8185 74.8968 43.7967 73.3965 43.3588 72.4532C43.0881 71.8698 43.3415 71.1774 43.9248 70.9066Z" fill="#383838"/>
<path d="M25.4906 76.7062C25.3346 76.0823 24.7024 75.703 24.0784 75.8589C23.4545 76.0149 23.0752 76.6471 23.2312 77.2711C23.3624 77.7962 23.6647 78.5802 24.2005 79.2008C24.4758 79.5197 24.8526 79.841 25.3462 80.0258C25.8615 80.2186 26.43 80.2337 27.0063 80.0423C27.6167 79.8397 27.9472 79.1806 27.7445 78.5702C27.5418 77.9599 26.8828 77.6294 26.2724 77.8321C26.1926 77.8586 26.1689 77.8475 26.1634 77.8449C26.1382 77.8355 26.0661 77.7979 25.9633 77.6788C25.7427 77.4232 25.5674 77.0133 25.4906 76.7062Z" fill="#383838"/>
<path d="M28.205 69.8989C28.8381 70.0119 29.2597 70.6168 29.1467 71.2499C29.0911 71.5617 29.0834 72.0069 29.18 72.3298C29.2251 72.4803 29.2747 72.5433 29.2938 72.5622C29.298 72.567 29.3159 72.5876 29.3999 72.5962C30.0397 72.6613 30.5056 73.2328 30.4404 73.8726C30.3752 74.5124 29.8037 74.9783 29.1639 74.9131C28.5601 74.8516 28.0479 74.6053 27.6567 74.2187C27.282 73.8484 27.0697 73.4012 26.9489 72.9976C26.7138 72.2123 26.7589 71.3735 26.854 70.8407C26.967 70.2075 27.5719 69.7859 28.205 69.8989Z" fill="#383838"/>
<path d="M36.0341 75.9562C36.0341 75.3131 35.5128 74.7917 34.8697 74.7917C34.2265 74.7917 33.7052 75.3131 33.7052 75.9562C33.7052 76.5503 33.8519 77.3262 34.2382 78.0128C34.6392 78.7253 35.357 79.424 36.4718 79.555C37.1105 79.63 37.6892 79.1731 37.7642 78.5344C37.8392 77.8956 37.3823 77.317 36.7436 77.242C36.5633 77.2208 36.4121 77.1269 36.2678 76.8705C36.109 76.5883 36.0341 76.2191 36.0341 75.9562Z" fill="#383838"/>
<path d="M50.3921 54.4267C50.8649 54.8627 50.8948 55.5994 50.4588 56.0722C50.1708 56.3845 49.4867 56.9411 48.5569 57.3039C47.6356 57.6633 46.6572 57.7582 46.2365 57.7623C45.5934 57.7685 45.0671 57.2522 45.0609 56.6091C45.0546 55.9661 45.5709 55.4397 46.214 55.4335C46.4355 55.4313 47.1194 55.3648 47.7104 55.1342C47.9904 55.025 48.2343 54.8847 48.4239 54.7535C48.518 54.6885 48.5951 54.6282 48.6529 54.5792C48.6817 54.5548 48.7045 54.5342 48.7212 54.5184C48.7296 54.5106 48.7359 54.5043 48.7404 54.4998L48.7467 54.4934C49.1826 54.0206 49.9193 53.9908 50.3921 54.4267Z" fill="#383838"/>
<path d="M46.2365 58.6226C45.5934 58.6163 45.0671 59.1326 45.0609 59.7757C45.0546 60.4188 45.5709 60.9452 46.214 60.9514C46.4355 60.9535 47.1194 61.0201 47.7104 61.2507C47.9904 61.3599 48.2343 61.5002 48.4239 61.6313C48.518 61.6964 48.5951 61.7567 48.6529 61.8057C48.6659 61.8167 48.6776 61.8269 48.6882 61.8362C48.701 61.8476 48.712 61.8578 48.7212 61.8665C48.7296 61.8743 48.7359 61.8805 48.7404 61.8851C48.7447 61.8894 48.7467 61.8915 48.7467 61.8915C49.1827 62.3643 49.9193 62.3941 50.3921 61.9581C50.8649 61.5221 50.8948 60.7855 50.4588 60.3127C50.1708 60.0003 49.4867 59.4438 48.5569 59.081C47.6356 58.7216 46.6572 58.6266 46.2365 58.6226Z" fill="#383838"/>
<path d="M32.4378 54.1794C33.1603 54.1799 33.7451 54.7658 33.745 55.4884C33.7449 56.211 33.1603 56.7969 32.4378 56.7973H29.0257C28.303 56.7972 27.7169 56.2111 27.7168 55.4884C27.7168 54.7656 28.303 54.1796 29.0257 54.1794H32.4378Z" fill="#1A1A1A"/>
<path d="M15.0622 54.1794C14.3397 54.1799 13.7549 54.7658 13.755 55.4884C13.7551 56.211 14.3397 56.7969 15.0622 56.7973H18.4743C19.197 56.7972 19.7831 56.2111 19.7832 55.4884C19.7832 54.7656 19.197 54.1796 18.4743 54.1794H15.0622Z" fill="#1A1A1A"/>
<path d="M26.0223 60.9515C26.4821 61.4008 27.2194 61.3931 27.6689 60.9333C28.1183 60.4734 28.109 59.7362 27.6492 59.2867L24.5667 56.2724C24.1141 55.83 23.3908 55.8299 22.9382 56.2724L19.8557 59.2867L19.7754 59.3746C19.3973 59.8278 19.4161 60.5023 19.8375 60.9333C20.2591 61.3643 20.9332 61.3983 21.3947 61.0304L21.4842 60.9515L23.7525 58.7332L26.0223 60.9515Z" fill="#1A1A1A"/>
</svg>
