<svg width="75" height="86" viewBox="0 0 75 86" fill="none" xmlns="http://www.w3.org/2000/svg">
<path d="M8.82514 35.2691C15.566 37.3588 21.0957 36.8559 23.9594 36.8559C26.7261 36.8559 35.0247 35.6402 38.3277 33.8471C38.8171 33.5816 39.0301 33.0179 38.9081 32.4745C37.0659 24.2756 28.5639 18.5528 22.2152 19.1739C16.3634 19.7452 8.37841 24.2368 7.8043 33.816C7.76467 34.4774 8.19234 35.0735 8.82514 35.2691Z" fill="#4D49FC" stroke="#385ED9" stroke-width="2.74597" stroke-linecap="round"/>
<path d="M8.85591 35.3887C13.1795 36.7192 14.2772 36.6897 16.9836 36.6897C17.6806 29.2794 18.6085 24.999 22.4377 19.1273C16.786 19.6552 8.47231 25.0239 7.81337 33.9137C7.76344 34.586 8.21035 35.19 8.85591 35.3887Z" fill="#F24822"/>
<path d="M38.3128 33.434C35.5504 35.0828 32.3518 35.9662 29.1413 35.9662C28.2488 29.1055 26.7455 25.2801 22.9023 19.1273C28.539 19.6769 37.6164 25.7893 38.9516 32.0336C39.0701 32.5879 38.7997 33.1421 38.3128 33.434Z" fill="#FFCD29"/>
<path d="M22.1123 17.5129C25.6795 17.1649 29.8 18.7487 33.2148 21.3852C36.6487 24.0367 39.5475 27.8876 40.5568 32.3273C40.7801 33.3104 40.4048 34.4307 39.3998 34.979L39.3983 34.9806L39.0359 35.167C37.1466 36.0918 34.1723 36.8633 31.4028 37.411C28.4275 37.9993 25.4594 38.3722 23.9592 38.3722C21.2682 38.3722 15.7881 38.8551 9.12807 36.9273L8.4806 36.7332H8.47908C7.35602 36.3833 6.56913 35.3166 6.64131 34.0997C7.25501 23.7759 15.809 18.1299 22.1123 17.5129ZM22.3397 19.8311C16.9375 20.3599 9.4982 25.2819 8.96582 34.2376C8.95968 34.3423 9.02761 34.4637 9.16749 34.509H9.16901C15.6992 36.5319 21.0096 36.0434 23.9592 36.0434C25.2285 36.0434 28.0187 35.706 30.9509 35.1261C33.9023 34.5424 36.7697 33.7557 38.2823 32.9353L38.2838 32.9337C38.2886 32.9221 38.2961 32.89 38.2853 32.8428C37.4216 29.0437 34.8987 25.6284 31.7909 23.2288C28.6637 20.8143 25.1217 19.56 22.3397 19.8311Z" fill="#1A1A1A"/>
<path d="M23.1102 20.2445C20.0007 24.2518 18.2685 29.4462 17.7136 36.199L16.167 36.0717C16.7378 29.1251 18.5333 23.6098 21.8835 19.2924L23.1102 20.2445Z" fill="#BD2915"/>
<path d="M23.111 18.8888C26.4265 23.1614 29.0543 29.1864 29.842 35.5286L28.3014 35.7197C27.548 29.6544 25.027 23.8928 21.8828 19.8409L23.111 18.8888Z" fill="#EBA611"/>
<path d="M27.7991 9.8136C27.9937 9.8136 28.1614 9.86166 28.221 9.87903C28.3131 9.90593 28.4076 9.9396 28.4983 9.97864C28.671 10.053 28.9023 10.1746 29.1136 10.3546C29.2991 10.5128 29.6514 10.8734 29.6927 11.4406C29.7391 12.0835 29.3651 12.5364 29.0423 12.7872L28.8196 12.9503C28.2862 13.318 27.6811 13.5841 27.138 13.7931C26.8215 13.9148 26.5042 14.0252 26.2132 14.1251C25.9147 14.2276 25.6498 14.3188 25.4075 14.4093H25.4046L25.0003 13.3175L24.927 13.1251L25.4046 14.4093C25.101 14.522 24.6491 14.689 24.1702 14.7823C23.9399 14.8272 23.6674 14.8595 23.3753 14.8536C23.5127 15.0044 23.6135 15.192 23.6565 15.4064C23.891 16.5793 23.8567 17.7322 23.8567 18.7423C23.8567 19.3852 23.3356 19.9061 22.6927 19.9064C22.0495 19.9063 21.5276 19.3854 21.5276 18.7423C21.5276 17.6289 21.5514 16.756 21.3733 15.8644C21.3379 15.6872 21.3459 15.5119 21.388 15.3478H17.22C16.8894 15.3478 16.281 15.2762 15.7415 15.1759C15.4625 15.124 15.1616 15.0581 14.8948 14.9757C14.7617 14.9346 14.6161 14.884 14.4778 14.8204C14.3548 14.7639 14.1612 14.6619 13.9856 14.4952H13.9837C13.7166 14.2411 13.6236 13.9347 13.597 13.7159C13.5721 13.5109 13.5985 13.3357 13.6204 13.2306C13.6634 13.0248 13.7436 12.8332 13.7864 12.7335C13.8496 12.5866 13.8675 12.5545 13.8977 12.4806C13.983 11.9262 14.4153 11.6592 14.5403 11.5919C14.7227 11.4939 14.902 11.4519 14.9983 11.4327C15.2121 11.3902 15.4565 11.3753 15.6731 11.3693C16.1267 11.3567 16.7078 11.3802 17.2776 11.4181C17.8539 11.4565 18.4504 11.511 18.9436 11.5704C19.3799 11.623 19.877 11.6941 20.1565 11.7872C20.5465 11.9174 20.8761 12.1127 21.1155 12.2618C21.391 12.4335 21.5281 12.5285 21.6897 12.6095C21.721 12.6251 21.7505 12.6432 21.7796 12.6613C21.8691 12.5337 21.9627 12.4188 22.055 12.3195C22.3692 11.9813 22.7547 11.698 23.1155 11.4708C23.8359 11.0174 24.639 10.6803 25.1136 10.5275H25.1155C25.2845 10.4734 25.4508 10.4101 25.635 10.338C25.8101 10.2695 26.0213 10.1844 26.2298 10.1105C26.6635 9.95658 27.1803 9.81371 27.7991 9.8136Z" fill="#444444"/>
</svg>
