<svg width="75" height="86" viewBox="0 0 75 86" fill="none" xmlns="http://www.w3.org/2000/svg">
<path d="M48.3986 38.5891L48.5322 38.6341L48.6719 38.6481C58.6584 39.5564 63.1517 43.8152 65.2493 48.2045C67.2103 52.3081 67.1684 56.6788 67.1435 59.2034C67.142 59.458 67.1389 59.694 67.1389 59.9098C67.1389 73.1367 53.9866 84.2302 37.257 84.2302C20.5289 84.2302 7.375 73.1367 7.375 59.9098C7.375 53.1295 10.03 45.194 16.371 40.266C22.6591 35.3783 32.8521 33.2387 48.3986 38.5891Z" fill="#FFC7C2"/>
<path d="M65.9792 59.1966L67.1437 59.2027L66.9769 59.2012L65.9792 59.1966V59.1921L65.9853 58.1701C65.9819 55.6308 65.8015 52.059 64.1991 48.7057C63.2307 46.6795 61.7155 44.6907 59.2804 43.0941C56.8386 41.4932 53.4119 40.2476 48.5667 39.8069L48.6789 38.5727L48.6713 38.6485L48.5667 39.8069H48.5561L48.415 39.7933L48.2846 39.7796L48.0269 39.6917L48.0193 39.6902C32.712 34.4222 22.966 36.6139 17.0849 41.1852C11.0994 45.8372 8.5395 53.3876 8.5394 59.9093C8.5394 72.291 20.9495 83.0653 37.257 83.0653C53.566 83.0652 65.9746 72.291 65.9746 59.9093C65.9746 59.6901 65.9777 59.4385 65.9792 59.1966ZM68.3036 59.9093C68.3036 73.9812 54.4071 85.3942 37.257 85.3942C20.1085 85.3942 6.21045 73.9813 6.21045 59.9093C6.21056 52.8705 8.96073 44.5499 15.6566 39.346C22.3506 34.1431 32.9881 32.0569 48.7683 37.4856L48.7744 37.4871L48.788 37.4886C53.9243 37.9569 57.733 39.2956 60.5571 41.1473C63.3895 43.0044 65.1714 45.339 66.3006 47.702C68.3912 52.0768 68.3329 56.7016 68.3081 59.2148C68.3065 59.4797 68.3036 59.6984 68.3036 59.9093Z" fill="#1A1A1A"/>
<path d="M18.1191 64.5435C18.1191 49.7433 30.5361 37.4634 48.2393 37.4634C48.8821 37.4637 49.4038 37.985 49.4038 38.6279C49.4038 39.2708 48.8821 39.792 48.2393 39.7923C31.651 39.7923 20.4481 51.1944 20.4481 64.5435C20.4477 65.1863 19.9265 65.7079 19.2836 65.7079C18.6407 65.7079 18.1195 65.1863 18.1191 64.5435Z" fill="#1A1A1A"/>
<path d="M48.0584 73.7686C54.6773 64.0166 54.0329 53.9321 52.4353 46.6208C52.0393 44.8073 53.2861 43.0064 55.0017 43.7144C59.2792 45.4781 63.5831 51.5349 64.0644 61.2295C64.125 62.4359 64.0256 63.6594 63.6483 64.8068C61.4296 71.5452 54.6804 75.8444 49.8579 77.512C46.9793 78.5072 46.3489 76.2901 48.0584 73.7686Z" fill="#FFAFA3"/>
<path d="M49.1129 38.628H42.9023L49.1129 27.022C51.0832 27.879 55.0237 29.646 55.0237 29.8664C53.6186 30.3804 50.4978 35.9202 49.1129 38.628Z" fill="#A55E40"/>
<path d="M48.209 26.2866C48.5325 25.8885 49.09 25.743 49.5767 25.9546C50.5671 26.3854 52.0559 27.0459 53.3006 27.6285C53.9206 27.9187 54.4942 28.1958 54.9184 28.4185C55.1266 28.5277 55.3229 28.6361 55.4764 28.7338C55.5485 28.7798 55.6465 28.8455 55.7387 28.9249C55.7826 28.9627 55.8607 29.0339 55.9373 29.1341C55.9863 29.1982 56.1875 29.4649 56.1875 29.8665C56.1875 30.3554 55.8825 30.7918 55.4233 30.9597C55.4649 30.9445 55.3985 30.9634 55.2141 31.1341C55.0477 31.2881 54.8436 31.5103 54.6076 31.8027C54.1364 32.3864 53.5997 33.1697 53.0459 34.0468C51.9411 35.7961 50.8316 37.825 50.1498 39.158C49.9507 39.5473 49.55 39.7918 49.1127 39.7918H42.9022C42.4929 39.7918 42.1134 39.5774 41.903 39.2262C41.6928 38.8751 41.6826 38.4393 41.8757 38.0784L48.0862 26.4731L48.209 26.2866ZM44.846 37.4628H48.4092C49.112 36.1263 50.0895 34.366 51.0763 32.8034C51.6513 31.8928 52.2433 31.0238 52.7957 30.3395C52.8693 30.2484 52.9458 30.1611 53.0201 30.0742C52.801 29.9684 52.5639 29.8548 52.3135 29.7376C51.4566 29.3365 50.4753 28.8979 49.6283 28.5231L44.846 37.4628Z" fill="#1A1A1A"/>
<path d="M25.6897 27.1975C37.9695 23.4914 43.1258 33.54 44.3213 38.5534L41.9846 38.3593C34.0801 37.7072 26.5251 34.8193 20.1981 30.0356C20.0522 29.9021 20.9464 29.1476 25.6897 27.1975Z" fill="#78B136"/>
<path d="M25.3537 26.0824C31.884 24.1118 36.6662 25.7932 39.9415 28.7404C43.1439 31.6223 44.8201 35.6293 45.453 38.2836C45.5395 38.6466 45.4474 39.0285 45.2044 39.3116C44.9611 39.5948 44.5969 39.7443 44.2249 39.7134L41.8884 39.5194C33.7637 38.849 25.9978 35.8813 19.495 30.9647C19.4661 30.9429 19.4383 30.9194 19.4116 30.895C19.1662 30.6705 19.0266 30.3581 19.0189 30.0307C19.0123 29.7464 19.1062 29.5274 19.169 29.4091C19.29 29.1812 19.4612 29.0207 19.5617 28.933C19.7903 28.7334 20.1199 28.5186 20.5397 28.2825C21.3993 27.7989 22.8593 27.1016 25.2461 26.1203L25.3537 26.0824ZM38.3828 30.4719C35.7189 28.075 31.7978 26.5859 26.0755 28.2976C24.2141 29.0641 22.9828 29.6341 22.1909 30.0413C28.0669 34.1328 34.9255 36.6092 42.0794 37.1995H42.0809L42.7208 37.2526C41.9586 35.0704 40.5664 32.4369 38.3828 30.4719Z" fill="#1A1A1A"/>
<path d="M30.7607 31.6737C33.9358 32.6969 36.8113 34.2402 38.9524 35.622C39.665 36.0831 40.5019 35.3596 39.9569 34.709C37.1994 31.4128 33.6206 30.4579 30.7902 30.4548C29.975 30.4533 29.9782 31.4206 30.7607 31.6737Z" fill="#538619"/>
<path d="M42.6216 60.1899L42.7398 60.196C43.3272 60.2554 43.786 60.7513 43.786 61.3544C43.786 61.9575 43.3272 62.4534 42.7398 62.5128L42.6216 62.5189L35.3891 62.5189C34.746 62.5189 34.2246 61.9975 34.2246 61.3544C34.2246 60.7113 34.746 60.1899 35.3891 60.1899L42.6216 60.1899Z" fill="#1A1A1A"/>
<path d="M48.0805 55.7256C48.8486 55.7261 49.4703 56.3489 49.4702 57.1171C49.4701 57.8853 48.8486 58.5083 48.0805 58.5087H44.4531C43.6847 58.5086 43.0617 57.8855 43.0615 57.1171C43.0615 56.3487 43.6847 55.7257 44.4531 55.7256H48.0805Z" fill="#1A1A1A"/>
<path d="M28.9405 55.7256C28.1724 55.7261 27.5507 56.3489 27.5508 57.1171C27.5509 57.8853 28.1724 58.5083 28.9405 58.5087H32.5679C33.3363 58.5086 33.9593 57.8855 33.9595 57.1171C33.9595 56.3487 33.3363 55.7257 32.5679 55.7256H28.9405Z" fill="#1A1A1A"/>
</svg>
