<svg width="75" height="86" viewBox="0 0 75 86" fill="none" xmlns="http://www.w3.org/2000/svg">
<path d="M46.4903 19.8416C48.6001 20.2298 50.0039 22.2479 49.6252 24.3594C49.4457 25.353 49.321 26.0828 49.2401 26.6262C49.7842 26.7504 50.5061 26.8747 51.5062 27.061C53.616 27.4336 55.0198 29.4518 54.6411 31.5632C54.4175 32.8053 53.6208 33.7989 52.5738 34.3423C53.3707 35.1962 53.7714 36.4072 53.5478 37.6493C53.169 39.7607 51.1512 41.1736 49.0412 40.7854C48.0411 40.6147 47.3176 40.4905 46.7673 40.3973C46.6516 40.9407 46.517 41.6703 46.3374 42.664C45.9586 44.7754 43.9408 46.1883 41.8309 45.8001C40.749 45.6138 39.855 44.9774 39.2896 44.139C38.4651 44.729 37.4108 45.0083 36.3297 44.822C34.2196 44.4339 32.8161 42.4155 33.1948 40.3041C33.3743 39.3104 33.4989 38.5808 33.5798 38.0374C33.0358 37.9287 32.3138 37.789 31.3138 37.6026C29.2037 37.23 27.8002 35.2117 28.1789 33.1002C28.4023 31.8582 29.1969 30.8647 30.2435 30.3213C29.4476 29.4674 29.0487 28.2564 29.2722 27.0144C29.6509 24.9029 31.6685 23.4901 33.7786 23.8782C34.7787 24.049 35.5026 24.1732 36.0527 24.2663C36.1682 23.7229 36.303 22.9933 36.4826 21.9997C36.8613 19.8882 38.8789 18.4754 40.9891 18.8635C42.0699 19.0498 42.9622 19.6863 43.5276 20.5246C44.3524 19.9347 45.4087 19.6553 46.4903 19.8416Z" fill="white"/>
<path d="M38.4471 22.8069C38.5985 21.9686 39.4056 21.4097 40.2496 21.5495C41.0937 21.7047 41.6551 22.5121 41.5036 23.3505C41.2361 24.8409 41.0146 26.0985 40.7345 27.0455C40.4575 27.9771 40.035 28.9397 39.1376 29.5762C38.2403 30.1972 37.1841 30.2592 36.2121 30.1815C35.2288 30.1194 33.9815 29.8866 32.4906 29.6226C31.6465 29.4674 31.0851 28.6602 31.2366 27.8218C31.3882 26.9834 32.1951 26.4244 33.0392 26.5642C34.6049 26.8436 35.65 27.0299 36.4203 27.092C37.2018 27.1386 37.3605 27.03 37.3644 27.0145C37.3684 27.0145 37.5336 26.9057 37.7564 26.1605C37.9758 25.4153 38.166 24.375 38.4471 22.8069Z" fill="#DC3412"/>
<path d="M47.0046 24.3442C47.156 23.5058 46.5947 22.6985 45.7507 22.5432C44.9066 22.388 44.0995 22.9468 43.948 23.8007C43.6804 25.2911 43.4537 26.5332 43.3879 27.5113C43.3227 28.4894 43.3815 29.5451 44.0059 30.4456C44.6301 31.3461 45.5999 31.7653 46.5339 32.0448C47.4787 32.3242 48.7271 32.5416 50.2178 32.8055C51.0619 32.9608 51.869 32.4018 52.0205 31.5479C52.1719 30.7095 51.6106 29.9023 50.7665 29.7471C49.2008 29.4676 48.1566 29.2812 47.4166 29.0638C46.6655 28.831 46.5548 28.6757 46.5548 28.6757C46.552 28.6602 46.4346 28.5049 46.4871 27.7287C46.5387 26.9524 46.7236 25.9123 47.0046 24.3442Z" fill="#DC3412"/>
<path d="M35.1597 41.1271C35.0082 41.9655 35.5696 42.7728 36.4137 42.9281C37.2577 43.0834 38.0647 42.5088 38.2162 41.6704C38.4839 40.18 38.7104 38.9379 38.7764 37.9443C38.8416 36.9817 38.7826 35.9262 38.1585 35.0257C37.5341 34.1252 36.5644 33.706 35.6305 33.4265C34.6855 33.1471 33.4373 32.9297 31.9464 32.6658C31.1023 32.5105 30.2954 33.0693 30.1438 33.9077C29.9923 34.7616 30.5538 35.569 31.3978 35.7087C32.9634 36.0037 34.0078 36.1899 34.7478 36.4073C35.4987 36.6247 35.6094 36.7954 35.6094 36.7954C35.6094 36.7954 35.7296 36.9664 35.6772 37.7427C35.6255 38.5189 35.4408 39.559 35.1597 41.1271Z" fill="#DC3412"/>
<path d="M43.7171 42.664C43.5655 43.5024 42.7584 44.0613 41.9144 43.9061C41.0703 43.7664 40.509 42.959 40.6604 42.1051C40.9281 40.6146 41.1494 39.3726 41.4296 38.4256C41.7065 37.494 42.1291 36.5159 43.0264 35.8949C43.9239 35.2739 44.98 35.2117 45.9519 35.2738C46.9354 35.3515 48.1827 35.5688 49.6736 35.8483C50.5176 35.988 51.0789 36.7954 50.9275 37.6493C50.776 38.4877 49.9689 39.0467 49.1248 38.8914C47.5592 38.6119 46.514 38.4255 45.7438 38.3789C44.9623 38.3324 44.8035 38.4411 44.7996 38.4411C44.7957 38.4566 44.6304 38.5652 44.4077 39.3104C44.1883 40.0556 43.9981 41.0959 43.7171 42.664Z" fill="#DC3412"/>
</svg>
