<svg width="75" height="86" viewBox="0 0 75 86" fill="none" xmlns="http://www.w3.org/2000/svg">
<path d="M18.0694 36.0521C19.9019 30.8663 34.3592 28.2424 41.3589 27.5903C42.1781 28.584 43.8167 31.5495 43.8167 35.3535C43.8167 40.1045 58.5301 38.1793 59.4347 41.564C60.1583 44.2656 58.0365 46.8274 56.8851 47.7745C58.8634 48.0074 63.0639 49.3738 64.0401 53.0224C65.0162 56.6711 63.5123 60.3509 62.6384 61.7482C64.6408 63.5803 68.6453 64.4809 68.6453 69.5114C68.6453 73.5327 65.3685 80.4575 56.0308 82.9572C48.5605 84.9601 41.0667 83.1124 38.2535 81.9324C28.7273 83.0969 9.07127 83.1745 6.6563 74.1693C4.24136 65.1485 12.2238 59.0311 16.5168 57.0903C14.4467 56.8574 10.3063 55.2893 10.3063 50.8798C10.3063 46.4703 15.4817 44.9022 18.0694 44.6693C17.3059 43.9551 16.2369 41.2534 18.0694 36.0521Z" fill="#F24822"/>
<path d="M17.7642 43.1318C19.1941 45.0105 22.8018 48.1313 26.7476 49.7461C28.1414 50.305 28.7379 52.6804 27.52 53.5654L22.9907 56.8574C20.7941 59.2174 16.401 64.7602 16.4009 68.0518C16.4009 79.4015 38.5562 74.1851 38.5562 79.1846C38.5558 82.8795 32.1786 82.7862 29.6187 83.0967L12.5024 80.3174L6.21045 74.4023L7.59814 64.3105L15.7407 57.6494L10.8364 53.8604V47.8369L18.7075 44.6074L17.7642 43.1318ZM62.0757 49.2344L64.7261 52.8516L64.2007 60.5215C63.8422 60.8629 62.1261 60.9257 59.2886 62.5713C55.7408 64.605 46.5786 64.7757 46.5786 61.6084C46.5791 58.4412 59.6831 59.2016 59.6831 55.584C59.683 52.6962 58.0424 49.1717 57.2222 47.7744L62.0757 49.2344Z" fill="#BD2915"/>
<path d="M42.652 35.3534C42.652 34.4131 42.6928 33.4123 42.7021 32.6378C42.7119 31.8082 42.691 31.1199 42.5944 30.5469C42.4987 29.98 42.3404 29.6025 42.1319 29.3415C41.9529 29.1174 41.6777 28.9072 41.1949 28.7562C37.2297 28.7778 32.0671 29.5729 27.6731 30.9851C25.4469 31.7006 23.4649 32.5602 21.9508 33.5248C20.4122 34.505 19.4982 35.5024 19.1669 36.4375C18.294 38.9151 18.1412 40.7213 18.2557 41.9339C18.3738 43.1842 18.7643 43.7241 18.8652 43.8186C19.2005 44.1322 19.3207 44.6141 19.1715 45.0483C19.0222 45.4823 18.6309 45.788 18.1738 45.8291C17.0034 45.9345 15.2449 46.3478 13.8176 47.2059C12.4132 48.0503 11.4705 49.2219 11.4705 50.8797C11.4705 52.6577 12.2822 53.8287 13.3355 54.6203C14.4296 55.4424 15.7727 55.835 16.647 55.9334C17.1677 55.9919 17.5855 56.3908 17.6674 56.9083C17.749 57.426 17.4747 57.9356 16.9972 58.1516L16.609 58.3336C14.6254 59.3023 11.9529 61.1373 9.99368 63.6844C7.92687 66.3713 6.68996 69.7895 7.78148 73.8675C8.2731 75.7007 9.65857 77.1675 11.8192 78.3176C13.9865 79.4713 16.8232 80.2427 19.9615 80.7133C26.2313 81.6534 33.4149 81.3512 38.1124 80.777L38.264 80.7679C38.4146 80.7692 38.5639 80.8003 38.7037 80.8589C41.3524 81.9698 48.576 83.7503 55.7296 81.8323C64.5731 79.4649 67.4805 72.9901 67.4805 69.5113C67.4805 67.386 66.6685 66.2095 65.6307 65.3113C65.0784 64.8334 64.461 64.4341 63.7945 64.0074C63.2389 63.6516 62.6201 63.2585 62.0796 62.805L61.8522 62.6079L61.7127 62.4547C61.4228 62.0753 61.3913 61.5479 61.652 61.131C62.4345 59.88 63.7753 56.54 62.9151 53.3239C62.5322 51.8929 61.5071 50.8539 60.2526 50.1231C58.9915 49.3887 57.604 49.0321 56.7485 48.9314C56.2853 48.8766 55.8989 48.5496 55.7675 48.102C55.6364 47.6545 55.7851 47.1717 56.1451 46.8753C56.6195 46.4851 57.3333 45.7232 57.8357 44.7799C58.3366 43.8392 58.5696 42.8345 58.3102 41.8657V41.8642C58.3082 41.8567 58.2698 41.7285 57.9251 41.5306C57.5753 41.3298 57.0482 41.1398 56.3361 40.965C54.9041 40.6136 53.0709 40.3987 51.1233 40.1235C49.2434 39.8579 47.2459 39.534 45.7088 38.9378C44.2213 38.3608 42.652 37.3134 42.652 35.3534ZM44.981 35.3534C44.981 35.7689 45.2522 36.2625 46.5518 36.7666C47.8014 37.2511 49.5383 37.5473 51.4493 37.8173C53.293 38.0778 55.3099 38.3148 56.891 38.7028C57.6847 38.8976 58.4559 39.1493 59.0835 39.5094C59.7083 39.868 60.3346 40.4188 60.5604 41.2622L60.6362 41.5867C60.9648 43.1974 60.5168 44.7007 59.8917 45.8746C59.6575 46.3145 59.3885 46.7207 59.1123 47.0891C59.8584 47.3297 60.6564 47.6636 61.4246 48.1111C63.0089 49.0339 64.5719 50.5043 65.1652 52.722C66.0816 56.1481 65.0525 59.5296 64.1281 61.4404C64.4001 61.6299 64.7068 61.8257 65.0499 62.0453C65.6972 62.4597 66.4556 62.9447 67.1545 63.5494C68.6195 64.8172 69.8094 66.6061 69.8094 69.5113C69.8094 74.0751 66.1635 81.4488 56.3316 84.0809L56.3331 84.0824C48.7888 86.1051 41.2669 84.367 38.0972 83.1211C33.2655 83.6881 26.0261 83.9777 19.6158 83.0165C16.3476 82.5264 13.2211 81.7016 10.726 80.3737C8.22446 79.0421 6.24722 77.1403 5.53138 74.4709C4.20824 69.5285 5.75471 65.3772 8.14841 62.2652C9.73117 60.2076 11.7 58.5778 13.5129 57.4147C12.9788 57.1663 12.441 56.8617 11.936 56.4822C10.4016 55.3291 9.14155 53.5113 9.14155 50.8797C9.14155 48.1281 10.7881 46.3108 12.6183 45.2105C13.7939 44.5038 15.1032 44.0521 16.2649 43.7868C16.1093 43.3082 15.9948 42.7608 15.9373 42.1522C15.7847 40.5353 16.012 38.389 16.9714 35.6658V35.6642C17.557 34.0071 18.9861 32.6516 20.6999 31.5598C22.439 30.4519 24.6233 29.52 26.9619 28.7684C31.6373 27.2659 37.1209 26.4258 41.3587 26.4258C41.4602 26.4258 41.5623 26.439 41.6604 26.4652C42.6298 26.7245 43.3975 27.1953 43.9514 27.889C44.4923 28.5662 44.7559 29.3651 44.89 30.1603C45.0231 30.9497 45.0397 31.8111 45.0295 32.6651C45.0186 33.5742 44.981 34.3919 44.981 35.3534Z" fill="#1A1A1A"/>
<path fill-rule="evenodd" clip-rule="evenodd" d="M34.6796 56.6952C35.1111 56.2808 35.7737 56.3207 36.1594 56.7841C36.9616 57.7479 38.355 57.7841 39.2002 56.8629L39.3106 56.7429C39.7175 56.3009 40.3811 56.2968 40.7927 56.7339C41.2043 57.171 41.2081 57.8837 40.8012 58.3258L40.6933 58.443C40.693 58.4433 40.6935 58.4427 40.6933 58.443C38.9993 60.2885 36.2054 60.2173 34.5968 58.2846C34.211 57.8211 34.2481 57.1095 34.6796 56.6952Z" fill="#1A1A1A"/>
<path d="M43.3126 56.7192C43.6326 56.0909 44.4019 55.8389 45.0303 56.1587C45.0317 56.1594 45.0344 56.1617 45.0381 56.1636C45.0462 56.1676 45.0595 56.1754 45.0772 56.1841C45.1126 56.2015 45.1674 56.2255 45.2354 56.2573C45.3727 56.3216 45.5659 56.4106 45.7862 56.5005C46.2576 56.6927 46.7417 56.8497 47.0684 56.8882C47.381 56.9248 47.8683 56.8894 48.3526 56.8218C48.5787 56.7902 48.7798 56.757 48.9229 56.73C48.994 56.7165 49.0517 56.7035 49.0889 56.6958C49.1063 56.6922 49.1196 56.6888 49.128 56.687C49.132 56.6862 49.1362 56.6863 49.1377 56.686C49.8263 56.5337 50.5087 56.9682 50.6612 57.6567C50.813 58.345 50.3776 59.0257 49.6895 59.1782L49.6817 59.1812C49.6777 59.182 49.6714 59.1827 49.6651 59.1841L49.3965 59.2378C49.2236 59.2705 48.9823 59.3126 48.7071 59.3511C48.1866 59.4238 47.4255 59.5014 46.7696 59.4243C46.0809 59.3433 45.3305 59.07 44.8223 58.8628C44.5535 58.7532 44.3189 58.6498 44.1524 58.5718C44.0696 58.533 44.0019 58.4995 43.9542 58.4761C43.9303 58.4644 43.9093 58.4546 43.8956 58.4478C43.8891 58.4445 43.883 58.4429 43.879 58.4409L43.8721 58.4351L43.6544 58.2964C43.1897 57.9266 43.0334 57.2691 43.3126 56.7192ZM47.587 50.8843C48.9975 50.8843 50.1415 52.0275 50.1417 53.438C50.1417 54.8486 48.9976 55.9927 47.587 55.9927C46.1765 55.9925 45.0333 54.8485 45.0333 53.438C45.0334 52.0277 46.1766 50.8845 47.587 50.8843Z" fill="#1A1A1A"/>
<path d="M31.6714 56.7197C31.3514 56.0912 30.5812 55.8391 29.9527 56.1592C29.9514 56.1599 29.9493 56.1622 29.9458 56.1641C29.9378 56.1681 29.9235 56.1759 29.9058 56.1846C29.8703 56.202 29.8156 56.226 29.7476 56.2578C29.6104 56.3221 29.418 56.4112 29.1978 56.501C28.7265 56.6931 28.2423 56.8502 27.9156 56.8887C27.6031 56.9253 27.1158 56.8899 26.6314 56.8223C26.4051 56.7907 26.2043 56.7565 26.0611 56.7295C25.9898 56.716 25.9323 56.704 25.8951 56.6963C25.8776 56.6927 25.8645 56.6893 25.856 56.6875C25.8517 56.6866 25.8468 56.6859 25.8452 56.6855C25.1568 56.5335 24.4742 56.9688 24.3218 57.6572C24.17 58.3456 24.6061 59.0264 25.2945 59.1787L25.3013 59.1816C25.3054 59.1825 25.3123 59.1832 25.3189 59.1846L25.5865 59.2383C25.7595 59.271 26.0013 59.3131 26.2769 59.3516C26.7974 59.4242 27.5585 59.5019 28.2144 59.4248C28.9028 59.3437 29.6526 59.0704 30.1607 58.8633C30.4296 58.7536 30.664 58.6503 30.8306 58.5723C30.9135 58.5334 30.982 58.5 31.0298 58.4766C31.0536 58.4649 31.0748 58.4551 31.0884 58.4482C31.0946 58.4451 31.1001 58.4433 31.104 58.4414L31.1118 58.4355L31.3296 58.2969C31.7941 57.9271 31.9504 57.2696 31.6714 56.7197ZM27.396 50.8848C25.9856 50.8848 24.8425 52.0281 24.8423 53.4385C24.8423 54.8491 25.9855 55.9931 27.396 55.9932C28.8066 55.9932 29.9497 54.8491 29.9497 53.4385C29.9495 52.0281 28.8065 50.8848 27.396 50.8848Z" fill="#1A1A1A"/>
</svg>
