<svg width="80" height="86" viewBox="0 0 80 86" fill="none" xmlns="http://www.w3.org/2000/svg">
<ellipse cx="28.7206" cy="19.8786" rx="28.7206" ry="16.2171" fill="url(#paint0_radial_9800_58233)"/>
<path fill-rule="evenodd" clip-rule="evenodd" d="M17.6815 13.0678C14.7886 13.7571 10.0977 14.8734 10.0977 20.6256C10.0977 24.8842 16.087 29.0202 30.4571 27.9381C33.3718 27.7192 37.7126 27.328 41.7279 26.4213C48.375 24.92 49.0407 17.3932 42.8687 14.5055C37.1607 11.8351 28.8207 10.4114 17.7935 13.0414C17.7565 13.0492 17.7192 13.0585 17.6815 13.0678ZM21.3497 17.2411C18.5079 17.5097 15.0946 17.8326 15.071 19.9829C15.041 22.7278 21.39 23.8006 35.9156 22.6843C44.1462 22.0508 44.8375 17.9987 36.5948 17.1494C32.4463 16.7225 27.5004 16.6526 21.6618 17.2116C21.5587 17.2209 21.4545 17.2302 21.3497 17.2411Z" fill="#FFE8A3"/>
<path d="M11.2627 20.6257C11.2627 18.1369 12.2441 16.7707 13.4774 15.8997C14.7995 14.9651 16.4727 14.5521 17.9518 14.1997L17.4122 11.9345C15.9983 12.2714 13.8796 12.762 12.133 13.9978C10.2976 15.2942 8.93359 17.3622 8.93359 20.6257H11.2627ZM30.37 26.7768C23.2842 27.3109 18.4062 26.5424 15.3532 25.2165C12.3005 23.8907 11.2627 22.1192 11.2627 20.6257H8.93359C8.93359 23.3907 10.8905 25.8174 14.4249 27.3528C17.959 28.8883 23.2607 29.6475 30.545 29.0995L30.37 26.7768ZM41.4718 25.2849C37.5457 26.1714 33.2776 26.5579 30.37 26.7768L30.545 29.0995C33.467 28.879 37.8804 28.4831 41.9849 27.5562L41.4718 25.2849ZM42.3755 15.5597C45.0752 16.8235 46.1211 18.9955 45.9464 20.8756C45.7727 22.7449 44.3645 24.6328 41.4718 25.2849L41.9849 27.5562C45.7393 26.7085 47.9875 24.0832 48.2654 21.0914C48.5424 18.1105 46.835 15.0753 43.3627 13.4498L42.3755 15.5597ZM18.0641 14.1733C28.8606 11.5991 36.9288 13.012 42.3755 15.5597L43.3627 13.4498C37.3938 10.6583 28.7816 9.22377 17.5237 11.9081L18.0641 14.1733ZM17.9518 14.1997C17.9894 14.1919 18.0269 14.1826 18.0641 14.1733L17.5237 11.9081C17.487 11.9174 17.4498 11.9252 17.4122 11.9345L17.9518 14.1997ZM16.236 19.9953C16.238 19.8121 16.2947 19.6848 16.4496 19.5435C16.6397 19.3697 16.9759 19.1833 17.5051 19.0156C18.574 18.6787 20.0013 18.5375 21.4598 18.3993L21.2405 16.0813C19.8572 16.2118 18.157 16.367 16.8028 16.7955C16.1206 17.0113 15.4214 17.3265 14.8761 17.8264C14.2956 18.3574 13.9168 19.0778 13.9071 19.9705L16.236 19.9953ZM35.8268 21.523C28.5823 22.0804 23.466 22.0819 20.1956 21.6286C18.5486 21.4004 17.4782 21.0697 16.8526 20.7095C16.2632 20.3726 16.2346 20.1226 16.236 19.9953L13.9071 19.9705C13.8934 21.2156 14.6472 22.13 15.6937 22.7309C16.704 23.31 18.1231 23.6919 19.8754 23.9357C23.4033 24.4247 28.7243 24.4046 36.0054 23.8456L35.8268 21.523ZM36.476 18.3077C38.4635 18.5126 39.8002 18.9023 40.5807 19.3137C41.4322 19.7624 41.2562 20.0015 41.2804 19.8338C41.286 19.7935 41.2079 20.1552 40.1837 20.607C39.2508 21.0185 37.8053 21.3709 35.8268 21.523L36.0054 23.8456C38.1421 23.6811 39.8694 23.2898 41.1236 22.7371C42.2862 22.2247 43.409 21.4004 43.586 20.163C43.7815 18.7952 42.7472 17.8233 41.6672 17.2535C40.5163 16.6465 38.8485 16.2117 36.7146 15.9913L36.476 18.3077ZM21.7731 18.3698C27.5402 17.8186 32.409 17.8885 36.476 18.3077L36.7146 15.9913C32.4846 15.555 27.4614 15.4867 21.5514 16.0518L21.7731 18.3698ZM21.4598 18.3993C21.5646 18.39 21.6692 18.3807 21.7731 18.3698L21.5514 16.0518C21.4489 16.0611 21.3455 16.072 21.2405 16.0813L21.4598 18.3993Z" fill="#FFC21A"/>
<defs>
<radialGradient id="paint0_radial_9800_58233" cx="0" cy="0" r="1" gradientTransform="matrix(9.6348 14.6492 -25.9438 5.44028 28.7206 19.8786)" gradientUnits="userSpaceOnUse">
<stop stop-color="#F7C522" stop-opacity="0.5"/>
<stop offset="1" stop-color="#F7C522" stop-opacity="0"/>
</radialGradient>
</defs>
</svg>
