<svg width="75" height="86" viewBox="0 0 75 86" fill="none" xmlns="http://www.w3.org/2000/svg">
<path d="M7.72569 32.1381C15.6735 34.6998 22.2031 34.0943 25.565 34.0943C28.8362 34.0943 38.7723 32.6039 42.4471 30.4304C42.8738 30.182 43.0617 29.6697 42.9617 29.1884C40.943 19.3919 30.9712 12.5141 23.5417 13.2593C16.69 13.9269 7.3182 19.3141 6.80695 30.834C6.7806 31.424 7.16071 31.9518 7.72569 32.1381Z" fill="#5C806D"/>
<path d="M24.9316 12.0781C29.4639 13.3741 34.9055 18.8779 36.0586 29.1045L33.7451 29.3652C32.7987 20.971 28.837 16.4588 25.5869 14.8291C25.422 18.7596 25.3599 25.5058 26.083 29.4277L23.793 29.8496C23.0389 25.7598 23.0905 19.0244 23.249 15.0078C19.6938 16.8067 15.0957 21.3774 15.0957 28.9717H12.7666C12.7666 18.8754 19.9215 13.3436 24.292 12.0938L24.6094 13.2051L24.9316 12.0781Z" fill="#517361"/>
<path d="M23.4259 12.1004C27.5182 11.6901 32.158 13.3732 35.9947 16.3502C39.848 19.3402 43.0273 23.7368 44.1024 28.951L44.1312 29.1223C44.2443 29.9772 43.8973 30.9276 43.038 31.4314L43.0395 31.4329C41.0084 32.634 37.4213 33.578 34.075 34.2211C30.6927 34.8712 27.3081 35.2581 25.5654 35.2582C22.2905 35.2582 15.5334 35.8781 7.36813 33.2462L7.36055 33.2447C6.32419 32.9029 5.59349 31.9184 5.64407 30.7825C6.18875 18.5095 16.1917 12.808 23.4259 12.1019V12.1004ZM34.5663 18.1908C31.0553 15.4664 26.9948 14.0839 23.6579 14.4186H23.6549C17.186 15.0489 8.44791 20.1205 7.9701 30.8856C7.96818 30.9286 7.9961 30.9979 8.08534 31.0296C15.8146 33.5204 22.1169 32.9294 25.5654 32.9294C27.0944 32.9293 30.3137 32.5732 33.6353 31.9348C36.9718 31.2935 40.1689 30.4102 41.8219 29.4452C41.8219 29.439 41.8233 29.4323 41.8219 29.4255L41.8204 29.424C40.8763 24.8427 38.0603 20.902 34.5663 18.1908Z" fill="#1A1A1A"/>
<path d="M4.69662 33.613C4.60634 32.4952 4.68503 31.2376 4.83017 30.0887C5.03241 28.4896 6.66551 27.5891 8.24035 27.9306C18.2273 30.0421 33.8735 28.8778 42.384 27.8376C43.6371 27.6823 44.8479 28.3808 45.1111 29.6073C45.2899 30.4457 45.414 31.3307 45.5185 32.138C45.7138 33.6595 44.7324 35.181 43.2365 35.5071C30.6926 38.2551 18.5127 37.3857 6.68582 35.5537C5.65203 35.3984 4.77998 34.6687 4.69662 33.613Z" fill="#5C806D"/>
<path d="M19.5537 28.7229C19.5537 29.5385 19.4686 30.9109 19.373 32.3762C19.2759 33.866 19.1645 35.4874 19.1074 36.8596L16.7822 36.7629C16.8407 35.3562 16.9526 33.7003 17.0488 32.2249C17.1466 30.7258 17.2246 29.4442 17.2246 28.7229H19.5537ZM33.0986 28.7229C33.0987 29.4442 33.1767 30.7258 33.2744 32.2249C33.3706 33.7004 33.4845 35.3562 33.543 36.7629L31.2148 36.8596C31.1578 35.4874 31.0483 33.866 30.9512 32.3762C30.8556 30.9109 30.7696 29.5385 30.7695 28.7229H33.0986ZM23.8916 28.6526C23.9405 29.4608 23.9361 30.8342 23.9287 32.301C23.9212 33.7927 23.9102 35.4181 23.9355 36.7903L21.6064 36.8323C21.5804 35.4259 21.5922 33.7674 21.5996 32.2903C21.6071 30.7885 21.6087 29.5056 21.5654 28.7922L23.8916 28.6526ZM28.7148 28.6526C28.7638 29.4608 28.7603 30.8342 28.7529 32.301C28.7455 33.7927 28.7334 35.4181 28.7588 36.7903L26.4307 36.8323C26.4047 35.4259 26.4164 33.7674 26.4238 32.2903C26.4313 30.7885 26.4329 29.5056 26.3896 28.7922L28.7148 28.6526ZM37.4287 28.5784C37.5786 29.7773 37.9071 32.8386 38.0244 35.6604L35.6973 35.7571C35.5835 33.0212 35.2633 30.0276 35.1182 28.8665L37.4287 28.5784ZM41.9111 28.5784C42.061 29.7773 42.3894 32.8387 42.5068 35.6604L40.1797 35.7571C40.0658 33.0212 39.7457 30.0276 39.6006 28.8665L41.9111 28.5784ZM10.7217 28.7112C10.5765 29.8723 10.2563 32.8668 10.1426 35.6028L7.81641 35.5051C7.93375 32.6835 8.26119 29.6221 8.41113 28.4231L10.7217 28.7112ZM15.2051 28.7112C15.0599 29.8723 14.7398 32.8668 14.626 35.6028L12.2998 35.5051C12.4172 32.6835 12.7436 29.6221 12.8936 28.4231L15.2051 28.7112Z" fill="#517361"/>
<path d="M42.2405 26.6822C43.967 26.4682 45.8348 27.4308 46.2496 29.3627V29.3642C46.3444 29.8085 46.4247 30.2622 46.4937 30.706L46.6742 31.9887V31.9902C46.9225 33.9265 45.7818 35.9137 43.8766 36.5387L43.4854 36.6448C30.7387 39.4371 18.396 38.5444 6.51301 36.704C5.08639 36.4896 3.6737 35.4325 3.53648 33.7065C3.43736 32.4788 3.52407 31.1342 3.67447 29.9434C3.98174 27.5138 6.40197 26.3463 8.47968 26.7928L8.48119 26.7913C18.2576 28.8583 33.7276 27.724 42.2405 26.6837V26.6822ZM42.5271 28.9928H42.5255C34.0169 30.0327 18.1969 31.2256 8.00052 29.0701L7.99445 29.0686C6.9243 28.8365 6.08234 29.469 5.98533 30.2345C5.86298 31.2031 5.79439 32.2206 5.8337 33.1349L5.85796 33.52V33.5216C5.88835 33.9057 6.21871 34.3062 6.85873 34.4024H6.8648C18.6338 36.2255 30.6491 37.0722 42.988 34.3691H42.9895C43.8422 34.1828 44.4882 33.264 44.3633 32.2874C44.2853 31.685 44.1997 31.0592 44.0904 30.4513L43.9721 29.8509C43.8599 29.3306 43.306 28.8963 42.5271 28.9928Z" fill="#1A1A1A"/>
</svg>
