<svg width="75" height="86" viewBox="0 0 75 86" fill="none" xmlns="http://www.w3.org/2000/svg">
<ellipse cx="44.7986" cy="11.7017" rx="8.57496" ry="8.57406" fill="url(#paint0_radial_9800_57523)"/>
<path d="M43.8643 18.1014V14.7492C43.8643 14.1061 44.3856 13.5847 45.0288 13.5847C45.6719 13.5847 46.1933 14.1061 46.1933 14.7492V18.1014C46.1932 18.7443 45.6718 19.2658 45.0288 19.2658C44.3857 19.2658 43.8644 18.7443 43.8643 18.1014Z" fill="#E8CD7D"/>
<path d="M38.3764 35.8994C37.6 35.1231 36.8237 18.8214 37.5617 18.6724C38.2998 18.5233 50.7981 17.4179 51.5744 18.0451C52.3508 18.6723 52.3508 35.4693 51.5744 36.6756C50.7981 37.882 43.4569 37.6693 38.3764 35.8994Z" fill="#FFF1C2"/>
<path d="M49.1458 16.6927C49.8036 16.6837 50.3964 16.6916 50.8623 16.7245C51.093 16.7409 51.3208 16.7655 51.5219 16.8049C51.6396 16.828 51.9277 16.8845 52.1951 17.0581L52.3073 17.14L52.4635 17.2901C52.5985 17.4426 52.6718 17.5949 52.7061 17.6706C52.7645 17.7997 52.8065 17.9306 52.8365 18.0421C52.8972 18.2676 52.9445 18.5351 52.9836 18.8153C53.0628 19.383 53.1255 20.1314 53.1747 20.9834C53.2734 22.6951 53.3217 24.9162 53.3217 27.1436C53.3217 29.3714 53.2733 31.6263 53.1747 33.4083C53.1255 34.2971 53.0628 35.0857 52.9851 35.7008C52.9465 36.0065 52.9023 36.2891 52.8487 36.5286C52.805 36.7233 52.7248 37.0418 52.5545 37.3064C52.249 37.7808 51.7535 38.0209 51.4006 38.1524C51.0063 38.2993 50.5438 38.3974 50.0601 38.4647C49.0871 38.6001 47.8605 38.6301 46.5347 38.5663C43.8838 38.4387 40.6638 37.9283 37.9948 36.9986L37.7416 36.9107L37.5536 36.7227C37.3815 36.5505 37.2874 36.3607 37.2427 36.2618C37.1893 36.1434 37.148 36.0214 37.1154 35.9115C37.0498 35.6908 36.9929 35.4276 36.9425 35.1489C36.8408 34.5865 36.7468 33.8525 36.6605 33.0217C36.4871 31.3534 36.339 29.2148 36.2389 27.1057C36.1389 24.9974 36.0862 22.8961 36.1055 21.3033C36.1151 20.5124 36.1415 19.8184 36.195 19.3035C36.2209 19.0538 36.2583 18.7966 36.3178 18.5773C36.346 18.4732 36.3948 18.3139 36.4861 18.1543C36.5513 18.0402 36.7986 17.6389 37.3322 17.5311L37.6627 17.4826C38.1165 17.4259 38.9165 17.3461 39.8508 17.2628C41.1463 17.1473 42.8113 17.0139 44.4786 16.905C46.1423 16.7962 47.8236 16.7109 49.1458 16.6927ZM49.1777 19.0215C47.9151 19.0389 46.2802 19.1214 44.6302 19.2292C42.9837 19.3369 41.3367 19.4684 40.057 19.5825C39.4342 19.638 38.9008 19.6892 38.4982 19.7311C38.4658 20.1296 38.441 20.672 38.433 21.3321C38.4146 22.8619 38.4661 24.9126 38.565 26.995C38.6638 29.077 38.8099 31.1694 38.9774 32.7807C39.0614 33.5891 39.1487 34.2568 39.2352 34.735C39.2512 34.8235 39.2661 34.9024 39.2807 34.9715C41.5926 35.705 44.3389 36.1294 46.6469 36.2405C47.8877 36.3002 48.9584 36.2672 49.7387 36.1587C50.1303 36.1041 50.4091 36.0359 50.5848 35.9707C50.613 35.8345 50.644 35.6479 50.6743 35.4082C50.7421 34.8714 50.8008 34.1447 50.8486 33.2795C50.9441 31.5534 50.9927 29.344 50.9927 27.1436C50.9927 24.9426 50.9439 22.7702 50.8486 21.1184C50.8008 20.2889 50.7436 19.6123 50.6773 19.1368C50.6728 19.1049 50.6665 19.0748 50.6621 19.0458C50.2958 19.0217 49.7916 19.0131 49.1777 19.0215Z" fill="#E8CD7D"/>
<path d="M39.9278 26.2128C39.9278 25.907 39.922 25.607 39.9126 25.3137C39.8844 25.3791 39.8557 25.4446 39.8231 25.5063C39.754 25.6372 39.6245 25.8556 39.4062 26.0369C39.1525 26.2472 38.7155 26.4463 38.1961 26.2977C37.9047 26.2145 37.7011 26.0518 37.5972 25.9581C37.4802 25.8526 37.3846 25.7387 37.3136 25.6488C37.1773 25.4759 37.0357 25.2597 36.9437 25.1242C36.8672 25.0116 36.8088 24.9362 36.7678 24.8832C36.3747 24.6961 36.1006 24.2997 36.1006 23.8355C36.101 23.1927 36.6222 22.6711 37.2651 22.6711C37.621 22.6711 37.8941 22.8099 38.0551 22.9152C38.0941 22.9407 38.128 22.9717 38.1628 22.9986C38.1909 22.9094 38.2393 22.7694 38.3144 22.6377C38.4305 22.4344 38.6156 22.1527 38.8724 21.9069C39.1187 21.6713 39.5613 21.3475 40.1734 21.3475L40.4615 21.3687C40.7462 21.4127 41.0157 21.5248 41.2515 21.7068C41.5475 21.9352 41.7194 22.2211 41.8216 22.4512C42.0051 22.8644 42.0662 23.3602 42.0961 23.5474C42.2413 24.4557 42.2568 25.3872 42.2568 26.2128C42.2568 26.9536 42.2644 27.6395 42.3872 28.1277L42.4479 28.3248L42.7087 29.1087C42.7913 29.3624 42.8692 29.5854 42.9574 29.7834C42.962 29.7938 42.9679 29.8036 42.9725 29.8137C42.9612 29.5019 42.9328 29.1601 42.8967 28.813C42.8524 28.387 42.786 27.8547 42.786 27.5076C42.786 26.6698 42.772 25.1287 42.786 24.2555C42.8057 23.0399 43.7188 22.051 45.0029 22.051L45.1454 22.0586C45.4698 22.0907 45.7346 22.2237 45.8702 22.2981C46.0652 22.4051 46.2486 22.5379 46.404 22.665C46.5613 22.7937 46.7166 22.9383 46.8482 23.085C46.9503 23.1987 47.1415 23.4245 47.247 23.7081L45.7368 24.2691L46.1553 24.1145L47.247 23.7081L47.2485 23.7112C47.2943 23.835 47.3484 23.9585 47.4078 24.0978C47.501 23.8212 47.6431 23.4511 47.8247 23.1002C47.9538 22.8509 48.1332 22.5512 48.3661 22.2981C48.5723 22.074 49.0049 21.6857 49.6443 21.6856L49.8475 21.7007C50.2987 21.7706 50.5927 22.0575 50.6906 22.1556C50.8546 22.32 50.9927 22.5128 51.1 22.6771C51.3188 23.0124 51.5431 23.4374 51.7353 23.8082C51.9413 24.2055 52.1155 24.5502 52.2706 24.8149C52.3298 24.9159 52.3749 24.9831 52.404 25.0242C52.7977 25.3155 52.9821 25.832 52.8195 26.322C52.6167 26.9323 51.9575 27.2631 51.3472 27.0604C51.1063 26.9803 50.9363 26.8457 50.8437 26.7632C50.7424 26.6727 50.6606 26.577 50.5981 26.4979C50.4735 26.34 50.3587 26.1589 50.2615 25.993C50.067 25.661 49.8532 25.239 49.6671 24.8801C49.6543 24.8554 49.6402 24.8315 49.6276 24.8073C49.597 24.8959 49.5727 24.9673 49.5609 25.0105C49.5386 25.0921 49.3436 25.9208 49.0651 26.5646C48.9918 26.734 48.9005 26.9204 48.7891 27.0952C48.6863 27.2565 48.5193 27.4849 48.2675 27.6623C47.9859 27.8606 47.5392 28.0272 47.0272 27.87C46.5801 27.7327 46.3085 27.4124 46.1598 27.1892C45.9595 26.8889 45.8374 26.5818 45.7535 26.3387C45.7114 26.2168 45.6737 26.0949 45.6428 25.996C45.6099 25.8908 45.5837 25.8067 45.5563 25.7292L45.338 25.1879C45.2691 25.0275 45.1912 24.8389 45.1151 24.6436C45.1087 25.5086 45.1151 26.7369 45.1151 27.5076C45.1151 27.6952 45.1556 28.0281 45.2121 28.572C45.2627 29.058 45.3187 29.6613 45.3061 30.22C45.2998 30.5011 45.2757 30.8037 45.2136 31.0949C45.1537 31.3762 45.0425 31.7239 44.8118 32.0334C44.5583 32.3731 44.1764 32.6424 43.6807 32.7156C43.2262 32.7827 42.8005 32.6666 42.4509 32.5094V32.5079L42.137 32.3426C41.4509 31.9191 41.0664 31.2616 40.83 30.731C40.6905 30.418 40.5816 30.1013 40.4934 29.8304C40.3981 29.5381 40.3342 29.3281 40.2614 29.1299L40.1461 28.7554C39.9118 27.8588 39.9278 26.8226 39.9278 26.2128Z" fill="#E8CD7D"/>
<path d="M42.261 6.98637L43.2617 6.39019C43.0169 5.97877 42.5449 5.75988 42.0722 5.83751C41.5996 5.91513 41.2227 6.27374 41.1224 6.7426L42.261 6.98637ZM42.261 12.1781L43.2979 11.6471L43.1501 11.3584L42.874 11.1876L42.261 12.1781ZM44.4746 7.63846C44.0845 7.50339 43.6918 7.11368 43.2617 6.39019L41.2605 7.58256C41.7545 8.41161 42.5085 9.42234 43.7126 9.83997L44.4746 7.63846ZM41.1224 6.7426C41.0406 7.12453 40.8627 8.37591 40.7908 9.58379C40.7546 10.1877 40.7415 10.8351 40.7923 11.3801C40.8173 11.6502 40.862 11.9452 40.9501 12.2169C41.0235 12.442 41.1999 12.8907 41.6482 13.167L42.874 11.1876C43.1499 11.3583 43.193 11.5819 43.1655 11.4981C43.1526 11.4577 43.1288 11.3537 43.1113 11.1658C43.0768 10.7932 43.0821 10.284 43.1156 9.72195C43.1829 8.5948 43.3496 7.46458 43.3998 7.23014L41.1224 6.7426ZM41.2243 12.7075C41.65 13.5397 42.5192 14.0101 43.2215 14.2399C43.9483 14.4774 44.846 14.5752 45.6133 14.347L44.9517 12.1144C44.7758 12.1672 44.3834 12.1688 43.9456 12.0259C43.7428 11.9592 43.5746 11.8753 43.4543 11.7915C43.3296 11.7046 43.2975 11.6456 43.2979 11.6471L41.2243 12.7075ZM45.6133 14.347C46.4389 14.1032 47.0629 13.5335 47.4682 12.9109C47.873 12.2899 48.1141 11.5353 48.1141 10.7916H45.785C45.785 11.0509 45.6944 11.3676 45.5164 11.6409C45.3391 11.9126 45.1297 12.0617 44.9517 12.1144L45.6133 14.347ZM48.1141 10.7916C48.1141 10.1644 47.914 9.61948 47.5641 9.18011C47.2325 8.76248 46.8089 8.4908 46.4307 8.30605C46.0513 8.12129 45.6531 7.99245 45.3216 7.89308C44.9509 7.7813 44.7104 7.72075 44.4746 7.63846L43.7126 9.83997C44.0073 9.94089 44.3892 10.0449 44.6534 10.1241C44.957 10.2141 45.2064 10.3011 45.4084 10.3989C45.6115 10.4982 45.7029 10.5805 45.741 10.6287C45.7608 10.6535 45.785 10.6861 45.785 10.7916H48.1141Z" fill="#F79722"/>
<defs>
<radialGradient id="paint0_radial_9800_57523" cx="0" cy="0" r="1" gradientTransform="matrix(2.87661 7.7451 -7.74591 2.87631 44.7986 11.7017)" gradientUnits="userSpaceOnUse">
<stop stop-color="#FFD755" stop-opacity="0.8"/>
<stop offset="0.865385" stop-color="#FFD755" stop-opacity="0"/>
</radialGradient>
</defs>
</svg>
