<svg width="75" height="86" viewBox="0 0 75 86" fill="none" xmlns="http://www.w3.org/2000/svg">
<path d="M36.1531 16.1202V15.8966C36.1575 15.1235 36.2258 14.5086 36.3582 14.0506C36.4949 13.5911 36.6935 13.2216 36.9537 12.939C37.2139 12.6565 37.5271 12.4003 37.8932 12.1705C38.1667 11.9951 38.4115 11.8119 38.6277 11.6224C38.8438 11.433 39.0158 11.2234 39.1438 10.9937C39.2717 10.7592 39.3357 10.5 39.3357 10.2127C39.3357 9.90845 39.2629 9.64143 39.1172 9.41165C38.9717 9.18343 38.7755 9.00639 38.5284 8.88374C38.2858 8.75954 38.0167 8.69744 37.7212 8.69744C37.4344 8.69744 37.1632 8.76114 36.9074 8.89C36.6515 9.01265 36.4419 9.19896 36.2787 9.44581C36.1155 9.68801 36.0273 9.99073 36.0141 10.3525H33.3145C33.3365 9.46907 33.5483 8.74246 33.9497 8.16802C34.351 7.59047 34.8827 7.16043 35.5443 6.87787C36.2059 6.5922 36.936 6.44785 37.7344 6.44785C38.6123 6.44785 39.3886 6.59376 40.0635 6.88564C40.7384 7.1713 41.2677 7.58893 41.6516 8.13542C42.0352 8.68192 42.2272 9.34178 42.2272 10.1134C42.2272 10.6304 42.1411 11.0884 41.9691 11.4889C41.8014 11.8864 41.5655 12.2388 41.2611 12.5478C40.9567 12.8521 40.5973 13.1284 40.1825 13.3753C39.8341 13.5818 39.5473 13.7991 39.3225 14.0242C39.1019 14.2478 38.9365 14.5086 38.8261 14.8036C38.7204 15.1002 38.6652 15.4635 38.6607 15.8966V16.1202H36.1531ZM37.4631 20.3555C37.022 20.3555 36.6449 20.2003 36.3317 19.8913C36.023 19.5793 35.8707 19.2036 35.8752 18.7673C35.8707 18.3357 36.023 17.9646 36.3317 17.6557C36.6449 17.3467 37.022 17.193 37.4631 17.193C37.8822 17.193 38.2505 17.3467 38.5682 17.6557C38.8857 17.9646 39.0467 18.3357 39.0511 18.7673C39.0467 19.0576 38.9696 19.3246 38.8196 19.5684C38.6739 19.8059 38.4822 19.9984 38.2438 20.1428C38.0057 20.2841 37.7454 20.3555 37.4631 20.3555Z" fill="white"/>
<path d="M37.4638 17.193C37.0229 17.193 36.6459 17.3467 36.3327 17.6557C36.024 17.9646 35.872 18.3357 35.8762 18.7673C35.8718 19.2035 36.0238 19.5793 36.3327 19.8913C36.6067 20.1615 36.9295 20.3151 37.3016 20.3477L37.4638 20.3539C37.6753 20.3539 37.8745 20.3151 38.0613 20.236L38.2447 20.1444C38.4829 19.9984 38.6738 19.8059 38.8195 19.5684C38.9319 19.3852 39.0041 19.1896 39.0347 18.9815L39.0515 18.7673C39.047 18.3357 38.8866 17.9646 38.5692 17.6557C38.2517 17.3467 37.8829 17.193 37.4638 17.193ZM39.3244 10.4239C39.3004 10.6288 39.2398 10.8182 39.1439 10.9937L39.0408 11.1613C38.9283 11.3259 38.7903 11.4796 38.6284 11.6209C38.4122 11.8103 38.1678 11.9951 37.8945 12.172C37.5284 12.4018 37.2146 12.6565 36.9544 12.939C36.6941 13.2216 36.4952 13.5911 36.3585 14.0506C36.2262 14.5086 36.1582 15.1234 36.1538 15.8951V16.1217H38.6617V15.8951C38.6662 15.4635 38.7212 15.0986 38.8269 14.8036C38.9373 14.5086 39.1024 14.2478 39.3229 14.0227C39.4917 13.855 39.6955 13.6904 39.9339 13.5321L40.1826 13.3753C40.4936 13.1905 40.7737 12.9887 41.0226 12.7714L41.2622 12.5478C41.5664 12.2388 41.8029 11.8864 41.9704 11.4889C42.0991 11.1893 42.1791 10.8555 42.2114 10.4906L42.2282 10.1149C42.2282 9.43959 42.0805 8.84961 41.7869 8.34659L41.6519 8.13541C41.3161 7.65723 40.8688 7.27842 40.3099 6.99896L40.0643 6.88563C39.3895 6.59375 38.613 6.44784 37.7352 6.44784C36.9368 6.44784 36.2058 6.5922 35.5442 6.87942L35.3031 6.99119C34.7525 7.27065 34.3019 7.66345 33.9505 8.16958C33.5493 8.74247 33.3372 9.47062 33.3151 10.3525H36.0142L36.0384 10.0916C36.0639 9.92551 36.1075 9.77493 36.1704 9.63831L36.2796 9.4458C36.4021 9.26105 36.5507 9.11043 36.7254 8.99399L36.9073 8.88999C37.1632 8.76113 37.4349 8.699 37.7216 8.699C38.0169 8.699 38.2858 8.75953 38.5284 8.88373L38.7041 8.98622C38.8704 9.09955 39.0089 9.24086 39.1181 9.41164C39.2637 9.64142 39.3365 9.90844 39.3365 10.2127L39.3244 10.4239ZM44.5572 10.1149C44.5571 10.885 44.426 11.6597 44.1128 12.3941L44.1159 12.3956C43.8329 13.0663 43.431 13.6671 42.9211 14.1841L42.9089 14.1966L42.9075 14.195C42.4514 14.6499 41.935 15.0412 41.3745 15.375C41.1917 15.4837 41.0776 15.5752 41.0105 15.6342C41.0099 15.6389 41.0097 15.6436 41.009 15.6482C41.0003 15.7057 40.992 15.7941 40.9908 15.9199V16.1217C40.9908 16.3779 40.9465 16.6247 40.8695 16.8561C41.1937 17.4196 41.3735 18.0593 41.3805 18.744V18.8014C41.3698 19.5047 41.1771 20.1847 40.8012 20.7933L40.7997 20.7918C40.5046 21.2715 40.1219 21.6783 39.6625 21.9981L39.4594 22.1301C39.4504 22.1347 39.441 22.141 39.432 22.1472C38.8271 22.5058 38.1552 22.6828 37.4638 22.6828C36.544 22.6828 35.6895 22.3832 34.9877 21.8118L34.6966 21.551L34.6738 21.5261C33.944 20.7856 33.5498 19.8339 33.5487 18.7905L33.5471 18.7921V18.744C33.5479 18.1043 33.698 17.5004 33.9823 16.9601C33.8817 16.6993 33.8247 16.4167 33.8247 16.1217V15.8826L33.8429 15.2337C33.8761 14.5894 33.958 13.9668 34.1204 13.4048L34.1264 13.3846L34.2129 13.116C34.264 12.9701 34.3235 12.8257 34.3873 12.6813H33.3151C32.6874 12.6813 32.0856 12.4267 31.6472 11.978C31.209 11.5277 30.9704 10.9207 30.9861 10.2935L31.0105 9.83702C31.0982 8.77508 31.4073 7.73953 32.0415 6.83285C32.6958 5.89356 33.5718 5.19023 34.6193 4.74154L34.9907 4.59253C35.8656 4.2696 36.7879 4.11902 37.7352 4.11902C38.8645 4.11902 39.9595 4.30683 40.9726 4.74154H40.9742C42.0094 5.18091 42.9 5.86095 43.5579 6.79869L43.802 7.17905C44.3279 8.08263 44.5572 9.08716 44.5572 10.1149Z" fill="#1A1A1A"/>
</svg>
