<svg width="75" height="86" viewBox="0 0 75 86" fill="none" xmlns="http://www.w3.org/2000/svg">
<path d="M54.4615 37.6024C36.6692 39.6207 26.2365 36.0499 23.2441 34.016L42.6271 6.37146L54.4615 37.6024Z" fill="#FFCD29"/>
<path d="M27.9707 27.9194C30.1203 27.9195 31.8633 29.6627 31.8633 31.812C31.8631 33.9612 30.1201 35.7036 27.9707 35.7036C25.8212 35.7036 24.0783 33.9612 24.0781 31.812C24.0781 29.6626 25.8211 27.9194 27.9707 27.9194ZM39.6494 27.9194C41.799 27.9195 43.541 29.6627 43.541 31.812C43.5408 33.9612 41.7988 35.7036 39.6494 35.7036C37.4999 35.7036 35.757 33.9612 35.7568 31.812C35.7568 29.6626 37.4998 27.9194 39.6494 27.9194ZM52.4834 34.4819L53.0723 34.2798C52.4573 34.6834 51.7221 34.9164 50.9297 34.9165C48.7803 34.9165 47.0373 33.1772 47.0371 31.0347C47.0372 29.2028 48.2982 27.6658 49.9971 27.2466L52.4834 34.4819ZM33.5371 19.3501C35.6866 19.3502 37.4287 21.0924 37.4287 23.2417C37.4286 25.3909 35.6865 27.1332 33.5371 27.1333C31.3876 27.1333 29.6447 25.391 29.6445 23.2417C29.6445 21.0923 31.3875 19.3501 33.5371 19.3501ZM44.7109 17.4399C46.8603 17.44 48.6023 19.1824 48.6025 21.3315C48.6025 23.4809 46.8605 25.224 44.7109 25.2241C42.5613 25.2241 40.8184 23.4809 40.8184 21.3315C40.8186 19.1824 42.5615 17.4399 44.7109 17.4399ZM38.6738 10.8706C40.1955 11.4 41.2889 12.8421 41.2891 14.5435C41.2891 16.689 39.5469 18.4281 37.3975 18.4438C36.2253 18.4438 35.1765 17.9161 34.4629 17.0933L38.6738 10.8706Z" fill="#007BE5"/>
<path d="M42.5433 3.27249C42.9805 3.32391 43.3512 3.61832 43.5016 4.03209L55.5563 37.2041C55.6781 37.5393 55.6395 37.9122 55.4517 38.2154C55.2638 38.5186 54.9478 38.7195 54.5934 38.7597L52.927 38.934C44.6996 39.7214 38.0744 39.258 33.0693 38.3139C27.7623 37.3129 24.2077 35.7579 22.5112 34.5235C22.0082 34.1575 21.8823 33.4601 22.2246 32.9407L41.4348 3.78799C41.6771 3.42067 42.1062 3.22117 42.5433 3.27249ZM24.8236 33.2272C26.4625 34.1288 29.3423 35.2415 33.5015 36.026C38.3076 36.9326 44.7631 37.3877 52.8588 36.5992L42.1051 7.00527L24.8236 33.2272Z" fill="#1A1A1A"/>
<path d="M41.6058 0.409569C42.2364 0.285776 42.8495 0.697065 42.974 1.32754C43.1327 2.13276 43.267 3.01398 43.3588 3.97012C43.8469 3.36491 44.2728 2.77864 44.6469 2.22109C45.0051 1.68766 45.7282 1.54517 46.2621 1.90273C46.7961 2.26097 46.9386 2.98492 46.5804 3.51894C46.0392 4.32566 45.3994 5.18379 44.6381 6.06973C45.4436 6.0142 46.2885 5.92309 47.1722 5.78262C47.8071 5.68191 48.4031 6.11564 48.5043 6.75039C48.6052 7.38544 48.1726 7.98241 47.5375 8.0834C46.586 8.23463 45.6747 8.33275 44.8041 8.39297C45.3008 8.80923 45.8302 9.22734 46.3988 9.64004C46.9192 10.0178 47.0343 10.7456 46.6566 11.266C46.2788 11.7859 45.5519 11.9012 45.0316 11.5238C44.3972 11.0634 43.8065 10.5971 43.2533 10.1312C43.1686 10.8068 43.0606 11.5052 42.9203 12.226C42.7974 12.8572 42.1854 13.2698 41.5541 13.1469C40.9232 13.0237 40.5115 12.4126 40.6342 11.7816C40.7805 11.0301 40.8906 10.3061 40.972 9.60976C40.3147 10.1395 39.6055 10.6688 38.8353 11.1879C38.3021 11.5473 37.5787 11.4074 37.2191 10.8744C36.8597 10.3412 37.0013 9.61765 37.5345 9.2582C38.0536 8.90829 38.5414 8.55261 39.0033 8.19766C38.1529 8.07734 37.3655 7.92631 36.641 7.75723C36.0152 7.61082 35.6259 6.98374 35.7719 6.35781C35.9183 5.73191 36.5461 5.34255 37.1722 5.48867C37.7783 5.63009 38.4337 5.7591 39.139 5.86465C38.5274 5.07422 38.0064 4.30983 37.558 3.58828C37.2187 3.04208 37.3858 2.3251 37.932 1.98574C38.4783 1.64645 39.1951 1.81456 39.5345 2.36074C39.9655 3.05428 40.4718 3.79264 41.0726 4.55898C40.9904 3.53939 40.8535 2.61226 40.6888 1.77676C40.5649 1.14602 40.975 0.533894 41.6058 0.409569Z" fill="#007BE5"/>
</svg>
