<svg width="75" height="86" viewBox="0 0 75 86" fill="none" xmlns="http://www.w3.org/2000/svg">
<path d="M6.83018 60.2663C14.778 62.828 21.3076 62.2225 24.6695 62.2225C27.9407 62.2225 37.8768 60.7321 41.5516 58.5585C41.9783 58.3101 42.1662 57.7979 42.0662 57.3166C40.0475 47.52 30.0757 40.6423 22.6462 41.3875C15.7945 42.0551 6.42269 47.4423 5.91145 58.9622C5.8851 59.5522 6.2652 60.08 6.83018 60.2663Z" fill="#FF99E0"/>
<path d="M24.0361 40.2068C28.5685 41.5028 34.0101 47.0064 35.1631 57.2332L32.8496 57.4939C31.9033 49.1 27.9414 44.5886 24.6914 42.9587C24.5265 46.8895 24.4644 53.635 25.1875 57.5564L22.8975 57.9783C22.1435 53.8889 22.195 47.1542 22.3535 43.1375C18.7983 44.9365 14.2002 49.5064 14.2002 57.1003H11.8711C11.8711 47.0042 19.026 41.4723 23.3965 40.2224L23.7139 41.3337L24.0361 40.2068Z" fill="#FFBDF2"/>
<path d="M22.5304 40.2286C26.6227 39.8183 31.2625 41.5014 35.0992 44.4783C38.9525 47.4684 42.1318 51.8649 43.2069 57.0791L43.2357 57.2505C43.3488 58.1054 43.0018 59.0558 42.1425 59.5596L42.144 59.5611C40.1129 60.7622 36.5258 61.7061 33.1795 62.3493C29.7972 62.9994 26.4126 63.3863 24.6699 63.3864C21.395 63.3864 14.6379 64.0062 6.47262 61.3744L6.46504 61.3729C5.42868 61.0311 4.69798 60.0466 4.74857 58.9107C5.29324 46.6377 15.2962 40.9362 22.5304 40.2301V40.2286ZM33.6708 46.319C30.1598 43.5946 26.0993 42.2121 22.7624 42.5468H22.7594C16.2905 43.1771 7.55241 48.2486 7.0746 59.0138C7.07268 59.0567 7.10059 59.126 7.18984 59.1578C14.9191 61.6486 21.2214 61.0575 24.6699 61.0575C26.1989 61.0574 29.4182 60.7013 32.7398 60.0629C36.0763 59.4216 39.2733 58.5384 40.9264 57.5734C40.9264 57.5672 40.9278 57.5605 40.9264 57.5537L40.9248 57.5522C39.9808 52.9709 37.1648 49.0302 33.6708 46.319Z" fill="#1A1A1A"/>
<path d="M3.80111 61.7414C3.71083 60.6236 3.78953 59.366 3.93466 58.2171C4.1369 56.618 5.77001 55.7175 7.34484 56.0591C17.3318 58.1705 32.978 57.0062 41.4885 55.966C42.7416 55.8108 43.9524 56.5092 44.2156 57.7357C44.3944 58.5741 44.5185 59.4591 44.623 60.2664C44.8183 61.7879 43.8369 63.3095 42.341 63.6355C29.7971 66.3835 17.6172 65.5141 5.79031 63.6821C4.75652 63.5269 3.88447 62.7972 3.80111 61.7414Z" fill="#FF99E0"/>
<path d="M18.6582 56.8506C18.6582 57.6662 18.5731 59.0393 18.4775 60.5049C18.3804 61.9946 18.2699 63.6161 18.2129 64.9883L15.8867 64.8906C15.9452 63.4841 16.0571 61.8288 16.1533 60.3535C16.2511 58.8542 16.3291 57.5718 16.3291 56.8506H18.6582ZM32.2031 56.8506C32.2031 57.5718 32.2811 58.8542 32.3789 60.3535C32.4751 61.8288 32.589 63.4841 32.6475 64.8906L30.3193 64.9883C30.2623 63.6161 30.1528 61.9946 30.0557 60.5049C29.9601 59.0392 29.874 57.6662 29.874 56.8506H32.2031ZM22.9961 56.7812C23.045 57.5894 23.0405 58.9621 23.0332 60.4287C23.0257 61.9203 23.0147 63.5457 23.04 64.918L20.7109 64.9609C20.6849 63.5544 20.6967 61.8952 20.7041 60.418C20.7116 58.9166 20.7131 57.6342 20.6699 56.9209L22.9961 56.7812ZM27.8193 56.7812C27.8683 57.5894 27.8648 58.9621 27.8574 60.4287C27.85 61.9203 27.8389 63.5457 27.8643 64.918L25.5352 64.9609C25.5092 63.5544 25.5209 61.8952 25.5283 60.418C25.5358 58.9166 25.5374 57.6342 25.4941 56.9209L27.8193 56.7812ZM36.5332 56.707C36.6831 57.9062 37.0116 60.9675 37.1289 63.7891L34.8018 63.8857C34.688 61.15 34.3678 58.1565 34.2227 56.9951L36.5332 56.707ZM41.0156 56.707C41.1655 57.9062 41.4939 60.9675 41.6113 63.7891L39.2842 63.8857C39.1703 61.15 38.8503 58.1565 38.7051 56.9951L41.0156 56.707ZM9.82617 56.8398C9.68096 58.001 9.36084 60.9946 9.24707 63.7305L6.9209 63.6338C7.03823 60.8121 7.36567 57.7509 7.51562 56.5518L9.82617 56.8398ZM14.3096 56.8398C14.1644 58.0009 13.8443 60.9945 13.7305 63.7305L11.4043 63.6338C11.5216 60.8121 11.8491 57.7509 11.999 56.5518L14.3096 56.8398Z" fill="#FFBDF2"/>
<path d="M41.345 54.8103C43.0715 54.5964 44.9393 55.5589 45.3541 57.4909V57.4924C45.4489 57.9366 45.5292 58.3904 45.5982 58.8342L45.7787 60.1169V60.1184C46.027 62.0547 44.8863 64.0419 42.9811 64.6669L42.5899 64.773C29.8432 67.5653 17.5005 66.6725 5.61751 64.8321C4.19088 64.6177 2.77819 63.5607 2.64098 61.8347C2.54185 60.6069 2.62856 59.2624 2.77896 58.0716C3.08624 55.642 5.50646 54.4745 7.58417 54.921L7.58568 54.9195C17.3621 56.9865 32.832 55.8522 41.345 54.8119V54.8103ZM41.6315 57.121H41.63C33.1214 58.1609 17.3014 59.3538 7.10501 57.1983L7.09895 57.1968C6.0288 56.9647 5.18683 57.5971 5.08983 58.3627C4.96747 59.3313 4.89888 60.3488 4.9382 61.2631L4.96246 61.6482V61.6497C4.99284 62.0339 5.3232 62.4344 5.96323 62.5306H5.96929C17.7383 64.3536 29.7536 65.2004 42.0925 62.4973H42.094C42.9467 62.311 43.5927 61.3922 43.4678 60.4156C43.3898 59.8131 43.3042 59.1873 43.1949 58.5795L43.0766 57.9791C42.9644 57.4587 42.4105 57.0244 41.6315 57.121Z" fill="#1A1A1A"/>
<path d="M23.3491 32.8388C24.1904 32.6733 25.0076 33.2213 25.1733 34.0625C25.3097 34.7554 25.43 35.4982 25.5249 36.291C25.8799 35.827 26.2013 35.3751 26.4936 34.9404C26.9722 34.2291 27.9364 34.0392 28.6479 34.5175C29.3594 34.9959 29.5479 35.9603 29.0698 36.6718C28.5809 37.3989 28.0178 38.1643 27.3696 38.955C28.0356 38.8939 28.7257 38.8118 29.439 38.6982C30.2855 38.5636 31.0813 39.1399 31.2163 39.9863C31.3511 40.8329 30.7738 41.6285 29.9272 41.7636C29.1277 41.8909 28.3536 41.9831 27.606 42.0507C27.9872 42.356 28.3855 42.6616 28.8032 42.9648C29.4969 43.4684 29.6522 44.4389 29.1489 45.1328C28.6453 45.8266 27.673 45.981 26.979 45.4775C26.4301 45.0791 25.9108 44.676 25.4175 44.2734C25.3352 44.8573 25.2351 45.4565 25.1157 46.0703C24.9517 46.9117 24.136 47.4615 23.2944 47.2978C22.4535 47.1336 21.9045 46.3186 22.0679 45.4775C22.1788 44.9074 22.2706 44.3518 22.3462 43.8115C21.7779 44.2503 21.1773 44.6892 20.5376 45.1201C19.8264 45.599 18.8614 45.4112 18.3823 44.7002C17.9034 43.9891 18.0914 43.025 18.8022 42.5459C19.1702 42.298 19.5227 42.0454 19.8638 41.7949C19.1783 41.6835 18.5327 41.5566 17.9272 41.4179C17.0917 41.2262 16.5698 40.3932 16.7612 39.5576C16.953 38.7221 17.7859 38.2002 18.6216 38.3916C19.0767 38.4958 19.5573 38.5944 20.064 38.6826C19.5688 38.0101 19.1331 37.3571 18.7456 36.7334C18.2935 36.0051 18.5173 35.048 19.2456 34.5957C19.9738 34.1438 20.9308 34.3679 21.3833 35.0957C21.697 35.6006 22.0482 36.128 22.4419 36.6718C22.3563 35.9552 22.2481 35.2851 22.1255 34.6621C21.9602 33.8212 22.5084 33.0048 23.3491 32.8388Z" fill="#80CAFF"/>
</svg>
