<svg width="75" height="86" viewBox="0 0 75 86" fill="none" xmlns="http://www.w3.org/2000/svg">
<path d="M32.4218 11.1561C26.5636 10.209 13.1737 11.1561 7.31559 26.3043L4.00195 40.2958C6.51257 38.4032 12.3368 37.6658 17.3579 37.6658C34.0955 37.6658 39.2559 40.5054 44.1379 40.5054C51.6698 21.5705 38.2799 12.1016 32.4218 11.1561Z" fill="#CFBFA8"/>
<path d="M37.8203 38.8865C37.7293 39.1268 37.6332 39.3666 37.5322 39.6042L36.1016 38.9978C36.1944 38.7793 36.2834 38.5579 36.3672 38.3367L37.8203 38.8865ZM25.9395 36.7097C25.9163 36.9625 25.8944 37.2163 25.874 37.4695L24.3281 37.3445C24.3489 37.0854 24.3709 36.8257 24.3945 36.5671L25.9395 36.7097ZM38.6875 35.9314C38.5797 36.432 38.4541 36.93 38.3096 37.4236L36.8193 36.988C36.9529 36.5317 37.0698 36.0692 37.1699 35.6042L38.6875 35.9314ZM12.6748 35.7849C12.6483 36.0298 12.6252 36.2752 12.6055 36.5212L11.0586 36.3972C11.0795 36.1369 11.1028 35.8771 11.1309 35.6179L12.6748 35.7849ZM26.2842 33.6775C26.2163 34.1804 26.1531 34.6861 26.0957 35.1921L24.5537 35.0164C24.6124 34.4994 24.6758 33.983 24.7451 33.4695L26.2842 33.6775ZM39.1299 32.8982C39.0887 33.4066 39.0322 33.9143 38.959 34.4197L37.4229 34.197C37.4913 33.7249 37.5434 33.2496 37.582 32.7722L39.1299 32.8982ZM13.1553 32.863C13.0482 33.3447 12.9552 33.8298 12.875 34.3171L11.3438 34.0652C11.4286 33.5495 11.5273 33.0358 11.6406 32.5261L13.1553 32.863ZM26.7539 30.6619C26.6656 31.1607 26.5826 31.6627 26.5039 32.1667L24.9688 31.9275C25.0491 31.4127 25.1354 30.8998 25.2256 30.3904L26.7539 30.6619ZM13.958 30.0125C13.7981 30.4803 13.6511 30.9528 13.5176 31.4275L12.0225 31.0076C12.1637 30.5052 12.3191 30.0054 12.4883 29.5105L13.958 30.0125ZM39.2012 29.8455C39.2171 30.3532 39.2204 30.8624 39.209 31.3708L37.6562 31.3367C37.667 30.8571 37.6635 30.3754 37.6484 29.8943L39.2012 29.8455ZM27.3486 27.6658C27.2403 28.1601 27.1355 28.6591 27.0361 29.1609L25.5137 28.8591C25.615 28.3473 25.7196 27.8381 25.8301 27.3337L27.3486 27.6658ZM15.0674 27.2673C14.8572 27.716 14.6591 28.1691 14.4746 28.6257L13.0361 28.0427C13.231 27.5607 13.4384 27.0825 13.6602 26.6091L15.0674 27.2673ZM38.957 26.8152C39.0209 27.3164 39.0742 27.8214 39.1152 28.3269L37.5664 28.4529C37.5274 27.972 37.478 27.491 37.417 27.0125L38.957 26.8152ZM28.0605 24.699C27.9326 25.1871 27.8092 25.6813 27.6895 26.1794L26.1797 25.8162C26.302 25.3074 26.4288 24.8032 26.5596 24.3044L28.0605 24.699ZM16.4658 24.6531C16.2089 25.0782 15.9637 25.5081 15.7314 25.9421L14.3623 25.2097C14.6074 24.7517 14.8649 24.2976 15.1357 23.8494L16.4658 24.6531ZM38.4473 23.8279C38.5513 24.3191 38.6471 24.8159 38.7324 25.3152L37.2031 25.5779C37.1214 25.0994 37.0297 24.6233 36.9297 24.1511L38.4473 23.8279ZM18.1279 22.1941C17.8288 22.5921 17.5403 22.9945 17.2646 23.4021L15.9785 22.533C16.2688 22.1038 16.5731 21.68 16.8877 21.2615L18.1279 22.1941ZM28.8965 21.7634C28.7484 22.244 28.6045 22.7326 28.4639 23.2263L26.9707 22.8005C27.1143 22.2963 27.2617 21.7976 27.4131 21.3064L28.8965 21.7634ZM37.7139 20.8972C37.8522 21.3771 37.985 21.8641 38.1084 22.3562L36.6006 22.7332C36.4817 22.2594 36.3552 21.7899 36.2217 21.3269L37.7139 20.8972ZM20.0273 19.906C19.6905 20.2746 19.3645 20.6493 19.0498 21.0281L17.8545 20.0359C18.1848 19.6383 18.5278 19.2464 18.8809 18.8601L20.0273 19.906ZM29.8613 18.8708C29.6918 19.3422 29.525 19.8236 29.3623 20.3123L27.8896 19.821C28.0562 19.3209 28.2266 18.8286 28.4004 18.3455L29.8613 18.8708ZM36.7832 18.0271C36.9514 18.4937 37.1153 18.9699 37.2725 19.4539L35.7959 19.9333C35.644 19.4655 35.485 19.005 35.3223 18.5535L36.7832 18.0271ZM22.1338 17.8015C21.7641 18.1391 21.4046 18.4825 21.0557 18.8308L19.959 17.7332C20.3244 17.3684 20.7013 17.0081 21.0879 16.655L22.1338 17.8015ZM30.9648 16.0349C30.772 16.4931 30.5815 16.9639 30.3945 17.4451L28.9463 16.8826C29.1384 16.3883 29.3346 15.9033 29.5332 15.4314L30.9648 16.0349ZM35.6729 15.2244C35.8678 15.6754 36.0605 16.14 36.249 16.616L34.8057 17.1873C34.6231 16.7264 34.4358 16.2763 34.2471 15.8396L35.6729 15.2244ZM24.4189 15.8884C24.0216 16.194 23.6339 16.5054 23.2559 16.822L22.2578 15.6316C22.6527 15.3009 23.0582 14.9757 23.4727 14.657L24.4189 15.8884ZM26.8555 14.1638C26.435 14.4373 26.0227 14.7161 25.6201 15.0007L24.7236 13.7341C25.1431 13.4375 25.5723 13.1466 26.0098 12.8621L26.8555 14.1638ZM32.2295 13.2771C32.0094 13.7166 31.7899 14.174 31.5742 14.6453L30.1621 13.9978C30.3849 13.5111 30.6123 13.039 30.8408 12.5828L32.2295 13.2771ZM34.3887 12.4949C34.6098 12.9276 34.8335 13.3798 35.0547 13.8503L33.6484 14.5115C33.4346 14.0566 33.2201 13.6193 33.0068 13.2019L34.3887 12.4949ZM29.4229 12.6267C28.9822 12.8693 28.5491 13.117 28.125 13.3708L27.3271 12.0398C27.7675 11.7763 28.2169 11.5189 28.6738 11.2673L29.4229 12.6267ZM33.6777 11.1609L33.2354 11.408C33.1343 11.5822 33.0322 11.7595 32.9316 11.9412L32.6045 11.7605L32.3223 11.9177C32.2345 11.7604 32.145 11.6079 32.0586 11.4587L31.5732 11.1892C31.7024 10.9559 31.8325 10.7275 31.9629 10.5046L32.6328 10.8972L33.3027 10.5046C33.4262 10.7156 33.5517 10.9349 33.6777 11.1609ZM31.418 11.5955C31.192 11.705 30.9682 11.8171 30.7461 11.9294L30.0439 10.5437C30.2741 10.4272 30.5081 10.3115 30.7422 10.198L31.418 11.5955Z" fill="#A7977E"/>
<path d="M32.1714 6.59948L34.2974 6.88854C35.7564 7.08724 36.8133 8.43605 36.6577 9.90026C36.6054 10.3911 36.4209 10.8306 36.147 11.1932C38.9253 12.5415 42.02 14.9581 44.2798 18.452C47.6388 23.6455 49.1149 31.1465 45.2212 40.9354L45.1441 41.0946C44.9374 41.4473 44.5557 41.6688 44.1382 41.6688C42.7985 41.6688 41.1506 41.4122 39.3062 41.0731C37.4163 40.7256 35.3185 40.2926 32.9058 39.8788C28.1234 39.0586 22.3313 38.3637 15.7661 38.828C14.0769 38.9473 11.8333 39.0836 9.69778 39.4208C7.50816 39.7665 5.67659 40.2915 4.67336 41.0477L4.52004 41.1444C4.14862 41.3424 3.69229 41.326 3.33254 41.0897C2.92214 40.8196 2.72583 40.3212 2.84133 39.8436L6.18313 26.0301C6.19512 25.9807 6.21164 25.9321 6.23001 25.8846C9.27682 18.0061 14.3242 13.7515 19.4195 11.621C22.9333 10.1518 26.4404 9.70465 29.2915 9.7362C29.234 9.46438 29.216 9.18034 29.2466 8.89147C29.4025 7.42742 30.7123 6.40112 32.1714 6.59948ZM32.2368 12.3055C29.473 11.8587 24.8886 11.8589 20.3189 13.7694C15.8038 15.6571 11.2406 19.4323 8.42727 26.6591L5.68801 37.9745C6.83574 37.5801 8.10917 37.3146 9.33547 37.121C11.5928 36.7646 13.9515 36.6204 15.6031 36.5038C22.4274 36.0212 28.4221 36.7466 33.2984 37.5829C35.7146 37.9973 37.9157 38.4512 39.7261 38.7841C41.1686 39.0493 42.3699 39.2371 43.3501 39.3085C46.61 30.5537 45.1592 24.1007 42.3238 19.7167C39.3525 15.123 34.8193 12.7224 32.2368 12.3055Z" fill="#1A1A1A"/>
<path d="M5.99945 25.1865C0.851373 27.7187 -0.723165 32.6216 3.93358 40.4884C5.99945 39.5413 11.9331 37.9081 16.4867 37.6488C22.8371 37.2855 26.5291 37.6488 34.0609 38.5958C28.9258 23.1139 11.1475 22.6527 5.99945 25.1865Z" fill="#C4B091"/>
<path d="M11.8007 22.8718C14.3868 22.7973 17.3781 23.1149 20.3725 24.021C26.3794 25.8387 32.4549 30.0516 35.1672 38.2289C35.293 38.6084 35.2148 39.0269 34.961 39.3357C34.7072 39.6442 34.3126 39.8009 33.9162 39.7512L34.0618 38.5958H34.0603L33.9162 39.7512C26.4057 38.8068 22.7962 38.454 16.5529 38.8111C14.3712 38.9354 11.8239 39.3926 9.55204 39.9422C7.26694 40.4951 5.35119 41.1191 4.4193 41.5463C3.87744 41.7947 3.23542 41.5938 2.9318 41.0808C0.537618 37.0362 -0.382664 33.5491 0.14329 30.63C0.68113 27.6456 2.67736 25.5236 5.48527 24.1423C6.97836 23.4075 9.23957 22.9455 11.8007 22.8718ZM11.8675 25.1991C9.48687 25.2677 7.59428 25.6996 6.51334 26.2316C4.17389 27.3824 2.80826 28.9775 2.43596 31.0439C2.08172 33.0108 2.58563 35.6286 4.44205 39.0234C5.61822 38.5881 7.23922 38.1054 9.00313 37.6786C11.3527 37.1101 14.0493 36.6219 16.4209 36.4869C22.306 36.1502 25.9635 36.4311 32.2831 37.2025C29.6277 31.0446 24.694 27.7616 19.6977 26.2498C16.9623 25.4221 14.223 25.1312 11.8675 25.1991Z" fill="#1A1A1A"/>
</svg>
