<svg width="75" height="86" viewBox="0 0 75 86" fill="none" xmlns="http://www.w3.org/2000/svg">
<path d="M60.1672 1.55255C61.682 1.55255 63.0473 2.23568 64.0075 3.32712C64.6103 4.01334 65.6147 4.3409 66.514 4.18564C66.7912 4.13751 67.0755 4.11116 67.3652 4.11116C70.2718 4.11271 72.628 6.62468 72.6283 9.72511C72.6283 10.3787 72.5224 11.0076 72.3289 11.5913C72.1803 12.04 72.1803 12.5275 72.3289 12.9761C72.5226 13.5599 72.6283 14.1887 72.6283 14.8439C72.6281 17.9427 70.2719 20.4564 67.3652 20.4564C66.5171 20.4564 65.7159 20.2421 65.0064 19.8618C64.2505 19.4581 63.2805 19.4581 62.5245 19.8618C61.8155 20.2421 61.015 20.4564 60.1672 20.4564C59.4564 20.4564 58.7788 20.3058 58.1605 20.0325C57.5349 19.7562 56.8011 19.7562 56.1758 20.0325C56.0056 20.107 55.8309 20.1738 55.6524 20.2297C55.3862 20.3136 55.1366 20.444 54.9186 20.6179C54.0405 21.3196 52.9513 21.7356 51.7698 21.7356C48.863 21.7356 46.5055 19.2236 46.5052 16.1232C46.5052 15.8748 46.3913 15.6388 46.1979 15.4836C44.9277 14.4589 44.1064 12.8334 44.1064 11.0045C44.1066 8.37446 45.8026 6.16674 48.0918 5.55815C48.727 5.38892 49.2866 4.96345 49.597 4.38435C50.5033 2.69363 52.2106 1.55255 54.1688 1.55255C54.8796 1.55255 55.5574 1.70311 56.1758 1.9748C56.8012 2.25115 57.5347 2.25121 58.1602 1.97641C58.7788 1.70316 59.4565 1.55255 60.1672 1.55255Z" fill="white"/>
<path d="M60.1667 2.71694C61.3194 2.71694 62.3746 3.23394 63.1324 4.0956L64.8816 2.5586C63.7188 1.23583 62.0434 0.388123 60.1668 0.388123L60.1667 2.71694ZM66.7129 5.33146C66.9245 5.29575 67.1422 5.27555 67.3647 5.27555L67.3649 2.94673C67.0079 2.94673 66.6567 2.97772 66.3143 3.03827L66.7129 5.33146ZM67.3647 5.27555C69.5589 5.2771 71.4631 7.196 71.4633 9.7251H73.7923C73.792 6.05333 70.9839 2.94829 67.3649 2.94673L67.3647 5.27555ZM71.4633 9.7251C71.4633 10.253 71.3779 10.7575 71.2229 11.2249L73.4338 11.9577C73.6661 11.2575 73.7923 10.506 73.7923 9.7251H71.4633ZM71.2229 13.3426C71.3779 13.8099 71.4633 14.3144 71.4633 14.8438H73.7923C73.7923 14.0629 73.6661 13.31 73.4338 12.6098L71.2229 13.3426ZM71.4633 14.8438C71.4631 17.3714 69.5587 19.292 67.3646 19.292L67.3647 21.6208C70.9838 21.6192 73.7922 18.5141 73.7923 14.8438H71.4633ZM67.3646 19.292C66.7154 19.292 66.1024 19.1289 65.5557 18.8355L64.4562 20.8895C65.3285 21.3553 66.3179 21.6208 67.3647 21.6208L67.3646 19.292ZM61.9742 18.8355C61.4279 19.1289 60.8156 19.292 60.1667 19.292V21.6208C61.2132 21.6208 62.2021 21.3553 63.074 20.8895L61.9742 18.8355ZM60.1667 19.292C59.6226 19.292 59.1049 19.177 58.6301 18.9674L57.6896 21.0975C58.4516 21.4344 59.2889 21.6208 60.1667 21.6208V19.292ZM55.7047 18.9674C55.5739 19.0248 55.4401 19.0762 55.3036 19.1181L56.0003 21.3412C56.2209 21.2714 56.4363 21.1907 56.6458 21.0975L55.7047 18.9674ZM54.1914 19.708C53.5063 20.256 52.6701 20.5712 51.7693 20.5712V22.9C53.2315 22.9 54.5738 22.3831 55.6449 21.5276L54.1914 19.708ZM51.7693 20.5712C49.5749 20.5712 47.6696 18.6507 47.6692 16.1232H45.3402C45.3405 19.795 48.1501 22.9 51.7693 22.9V20.5712ZM46.9288 14.5768C45.9335 13.7741 45.2705 12.4825 45.2705 11.0044H42.9414C42.9414 13.1842 43.921 15.142 45.4661 16.3887L46.9288 14.5768ZM45.2705 11.0044C45.2706 8.86815 46.6432 7.14793 48.3908 6.68217L47.7919 4.43247C44.9609 5.18546 42.9416 7.87917 42.9414 11.0044H45.2705ZM50.623 4.93394C51.3481 3.58168 52.6833 2.71694 54.1683 2.71694V0.388123C51.7372 0.388123 49.6576 1.80555 48.57 3.83473L50.623 4.93394ZM54.1683 2.71694C54.7128 2.71694 55.2309 2.8318 55.7057 3.0414L56.645 0.909776C55.8828 0.574426 55.0454 0.388123 54.1683 0.388123V2.71694ZM58.6293 3.0414C59.1042 2.8318 59.6223 2.71694 60.1667 2.71694L60.1668 0.388123C59.2897 0.388123 58.4522 0.574426 57.6901 0.909776L58.6293 3.0414ZM55.7057 3.0414C56.6302 3.44817 57.7047 3.44817 58.6293 3.0414L57.6901 0.909776C57.3639 1.05416 56.9712 1.05416 56.645 0.909776L55.7057 3.0414ZM47.6692 16.1232C47.6692 15.5177 47.3926 14.951 46.9288 14.5768L45.4661 16.3887C45.3891 16.3266 45.3402 16.2303 45.3402 16.1232H47.6692ZM55.3036 19.1181C54.9039 19.2438 54.5252 19.4409 54.1914 19.708L55.6449 21.5276C55.7471 21.4469 55.8675 21.3816 56.0003 21.3412L55.3036 19.1181ZM65.5557 18.8355C64.4562 18.2471 63.0737 18.2471 61.9742 18.8355L63.074 20.8895C63.4864 20.6675 64.0436 20.6675 64.4562 20.8895L65.5557 18.8355ZM58.6301 18.9674C57.705 18.5591 56.6296 18.5591 55.7047 18.9674L56.6458 21.0975C56.9715 20.9531 57.3639 20.9531 57.6896 21.0975L58.6301 18.9674ZM48.3908 6.68217C49.319 6.43531 50.1516 5.81424 50.623 4.93394L48.57 3.83473C48.4206 4.11419 48.134 4.34087 47.7919 4.43247L48.3908 6.68217ZM71.2229 11.2249C70.9956 11.9111 70.9956 12.6563 71.2229 13.3426L73.4338 12.6098C73.3641 12.3986 73.3641 12.1689 73.4338 11.9577L71.2229 11.2249ZM63.1324 4.0956C64.018 5.1032 65.4374 5.55347 66.7129 5.33146L66.3143 3.03827C65.7912 3.12832 65.2015 2.92189 64.8816 2.5586L63.1324 4.0956Z" fill="#1A1A1A"/>
<path d="M42.7136 24.8691C44.0078 24.8691 45.0571 23.82 45.0571 22.5258C45.0571 21.2317 44.0078 20.1826 42.7136 20.1826C41.4193 20.1826 40.3701 21.2317 40.3701 22.5258C40.3701 23.82 41.4193 24.8691 42.7136 24.8691Z" fill="white"/>
<path d="M43.892 22.5266C43.892 21.8758 43.3646 21.3474 42.7138 21.347C42.0627 21.347 41.5341 21.8755 41.5341 22.5266C41.5346 23.1773 42.063 23.7046 42.7138 23.7046C43.3643 23.7042 43.8916 23.177 43.892 22.5266ZM46.2211 22.5266C46.2207 24.4632 44.6507 26.033 42.7138 26.0334C40.7767 26.0334 39.2055 24.4634 39.2051 22.5266C39.2051 20.5894 40.7764 19.0182 42.7138 19.0182C44.6509 19.0186 46.2211 20.5896 46.2211 22.5266Z" fill="#1A1A1A"/>
<path d="M37.279 29.5267C38.1445 29.5267 38.8461 28.8251 38.8461 27.9597C38.8461 27.0943 38.1445 26.3928 37.279 26.3928C36.4135 26.3928 35.7119 27.0943 35.7119 27.9597C35.7119 28.8251 36.4135 29.5267 37.279 29.5267Z" fill="white"/>
<path d="M37.6811 27.9605C37.6811 27.7384 37.5013 27.5576 37.2793 27.5572C37.0569 27.5572 36.8759 27.7382 36.8759 27.9605C36.8763 28.1825 37.0572 28.3623 37.2793 28.3623C37.501 28.3619 37.6807 28.1822 37.6811 27.9605ZM40.0102 27.9605C40.0098 29.4684 38.7873 30.6907 37.2793 30.6911C35.7709 30.6911 34.5473 29.4687 34.5469 27.9605C34.5469 26.452 35.7706 25.2284 37.2793 25.2284C38.7876 25.2288 40.0102 26.4523 40.0102 27.9605Z" fill="#1A1A1A"/>
<path d="M64.4332 13.1392C64.0803 13.1392 63.75 13.0306 63.4426 12.8147C63.1352 12.5974 62.9814 12.245 62.9814 11.7559C62.9814 11.3802 63.0783 11.0774 63.2718 10.8508C63.4654 10.6117 63.6875 10.4347 63.9379 10.3213C64.1999 10.2064 64.4219 10.1506 64.604 10.1506C64.7976 10.1506 65.0139 10.1955 65.2531 10.2871C65.5037 10.3663 65.72 10.52 65.9021 10.7482C66.0844 10.964 66.1754 11.2777 66.1754 11.6876C66.1754 12.085 66.0046 12.4265 65.663 12.7122C65.3329 12.9963 64.9229 13.1392 64.4332 13.1392Z" fill="#1A1A1A"/>
<path d="M58.2223 13.1392C57.8694 13.1392 57.5391 13.0306 57.2317 12.8147C56.9242 12.5974 56.7705 12.245 56.7705 11.7559C56.7705 11.3802 56.8674 11.0774 57.0609 10.8508C57.2545 10.6117 57.4765 10.4347 57.727 10.3213C57.9889 10.2064 58.211 10.1506 58.3931 10.1506C58.5867 10.1506 58.803 10.1955 59.0421 10.2871C59.2927 10.3663 59.509 10.52 59.6912 10.7482C59.8734 10.964 59.9644 11.2777 59.9644 11.6876C59.9644 12.085 59.7936 12.4265 59.452 12.7122C59.1219 12.9963 58.712 13.1392 58.2223 13.1392Z" fill="#1A1A1A"/>
<path d="M52.0113 13.1392C51.6584 13.1392 51.3282 13.0306 51.0207 12.8147C50.7133 12.5974 50.5596 12.245 50.5596 11.7559C50.5596 11.3802 50.6565 11.0774 50.8499 10.8508C51.0436 10.6117 51.2656 10.4347 51.516 10.3213C51.778 10.2064 52 10.1506 52.1821 10.1506C52.3758 10.1506 52.5921 10.1955 52.8312 10.2871C53.0818 10.3663 53.2981 10.52 53.4802 10.7482C53.6625 10.964 53.7535 11.2777 53.7535 11.6876C53.7535 12.085 53.5827 12.4265 53.2411 12.7122C52.911 12.9963 52.5011 13.1392 52.0113 13.1392Z" fill="#1A1A1A"/>
</svg>
