<svg width="75" height="86" viewBox="0 0 75 86" fill="none" xmlns="http://www.w3.org/2000/svg">
<path d="M67.1107 82.7243C53.8279 79.293 18.7571 61.655 3.10498 48.4576C3.10498 48.4576 14.3848 44.4986 29.1566 40.8344C43.9283 37.1546 54.7378 34.158 54.7378 34.158C60.4126 43.2564 67.3311 66.7476 70.025 79.7121C70.4147 81.6063 68.9707 83.2056 67.1107 82.7243Z" fill="#FFE8A3"/>
<path d="M55.7263 33.5424C58.6476 38.2263 61.8326 46.4979 64.6085 55.1291C67.0466 62.7102 69.1993 70.6662 70.6082 76.9099L71.1647 79.4754L71.1662 79.4769C71.4322 80.7697 71.0814 82.0366 70.258 82.9082C69.42 83.7949 68.1572 84.1975 66.8191 83.8513L65.4864 83.4828C58.5159 81.4314 47.0768 76.3736 35.4557 70.2855C23.0479 63.7852 10.2785 56.0289 2.3546 49.3477L0.795898 48.0346L2.72001 47.3584H2.72153C2.72307 47.3578 2.72619 47.3563 2.72911 47.3553C2.73492 47.3533 2.74389 47.3501 2.75488 47.3462C2.77732 47.3384 2.81012 47.3264 2.85344 47.3114C2.9411 47.281 3.07144 47.2362 3.2416 47.1779C3.58187 47.0615 4.08322 46.8913 4.73055 46.6761C6.02548 46.2454 7.90516 45.6346 10.2466 44.9081C14.9285 43.4555 21.463 41.543 28.8752 39.7044C36.2537 37.8663 42.6426 36.1983 47.1868 34.9904C49.4585 34.3866 51.2697 33.8985 52.5119 33.5606C53.1327 33.3917 53.6121 33.2598 53.9356 33.1709C54.0972 33.1265 54.2202 33.092 54.3026 33.0693C54.3437 33.0579 54.3759 33.0508 54.3966 33.045C54.4067 33.0422 54.4142 33.0389 54.4193 33.0375C54.4218 33.0368 54.4241 33.0363 54.4254 33.0359H54.4269L55.2654 32.804L55.7263 33.5424ZM53.1244 35.8076C51.8783 36.1466 50.0625 36.6368 47.7857 37.242C43.2324 38.4523 36.8306 40.122 29.4377 41.9636V41.9651C22.0786 43.7905 15.5872 45.6895 10.9365 47.1324C8.61275 47.8534 6.74902 48.459 5.46744 48.8852C13.2645 55.0996 25.0003 62.1781 36.5368 68.2218C48.9096 74.7038 60.8978 79.9164 67.4014 81.5966H67.4029C67.9247 81.7316 68.3143 81.5747 68.5658 81.3085C68.8312 81.0274 69.0072 80.5485 68.8843 79.9485C67.5468 73.512 65.155 64.4384 62.3902 55.8417C59.7632 47.6734 56.834 40.0492 54.1934 35.5135C53.9054 35.5923 53.5481 35.6924 53.1244 35.8076Z" fill="#1A1A1A"/>
<path d="M49.6181 58.9979L45.0259 60.1492L47.5073 70.0474L52.0996 68.8961L49.6181 58.9979Z" fill="#FFCD29"/>
<path d="M23.3403 43.4806L18.6313 43.9705L19.8912 56.0822L24.6001 55.5924L23.3403 43.4806Z" fill="#FFCD29"/>
<path d="M31.5906 50.6956L28.5713 54.3423L37.9508 62.1081L40.9701 58.4614L31.5906 50.6956Z" fill="#FFCD29"/>
<path d="M48.1001 32.6097L43.4736 33.6147L46.0586 45.5143L50.6851 44.5093L48.1001 32.6097Z" fill="#FFCD29"/>
<path d="M41.5947 45.8551L37.3623 47.9766L40.3456 53.9284L44.578 51.8069L41.5947 45.8551Z" fill="#FFCD29"/>
<path d="M56.8673 46.0193L52.2383 45.0264L49.6844 56.9327L54.3135 57.9256L56.8673 46.0193Z" fill="#FFCD29"/>
<path d="M31.0197 31.7358C25.1617 33.3971 9.98003 39.5922 3.10498 43.1322L8.0998 53.0691C15.8676 49.5601 30.1021 44.2191 32.5724 43.5204C34.9758 42.8372 48.5924 39.0488 55.6321 37.0925C55.9985 36.9993 56.3183 36.7663 56.4907 36.4247C57.0776 35.2603 57.7126 33.2729 57.253 31.7358C56.7996 30.1987 55.5964 28.9255 54.744 28.2579C54.4723 28.0405 54.1229 27.963 53.7782 28.0096C48.2198 28.6151 36.6915 30.121 31.0197 31.7358Z" fill="#D4693B"/>
<path d="M53.6523 26.8532C54.2541 26.7789 54.9164 26.9117 55.4611 27.343L55.4626 27.3415C56.4107 28.0842 57.819 29.5413 58.3693 31.402L58.4663 31.7901C58.6545 32.6996 58.5753 33.6409 58.4042 34.4587C58.2058 35.4061 57.8628 36.2895 57.5308 36.9484L56.0979 36.2266L56.4907 36.4253L57.5308 36.9484V36.9499L57.3898 37.191C57.039 37.7214 56.5054 38.0625 55.9433 38.2114L55.9448 38.2144C48.9025 40.1715 35.2895 43.9583 32.8904 44.6403L32.3081 44.8207C28.7522 45.9746 15.8379 50.8514 8.57893 54.1304C8.01012 54.387 7.34001 54.1497 7.05966 53.5922L2.06516 43.6547C1.77859 43.0844 2.00438 42.3901 2.57158 42.0975C9.49786 38.5312 24.7511 32.3026 30.7009 30.615C36.472 28.972 48.0663 27.4624 53.6219 26.8563C53.6318 26.8549 53.6423 26.8529 53.6523 26.8517V26.8532ZM53.7781 28.0101L53.9343 29.164C53.9244 29.1653 53.9138 29.166 53.9039 29.167C48.3305 29.7742 36.9008 31.2727 31.3392 32.856H31.3377C25.8451 34.4137 11.8804 40.0793 4.66854 43.6502L8.6411 51.5528C16.5991 48.0431 29.8126 43.0903 32.255 42.3993C34.6653 41.7142 48.2839 37.9258 55.3201 35.9704L55.3459 35.9643C55.4227 35.9447 55.4462 35.9084 55.4505 35.9007L55.6431 35.4882C55.8329 35.0466 56.0121 34.5219 56.1252 33.9811C56.2789 33.247 56.2903 32.5805 56.1374 32.0691L56.1359 32.0646C55.7785 30.8538 54.7826 29.7667 54.0268 29.1746L54.7788 28.2133L54.7439 28.2573L54.0268 29.1746L54.0161 29.167C54.0146 29.1664 54.0119 29.1663 54.0086 29.1655C53.996 29.1624 53.9709 29.159 53.9343 29.164L53.7781 28.0086V28.0101Z" fill="#1A1A1A"/>
<path d="M8.83125 47.1378C9.75352 50.2431 8.90577 52.8981 7.05193 53.4105C5.19809 53.9229 2.58966 52.1994 1.66895 49.0941C0.746689 45.9889 1.50283 43.07 3.35667 42.5576C5.21051 42.0452 7.91054 44.0325 8.83125 47.1378Z" fill="#864E37"/>
<path d="M3.04671 41.4357C4.47943 41.0399 6.00036 41.642 7.1724 42.5835C8.38047 43.5541 9.41997 45.0289 9.94712 46.8063C10.4579 48.5262 10.5046 50.2001 10.1003 51.5748C9.69611 52.9483 8.79076 54.1381 7.36193 54.533C5.97616 54.916 4.49053 54.4325 3.3075 53.5384C2.10164 52.6269 1.08036 51.2059 0.552489 49.4263L0.38267 48.7819C0.0333956 47.282 0.0231672 45.8065 0.344764 44.5622C0.706054 43.1645 1.5615 41.8462 3.04671 41.4357ZM5.71378 44.3985C4.84269 43.6989 4.08769 43.5636 3.66685 43.6798C3.29835 43.7816 2.84914 44.1788 2.59942 45.1445C2.35602 46.0862 2.37237 47.3746 2.7844 48.7622L2.78591 48.7637C3.17885 50.0885 3.92156 51.0813 4.71306 51.6795C5.52782 52.2952 6.27375 52.4168 6.74179 52.2875C7.16661 52.1699 7.61277 51.7762 7.86532 50.9183C8.11752 50.0612 8.12658 48.8539 7.71522 47.4689C7.3216 46.1413 6.5492 45.0697 5.71378 44.3985Z" fill="#1A1A1A"/>
<path d="M56.8182 74.3087C57.278 74.758 58.0153 74.7502 58.4648 74.2905C58.9142 73.8306 58.9049 73.0934 58.4451 72.6439L55.3626 69.6296C54.91 69.1871 54.1867 69.1871 53.7341 69.6296L50.6516 72.6439L50.5713 72.7318C50.1932 73.1849 50.212 73.8594 50.6334 74.2905C51.055 74.7215 51.7291 74.7555 52.1906 74.3875L52.2801 74.3087L54.5484 72.0904L56.8182 74.3087Z" fill="#1A1A1A"/>
<path d="M60.5522 66.7554C61.4224 66.7555 62.1274 67.4331 62.1274 68.2691C62.1273 69.105 61.4224 69.7826 60.5522 69.7827C59.6818 69.7827 58.976 69.1051 58.976 68.2691C58.976 67.433 59.6818 66.7554 60.5522 66.7554ZM62.1713 62.6987C62.8152 62.3709 63.5894 62.4854 63.8998 62.9536C64.2098 63.4217 63.9406 64.067 63.2973 64.395L63.2934 64.396C63.2923 64.3966 63.2912 64.398 63.2895 64.3989C63.2845 64.4014 63.2755 64.4048 63.266 64.4097C63.2468 64.4194 63.2189 64.4344 63.183 64.4526C63.1103 64.4896 63.0052 64.5431 62.8754 64.6089C62.6154 64.7407 62.2551 64.923 61.8568 65.1235C61.0645 65.5224 60.1026 66.0026 59.4711 66.3052L59.3481 66.3579C58.7246 66.5994 58.036 66.4538 57.7641 66.0054C57.474 65.5271 57.7681 64.8849 58.4213 64.5718L59.5102 64.0396C59.9173 63.8373 60.3495 63.6203 60.7465 63.4204C61.1411 63.2218 61.4983 63.0414 61.7563 62.9107L62.144 62.7134C62.1532 62.7087 62.1607 62.705 62.1654 62.7026C62.1672 62.7017 62.1683 62.7003 62.1693 62.6997L62.1713 62.6987Z" fill="#1A1A1A"/>
<path d="M48.1558 66.7548C47.2856 66.7548 46.5799 67.4326 46.5797 68.2685C46.5797 69.1045 47.2855 69.7831 48.1558 69.7831C49.0261 69.783 49.731 69.1045 49.731 68.2685C49.7308 67.4327 49.0259 66.755 48.1558 66.7548ZM46.5357 62.6991C45.892 62.3714 45.1187 62.4852 44.8082 62.9531C44.4979 63.4212 44.7671 64.0665 45.4107 64.3945L45.4136 64.3954C45.4148 64.396 45.4165 64.3983 45.4185 64.3993C45.4235 64.4018 45.4318 64.4054 45.441 64.4101C45.4602 64.4198 45.489 64.4338 45.525 64.4521C45.5977 64.489 45.7028 64.5435 45.8326 64.6093C46.0926 64.7411 46.4529 64.9225 46.8511 65.123C47.6434 65.5218 48.6045 66.002 49.2359 66.3046L49.359 66.3573C49.9822 66.5988 50.6707 66.4538 50.9429 66.0058C51.233 65.5275 50.939 64.8853 50.2857 64.5722L49.1968 64.039C48.7897 63.8368 48.3575 63.6207 47.9605 63.4208C47.5661 63.2222 47.2096 63.0418 46.9517 62.9111L46.564 62.7128C46.5548 62.7081 46.5473 62.7045 46.5425 62.7021C46.5405 62.701 46.5388 62.6997 46.5377 62.6991H46.5357Z" fill="#1A1A1A"/>
</svg>
