<svg width="75" height="86" viewBox="0 0 75 86" fill="none" xmlns="http://www.w3.org/2000/svg">
<path d="M21.1665 12.3474C27.506 18.4163 27.0481 26.7737 26.027 33.9293C25.8226 35.3623 24.3453 36.5672 22.8977 36.5641C21.0059 36.5594 20.1407 34.8158 20.248 32.9279C20.3826 30.5556 20.3531 27.9846 20.3019 25.617C19.9325 19.5667 19.3124 17.373 18.5798 16.4679C17.7253 15.4137 16.0094 15.1684 14.7907 15.7677C13.5571 16.3732 13.2072 17.8031 13.2944 18.7952C13.3083 18.9535 13.3658 19.1103 13.4364 19.2531C17.7314 27.8868 8.65196 28.2113 6.52159 24.965C4.28642 22.1626 6.79719 19.7779 8.69176 18.7268C9.37511 18.3465 9.86464 17.6106 9.8562 16.8296C9.815 13.0197 11.6887 11.1348 13.8051 10.3073C16.3506 9.3137 19.1926 10.4564 21.1665 12.3474Z" fill="#B3EE71"/>
<path d="M13.3815 9.22229C16.5156 7.99913 19.822 9.44861 21.9699 11.5056C28.7718 18.0171 28.1999 26.9454 27.1799 34.0933C27.0293 35.1492 26.4255 36.0537 25.6742 36.6799C25.0167 37.2279 24.177 37.621 23.2815 37.7094L22.8948 37.7291L22.6431 37.72C21.4039 37.6417 20.4491 37.0078 19.8486 36.0886C19.2383 35.1545 19.0208 33.9819 19.0843 32.8622C19.2153 30.5541 19.1895 28.0398 19.1389 25.6878C18.9555 22.6843 18.7132 20.6869 18.4369 19.3487C18.1559 17.9882 17.8635 17.4342 17.6742 17.2003L18.5794 16.468L19.4846 15.7342C20.0278 16.4054 20.4128 17.4022 20.7174 18.8772C20.988 20.1875 21.2137 21.9782 21.3906 24.446L21.4665 25.5922C21.5177 27.9623 21.5478 30.5728 21.4104 32.9941C21.3667 33.7618 21.5289 34.4043 21.797 34.815C22.035 35.1793 22.3698 35.3972 22.8994 35.3988C23.3081 35.3996 23.782 35.2243 24.1822 34.8908C24.5825 34.5572 24.8198 34.1414 24.8736 33.7643C25.8638 26.825 26.2154 19.3006 20.8933 13.7222L20.3611 13.1886L20.0169 12.8762C18.2657 11.3662 16.0616 10.6745 14.2276 11.3904C13.3413 11.737 12.55 12.2882 11.9789 13.1127C11.4104 13.9335 11.0022 15.1114 11.0206 16.8167C11.0343 18.0857 10.257 19.1878 9.25708 19.7444L8.93562 19.9339C8.18909 20.4001 7.46267 21.0417 7.08116 21.7442C6.87384 22.1262 6.78262 22.498 6.81126 22.8662C6.83975 23.2308 6.99333 23.6889 7.43143 24.2383L6.51103 24.9706L7.49512 24.3263C7.82425 24.8277 8.50402 25.2889 9.40719 25.5316C10.2999 25.7714 11.246 25.75 11.9774 25.474C12.6698 25.2125 13.1541 24.7388 13.3329 23.9775C13.5262 23.1541 13.4051 21.8066 12.3928 19.7717L12.3913 19.7687L13.436 19.2532L13.6347 19.1546L12.3913 19.7687C12.3138 19.6119 12.2257 19.4015 12.173 19.1546L12.1335 18.8969C12.0258 17.6714 12.426 15.6317 14.2761 14.7229L14.5884 14.5865C16.1856 13.964 18.3101 14.2852 19.4846 15.7342L17.6742 17.2003C17.2177 16.6381 16.1196 16.4113 15.3042 16.8122L15.1919 16.8759C14.6569 17.2144 14.3962 17.9673 14.452 18.6725C14.4558 18.6838 14.463 18.7044 14.4778 18.7347C15.6127 21.0161 15.9689 22.9471 15.6013 24.5112C15.2192 26.1372 14.1056 27.1612 12.7992 27.6542C11.5315 28.1326 10.0765 28.1225 8.80218 27.7801C7.55917 27.446 6.32824 26.7472 5.58759 25.6574C4.92482 24.816 4.55927 23.9386 4.48978 23.0466C4.41978 22.1469 4.65651 21.3302 5.03414 20.6344C5.76832 19.282 7.08383 18.2864 8.12591 17.7082C8.49176 17.504 8.69455 17.135 8.69149 16.8425C8.66874 14.7383 9.17673 13.0685 10.0638 11.7876C10.9481 10.5108 12.1517 9.70313 13.3815 9.22229ZM7.46479 24.2808L7.49512 24.3263L6.52164 24.9646L7.43143 24.2383L7.46479 24.2808Z" fill="#1A1A1A"/>
<path d="M9.66877 24.482C11.1904 23.3922 11.4412 22.3737 11.4832 21.4732C11.4959 21.2 11.8122 21.0696 11.9879 21.2792C13.9514 23.6157 12.6926 25.5502 9.76692 25.0363C9.49917 24.9897 9.44771 24.6404 9.66877 24.482Z" fill="#78B136"/>
</svg>
