<svg width="75" height="86" viewBox="0 0 75 86" fill="none" xmlns="http://www.w3.org/2000/svg">
<path d="M37.697 76.137C36.9843 78.0932 35.8209 80.3976 34.3036 82.0292C33.3992 83.0008 32.4287 83.6695 31.4152 83.9411C30.4332 84.205 29.2952 84.1308 27.9581 83.4059C25.0508 81.8315 22.6418 79.1441 20.803 76.3478C19.5927 74.5064 18.6551 72.6568 18.001 71.1243L37.697 76.137Z" fill="#9747FF"/>
<path d="M54.5742 67.126C55.5083 69.0031 56.4157 71.4225 56.6242 73.5155C56.7462 74.7405 56.6137 75.7117 56.2451 76.3933C55.9042 77.0233 55.2709 77.574 54.0178 77.7882C51.2368 78.2648 47.9743 77.6456 44.9552 76.6116C43.0141 75.9471 41.2219 75.1283 39.7939 74.3721L54.5742 67.126Z" fill="#9747FF"/>
<path d="M24.3237 29.7582C27.1565 27.7057 30.6739 26.5413 34.716 27.8114C41.8129 30.0395 46.4283 35.334 48.576 38.8754L19.1624 35.3744C20.3214 33.53 22.0881 31.3791 24.3237 29.7582Z" fill="#9747FF"/>
<path fill-rule="evenodd" clip-rule="evenodd" d="M60.7372 62.3847C51.7363 72.393 41.8316 78.4281 27.9441 78.4281C17.0279 78.4281 0 74.2841 0 55.4522C0 36.6219 14.4595 32.4764 29.8705 32.4764C42.4333 32.4764 51.4202 39.8467 61.0847 47.9841L64.1639 44.8974C65.4189 43.6383 67.1263 42.7114 68.8072 43.2874C71.5201 44.2174 74.5262 47.1301 74.5262 54.3002C74.5262 60.5573 72.5025 64.2138 70.3938 66.1639C68.6212 67.8034 66.025 67.0612 64.2162 65.462L60.7372 62.3847Z" fill="#D9B8FF"/>
<path fill-rule="evenodd" clip-rule="evenodd" d="M23.6412 28.8148C26.6845 26.6099 30.5799 25.2906 35.0646 26.6997C42.518 29.0397 47.3327 34.578 49.572 38.2701C49.6637 38.4212 49.9127 38.8941 50.1664 39.4315C53.8622 41.934 57.4257 44.9037 61.0848 47.9847L64.1643 44.8991C65.4193 43.6399 67.1262 42.7128 68.8071 43.2889C71.5199 44.219 74.5263 47.1315 74.5263 54.3013L74.5203 54.8805C74.3994 60.7842 72.4369 64.2752 70.3946 66.1644C68.6221 67.8034 66.0245 67.0613 64.2159 65.4624L60.7376 62.3859C59.1666 64.1327 57.5645 65.7547 55.922 67.2485C56.7767 69.0879 57.5783 71.3526 57.7825 73.4014L57.8204 73.8972C57.8791 75.0438 57.729 76.0989 57.27 76.9479L57.2685 76.9464C56.7377 77.9276 55.7761 78.6686 54.2132 78.9357L54.2147 78.9372C51.3437 79.4292 48.1039 78.8544 45.1613 77.9077L44.5775 77.7136C43.348 77.2927 42.1794 76.81 41.119 76.3217C40.2865 76.6078 39.4389 76.8655 38.5747 77.095C37.8209 79.0073 36.6704 81.1945 35.1571 82.8218L34.775 83.2115C33.9991 83.9658 33.1374 84.567 32.1944 84.9142L31.7167 85.0659C30.4232 85.4134 28.9786 85.2841 27.4015 84.429C24.5425 82.8801 22.1852 80.3699 20.3571 77.7606C10.7392 76.0291 0.418606 70.4974 0.0121299 56.3255L0 55.4537C0 41.1362 8.3601 35.3118 19.141 33.3408C20.2988 31.7765 21.8182 30.1366 23.6412 28.8148ZM35.7469 77.7303C33.2859 78.1873 30.6936 78.4293 27.9443 78.4293L26.9042 78.4172C25.8544 78.3921 24.7582 78.3251 23.6337 78.214C25.0563 79.9149 26.6918 81.3966 28.5114 82.3821L28.9117 82.5792C29.815 82.9789 30.5269 82.9733 31.1133 82.8158L31.3908 82.7278C31.9518 82.5207 32.5426 82.1332 33.1481 81.5452L33.4513 81.2343C34.3502 80.2676 35.1242 79.0099 35.7469 77.7303ZM54.0843 68.8482C50.9972 71.4157 47.7429 73.524 44.2151 75.1011C44.5808 75.2425 44.9535 75.3807 45.3326 75.5105L46.4395 75.8668C49.029 76.642 51.6333 77.0163 53.8205 76.6416C54.3144 76.5572 54.6236 76.4175 54.8182 76.2853C55.0073 76.1566 55.1312 76.0064 55.2215 75.8395L55.2973 75.6773C55.4413 75.3234 55.5336 74.787 55.496 74.0291L55.4656 73.6319C55.3167 72.1375 54.7572 70.4065 54.0843 68.8482ZM29.87 34.807C22.2866 34.807 15.3517 35.844 10.3711 38.8902C5.60173 41.8093 2.32895 46.7517 2.32895 55.4537C2.32928 64.0063 6.1185 69.0162 11.0807 72.0095C16.1987 75.096 22.7093 76.1003 27.9443 76.1003C40.9864 76.1003 50.3065 70.5013 59.0061 60.8287L59.1729 60.6604C60.0414 59.8715 61.3817 59.8477 62.2796 60.6423L65.7594 63.7187C66.41 64.2942 67.1222 64.6354 67.6972 64.73C68.2128 64.8152 68.5431 64.7052 68.8131 64.4556C70.3624 63.0225 72.1972 60.0312 72.1974 54.3013C72.1974 51.0351 71.5122 48.973 70.7099 47.692C69.9193 46.4299 68.9336 45.7948 68.052 45.492C67.8476 45.4222 67.5845 45.4113 67.1907 45.5678C66.7705 45.7355 66.2858 46.0677 65.8125 46.5427L62.733 49.6298L62.5677 49.7814C61.71 50.4905 60.4529 50.4961 59.5853 49.7662C49.8225 41.5466 41.4599 34.807 29.87 34.807ZM34.3656 28.921C30.7671 27.7906 27.6292 28.8014 25.0074 30.701L25.0059 30.6995C24.1229 31.3397 23.3161 32.0743 22.595 32.8404C24.9587 32.5845 27.4021 32.4781 29.87 32.4781L31.0375 32.4993C36.3971 32.6964 41.1064 34.246 45.5161 36.6038C43.1903 33.8026 39.6789 30.7597 34.9918 29.1287L34.3656 28.921Z" fill="#1A1A1A"/>
<path d="M30.6746 55.1829L32.3663 53.4863C32.9729 52.8785 34.3953 51.6862 35.3502 52.4112C36.0922 52.9745 36.9516 54.2237 36.9516 56.9629C36.9516 59.1255 36.4781 60.591 35.9092 61.5555C35.5679 62.1334 35.0629 62.3457 34.3661 62.2762C33.6055 62.2003 32.6929 61.7712 31.924 61.0916L30.9508 60.2302C30.4692 59.804 29.7332 59.8489 29.307 60.3305C28.8808 60.8121 28.9257 61.5481 29.4073 61.9743L30.3814 62.8364C31.4212 63.7557 32.7748 64.4579 34.1349 64.5936C35.5587 64.7356 37.0291 64.2397 37.9151 62.7389C38.7292 61.3589 39.2805 59.4704 39.2805 56.9629C39.2805 53.7183 38.2375 51.6791 36.7584 50.5562C35.659 49.7215 34.4112 49.7377 33.3607 50.0976C32.342 50.4466 31.4206 51.1369 30.7175 51.8415L29.0254 53.5385C28.5713 53.9939 28.5724 54.7312 29.0278 55.1853C29.4832 55.6394 30.2205 55.6383 30.6746 55.1829Z" fill="#1A1A1A"/>
<path d="M17.3741 56.5795C17.5687 56.1499 18.0361 55.978 18.418 56.1967C18.4188 56.1972 18.4207 56.1983 18.4229 56.1996C18.4278 56.2024 18.4365 56.2073 18.4473 56.2133C18.4689 56.2252 18.5017 56.2423 18.543 56.2641C18.6265 56.308 18.744 56.3686 18.878 56.4301C19.1644 56.5615 19.4587 56.6685 19.6573 56.6947C19.8473 56.7197 20.1432 56.6961 20.4375 56.6498C20.5751 56.6282 20.6972 56.6048 20.7842 56.5863C20.8273 56.5772 20.8621 56.5691 20.8848 56.5639C20.8955 56.5614 20.9041 56.5583 20.9092 56.557C20.9116 56.5565 20.9141 56.5572 20.9151 56.557C21.3337 56.4529 21.7482 56.7502 21.8409 57.2211C21.9331 57.6918 21.6685 58.157 21.25 58.2611L21.2461 58.2631C21.2436 58.2637 21.2394 58.265 21.2354 58.266L21.0723 58.3022C20.9672 58.3245 20.8206 58.354 20.6534 58.3803C20.337 58.43 19.8743 58.4818 19.4756 58.4291C19.0571 58.3737 18.6009 58.188 18.292 58.0463C18.1287 57.9714 17.986 57.9004 17.8848 57.8471C17.8344 57.8205 17.7928 57.7977 17.7637 57.7816C17.7494 57.7737 17.7369 57.7668 17.7285 57.7621C17.7248 57.76 17.7212 57.7585 17.7188 57.7572L17.7139 57.7533L17.5811 57.6586C17.2987 57.4057 17.2044 56.9555 17.3741 56.5795ZM19.9727 52.5893C20.8301 52.5893 21.5254 53.3717 21.5254 54.3363C21.5252 55.3008 20.83 56.0824 19.9727 56.0824C19.1153 56.0824 18.4202 55.3008 18.42 54.3363C18.42 53.3717 19.1152 52.5893 19.9727 52.5893Z" fill="#1A1A1A"/>
<path d="M10.1501 56.5794C9.95549 56.1498 9.48719 55.9778 9.10518 56.1966C9.10438 56.1973 9.10308 56.1985 9.10128 56.1996C9.09638 56.2023 9.08763 56.2073 9.07686 56.2132C9.05531 56.2251 9.02248 56.2422 8.98116 56.264C8.89771 56.308 8.78014 56.3686 8.6462 56.43C8.35967 56.5614 8.06547 56.6684 7.8669 56.6947C7.67696 56.7197 7.38104 56.696 7.08663 56.6497C6.94911 56.6281 6.827 56.6048 6.73995 56.5863C6.69661 56.5771 6.66104 56.5691 6.63839 56.5638C6.62788 56.5613 6.62003 56.5582 6.61495 56.557C6.61267 56.5565 6.61019 56.5571 6.60909 56.557C6.19048 56.4528 5.77496 56.7501 5.68233 57.221C5.59014 57.6917 5.85573 58.1569 6.27413 58.2611L6.27803 58.263C6.28052 58.2636 6.28479 58.265 6.28878 58.266L6.45089 58.3021C6.55608 58.3244 6.70325 58.3539 6.87081 58.3802C7.18722 58.4299 7.64981 58.4818 8.04854 58.429C8.46708 58.3736 8.92324 58.1879 9.23214 58.0462C9.39558 57.9713 9.5381 57.9004 9.63936 57.847C9.68977 57.8205 9.7314 57.7976 9.76046 57.7816C9.77482 57.7737 9.78731 57.7667 9.79561 57.7621C9.79941 57.7599 9.80297 57.7585 9.80538 57.7572L9.81026 57.7533L9.9421 57.6585C10.2245 57.4057 10.3198 56.9555 10.1501 56.5794ZM7.55147 52.5892C6.69397 52.5892 5.99874 53.3716 5.99874 54.3363C5.99891 55.3008 6.69408 56.0824 7.55147 56.0824C8.40879 56.0823 9.10403 55.3007 9.10421 54.3363C9.10421 53.3716 8.4089 52.5893 7.55147 52.5892Z" fill="#1A1A1A"/>
<path d="M17.4209 61.6863H10.4209L13.9209 56.4363L17.4209 61.6863Z" fill="#FFAFA3"/>
<path d="M17.4216 62.8508C17.8508 62.8506 18.2455 62.6137 18.4481 62.2352C18.6503 61.8568 18.6284 61.3975 18.3904 61.0404L14.8894 55.7897C14.6734 55.4662 14.3096 55.2711 13.9206 55.2711C13.5315 55.2713 13.1676 55.466 12.9517 55.7897L9.4522 61.0404C9.21406 61.3976 9.19216 61.8566 9.39458 62.2352C9.59722 62.6138 9.99163 62.8508 10.4211 62.8508H17.4216ZM13.9206 58.5371L15.2458 60.5219H12.5969L13.9206 58.5371Z" fill="#1A1A1A"/>
<path d="M43.4737 55.5517C43.4735 49.8546 40.597 45.8266 39.3131 44.6378C38.6844 44.0551 38.6473 43.0728 39.2297 42.4438C39.8124 41.815 40.7947 41.7779 41.4237 42.3604C43.2451 44.0473 46.5788 48.866 46.5789 55.5517C46.5789 62.2394 43.2452 67.0592 41.4237 68.746C40.7946 69.3286 39.8123 69.2903 39.2297 68.6611C38.6472 68.0319 38.684 67.0497 39.3131 66.4671C40.597 65.2782 43.4737 61.2506 43.4737 55.5517Z" fill="#9747FF"/>
<path d="M51.2367 55.5517C51.2366 51.3612 49.4514 48.4451 48.7274 47.649C48.1504 47.0148 48.1964 46.0336 48.8305 45.4565C49.4647 44.8796 50.4459 44.9256 51.023 45.5596C52.2398 46.8972 54.3419 50.5484 54.342 55.5517C54.342 60.5552 52.2404 64.2066 51.0245 65.5452C50.4479 66.1799 49.4652 66.2279 48.8305 65.6514C48.1958 65.0748 48.1493 64.092 48.7259 63.4574C49.4508 62.6593 51.2367 59.7425 51.2367 55.5517Z" fill="#9747FF"/>
</svg>
