<svg width="75" height="86" viewBox="0 0 75 86" fill="none" xmlns="http://www.w3.org/2000/svg">
<path d="M30.5644 39.9713C37.3053 42.061 42.835 41.558 45.6986 41.558C48.4654 41.558 56.764 40.3424 60.0669 38.5492C60.5563 38.2837 60.7694 37.7201 60.6473 37.1767C58.8052 28.9777 50.3032 23.255 43.9545 23.876C38.1026 24.4474 30.1177 28.9389 29.5436 38.5181C29.5039 39.1795 29.9316 39.7756 30.5644 39.9713Z" fill="#4D49FC" stroke="#385ED9" stroke-width="2.74597" stroke-linecap="round"/>
<path d="M30.5942 40.0908C34.9178 41.4214 36.0155 41.3919 38.7219 41.3919C39.4189 33.9816 40.3468 29.7012 44.176 23.8295C38.5243 24.3573 30.2106 29.726 29.5517 38.6159C29.5017 39.2881 29.9486 39.8921 30.5942 40.0908Z" fill="#F24822"/>
<path d="M60.0521 38.1361C57.2897 39.7849 54.0911 40.6684 50.8805 40.6684C49.988 33.8077 48.4847 29.9822 44.6416 23.8295C50.2782 24.3791 59.3557 30.4914 60.6909 36.7358C60.8093 37.29 60.539 37.8442 60.0521 38.1361Z" fill="#FFCD29"/>
<path d="M43.8515 22.215C47.4188 21.867 51.5393 23.4508 54.954 26.0873C58.388 28.7388 61.2868 32.5897 62.296 37.0294C62.5194 38.0125 62.1441 39.1328 61.1391 39.6812L61.1376 39.6827L60.7752 39.8692C58.8858 40.7939 55.9115 41.5654 53.142 42.1131C50.1667 42.7015 47.1986 43.0743 45.6984 43.0743C43.0074 43.0743 37.5274 43.5572 30.8673 41.6294L30.2199 41.4354H30.2183C29.0953 41.0854 28.3084 40.0188 28.3806 38.8018C28.9943 28.4781 37.5482 22.8321 43.8515 22.215ZM44.079 24.5333C38.6768 25.062 31.2375 29.984 30.7051 38.9398C30.6989 39.0445 30.7669 39.1659 30.9067 39.2112H30.9083C37.4385 41.2341 42.7488 40.7455 45.6984 40.7455C46.9677 40.7455 49.758 40.4081 52.6902 39.8283C55.6415 39.2446 58.5089 38.4579 60.0215 37.6374L60.0231 37.6359C60.0278 37.6243 60.0353 37.5921 60.0246 37.5449C59.1609 33.7458 56.6379 30.3306 53.5302 27.931C50.403 25.5165 46.861 24.2621 44.079 24.5333Z" fill="#1A1A1A"/>
<path d="M44.8495 24.9467C41.74 28.9539 40.0078 34.1484 39.4529 40.9012L37.9062 40.7738C38.4771 33.8272 40.2725 28.3119 43.6228 23.9945L44.8495 24.9467Z" fill="#BD2915"/>
<path d="M44.8503 23.5909C48.1657 27.8636 50.7935 33.8886 51.5812 40.2308L50.0406 40.4218C49.2873 34.3566 46.7663 28.595 43.6221 24.5431L44.8503 23.5909Z" fill="#EBA611"/>
<path d="M49.5376 14.5153C49.7316 14.5153 49.8986 14.5632 49.9585 14.5807C50.0508 14.6076 50.146 14.6422 50.2368 14.6813C50.4095 14.7557 50.6409 14.8773 50.8521 15.0573C51.0376 15.2155 51.3898 15.5755 51.4312 16.1422C51.4776 16.7852 51.1036 17.2381 50.7808 17.4889L50.5581 17.653C50.0247 18.0206 49.4196 18.2868 48.8765 18.4957C48.56 18.6175 48.2427 18.7278 47.9517 18.8278C47.6532 18.9302 47.3883 19.0204 47.146 19.111H47.1431L46.7378 18.0192L46.6655 17.8268L47.1431 19.111C46.8395 19.2237 46.3878 19.3906 45.9087 19.484C45.6784 19.5289 45.4059 19.5621 45.1138 19.5563C45.2511 19.707 45.352 19.8946 45.395 20.109C45.6294 21.2817 45.5952 22.434 45.5952 23.444C45.5952 24.0871 45.0733 24.609 44.4302 24.609C43.7872 24.6088 43.2661 24.0869 43.2661 23.444C43.2661 22.3309 43.2889 21.4585 43.1108 20.567C43.0754 20.3896 43.0842 20.2137 43.1265 20.0494H38.9575C38.6269 20.0494 38.0192 19.9787 37.48 19.8785C37.201 19.8267 36.9001 19.7608 36.6333 19.6783C36.5001 19.6372 36.3548 19.5857 36.2163 19.5221C36.0934 19.4656 35.8996 19.3643 35.7241 19.1979H35.7222C35.455 18.9437 35.3621 18.6374 35.3355 18.4186C35.3106 18.2134 35.336 18.0384 35.3579 17.9332C35.4008 17.7274 35.482 17.536 35.5249 17.4362C35.5881 17.2892 35.605 17.2562 35.6353 17.1823C35.7207 16.6281 36.1538 16.3618 36.2788 16.2946C36.4612 16.1966 36.6405 16.1546 36.7368 16.1354C36.9506 16.0929 37.195 16.0769 37.4116 16.0709C37.8651 16.0583 38.4456 16.0819 39.0151 16.1198C39.5916 16.1581 40.1888 16.2136 40.6821 16.2731C41.1186 16.3257 41.6156 16.3966 41.895 16.4899C42.2849 16.62 42.6137 16.8153 42.853 16.9645C43.1286 17.1362 43.2666 17.2302 43.4282 17.3112C43.4592 17.3267 43.4882 17.3451 43.5171 17.3629C43.6066 17.2354 43.7012 17.1214 43.7935 17.0221C44.1077 16.684 44.4922 16.3997 44.853 16.1725C45.5735 15.719 46.3775 15.3829 46.8521 15.2301H46.853C47.0222 15.176 47.1891 15.1128 47.3735 15.0406C47.5486 14.9721 47.7598 14.8871 47.9683 14.8131C48.4019 14.6592 48.9189 14.5154 49.5376 14.5153Z" fill="#444444"/>
</svg>
