<svg width="75" height="86" viewBox="0 0 75 86" fill="none" xmlns="http://www.w3.org/2000/svg">
<path d="M50.6186 75.0807C50.8706 75.3027 51.0151 75.621 51.0151 75.9563V83.9198H61.5202C63.7663 79.2029 67.7308 68.2506 67.7308 57.4751C67.7308 43.7635 54.1252 30.354 38.1308 30.354C30.0869 30.354 21.4224 33.0401 14.7907 38.419C8.1879 43.7745 3.57227 51.8163 3.57227 62.6588C3.57227 73.7889 5.88033 78.5927 8.42155 80.7105C10.6286 82.5488 13.2266 82.5985 15.6678 82.5768V76.6473C14.6675 76.7094 13.5433 76.714 12.5439 76.551C10.9308 76.2891 9.26786 75.3859 9.26786 73.5373C9.26786 70.5672 10.657 68.7459 12.3633 67.7321C13.9871 66.7663 15.8215 66.5654 16.8322 66.5654C17.8477 66.5654 20.4628 66.6388 22.7673 69.2055C24.9185 71.6012 26.6244 75.9796 26.7756 83.9198H36.9663V75.9563C36.9663 75.621 37.1115 75.3011 37.3645 75.0791C37.8243 74.6786 38.3395 74.813 38.8703 74.8757C39.2387 74.9207 39.7544 74.9797 40.3428 75.0387C41.5309 75.1583 42.9731 75.2701 44.095 75.2623C45.1822 75.2546 46.5749 75.1412 47.7184 75.0263C48.2853 74.9704 48.782 74.913 49.1368 74.8711C49.6598 74.8069 50.1672 74.6858 50.6186 75.0807Z" fill="#D4583B"/>
<path fill-rule="evenodd" clip-rule="evenodd" d="M38.1312 29.1895C29.8483 29.1895 20.9176 31.9505 14.0576 37.5145C7.19751 43.0787 2.4082 51.446 2.4082 62.6587C2.4082 73.8713 4.71852 79.1399 7.67647 81.605C10.247 83.746 13.2606 83.7626 15.6785 83.7411C16.3176 83.7354 16.8326 83.2158 16.8326 82.5767V76.6472C16.8326 76.3258 16.6998 76.0187 16.4657 75.7986C16.2315 75.5786 15.9168 75.465 15.596 75.4849C14.6329 75.5447 13.6064 75.5443 12.731 75.4015C12.4404 75.3543 12.1624 75.2843 11.9071 75.1939C11.5642 75.0726 11.2621 74.9148 11.025 74.7267C10.646 74.4261 10.4327 74.0578 10.4327 73.5373C10.4327 71.003 11.5837 69.55 12.959 68.7328C14.3346 67.9147 15.9348 67.7298 16.8326 67.7298C17.7319 67.7298 19.9288 67.7866 21.9013 69.9834C23.3423 71.5882 24.6652 74.3376 25.2725 79.0486C25.4581 80.4886 25.5769 82.1119 25.6117 83.9419C25.6238 84.5763 26.1415 85.0842 26.776 85.0842H36.9667C37.6098 85.0842 38.1312 84.5628 38.1312 83.9197V75.9674L38.8651 76.0479L40.227 76.1973C41.4244 76.3178 42.9173 76.4349 44.1038 76.4267C45.9637 76.4134 47.8089 76.183 49.6542 75.9785C49.7537 75.9675 49.8127 75.9653 49.8511 75.9669V83.9197C49.8511 84.5628 50.3724 85.0842 51.0155 85.0842H61.5206C61.9698 85.0842 62.3789 84.8259 62.572 84.4203C64.8599 79.6155 68.8956 68.4863 68.8956 57.475C68.8956 43.0513 54.6975 29.1895 38.1312 29.1895ZM38.1312 31.5184C30.3263 31.5184 21.9281 34.1295 15.5247 39.3233C15.4723 39.3658 15.42 39.4085 15.3679 39.4513C13.8827 40.6719 12.5041 42.0348 11.2649 43.5423C8.38888 47.0413 6.2644 51.3195 5.30446 56.4074C4.93416 58.3701 4.73715 60.4533 4.73715 62.6587C4.73715 73.3652 6.90278 77.771 8.97024 79.6444C9.03602 79.704 9.10171 79.7611 9.16723 79.8157C10.7176 81.1069 12.5079 81.3711 14.5037 81.4093V77.8515C13.7956 77.8537 13.0567 77.8143 12.3569 77.7002C10.2006 77.3499 8.1038 75.978 8.1038 73.5373C8.1038 70.4792 9.41591 68.4017 11.1585 67.1329C11.3568 66.9885 11.5607 66.8546 11.7689 66.7309C13.6407 65.6178 15.7091 65.4008 16.8326 65.4008C17.9642 65.4008 20.9975 65.4909 23.6342 68.4274C25.5524 70.5637 27.0379 73.9646 27.6485 79.2966C27.7624 80.2914 27.8459 81.3534 27.896 82.4869C27.8999 82.5759 27.9037 82.6654 27.9072 82.7552H35.8022V75.9563C35.8022 75.2843 36.0929 74.6459 36.597 74.2037L36.6001 74.201C37.6219 73.3108 39.2327 73.757 40.4598 73.88C41.6385 73.9987 43.0302 74.1051 44.0874 74.0978C45.1179 74.0904 46.4662 73.9818 47.6024 73.8676L47.6046 73.8674C48.8297 73.7466 50.3643 73.3105 51.3858 74.2042L51.3888 74.2069C51.8901 74.6486 52.18 75.2844 52.18 75.9563V82.7552H60.7776C63.017 77.8178 66.5667 67.5391 66.5667 57.475C66.5667 44.4755 53.5537 31.5184 38.1312 31.5184Z" fill="#1A1A1A"/>
<path d="M68.1252 53.0251C67.5693 52.7016 66.8565 52.89 66.533 53.4459C66.2096 54.0018 66.398 54.7146 66.9538 55.038C68.0957 55.7025 72.542 59.4047 70.7657 68.1389C70.7249 68.1791 70.687 68.2223 70.6524 68.2682L70.65 68.2704C70.5551 68.3544 70.431 68.4765 70.3538 68.5524C70.3273 68.5785 70.3063 68.5991 70.294 68.6109L70.2819 68.6224C69.7613 69.118 69.2788 69.6437 68.7403 70.1213C68.406 70.4176 68.0433 71.0196 67.915 71.3341L67.7291 72.117C67.5845 72.7437 67.9752 73.3689 68.6018 73.5136C69.1112 73.6312 69.6946 73.3842 69.9447 72.955C69.8565 73.4103 69.8339 73.4844 69.8096 73.7573C69.7842 74.0439 69.7643 74.3292 69.746 74.6042C69.7034 75.2459 70.189 75.8007 70.8307 75.8434C71.4724 75.886 72.0272 75.4004 72.0698 74.7587C72.0767 74.6563 72.0835 74.5549 72.0907 74.4543C72.3032 74.682 72.606 74.8243 72.9421 74.8243C73.5852 74.8243 74.1065 74.303 74.1065 73.6598C74.1065 73.2838 74.1028 72.7747 73.9796 72.2561C73.9262 72.0325 73.8884 71.7939 73.8478 71.512L73.8306 71.3919C73.7963 71.1508 73.6475 70.5349 73.5298 69.9306C73.4121 69.3263 73.0725 68.4808 73.0725 68.4808C75.0064 58.7332 70.0109 54.1224 68.1252 53.0251Z" fill="#1A1A1A"/>
<path fill-rule="evenodd" clip-rule="evenodd" d="M26.7233 38.6602C25.3809 39.9099 24.5927 41.3382 24.3966 42.0667C24.2294 42.6877 23.5905 43.0557 22.9695 42.8885C22.3485 42.7213 21.9805 42.0824 22.1477 41.4614C22.4814 40.2218 23.5505 38.432 25.1365 36.9555C26.7459 35.4573 29.0158 34.1633 31.8009 34.1633C33.3862 34.1633 36.0376 34.4751 38.3154 36.2079C40.6532 37.9865 42.3883 41.0996 42.3883 46.265C42.3883 51.517 39.972 55.8733 37.0141 58.7949C35.5344 60.2563 33.8961 61.383 32.3116 62.0933C30.7513 62.7928 29.1308 63.1373 27.7339 62.8677C25.0858 62.3567 23.3651 60.411 22.4883 58.0895C21.6167 55.7818 21.5207 52.9918 22.1404 50.4314C22.2916 49.8063 22.921 49.4223 23.5461 49.5735C24.1711 49.7248 24.5552 50.3542 24.4039 50.9793C23.8792 53.1475 23.9823 55.4537 24.6671 57.2666C25.3466 59.0658 26.5394 60.2653 28.1752 60.581C28.9205 60.7248 30.0296 60.5641 31.3589 59.9682C32.6641 59.3831 34.0753 58.4241 35.3775 57.1379C37.9831 54.5642 40.0594 50.7774 40.0594 46.265C40.0594 41.6658 38.5469 39.3104 36.9052 38.0614C35.2034 36.7668 33.1434 36.4922 31.8009 36.4922C29.772 36.4922 28.0423 37.4324 26.7233 38.6602Z" fill="#1A1A1A"/>
<path d="M19.6043 56.3781C20.0232 55.8902 20.7584 55.8334 21.2463 56.2523C21.7341 56.6711 21.7894 57.4064 21.3707 57.8943C20.0955 59.3797 18.6212 59.8135 17.2601 59.5531C16.0084 59.3136 15.0281 58.5222 14.4915 57.8883C14.076 57.3974 14.1371 56.6632 14.628 56.2477C15.1188 55.8322 15.853 55.8933 16.2685 56.3842C16.5768 56.7484 17.121 57.1546 17.6968 57.2651C18.1635 57.3544 18.8215 57.2899 19.6043 56.3781Z" fill="#1A1A1A"/>
<path fill-rule="evenodd" clip-rule="evenodd" d="M14.0002 62.1985C14.4756 61.7653 15.2121 61.7996 15.6452 62.275C16.971 63.7302 16.8668 65.9843 15.4127 67.311L14.9379 67.7435C14.4624 68.1766 13.7259 68.1422 13.2928 67.6667C12.8598 67.1913 12.8941 66.4548 13.3696 66.0217L13.8429 65.5906C13.843 65.5905 13.8428 65.5907 13.8429 65.5906C14.3471 65.1302 14.3834 64.3482 13.9236 63.8435C13.4905 63.3681 13.5248 62.6316 14.0002 62.1985Z" fill="#1A1A1A"/>
<path d="M6.3723 56.3781C5.95338 55.8902 5.21816 55.8334 4.73021 56.2523C4.24243 56.6711 4.18717 57.4064 4.60588 57.8943C5.88103 59.3797 7.35532 59.8135 8.71641 59.5531C9.96812 59.3136 10.9485 58.5222 11.4851 57.8883C11.9005 57.3974 11.8395 56.6632 11.3486 56.2477C10.8577 55.8322 10.1235 55.8933 9.70803 56.3842C9.3998 56.7484 8.85557 57.1546 8.27973 57.2651C7.81302 57.3544 7.1551 57.2899 6.3723 56.3781Z" fill="#1A1A1A"/>
</svg>
