<svg width="75" height="86" viewBox="0 0 75 86" fill="none" xmlns="http://www.w3.org/2000/svg">
<path d="M38.868 82.8438C68.1747 81.5675 71.6411 60.1955 66.1288 49.3302C60.6165 38.4649 44.9735 35.2339 38.868 35.7649C22.7777 37.5287 17.2038 42.8123 11.4705 51.7384C10.4629 53.3081 9.60877 54.9927 9.0593 56.7752C1.90089 79.9854 25.7343 84.3825 38.868 82.8438Z" fill="#FFA629"/>
<path d="M38.767 34.6046C42.0294 34.3209 47.6472 35.0372 53.1455 37.1898C58.6473 39.3437 64.2315 43.0154 67.1677 48.8027C70.0846 54.5523 70.6176 63.0246 66.5718 70.2514C62.4916 77.5396 53.8889 83.3413 38.9717 84.0037C32.2669 84.7835 22.7665 84.0708 15.7792 80.1025C12.2534 78.1 9.3183 75.2387 7.76591 71.2825C6.21366 67.3263 6.10003 62.4191 7.94634 56.4324C8.53444 54.5247 9.44153 52.7431 10.4906 51.1089C13.3906 46.5938 16.3258 42.8779 20.654 40.0873C24.9796 37.2985 30.5908 35.5011 38.7412 34.6076L38.8671 35.7675L38.8686 35.7645L38.7412 34.6076L38.7549 34.6061L38.767 34.6046ZM52.2964 39.358C47.0836 37.3173 41.8416 36.6798 38.9929 36.9214L38.9944 36.9229C31.0551 37.7933 25.8341 39.5194 21.917 42.0448C18.0027 44.5684 15.2841 47.9568 12.4511 52.3674C11.6055 53.6846 10.8857 55.0656 10.3769 56.5006L10.1722 57.1177C8.43945 62.7359 8.62054 67.0839 9.93413 70.4319C11.2477 73.7792 13.7496 76.2728 16.9286 78.0783C23.3406 81.72 32.3049 82.4398 38.7321 81.6869L38.7746 81.6824L38.817 81.6809L40.1437 81.6081C53.6556 80.7101 61.0556 75.3382 64.5401 69.1143C68.1759 62.6198 67.6858 54.9721 65.0905 49.8565C62.5143 44.7789 57.5203 41.4031 52.2964 39.358Z" fill="#1A1A1A"/>
<path d="M50.4484 72.0048C56.3825 62.9856 55.8459 53.6884 54.4035 46.8832C54.02 45.0744 55.3146 43.3619 56.8575 44.382C60.1619 46.5666 63.2012 52.4323 64.6616 59.09C65.1029 61.1007 65.1088 63.2262 64.2845 65.1142C61.9004 70.5702 56.3963 74.1273 52.2617 75.6473C49.4291 76.6891 48.7895 74.5263 50.4484 72.0048Z" fill="#F79722"/>
<path d="M38.0309 45.0264C40.6034 45.0264 42.6888 44.1574 42.6888 43.0856C42.6888 42.0137 40.6034 41.1448 38.0309 41.1448C35.4585 41.1448 33.373 42.0137 33.373 43.0856C33.373 44.1574 35.4585 45.0264 38.0309 45.0264Z" fill="#14AE5C"/>
<path d="M40.3459 64.5079C40.3459 65.7941 39.3032 66.8369 38.0169 66.8369C36.7307 66.8369 35.688 65.7941 35.688 64.5079C35.688 63.2217 36.7307 62.179 38.0169 62.179C39.3032 62.179 40.3459 63.2217 40.3459 64.5079Z" fill="#FFAFA3"/>
<path d="M39.1813 64.5081C39.1813 63.8649 38.66 63.3436 38.0169 63.3436C37.3737 63.3436 36.8524 63.8649 36.8524 64.5081C36.8524 65.1512 37.3737 65.6725 38.0169 65.6725C38.66 65.6725 39.1813 65.1512 39.1813 64.5081ZM41.5103 64.5081C41.5103 66.4374 39.9462 68.0015 38.0169 68.0015C36.0875 68.0015 34.5234 66.4374 34.5234 64.5081C34.5234 62.5787 36.0875 61.0146 38.0169 61.0146C39.9462 61.0146 41.5103 62.5787 41.5103 64.5081Z" fill="#1A1A1A"/>
<path d="M45.2828 57.5362C46.3075 57.5362 47.1383 58.367 47.1383 59.3917C47.1381 60.4163 46.3074 61.2472 45.2828 61.2472C44.2583 61.247 43.4275 60.4162 43.4273 59.3917C43.4273 58.3671 44.2582 57.5364 45.2828 57.5362ZM47.19 52.5645C47.948 52.1629 48.8586 52.3025 49.2242 52.8761C49.5894 53.4497 49.2726 54.2406 48.5152 54.6427L48.5113 54.6446C48.5099 54.6453 48.5078 54.6473 48.5055 54.6485C48.4995 54.6516 48.4891 54.6564 48.4781 54.6622C48.4555 54.6742 48.4225 54.6917 48.3805 54.7139C48.2948 54.7593 48.171 54.8257 48.0182 54.9063C47.712 55.0679 47.2878 55.2905 46.8189 55.5362C45.8862 56.025 44.7547 56.6136 44.0113 56.9845L43.8658 57.0489C43.1318 57.345 42.3208 57.1668 42.0006 56.6173C41.6591 56.0311 42.0059 55.2442 42.775 54.8604L44.0572 54.2071C44.5365 53.9593 45.045 53.6942 45.5123 53.4493C45.9769 53.2058 46.3971 52.9846 46.7008 52.8243L47.1568 52.5821C47.1677 52.5763 47.1766 52.5714 47.1822 52.5684L47.19 52.5645Z" fill="#1A1A1A"/>
<path d="M29.8022 57.5359C28.7776 57.5359 27.9469 58.3668 27.9468 59.3914C27.9468 60.4161 28.7775 61.2468 29.8022 61.2468C30.8269 61.2468 31.6577 60.416 31.6577 59.3914C31.6576 58.3668 30.8268 57.5359 29.8022 57.5359ZM27.896 52.5642C27.1378 52.1623 26.2263 52.3028 25.8608 52.8767C25.4956 53.4505 25.8131 54.2413 26.5708 54.6433L26.5737 54.6443C26.5751 54.645 26.5772 54.6469 26.5796 54.6482C26.5855 54.6513 26.5957 54.6559 26.6069 54.6619C26.6295 54.6738 26.6624 54.6913 26.7046 54.7136C26.7902 54.7589 26.9139 54.8253 27.0669 54.906C27.373 55.0676 27.7971 55.2901 28.2661 55.5359C29.1989 56.0248 30.3313 56.6133 31.0747 56.9841L31.2192 57.0486C31.9533 57.3447 32.7642 57.1665 33.0845 56.6169C33.4257 56.0307 33.0792 55.2438 32.31 54.8601L31.0278 54.2078C30.5485 53.9599 30.0401 53.6939 29.5727 53.449C29.1082 53.2055 28.6879 52.9852 28.3843 52.8249L27.9282 52.5818C27.9174 52.576 27.9084 52.572 27.9028 52.5691C27.9006 52.5679 27.8992 52.5659 27.8979 52.5652L27.896 52.5642Z" fill="#1A1A1A"/>
</svg>
