<svg width="75" height="86" viewBox="0 0 75 86" fill="none" xmlns="http://www.w3.org/2000/svg">
<path d="M10.1141 55.4242L13.3342 51.2368L16.7298 52.85L18.7265 56.685L28.4677 56.6074L30.0172 53.3825L33.7855 51.2896L37.8922 54.5905H40.3081L51.8224 53.3825L61.1599 54.5905L64.7061 59.5838L66.9404 63.1719L70.1823 70.2131V74.6412L68.4107 79.473L65.9948 81.406L56.6666 84.1433L47.8073 80.5194L40.3081 81.406L31.691 84.1433H28.873L26.5378 80.5194L13.8963 79.473L6.3272 82.4525L3.5076 80.5194L3.10547 77.7821L7.79753 74.5107L7.28049 67.35L10.1141 55.4242Z" fill="#E6E6E6"/>
<path d="M30.4354 76.4669C31.0786 76.4669 31.6005 76.9888 31.6005 77.632C31.6003 78.1966 31.1984 78.6653 30.6649 78.7716V80.6173C30.7556 80.6787 30.8892 80.7733 31.0243 80.9083C31.0998 80.9839 31.1664 81.0632 31.2011 81.1036C31.2223 81.1284 31.2363 81.1441 31.2489 81.1583C31.2516 81.1613 31.2537 81.1648 31.2558 81.1671C31.2601 81.1704 31.2718 81.1781 31.3017 81.1974L31.3134 81.2052L31.3241 81.213L31.5438 81.3615L31.5487 81.3644C31.6425 81.4269 31.6998 81.4666 31.7772 81.5177L31.787 81.5236C31.8035 81.5275 31.8215 81.5312 31.8397 81.5363C31.9032 81.5538 32.0338 81.5939 32.1767 81.6818L32.1991 81.6954L32.2216 81.7101C32.2418 81.7238 32.2607 81.7389 32.2792 81.7531C32.3186 81.7683 32.3535 81.7817 32.3808 81.7941C32.3828 81.795 32.3856 81.7961 32.3876 81.797H34.6493C35.2919 81.7973 35.8139 82.3185 35.8144 82.9611C35.8144 83.604 35.2922 84.1258 34.6493 84.1261H32.3065C32.2521 84.1262 31.9851 84.1352 31.6991 84.0382L31.6796 84.0314C31.6135 84.0076 31.5567 83.9829 31.5185 83.965C31.5 83.9563 31.4819 83.9471 31.4667 83.9396C31.4365 83.9332 31.3953 83.9251 31.3515 83.9122C31.3163 83.9019 31.2636 83.8844 31.2011 83.8575L30.9892 83.7423L30.9774 83.7325L30.9638 83.7238C30.9515 83.7149 30.9403 83.7045 30.9286 83.6954C30.7007 83.6053 30.5138 83.4739 30.4901 83.4581V83.4572C30.414 83.4068 30.3191 83.3435 30.2567 83.3019V83.3009C30.173 83.2456 30.0896 83.1898 30.0146 83.1388V83.1368C29.9118 83.0696 29.7646 82.9689 29.6112 82.8156L29.6034 82.8077C29.5324 82.7353 29.467 82.6579 29.4354 82.6212C29.4158 82.5983 29.4026 82.5829 29.3915 82.5704C29.3829 82.5608 29.3786 82.5557 29.3778 82.5548C29.3894 82.5663 29.3958 82.5686 29.3261 82.5226L29.3212 82.5197C29.2278 82.4574 29.17 82.4164 29.0927 82.3654L29.0878 82.3624C29.0671 82.3486 28.9118 82.253 28.7587 82.1046L28.6103 81.9396L28.6015 81.9269L29.4794 81.2814L29.538 81.2374L28.6015 81.9269C28.3135 81.5353 28.3358 81.1204 28.3358 81.0792V78.4142C28.3358 78.2957 28.3392 78.0242 28.5038 77.7013C28.5325 77.6445 28.5603 77.5961 28.58 77.5636C28.6018 77.5277 28.6245 77.4932 28.6376 77.4728C28.6413 77.467 28.6456 77.4615 28.6483 77.4572C28.6748 77.3849 28.7962 77.0648 29.1376 76.8419L29.1366 76.84L29.1405 76.839C29.1423 76.8379 29.1437 76.8353 29.1454 76.8341L29.1474 76.8361C29.1779 76.8165 29.2085 76.802 29.2362 76.7872C29.2837 76.746 29.3364 76.7037 29.3974 76.6661L29.4003 76.67C29.6578 76.5111 29.9077 76.4836 29.9794 76.4767C30.0804 76.4669 30.1796 76.4669 30.204 76.4669H30.4354ZM31.2655 83.7921H31.2685C31.2661 83.7917 31.2639 83.7908 31.2606 83.7902C31.2625 83.7906 31.2643 83.7919 31.2655 83.7921ZM56.953 76.8087C57.4078 76.354 58.1457 76.354 58.6005 76.8087C59.0225 77.2312 59.0516 77.8967 58.6894 78.3536C58.6762 78.3896 58.6577 78.4279 58.6376 78.4698L58.6425 78.4728C58.6386 78.4809 58.6327 78.4885 58.6288 78.4962C58.6218 78.5102 58.6172 78.5259 58.6093 78.5402L58.6044 78.5372C58.5989 78.5472 58.5931 78.5564 58.5878 78.5656C58.5868 78.5679 58.5878 78.571 58.5868 78.5734C58.554 78.6511 58.4847 78.7842 58.3593 78.92C58.3336 78.9568 58.3088 78.9879 58.289 79.0118L58.2831 79.0216L58.2782 79.0323C58.211 79.16 58.1345 79.2512 58.0966 79.295C58.0755 79.3194 58.0566 79.3401 58.0448 79.3527C58.0389 79.3589 58.0339 79.3653 58.0302 79.3693C58.0258 79.3739 58.0227 79.3757 58.0204 79.3781L57.9999 79.4015L57.9765 79.422C57.9687 79.4293 57.9606 79.437 57.9511 79.4464C57.9478 79.452 57.9458 79.459 57.9423 79.465C57.9312 79.4836 57.9157 79.5092 57.8983 79.5363L57.8935 79.5421C57.8464 79.6649 57.7867 79.7803 57.7235 79.8771L57.7255 79.879C57.7238 79.8816 57.7204 79.8833 57.7187 79.8859C57.7151 79.8912 57.7134 79.8983 57.7099 79.9034L57.7069 79.9015C57.6736 79.9512 57.6437 79.9931 57.6249 80.0167C57.6194 80.0263 57.6113 80.0434 57.6024 80.0587C57.5913 80.0779 57.5752 80.1063 57.5556 80.1368L57.5282 80.1779C57.4684 80.2629 57.4061 80.329 57.3534 80.3839C57.3503 80.3895 57.3479 80.3958 57.3446 80.4015C57.3334 80.4208 57.3176 80.4498 57.2978 80.4806L57.288 80.4933L57.2812 80.505L56.3378 79.8634L56.3026 79.8409L57.2812 80.505C57.2167 80.5999 57.1498 80.6713 57.0985 80.7247C57.093 80.7342 57.0875 80.7459 57.081 80.757C57.0683 80.7781 57.0507 80.8077 57.0292 80.84L57.0233 80.8478L56.8788 81.0314C56.8361 81.0789 56.8007 81.1124 56.7821 81.131C56.7325 81.1807 56.6479 81.266 56.5214 81.3722L56.5126 81.381L56.5106 81.38C56.3686 81.4967 56.3265 81.5247 56.2255 81.6134C56.1438 81.6852 56.0568 81.7714 55.9511 81.8771C55.8514 81.9768 55.7627 82.0661 55.6845 82.1427C55.6134 82.2151 55.5172 82.3115 55.3905 82.4113L55.3886 82.4093C55.315 82.4677 55.2127 82.5413 55.1659 82.5743C54.7216 83.0205 54.0016 83.0342 53.5419 82.5988C53.0755 82.1568 53.0548 81.4211 53.496 80.9542L53.6044 80.8478C53.6455 80.8103 53.6938 80.7694 53.7528 80.7247L53.7694 80.713L53.83 80.6691C53.8489 80.6557 53.8642 80.645 53.8798 80.6339C53.9119 80.6109 53.9307 80.5958 53.9403 80.588L53.9501 80.5812L54.038 80.4962L54.0556 80.4777C54.1231 80.4115 54.2026 80.3326 54.3046 80.2306C54.4006 80.1345 54.5405 79.9934 54.6884 79.8634C54.8071 79.7592 54.9734 79.629 55.0233 79.589L55.0839 79.5363C55.0947 79.5261 55.1044 79.5157 55.1161 79.504C55.1176 79.5014 55.1186 79.4978 55.12 79.4952C55.1311 79.4764 55.1473 79.4499 55.1659 79.421L56.1298 80.0411L56.1103 80.0275L55.1659 79.421L55.1806 79.3966C55.253 79.2898 55.3306 79.2065 55.3661 79.1691C55.3708 79.1611 55.3774 79.1525 55.3827 79.1437C55.3967 79.1204 55.415 79.0884 55.4384 79.0538L55.5722 78.8829C55.5943 78.8576 55.6122 78.8367 55.6249 78.8234C55.6292 78.816 55.6357 78.809 55.6405 78.8009C55.6531 78.7799 55.6699 78.7524 55.6903 78.7218C55.706 78.6979 55.7221 78.6758 55.7362 78.6564C55.7509 78.6125 55.7696 78.5602 55.7948 78.507L55.7997 78.4962L55.8056 78.4855L55.8993 78.3263C55.9228 78.2921 55.944 78.2631 55.954 78.2501C55.9605 78.2388 55.9703 78.2223 55.9804 78.2052C55.9914 78.1865 56.0069 78.161 56.0243 78.1339L56.0312 78.1212L56.0409 78.1095C56.1209 77.9918 56.1975 77.9069 56.2479 77.8556C56.3145 77.7308 56.3891 77.6412 56.4306 77.5939L56.4315 77.5909C56.4607 77.5399 56.5007 77.4844 56.5487 77.4259C56.5951 77.3083 56.6512 77.1965 56.7118 77.1036V77.1027C56.7141 77.099 56.7173 77.0955 56.7196 77.0919C56.7225 77.0876 56.7246 77.0825 56.7274 77.0782L56.7294 77.0802C56.826 76.9358 56.9226 76.8391 56.953 76.8087ZM31.5575 82.6837L31.5673 82.673L32.1444 81.7316L31.5575 82.6837ZM6.1249 74.9142C6.76796 74.9143 7.28896 75.4362 7.28896 76.0792C7.28885 76.644 6.887 77.1127 6.35342 77.2189V79.0646C6.38758 79.0877 6.42803 79.1148 6.47158 79.1476L6.70596 79.3478L6.71475 79.3556L6.72256 79.3644C6.79381 79.4371 6.85823 79.5139 6.8915 79.5529C6.91201 79.5769 6.92723 79.5938 6.93936 79.6075C6.94218 79.6108 6.9441 79.614 6.94619 79.6163C6.93715 79.6076 6.93344 79.6076 6.9999 79.6515L7.00381 79.6544C7.1101 79.7253 7.15202 79.7553 7.22549 79.8029L6.57217 80.8116L6.59365 80.7804L7.22549 79.8029L7.23623 79.8107L7.24795 79.8185C7.3261 79.8716 7.39721 79.9191 7.4667 79.965L7.47158 79.9679L7.47451 79.9698C7.49218 79.974 7.51224 79.978 7.53213 79.9835C7.59676 80.0015 7.72458 80.0426 7.86514 80.129L7.87881 80.1368L7.89248 80.1456C7.9192 80.1631 7.94474 80.182 7.96865 80.2003C8.01044 80.2165 8.04707 80.2313 8.0751 80.2443H10.3388C10.9811 80.2448 11.5024 80.7659 11.5028 81.4083C11.5028 82.0511 10.9814 82.5728 10.3388 82.5734H7.996C7.93991 82.5734 7.6772 82.5829 7.39346 82.4884L7.37978 82.4835L7.36807 82.4786C7.30198 82.4548 7.24548 82.4294 7.20693 82.4113C7.18981 82.4032 7.17355 82.394 7.15908 82.3868C7.12872 82.3805 7.08659 82.3726 7.04189 82.3595C7.00657 82.3491 6.95328 82.3318 6.89053 82.3048L6.67861 82.1896L6.65713 82.174L6.63467 82.1573C6.62838 82.1526 6.62221 82.1475 6.61611 82.1427C6.3946 82.0546 6.21192 81.928 6.17959 81.9064V81.9044C6.09621 81.8493 6.01328 81.7942 5.93838 81.7433V81.7423C5.8575 81.6894 5.76042 81.6237 5.71279 81.5919V81.5909C5.62512 81.5331 5.46419 81.4273 5.29971 81.2628L5.29189 81.255C5.22029 81.1819 5.15594 81.1041 5.12295 81.0656C5.10259 81.0417 5.08912 81.0265 5.07705 81.0128L5.0751 81.0109L5.01455 80.9708L5.01064 80.9669L4.78896 80.8185L4.76748 80.8038L5.42275 79.8409L5.43643 79.8195L4.76748 80.8038C4.73533 80.782 4.66625 80.7352 4.59951 80.6837C4.57045 80.6613 4.52408 80.6242 4.47061 80.5743L4.29873 80.3868L4.28994 80.3741C4.00225 79.9827 4.02432 79.5677 4.02432 79.5265V76.8615C4.02432 76.743 4.02665 76.4715 4.19131 76.1486L4.27236 76.0089C4.29257 75.9758 4.31284 75.9422 4.3251 75.923C4.32848 75.9177 4.33322 75.9134 4.33584 75.9093V75.9044C4.35907 75.8433 4.4756 75.5274 4.81045 75.3009L4.8085 75.2999C4.81442 75.2959 4.82212 75.293 4.82803 75.2892C4.83673 75.2835 4.84541 75.2762 4.85439 75.2706L4.85732 75.2736C4.87969 75.2598 4.90209 75.2486 4.92275 75.2374C4.9662 75.1994 5.01401 75.1605 5.06924 75.1251L5.07119 75.1271C5.33595 74.9576 5.59828 74.9308 5.66885 74.924C5.7692 74.9143 5.86774 74.9142 5.89248 74.9142H6.1249ZM6.746 82.006L6.74795 82.0031L6.79189 81.8712L6.746 82.006ZM52.2958 75.256C52.7505 74.8013 53.4875 74.8013 53.9423 75.256C54.3645 75.6784 54.3935 76.3439 54.0312 76.8009C54.0181 76.8367 54.0004 76.8753 53.9804 76.9171L53.9843 76.921C53.9804 76.9289 53.9744 76.9359 53.9706 76.9435C53.9636 76.9574 53.959 76.9732 53.9511 76.9874L53.9462 76.9845C53.9407 76.9945 53.9349 77.0037 53.9296 77.0128C53.9286 77.0151 53.9296 77.0183 53.9286 77.0206C53.8957 77.0984 53.8267 77.2323 53.7011 77.3683C53.6755 77.4049 53.6515 77.4352 53.6317 77.4591L53.6249 77.4698L53.621 77.4796C53.5538 77.6073 53.4763 77.6985 53.4384 77.7423C53.4175 77.7665 53.3994 77.7874 53.3876 77.7999C53.3816 77.8063 53.3757 77.8126 53.372 77.8165C53.3678 77.8209 53.3654 77.8231 53.3632 77.8253L53.3417 77.8488L53.3192 77.8693C53.3115 77.8766 53.3024 77.8842 53.2929 77.8937C53.2896 77.8993 53.2876 77.9063 53.2841 77.9122C53.273 77.9309 53.2575 77.9565 53.2401 77.9835L53.2353 77.9894C53.1882 78.1122 53.1285 78.2276 53.0653 78.3243L53.0673 78.3263C53.0656 78.3289 53.0631 78.3315 53.0614 78.3341C53.058 78.3394 53.0551 78.3456 53.0517 78.3507L53.0487 78.3488C53.0154 78.3984 52.9855 78.4404 52.9667 78.464C52.9612 78.4737 52.9532 78.4916 52.9442 78.507C52.9331 78.5261 52.9169 78.5537 52.8974 78.5841L52.87 78.6251C52.8102 78.7101 52.7489 78.7763 52.6962 78.8312C52.6929 78.8368 52.6898 78.843 52.6864 78.8488C52.6752 78.868 52.6594 78.897 52.6396 78.9279L52.6308 78.9406L52.6229 78.9523L51.6796 78.3107L51.6454 78.2882L52.6229 78.9523C52.5586 79.0471 52.4926 79.1186 52.4413 79.172C52.4358 79.1815 52.4294 79.1931 52.4228 79.2042C52.4101 79.2254 52.3925 79.255 52.371 79.2872L52.3651 79.295L52.2216 79.4786C52.1787 79.5264 52.1425 79.5597 52.1239 79.5782C52.0742 79.6279 51.9897 79.7132 51.8632 79.8195L51.8544 79.8282L51.8524 79.8273C51.7105 79.9438 51.6683 79.972 51.5673 80.0607C51.4856 80.1324 51.3985 80.2187 51.2929 80.3243C51.1932 80.424 51.1045 80.5134 51.0263 80.59C50.9552 80.6624 50.859 80.7588 50.7323 80.8585L50.7304 80.8566C50.6567 80.915 50.5544 80.9886 50.5077 81.0216C50.0634 81.4677 49.3434 81.4815 48.8837 81.046C48.4173 80.6039 48.3973 79.8683 48.8388 79.4015L48.9462 79.295C48.9873 79.2576 49.0355 79.2167 49.0946 79.172L49.1112 79.1603L49.1718 79.1163C49.1906 79.103 49.2061 79.0922 49.2216 79.0812C49.2537 79.0582 49.2735 79.043 49.2831 79.0353L49.2919 79.0284L49.3798 78.9435L49.3983 78.9249C49.4658 78.8589 49.5446 78.7796 49.6464 78.6779C49.7424 78.5818 49.8823 78.4406 50.0302 78.3107C50.1489 78.2064 50.3152 78.0763 50.3651 78.0363L50.4257 77.9835C50.4365 77.9733 50.4462 77.9629 50.4579 77.9513C50.4594 77.9486 50.4613 77.9451 50.4628 77.9425C50.4739 77.9237 50.4892 77.8971 50.5077 77.8683L51.4726 78.4884L51.4521 78.4747L50.5077 77.8683L50.5233 77.8439C50.5957 77.7372 50.6724 77.6537 50.7079 77.6163C50.7126 77.6083 50.7192 77.5998 50.7245 77.5909C50.7385 77.5676 50.7577 77.5357 50.7812 77.5011L50.914 77.3302C50.9361 77.3049 50.9549 77.284 50.9677 77.2706C50.9719 77.2634 50.9776 77.2561 50.9823 77.2482C50.9949 77.2272 51.0117 77.1996 51.0321 77.1691C51.0479 77.1452 51.0639 77.123 51.078 77.1036C51.0926 77.0597 51.1114 77.0075 51.1366 76.9542L51.1415 76.9435L51.1474 76.9327L51.2421 76.7736C51.2655 76.7395 51.2858 76.7103 51.2958 76.6974C51.3023 76.6861 51.3121 76.6695 51.3222 76.6525C51.3332 76.6338 51.3487 76.6082 51.3661 76.5812L51.3739 76.5685L51.3827 76.5568C51.4626 76.4391 51.5403 76.3551 51.5907 76.3038C51.6573 76.179 51.7309 76.0885 51.7724 76.0411L51.7743 76.0382C51.8035 75.9872 51.8426 75.9316 51.8905 75.8732C51.9369 75.7555 51.994 75.6438 52.0546 75.5509V75.5499C52.0569 75.5463 52.06 75.5428 52.0624 75.5392C52.0652 75.535 52.0665 75.5296 52.0692 75.5255L52.0712 75.5275C52.1682 75.3825 52.2658 75.286 52.2958 75.256ZM7.24209 81.1398L7.25576 81.1202L7.83389 80.1788L7.24209 81.1398ZM57.6239 80.0187L56.6679 79.3693L56.6239 79.3409L57.6239 80.0187ZM57.9491 79.3722C57.9506 79.3674 57.9547 79.3628 57.956 79.3585C57.9602 79.3441 57.9608 79.3312 57.9628 79.3234C57.9603 79.3342 57.9547 79.3511 57.9491 79.3722ZM57.4931 79.3116L56.9188 78.9064L56.9052 78.8976L57.4931 79.3116ZM58.2392 79.0118L57.2753 78.5031L57.2372 78.4855L58.2392 79.0118ZM52.9657 78.4659L52.0028 77.8116L52.7577 78.297L51.9667 77.7882L52.9657 78.4659ZM30.4159 78.3234L30.0087 77.6573L29.9911 77.632L30.4159 78.3234ZM57.4267 78.2365L57.413 78.2286L56.4071 77.754L57.4267 78.2365ZM57.6913 77.7335L58.2069 78.0636L57.6767 77.7228L57.6913 77.7335ZM29.7733 77.8156L29.8583 77.9454L29.7108 77.7179L29.7733 77.8156ZM52.2606 77.3546L52.9853 77.8195L52.247 77.3448L52.2606 77.3546ZM53.2919 77.8195C53.2934 77.8148 53.2965 77.81 53.2978 77.8058C53.3019 77.7916 53.3036 77.7795 53.3056 77.7716C53.303 77.7824 53.2974 77.7987 53.2919 77.8195ZM53.581 77.4591L52.6171 76.9513L52.579 76.9327L53.581 77.4591ZM28.9286 77.1827C28.9267 77.1865 28.9251 77.1905 28.9237 77.1935C28.9256 77.1897 28.9324 77.1784 28.9403 77.1632C28.9357 77.1715 28.9312 77.1779 28.9286 77.1827ZM6.12978 76.7814L6.13076 76.7823L6.1249 76.7716L5.89248 76.4093L5.69717 76.1046L6.12978 76.7814ZM6.68252 76.7072C6.68482 76.703 6.68852 76.6996 6.69033 76.6964C6.69562 76.6866 6.69917 76.6768 6.70107 76.673C6.70041 76.6743 6.69192 76.6891 6.68252 76.7072ZM52.7685 76.6837L52.7548 76.6769L51.7499 76.2023L52.7685 76.6837ZM53.0341 76.1808L53.5497 76.5109L53.0185 76.17L53.0341 76.1808ZM23.2899 56.2833C23.933 56.2834 24.454 56.8043 24.454 57.4474V57.7052C24.4562 57.7021 24.4595 57.6995 24.4618 57.6964C24.6648 57.3549 25.0338 57.1232 25.4599 57.1232C26.1025 57.1237 26.6238 57.6445 26.6239 58.2872C26.6239 58.2905 26.6236 58.3126 26.6229 58.337C26.6223 58.3622 26.6197 58.4084 26.6132 58.463C26.6084 58.5031 26.5866 58.6582 26.4979 58.8439C26.4769 58.9095 26.4482 58.985 26.4052 59.0626C26.3888 59.1164 26.3717 59.1714 26.3515 59.2228L26.3437 59.2443L26.3349 59.2638C26.3034 59.3356 26.269 59.3932 26.2421 59.4386C26.2272 59.4872 26.1936 59.5904 26.1581 59.6886C26.1098 59.8246 26.0522 59.9607 26.0038 60.0646L25.9979 60.0753L25.9931 60.0861L25.9179 60.2345C25.8957 60.2771 25.8852 60.2965 25.8778 60.3116L25.8739 60.3224L25.8671 60.3312C25.8663 60.3328 25.8666 60.3351 25.8661 60.3361L25.8612 60.3478L25.8603 60.3556L24.7909 59.9904L24.6942 59.9581L25.8583 60.3556C25.8558 60.363 25.8079 60.5189 25.7489 60.6632L25.7431 60.6769C25.7121 60.7498 25.674 60.8307 25.6503 60.882C25.6226 60.942 25.5986 60.9954 25.5761 61.0499C25.5252 61.1727 25.4711 61.3238 25.4081 61.5021L25.4062 61.505L24.454 61.1632V61.1652L25.4062 61.505C25.3413 61.687 25.2765 61.8658 25.2021 62.0704L25.2001 62.0782L24.454 61.799V61.8009L25.2001 62.0782C25.121 62.2912 25.0473 62.4884 25.0048 62.6222V62.6251L24.956 62.7892C24.9429 62.8358 24.918 62.9222 24.8876 63.0089L24.8847 63.0206C24.8533 63.1073 24.8149 63.1924 24.8026 63.2208C24.7868 63.2576 24.7753 63.2888 24.7606 63.3302C24.721 63.4487 24.6676 63.6357 24.6259 63.7872L24.6229 63.797L24.58 63.9493C24.5729 63.9768 24.573 63.9764 24.5751 63.964C24.5773 63.9509 24.5795 63.9363 24.5751 63.9777C24.5735 63.9923 24.5693 64.0266 24.5634 64.0656C24.5572 64.1055 24.5463 64.1708 24.5243 64.2462L24.5224 64.2443C24.4835 64.3786 24.4336 64.4783 24.4091 64.5236C24.4163 64.5092 24.4258 64.488 24.4364 64.463C24.4378 64.4597 24.438 64.4556 24.4394 64.4523L23.4853 64.0597H22.2978C22.3099 64.0842 22.3187 64.103 22.3241 64.1124C22.3286 64.1202 22.3321 64.1268 22.3329 64.1281C22.3329 64.128 22.3322 64.1267 22.33 64.1232C22.326 64.1167 22.3104 64.0922 22.2938 64.0626V64.0597H22.1894V63.8068C22.1591 63.7091 22.1396 63.6244 22.1327 63.5597C22.1238 63.4757 22.1249 63.401 22.1249 63.3986V58.8585C22.1209 58.8686 22.1175 58.8795 22.1132 58.8898L22.1142 58.8907C22.0946 58.937 22.0742 58.9779 22.0585 59.0089V59.1075C22.0588 59.1296 22.0765 59.4849 21.9374 59.8146C21.9167 59.8635 21.8933 59.9076 21.872 59.9464C21.8619 60.0664 21.8361 60.2308 21.7587 60.4132L21.7597 60.4142C21.7385 60.4643 21.7162 60.5084 21.7021 60.5363V60.7472C21.7026 60.7644 21.7249 61.1205 21.5263 61.4747V61.5773C21.5263 61.6688 21.531 61.9153 21.4052 62.214L21.4003 62.2238C21.3823 62.2653 21.3632 62.3022 21.3485 62.3312V62.9865C21.3481 63.6292 20.8273 64.1505 20.1845 64.1505C19.5416 64.1505 19.0209 63.6292 19.0204 62.9865V62.1534C19.0204 62.0592 19.0211 61.8258 19.1415 61.5402L19.1503 61.5187C19.1669 61.4813 19.1833 61.4471 19.1972 61.42V61.3234L19.205 61.0822C19.2184 60.9503 19.2521 60.781 19.3222 60.6163H19.3202C19.3222 60.6117 19.3241 60.6072 19.3261 60.6027C19.3282 60.5978 19.3297 60.5919 19.3319 60.587H19.3358C19.3484 60.5593 19.3597 60.532 19.3729 60.507V60.4923C19.3729 60.4281 19.3664 60.1576 19.4608 59.8644H19.4599C19.4614 59.8597 19.4642 59.8554 19.4657 59.8507C19.4666 59.8481 19.4668 59.8446 19.4677 59.8419H19.4687C19.4984 59.7526 19.5323 59.6741 19.5595 59.6173C19.5685 59.4841 19.5936 59.2857 19.6747 59.0939H19.6737C19.6915 59.0518 19.7109 59.0133 19.7294 58.9786V58.8546L19.7431 58.6134C19.7576 58.5028 19.7873 58.3657 19.8505 58.2159L19.8603 58.1964C19.8769 58.1589 19.8933 58.1248 19.9071 58.0978V57.4474C19.9071 56.8044 20.4282 56.2835 21.0712 56.2833C21.5902 56.2835 22.0302 56.6228 22.1806 57.0919C22.3308 56.6226 22.7708 56.2833 23.2899 56.2833ZM24.4394 64.4523C24.4745 64.3661 24.4918 64.2913 24.5009 64.2384L23.8876 64.0597H23.4872L24.4394 64.4523ZM13.5224 51.2365C15.4414 52.5903 19.2203 55.5611 18.9843 56.6075C15.5887 60.7623 11.406 62.1272 7.76357 64.2325L9.82998 54.8175L13.5224 51.2365ZM24.5038 64.2267C24.5045 64.2221 24.5071 64.2172 24.5077 64.213C24.5123 64.1819 24.515 64.1532 24.5165 64.129C24.5172 64.1172 24.5171 64.1057 24.5175 64.0948V64.0616L23.9071 64.0597L24.5038 64.2267ZM33.7821 51.5675C34.2401 51.3564 34.7744 51.3922 35.206 51.6544L37.621 53.1144C37.9437 53.31 38.1854 53.6176 38.2987 53.9777L39.8778 59.0167C40.1449 59.866 39.6481 60.7807 38.7802 60.9747C35.9232 61.6149 32.2063 61.831 29.9989 56.8624V56.9269C29.9989 57.0284 30.0014 57.247 29.9101 57.5245L29.911 57.5265C29.8929 57.5819 29.874 57.6323 29.8593 57.6691C29.8461 57.702 29.8325 57.7336 29.8222 57.7579V58.0206C29.8222 58.0739 29.8342 58.4069 29.7323 58.713L29.7304 58.712C29.7033 58.7936 29.6705 58.8659 29.6415 58.924C29.6409 59.0388 29.6358 59.239 29.5546 59.4825C29.5363 59.5373 29.5172 59.5864 29.5048 59.6173C29.4983 59.6336 29.4913 59.6498 29.4862 59.6622C29.4807 59.6759 29.4766 59.6872 29.4726 59.6974C29.4707 59.702 29.4681 59.7064 29.4667 59.7101C29.4666 59.7137 29.4668 59.7179 29.4667 59.7228C29.4664 59.7412 29.4657 59.7618 29.4657 59.7931V60.1925C29.4641 60.3159 29.4463 60.5704 29.3261 60.8243L29.3212 60.8361L29.3153 60.8468L29.2899 60.8927V61.1818C29.29 61.2819 29.2937 61.5062 29.2001 61.7872C29.1821 61.8413 29.1628 61.8901 29.1483 61.9259C29.1358 61.9569 29.1222 61.9873 29.1122 62.0109V62.9865C29.1117 63.6292 28.59 64.1505 27.9472 64.1505C27.3045 64.1503 26.7836 63.629 26.7831 62.9865V61.92C26.7831 61.8266 26.783 61.6158 26.8729 61.3458L26.8759 61.3351C26.8937 61.2834 26.9135 61.2359 26.9276 61.2013C26.9397 61.1719 26.9513 61.1416 26.9608 61.1193V60.8575L26.9667 60.6007C26.9767 60.4739 27.0013 60.3168 27.0526 60.1642H27.0517C27.0529 60.1607 27.0553 60.1569 27.0565 60.1534C27.0571 60.1514 27.0569 60.1486 27.0575 60.1466H27.0595C27.083 60.0789 27.1104 60.0187 27.1366 59.9659V59.7931C27.1366 59.6949 27.1337 59.4377 27.205 59.1564H27.203C27.2377 59.0176 27.2845 58.8971 27.3104 58.8322C27.3129 58.8259 27.3159 58.8195 27.3183 58.8136C27.319 58.6978 27.3268 58.4506 27.4052 58.215L27.4931 58.0079V57.6964L27.5019 57.463C27.5124 57.3594 27.535 57.2319 27.5819 57.0909L27.5849 57.0802L27.6366 56.9474C27.6487 56.9179 27.6605 56.8874 27.6698 56.8654V55.8947C27.6699 55.2516 28.1918 54.7306 28.8349 54.7306C28.9875 54.7307 29.1329 54.7611 29.2665 54.8146C29.2376 54.7137 29.2066 54.6117 29.1786 54.5079C28.9768 53.9456 31.8201 52.474 33.7821 51.5675ZM20.3993 61.7911L21.2606 62.1534L20.2772 61.7384L20.3993 61.7911ZM20.2372 62.0021L20.2128 61.9913L19.2304 61.5773L20.2372 62.0021ZM20.6874 59.9611L20.7772 59.9991L19.619 59.4991L20.6874 59.9611ZM21.2792 59.7765L20.8466 59.588L20.7519 59.549L21.2792 59.7765ZM26.1708 59.1925V59.1915L25.2685 58.797L26.0868 59.1183L25.247 58.7882L26.1708 59.1925ZM25.7978 58.7179H25.7987L25.4159 58.3829L25.4091 58.3781L25.7978 58.7179ZM21.0077 58.424L20.9667 58.4054L20.0585 58.0236L21.0077 58.424ZM28.8046 57.1642L28.9882 57.2228L28.0966 56.9269L28.8046 57.1642Z" fill="#B3B3B3"/>
<path d="M12.999 68.3148C15.0332 68.3149 16.6826 69.7601 16.6826 71.5424C16.6824 73.3244 15.0331 74.7689 12.999 74.7689C10.9649 74.7689 9.31562 73.3245 9.31543 71.5424C9.31543 69.7601 10.9648 68.3148 12.999 68.3148ZM33.1836 68.3148C35.2176 68.315 36.8662 69.7602 36.8662 71.5424C36.866 73.3243 35.2175 74.7687 33.1836 74.7689C31.1495 74.7689 29.5002 73.3245 29.5 71.5424C29.5 69.7601 31.1494 68.3148 33.1836 68.3148Z" fill="#FFAFA3"/>
<path d="M47.2023 69.5352C49.6282 69.0449 51.9941 70.549 52.6017 72.9195L52.6548 73.1515C52.7543 73.6441 53.0815 74.2009 54.124 74.7344L54.6168 74.9619L55.1596 75.1666C56.4148 75.5923 57.8144 75.7589 58.8183 75.7609C61.5233 75.3608 62.2417 74.1893 62.4239 73.7292C62.5682 73.3613 62.5504 73.109 62.5194 72.9726C62.5047 72.9075 62.4829 72.8641 62.4709 72.8406C62.0551 72.4241 62.013 71.7521 62.3921 71.285C62.7973 70.7856 63.5302 70.7099 64.0296 71.1152C64.3932 71.4103 64.6658 71.9132 64.7892 72.457C64.9247 73.0538 64.9045 73.7832 64.5891 74.5843V74.5874C64.0524 75.9428 62.5381 77.5903 59.073 78.0793L58.9957 78.0899L58.9183 78.0914C57.5408 78.1015 55.4921 77.8524 53.7176 77.1089C51.8655 76.3341 50.6923 75.2028 50.3713 73.6139C50.1181 72.3704 48.9066 71.5658 47.6633 71.8172C46.4195 72.0703 45.6173 73.284 45.8696 74.5267C46.6096 78.1785 49.3277 80.25 51.9406 81.3452C54.5344 82.4322 57.3688 82.7274 59.2277 82.6795L59.3414 82.6765L59.4551 82.6613L59.7492 84.9721L59.5779 84.9948L59.5218 85.0009L59.2913 85.007C57.3224 85.0579 54.4035 84.7775 51.5994 83.7166L51.04 83.4938C50.1661 83.1275 49.2514 82.6474 48.3668 82.0397C46.571 81.851 45.0545 81.7003 43.6634 81.5348C41.6069 81.2907 39.4082 82.2198 37.3619 83.515C35.9351 84.417 34.2239 85.147 32.5509 85.3208C30.8534 85.4972 29.0726 85.0993 27.8187 83.5772C27.1714 82.7924 26.7765 81.9717 26.63 81.1375C25.617 81.2346 24.7144 81.2785 23.4534 81.2785C20.3893 81.2785 17.4466 81.0014 14.87 80.3172C13.6545 81.5169 11.6649 82.6153 9.7072 83.1844C8.56365 83.5169 7.33875 83.698 6.19558 83.5741C5.04163 83.449 3.8979 83.001 3.08122 82.0109C2.26292 81.0178 1.8916 79.9408 1.94556 78.8586C1.9984 77.8007 2.45095 76.8624 3.04635 76.0945C3.90847 74.9828 5.16946 74.0986 6.41544 73.5609C6.04137 72.4881 5.84839 71.3027 5.84836 70.0053C5.84836 67.5081 5.84632 65.6131 6.39421 62.9381C6.67319 59.8537 7.52832 55.2483 10.1606 51.68C11.137 50.3597 12.853 49.7758 14.4318 50.2198C15.3985 50.4921 16.5751 50.965 17.6614 51.9135C18.6299 52.7594 19.4775 53.9415 20.0586 55.5843C21.0343 55.3184 22.0901 54.9961 23.4534 54.996C24.8876 54.996 26.2156 55.3069 27.4093 55.6207C27.9632 54.0482 28.7556 52.8891 29.6685 52.0408C30.7725 51.0151 31.987 50.5042 32.9982 50.2198L33.2954 50.1486C34.7863 49.8521 36.3643 50.4378 37.2664 51.7103C37.7364 52.3732 38.1364 53.0742 38.4824 53.7921H39.7788C41.0185 53.7878 42.5136 53.5754 44.2108 53.3312L45.4753 53.131C45.9437 53.0528 46.4561 52.9639 47.0022 52.8717C48.0831 52.6894 49.2803 52.4937 50.4714 52.335C51.6602 52.1766 52.8639 52.0518 53.9557 52.0181C55.01 51.9855 56.0487 52.0348 56.8911 52.2637C60.3945 53.118 63.1704 54.8227 65.1653 57.2567C67.0937 59.6098 68.2374 62.5794 68.6663 65.9721C71.8794 68.799 72.4924 73.4145 71.0286 77.1255C69.3933 81.2706 65.3866 84.2596 59.7492 84.9721L59.4551 82.6613C64.4094 82.0353 67.5938 79.4846 68.8619 76.2704C70.0692 73.2091 69.437 69.5936 66.9332 67.555L66.915 67.5399L66.8968 67.5232C66.6092 67.2687 66.4313 66.9164 66.3919 66.5422C66.034 63.3682 65.0094 60.7414 63.364 58.7335C61.723 56.7312 59.4078 55.2739 56.3407 54.526L56.321 54.5214L56.3028 54.5169L56.1012 54.4668C55.6033 54.3614 54.9042 54.32 54.0285 54.347C53.0481 54.3773 51.931 54.4892 50.7792 54.6427C49.63 54.7958 48.4655 54.9872 47.3888 55.1688C46.3229 55.3487 45.3241 55.523 44.5444 55.6358C42.898 55.8728 41.2245 56.116 39.7879 56.121H39.4073C39.5873 56.6793 39.742 57.2366 39.8744 57.7859C40.0249 58.411 39.6412 59.0407 39.0162 59.1914C38.3909 59.342 37.7612 58.957 37.6106 58.3317C37.1591 56.4575 36.4625 54.604 35.3666 53.0582C34.9906 52.5279 34.284 52.2781 33.629 52.4624C32.8516 52.681 32.0075 53.0485 31.2545 53.7481C30.5084 54.4414 29.7859 55.5216 29.3425 57.2734L29.338 57.2719C29.1987 57.8288 28.7013 58.1892 28.1659 58.1892H28.1371C28.1204 58.1888 28.0897 58.1881 28.0522 58.1846C28.0194 58.1816 27.951 58.1729 27.8627 58.1498C26.2614 57.7368 24.9433 57.3249 23.4534 57.3249C22.1321 57.3251 21.52 57.6601 19.9297 58.0254L19.913 58.0285C19.0636 58.2101 18.2661 57.6828 18.0374 56.9049L18.0359 56.8989L17.8509 56.3257C17.3952 55.054 16.7701 54.2268 16.13 53.6678C15.4822 53.1021 14.7703 52.7677 14.0907 52.5488L13.8011 52.4624C13.1512 52.2796 12.434 52.5229 12.0346 53.0613L12.0361 53.0628C9.79695 56.0983 8.9893 60.1598 8.71861 63.1033C8.71781 63.144 8.71466 63.1849 8.70951 63.2262C8.70781 63.2398 8.70391 63.2529 8.70193 63.2656C8.70144 63.2717 8.70103 63.2791 8.70042 63.2868C8.69857 63.3103 8.69629 63.3451 8.69283 63.3808C8.6839 63.4727 8.65922 63.5594 8.63067 63.6431C8.18187 65.9401 8.17731 67.5967 8.17731 70.0053C8.17735 71.7213 8.58804 73.0863 9.2872 74.184C9.98974 75.2869 11.0261 76.1852 12.3728 76.8966C15.0987 78.3365 18.9825 78.9495 23.4534 78.9496C24.8322 78.9496 25.7329 78.8916 26.9029 78.7646C27.0299 78.4636 27.1867 78.1789 27.3669 77.914C28.3681 76.4422 30.1244 75.4495 31.7109 75.0771C32.3368 74.9304 32.9633 75.3186 33.1104 75.9444C33.2573 76.5703 32.8689 77.1967 32.2431 77.3439C31.0845 77.6158 29.8928 78.3416 29.2925 79.224C29.0064 79.6448 28.8748 80.069 28.8937 80.4931C28.9127 80.9149 29.086 81.4537 29.6155 82.0958L28.5586 82.9676L28.7178 82.8372L29.617 82.0973C30.2277 82.8384 31.1278 83.1282 32.3098 83.0055C33.5167 82.8801 34.8845 82.3246 36.1171 81.5454C38.2751 80.1795 41.0557 78.8799 43.9394 79.2225C44.4598 79.2844 44.9976 79.3405 45.5633 79.4014C44.7305 78.3015 44.0628 76.9866 43.6832 75.4228L43.5876 74.9892C43.0792 72.4844 44.6976 70.0452 47.2008 69.5368L47.2023 69.5352ZM7.46468 75.6487C6.51399 76.0355 5.51513 76.7115 4.88707 77.5213C4.49532 78.0265 4.29417 78.5201 4.27147 78.9754C4.25009 79.4061 4.38004 79.925 4.87645 80.528C5.20164 80.9224 5.70997 81.179 6.44576 81.2588C7.19268 81.3398 8.09873 81.2265 9.05673 80.948C10.2643 80.5969 11.41 80.0248 12.2803 79.4287C11.9387 79.2804 11.606 79.1249 11.2856 78.9556C9.73488 78.1365 8.41713 77.0535 7.46468 75.6487ZM68.7072 66.292L68.7087 66.2996C68.7084 66.2965 68.7061 66.2936 68.7057 66.2905L68.7072 66.292ZM6.40937 62.8653C6.40839 62.87 6.40777 62.8772 6.40634 62.885C6.40825 62.8738 6.41019 62.8627 6.41241 62.8516C6.41152 62.8556 6.41044 62.8601 6.40937 62.8653ZM28.175 56.9777L27.0864 56.7018L28.1644 56.9762L28.175 56.9777L28.2129 56.9883L28.2372 56.9929L28.175 56.9777Z" fill="#1A1A1A"/>
<path d="M12.8788 54.7997C13.1552 54.4241 13.6464 54.2564 14.0966 54.3837C14.6479 54.5392 15.8428 55.6155 16.5244 56.7782C16.8007 57.2487 16.4745 57.7873 15.9482 57.9286C14.7528 58.2484 13.7948 58.6988 12.6972 59.4999C12.0126 59.9981 11.12 59.5078 11.3369 58.6884C11.7172 57.2444 12.2826 55.6071 12.8788 54.7997ZM34.0351 54.3837C34.4853 54.2564 34.9765 54.424 35.2529 54.7997C35.8491 55.6071 36.4135 57.2444 36.7939 58.6884C37.0109 59.5079 36.1191 59.998 35.4345 59.4999C34.3368 58.6987 33.3781 58.2484 32.1826 57.9286C31.6565 57.7871 31.3311 57.2485 31.6074 56.7782C32.2889 55.6154 33.4839 54.539 34.0351 54.3837Z" fill="#FFAFA3"/>
<path d="M23.2292 73.75C23.658 73.75 24.0056 74.0976 24.0056 74.5263C24.0056 74.9551 23.658 75.3026 23.2292 75.3026H21.7373C21.3085 75.3026 20.9609 74.9551 20.9609 74.5263C20.9609 74.0976 21.3085 73.75 21.7373 73.75H23.2292Z" fill="#1A1A1A"/>
<path d="M30.0805 67.548C30.5715 67.4128 31.1021 67.6481 31.3379 68.1381C31.5739 68.629 31.4362 69.2127 31.0355 69.5382L30.8481 69.6593L29.7304 70.2374L30.7676 70.9417L30.9402 71.0867C31.3013 71.4585 31.3743 72.0552 31.0848 72.5141C30.7951 72.973 30.2379 73.1422 29.7649 72.9472L29.5693 72.8415L26.9393 71.0525C26.6121 70.8298 26.4234 70.4432 26.4462 70.0378C26.4694 69.6323 26.7006 69.2693 27.0511 69.088L29.8717 67.6299L30.0805 67.548Z" fill="#1A1A1A"/>
<path d="M15.3966 67.5479C14.9055 67.4127 14.375 67.6481 14.1391 68.138C13.9032 68.6289 14.0408 69.2126 14.4416 69.5381L14.6289 69.6592L15.7467 70.2373L14.7095 70.9416L14.5369 71.0866C14.1758 71.4585 14.1028 72.0551 14.3922 72.514C14.682 72.9729 15.2392 73.1421 15.7122 72.9472L15.9078 72.8414L18.5377 71.0525C18.865 70.8298 19.0537 70.4432 19.0309 70.0378C19.0077 69.6322 18.7764 69.2692 18.426 69.0879L15.6053 67.6298L15.3966 67.5479Z" fill="#1A1A1A"/>
</svg>
