<svg width="75" height="86" viewBox="0 0 75 86" fill="none" xmlns="http://www.w3.org/2000/svg">
<path d="M18.0695 36.0521C19.9016 30.8663 34.3597 28.2424 41.359 27.5903C42.1788 28.584 43.8168 31.5495 43.8168 35.3535C43.8168 40.1045 58.5295 38.1793 59.4347 41.564C60.1582 44.2656 58.0373 46.8274 56.8853 47.7745C58.8633 48.0074 63.0632 49.3738 64.0398 53.0224C65.0164 56.6711 63.5119 60.3509 62.6378 61.7482C64.6407 63.5803 68.6449 64.4809 68.6449 69.5114C68.6449 73.5327 65.3689 80.4575 56.0313 82.9572C48.5601 84.9601 41.0671 83.1124 38.2537 81.9324C28.7268 83.0969 9.07201 83.1745 6.65611 74.1693C4.24177 65.1485 12.2238 59.0311 16.5169 57.0903C14.4472 56.8574 10.3063 55.2893 10.3063 50.8798C10.3063 46.4703 15.4813 44.9022 18.0695 44.6693C17.3056 43.9551 16.2374 41.2534 18.0695 36.0521Z" fill="#D4693B"/>
<path d="M17.7651 43.1318C19.1936 45.0105 22.8023 48.1314 26.7476 49.7461C28.1416 50.3052 28.7372 52.6805 27.52 53.5654L22.9917 56.8574C20.7947 59.2174 16.4 64.7602 16.3999 68.0518C16.3999 79.4015 38.5562 74.1851 38.5562 79.1846C38.5558 82.8794 32.1784 82.7862 29.6196 83.0967L12.5015 80.3174L6.21045 74.4023L7.59814 64.3105L15.7407 57.6494L10.8374 53.8604V47.8369L18.7075 44.6074L17.7651 43.1318ZM62.0757 49.249L64.7261 52.8516L64.2017 60.5215C63.843 60.8631 62.1268 60.9255 59.2886 62.5713C55.7407 64.6052 46.5786 64.7757 46.5786 61.6084C46.5791 58.4412 59.6831 59.2016 59.6831 55.584C59.683 52.6962 58.0419 49.1717 57.2222 47.7744L62.0757 49.249Z" fill="#864E37"/>
<path d="M67.4803 69.5113C67.4803 67.3861 66.6682 66.2094 65.6305 65.3113C65.0781 64.8333 64.4595 64.4342 63.7928 64.0074C63.158 63.6009 62.4408 63.1463 61.852 62.6079C61.4376 62.2287 61.3527 61.6073 61.6504 61.131C62.433 59.8799 63.7755 56.5399 62.9149 53.3239C62.5319 51.8928 61.5068 50.8539 60.2524 50.1231C58.9918 49.3888 57.6053 49.0322 56.7499 48.9314C56.2863 48.8768 55.8988 48.5499 55.7673 48.102C55.6362 47.6542 55.786 47.1716 56.1464 46.8753C56.6209 46.4852 57.3334 45.7231 57.8355 44.7799C58.3362 43.8393 58.5694 42.8346 58.3101 41.8657C58.3075 41.8563 58.267 41.727 57.925 41.5306C57.575 41.3297 57.0469 41.1399 56.3344 40.965C54.9025 40.6137 53.0705 40.3986 51.1231 40.1235C49.2432 39.8579 47.2457 39.534 45.7086 38.9378C44.2212 38.3608 42.6519 37.3134 42.6519 35.3534C42.6519 34.4132 42.6927 33.4122 42.7019 32.6378C42.7117 31.8082 42.6909 31.1199 42.5942 30.5469C42.4986 29.98 42.3402 29.6025 42.1318 29.3415C41.9527 29.1174 41.6774 28.9072 41.1947 28.7562C37.2295 28.7778 32.067 29.5729 27.6729 30.9851C25.4467 31.7006 23.4648 32.5602 21.9506 33.5248C20.412 34.5051 19.4979 35.5024 19.1668 36.4375C18.2941 38.9152 18.1411 40.7212 18.2555 41.9339C18.3736 43.1845 18.7642 43.7243 18.8651 43.8186C19.2003 44.1321 19.3205 44.6141 19.1713 45.0483C19.022 45.4823 18.6308 45.788 18.1736 45.8291L17.7097 45.8837C16.5693 46.0452 15.0665 46.455 13.8175 47.2059C12.4131 48.0502 11.4703 49.2218 11.4703 50.8797C11.4703 52.6576 12.2819 53.8287 13.3353 54.6203C14.4295 55.4425 15.7727 55.8349 16.6468 55.9334C17.1675 55.992 17.5854 56.3908 17.6672 56.9083C17.7488 57.4261 17.4746 57.9356 16.997 58.1516L16.6089 58.3336C14.6255 59.3022 11.9542 61.1376 9.99504 63.6844C7.92819 66.3714 6.69007 69.7895 7.78133 73.8675C8.2732 75.7008 9.65977 77.1675 11.8206 78.3176C13.9878 79.4711 16.8235 80.2428 19.9613 80.7133C26.231 81.6534 33.4144 81.3512 38.1122 80.777L38.2639 80.7679C38.4145 80.7692 38.5637 80.8003 38.7036 80.8589C41.3523 81.9698 48.5751 83.7501 55.7294 81.8323L56.3329 84.0824C48.7877 86.1051 41.2667 84.367 38.0971 83.1211C33.2649 83.6881 26.0258 83.9777 19.6156 83.0165C16.3474 82.5264 13.221 81.7017 10.7259 80.3737C8.38051 79.1253 6.49609 77.3756 5.67982 74.9622L5.53122 74.4709C4.20844 69.5286 5.75461 65.3771 8.14826 62.2652C9.73099 60.2076 11.6999 58.5778 13.5127 57.4147C12.9787 57.1663 12.4408 56.8617 11.9358 56.4822C10.4014 55.3292 9.1414 53.5113 9.1414 50.8797C9.1414 48.1285 10.7868 46.3109 12.6166 45.2105C13.7923 44.5037 15.1028 44.0522 16.2647 43.7868C16.1091 43.3081 15.9946 42.7607 15.9372 42.1522C15.7847 40.5354 16.0121 38.389 16.9713 35.6658C17.5567 34.0086 18.986 32.6516 20.6997 31.5598C22.4387 30.452 24.6219 29.5199 26.9603 28.7684C31.6357 27.2658 37.1205 26.4259 41.3585 26.4258C41.4601 26.4258 41.5621 26.439 41.6602 26.4652C42.6296 26.7245 43.3973 27.1953 43.9513 27.889C44.492 28.5662 44.7557 29.3651 44.8898 30.1603C45.023 30.9497 45.0395 31.8111 45.0293 32.6651C45.0185 33.5743 44.9808 34.3918 44.9808 35.3534C44.9808 35.7689 45.2522 36.2625 46.5516 36.7666C47.8012 37.2511 49.5381 37.5473 51.4491 37.8173C53.2926 38.0778 55.3083 38.3149 56.8894 38.7028C57.6833 38.8976 58.4556 39.1492 59.0834 39.5094C59.7082 39.868 60.3344 40.4188 60.5602 41.2622L60.636 41.5867C60.9646 43.1974 60.5165 44.7006 59.8915 45.8746C59.6573 46.3146 59.3884 46.7207 59.1122 47.0891C59.8582 47.3298 60.6563 47.6636 61.4244 48.1111C63.0086 49.0339 64.5715 50.5044 65.165 52.722C66.0817 56.1477 65.0509 59.528 64.1264 61.4388C64.3989 61.6288 64.706 61.8252 65.0498 62.0453C65.6971 62.4598 66.4554 62.9446 67.1543 63.5494C68.6193 64.8172 69.8093 66.6062 69.8093 69.5113C69.8093 74.075 66.1646 81.4503 56.3329 84.0824L55.7294 81.8323C64.5721 79.4647 67.4803 72.9901 67.4803 69.5113Z" fill="#1A1A1A"/>
<path d="M53.7442 69.2942C54.2794 69.3044 54.8967 69.4685 55.4307 69.9133C55.942 70.3393 56.1854 70.8637 56.2998 71.2551C56.5029 71.9505 56.4124 72.6165 56.3614 72.9289C56.2983 73.315 56.1974 73.68 56.125 73.9279C56.0886 74.0529 56.0509 74.1774 56.0284 74.2522C55.9982 74.3522 55.9966 74.3617 56.002 74.3391L55.9981 74.3586L55.9297 74.6037C55.7508 75.1898 55.4415 75.8472 55.1104 76.4416C54.7127 77.1557 54.1847 77.9548 53.5645 78.6643C52.9762 79.3371 52.1437 80.1169 51.1006 80.5373C49.9049 81.0191 48.4306 81.0018 47.1592 79.9719L47.1582 79.9729C46.0565 79.0847 45.9792 77.8219 46.0206 77.1711C46.0645 76.4809 46.272 75.816 46.4424 75.3381C46.6209 74.838 46.8367 74.3352 46.9805 73.9944C47.1732 73.5375 47.1875 73.4659 47.1729 73.5383C47.3556 72.633 48.0415 71.9583 48.8799 71.7434C49.0282 71.5571 49.1844 71.3728 49.3516 71.1975C50.3589 70.1419 51.8152 69.2488 53.7442 69.2961V69.2942ZM53.6397 73.7717L53.7002 71.6233L53.7022 71.5139L53.6397 73.7717ZM18.834 61.716C19.9065 61.449 20.7063 61.9793 20.9151 62.1262C21.4244 62.4846 21.7866 63.0031 21.9366 63.2199C22.2519 63.6759 22.6808 64.4363 22.7188 64.509C22.8369 64.7024 23.2218 65.2892 23.4473 65.6887C23.7225 66.1765 24.0363 66.8293 24.1807 67.6154L24.1827 67.6184C24.2842 68.1747 24.3127 68.7647 24.25 69.3303C24.1927 69.8475 24.0324 70.5819 23.5577 71.2297C23.3033 71.5766 22.92 71.9477 22.376 72.1867C22.0181 72.3439 21.6479 72.4174 21.2862 72.4231C20.9883 72.4387 20.687 72.3995 20.3975 72.2981C19.5592 72.0498 18.942 71.4849 18.5372 71.0315L18.5313 71.0256C17.1924 69.5151 17.0001 67.6372 16.835 66.7317C16.7809 66.4352 16.7868 66.1412 16.8418 65.8625C16.7611 65.0975 16.7931 64.2599 17.0557 63.425V63.4231C17.177 63.0386 17.6104 62.0211 18.834 61.716ZM35.3262 38.8654C36.1953 38.1971 37.1166 38.3329 37.587 38.4729L37.7598 38.5305L37.7706 38.5354C38.5914 38.8496 39.2693 39.3472 39.8204 39.8879C40.0662 40.0156 40.2954 40.1869 40.4903 40.4065C41.101 41.0945 42.456 42.4032 42.8067 44.4045H42.8086C42.9072 44.9636 42.9651 45.7256 42.7129 46.4836C42.6068 46.8923 42.3927 47.2532 42.1055 47.5403C41.8976 47.7709 41.6468 47.9743 41.3526 48.133C40.8269 48.4165 40.2958 48.4906 39.8623 48.4758C39.0542 48.4481 38.3752 48.115 37.9336 47.8371C37.4542 47.5353 37.015 47.1447 36.6436 46.7199L36.6416 46.7219C36.1147 46.1237 35.7954 45.4749 35.5811 44.9553C35.4022 44.5214 35.1897 43.8818 35.1036 43.6477L34.917 43.1867C34.8046 42.8979 34.6671 42.5266 34.5772 42.2317C34.5005 41.9802 34.3177 41.3716 34.3545 40.7473C34.37 40.487 34.4542 39.5363 35.3262 38.8654Z" fill="#FFCD29"/>
<path d="M33.7881 54.2886C34.3669 54.2886 34.8369 54.7929 34.8369 55.4146V56.2837H41.2354L41.3418 56.2896C41.8704 56.3471 42.2832 56.8267 42.2832 57.4097C42.283 57.9924 41.8703 58.4713 41.3418 58.5288L41.2354 58.5347H34.8369V59.4038L34.8311 59.5181C34.7776 60.0859 34.3309 60.5298 33.7881 60.5298C33.2455 60.5296 32.7996 60.0858 32.7461 59.5181L32.7402 59.4038V55.4146C32.7402 54.793 33.2095 54.2888 33.7881 54.2886Z" fill="#1A1A1A"/>
<path d="M24.8986 51.627C23.8413 51.6277 22.9855 52.485 22.9856 53.5425C22.9857 54.6 23.8412 55.4575 24.8986 55.4581H29.8921C30.9498 55.458 31.8074 54.6002 31.8076 53.5425C31.8076 52.4847 30.9498 51.6272 29.8921 51.627H24.8986Z" fill="#1A1A1A"/>
<path d="M50.0848 51.6265C51.1421 51.6272 51.9979 52.4845 51.9978 53.542C51.9977 54.5995 51.1422 55.4571 50.0848 55.4576H45.0913C44.0336 55.4575 43.176 54.5997 43.1758 53.542C43.1758 52.4842 44.0336 51.6267 45.0913 51.6265H50.0848Z" fill="#1A1A1A"/>
</svg>
