<svg width="75" height="86" viewBox="0 0 75 86" fill="none" xmlns="http://www.w3.org/2000/svg">
<path d="M33.9918 33.3818C26.2752 33.3818 20.0072 39.1576 19.8597 46.3152C18.7387 45.9891 17.5432 45.8029 16.3026 45.8029C9.87163 45.8029 4.65789 50.6626 4.65789 56.6713C4.65789 58.8916 5.37676 60.9566 6.60489 62.68C2.67673 64.6363 0 68.5179 0 72.9739C0 79.4018 5.56153 84.6187 12.4211 84.6187C12.789 84.6187 13.1523 84.6031 13.5126 84.5721C13.6818 84.6031 13.8557 84.6187 14.0327 84.6187H62.9204C62.9701 84.6187 63.0198 84.6187 63.0679 84.6187C68.5564 84.5255 72.9737 80.3955 72.9737 75.3029C72.9737 70.8003 69.5067 67.0429 64.9015 66.1734C66.0862 64.0463 66.7632 61.6087 66.7632 59.0003C66.7632 50.8489 60.1598 44.2503 52.0132 44.2503C50.622 44.2503 49.2774 44.4521 48.0027 44.8092C47.0742 38.3502 41.1556 33.3818 33.9918 33.3818Z" fill="#DAECDF"/>
<path d="M59.7453 64.7761C63.3256 49.3585 53.6869 46.5327 46.832 45.5545L48.9079 45.0267L54.2831 44.3589C54.8297 44.2813 55.3855 44.359 55.8916 44.5763L60.003 46.3464C60.3663 46.5016 60.6955 46.7191 60.975 46.9985L64.8534 50.8801C65.0894 51.113 65.2866 51.3925 65.4357 51.6875L65.8626 52.5413C65.9449 52.7121 66.0133 52.883 66.0645 53.0538L66.8905 55.864C67.0426 56.3919 67.0566 56.9509 66.9262 57.4788L65.9869 61.3293L65.6391 63.0682C65.3829 64.3569 65.962 65.6611 67.0877 66.3443L68.6403 67.2758C68.94 67.4466 69.2055 67.6796 69.429 67.9435L72.1104 71.1574C72.6616 71.825 72.9131 72.679 72.806 73.533L72.3138 77.4767C72.2377 78.0822 71.9847 78.6566 71.5872 79.1224L69.5113 81.529C68.9213 82.2277 68.0612 82.6158 67.156 82.6158H61.1551C70.0082 76.2966 65.5847 71.2971 61.5417 68.8284C60.166 67.99 59.3804 66.3442 59.7453 64.7761Z" fill="#C3E0CC"/>
<path d="M2.32895 72.9738C2.32895 77.9733 6.70365 82.2896 12.4211 82.2896V84.6186L11.7812 84.6034C5.21892 84.291 0 79.2006 0 72.9738C0 68.5178 2.67671 64.6364 6.60475 62.6801C5.45303 61.0642 4.75033 59.1479 4.66699 57.0851L4.6579 56.6712C4.6579 50.6625 9.8718 45.8028 16.3026 45.8028C16.9463 45.8028 17.5783 45.8491 18.1934 45.9423C18.1929 45.8958 18.1888 45.8493 18.1888 45.8028C18.1888 38.0862 24.8917 31.8291 33.1602 31.8291L33.8516 31.8443C40.9493 32.1458 46.7565 37.0663 47.9178 43.4435C49.428 42.9622 51.0385 42.6975 52.7106 42.6975L53.5142 42.7172C61.7596 43.1355 68.3156 49.9537 68.3158 58.3012C68.3158 61.2045 67.5214 63.9219 66.143 66.2508C70.9525 67.229 74.5263 70.9088 74.5263 75.3028C74.5263 80.442 69.6256 84.6185 63.5791 84.6186V82.2896C68.7058 82.2896 72.1974 78.8272 72.1974 75.3028C72.1974 72.2752 69.6848 69.3402 65.6775 68.5328C64.9395 68.3776 64.3196 67.8816 64.0142 67.1833C63.709 66.5002 63.7562 65.7081 64.1401 65.056C65.3125 63.0842 65.9868 60.7699 65.9868 58.3012C65.9866 50.9729 60.0429 45.0265 52.7106 45.0265C51.2861 45.0265 49.9161 45.2596 48.6319 45.6633C47.9935 45.8649 47.297 45.7877 46.7215 45.4465C46.1456 45.1049 45.7468 44.5296 45.6268 43.862C44.6456 38.4744 39.5387 34.158 33.1602 34.158C26.0302 34.1581 20.5275 39.5052 20.5178 45.7861C20.5183 45.7962 20.5189 45.8093 20.5193 45.8179C20.5202 45.849 20.5219 45.8805 20.5223 45.9271C20.5297 46.6102 20.236 47.263 19.7202 47.7133C19.2045 48.1475 18.5182 48.349 17.8431 48.2561C17.3399 48.1784 16.8248 48.1317 16.3026 48.1317C11.0038 48.1317 6.98684 52.1065 6.98684 56.6712C6.98684 58.3791 7.53771 59.9783 8.50157 61.3291C8.8971 61.888 9.02898 62.5872 8.86395 63.2547C8.69884 63.9064 8.253 64.465 7.64338 64.7755C4.42034 66.3747 2.32895 69.4959 2.32895 72.9738Z" fill="#1A1A1A"/>
<path d="M13.9009 82.2745C13.9894 82.29 14.027 82.2896 14.0343 82.2896V84.6186C13.8565 84.6186 13.6823 84.6026 13.5127 84.5716C13.1532 84.6026 12.7888 84.6186 12.4211 84.6186V82.2896C12.7089 82.2896 13.0076 82.2737 13.3232 82.2426C13.516 82.2271 13.7101 82.2434 13.9009 82.2745Z" fill="#1A1A1A"/>
<path d="M62.9225 84.6186H14.0343V82.2896H62.9225V84.6186Z" fill="#1A1A1A"/>
<path d="M63.5791 82.2896V84.6186L63.3683 84.6171C63.2984 84.6151 63.2286 84.6112 63.1591 84.6034C63.0813 84.6189 63.0023 84.6186 62.9225 84.6186V82.2896H62.9877C63.0695 82.2741 63.1515 82.2745 63.2334 82.2745C63.381 82.29 63.4828 82.2896 63.5791 82.2896Z" fill="#1A1A1A"/>
<path d="M13.1973 69.0923C15.3409 69.0924 17.0781 70.8305 17.0781 72.9741C17.078 75.1177 15.3408 76.8548 13.1973 76.855C11.0536 76.855 9.31557 75.1177 9.31543 72.9741C9.31543 70.8304 11.0535 69.0923 13.1973 69.0923ZM39.5918 69.0923C41.7355 69.0923 43.4736 70.8304 43.4736 72.9741C43.4735 75.1177 41.7354 76.855 39.5918 76.855C37.4481 76.855 35.7101 75.1177 35.71 72.9741C35.71 70.8304 37.4481 69.0923 39.5918 69.0923Z" fill="#9FC1AA"/>
<path d="M29.3887 77.6812H22.3887L25.8887 72.4312L29.3887 77.6812Z" fill="#FFAFA3"/>
<path d="M29.3884 78.8457C29.8176 78.8455 30.2123 78.6086 30.4149 78.2301C30.6171 77.8517 30.5952 77.3924 30.3572 77.0353L26.8562 71.7846C26.6402 71.4611 26.2764 71.266 25.8874 71.266C25.4983 71.2662 25.1344 71.4609 24.9185 71.7846L21.419 77.0353C21.1809 77.3925 21.159 77.8515 21.3614 78.2301C21.564 78.6087 21.9584 78.8457 22.3879 78.8457H29.3884ZM25.8874 74.532L27.2126 76.5168H24.5637L25.8874 74.532Z" fill="#1A1A1A"/>
<path d="M23.4879 71.9209C23.3332 71.6172 22.9605 71.4947 22.6568 71.6494C22.6562 71.6498 22.6555 71.6515 22.6539 71.6523C22.65 71.6543 22.6429 71.6579 22.6343 71.6621C22.6172 71.6705 22.5909 71.682 22.5582 71.6973C22.4918 71.7283 22.398 71.771 22.2916 71.8145C22.0638 71.9073 21.8303 71.9834 21.6724 72.002C21.5215 72.0196 21.2863 72.0024 21.0523 71.9697C20.9429 71.9545 20.8452 71.9388 20.7759 71.9258C20.7416 71.9193 20.7138 71.9129 20.6959 71.9092C20.6876 71.9075 20.6814 71.9062 20.6773 71.9053C20.6755 71.9049 20.6733 71.9044 20.6724 71.9043C20.3396 71.8307 20.0097 72.0412 19.9361 72.374C19.8629 72.7066 20.0733 73.0348 20.4058 73.1084L20.4088 73.1104C20.4107 73.1108 20.4143 73.1116 20.4175 73.1123L20.5464 73.1377C20.6301 73.1535 20.7472 73.1738 20.8804 73.1924C21.132 73.2275 21.4999 73.2648 21.817 73.2275C22.1495 73.1884 22.5119 73.0571 22.7574 72.957C22.8873 72.904 23.0011 72.8541 23.0816 72.8164C23.1217 72.7976 23.1542 72.7809 23.1773 72.7695C23.1888 72.7639 23.199 72.7592 23.2056 72.7559L23.2173 72.75L23.3228 72.6826C23.547 72.504 23.6224 72.1864 23.4879 71.9209ZM21.4214 69.1006C20.7397 69.1006 20.1871 69.6533 20.1871 70.335C20.1871 71.0167 20.7398 71.5693 21.4214 71.5693C22.1031 71.5693 22.6558 71.0167 22.6558 70.335C22.6558 69.6533 22.1032 69.1006 21.4214 69.1006Z" fill="#1A1A1A"/>
<path d="M28.6674 71.9209C28.8221 71.6172 29.1947 71.4947 29.4985 71.6494C29.4991 71.6498 29.4998 71.6515 29.5014 71.6523C29.5053 71.6543 29.5124 71.6579 29.5209 71.6621C29.538 71.6705 29.5644 71.682 29.5971 71.6973C29.6634 71.7283 29.7572 71.771 29.8637 71.8145C30.0914 71.9073 30.325 71.9834 30.4828 72.002C30.6339 72.0197 30.8698 72.0024 31.1039 71.9697C31.2131 71.9545 31.3102 71.9388 31.3793 71.9258C31.4137 71.9193 31.4414 71.9129 31.4594 71.9092C31.4676 71.9075 31.4739 71.9062 31.478 71.9053C31.4798 71.9049 31.4819 71.9044 31.4828 71.9043C31.8156 71.8307 32.1455 72.0412 32.2192 72.374C32.2923 72.7066 32.082 73.0348 31.7494 73.1084L31.7465 73.1104C31.7445 73.1108 31.7409 73.1116 31.7377 73.1123L31.6088 73.1377C31.5252 73.1535 31.408 73.1738 31.2748 73.1924C31.0233 73.2275 30.6553 73.2648 30.3383 73.2275C30.0058 73.1884 29.6434 73.0571 29.3979 72.957C29.2679 72.904 29.1542 72.8531 29.0737 72.8154C29.0338 72.7967 29.001 72.7808 28.978 72.7695C28.9664 72.7639 28.9563 72.7592 28.9496 72.7559L28.9379 72.75L28.8324 72.6826C28.6083 72.504 28.5329 72.1864 28.6674 71.9209ZM30.7338 69.1006C31.4155 69.1006 31.9682 69.6533 31.9682 70.335C31.9681 71.0166 31.4155 71.5693 30.7338 71.5693C30.0521 71.5693 29.4995 71.0166 29.4994 70.335C29.4994 69.6533 30.0521 69.1006 30.7338 69.1006Z" fill="#1A1A1A"/>
</svg>
