<svg width="75" height="86" viewBox="0 0 75 86" fill="none" xmlns="http://www.w3.org/2000/svg">
<path d="M65.7724 24.5612C67.8825 24.9338 69.2862 26.9521 68.9073 29.0636C68.7272 30.0727 68.603 30.7869 68.5222 31.3458C69.0657 31.4545 69.7877 31.5942 70.7876 31.765C72.8978 32.1531 74.3014 34.1715 73.9225 36.2674C73.6989 37.525 72.9024 38.5187 71.8559 39.0465C72.6524 39.916 73.053 41.127 72.8294 42.369C72.4506 44.4805 70.4321 45.8778 68.3235 45.5052C67.3235 45.3189 66.5984 45.1947 66.0488 45.117C65.9339 45.6604 65.7988 46.3745 65.6187 47.3837C65.2398 49.4952 63.2228 50.8925 61.1127 50.5199C60.0305 50.318 59.1361 49.6969 58.5709 48.843C57.7464 49.4485 56.6921 49.728 55.6115 49.5262C53.5013 49.1536 52.0977 47.1353 52.4765 45.0238C52.6567 44.0146 52.7809 43.3005 52.8616 42.7416C52.3182 42.6329 51.5962 42.4932 50.5947 42.3224C48.4861 41.9342 47.0824 39.9159 47.4597 37.8044C47.6833 36.5624 48.4783 35.5687 49.5248 35.0408C48.7299 34.1714 48.3308 32.9606 48.5544 31.7186C48.9333 29.6071 50.9502 28.2098 53.0604 28.5824C54.0603 28.7687 54.7839 28.8929 55.3351 28.9705C55.45 28.4271 55.5851 27.7128 55.7636 26.7037C56.1425 24.5922 58.161 23.1951 60.2711 23.5677C61.3518 23.7695 62.2431 24.3905 62.8098 25.2444C63.6343 24.6389 64.6901 24.3593 65.7724 24.5612Z" fill="white"/>
<path d="M57.7282 27.5265C57.8804 26.6726 58.6878 26.1138 59.5309 26.269C60.3756 26.4243 60.9361 27.2315 60.7855 28.0699C60.5184 29.5603 60.2964 30.8023 60.0169 31.7494C59.739 32.6809 59.3166 33.659 58.4192 34.28C57.5217 34.9011 56.4659 34.9632 55.4939 34.9011C54.511 34.839 53.2627 34.6061 51.7721 34.3422C50.9289 34.187 50.3668 33.3796 50.519 32.5412C50.6696 31.6873 51.477 31.1285 52.3217 31.2837C53.8868 31.5632 54.9318 31.7494 55.7019 31.796C56.483 31.8581 56.6429 31.7338 56.646 31.7338C56.6506 31.7338 56.8152 31.6253 57.0388 30.8645C57.2578 30.1348 57.4472 29.0791 57.7282 27.5265Z" fill="#DC3412"/>
<path d="M66.2864 29.048C66.4385 28.2097 65.8765 27.4025 65.0318 27.2472C64.1887 27.1075 63.3813 27.6663 63.2307 28.5047C62.962 29.9951 62.7353 31.2372 62.6701 32.2308C62.6049 33.1934 62.6639 34.2492 63.2881 35.1496C63.9123 36.0501 64.8812 36.4693 65.8159 36.7488C66.76 37.0283 68.0083 37.2456 69.5005 37.5251C70.3436 37.6648 71.151 37.1058 71.3016 36.2674C71.4538 35.4135 70.8917 34.6061 70.0486 34.4664C68.4835 34.187 67.4385 33.9852 66.6978 33.7678C65.9479 33.5505 65.8392 33.3797 65.8361 33.3797C65.8361 33.3797 65.7165 33.2245 65.7693 32.4327C65.8206 31.6719 66.0053 30.6161 66.2864 29.048Z" fill="#DC3412"/>
<path d="M54.4407 45.8311C54.2885 46.685 54.8506 47.4924 55.6937 47.6321C56.5384 47.7874 57.3458 47.2284 57.4964 46.39C57.765 44.8996 57.9917 43.642 58.0569 42.6639C58.1222 41.6858 58.0631 40.63 57.439 39.7295C56.8148 38.8446 55.8459 38.4098 54.9112 38.1459C53.9671 37.8664 52.7187 37.6336 51.2266 37.3696C50.3835 37.2144 49.576 37.7734 49.4239 38.6273C49.2733 39.4657 49.8338 40.273 50.6785 40.4283C52.2436 40.7077 53.2886 40.894 54.0292 41.1113C54.7792 41.3442 54.8879 41.4995 54.891 41.515C54.891 41.515 55.0105 41.6702 54.9577 42.4465C54.9065 43.2228 54.7217 44.263 54.4407 45.8311Z" fill="#DC3412"/>
<path d="M62.9992 47.3682C62.847 48.2221 62.0396 48.7809 61.1964 48.6256C60.3518 48.4704 59.7897 47.6632 59.9419 46.8248C60.2089 45.3344 60.431 44.0768 60.7105 43.1453C60.9884 42.1982 61.4107 41.2356 62.3082 40.6146C63.2057 39.9936 64.2615 39.9315 65.2335 39.9936C66.2164 40.0557 67.4647 40.2885 68.9553 40.5525C69.7985 40.7077 70.3605 41.5151 70.2084 42.3535C70.0577 43.1918 69.2503 43.7662 68.4057 43.6109C66.8405 43.3315 65.7956 43.1452 65.0254 43.0987C64.2444 43.0366 64.0845 43.1608 64.0814 43.1608C64.0767 43.1608 63.9121 43.2694 63.6886 44.0146C63.4696 44.7598 63.2802 45.8001 62.9992 47.3682Z" fill="#DC3412"/>
</svg>
