<svg width="75" height="86" viewBox="0 0 75 86" fill="none" xmlns="http://www.w3.org/2000/svg">
<path d="M33.1767 35.9968C27.3185 35.0497 13.9286 35.9968 8.07047 51.145L4.75684 65.1365C7.26746 63.2439 13.0916 62.5065 18.1128 62.5065C34.8504 62.5065 40.0108 65.3461 44.8928 65.3461C52.4247 46.4112 39.0347 36.9423 33.1767 35.9968Z" fill="#007BE5" stroke="#1A1A1A" stroke-width="2.74597" stroke-linejoin="round"/>
<path d="M38.5752 63.7275C38.4842 63.9677 38.3881 64.2068 38.2871 64.4443L36.8574 63.8379C36.9503 63.6194 37.0383 63.398 37.1221 63.1768L38.5752 63.7275ZM26.6943 61.5498C26.6712 61.8026 26.6493 62.0564 26.6289 62.3096L25.082 62.1855C25.1029 61.9263 25.1257 61.666 25.1494 61.4072L26.6943 61.5498ZM39.4424 60.7725C39.3346 61.273 39.209 61.771 39.0645 62.2646L37.5742 61.8291C37.7078 61.3728 37.8247 60.9103 37.9248 60.4453L39.4424 60.7725ZM13.4307 60.625C13.4042 60.87 13.3801 61.1161 13.3604 61.3623L11.8145 61.2383C11.8354 60.9781 11.8587 60.718 11.8867 60.459L13.4307 60.625ZM27.0381 58.5176C26.9702 59.0205 26.908 59.5262 26.8506 60.0322L25.3086 59.8564C25.3672 59.3397 25.4298 58.8238 25.499 58.3105L27.0381 58.5176ZM39.8848 57.7383C39.8436 58.2469 39.7872 58.7551 39.7139 59.2607L38.1777 59.0381C38.2462 58.5658 38.2983 58.0898 38.3369 57.6123L39.8848 57.7383ZM13.9111 57.7041C13.8041 58.1857 13.7111 58.671 13.6309 59.1582L12.0996 58.9062C12.1845 58.3905 12.2832 57.8769 12.3965 57.3672L13.9111 57.7041ZM27.5088 55.502C27.4204 56.001 27.3375 56.5036 27.2588 57.0078L25.7236 56.7686C25.804 56.2537 25.8903 55.7399 25.9805 55.2305L27.5088 55.502ZM14.7129 54.8535C14.5531 55.3212 14.4069 55.7931 14.2734 56.2676L12.7783 55.8477C12.9196 55.3454 13.075 54.8464 13.2441 54.3516L14.7129 54.8535ZM39.9561 54.6865C39.972 55.1943 39.9753 55.7034 39.9639 56.2119L38.4111 56.1768C38.4219 55.6973 38.4184 55.2163 38.4033 54.7354L39.9561 54.6865ZM28.1025 52.5059C27.9943 53.0001 27.8903 53.4993 27.791 54.001L26.2686 53.6992C26.3699 53.1874 26.4745 52.6781 26.585 52.1738L28.1025 52.5059ZM15.8232 52.1074C15.613 52.5562 15.415 53.0091 15.2305 53.4658L13.791 52.8838C13.986 52.4015 14.1942 51.9228 14.416 51.4492L15.8232 52.1074ZM39.7119 51.6562C39.7758 52.1572 39.8291 52.6617 39.8701 53.167L38.3213 53.293C38.2823 52.8121 38.2329 52.3311 38.1719 51.8525L39.7119 51.6562ZM28.8154 49.5391C28.6874 50.0274 28.5641 50.5221 28.4443 51.0205L26.9336 50.6562C27.0559 50.1476 27.1837 49.6441 27.3145 49.1455L28.8154 49.5391ZM17.2217 49.4941C16.9648 49.9192 16.7195 50.3483 16.4873 50.7822L15.1182 50.0498C15.3632 49.5919 15.6209 49.1385 15.8916 48.6904L17.2217 49.4941ZM39.2031 48.6689C39.3072 49.1603 39.403 49.6569 39.4883 50.1562L37.958 50.4189C37.8763 49.9406 37.7846 49.4643 37.6846 48.9922L39.2031 48.6689ZM18.8828 47.0342C18.5837 47.4322 18.2962 47.8355 18.0205 48.2432L16.7344 47.374C17.0246 46.9449 17.3281 46.521 17.6426 46.1025L18.8828 47.0342ZM29.6514 46.6035C29.5032 47.0842 29.3594 47.5736 29.2188 48.0674L27.7256 47.6406C27.8691 47.1365 28.0166 46.6385 28.168 46.1475L29.6514 46.6035ZM38.4688 45.7383C38.6071 46.2181 38.7399 46.7044 38.8633 47.1963L37.3555 47.5742C37.2366 47.1003 37.1101 46.6302 36.9766 46.167L38.4688 45.7383ZM20.7832 44.7471C20.4464 45.1156 20.1193 45.4894 19.8047 45.8682L18.6104 44.877C18.9408 44.4792 19.2836 44.0866 19.6367 43.7002L20.7832 44.7471ZM30.6152 43.7109C30.4457 44.1824 30.279 44.6646 30.1162 45.1533L28.6445 44.6621C28.8111 44.162 28.9815 43.6697 29.1553 43.1865L30.6152 43.7109ZM37.5381 42.8682C37.7063 43.3348 37.8702 43.8109 38.0273 44.2949L36.5508 44.7744C36.3989 44.3066 36.2399 43.846 36.0771 43.3945L37.5381 42.8682ZM22.8896 42.6426C22.52 42.9802 22.1604 43.3236 21.8115 43.6719L20.7148 42.5742C21.0802 42.2095 21.4563 41.8491 21.8428 41.4961L22.8896 42.6426ZM31.7197 40.876C31.5269 41.3342 31.3364 41.8049 31.1494 42.2861L29.7012 41.7236C29.8933 41.2293 30.0894 40.7444 30.2881 40.2725L31.7197 40.876ZM36.4277 40.0645C36.6228 40.5156 36.8154 40.981 37.0039 41.457L35.5605 42.0283C35.3781 41.5676 35.1917 41.1173 35.0029 40.6807L36.4277 40.0645ZM25.1748 40.7285C24.7774 41.0341 24.3898 41.3465 24.0117 41.6631L23.0137 40.4727C23.4086 40.1419 23.814 39.8168 24.2285 39.498L25.1748 40.7285ZM27.6113 39.0049C27.1907 39.2785 26.7777 39.557 26.375 39.8418L25.4795 38.5742C25.8989 38.2777 26.3273 37.9866 26.7646 37.7021L27.6113 39.0049ZM32.9844 38.1182C32.7643 38.5575 32.5447 39.0142 32.3291 39.4854L30.917 38.8379C31.1397 38.3514 31.3663 37.8799 31.5947 37.4238L32.9844 38.1182ZM35.1436 37.3359C35.3646 37.7686 35.5884 38.2209 35.8096 38.6914L34.4033 39.3525C34.1895 38.8976 33.975 38.4594 33.7617 38.042L35.1436 37.3359ZM30.1777 37.4678C29.7371 37.7104 29.304 37.9581 28.8799 38.2119L28.083 36.8809C28.5232 36.6174 28.9719 36.3589 29.4287 36.1074L30.1777 37.4678ZM34.4326 36.001L33.9902 36.248C33.889 36.4226 33.7863 36.6002 33.6855 36.7822L33.3574 36.6016L33.0771 36.7578C32.9898 36.6012 32.9015 36.4494 32.8154 36.3008L32.3271 36.0303C32.4564 35.7968 32.5863 35.5678 32.7168 35.3447L33.3867 35.7383L34.0576 35.3447C34.181 35.5557 34.3065 35.775 34.4326 36.001ZM32.1738 36.4365C31.9479 36.5461 31.724 36.6581 31.502 36.7705L30.7998 35.3848C31.0299 35.2684 31.2631 35.1525 31.4971 35.0391L32.1738 36.4365Z" fill="#80CAFF"/>
<path d="M32.9253 31.4402L35.0513 31.7292C36.5104 31.9279 37.5672 33.2767 37.4116 34.741C37.3593 35.2321 37.1751 35.6722 36.9009 36.0349C39.6791 37.3832 42.774 39.799 45.0337 43.2927C48.3927 48.4862 49.8687 55.9873 45.9751 65.7761L45.898 65.9353C45.6913 66.288 45.3096 66.5105 44.8921 66.5105C43.5524 66.5105 41.9045 66.2529 40.0601 65.9138C38.1702 65.5663 36.0724 65.1333 33.6597 64.7195C28.8773 63.8993 23.0852 63.2044 16.52 63.6687C14.8308 63.788 12.5872 63.9243 10.4517 64.2615C8.26209 64.6072 6.4305 65.1322 5.42727 65.8884L5.27395 65.9851C4.90252 66.1831 4.44619 66.1667 4.08645 65.9304C3.67607 65.6603 3.47973 65.1619 3.59524 64.6843L6.93703 50.8708C6.94903 50.8213 6.96553 50.7729 6.98391 50.7253C10.0307 42.8468 15.0781 38.5921 20.1734 36.4617C23.6872 34.9925 27.1943 34.5463 30.0454 34.5779C29.9877 34.3058 29.9698 34.0213 30.0005 33.7322C30.1564 32.2682 31.4662 31.2418 32.9253 31.4402ZM32.9907 37.1462C30.2269 36.6994 25.6425 36.6996 21.0728 38.6101C16.5578 40.4978 11.9945 44.273 9.18117 51.4997L6.44192 62.8152C7.58964 62.4208 8.86308 62.1553 10.0894 61.9617C12.3467 61.6053 14.7054 61.4611 16.357 61.3445C23.1813 60.8619 29.176 61.5873 34.0523 62.4236C36.4685 62.838 38.6696 63.2919 40.48 63.6247C41.9225 63.89 43.1238 64.0778 44.104 64.1492C47.3639 55.3944 45.9131 48.9414 43.0777 44.5574C40.1064 39.9637 35.5732 37.5631 32.9907 37.1462Z" fill="#1A1A1A"/>
<path d="M6.75434 50.0272C1.60626 52.5594 0.0317176 57.4623 4.68846 65.3291C6.75434 64.382 12.688 62.7488 17.2416 62.4895C23.592 62.1262 27.284 62.4895 34.8157 63.4365C29.6806 47.9546 11.9024 47.4934 6.75434 50.0272Z" fill="#034AC1"/>
<path d="M12.5556 47.7126C15.1417 47.6381 18.1329 47.9558 21.1274 48.8618C27.1343 50.6795 33.2098 54.8924 35.9221 63.0698C36.0479 63.4492 35.9697 63.8677 35.7158 64.1765C35.4621 64.4851 35.0675 64.6417 34.6711 64.592L34.8167 63.4367H34.8151L34.6711 64.592C27.1605 63.6476 23.5511 63.2948 17.3078 63.652C15.1261 63.7762 12.5787 64.2334 10.3069 64.783C8.02182 65.3359 6.10607 65.96 5.17419 66.3871C4.63232 66.6355 3.99031 66.4346 3.68668 65.9216C1.2925 61.877 0.372219 58.3899 0.898172 55.4708C1.43601 52.4865 3.43224 50.3644 6.24016 48.9831C7.73324 48.2483 9.99445 47.7864 12.5556 47.7126ZM12.6223 50.0399C10.2418 50.1085 8.34916 50.5404 7.26822 51.0724C4.92877 52.2232 3.56315 53.8183 3.19084 55.8847C2.83661 57.8517 3.34052 60.4694 5.19693 63.8642C6.3731 63.4289 7.9941 62.9462 9.75801 62.5194C12.1076 61.9509 14.8042 61.4627 17.1758 61.3277C23.0609 60.991 26.7184 61.272 33.038 62.0433C30.3825 55.8854 25.4489 52.6024 20.4526 51.0906C17.7172 50.2629 14.9779 49.972 12.6223 50.0399Z" fill="#1A1A1A"/>
</svg>
