<svg width="75" height="86" viewBox="0 0 75 86" fill="none" xmlns="http://www.w3.org/2000/svg">
<path d="M6.17296 60.882C14.1207 63.4437 20.6503 62.8382 24.0123 62.8382C27.2835 62.8382 37.2196 61.3478 40.8944 59.1743C41.3211 58.9258 41.509 58.4136 41.409 57.9323C39.3903 48.1358 29.4185 41.258 21.9889 42.0032C15.1373 42.6708 5.76546 48.058 5.25422 59.5779C5.22787 60.1679 5.60797 60.6957 6.17296 60.882Z" fill="#E24C0C"/>
<path d="M23.3799 40.8223C27.9122 42.1184 33.3539 47.622 34.5068 57.8486L32.1924 58.1094C31.2461 49.7158 27.2851 45.2043 24.0352 43.5742C23.8703 47.505 23.8072 54.2504 24.5303 58.1719L22.2412 58.5938C21.4872 54.5044 21.5387 47.7697 21.6973 43.7529C18.142 45.5519 13.543 50.1216 13.543 57.7158H11.2148C11.2148 47.6195 18.3697 42.0876 22.7402 40.8379L23.0576 41.9492L23.3799 40.8223Z" fill="#AA370D"/>
<path d="M21.8732 40.8443C25.9655 40.434 30.6053 42.1171 34.4419 45.0941C38.2953 48.0841 41.4745 52.4807 42.5497 57.6949L42.5785 57.8662C42.6916 58.7211 42.3445 59.6715 41.4852 60.1753L41.4867 60.1768C39.4557 61.3779 35.8685 62.3219 32.5223 62.965C29.14 63.6151 25.7554 64.002 24.0127 64.0021C20.7377 64.0021 13.9807 64.6219 5.81539 61.9901L5.80781 61.9886C4.77145 61.6468 4.04075 60.6623 4.09134 59.5264C4.63601 47.2534 14.639 41.5519 21.8732 40.8458V40.8443ZM33.0136 46.9347C29.5026 44.2103 25.4421 42.8278 22.1052 43.1625H22.1021C15.6333 43.7928 6.89518 48.8644 6.41737 59.6295C6.41545 59.6725 6.44336 59.7418 6.53261 59.7735C14.2619 62.2643 20.5641 61.6733 24.0127 61.6733C25.5416 61.6732 28.761 61.317 32.0825 60.6787C35.4191 60.0374 38.6161 59.1541 40.2691 58.1891C40.2692 58.1829 40.2705 58.1762 40.2691 58.1694L40.2676 58.1679C39.3236 53.5866 36.5076 49.6459 33.0136 46.9347Z" fill="#1A1A1A"/>
<path d="M3.14388 62.3572C3.05361 61.2393 3.1323 59.9817 3.27743 58.8328C3.47967 57.2337 5.11278 56.3332 6.68761 56.6748C16.6746 58.7862 32.3208 57.6219 40.8313 56.5817C42.0843 56.4265 43.2951 57.125 43.5583 58.3515C43.7372 59.1898 43.8613 60.0748 43.9658 60.8821C44.1611 62.4036 43.1796 63.9252 41.6837 64.2512C29.1399 66.9992 16.96 66.1298 5.13309 64.2978C4.09929 64.1426 3.22725 63.4129 3.14388 62.3572Z" fill="#E24C0C"/>
<path d="M18 57.4661C18 58.2816 17.9149 59.6548 17.8193 61.1204C17.7222 62.6101 17.6108 64.2315 17.5537 65.6038L15.2275 65.5071C15.286 64.1004 15.3989 62.4444 15.4951 60.969C15.5929 59.4697 15.6709 58.1873 15.6709 57.4661H18ZM31.5449 57.4661C31.5449 58.1873 31.6229 59.4697 31.7207 60.969C31.8169 62.4445 31.9308 64.1004 31.9893 65.5071L29.6621 65.6038C29.6051 64.2315 29.4946 62.6101 29.3975 61.1204C29.3019 59.6547 29.2158 58.2817 29.2158 57.4661H31.5449ZM22.3379 57.3967C22.3868 58.2048 22.3833 59.5775 22.376 61.0442C22.3685 62.5359 22.3565 64.1621 22.3818 65.5344L20.0527 65.5764C20.0267 64.17 20.0395 62.5115 20.0469 61.0344C20.0544 59.5327 20.055 58.2497 20.0117 57.5364L22.3379 57.3967ZM27.1631 57.3967C27.212 58.2048 27.2085 59.5775 27.2012 61.0442C27.1937 62.5359 27.1817 64.1621 27.207 65.5344L24.8779 65.5764C24.8519 64.17 24.8647 62.5115 24.8721 61.0344C24.8796 59.5328 24.8801 58.2497 24.8369 57.5364L27.1631 57.3967ZM35.876 57.3225C36.0259 58.5215 36.3544 61.5828 36.4717 64.4045L34.1436 64.5012C34.0298 61.7653 33.7096 58.7717 33.5645 57.6106L35.876 57.3225ZM40.3574 57.3225C40.5073 58.5215 40.8366 61.5828 40.9541 64.4045L38.626 64.5012C38.5121 61.7653 38.192 58.7718 38.0469 57.6106L40.3574 57.3225ZM9.16895 57.4553C9.02374 58.6163 8.70362 61.6101 8.58984 64.3459L6.26367 64.2493C6.38101 61.4276 6.70747 58.3663 6.85742 57.1672L9.16895 57.4553ZM13.6514 57.4553C13.5062 58.6163 13.1851 61.6101 13.0713 64.3459L10.7461 64.2493C10.8634 61.4276 11.1899 58.3663 11.3398 57.1672L13.6514 57.4553Z" fill="#AA370D"/>
<path d="M40.6877 55.4261C42.4142 55.2121 44.282 56.1747 44.6969 58.1066V58.1081C44.7917 58.5524 44.8719 59.0061 44.941 59.4499L45.1214 60.7326V60.7341C45.3698 62.6704 44.229 64.6576 42.3238 65.2826L41.9326 65.3887C29.1859 68.181 16.8432 67.2883 4.96028 65.4479C3.53365 65.2335 2.12096 64.1764 1.98375 62.4504C1.88463 61.2227 1.97134 59.8781 2.12173 58.6873C2.42901 56.2577 4.84923 55.0902 6.92694 55.5367L6.92846 55.5352C16.7049 57.6022 32.1748 56.4679 40.6877 55.4276V55.4261ZM40.9743 57.7367H40.9728C32.4642 58.7766 16.6442 59.9695 6.44779 57.814L6.44172 57.8125C5.37157 57.5804 4.52961 58.2129 4.4326 58.9784C4.31024 59.947 4.24166 60.9645 4.28097 61.8788L4.30523 62.2639V62.2654C4.33562 62.6496 4.66597 63.0501 5.306 63.1463H5.31206C17.0811 64.9694 29.0963 65.8161 41.4353 63.113H41.4368C42.2894 62.9267 42.9354 62.0079 42.8106 61.0313C42.7326 60.4289 42.647 59.8031 42.5376 59.1952L42.4194 58.5948C42.3072 58.0745 41.7533 57.6402 40.9743 57.7367Z" fill="#1A1A1A"/>
</svg>
