<svg width="75" height="86" viewBox="0 0 75 86" fill="none" xmlns="http://www.w3.org/2000/svg">
<path d="M7.72471 32.1379C15.6725 34.6996 22.2021 34.0941 25.564 34.0941C28.8353 34.0941 38.7714 32.6037 42.4462 30.4301C42.8728 30.1817 43.0607 29.6695 42.9607 29.1882C40.9421 19.3916 30.9702 12.5138 23.5407 13.2591C16.6891 13.9267 7.31722 19.3139 6.80598 30.8338C6.77963 31.4238 7.15973 31.9516 7.72471 32.1379Z" fill="#E24C0C"/>
<path d="M24.9307 12.0776C29.463 13.3737 34.9046 18.8775 36.0576 29.104L33.7441 29.3647C32.7977 20.9706 28.836 16.4583 25.5859 14.8286C25.421 18.7591 25.3589 25.5053 26.082 29.4272L23.792 29.8491C23.0379 25.7593 23.0895 19.0239 23.248 15.0073C19.6928 16.8062 15.0947 21.3769 15.0947 28.9712H12.7656C12.7656 18.875 19.9205 13.3431 24.291 12.0933L24.6084 13.2046L24.9307 12.0776Z" fill="#AA370D"/>
<path d="M23.4249 12.1001C27.5173 11.6899 32.1571 13.3729 35.9937 16.3499C39.847 19.34 43.0263 23.7365 44.1014 28.9507L44.1302 29.122C44.2433 29.977 43.8963 30.9274 43.037 31.4312L43.0385 31.4327C41.0074 32.6338 37.4203 33.5777 34.074 34.2209C30.6917 34.8709 27.3072 35.2579 25.5645 35.2579C22.2895 35.2579 15.5325 35.8778 7.36715 33.246L7.35957 33.2445C6.32321 32.9027 5.59251 31.9182 5.6431 30.7822C6.18777 18.5093 16.1908 12.8078 23.4249 12.1017V12.1001ZM34.5653 18.1905C31.0543 15.4662 26.9938 14.0837 23.6569 14.4183H23.6539C17.1851 15.0486 8.44694 20.1202 7.96913 30.8853C7.96721 30.9283 7.99512 30.9976 8.08437 31.0294C15.8136 33.5202 22.1159 32.9291 25.5645 32.9291C27.0934 32.929 30.3128 32.5729 33.6343 31.9345C36.9708 31.2932 40.1679 30.41 41.8209 29.445C41.821 29.4388 41.8223 29.4321 41.8209 29.4253L41.8194 29.4238C40.8754 24.8424 38.0594 20.9018 34.5653 18.1905Z" fill="#1A1A1A"/>
<path d="M4.69662 33.6128C4.60634 32.4949 4.68503 31.2373 4.83017 30.0885C5.03241 28.4893 6.66551 27.5888 8.24035 27.9304C18.2273 30.0419 33.8735 28.8776 42.384 27.8373C43.6371 27.6821 44.8479 28.3806 45.1111 29.6071C45.2899 30.4455 45.414 31.3304 45.5185 32.1377C45.7138 33.6592 44.7324 35.1808 43.2365 35.5068C30.6926 38.2548 18.5127 37.3855 6.68582 35.5535C5.65203 35.3982 4.77998 34.6685 4.69662 33.6128Z" fill="#E24C0C"/>
<path d="M19.5527 28.7227C19.5527 29.5382 19.4676 30.9107 19.3721 32.376C19.2749 33.8657 19.1635 35.4872 19.1064 36.8594L16.7812 36.7627C16.8397 35.3559 16.9516 33.7001 17.0479 32.2246C17.1456 30.7255 17.2236 29.444 17.2236 28.7227H19.5527ZM33.0977 28.7227C33.0977 29.444 33.1757 30.7255 33.2734 32.2246C33.3697 33.7001 33.4835 35.3559 33.542 36.7627L31.2139 36.8594C31.1568 35.4872 31.0474 33.8657 30.9502 32.376C30.8546 30.9106 30.7686 29.5383 30.7686 28.7227H33.0977ZM23.8906 28.6523C23.9396 29.4605 23.9351 30.834 23.9277 32.3008C23.9203 33.7924 23.9092 35.4178 23.9346 36.79L21.6055 36.832C21.5795 35.4256 21.5912 33.7671 21.5986 32.29C21.6062 30.7883 21.6077 29.5053 21.5645 28.792L23.8906 28.6523ZM28.7139 28.6523C28.7628 29.4605 28.7593 30.834 28.752 32.3008C28.7445 33.7924 28.7324 35.4178 28.7578 36.79L26.4297 36.832C26.4037 35.4256 26.4155 33.7671 26.4229 32.29C26.4304 30.7883 26.4319 29.5053 26.3887 28.792L28.7139 28.6523ZM37.4277 28.5781C37.5776 29.7771 37.9061 32.8384 38.0234 35.6602L35.6963 35.7568C35.5825 33.021 35.2623 30.0273 35.1172 28.8662L37.4277 28.5781ZM41.9102 28.5781C42.06 29.7771 42.3884 32.8384 42.5059 35.6602L40.1787 35.7568C40.0648 33.0209 39.7448 30.0273 39.5996 28.8662L41.9102 28.5781ZM10.7207 28.7109C10.5755 29.872 10.2554 32.8665 10.1416 35.6025L7.81543 35.5049C7.93277 32.6833 8.26021 29.6219 8.41016 28.4229L10.7207 28.7109ZM15.2041 28.7109C15.0589 29.872 14.7388 32.8665 14.625 35.6025L12.2988 35.5049C12.4162 32.6833 12.7426 29.6219 12.8926 28.4229L15.2041 28.7109Z" fill="#AA370D"/>
<path d="M42.2405 26.6819C43.967 26.468 45.8348 27.4305 46.2496 29.3625V29.364C46.3444 29.8082 46.4247 30.2619 46.4937 30.7058L46.6742 31.9885V31.99C46.9225 33.9263 45.7818 35.9135 43.8766 36.5385L43.4854 36.6446C30.7387 39.4369 18.396 38.5441 6.51301 36.7037C5.08639 36.4893 3.6737 35.4323 3.53648 33.7063C3.43736 32.4785 3.52407 31.134 3.67447 29.9432C3.98174 27.5135 6.40197 26.3461 8.47968 26.7926L8.48119 26.7911C18.2576 28.858 33.7276 27.7238 42.2405 26.6834V26.6819ZM42.5271 28.9925H42.5255C34.0169 30.0325 18.1969 31.2254 8.00052 29.0699L7.99445 29.0684C6.9243 28.8363 6.08234 29.4687 5.98533 30.2343C5.86298 31.2029 5.79439 32.2204 5.8337 33.1347L5.85796 33.5198V33.5213C5.88835 33.9054 6.21871 34.3059 6.85873 34.4022H6.8648C18.6338 36.2252 30.6491 37.0719 42.988 34.3688H42.9895C43.8422 34.1825 44.4882 33.2638 44.3633 32.2872C44.2853 31.6847 44.1997 31.0589 44.0904 30.4511L43.9721 29.8507C43.8599 29.3303 43.306 28.896 42.5271 28.9925Z" fill="#1A1A1A"/>
</svg>
