<svg width="75" height="86" viewBox="0 0 75 86" fill="none" xmlns="http://www.w3.org/2000/svg">
<path d="M43.551 31.6674L43.5277 31.669C40.4318 31.7544 36.1108 33.5958 30.7201 36.7492C26.0575 39.4772 20.732 43.1025 14.9019 47.1797L43.7668 50.9324C45.2915 47.9421 47.136 42.9535 47.622 38.7055C47.886 36.3967 47.7198 34.5444 47.1096 33.352C46.8208 32.79 46.4327 32.3708 45.9079 32.0882C45.3691 31.7978 44.6115 31.6146 43.551 31.6674Z" fill="#BDF182"/>
<path fill-rule="evenodd" clip-rule="evenodd" d="M59.1008 42.1602C60.3491 37.156 65.6777 35.2944 69.3901 38.5658C71.82 40.7054 72.5388 44.0979 71.7377 46.9361C71.5203 47.7093 71.7734 48.5679 72.3618 49.116C73.6754 50.3425 74.5262 52.0908 74.5262 54.1201C74.5262 59.7453 68.1294 62.9809 63.5988 59.6459L60.9919 57.7284C49.5847 71.1571 27.0995 85.2892 14.281 85.2892C0.675267 85.2892 -0.206636 63.2465 1.40034 48.2247C1.66584 45.7374 3.93734 44.0031 6.4231 44.2826L57.1522 49.9637L59.1008 42.1602Z" fill="#85E0A3"/>
<path fill-rule="evenodd" clip-rule="evenodd" d="M43.939 30.4939C44.9546 30.4983 45.7895 30.7009 46.4605 31.0625L46.459 31.064C47.1221 31.421 47.6229 31.9278 47.9935 32.5469L48.1451 32.8198L48.1466 32.8213L48.2831 33.1109C48.9304 34.5922 49.0339 36.6074 48.7789 38.8377L48.6682 39.6747C48.2102 42.7345 47.1514 46.0355 46.0466 48.7191L57.1516 49.9639L59.1015 42.1598C60.35 37.1561 65.6785 35.2952 69.3907 38.5663C71.8199 40.7059 72.5388 44.0981 71.7378 46.936C71.5205 47.7091 71.7742 48.5683 72.3625 49.1163C73.6756 50.3429 74.5261 52.0911 74.5262 54.1199L74.508 54.64C74.1408 59.7697 68.3784 62.6843 64.0292 59.9393L63.5986 59.6451L60.9922 57.7286C49.5851 71.1571 27.0999 85.289 14.2813 85.2893L13.6521 85.2727C0.648373 84.6012 -0.180944 63.0116 1.40087 48.2248C1.66647 45.7377 3.93714 44.0033 6.42267 44.2826L15.558 45.3045C20.8774 41.6003 25.7827 38.2894 30.1321 35.7446L31.1313 35.1669C36.0736 32.3563 40.2728 30.599 43.4826 30.506L43.4933 30.5045L43.939 30.4939ZM67.8517 40.313C66.6176 39.2265 65.2371 39.0576 64.0899 39.4579C62.9255 39.8647 61.8063 40.9338 61.3591 42.7239L59.4108 50.5265C59.1282 51.6599 58.0521 52.4066 56.8923 52.2777L6.16339 46.5964C4.89359 46.4553 3.83741 47.3341 3.71466 48.4719C2.92289 55.8808 2.77136 64.8454 4.40455 71.8615C5.22118 75.3718 6.44072 78.1912 8.07082 80.0947C9.63276 81.9175 11.6077 82.9604 14.2813 82.9604C20.0291 82.9602 28.3958 79.712 36.9628 74.5498C45.4448 69.4401 53.7095 62.7037 59.2167 56.2199L59.3729 56.0547C60.1264 55.3236 61.2816 55.1896 62.1825 55.7272L62.372 55.853L64.9784 57.7695C67.9703 59.9727 72.1972 57.8354 72.1972 54.1199C72.1972 52.7709 71.6382 51.628 70.772 50.8191C69.5703 49.6965 69.0326 47.9448 69.4968 46.3037L69.5938 45.908C70.0105 43.913 69.4174 41.6944 67.8517 40.313ZM43.6085 32.8304L43.607 32.8289L43.6055 32.8304C43.5905 32.8314 43.575 32.833 43.56 32.8334L43.0247 32.8668C40.46 33.1096 36.8836 34.5781 32.3049 37.179L31.3072 37.7536C27.6346 39.9024 23.5401 42.626 19.0833 45.7003L43.6252 48.4477C44.8591 45.5864 46.0923 41.8314 46.4651 38.5724C46.7208 36.3346 46.5237 34.7647 46.0724 33.8827C45.926 33.5987 45.7595 33.395 45.5629 33.2458L45.3552 33.1139L45.2278 33.0518C44.905 32.9096 44.3962 32.7912 43.6085 32.8304Z" fill="#1A1A1A"/>
<path d="M52.5674 57.3433C52.5674 60.8818 38.027 74.6381 31.8072 74.6381C25.5874 74.6381 24.5859 63.9017 24.5859 60.3617C24.5859 56.8232 26.4056 51.875 32.6255 51.875C38.8453 51.875 52.5674 53.8033 52.5674 57.3433Z" fill="#BDF182"/>
<path d="M36.6019 62.797C36.6017 60.1264 35.8558 58.7922 35.1523 58.1376C34.7549 57.7876 34.3189 57.7076 33.7923 57.8904C33.2155 58.0908 32.5756 58.5467 32.0243 59.1231L30.3413 60.885C29.8972 61.3496 29.1612 61.3665 28.6962 60.9229C28.2311 60.4787 28.2141 59.7414 28.6583 59.2763L30.6173 57.2369C31.2854 56.598 32.119 56.0061 33.0281 55.6904C34.1027 55.3172 35.3845 55.3113 36.4866 56.212L36.4851 56.2135C37.9269 57.3911 38.9307 59.486 38.9308 62.797C38.9308 64.8649 38.5515 66.8618 37.6162 68.7073C36.7521 70.2748 35.2593 70.8131 33.7968 70.6708C32.4052 70.5354 31.0167 69.8017 29.9607 68.8271L29.0388 67.9734C28.5666 67.537 28.5372 66.8006 28.9736 66.3283C29.41 65.8562 30.1465 65.8271 30.6188 66.2631L31.5422 67.1152C32.3198 67.8329 33.2513 68.279 34.0227 68.354C34.9448 68.4436 35.4065 67.9179 35.7831 67.1759C36.2485 66.1695 36.6019 64.7523 36.6019 62.797Z" fill="#1A1A1A"/>
<path d="M17.3745 68.8871C17.5692 68.4576 18.0365 68.2856 18.4185 68.5043C18.4193 68.5048 18.4212 68.5059 18.4234 68.5072C18.4283 68.51 18.437 68.515 18.4478 68.5209C18.4694 68.5328 18.5022 68.5499 18.5435 68.5717C18.6269 68.6157 18.7445 68.6763 18.8785 68.7377C19.1649 68.8691 19.4592 68.9761 19.6577 69.0023C19.8477 69.0274 20.1436 69.0037 20.438 68.9574C20.5756 68.9358 20.6976 68.9124 20.7847 68.894C20.8278 68.8848 20.8626 68.8768 20.8853 68.8715C20.896 68.869 20.9046 68.8659 20.9097 68.8647C20.9121 68.8641 20.9146 68.8648 20.9156 68.8647C21.3342 68.7605 21.7487 69.0578 21.8413 69.5287C21.9336 69.9995 21.669 70.4646 21.2505 70.5688L21.2466 70.5707C21.2441 70.5713 21.2399 70.5727 21.2359 70.5736L21.0728 70.6098C20.9677 70.6321 20.8211 70.6616 20.6538 70.6879C20.3375 70.7376 19.8748 70.7894 19.4761 70.7367C19.0576 70.6813 18.6014 70.4956 18.2925 70.3539C18.1292 70.279 17.9865 70.208 17.8853 70.1547C17.8349 70.1281 17.7933 70.1053 17.7642 70.0893C17.7499 70.0814 17.7374 70.0744 17.729 70.0697C17.7253 70.0676 17.7217 70.0662 17.7193 70.0648L17.7144 70.0609L17.5816 69.9662C17.2992 69.7133 17.2049 69.2631 17.3745 68.8871ZM19.9732 64.8969C20.8306 64.8969 21.5259 65.6793 21.5259 66.644C21.5257 67.6084 20.8305 68.39 19.9732 68.39C19.1158 68.39 18.4206 67.6084 18.4204 66.644C18.4204 65.6793 19.1157 64.8969 19.9732 64.8969Z" fill="#1A1A1A"/>
<path d="M10.1506 68.8871C9.95598 68.4574 9.48768 68.2854 9.10567 68.5042C9.10487 68.5049 9.10357 68.5061 9.10176 68.5072C9.09687 68.5099 9.08812 68.5149 9.07735 68.5208C9.0558 68.5327 9.02297 68.5499 8.98165 68.5716C8.89819 68.6156 8.78063 68.6762 8.64669 68.7376C8.36016 68.8691 8.06596 68.976 7.86739 69.0023C7.67745 69.0273 7.38153 69.0036 7.08712 68.9574C6.9496 68.9358 6.82749 68.9124 6.74044 68.8939C6.6971 68.8847 6.66153 68.8767 6.63887 68.8714C6.62837 68.869 6.62051 68.8658 6.61544 68.8646C6.61315 68.8641 6.61068 68.8648 6.60958 68.8646C6.19097 68.7604 5.77545 69.0577 5.68282 69.5287C5.59062 69.9993 5.85622 70.4645 6.27462 70.5687L6.27852 70.5706C6.28101 70.5713 6.28527 70.5726 6.28926 70.5736L6.45137 70.6097C6.55657 70.6321 6.70373 70.6615 6.8713 70.6878C7.18771 70.7375 7.6503 70.7894 8.04903 70.7367C8.46757 70.6813 8.92373 70.4955 9.23262 70.3539C9.39607 70.2789 9.53859 70.208 9.63985 70.1546C9.69026 70.1281 9.73189 70.1052 9.76094 70.0892C9.77531 70.0813 9.7878 70.0743 9.7961 70.0697C9.7999 70.0675 9.80346 70.0661 9.80587 70.0648L9.81075 70.0609L9.94258 69.9662C10.225 69.7133 10.3203 69.2631 10.1506 68.8871ZM7.55196 64.8968C6.69446 64.8968 5.99923 65.6792 5.99923 66.6439C5.9994 67.6084 6.69457 68.39 7.55196 68.39C8.40928 68.3899 9.10452 67.6084 9.10469 66.6439C9.10469 65.6793 8.40939 64.8969 7.55196 64.8968Z" fill="#1A1A1A"/>
<path d="M17.4209 74.1596H10.4209L13.9209 68.9096L17.4209 74.1596Z" fill="#FFAFA3"/>
<path d="M17.4216 75.3241C17.8508 75.3239 18.2455 75.087 18.4481 74.7085C18.6503 74.33 18.6284 73.8708 18.3904 73.5137L14.8894 68.2629C14.6734 67.9394 14.3096 67.7444 13.9206 67.7444C13.5315 67.7445 13.1676 67.9393 12.9517 68.2629L9.4522 73.5137C9.21406 73.8709 9.19216 74.3299 9.39458 74.7085C9.59722 75.0871 9.99163 75.3241 10.4211 75.3241H17.4216ZM13.9206 71.0104L15.2458 72.9951H12.5969L13.9206 71.0104Z" fill="#1A1A1A"/>
</svg>
