<svg width="75" height="86" viewBox="0 0 75 86" fill="none" xmlns="http://www.w3.org/2000/svg">
<path d="M40.3483 49.2933C43.5761 49.2933 46.1927 46.6772 46.1927 43.4495C46.1927 42.2665 46.1911 41.2387 45.761 39.2902C45.3415 37.3899 44.5144 34.6077 42.8951 29.8647C42.0637 27.4303 38.6318 27.4257 37.7975 29.8616C36.1801 34.586 35.3539 37.3697 34.9349 39.2763C34.5056 41.2294 34.5039 42.268 34.5039 43.4495C34.5039 46.6772 37.1205 49.2933 40.3483 49.2933Z" fill="#007BE5"/>
<path d="M33.3398 43.45C33.3398 42.2287 33.3429 41.0952 33.7978 39.0259C34.2318 37.0507 35.0776 34.2147 36.697 29.4847C37.8915 25.9968 42.8085 26.0056 43.998 29.4878L41.7933 30.2413C41.32 28.8554 39.3745 28.8552 38.9002 30.2382C37.2848 34.9567 36.4761 37.6884 36.0722 39.5262C35.6685 41.363 35.6689 42.3084 35.6689 43.45C35.6692 46.0342 37.764 48.1286 40.3483 48.1289C42.9327 48.1289 45.0288 46.0344 45.0291 43.45C45.0291 42.3073 45.0286 41.3732 44.6243 39.5414C44.2197 37.709 43.4108 34.979 41.7933 30.2413L43.998 29.4878C45.6189 34.2354 46.4642 37.0715 46.8987 39.0395C47.3545 41.1043 47.3582 42.2268 47.3582 43.45C47.3579 47.3207 44.219 50.4577 40.3483 50.4577C36.4778 50.4575 33.3401 47.3205 33.3398 43.45Z" fill="#1A1A1A"/>
<path d="M43.1632 36.0614C44.4683 40.7716 44.4215 43.4315 43.9581 44.7713C43.1632 47.0704 38.546 48.1039 38.546 46.2782C38.5462 44.6871 41.4639 46.135 42.4278 44.5701C43.5827 42.6964 43.3051 40.8504 43.1632 36.0614ZM39.6085 30.4578C40.0934 30.6115 38.8524 39.8058 37.5391 39.6102C36.7365 39.4875 39.039 30.4607 39.6085 30.4578Z" fill="#BDE3FF"/>
</svg>
