<svg width="75" height="86" viewBox="0 0 75 86" fill="none" xmlns="http://www.w3.org/2000/svg">
<path d="M67.1116 82.7243C53.8276 79.293 18.7578 61.655 3.10547 48.4576C3.10547 48.4576 14.3856 44.4986 29.1574 40.8344C43.9289 37.1546 54.7376 34.158 54.7376 34.158C60.4134 43.2564 67.3321 66.7476 70.0253 79.7121C70.4157 81.6063 68.971 83.2056 67.1116 82.7243Z" fill="#FFE8A3"/>
<path d="M55.7248 33.5424C58.6466 38.2262 61.8324 46.4977 64.6085 55.1291C67.0467 62.7102 69.1996 70.6662 70.6082 76.9099L71.1647 79.4754C71.4313 80.7685 71.0815 82.0366 70.258 82.9082C69.42 83.7948 68.157 84.1976 66.8191 83.8513C60.0389 82.0997 47.8508 76.7791 35.4557 70.2855C23.048 63.7852 10.2786 56.0289 2.3546 49.3477L0.795898 48.0346L2.72001 47.3584C2.72156 47.3578 2.72619 47.3563 2.72911 47.3553C2.73492 47.3533 2.74389 47.3501 2.75488 47.3462C2.77732 47.3384 2.81012 47.3264 2.85344 47.3114C2.9411 47.281 3.07144 47.2362 3.2416 47.1779C3.58187 47.0615 4.08322 46.8913 4.73055 46.6761C6.02549 46.2454 7.90515 45.6346 10.2466 44.9081C14.9286 43.4555 21.4631 41.543 28.8752 39.7044C36.2537 37.8663 42.6428 36.1983 47.1868 34.9904C49.4587 34.3865 51.2697 33.8985 52.5119 33.5606C53.1329 33.3916 53.6121 33.2598 53.9356 33.1709C54.0973 33.1265 54.2202 33.092 54.3026 33.0693C54.3433 33.0581 54.3744 33.0507 54.395 33.045C54.4054 33.0422 54.4142 33.0389 54.4193 33.0375C54.4213 33.0369 54.4227 33.0362 54.4239 33.0359H54.4269L55.2654 32.804L55.7248 33.5424ZM53.1229 35.8076C51.8769 36.1466 50.0622 36.6369 47.7857 37.242C43.2327 38.4523 36.8317 40.122 29.4392 41.9636L29.4377 41.9651L29.1572 40.834L29.048 40.3958L29.4377 41.9651C22.0786 43.7905 15.5873 45.6895 10.9365 47.1324C8.61275 47.8534 6.74903 48.4591 5.46744 48.8852C13.2646 55.0996 25.0004 62.1781 36.5368 68.2218C48.1367 74.2989 59.3986 79.2596 66.1201 81.2403L67.4029 81.5966C67.9244 81.7316 68.3142 81.5748 68.5658 81.3085C68.8313 81.0273 69.0076 80.5485 68.8843 79.9485C67.5472 73.5121 65.1566 64.4384 62.3917 55.8417C59.7647 47.6738 56.8329 40.0508 54.1919 35.515C53.904 35.5938 53.5462 35.6925 53.1229 35.8076Z" fill="#1A1A1A"/>
<path d="M51.7812 51.2427C55.3616 51.2427 58.2646 53.5202 58.2646 56.3296C58.2645 59.1389 55.3615 61.4165 51.7812 61.4165C48.2012 61.4163 45.299 59.1388 45.2988 56.3296C45.2988 53.5203 48.2011 51.2428 51.7812 51.2427ZM29.498 49.7056C32.9269 49.7056 35.7069 52.0175 35.707 54.8696C35.707 57.7218 32.927 60.0337 29.498 60.0337C26.0691 60.0337 23.2891 57.7218 23.2891 54.8696C23.2892 52.0175 26.0692 49.7056 29.498 49.7056ZM45.2988 36.4302C48.879 36.4303 51.7812 38.7078 51.7812 41.5171C51.7812 44.3264 48.8791 46.6039 45.2988 46.604C41.7185 46.604 38.8154 44.3265 38.8154 41.5171C38.8155 38.7078 41.7185 36.4302 45.2988 36.4302Z" fill="#BD2915"/>
<path d="M31.0201 31.7355C25.1618 33.3968 9.98032 39.592 3.10547 43.132L8.0996 53.0688C15.8684 49.5599 30.102 44.2188 32.5727 43.5201C34.977 42.837 48.5929 39.0485 55.6321 37.0922C55.9996 36.999 56.3188 36.7661 56.4913 36.4245C57.0785 35.26 57.7132 33.2726 57.2533 31.7355C56.7998 30.1984 55.5976 28.9253 54.7451 28.2576C54.4726 28.0403 54.1231 27.9628 53.7793 28.0093C48.2203 28.6149 36.6912 30.1208 31.0201 31.7355Z" fill="#D4693B"/>
<path d="M53.6538 26.8546C54.2588 26.78 54.926 26.912 55.4717 27.3474L55.4702 27.3489C56.4189 28.094 57.8205 29.5468 58.3693 31.4019L58.4663 31.7885C58.655 32.6983 58.5753 33.6403 58.4042 34.4586C58.2059 35.406 57.863 36.2893 57.5308 36.9483L56.0995 36.2265L56.9364 36.6496L57.5308 36.9483V36.9498L57.3898 37.1909C57.0391 37.721 56.5059 38.0624 55.9418 38.2113L55.9433 38.2143C48.9014 40.1714 35.2903 43.9582 32.8904 44.6402H32.8888C30.4954 45.3171 16.3221 50.6329 8.57893 54.1303C8.0101 54.3872 7.34017 54.1496 7.05966 53.5921L2.06516 43.6546C1.77859 43.0842 2.00438 42.39 2.57158 42.0974C9.49772 38.531 24.751 32.3025 30.7009 30.6149C36.4821 28.9689 48.1096 27.4555 53.6538 26.8516V26.8546ZM53.9055 29.1669L51.5629 29.4353C45.5648 30.1504 36.2051 31.4705 31.3392 32.8559L30.986 31.6172L31.3377 32.8559C25.845 34.4136 11.8802 40.0792 4.66854 43.6501L8.6411 51.5527C16.6 48.043 29.8124 43.0901 32.255 42.3992C34.6662 41.7141 48.2845 37.9256 55.3201 35.9703L55.6309 37.0923H55.6325L55.3201 35.9703C55.3286 35.9679 55.3373 35.9664 55.3459 35.9642C55.4259 35.9439 55.4488 35.9055 55.452 35.899C55.7067 35.3937 55.9744 34.7018 56.1252 33.981C56.2788 33.247 56.2904 32.5804 56.1374 32.069L56.1359 32.0644C55.8228 31.0043 55.0211 30.0395 54.3194 29.4186L54.0268 29.1745L54.0192 29.1684L54.0086 29.1654C53.9958 29.1622 53.9713 29.1591 53.9358 29.1639C53.9258 29.1652 53.9155 29.1658 53.9055 29.1669Z" fill="#1A1A1A"/>
<path d="M8.83147 47.1378C9.75303 50.2431 8.9055 52.8981 7.05176 53.4105C5.19802 53.9229 2.5902 52.1994 1.66862 49.0941C0.747057 45.9889 1.50263 43.07 3.35638 42.5576C5.21011 42.0452 7.90989 44.0325 8.83147 47.1378Z" fill="#864E37"/>
<path d="M3.04672 41.4357C4.47945 41.04 6.00043 41.642 7.17242 42.5835C8.38053 43.5541 9.41955 45.0289 9.94714 46.8062C10.4576 48.5262 10.5032 50.2001 10.0988 51.5748C9.69461 52.9482 8.79073 54.1381 7.36195 54.533C5.9764 54.916 4.49191 54.4322 3.30903 53.5383C2.10291 52.6267 1.08077 51.2048 0.552503 49.4248C0.0430218 47.7077 -0.0226196 45.984 0.344778 44.5622C0.705977 43.1646 1.56149 41.8462 3.04672 41.4357ZM5.71379 44.3984C4.8427 43.6988 4.0877 43.5637 3.66686 43.6797C3.2985 43.7815 2.84913 44.1787 2.59943 45.1444C2.35608 46.0862 2.37271 47.3745 2.78441 48.7622C3.17772 50.0874 3.92146 51.0811 4.71307 51.6794C5.52784 52.2953 6.27384 52.4168 6.7418 52.2874C7.16649 52.1698 7.61278 51.7762 7.86534 50.9183C8.11758 50.0611 8.1263 48.854 7.71523 47.4688C7.32117 46.1412 6.54924 45.0696 5.71379 44.3984Z" fill="#1A1A1A"/>
<path d="M56.8187 74.3087C57.2785 74.758 58.0158 74.7502 58.4653 74.2905C58.9146 73.8306 58.9053 73.0934 58.4456 72.6439L55.3631 69.6296C54.9105 69.1871 54.1872 69.1871 53.7346 69.6296L50.6521 72.6439L50.5717 72.7318C50.1937 73.1849 50.2124 73.8594 50.6339 74.2905C51.0555 74.7215 51.7296 74.7555 52.1911 74.3875L52.2805 74.3087L54.5488 72.0904L56.8187 74.3087Z" fill="#1A1A1A"/>
<path d="M60.5507 66.7571C61.4209 66.7573 62.1259 67.4348 62.1259 68.2708C62.1259 69.1067 61.4209 69.7843 60.5507 69.7844C59.6803 69.7844 58.9745 69.1068 58.9745 68.2708C58.9745 67.4347 59.6803 66.7571 60.5507 66.7571ZM62.1698 62.7004C62.8138 62.3726 63.588 62.4871 63.8984 62.9553C64.2083 63.4234 63.9391 64.0688 63.2958 64.3967L63.2919 64.3977C63.2908 64.3983 63.2898 64.3997 63.288 64.4006C63.2831 64.4032 63.2741 64.4066 63.2646 64.4114C63.2454 64.4211 63.2175 64.4361 63.1816 64.4544C63.1089 64.4913 63.0037 64.5448 62.8739 64.6106C62.6139 64.7424 62.2537 64.9247 61.8554 65.1253C61.0631 65.5241 60.1011 66.0043 59.4696 66.3069L59.3466 66.3596C58.7232 66.6011 58.0346 66.4555 57.7626 66.0071C57.4726 65.5288 57.7666 64.8866 58.4198 64.5735L59.5087 64.0413C59.9158 63.8391 60.348 63.622 60.745 63.4221C61.1397 63.2235 61.4968 63.0431 61.7548 62.9124L62.1425 62.7151C62.1517 62.7104 62.1593 62.7068 62.164 62.7044C62.1658 62.7034 62.1668 62.7021 62.1679 62.7014L62.1698 62.7004Z" fill="#1A1A1A"/>
<path d="M48.1544 66.7565C47.2842 66.7565 46.5785 67.4343 46.5782 68.2702C46.5782 69.1063 47.284 69.7848 48.1544 69.7848C49.0246 69.7847 49.7296 69.1062 49.7296 68.2702C49.7293 67.4344 49.0244 66.7567 48.1544 66.7565ZM46.5342 62.7009C45.8905 62.3732 45.1173 62.4869 44.8067 62.9548C44.4964 63.4229 44.7657 64.0682 45.4092 64.3962L45.4122 64.3971C45.4134 64.3977 45.4151 64.4 45.4171 64.401C45.422 64.4035 45.4304 64.4071 45.4395 64.4118C45.4587 64.4216 45.4876 64.4355 45.5235 64.4538C45.5962 64.4908 45.7013 64.5452 45.8311 64.611C46.0912 64.7429 46.4515 64.9242 46.8497 65.1247C47.6419 65.5235 48.603 66.0038 49.2344 66.3063L49.3575 66.3591C49.9807 66.6005 50.6693 66.4555 50.9415 66.0075C51.2315 65.5292 50.9375 64.887 50.2842 64.5739L49.1954 64.0407C48.7882 63.8385 48.356 63.6224 47.9591 63.4225C47.5646 63.224 47.2082 63.0435 46.9503 62.9128L46.5626 62.7145C46.5534 62.7098 46.5458 62.7062 46.5411 62.7038C46.5391 62.7027 46.5373 62.7014 46.5362 62.7009H46.5342Z" fill="#1A1A1A"/>
</svg>
