<svg width="75" height="86" viewBox="0 0 75 86" fill="none" xmlns="http://www.w3.org/2000/svg">
<path d="M60.0716 63.6581C60.0716 70.1729 57.4445 75.278 53.2183 78.7745C48.9687 82.2897 43.0377 84.2304 36.3939 84.2304C29.7518 84.2304 23.8192 82.2897 19.5696 78.7745C15.3434 75.278 12.7163 70.1729 12.7163 63.6581C12.7163 57.4367 16.9674 53.8268 22.2339 49.644C22.3877 49.5214 22.5429 49.3987 22.6966 49.276C27.7287 45.2873 33.4284 40.7692 35.2263 32.9393C35.7154 30.8153 36.9498 29.9645 37.8782 29.9148C38.7477 29.8698 40.0721 30.5094 40.7988 33.0029C43.0408 40.6993 47.7934 45.4085 51.9265 49.5059C52.0973 49.6735 52.2665 49.8412 52.4342 50.0089C56.7319 54.2771 60.0716 57.8668 60.0716 63.6581Z" fill="#33293D"/>
<path d="M58.907 63.658C58.907 58.4058 55.9389 55.1304 51.6139 50.8351L51.6109 50.8321C51.4458 50.667 51.2788 50.5015 51.1105 50.3363L51.106 50.3332L49.526 48.7563C45.7787 44.968 41.7242 40.3422 39.6811 33.3286C39.0458 31.1485 38.0812 31.0699 37.9389 31.077C37.6825 31.0917 36.7714 31.4167 36.3605 33.2012C34.4587 41.4809 28.4149 46.2294 23.4194 50.1892L23.4179 50.1877C23.341 50.249 23.2647 50.3125 23.1889 50.3727C23.1117 50.434 23.0353 50.4945 22.96 50.5546L22.9584 50.5561L22.2337 49.6433L21.941 49.2764L22.9584 50.5561C17.6207 54.7955 13.8807 58.0759 13.8807 63.658C13.8807 69.8282 16.3556 74.6035 20.3126 77.8773C24.3153 81.188 29.9691 83.0659 36.3939 83.0659C42.8205 83.0659 48.4739 81.1883 52.4766 77.8773C56.4334 74.6035 58.907 69.828 58.907 63.658ZM61.236 63.658C61.236 70.5171 58.4562 75.9517 53.961 79.671C49.4647 83.3903 43.2547 85.3948 36.3939 85.3948C29.5346 85.3948 23.3231 83.3903 18.8267 79.671C14.3316 75.9517 11.5518 70.5171 11.5518 63.658C11.5518 56.7974 16.3138 52.8582 21.5089 48.7321C21.5864 48.6703 21.6645 48.6093 21.7409 48.5486C21.8183 48.4871 21.8943 48.4254 21.9699 48.3652L21.9729 48.3636C27.0412 44.3462 32.3962 40.0573 34.0907 32.6781H34.0922C34.6587 30.218 36.2136 28.8383 37.8161 28.7526L37.8176 28.7511C39.4162 28.6683 41.0988 29.8729 41.916 32.6766C44.0643 40.0512 48.6051 44.5733 52.742 48.6745C52.9142 48.8436 53.0852 49.0131 53.2545 49.1824C57.5248 53.4234 61.236 57.3276 61.236 63.658Z" fill="#1A1A1A"/>
<path d="M40.7973 33.0029C40.8113 33.0495 40.8268 33.0929 40.8454 33.1364L44.6509 42.0082L42.5937 41.5114C42.0767 41.3872 41.5425 41.6277 41.2926 42.0966L39.2167 45.9906C39.063 46.281 38.6407 46.2608 38.5165 45.9565L36.2186 40.4105C36.0385 39.9758 35.6146 39.6917 35.1426 39.6917C34.0061 39.6917 33.1382 39.6917 32.0591 39.7926C32.3168 39.2787 32.604 38.6995 32.899 38.1002C33.8306 36.206 34.8973 33.9702 35.2 33.0371C35.2109 33.0045 35.2187 32.9719 35.2264 32.9393C35.7139 30.8153 36.9498 29.9645 37.8783 29.9148C38.7462 29.8698 40.0706 30.5094 40.7973 33.0029Z" fill="#678E79"/>
<path d="M37.8175 28.7511C39.4132 28.6683 41.0933 29.8708 41.9113 32.6675H41.9129C41.9137 32.6704 41.9135 32.6737 41.9144 32.6766H41.9159L45.7201 41.5497C45.8938 41.9547 45.824 42.4229 45.5397 42.7596C45.2553 43.0961 44.8051 43.2436 44.3767 43.1402L42.3207 42.6429L42.3192 42.6444L40.2435 46.5381C39.6293 47.6926 37.9417 47.6197 37.4399 46.4016L35.1428 40.8567C34.0026 40.8567 33.1854 40.8571 32.168 40.9523C31.7468 40.9916 31.3364 40.7994 31.0975 40.4504C30.8588 40.1011 30.8277 39.6489 31.0171 39.2707C31.2732 38.7602 31.56 38.1836 31.8541 37.5862L32.5667 36.1215C33.266 34.6656 33.8875 33.3036 34.0906 32.6781C34.6556 30.2168 36.2141 28.8383 37.816 28.7526L37.8175 28.7511ZM37.9388 31.077C37.6818 31.0918 36.7697 31.4166 36.3604 33.1997L36.3589 33.2088C36.3531 33.2332 36.3337 33.3099 36.3058 33.3953L36.3073 33.3968C35.9767 34.4155 34.8858 36.6916 33.9799 38.5354C34.3532 38.5305 34.7344 38.5278 35.1428 38.5278C36.0862 38.528 36.9343 39.0961 37.2944 39.9652L38.9622 43.9908L40.2647 41.5481C40.7323 40.6715 41.6988 40.1932 42.6679 40.3397L39.775 33.5955C39.7373 33.5076 39.7063 33.4221 39.6809 33.3377L39.6794 33.3286C39.0439 31.1475 38.0787 31.07 37.9388 31.077Z" fill="#1A1A1A"/>
<path d="M40.3877 71.5825H33.3877L36.8877 66.3325L40.3877 71.5825Z" fill="#FFAFA3"/>
<path d="M40.3884 72.7471C40.8176 72.7469 41.2123 72.51 41.4149 72.1315C41.6171 71.753 41.5952 71.2938 41.3572 70.9367L37.8562 65.6859C37.6402 65.3624 37.2764 65.1674 36.8874 65.1674C36.4983 65.1675 36.1344 65.3623 35.9185 65.6859L32.419 70.9367C32.1809 71.2939 32.159 71.7529 32.3614 72.1315C32.564 72.5101 32.9584 72.7471 33.3879 72.7471H40.3884ZM36.8874 68.4334L38.2126 70.4181H35.5637L36.8874 68.4334Z" fill="#D9D9D9"/>
<path d="M41.0437 66.3457C41.2763 65.8896 41.8354 65.7063 42.2918 65.9385C42.2928 65.939 42.2949 65.941 42.2976 65.9424C42.3035 65.9453 42.3132 65.9508 42.3259 65.957C42.3517 65.9697 42.3917 65.9875 42.4412 66.0107C42.5408 66.0574 42.6808 66.1213 42.8406 66.1865C43.1831 66.3262 43.5349 66.4408 43.7722 66.4688C43.9993 66.4953 44.3531 66.47 44.7048 66.4209C44.8692 66.3979 45.0149 66.3732 45.1189 66.3535C45.1707 66.3437 45.2129 66.3347 45.24 66.3291C45.2526 66.3265 45.2622 66.3236 45.2683 66.3223C45.2711 66.3217 45.2739 66.3215 45.2752 66.3213C45.7754 66.2106 46.2719 66.5271 46.3826 67.0273C46.4928 67.5274 46.1756 68.0222 45.6755 68.1328L45.6707 68.1348C45.6677 68.1354 45.6627 68.1357 45.658 68.1367L45.4636 68.1758C45.338 68.1995 45.1627 68.2308 44.9627 68.2588C44.5847 68.3116 44.0318 68.3674 43.5554 68.3115C43.0552 68.2527 42.5095 68.0538 42.1404 67.9033C41.9452 67.8237 41.775 67.749 41.6541 67.6924C41.5939 67.6642 41.5443 67.6401 41.5095 67.623C41.4921 67.6145 41.4765 67.6065 41.4666 67.6016C41.4621 67.5993 41.4576 67.5981 41.4548 67.5967L41.45 67.5928L41.2918 67.4922C40.9542 67.2236 40.8409 66.7452 41.0437 66.3457ZM44.1492 62.1074C45.1739 62.1075 46.0047 62.9382 46.0047 63.9629C46.0046 64.9875 45.1738 65.8183 44.1492 65.8184C43.1245 65.8184 42.2938 64.9875 42.2937 63.9629C42.2937 62.9382 43.1245 62.1074 44.1492 62.1074Z" fill="#D9D9D9"/>
<path d="M31.7439 66.3457C31.5114 65.8895 30.9522 65.7064 30.4958 65.9385C30.4948 65.939 30.4927 65.941 30.49 65.9424C30.4842 65.9453 30.4744 65.9508 30.4617 65.957C30.4359 65.9697 30.396 65.9875 30.3464 66.0107C30.2468 66.0574 30.1069 66.1213 29.947 66.1865C29.6045 66.3262 29.2527 66.4408 29.0154 66.4688C28.7884 66.4954 28.4346 66.47 28.0828 66.4209C27.9185 66.398 27.7727 66.3731 27.6687 66.3535C27.6169 66.3437 27.5747 66.3347 27.5476 66.3291C27.5349 66.3265 27.5254 66.3236 27.5193 66.3223C27.5162 66.3216 27.5126 66.3215 27.5115 66.3213C27.0114 66.211 26.5157 66.5273 26.405 67.0273C26.2948 67.5273 26.6112 68.0221 27.1111 68.1328L27.1169 68.1348C27.1198 68.1354 27.1242 68.1358 27.1287 68.1367L27.324 68.1758C27.4496 68.1995 27.6249 68.2308 27.8249 68.2588C28.203 68.3116 28.7557 68.3675 29.2322 68.3115C29.7324 68.2527 30.278 68.0538 30.6472 67.9033C30.8424 67.8237 31.0126 67.749 31.1335 67.6924C31.1937 67.6642 31.2433 67.6401 31.2781 67.623C31.2954 67.6146 31.3101 67.6065 31.3201 67.6016C31.3246 67.5993 31.3289 67.5981 31.3318 67.5967L31.3376 67.5928L31.4958 67.4922C31.8334 67.2236 31.9467 66.7452 31.7439 66.3457ZM28.6384 62.1074C27.6137 62.1074 26.7829 62.9382 26.7829 63.9629C26.783 64.9876 27.6137 65.8184 28.6384 65.8184C29.663 65.8182 30.4938 64.9875 30.4939 63.9629C30.4939 62.9383 29.663 62.1075 28.6384 62.1074Z" fill="#D9D9D9"/>
</svg>
