<svg width="75" height="86" viewBox="0 0 75 86" fill="none" xmlns="http://www.w3.org/2000/svg">
<path d="M28.4358 26.4103C28.0781 25.1816 26.7811 24.434 25.5387 24.7405C24.2962 25.047 23.579 26.2914 23.9366 27.5201L30.4044 49.7419C30.762 50.9706 32.0591 51.7182 33.3015 51.4117C34.5439 51.1052 35.2612 49.8608 34.9036 48.6321L28.4358 26.4103Z" fill="#383838"/>
<path d="M17.0791 37.7166L19.6021 40.356C20.9762 41.7953 23.2741 41.7953 24.6482 40.356C26.0223 38.9183 28.3202 38.9183 29.6942 40.356C31.0683 41.7953 33.3662 41.7953 34.7403 40.356C36.1144 38.9183 38.4123 38.9183 39.7863 40.356L39.9012 40.4755C41.2132 41.8496 43.4055 41.8496 44.7175 40.4755L44.9333 40.2505C46.2142 38.9106 48.3848 39.0083 49.54 40.4585C50.6361 41.8357 52.6654 42.0064 53.9759 40.8311L57.4475 37.7166L52.7151 79.2728C52.5365 80.8409 51.209 82.0271 49.63 82.0271H24.1094C22.5071 82.0271 21.1687 80.8083 21.0166 79.2153L17.0791 37.7166Z" fill="#B3B3B3"/>
<path d="M39.6207 75.699L36.9229 74.1614L34.1568 79.0146L36.8547 80.5522L39.6207 75.699Z" fill="#D9D9D9"/>
<path d="M42.7262 66.7793L40.0283 65.2417L37.2623 70.0949L39.9601 71.6325L42.7262 66.7793Z" fill="#D9D9D9"/>
<path d="M44.0019 75.0469L40.9785 74.3384L39.7039 79.7771L42.7273 80.4857L44.0019 75.0469Z" fill="#D9D9D9"/>
<path d="M45.2551 66.7635L43.6162 69.4011L48.3611 72.3494L49.9999 69.7118L45.2551 66.7635Z" fill="#D9D9D9"/>
<path d="M50.1642 60.5519L47.4229 62.0105L50.0467 66.942L52.7881 65.4835L50.1642 60.5519Z" fill="#D9D9D9"/>
<path d="M47.8304 73.3549L45.3691 75.2483L48.7753 79.6758L51.2365 77.7824L47.8304 73.3549Z" fill="#D9D9D9"/>
<path d="M27.7513 70.6294L26.2256 73.334L31.0909 76.0786L32.6167 73.374L27.7513 70.6294Z" fill="#D9D9D9"/>
<path d="M24.616 64.0799L21.7363 65.2417L23.8264 70.4221L26.7061 69.2602L24.616 64.0799Z" fill="#D9D9D9"/>
<path d="M34.9031 66.0474L31.7988 65.9683L31.6564 71.5527L34.7607 71.6318L34.9031 66.0474Z" fill="#D9D9D9"/>
<path d="M26.5029 74.2305L23.5361 75.1475L25.1857 80.4845L28.1525 79.5675L26.5029 74.2305Z" fill="#D9D9D9"/>
<path d="M59.961 29.9534H14.565C13.3808 29.9534 12.4209 30.9133 12.4209 32.0974C12.4209 33.2816 13.3808 34.2415 14.565 34.2415H59.961C61.1452 34.2415 62.1051 33.2816 62.1051 32.0974C62.1051 30.9133 61.1452 29.9534 59.961 29.9534Z" fill="#1A1A1A"/>
<path d="M58.1281 31.894C59.2761 31.894 60.19 32.8862 60.0568 34.0501V34.0517C58.8796 44.2023 56.5222 64.3428 55.0411 77.2752C54.615 81.0043 51.4597 83.8177 47.707 83.8177H26.604C23.3985 83.8177 20.5857 81.7022 20.0462 78.4305C18.4363 68.6756 15.837 46.6734 14.4604 34.0335H14.4589L14.4482 33.8166C14.4495 32.7448 15.3307 31.894 16.3905 31.894H58.1281ZM16.8227 34.223C18.2119 46.9348 20.7654 68.4815 22.3448 78.0515C22.681 80.0898 24.4249 81.4888 26.604 81.4888H47.707C50.2764 81.4888 52.4343 79.5623 52.7258 77.0098H52.7273C54.1875 64.2599 56.4988 44.5015 57.6915 34.223H16.8227Z" fill="#1A1A1A"/>
<rect x="31.7891" y="57.718" width="12.5461" height="5.4761" fill="white"/>
<path d="M42.1318 56.6396C44.2396 56.6401 45.9471 58.3482 45.9473 60.4561C45.9471 62.5639 44.2396 64.273 42.1318 64.2734H33.9922C31.8842 64.2733 30.1759 62.5641 30.1758 60.4561C30.1759 58.3481 31.8842 56.6398 33.9922 56.6396H42.1318ZM39.2256 62.4102H40.5557V58.501H39.2256V62.4102ZM35.5674 62.4102H36.8965L36.8975 58.501H35.5674V62.4102ZM33.2383 58.6523C32.5333 58.9476 32.0382 59.6442 32.0381 60.4561C32.0382 61.2678 32.5334 61.9636 33.2383 62.2588V58.6523ZM42.8848 62.2588C43.5898 61.9637 44.0858 61.268 44.0859 60.4561C44.0858 59.6441 43.5899 58.9475 42.8848 58.6523V62.2588Z" fill="#1A1A1A"/>
<path d="M46.7268 50.6341C47.3358 50.4853 47.9936 50.7442 48.2861 51.2833C48.5787 51.8234 48.408 52.4655 47.9111 52.8237L47.6787 52.9569L46.2926 53.593L47.5788 54.3679L47.7929 54.5273C48.2407 54.9365 48.3312 55.593 47.9722 56.0978C47.613 56.6027 46.922 56.7889 46.3355 56.5744L46.0929 56.458L42.8316 54.4898C42.4258 54.2448 42.1918 53.8194 42.2201 53.3734C42.2488 52.9273 42.5356 52.5278 42.9702 52.3283L46.4679 50.7241L46.7268 50.6341Z" fill="#1A1A1A"/>
<path d="M28.4099 50.6341C27.801 50.4853 27.1431 50.7442 26.8506 51.2833C26.558 51.8234 26.7287 52.4655 27.2256 52.8237L27.458 52.9569L28.8441 53.593L27.5579 54.3679L27.3439 54.5273C26.8961 54.9365 26.8055 55.593 27.1645 56.0978C27.5238 56.6027 28.2148 56.7889 28.8013 56.5744L29.0438 56.458L32.3051 54.4898C32.711 54.2448 32.9449 53.8194 32.9166 53.3734C32.8879 52.9273 32.6011 52.5278 32.1665 52.3283L28.6688 50.7241L28.4099 50.6341Z" fill="#1A1A1A"/>
</svg>
