<svg width="75" height="86" viewBox="0 0 75 86" fill="none" xmlns="http://www.w3.org/2000/svg">
<path d="M50.6191 75.0807C50.8711 75.3027 51.0156 75.621 51.0156 75.9563V83.9198H61.5207C63.7668 79.2029 67.7312 68.2506 67.7312 57.4751C67.7312 43.7635 54.1257 30.354 38.1313 30.354C30.0874 30.354 21.4229 33.0401 14.7912 38.419C8.18839 43.7745 3.57275 51.8163 3.57275 62.6588C3.57275 73.7889 5.88082 78.5927 8.42204 80.7105C10.6291 82.5488 13.2271 82.5985 15.6683 82.5768V76.6473C14.668 76.7094 13.5438 76.714 12.5444 76.551C10.9313 76.2891 9.26835 75.3859 9.26835 73.5373C9.26835 70.5672 10.6575 68.7459 12.3638 67.7321C13.9876 66.7663 15.822 66.5654 16.8327 66.5654C17.8481 66.5654 20.4632 66.6388 22.7678 69.2055C24.919 71.6012 26.6249 75.9796 26.7761 83.9198H36.9668V75.9563C36.9668 75.621 37.112 75.3011 37.365 75.0791C37.8248 74.6786 38.34 74.813 38.8708 74.8757C39.2392 74.9207 39.7548 74.9797 40.3433 75.0387C41.5314 75.1583 42.9736 75.2701 44.0955 75.2623C45.1827 75.2546 46.5754 75.1412 47.7189 75.0263C48.2858 74.9704 48.7825 74.913 49.1372 74.8711C49.6603 74.8069 50.1677 74.6858 50.6191 75.0807Z" fill="#FFCD29"/>
<path fill-rule="evenodd" clip-rule="evenodd" d="M38.1312 29.1896C29.8483 29.1896 20.9176 31.9506 14.0576 37.5146C7.19751 43.0788 2.4082 51.4461 2.4082 62.6589C2.4082 73.8715 4.71852 79.14 7.67647 81.6051C10.247 83.7461 13.2606 83.7628 15.6785 83.7412C16.3176 83.7355 16.8326 83.2159 16.8326 82.5768V76.6473C16.8326 76.3259 16.6998 76.0189 16.4657 75.7988C16.2315 75.5787 15.9168 75.4652 15.596 75.4851C14.6329 75.5449 13.6064 75.5444 12.731 75.4016C12.4404 75.3544 12.1624 75.2844 11.9071 75.1941C11.5642 75.0728 11.2621 74.9149 11.025 74.7268C10.646 74.4262 10.4327 74.0579 10.4327 73.5374C10.4327 71.0031 11.5837 69.5501 12.959 68.7329C14.3346 67.9148 15.9348 67.7299 16.8326 67.7299C17.7319 67.7299 19.9288 67.7867 21.9013 69.9835C23.3423 71.5884 24.6652 74.3378 25.2725 79.0487C25.4581 80.4887 25.5769 82.1121 25.6117 83.942C25.6238 84.5764 26.1415 85.0843 26.776 85.0843H36.9667C37.6098 85.0843 38.1312 84.563 38.1312 83.9198V75.9675L38.8651 76.048L40.227 76.1974C41.4244 76.3179 42.9173 76.435 44.1038 76.4268C45.9637 76.4135 47.8089 76.1831 49.6542 75.9786C49.7537 75.9676 49.8127 75.9655 49.8511 75.967V83.9198C49.8511 84.563 50.3724 85.0843 51.0155 85.0843H61.5206C61.9698 85.0843 62.3789 84.826 62.572 84.4205C64.8599 79.6156 68.8956 68.4864 68.8956 57.4751C68.8956 43.0514 54.6975 29.1896 38.1312 29.1896ZM38.1312 31.5185C30.3263 31.5185 21.9281 34.1296 15.5247 39.3234C15.4723 39.3659 15.42 39.4086 15.3679 39.4515C13.8827 40.6721 12.5041 42.0349 11.2649 43.5425C8.38888 47.0414 6.2644 51.3196 5.30446 56.4075C4.93416 58.3703 4.73715 60.4535 4.73715 62.6589C4.73715 73.3653 6.90278 77.7712 8.97024 79.6445C9.03602 79.7041 9.10171 79.7612 9.16723 79.8158C10.7176 81.107 12.5079 81.3712 14.5037 81.4095V77.8516C13.7956 77.8538 13.0567 77.8145 12.3569 77.7003C10.2006 77.35 8.1038 75.9781 8.1038 73.5374C8.1038 70.4793 9.41591 68.4018 11.1585 67.133C11.3568 66.9886 11.5607 66.8547 11.7689 66.731C13.6407 65.6179 15.7091 65.401 16.8326 65.401C17.9642 65.401 20.9975 65.491 23.6342 68.4275C25.5524 70.5638 27.0379 73.9647 27.6485 79.2967C27.7624 80.2915 27.8459 81.3535 27.896 82.487C27.8999 82.576 27.9037 82.6655 27.9072 82.7554H35.8022V75.9564C35.8022 75.2844 36.0929 74.646 36.597 74.2038L36.6001 74.2011C37.6219 73.311 39.2327 73.7571 40.4598 73.8802C41.6385 73.9988 43.0302 74.1052 44.0874 74.0979C45.1179 74.0905 46.4662 73.9819 47.6024 73.8677L47.6046 73.8675C48.8297 73.7467 50.3643 73.3106 51.3858 74.2043L51.3888 74.207C51.8901 74.6487 52.18 75.2845 52.18 75.9564V82.7554H60.7776C63.017 77.8179 66.5667 67.5392 66.5667 57.4751C66.5667 44.4756 53.5537 31.5185 38.1312 31.5185Z" fill="#1A1A1A"/>
<path d="M68.1252 53.0252C67.5693 52.7018 66.8565 52.8902 66.533 53.446C66.2096 54.0019 66.398 54.7147 66.9538 55.0382C68.0957 55.7026 72.542 59.4048 70.7657 68.139C70.7249 68.1792 70.687 68.2224 70.6524 68.2684L70.65 68.2706C70.5551 68.3545 70.431 68.4766 70.3538 68.5525C70.3273 68.5786 70.3063 68.5992 70.294 68.611L70.2819 68.6226C69.7613 69.1181 69.2788 69.6438 68.7403 70.1214C68.406 70.4178 68.0433 71.0198 67.915 71.3342L67.7291 72.1172C67.5845 72.7438 67.9752 73.3691 68.6018 73.5137C69.1112 73.6314 69.6946 73.3843 69.9447 72.9551C69.8565 73.4104 69.8339 73.4845 69.8096 73.7574C69.7842 74.044 69.7643 74.3293 69.746 74.6043C69.7034 75.246 70.189 75.8008 70.8307 75.8435C71.4724 75.8861 72.0272 75.4005 72.0698 74.7588C72.0767 74.6564 72.0835 74.555 72.0907 74.4544C72.3032 74.6821 72.606 74.8244 72.9421 74.8244C73.5852 74.8244 74.1065 74.3031 74.1065 73.66C74.1065 73.284 74.1028 72.7748 73.9796 72.2563C73.9262 72.0326 73.8884 71.7941 73.8478 71.5121L73.8306 71.392C73.7963 71.151 73.6475 70.535 73.5298 69.9307C73.4121 69.3264 73.0725 68.4809 73.0725 68.4809C75.0064 58.7333 70.0109 54.1225 68.1252 53.0252Z" fill="#1A1A1A"/>
<path fill-rule="evenodd" clip-rule="evenodd" d="M26.7233 38.6603C25.3809 39.91 24.5927 41.3383 24.3966 42.0668C24.2294 42.6879 23.5905 43.0558 22.9695 42.8886C22.3485 42.7215 21.9805 42.0825 22.1477 41.4615C22.4814 40.222 23.5505 38.4321 25.1365 36.9557C26.7459 35.4574 29.0158 34.1634 31.8009 34.1634C33.3862 34.1634 36.0376 34.4752 38.3154 36.208C40.6532 37.9866 42.3883 41.0997 42.3883 46.2651C42.3883 51.5171 39.972 55.8734 37.0141 58.795C35.5344 60.2565 33.8961 61.3831 32.3116 62.0935C30.7513 62.793 29.1308 63.1374 27.7339 62.8679C25.0858 62.3568 23.3651 60.4111 22.4883 58.0896C21.6167 55.7819 21.5207 52.992 22.1404 50.4315C22.2916 49.8065 22.921 49.4224 23.5461 49.5737C24.1711 49.7249 24.5552 50.3543 24.4039 50.9794C23.8792 53.1476 23.9823 55.4539 24.6671 57.2668C25.3466 59.066 26.5394 60.2654 28.1752 60.5811C28.9205 60.7249 30.0296 60.5642 31.3589 59.9683C32.6641 59.3832 34.0753 58.4242 35.3775 57.138C37.9831 54.5644 40.0594 50.7775 40.0594 46.2651C40.0594 41.666 38.5469 39.3105 36.9052 38.0616C35.2034 36.7669 33.1434 36.4924 31.8009 36.4924C29.772 36.4924 28.0423 37.4325 26.7233 38.6603Z" fill="#1A1A1A"/>
<path d="M17.9336 54.7435C19.4692 54.7438 20.7139 55.9891 20.7139 57.5248C20.7136 59.0603 19.4691 60.3048 17.9336 60.3051C16.3979 60.3051 15.1526 59.0604 15.1523 57.5248C15.1523 55.9889 16.3977 54.7435 17.9336 54.7435Z" fill="#1A1A1A"/>
<path d="M16.7929 57.3209C17.2217 57.3209 17.5692 56.9734 17.5692 56.5446C17.5692 56.1159 17.2217 55.7683 16.7929 55.7683C16.3642 55.7683 16.0166 56.1159 16.0166 56.5446C16.0166 56.9734 16.3642 57.3209 16.7929 57.3209Z" fill="white"/>
<path fill-rule="evenodd" clip-rule="evenodd" d="M14.0002 62.1986C14.4756 61.7655 15.2121 61.7997 15.6452 62.2751C16.971 63.7304 16.8668 65.9844 15.4127 67.3111L14.9379 67.7436C14.4624 68.1767 13.7259 68.1423 13.2928 67.6669C12.8598 67.1914 12.8941 66.4549 13.3696 66.0218L13.8429 65.5907C13.843 65.5906 13.8428 65.5908 13.8429 65.5907C14.3471 65.1304 14.3834 64.3483 13.9236 63.8436C13.4905 63.3682 13.5248 62.6317 14.0002 62.1986Z" fill="#1A1A1A"/>
<path d="M8.04248 54.7435C6.50684 54.7438 5.26221 55.9891 5.26221 57.5248C5.26246 59.0603 6.507 60.3048 8.04248 60.3051C9.57817 60.3051 10.8235 59.0604 10.8237 57.5248C10.8237 55.9889 9.57833 54.7435 8.04248 54.7435Z" fill="#1A1A1A"/>
<path d="M6.90278 57.3209C7.33153 57.3209 7.6791 56.9734 7.6791 56.5446C7.6791 56.1159 7.33153 55.7683 6.90278 55.7683C6.47403 55.7683 6.12646 56.1159 6.12646 56.5446C6.12646 56.9734 6.47403 57.3209 6.90278 57.3209Z" fill="white"/>
</svg>
