<svg width="75" height="86" viewBox="0 0 75 86" fill="none" xmlns="http://www.w3.org/2000/svg">
<path d="M32.1912 35.3383C39.4857 39.4024 46.0079 40.0835 49.3051 40.7398C52.5134 41.3785 62.5492 41.8567 66.5778 40.4425C67.0447 40.2822 67.329 39.8165 67.325 39.3249C67.2582 29.3228 58.8215 20.6305 51.3894 19.9108C44.5393 19.2278 34.2958 22.6816 31.5448 33.8799C31.4037 34.4534 31.6734 35.0453 32.1912 35.3383Z" fill="#FF99E0"/>
<path d="M52.9836 19.0245C57.1756 21.1805 61.4381 27.6408 60.5718 37.8958L58.2509 37.6996C58.962 29.2828 55.958 24.0846 53.0889 21.8514C52.1596 25.6743 50.7807 32.2777 50.7241 36.2648L48.3969 36.2306C48.4561 32.0724 49.8215 25.4775 50.7613 21.5692C46.9232 22.6393 41.5204 26.2239 40.0374 33.6721L37.7531 33.2173C39.7247 23.3153 47.8228 19.2873 52.3532 18.9149L52.4475 20.0668L52.9836 19.0245Z" fill="#FFBDF2"/>
<path d="M51.5023 18.7516C55.596 19.1482 59.8178 21.7048 62.9992 25.3735C66.1945 29.0584 68.454 33.991 68.4902 39.3148L68.485 39.4884C68.4289 40.3489 67.903 41.2133 66.9619 41.5396L66.963 41.5414C64.7365 42.3229 61.0341 42.5482 57.6266 42.5257C54.1825 42.5029 50.7875 42.2215 49.0784 41.8814C45.8664 41.242 39.1184 40.5307 31.6242 36.3553L31.6171 36.3523C30.6674 35.8148 30.143 34.7065 30.4145 33.6024C33.3454 21.672 44.2692 18.0332 51.502 18.7531L51.5023 18.7516ZM61.2389 26.8999C58.3275 23.5425 54.6152 21.3937 51.2772 21.0705L51.2742 21.0699C44.8068 20.4251 35.2465 23.693 32.6756 34.1576C32.6653 34.1994 32.6792 34.2728 32.7605 34.3214C39.8546 38.2733 46.151 38.9241 49.5331 39.5974C51.0327 39.8958 54.2596 40.1751 57.6419 40.1975C61.0394 40.22 64.3474 39.9779 66.157 39.3542C66.1583 39.3482 66.1609 39.3418 66.1609 39.3349L66.1597 39.3331C66.1285 34.6557 64.1362 30.2411 61.2389 26.8999Z" fill="#1A1A1A"/>
<path d="M28.933 36.1937C29.0628 35.0798 29.3855 33.8618 29.7522 32.7633C30.2628 31.2345 32.0404 30.6702 33.5182 31.3126C42.9006 35.3333 58.473 37.2462 67.0228 37.8876C68.2821 37.98 69.3332 38.9014 69.3518 40.1557C69.3635 41.0129 69.3123 41.905 69.2572 42.7172C69.1516 44.2476 67.8919 45.5482 66.3611 45.5759C53.5221 45.822 41.7464 42.5913 30.5049 38.4854C29.5214 38.1313 28.8086 37.2454 28.933 36.1937Z" fill="#FF99E0"/>
<path d="M44.4579 34.2976C44.2987 35.0975 43.9471 36.4276 43.5672 37.8463C43.181 39.2884 42.7561 40.857 42.4322 42.1917L40.1697 41.6427C40.5017 40.2745 40.9348 38.6722 41.3173 37.244C41.706 35.7927 42.0328 34.5502 42.1737 33.8428L44.4579 34.2976ZM57.7421 36.9424C57.6013 37.6497 57.4276 38.9219 57.2307 40.4113C57.037 41.8771 56.8253 43.5234 56.608 44.9145L54.3056 44.5557C54.5176 43.1988 54.7268 41.5871 54.9225 40.1071C55.1149 38.651 55.2986 37.2876 55.4579 36.4876L57.7421 36.9424ZM48.7259 35.0766C48.616 35.8788 48.3446 37.2244 48.051 38.6613C47.7524 40.1228 47.4233 41.7146 47.1802 43.0653L44.8875 42.6527C45.1367 41.2682 45.4731 39.6434 45.7688 38.196C46.0694 36.725 46.3203 35.4674 46.4172 34.7594L48.7259 35.0766ZM53.4572 36.0186C53.3474 36.8208 53.076 38.1664 52.7824 39.6033C52.4837 41.0648 52.1546 42.6565 51.9115 44.0073L49.6189 43.5947C49.868 42.2102 50.2045 40.5853 50.5002 39.138C50.8007 37.667 51.0526 36.4096 51.1495 35.7016L53.4572 36.0186ZM62.0171 37.6462C61.9299 38.8513 61.6544 41.9179 61.2185 44.7082L58.917 44.3496C59.3398 41.644 59.6104 38.6447 59.6948 37.4776L62.0171 37.6462ZM66.4132 38.5214C66.3261 39.7265 66.0504 42.7931 65.6146 45.5835L63.3132 45.2248C63.7358 42.5192 64.0065 39.52 64.0909 38.3528L66.4132 38.5214ZM35.799 32.5627C35.4298 33.6731 34.5312 36.5475 33.8853 39.2086L31.623 38.6586C32.2891 35.9142 33.2079 32.9757 33.5891 31.829L35.799 32.5627ZM40.1951 33.438C39.826 34.5483 38.9275 37.4219 38.2817 40.0829L36.0191 39.5338C36.6853 36.7894 37.6041 33.851 37.9853 32.7043L40.1951 33.438Z" fill="#FFBDF2"/>
<path d="M67.1071 36.7262C68.8421 36.8535 70.486 38.1622 70.5156 40.1379L70.5153 40.1394C70.5215 40.5936 70.5116 41.0543 70.4927 41.5031L70.4192 42.7963L70.4189 42.7978C70.2843 44.7453 68.7775 46.4715 66.7869 46.7125L66.3825 46.7402C53.3359 46.9901 41.4051 43.7047 30.1103 39.5796C28.753 39.0908 27.5739 37.7783 27.7764 36.0587C27.9189 34.8353 28.2665 33.5335 28.6466 32.395C29.4224 30.0721 32.024 29.3997 33.9745 30.2433L33.9763 30.2421C43.1609 34.178 58.5546 36.0859 67.1068 36.7277L67.1071 36.7262ZM66.9369 39.0483L66.9354 39.048C58.3875 38.4067 42.6391 36.4879 33.0599 32.3831L33.0542 32.3805C32.05 31.9439 31.1007 32.3998 30.8561 33.1317C30.547 34.0578 30.281 35.0423 30.141 35.9467L30.0896 36.3291L30.0893 36.3306C30.0441 36.7133 30.2899 37.1705 30.8988 37.3899L30.9047 37.3911C42.0912 41.4768 53.7098 44.6531 66.3391 44.4111L66.3406 44.4114C67.2132 44.3952 68.0262 43.6203 68.0945 42.638C68.1356 42.032 68.1739 41.4015 68.1853 40.784L68.1866 40.1721C68.1782 39.6398 67.7198 39.1058 66.9369 39.0483Z" fill="#1A1A1A"/>
<path d="M53.7489 11.6635C54.6062 11.6654 55.3006 12.3626 55.2991 13.2198C55.2975 13.9256 55.2696 14.6773 55.2079 15.4729C55.6465 15.0874 56.0509 14.7087 56.4223 14.3396C57.0306 13.7352 58.0133 13.7374 58.6177 14.3455C59.222 14.9537 59.2188 15.9364 58.6108 16.5407C57.9893 17.1584 57.2877 17.799 56.4976 18.448C57.1627 18.518 57.8557 18.5714 58.5774 18.5992C59.4339 18.6326 60.1009 19.3538 60.0679 20.2103C60.0347 21.0668 59.3143 21.7337 58.4577 21.701C57.6485 21.6697 56.8708 21.6088 56.1241 21.5291C56.4386 21.9032 56.7699 22.2814 57.1206 22.6605C57.7025 23.29 57.6646 24.2719 57.0354 24.8541C56.4058 25.436 55.4233 25.397 54.8411 24.7677C54.3802 24.2695 53.9491 23.7731 53.5437 23.2817C53.349 23.8383 53.1349 24.4065 52.8979 24.9852C52.5729 25.7786 51.6653 26.1594 50.8718 25.8345C50.0787 25.5093 49.6997 24.6019 50.0245 23.8087C50.2446 23.2712 50.443 22.7444 50.6227 22.2291C49.9795 22.5486 49.3041 22.8624 48.5923 23.1602C47.8014 23.4907 46.8925 23.1182 46.5614 22.3277C46.2306 21.5368 46.6032 20.6279 47.3939 20.2968C47.8032 20.1256 48.1982 19.9467 48.5817 19.7676C47.931 19.5245 47.3219 19.2738 46.7551 19.0196C45.9734 18.6683 45.6241 17.7493 45.9747 16.9673C46.3259 16.1854 47.2457 15.8363 48.0279 16.1872C48.4538 16.3782 48.9066 16.567 49.3861 16.7524C49.0321 15.9967 48.7314 15.2721 48.4733 14.5852C48.1722 13.7826 48.5786 12.8877 49.3811 12.5862C50.1837 12.2851 51.0785 12.6917 51.38 13.494C51.589 14.0502 51.8312 14.6349 52.1109 15.2446C52.1668 14.5257 52.1912 13.8482 52.1926 13.2137C52.1946 12.3566 52.8918 11.6621 53.7489 11.6635Z" fill="#80CAFF"/>
</svg>
