<svg width="75" height="86" viewBox="0 0 75 86" fill="none" xmlns="http://www.w3.org/2000/svg">
<path fill-rule="evenodd" clip-rule="evenodd" d="M40.1395 35.6855C45.5054 38.2364 49.8812 42.5177 54.6604 47.1938L54.7703 47.3009C56.8176 45.6381 59.6442 44.4363 63.4539 44.4363C72.7147 44.4363 73.637 45.4518 72.9405 45.9595C71.0431 47.5478 67.2485 51.6856 67.2485 56.3978C67.2485 61.1101 71.0431 65.4667 72.9405 67.0566C73.637 67.5643 72.7147 68.5798 63.4539 68.5798C59.6431 68.5798 56.8161 66.8983 54.7686 64.6718C50.3384 70.7177 46.0886 75.077 39.9846 77.2027C40.7673 79.5461 41.7735 81.7753 42.6595 83.5129C42.7378 83.6666 42.7267 83.8421 42.6395 83.988C42.556 84.1262 42.4366 84.1883 42.3023 84.1837C31.7467 83.8157 25.8861 81.3051 22.1896 78.4203C21.811 78.125 21.4533 77.8244 21.114 77.5199C9.18701 74.5268 0 66.0053 0 55.9584C0 44.8897 11.2657 35.6704 24.0013 33.6587C27.7436 31.3341 33.3249 29.4713 42.3023 29.1583C42.4366 29.1537 42.556 29.2158 42.6395 29.354C42.7268 29.4999 42.7378 29.6754 42.6595 29.8291C41.8309 31.4541 40.8972 33.5092 40.1395 35.6855Z" fill="#2C2C2C"/>
<path fill-rule="evenodd" clip-rule="evenodd" d="M41.1819 36.2089C46.0806 38.7992 50.1944 42.8241 54.6604 47.1938L54.7703 47.3009L54.774 47.2979C56.821 45.6366 59.6465 44.4363 63.4539 44.4363C66.9589 44.4363 69.2694 44.5818 70.7498 44.7901C70.8277 44.8011 70.9034 44.8122 70.9767 44.8235C71.4894 44.9025 71.8924 44.9894 72.2038 45.0801C72.2466 45.0925 72.2881 45.1052 72.3275 45.1178L72.9354 45.9526L72.9405 45.9586C72.5441 46.2905 72.0648 46.7345 71.5547 47.2709L71.5208 47.3066C69.5955 49.3412 67.2485 52.6919 67.2485 56.3978C67.2485 60.1159 69.6109 63.6127 71.5398 65.7036L71.5679 65.7341C72.0731 66.2793 72.5475 66.7273 72.9405 67.0566C73.2492 67.2817 73.2399 67.6066 72.3269 67.8985C72.2876 67.9111 72.2465 67.9236 72.2039 67.936C71.8924 68.0267 71.4894 68.1136 70.9767 68.1926C70.9051 68.2036 70.8314 68.2145 70.7554 68.2252C69.2752 68.4339 66.9633 68.5798 63.4539 68.5798C60.6175 68.5798 58.3261 67.6482 56.4955 66.2538C55.8666 65.7748 55.2921 65.2411 54.7686 64.6718C54.2935 65.3202 53.8205 65.9492 53.347 66.5581C49.6732 71.2828 45.9733 74.7989 41.075 76.7915C41.8308 79.0632 42.8138 81.2519 43.6969 82.9839C43.9678 83.516 43.9191 84.117 43.6389 84.5856L43.636 84.5904C43.3509 85.0621 42.8494 85.3678 42.2619 85.3474C31.5309 84.9733 25.4124 82.4124 21.4735 79.3385C20.4449 78.5363 19.565 77.6989 18.7903 76.8562C8.01441 73.3954 0 65.3422 0 55.9584C0 45.645 9.78063 36.9372 21.4177 34.1695C26.2775 30.178 32.3381 28.4683 42.2631 27.9774C42.9992 27.941 43.5559 28.381 43.8116 28.8886C44.0634 29.3882 44.0846 30.0626 43.6872 30.6243C42.5994 32.162 41.9323 34.0582 41.1819 36.2089ZM27.0838 33.3169C27.7667 33.2733 28.4515 33.2512 29.1368 33.2512C32.8936 33.2512 36.1325 33.9693 39.0642 35.2037C39.6341 33.5665 40.2428 31.8778 41.0935 30.3755C34.929 30.7633 30.5536 31.6766 27.0838 33.3169ZM23.6693 78.068C27.0189 80.4253 32.2109 82.4931 41.0888 82.9649C40.3328 81.3926 39.5307 79.5221 38.8757 77.558C36.3969 78.2855 33.6154 78.6656 30.4091 78.6656C28.1143 78.6656 25.8555 78.4589 23.6693 78.068ZM67.414 64.1423C67.8562 64.8423 68.3279 65.4946 68.802 66.0879C67.5198 66.1848 65.7804 66.2508 63.4539 66.2508C60.4191 66.2508 58.1813 64.9419 56.483 63.0943C56.0115 62.5819 55.335 62.3071 54.6393 62.3459C53.9437 62.3847 53.3018 62.7325 52.8901 63.2946C49.7331 67.6031 46.8207 70.8218 43.3903 72.9892C40.0144 75.1226 35.977 76.3367 30.4091 76.3367C22.8316 76.3367 15.7185 73.9379 10.5494 70.1386C5.3711 66.3331 2.32895 61.2855 2.32895 55.9584C2.32895 50.6329 5.40687 45.5775 10.4672 41.7627C15.5159 37.9556 22.3087 35.5801 29.1368 35.5801C39.3362 35.5801 45.3069 41.3 53.0317 48.8582L53.1416 48.9669C53.9876 49.7945 55.32 49.855 56.2388 49.1098C57.8674 47.7869 60.1746 46.7653 63.4539 46.7653C65.754 46.7653 67.4802 46.8294 68.7581 46.9243C68.306 47.4782 67.8556 48.085 67.4311 48.7371C66.1067 50.7711 64.9196 53.4276 64.9196 56.3978C64.9196 59.3587 66.0999 62.0618 67.414 64.1423Z" fill="#1A1A1A"/>
<path d="M72.3275 45.1178C73.239 45.4095 73.2487 45.7337 72.9405 45.9586L72.3275 45.1178Z" fill="#1A1A1A"/>
<path d="M51.619 56.2922C50.8597 59.0698 36.2386 66.6824 31.2438 65.3192C26.2505 63.956 27.7457 55.3094 28.5034 52.5301C29.2626 49.7525 31.7826 46.2668 36.7774 47.63C41.7722 48.9932 52.3767 53.513 51.619 56.2922Z" fill="#444444"/>
<path d="M19.9731 51.7262C21.5087 51.7265 22.7533 53.1266 22.7534 54.8542C22.7534 56.5818 21.5088 57.9828 19.9731 57.9831C18.4373 57.9831 17.1919 56.582 17.1919 54.8542C17.192 53.1264 18.4374 51.7262 19.9731 51.7262Z" fill="#D9D9D9"/>
<path d="M18.8325 54.6256C19.2612 54.6256 19.6088 54.2346 19.6088 53.7523C19.6088 53.2699 19.2612 52.8789 18.8325 52.8789C18.4037 52.8789 18.0562 53.2699 18.0562 53.7523C18.0562 54.2346 18.4037 54.6256 18.8325 54.6256Z" fill="white"/>
<path d="M7.55127 51.7262C6.01571 51.7265 4.77112 53.1266 4.771 54.8542C4.771 56.5818 6.01563 57.9828 7.55127 57.9831C9.08712 57.9831 10.3325 56.582 10.3325 54.8542C10.3324 53.1264 9.08704 51.7262 7.55127 51.7262Z" fill="#D9D9D9"/>
<path d="M6.41157 54.6256C6.84032 54.6256 7.18789 54.2346 7.18789 53.7523C7.18789 53.2699 6.84032 52.8789 6.41157 52.8789C5.98282 52.8789 5.63525 53.2699 5.63525 53.7523C5.63525 54.2346 5.98282 54.6256 6.41157 54.6256Z" fill="white"/>
<path fill-rule="evenodd" clip-rule="evenodd" d="M9.91528 57.3866C10.4112 56.9771 11.1452 57.0472 11.5546 57.5431C12.7417 58.9808 14.9281 59.0336 16.1829 57.6549L16.3227 57.5012C16.7553 57.0253 17.4918 56.9903 17.9676 57.4229C18.4435 57.8555 18.4786 58.592 18.0459 59.0678L17.9062 59.2216C15.6971 61.6495 11.8483 61.5567 9.75875 59.0259C9.34928 58.53 9.41936 57.7961 9.91528 57.3866Z" fill="#D9D9D9"/>
</svg>
