<svg width="75" height="86" viewBox="0 0 75 86" fill="none" xmlns="http://www.w3.org/2000/svg">
<path d="M2.96582 60.1145L3.64015 50.7325L15.0563 51.4716L17.862 25.617L44.2084 28.5746L39.5223 52.9511H50.1848L48.9752 62.5505L2.96582 60.1145Z" fill="#2C2C2C"/>
<path d="M16.018 47.3527L15.5273 51.7883L39.2388 53.2679L40.1176 48.8307L16.018 47.3527Z" fill="#DC3412"/>
<path d="M50.7086 62.6113C50.6012 63.1825 50.0883 63.5881 49.5077 63.5604L49.5638 62.3975L50.7086 62.6113ZM18.3913 24.4602L44.7373 27.4182L44.8571 27.4379C45.1316 27.4981 45.3772 27.6553 45.5455 27.8837C45.7379 28.1447 45.8126 28.4748 45.7517 28.7934L41.3711 51.7252L51.3288 52.0361C51.6683 52.0468 51.9861 52.205 52.1991 52.4697C52.4122 52.7347 52.4999 53.0801 52.4372 53.4142L50.7086 62.6113L49.5638 62.396L49.5077 63.5604L3.04923 61.3392C2.72626 61.3236 2.42389 61.1753 2.21525 60.9283C2.00664 60.6812 1.91103 60.3579 1.9499 60.0368L3.16295 50.056L4.31839 50.197V50.1954L3.16295 50.056C3.23015 49.5046 3.6734 49.0886 4.20618 49.0371L4.43817 49.0386L14.6915 50.0923L17.1025 25.5033L17.1479 25.2759C17.2154 25.0559 17.347 24.8588 17.5285 24.7119C17.7708 24.5158 18.0816 24.4254 18.3913 24.4602ZM16.8962 51.4857C16.866 51.794 16.7131 52.078 16.4732 52.2741C16.2932 52.421 16.0749 52.5102 15.8469 52.5318L15.618 52.5303L5.33583 51.472L4.41088 59.0725L48.6054 61.1846L49.8958 54.3209L39.9367 54.0131C39.5961 54.0025 39.2779 53.8423 39.0648 53.5765C38.8517 53.3106 38.7644 52.965 38.8282 52.6304L43.2271 29.5909L19.3057 26.9042L16.8962 51.4857Z" fill="#1A1A1A"/>
</svg>
