<svg width="75" height="86" viewBox="0 0 75 86" fill="none" xmlns="http://www.w3.org/2000/svg">
<path d="M6.53696 59.3885C-5.86419 43.2535 7.6719 37.751 16.8528 36.1999C17.2812 36.127 17.7128 36.1099 18.1466 36.1347L64.0732 38.8022C68.0487 39.2633 69.7974 39.1344 71.1522 40.6373C73.2304 42.943 71.9807 46.0498 69.4069 47.7856C68.0527 48.6986 67.5734 50.5928 68.5059 51.9343C69.7929 53.7865 71.423 55.5457 72.4701 57.6744C73.2885 59.3388 72.7611 61.351 71.2915 62.4828C70.6632 62.9673 70.0766 63.3011 69.499 63.5619C67.2241 64.5898 65.2822 66.7308 66.4048 68.9604C67.051 70.2444 67.9816 70.9634 68.7309 72.1682C77.5123 86.2925 33.0033 84.0303 11.4063 80.8288C6.33594 80.0758 0.694256 76.41 2.7244 71.704C3.52548 69.847 4.98211 68.2664 6.43179 66.7976C8.45781 64.7435 8.29501 61.6755 6.53696 59.3885Z" fill="white"/>
<path d="M18.213 34.9717L64.14 37.6403L64.1733 37.6418L64.2067 37.6448C66.0912 37.8634 67.6587 37.9624 68.8161 38.1861C70.0742 38.4293 71.1157 38.8576 72.0168 39.857C73.3471 41.3329 73.6204 43.1129 73.1419 44.7514C72.6769 46.3437 71.5234 47.7629 70.0579 48.7513C69.2243 49.3132 68.9792 50.3859 69.374 51.1257L69.462 51.2698C70.0938 52.1791 70.7714 53.0144 71.5104 54.0051C72.2238 54.9614 72.9441 56 73.5149 57.1604L73.6968 57.5758C74.4997 59.6724 73.7664 62.0466 72.0017 63.4058C71.2965 63.9493 70.6306 64.3268 69.9775 64.6218L69.979 64.6233C68.9807 65.0743 68.1224 65.7441 67.6455 66.458C67.1963 67.1308 67.1122 67.7748 67.4454 68.4367C67.7062 68.955 68.0282 69.373 68.4249 69.8513C68.7125 70.1981 69.0566 70.5959 69.3907 71.0628L69.7197 71.5525C70.9242 73.49 71.3437 75.3642 70.7811 77.0883C70.2289 78.7804 68.8244 80.0306 67.0572 80.9608C63.545 82.8095 57.9109 83.7579 51.5339 84.1586C39.4972 84.9149 24.1421 83.7514 13.3337 82.2784L11.2353 81.9812L10.7258 81.8963C8.16688 81.4288 5.49692 80.2867 3.62675 78.6167C2.62249 77.7198 1.80315 76.6295 1.40091 75.3613C0.991336 74.07 1.04009 72.6702 1.65564 71.2432C2.553 69.1631 4.1577 67.4441 5.60242 65.9803L7.25967 67.6149C5.80523 69.0885 4.49824 70.5317 3.79354 72.1651C3.3941 73.091 3.385 73.9147 3.62069 74.6578C3.86375 75.4237 4.392 76.1789 5.17787 76.8806C6.76412 78.297 9.21678 79.3259 11.5779 79.6766C22.3297 81.2703 38.7679 82.627 51.3869 81.8342C57.7385 81.4351 62.9348 80.4996 65.9731 78.9002C67.4811 78.1064 68.2819 77.2401 68.5674 76.3651C68.8422 75.5222 68.7314 74.3767 67.741 72.7837C67.4187 72.2654 67.0633 71.8565 66.6327 71.3372C66.2153 70.834 65.7503 70.2497 65.3651 69.4844C64.5759 67.9168 64.8998 66.3749 65.7093 65.1631C66.4915 63.9923 67.7428 63.0773 69.0192 62.5006C69.5211 62.2739 70.0297 61.9855 70.581 61.5605L70.7705 61.4013C71.6774 60.5706 71.9499 59.2552 71.4255 58.1884C70.9492 57.2201 70.3291 56.3155 69.6439 55.397C68.9844 54.5129 68.2051 53.5409 67.55 52.598C66.1978 50.6528 66.9364 48.0459 68.7554 46.8196C69.8636 46.0722 70.6217 45.0695 70.9054 44.0979C71.1754 43.1729 71.0345 42.2468 70.2868 41.4172C69.8333 40.9141 69.3231 40.6559 68.3748 40.4726C67.333 40.2713 66.049 40.2013 63.9853 39.9631L18.0796 37.2976L17.8127 37.2885C17.5497 37.2867 17.2955 37.3056 17.0485 37.3476C14.8115 37.7256 12.3335 38.3416 10.0723 39.2839C7.80127 40.2303 5.82296 41.475 4.49708 43.0699C3.2 44.6302 2.49024 46.5636 2.78221 49.0394C3.07993 51.5626 4.43035 54.7364 7.45981 58.6781C9.48487 61.3125 9.78685 65.0521 7.25967 67.6149L5.60242 65.9803C7.12671 64.4349 7.10379 62.0383 5.61303 60.0988C2.44222 55.9734 0.835098 52.4071 0.469937 49.3123C0.0993676 46.1705 1.02221 43.6069 2.70639 41.581C4.362 39.5895 6.71466 38.1596 9.1762 37.1338C11.6468 36.1043 14.3046 35.4511 16.6573 35.0536C17.1842 34.9638 17.7048 34.9426 18.213 34.9717Z" fill="#1A1A1A"/>
<path d="M57.7298 33.6721C40.5836 21.3286 25.3275 27.8358 16.7191 35.5834C13.6725 38.3253 12.04 42.5702 13.5319 46.3881C17.5305 56.62 31.3447 59.3868 38.8155 59.3868C49.9045 58.9924 56.854 54.1342 60.8594 49.026C64.6878 44.1461 62.7639 37.2975 57.7298 33.6721Z" fill="#F24822"/>
<path fill-rule="evenodd" clip-rule="evenodd" d="M33.8505 25.9419C41.2002 24.8423 49.6042 26.3876 58.4102 32.727L58.4104 32.7271C63.8245 36.6262 66.1228 44.2035 61.7757 49.7447C57.572 55.1055 50.3103 60.1431 38.8569 60.5505L38.8362 60.5512H38.8155C34.9629 60.5512 29.4887 59.8416 24.4362 57.8043C19.389 55.7692 14.6082 52.3413 12.4473 46.8119L12.4473 46.8119C10.729 42.4144 12.6475 37.6812 15.9401 34.7178L16.7076 35.5706L15.9401 34.7178C20.3664 30.7341 26.5352 27.0364 33.8505 25.9419ZM34.1951 28.2452C27.4437 29.2553 21.6802 32.685 17.4981 36.4489C14.6976 38.9694 13.3511 42.7259 14.6165 45.9643C16.4542 50.6667 20.5798 53.7382 25.3071 55.6444C30.0201 57.5448 35.1777 58.2197 38.7949 58.2222C49.5073 57.8356 56.1383 53.1597 59.9431 48.3074L59.9433 48.3072C63.2528 44.0887 61.7034 37.9688 57.0495 34.6171C48.7094 28.6131 40.9122 27.2402 34.1951 28.2452Z" fill="#1A1A1A"/>
<path d="M45.2174 42.3071C46.1821 42.3071 46.9641 43.0892 46.9641 44.0538C46.9641 45.0185 46.1821 45.8005 45.2174 45.8005C44.2527 45.8005 43.4707 45.0185 43.4707 44.0538C43.4707 43.0892 44.2527 42.3071 45.2174 42.3071Z" fill="#1A1A1A"/>
<path d="M31.2457 42.3071C30.281 42.3071 29.499 43.0892 29.499 44.0538C29.499 45.0185 30.281 45.8005 31.2457 45.8005C32.2104 45.8005 32.9924 45.0185 32.9924 44.0538C32.9924 43.0892 32.2104 42.3071 31.2457 42.3071Z" fill="#1A1A1A"/>
<path d="M44.2496 36.0176C47.2509 36.0176 49.6839 34.6449 49.6839 32.9515C49.6839 31.2581 47.2509 29.8853 44.2496 29.8853C41.2484 29.8853 38.8154 31.2581 38.8154 32.9515C38.8154 34.6449 41.2484 36.0176 44.2496 36.0176Z" fill="white"/>
<path d="M41.5425 46.9673L41.6607 46.9734C42.2481 47.0328 42.7069 47.5287 42.7069 48.1318C42.7069 48.7348 42.2481 49.2308 41.6607 49.2902L41.5425 49.2962L34.31 49.2962C33.6669 49.2962 33.1455 48.7749 33.1455 48.1318C33.1455 47.4886 33.6669 46.9673 34.31 46.9673L41.5425 46.9673Z" fill="#1A1A1A"/>
</svg>
