<svg width="75" height="86" viewBox="0 0 75 86" fill="none" xmlns="http://www.w3.org/2000/svg">
<path d="M40.4957 37.6027C22.7034 39.621 12.2706 36.0501 9.27832 34.0163L28.6613 6.3717L40.4957 37.6027Z" fill="#FFCD29"/>
<path d="M14.0049 27.9197C16.1544 27.9197 17.8975 29.6629 17.8975 31.8123C17.8972 33.9614 16.1543 35.7038 14.0049 35.7039C11.8554 35.7039 10.1125 33.9614 10.1123 31.8123C10.1123 29.6629 11.8553 27.9197 14.0049 27.9197ZM25.6836 27.9197C27.8331 27.9197 29.5752 29.6629 29.5752 31.8123C29.575 33.9614 27.833 35.7038 25.6836 35.7039C23.5341 35.7039 21.7912 33.9614 21.791 31.8123C21.791 29.6629 23.534 27.9197 25.6836 27.9197ZM38.5166 34.4822L39.1055 34.28C38.4905 34.6837 37.7553 34.9167 36.9629 34.9167C34.8135 34.9167 33.0705 33.1774 33.0703 31.0349C33.0704 29.203 34.3314 27.666 36.0303 27.2468L38.5166 34.4822ZM19.5713 19.3503C21.7208 19.3505 23.4629 21.0927 23.4629 23.2419C23.4627 25.3911 21.7207 27.1334 19.5713 27.1335C17.4218 27.1335 15.6789 25.3912 15.6787 23.2419C15.6787 21.0926 17.4217 19.3503 19.5713 19.3503ZM30.7461 17.4402C32.8954 17.4404 34.6375 19.1827 34.6377 21.3318C34.6377 23.481 32.8955 25.2242 30.7461 25.2244C28.5965 25.2244 26.8535 23.4812 26.8535 21.3318C26.8537 19.1826 28.5966 17.4402 30.7461 17.4402ZM24.708 10.8708C26.2297 11.4002 27.3231 12.8423 27.3232 14.5437C27.3232 16.6892 25.581 18.4284 23.4316 18.4441C22.2595 18.4441 21.2107 17.9164 20.4971 17.0935L24.708 10.8708Z" fill="#007BE5"/>
<path d="M28.5775 3.27274C29.0147 3.32415 29.3854 3.61856 29.5358 4.03233L41.5905 37.2043C41.7123 37.5395 41.6737 37.9125 41.4859 38.2156C41.298 38.5188 40.982 38.7197 40.6276 38.7599L38.9612 38.9343C30.7337 39.7217 24.1085 39.2582 19.1035 38.3142C13.7965 37.3131 10.2419 35.7582 8.54539 34.5238C8.04238 34.1578 7.91652 33.4603 8.25881 32.9409L27.469 3.78823C27.7113 3.42092 28.1404 3.22142 28.5775 3.27274ZM10.8578 33.2275C12.4967 34.129 15.3764 35.2418 19.5357 36.0263C24.3418 36.9328 30.7973 37.388 38.893 36.5994L28.1392 7.00552L10.8578 33.2275Z" fill="#1A1A1A"/>
<path d="M27.6391 0.409667C28.2698 0.285849 28.883 0.697928 29.0073 1.32861C29.1658 2.13342 29.3002 3.01368 29.392 3.96924C29.8799 3.36429 30.3071 2.77949 30.6811 2.22217C31.0394 1.6886 31.7624 1.54504 32.2963 1.90283C32.8302 2.26101 32.9725 2.98508 32.6147 3.51904C32.0732 4.32598 31.4329 5.18461 30.6713 6.0708C31.477 6.01528 32.3215 5.92321 33.2055 5.78271C33.8405 5.68177 34.4373 6.11562 34.5385 6.75049C34.6394 7.38556 34.2059 7.98254 33.5707 8.0835C32.6192 8.23472 31.708 8.33286 30.8373 8.39307C31.3342 8.80944 31.8642 9.22734 32.433 9.64014C32.9532 10.018 33.0685 10.7468 32.6908 11.2671C32.313 11.7868 31.5851 11.9012 31.0649 11.5239C30.4305 11.0635 29.8397 10.5972 29.2865 10.1313C29.2018 10.8068 29.0948 11.5054 28.9545 12.2261C28.8316 12.8572 28.2195 13.2696 27.5883 13.147C26.9574 13.0239 26.5447 12.4127 26.6674 11.7817C26.8137 11.0306 26.9239 10.3069 27.0053 9.61084C26.3481 10.1404 25.6385 10.669 24.8686 11.188C24.3353 11.5473 23.6118 11.4077 23.2524 10.8745C22.893 10.3413 23.0347 9.61778 23.5678 9.2583C24.0868 8.90843 24.5747 8.55267 25.0365 8.19775C24.1865 8.07747 23.3995 7.92633 22.6752 7.75732C22.0493 7.61091 21.66 6.98392 21.8061 6.35791C21.9525 5.73201 22.5794 5.34266 23.2055 5.48877C23.8116 5.6302 24.4669 5.75918 25.1723 5.86475C24.5607 5.07441 24.0396 4.30985 23.5912 3.58838C23.2522 3.04221 23.4201 2.32515 23.9662 1.98584C24.5124 1.64692 25.2295 1.81481 25.5688 2.36084C25.9998 3.05439 26.506 3.79273 27.1069 4.55908C27.0246 3.5395 26.8867 2.61235 26.7221 1.77685C26.5982 1.1463 27.0086 0.534157 27.6391 0.409667Z" fill="#007BE5"/>
</svg>
