<svg width="75" height="86" viewBox="0 0 75 86" fill="none" xmlns="http://www.w3.org/2000/svg">
<path d="M10.1141 55.4243L13.3342 51.2368L16.7298 52.85L18.7265 56.685L28.4677 56.6074L30.0172 53.3826L33.7855 51.2896L37.8922 54.5905H40.3081L51.8224 53.3826L59.23 54.5905L62.7234 56.6897L64.7061 59.5838L66.9885 62.4235L70.1823 70.2131V74.6412L68.4107 79.473L65.9948 81.406L56.6666 84.1433L47.8073 80.5195L40.3081 81.406L31.691 84.1433H28.8729L26.5378 80.5195L13.8963 79.473L6.32717 82.4525L3.5076 80.5195L3.10547 77.7822L7.79753 74.5108L7.28049 67.35L10.1141 55.4243Z" fill="#536383"/>
<path opacity="0.7" d="M12.999 68.3148C15.0332 68.3149 16.6826 69.7602 16.6826 71.5424C16.6824 73.3244 15.033 74.7689 12.999 74.7689C10.9649 74.7689 9.31562 73.3245 9.31543 71.5424C9.31543 69.7601 10.9648 68.3148 12.999 68.3148ZM33.1826 68.3148C35.2168 68.3148 36.8662 69.7601 36.8662 71.5424C36.866 73.3245 35.2167 74.7689 33.1826 74.7689C31.1487 74.7687 29.5002 73.3243 29.5 71.5424C29.5 69.7603 31.1486 68.3151 33.1826 68.3148Z" fill="#FFAFA3"/>
<path d="M47.2023 69.5352C49.6282 69.0449 51.9941 70.549 52.6017 72.9195L52.6548 73.1515C52.7543 73.6441 53.0814 74.2009 54.124 74.7344L54.6168 74.9619L55.1596 75.1666C56.4148 75.5923 57.8144 75.7589 58.8183 75.7609C61.5233 75.3608 62.2417 74.1893 62.4239 73.7292C62.5682 73.3614 62.5504 73.109 62.5194 72.9726C62.5047 72.9075 62.4829 72.8641 62.4709 72.8406C62.0551 72.4241 62.013 71.7521 62.3921 71.285C62.7973 70.7856 63.5302 70.7099 64.0296 71.1152C64.3932 71.4103 64.6658 71.9132 64.7892 72.457C64.9247 73.0538 64.9045 73.7832 64.5891 74.5843V74.5874C64.0524 75.9428 62.5381 77.5903 59.073 78.0793L58.9957 78.0899L58.9183 78.0914C57.5408 78.1015 55.4921 77.8524 53.7176 77.1089C51.8655 76.3341 50.6923 75.2028 50.3713 73.6139C50.1181 72.3704 48.9066 71.5658 47.6633 71.8172C46.4195 72.0703 45.6173 73.284 45.8696 74.5267L45.9454 74.8648C46.7802 78.3071 49.4095 80.2843 51.9406 81.3452C54.5343 82.4322 57.3688 82.7274 59.2277 82.6795L59.3414 82.6765L59.4551 82.6613L59.7492 84.9721L59.5779 84.9948L59.5218 85.0009L59.2913 85.007C57.3224 85.0579 54.4035 84.7775 51.5994 83.7166L51.04 83.4938C50.1661 83.1275 49.2514 82.6474 48.3668 82.0397C46.571 81.851 45.0545 81.7003 43.6634 81.5348C41.6069 81.2907 39.4082 82.2198 37.3619 83.515C35.935 84.417 34.2239 85.147 32.5509 85.3208C30.8533 85.4972 29.0726 85.0993 27.8187 83.5771C27.1714 82.7924 26.7765 81.9717 26.63 81.1375C25.617 81.2346 24.7144 81.2785 23.4534 81.2785C20.3893 81.2785 17.4466 81.0014 14.87 80.3172C13.6545 81.5169 11.6649 82.6153 9.7072 83.1844C8.56365 83.5169 7.33874 83.698 6.19558 83.5741C5.04163 83.449 3.8979 83.001 3.08122 82.0109C2.26292 81.0178 1.89161 79.9408 1.94556 78.8586C1.9984 77.8007 2.45095 76.8623 3.04635 76.0945C3.90847 74.9827 5.16945 74.0986 6.41544 73.5609C6.04136 72.4881 5.84839 71.3027 5.84836 70.0053C5.84836 67.5081 5.84632 65.613 6.39421 62.9381C6.67318 59.8537 7.52831 55.2483 10.1606 51.68C11.137 50.3597 12.853 49.7757 14.4318 50.2198C15.3985 50.4921 16.5751 50.965 17.6614 51.9135C18.6299 52.7594 19.4775 53.9415 20.0586 55.5843C21.0343 55.3184 22.0901 54.9961 23.4534 54.996C24.8876 54.996 26.2156 55.3069 27.4093 55.6207C27.9631 54.0482 28.7556 52.8891 29.6685 52.0408C30.7725 51.0151 31.987 50.5042 32.9982 50.2198L33.2954 50.1486C34.7863 49.8521 36.3643 50.4378 37.2664 51.7103C37.7364 52.3732 38.1364 53.0742 38.4824 53.7921H39.7788C41.0185 53.7878 42.5135 53.5754 44.2108 53.3312L45.4753 53.131C45.9437 53.0528 46.4561 52.9639 47.0022 52.8717C48.0831 52.6894 49.2803 52.4937 50.4714 52.335C51.6602 52.1766 52.8639 52.0518 53.9557 52.0181C55.01 51.9855 56.0487 52.0348 56.8911 52.2637C60.3945 53.118 63.1704 54.8227 65.1653 57.2567C67.0937 59.6098 68.2374 62.5794 68.6663 65.9721C71.8793 68.799 72.4924 73.4145 71.0286 77.1255C69.3933 81.2706 65.3866 84.2596 59.7492 84.9721L59.4551 82.6613C64.4094 82.0353 67.5938 79.4846 68.8619 76.2704C70.0692 73.2091 69.437 69.5936 66.9332 67.555L66.915 67.5399L66.8968 67.5232L67.6686 66.6513L67.6762 66.6392L66.8968 67.5232C66.6089 67.2684 66.4313 66.916 66.3919 66.5422C66.034 63.3682 65.0094 60.7414 63.364 58.7335C61.723 56.7312 59.4078 55.2739 56.3407 54.526L56.321 54.5214L56.3028 54.5169L56.1012 54.4668C55.6033 54.3614 54.9042 54.32 54.0285 54.347C53.0481 54.3773 51.931 54.4892 50.7792 54.6427C49.63 54.7958 48.4655 54.9872 47.3888 55.1688C46.3229 55.3487 45.3241 55.523 44.5444 55.6358C42.898 55.8728 41.2245 56.116 39.7879 56.121H39.4073C39.5873 56.6793 39.742 57.2366 39.8743 57.7859C40.0249 58.411 39.6411 59.0406 39.0162 59.1914C38.3909 59.342 37.7612 58.957 37.6106 58.3317C37.1591 56.4575 36.4625 54.604 35.3666 53.0582C34.9906 52.5278 34.284 52.2781 33.6289 52.4623C32.8516 52.681 32.0074 53.0485 31.2545 53.7481C30.5084 54.4414 29.7859 55.5216 29.3425 57.2734L29.338 57.2719C29.1987 57.8288 28.7013 58.1892 28.1659 58.1892H28.1371C28.1204 58.1888 28.0896 58.1881 28.0522 58.1846C28.0196 58.1816 27.9512 58.1729 27.8627 58.1498C26.2613 57.7368 24.9433 57.3249 23.4534 57.3249C22.1321 57.3251 21.52 57.6601 19.9297 58.0254L19.913 58.0285C19.0636 58.2101 18.2661 57.6828 18.0374 56.9049L18.0359 56.8989L17.8509 56.3257C17.3952 55.054 16.7701 54.2268 16.13 53.6678C15.4822 53.1021 14.7703 52.7677 14.0907 52.5488L13.8011 52.4623C13.1512 52.2795 12.434 52.5229 12.0346 53.0613L12.0361 53.0628C9.79695 56.0983 8.9893 60.1598 8.71861 63.1033C8.71781 63.1439 8.71466 63.1849 8.70951 63.2261C8.70781 63.2398 8.7039 63.2529 8.70193 63.2656C8.70144 63.2717 8.70102 63.2791 8.70041 63.2868C8.69857 63.3103 8.69629 63.3451 8.69283 63.3808C8.6839 63.4727 8.65922 63.5593 8.63067 63.6431C8.18186 65.9401 8.17731 67.5967 8.17731 70.0053C8.17735 71.7213 8.58804 73.0863 9.2872 74.184C9.98974 75.287 11.0261 76.1852 12.3728 76.8966C15.0987 78.3365 18.9825 78.9495 23.4534 78.9496C24.8322 78.9496 25.7329 78.8916 26.9029 78.7646C27.0299 78.4636 27.1867 78.1789 27.3669 77.914C28.3681 76.4422 30.1244 75.4495 31.7109 75.0771C32.3368 74.9304 32.9633 75.3186 33.1104 75.9444C33.2573 76.5703 32.8689 77.1967 32.2431 77.3439C31.0845 77.6158 29.8928 78.3416 29.2925 79.224C29.0064 79.6448 28.8748 80.069 28.8937 80.4931C28.9127 80.9149 29.086 81.4537 29.6155 82.0958L28.5586 82.9676L28.7178 82.8372L29.617 82.0973C30.2277 82.8384 31.1278 83.1282 32.3098 83.0055C33.5167 82.8801 34.8845 82.3246 36.1171 81.5454C38.2751 80.1795 41.0557 78.8799 43.9394 79.2225C44.4598 79.2844 44.9976 79.3405 45.5633 79.4014C44.7305 78.3015 44.0628 76.9867 43.6831 75.4228L43.5876 74.9892C43.0792 72.4844 44.6976 70.0452 47.2008 69.5367L47.2023 69.5352ZM7.46468 75.6487C6.51399 76.0355 5.51512 76.7115 4.88707 77.5213C4.49533 78.0265 4.29417 78.5201 4.27147 78.9754C4.25009 79.4061 4.38004 79.925 4.87645 80.528C5.20164 80.9224 5.70998 81.1789 6.44576 81.2588C7.19267 81.3398 8.09873 81.2265 9.05673 80.948C10.2643 80.5969 11.41 80.0248 12.2803 79.4287C11.9387 79.2804 11.606 79.1249 11.2856 78.9556C9.73488 78.1365 8.41713 77.0535 7.46468 75.6487ZM6.40937 62.8653C6.40839 62.87 6.40777 62.8772 6.40634 62.885C6.40825 62.8738 6.41019 62.8627 6.41241 62.8516C6.41152 62.8556 6.41044 62.8601 6.40937 62.8653ZM28.175 56.9777L27.0864 56.7018L28.1644 56.9762L28.175 56.9777L28.2129 56.9883L28.2372 56.9929L28.175 56.9777Z" fill="#1A1A1A"/>
<path opacity="0.7" d="M12.8788 54.7997C13.1552 54.4241 13.6464 54.2564 14.0966 54.3837C14.6479 54.5392 15.8428 55.6155 16.5244 56.7782C16.8007 57.2487 16.4745 57.7873 15.9482 57.9286C14.7528 58.2484 13.7948 58.6988 12.6972 59.4999C12.0126 59.9981 11.12 59.5078 11.3369 58.6884C11.7172 57.2444 12.2826 55.6071 12.8788 54.7997ZM34.0351 54.3837C34.4853 54.2564 34.9765 54.4241 35.2529 54.7997C35.8491 55.6071 36.4135 57.2444 36.7939 58.6884C37.0109 59.5079 36.1191 59.998 35.4345 59.4999C34.3368 58.6987 33.3781 58.2485 32.1826 57.9286C31.6565 57.7871 31.3311 57.2485 31.6074 56.7782C32.2889 55.6154 33.4839 54.539 34.0351 54.3837Z" fill="#FFAFA3"/>
<path d="M23.2292 73.75C23.658 73.75 24.0056 74.0976 24.0056 74.5263C24.0056 74.9551 23.658 75.3026 23.2292 75.3026H21.7373C21.3085 75.3026 20.9609 74.9551 20.9609 74.5263C20.9609 74.0976 21.3085 73.75 21.7373 73.75H23.2292Z" fill="#D9D9D9"/>
<path d="M28.9492 67.2813C30.4291 67.2815 31.6288 68.5262 31.6289 70.0616C31.6289 71.5971 30.4292 72.8418 28.9492 72.8419C27.4692 72.8419 26.2695 71.5972 26.2695 70.0616C26.2696 68.5262 27.4692 67.2813 28.9492 67.2813Z" fill="#D9D9D9"/>
<path d="M27.8502 69.8585C28.2633 69.8585 28.5983 69.511 28.5983 69.0823C28.5983 68.6537 28.2633 68.3062 27.8502 68.3062C27.437 68.3062 27.1021 68.6537 27.1021 69.0823C27.1021 69.511 27.437 69.8585 27.8502 69.8585Z" fill="white"/>
<path d="M16.5283 67.2813C15.0483 67.2813 13.8487 68.5261 13.8486 70.0615C13.8486 71.5971 15.0483 72.8418 16.5283 72.8418C18.0082 72.8416 19.208 71.597 19.208 70.0615C19.2079 68.5262 18.0082 67.2814 16.5283 67.2813Z" fill="#D9D9D9"/>
<path d="M15.4293 69.8584C15.8424 69.8584 16.1774 69.5109 16.1774 69.0823C16.1774 68.6536 15.8424 68.3061 15.4293 68.3061C15.0161 68.3061 14.6812 68.6536 14.6812 69.0823C14.6812 69.5109 15.0161 69.8584 15.4293 69.8584Z" fill="white"/>
</svg>
