<svg width="75" height="86" viewBox="0 0 75 86" fill="none" xmlns="http://www.w3.org/2000/svg">
<path d="M40.1342 60.0836C21.7191 62.1795 10.8905 58.2051 7.77734 55.9539L27.666 25.819L40.1342 60.0836Z" fill="#2F15AC"/>
<path d="M35.1221 56.7239C35.1016 56.6187 34.9996 56.5501 34.8944 56.5706C34.7892 56.5912 34.7206 56.6931 34.7411 56.7983C34.7518 56.853 34.7616 56.9111 34.77 56.9725C34.7389 56.9283 34.7104 56.8853 34.6841 56.8438C34.6267 56.7532 34.5068 56.7263 34.4163 56.7836C34.3257 56.841 34.2988 56.9609 34.3561 57.0514C34.3933 57.1102 34.4345 57.1714 34.4802 57.2346C34.4385 57.2266 34.3985 57.2179 34.3602 57.2087C34.2559 57.1839 34.1512 57.2483 34.1264 57.3526C34.1016 57.4569 34.166 57.5615 34.2703 57.5863C34.329 57.6003 34.391 57.6133 34.4561 57.6248C34.427 57.6457 34.3972 57.6665 34.3665 57.6872C34.2777 57.7472 34.2543 57.8678 34.3144 57.9567C34.3744 58.0455 34.495 58.0688 34.5838 58.0088C34.6449 57.9676 34.703 57.926 34.7583 57.8843C34.7511 57.9313 34.7428 57.9793 34.7333 58.0282C34.7129 58.1334 34.7816 58.2353 34.8868 58.2557C34.992 58.2762 35.0939 58.2074 35.1144 58.1022C35.1257 58.0438 35.1355 57.9865 35.1439 57.9305C35.1941 57.9709 35.2466 58.0113 35.3017 58.0514C35.3883 58.1146 35.5097 58.0956 35.5728 58.009C35.636 57.9224 35.617 57.801 35.5304 57.7378C35.4916 57.7096 35.4543 57.6812 35.4183 57.6528C35.4945 57.6446 35.573 57.6337 35.6537 57.6199C35.7593 57.6019 35.8304 57.5017 35.8124 57.396C35.7944 57.2904 35.6941 57.2193 35.5884 57.2373C35.5244 57.2482 35.462 57.2571 35.4014 57.2642C35.4627 57.1872 35.5169 57.1121 35.5652 57.0397C35.6246 56.9505 35.6005 56.83 35.5114 56.7706C35.4222 56.7111 35.3017 56.7352 35.2422 56.8244C35.2162 56.8634 35.1882 56.9034 35.1578 56.9443C35.1478 56.8664 35.1356 56.7929 35.1221 56.7239Z" fill="#FFC21A"/>
<path d="M33.3115 44.8471C33.291 44.7419 33.1891 44.6733 33.0839 44.6938C32.9787 44.7144 32.91 44.8163 32.9306 44.9215C32.9412 44.9762 32.9511 45.0342 32.9594 45.0956C32.9283 45.0514 32.8998 45.0084 32.8735 44.9669C32.8162 44.8764 32.6963 44.8495 32.6057 44.9068C32.5151 44.9642 32.4882 45.0841 32.5456 45.1746C32.5828 45.2333 32.6239 45.2946 32.6696 45.3578C32.628 45.3497 32.588 45.341 32.5496 45.3319C32.4454 45.3071 32.3407 45.3715 32.3159 45.4758C32.291 45.58 32.3554 45.6847 32.4597 45.7095C32.5185 45.7235 32.5804 45.7365 32.6455 45.748C32.6165 45.7688 32.5867 45.7896 32.556 45.8104C32.4671 45.8704 32.4438 45.991 32.5038 46.0798C32.5638 46.1686 32.6845 46.192 32.7733 46.132C32.8343 46.0907 32.8924 46.0492 32.9478 46.0075C32.9406 46.0545 32.9323 46.1025 32.9228 46.1514C32.9023 46.2566 32.971 46.3584 33.0763 46.3789C33.1815 46.3993 33.2834 46.3306 33.3038 46.2254C33.3152 46.167 33.325 46.1097 33.3334 46.0536C33.3835 46.0941 33.4361 46.1345 33.4911 46.1746C33.5777 46.2378 33.6991 46.2187 33.7623 46.1321C33.8254 46.0455 33.8064 45.9241 33.7198 45.861C33.6811 45.8328 33.6438 45.8044 33.6078 45.776C33.684 45.7677 33.7624 45.7569 33.8431 45.7431C33.9488 45.7251 34.0199 45.6248 34.0018 45.5192C33.9838 45.4135 33.8836 45.3425 33.7779 45.3605C33.7138 45.3714 33.6515 45.3803 33.5908 45.3873C33.6522 45.3104 33.7064 45.2353 33.7546 45.1629C33.8141 45.0737 33.79 44.9532 33.7008 44.8937C33.6116 44.8343 33.4911 44.8584 33.4317 44.9476C33.4057 44.9866 33.3776 45.0266 33.3472 45.0675C33.3372 44.9895 33.325 44.9161 33.3115 44.8471Z" fill="#FFC21A"/>
<path d="M25.3155 41.5635C25.2949 41.4583 25.193 41.3897 25.0878 41.4102C24.9826 41.4308 24.9139 41.5327 24.9345 41.6379C24.9452 41.6926 24.955 41.7507 24.9633 41.8121C24.9322 41.7679 24.9037 41.7249 24.8774 41.6834C24.8201 41.5928 24.7002 41.5659 24.6096 41.6232C24.5191 41.6806 24.4921 41.8005 24.5495 41.891C24.5867 41.9498 24.6278 42.011 24.6735 42.0742C24.6319 42.0662 24.5919 42.0575 24.5535 42.0483C24.4493 42.0235 24.3446 42.0879 24.3198 42.1922C24.2949 42.2965 24.3594 42.4011 24.4636 42.4259C24.5224 42.4399 24.5843 42.4529 24.6494 42.4644C24.6204 42.4853 24.5906 42.5061 24.5599 42.5268C24.4711 42.5868 24.4477 42.7074 24.5077 42.7963C24.5677 42.8851 24.6884 42.9084 24.7772 42.8484C24.8382 42.8072 24.8963 42.7656 24.9517 42.7239C24.9445 42.7709 24.9362 42.8189 24.9267 42.8678C24.9062 42.973 24.9749 43.0749 25.0802 43.0953C25.1854 43.1158 25.2873 43.047 25.3077 42.9418C25.3191 42.8834 25.3289 42.8261 25.3373 42.7701C25.3875 42.8105 25.44 42.8509 25.495 42.891C25.5816 42.9542 25.703 42.9352 25.7662 42.8486C25.8293 42.762 25.8103 42.6406 25.7237 42.5774C25.685 42.5492 25.6477 42.5208 25.6117 42.4924C25.6879 42.4842 25.7663 42.4733 25.847 42.4595C25.9527 42.4415 26.0238 42.3413 26.0057 42.2356C25.9877 42.13 25.8875 42.0589 25.7818 42.0769C25.7177 42.0878 25.6554 42.0967 25.5947 42.1038C25.6561 42.0268 25.7103 41.9517 25.7585 41.8793C25.818 41.7901 25.7939 41.6696 25.7047 41.6102C25.6155 41.5507 25.495 41.5748 25.4356 41.664C25.4096 41.703 25.3815 41.743 25.3511 41.7839C25.3411 41.706 25.3289 41.6325 25.3155 41.5635Z" fill="#FFC21A"/>
<path d="M29.9619 39.7081C29.9414 39.6029 29.8395 39.5342 29.7343 39.5548C29.629 39.5753 29.5604 39.6772 29.581 39.7824C29.5916 39.8372 29.6015 39.8952 29.6098 39.9566C29.5787 39.9124 29.5502 39.8694 29.5239 39.8279C29.4666 39.7373 29.3467 39.7104 29.2561 39.7678C29.1655 39.8251 29.1386 39.945 29.196 40.0356C29.2332 40.0943 29.2743 40.1556 29.32 40.2187C29.2784 40.2107 29.2384 40.202 29.2 40.1929C29.0957 40.1681 28.9911 40.2325 28.9663 40.3367C28.9414 40.441 29.0058 40.5456 29.1101 40.5705C29.1689 40.5844 29.2308 40.5975 29.2959 40.609C29.2669 40.6298 29.237 40.6506 29.2064 40.6713C29.1175 40.7313 29.0942 40.852 29.1542 40.9408C29.2142 41.0296 29.3349 41.0529 29.4237 40.9929C29.4847 40.9517 29.5428 40.9102 29.5982 40.8685C29.591 40.9155 29.5827 40.9634 29.5731 41.0123C29.5527 41.1175 29.6214 41.2194 29.7267 41.2398C29.8319 41.2603 29.9338 41.1916 29.9542 41.0863C29.9656 41.0279 29.9754 40.9707 29.9838 40.9146C30.0339 40.9551 30.0865 40.9954 30.1415 41.0356C30.2281 41.0987 30.3495 41.0797 30.4127 40.9931C30.4758 40.9065 30.4568 40.7851 30.3702 40.7219C30.3315 40.6937 30.2941 40.6654 30.2582 40.637C30.3343 40.6287 30.4128 40.6178 30.4935 40.6041C30.5992 40.586 30.6702 40.4858 30.6522 40.3801C30.6342 40.2745 30.534 40.2034 30.4283 40.2214C30.3642 40.2324 30.3019 40.2412 30.2412 40.2483C30.3025 40.1714 30.3568 40.0962 30.405 40.0238C30.4645 39.9347 30.4404 39.8142 30.3512 39.7547C30.262 39.6953 30.1415 39.7194 30.082 39.8085C30.056 39.8475 30.028 39.8876 29.9976 39.9285C29.9876 39.8505 29.9754 39.777 29.9619 39.7081Z" fill="#FFC21A"/>
<path d="M21.0674 38.3416C21.0469 38.2364 20.9449 38.1678 20.8397 38.1883C20.7345 38.2089 20.6659 38.3108 20.6864 38.416C20.6971 38.4707 20.7069 38.5287 20.7153 38.5901C20.6842 38.5459 20.6557 38.5029 20.6294 38.4614C20.572 38.3709 20.4521 38.344 20.3616 38.4013C20.271 38.4587 20.2441 38.5786 20.3014 38.6691C20.3386 38.7278 20.3798 38.7891 20.4255 38.8523C20.3838 38.8442 20.3438 38.8356 20.3055 38.8264C20.2012 38.8016 20.0966 38.866 20.0717 38.9703C20.0469 39.0745 20.1113 39.1792 20.2156 39.204C20.2743 39.218 20.3363 39.231 20.4014 39.2425C20.3724 39.2633 20.3425 39.2841 20.3118 39.3049C20.223 39.3649 20.1997 39.4855 20.2597 39.5743C20.3197 39.6631 20.4403 39.6865 20.5291 39.6265C20.5902 39.5853 20.6483 39.5437 20.7036 39.502C20.6964 39.549 20.6881 39.597 20.6786 39.6459C20.6582 39.7511 20.7269 39.8529 20.8321 39.8734C20.9374 39.8938 21.0392 39.8251 21.0597 39.7199C21.071 39.6615 21.0808 39.6042 21.0892 39.5481C21.1394 39.5886 21.1919 39.629 21.247 39.6691C21.3336 39.7323 21.455 39.7132 21.5181 39.6266C21.5813 39.54 21.5623 39.4186 21.4757 39.3555C21.4369 39.3273 21.3996 39.2989 21.3636 39.2705C21.4398 39.2622 21.5183 39.2514 21.599 39.2376C21.7047 39.2196 21.7757 39.1193 21.7577 39.0137C21.7397 38.908 21.6394 38.837 21.5338 38.855C21.4697 38.8659 21.4073 38.8748 21.3467 38.8818C21.408 38.8049 21.4622 38.7298 21.5105 38.6574C21.57 38.5682 21.5459 38.4477 21.4567 38.3883C21.3675 38.3288 21.247 38.3529 21.1875 38.4421C21.1615 38.4811 21.1335 38.5211 21.1031 38.562C21.0931 38.484 21.0809 38.4106 21.0674 38.3416Z" fill="#FFC21A"/>
<path d="M20.6553 44.5597C20.6348 44.4546 20.5328 44.3859 20.4276 44.4065C20.3224 44.427 20.2538 44.5289 20.2743 44.6341C20.285 44.6888 20.2948 44.7469 20.3032 44.8083C20.2721 44.7641 20.2436 44.7211 20.2173 44.6796C20.1599 44.589 20.04 44.5621 19.9495 44.6195C19.8589 44.6768 19.832 44.7967 19.8893 44.8872C19.9265 44.946 19.9677 45.0072 20.0134 45.0704C19.9717 45.0624 19.9317 45.0537 19.8934 45.0446C19.7891 45.0197 19.6844 45.0841 19.6596 45.1884C19.6348 45.2927 19.6992 45.3973 19.8035 45.4221C19.8622 45.4361 19.9242 45.4491 19.9893 45.4606C19.9603 45.4815 19.9304 45.5023 19.8997 45.523C19.8109 45.583 19.7875 45.7037 19.8476 45.7925C19.9076 45.8813 20.0282 45.9046 20.117 45.8446C20.1781 45.8034 20.2362 45.7619 20.2915 45.7202C20.2843 45.7672 20.276 45.8151 20.2665 45.864C20.2461 45.9692 20.3148 46.0711 20.42 46.0915C20.5252 46.112 20.6271 46.0432 20.6476 45.938C20.6589 45.8796 20.6687 45.8224 20.6771 45.7663C20.7273 45.8068 20.7798 45.8471 20.8349 45.8873C20.9215 45.9504 21.0429 45.9314 21.106 45.8448C21.1692 45.7582 21.1502 45.6368 21.0636 45.5736C21.0248 45.5454 20.9875 45.5171 20.9515 45.4887C21.0277 45.4804 21.1062 45.4695 21.1869 45.4557C21.2925 45.4377 21.3636 45.3375 21.3456 45.2318C21.3276 45.1262 21.2273 45.0551 21.1216 45.0731C21.0576 45.084 20.9952 45.0929 20.9346 45.1C20.9959 45.023 21.0501 44.9479 21.0984 44.8755C21.1578 44.7863 21.1337 44.6658 21.0446 44.6064C20.9554 44.5469 20.8349 44.571 20.7754 44.6602C20.7494 44.6992 20.7214 44.7393 20.691 44.7801C20.681 44.7022 20.6688 44.6287 20.6553 44.5597Z" fill="#FFC21A"/>
<path d="M24.2139 47.8669C24.1933 47.7617 24.0914 47.6931 23.9862 47.7136C23.881 47.7341 23.8124 47.8361 23.8329 47.9413C23.8436 47.996 23.8534 48.054 23.8618 48.1154C23.8307 48.0712 23.8022 48.0282 23.7759 47.9867C23.7185 47.8962 23.5986 47.8692 23.508 47.9266C23.4175 47.9839 23.3906 48.1038 23.4479 48.1944C23.4851 48.2531 23.5263 48.3144 23.5719 48.3775C23.5303 48.3695 23.4903 48.3608 23.452 48.3517C23.3477 48.3269 23.243 48.3913 23.2182 48.4955C23.1934 48.5998 23.2578 48.7044 23.3621 48.7293C23.4208 48.7433 23.4828 48.7563 23.5479 48.7678C23.5188 48.7886 23.489 48.8094 23.4583 48.8301C23.3695 48.8901 23.3461 49.0108 23.4062 49.0996C23.4662 49.1884 23.5868 49.2118 23.6756 49.1517C23.7367 49.1105 23.7948 49.069 23.8501 49.0273C23.8429 49.0743 23.8346 49.1222 23.8251 49.1711C23.8047 49.2764 23.8734 49.3782 23.9786 49.3987C24.0838 49.4191 24.1857 49.3504 24.2062 49.2452C24.2175 49.1867 24.2273 49.1295 24.2357 49.0734C24.2859 49.1139 24.3384 49.1543 24.3935 49.1944C24.4801 49.2575 24.6015 49.2385 24.6646 49.1519C24.7278 49.0653 24.7088 48.9439 24.6222 48.8808C24.5834 48.8525 24.5461 48.8242 24.5101 48.7958C24.5863 48.7875 24.6647 48.7766 24.7455 48.7629C24.8511 48.7449 24.9222 48.6446 24.9042 48.539C24.8862 48.4333 24.7859 48.3622 24.6802 48.3803C24.6162 48.3912 24.5538 48.4001 24.4932 48.4071C24.5545 48.3302 24.6087 48.255 24.657 48.1826C24.7164 48.0935 24.6923 47.973 24.6031 47.9135C24.514 47.8541 24.3935 47.8782 24.334 47.9673C24.308 48.0063 24.2799 48.0464 24.2496 48.0873C24.2396 48.0093 24.2274 47.9358 24.2139 47.8669Z" fill="#FFC21A"/>
<path d="M16.8711 48.55C16.8506 48.4448 16.7486 48.3762 16.6434 48.3967C16.5382 48.4172 16.4696 48.5192 16.4901 48.6244C16.5008 48.6791 16.5106 48.7371 16.519 48.7985C16.4879 48.7543 16.4594 48.7113 16.4331 48.6698C16.3757 48.5793 16.2558 48.5523 16.1653 48.6097C16.0747 48.667 16.0478 48.7869 16.1052 48.8775C16.1424 48.9362 16.1835 48.9975 16.2292 49.0606C16.1875 49.0526 16.1476 49.0439 16.1092 49.0348C16.0049 49.01 15.9003 49.0744 15.8754 49.1786C15.8506 49.2829 15.915 49.3876 16.0193 49.4124C16.078 49.4264 16.14 49.4394 16.2051 49.4509C16.1761 49.4717 16.1462 49.4925 16.1155 49.5132C16.0267 49.5733 16.0034 49.6939 16.0634 49.7827C16.1234 49.8715 16.244 49.8949 16.3329 49.8349C16.3939 49.7936 16.452 49.7521 16.5073 49.7104C16.5001 49.7574 16.4918 49.8053 16.4823 49.8542C16.4619 49.9595 16.5306 50.0613 16.6358 50.0818C16.7411 50.1022 16.8429 50.0335 16.8634 49.9283C16.8747 49.8699 16.8845 49.8126 16.893 49.7565C16.9431 49.797 16.9956 49.8374 17.0507 49.8775C17.1373 49.9406 17.2587 49.9216 17.3219 49.835C17.385 49.7484 17.366 49.627 17.2794 49.5639C17.2407 49.5356 17.2033 49.5073 17.1673 49.4789C17.2435 49.4706 17.322 49.4597 17.4027 49.446C17.5084 49.428 17.5794 49.3277 17.5614 49.2221C17.5434 49.1164 17.4431 49.0453 17.3375 49.0634C17.2734 49.0743 17.2111 49.0832 17.1504 49.0902C17.2117 49.0133 17.2659 48.9381 17.3142 48.8658C17.3737 48.7766 17.3496 48.6561 17.2604 48.5966C17.1712 48.5372 17.0507 48.5613 16.9912 48.6505C16.9652 48.6894 16.9372 48.7295 16.9068 48.7704C16.8968 48.6924 16.8846 48.619 16.8711 48.55Z" fill="#FFC21A"/>
<path d="M21.1377 52.2994C21.1172 52.1942 21.0152 52.1256 20.91 52.1461C20.8048 52.1666 20.7362 52.2686 20.7567 52.3737C20.7674 52.4285 20.7772 52.4865 20.7856 52.5479C20.7545 52.5037 20.726 52.4607 20.6997 52.4192C20.6423 52.3287 20.5224 52.3017 20.4319 52.3591C20.3413 52.4164 20.3144 52.5363 20.3718 52.6269C20.409 52.6856 20.4501 52.7469 20.4958 52.81C20.4541 52.802 20.4142 52.7933 20.3758 52.7842C20.2715 52.7594 20.1669 52.8238 20.142 52.928C20.1172 53.0323 20.1816 53.1369 20.2859 53.1618C20.3447 53.1758 20.4066 53.1888 20.4717 53.2003C20.4427 53.2211 20.4128 53.2419 20.3821 53.2626C20.2933 53.3226 20.27 53.4433 20.33 53.5321C20.39 53.6209 20.5106 53.6442 20.5995 53.5842C20.6605 53.543 20.7186 53.5015 20.7739 53.4598C20.7667 53.5068 20.7584 53.5547 20.7489 53.6036C20.7285 53.7088 20.7972 53.8107 20.9024 53.8312C21.0077 53.8516 21.1095 53.7829 21.13 53.6777C21.1413 53.6192 21.1512 53.562 21.1596 53.5059C21.2097 53.5464 21.2622 53.5868 21.3173 53.6269C21.4039 53.69 21.5253 53.671 21.5885 53.5844C21.6516 53.4978 21.6326 53.3764 21.546 53.3133C21.5073 53.285 21.4699 53.2567 21.434 53.2283C21.5101 53.22 21.5886 53.2091 21.6693 53.1954C21.775 53.1774 21.846 53.0771 21.828 52.9714C21.81 52.8658 21.7097 52.7947 21.6041 52.8127C21.54 52.8237 21.4777 52.8326 21.417 52.8396C21.4783 52.7627 21.5325 52.6875 21.5808 52.6151C21.6403 52.526 21.6162 52.4055 21.527 52.346C21.4378 52.2866 21.3173 52.3107 21.2578 52.3998C21.2318 52.4388 21.2038 52.4789 21.1734 52.5198C21.1634 52.4418 21.1512 52.3683 21.1377 52.2994Z" fill="#FFC21A"/>
<path d="M14.6895 54.3097C14.6689 54.2046 14.567 54.1359 14.4618 54.1565C14.3566 54.177 14.288 54.2789 14.3085 54.3841C14.3192 54.4388 14.329 54.4969 14.3373 54.5583C14.3063 54.5141 14.2777 54.4711 14.2515 54.4296C14.1941 54.339 14.0742 54.3121 13.9836 54.3695C13.8931 54.4268 13.8662 54.5467 13.9235 54.6372C13.9607 54.696 14.0018 54.7572 14.0475 54.8204C14.0059 54.8124 13.9659 54.8037 13.9276 54.7946C13.8233 54.7697 13.7186 54.8341 13.6938 54.9384C13.669 55.0427 13.7334 55.1473 13.8377 55.1721C13.8964 55.1861 13.9583 55.1991 14.0235 55.2106C13.9944 55.2315 13.9646 55.2523 13.9339 55.273C13.8451 55.333 13.8217 55.4537 13.8817 55.5425C13.9417 55.6313 14.0624 55.6546 14.1512 55.5946C14.2122 55.5534 14.2703 55.5119 14.3257 55.4702C14.3185 55.5172 14.3102 55.5651 14.3007 55.614C14.2802 55.7192 14.349 55.8211 14.4542 55.8415C14.5594 55.862 14.6613 55.7932 14.6817 55.688C14.6931 55.6296 14.7029 55.5724 14.7113 55.5163C14.7615 55.5568 14.814 55.5971 14.869 55.6373C14.9556 55.7004 15.0771 55.6814 15.1402 55.5948C15.2034 55.5082 15.1844 55.3868 15.0977 55.3236C15.059 55.2954 15.0217 55.2671 14.9857 55.2387C15.0619 55.2304 15.1403 55.2195 15.2211 55.2057C15.3267 55.1877 15.3978 55.0875 15.3798 54.9818C15.3618 54.8762 15.2615 54.8051 15.1558 54.8231C15.0918 54.834 15.0294 54.8429 14.9687 54.85C15.0301 54.773 15.0843 54.6979 15.1326 54.6255C15.192 54.5363 15.1679 54.4158 15.0787 54.3564C14.9895 54.2969 14.869 54.321 14.8096 54.4102C14.7836 54.4492 14.7555 54.4893 14.7252 54.5301C14.7151 54.4522 14.7029 54.3787 14.6895 54.3097Z" fill="#FFC21A"/>
<path d="M25.1553 35.2365C25.1348 35.1313 25.0328 35.0627 24.9276 35.0832C24.8224 35.1038 24.7538 35.2057 24.7743 35.3109C24.785 35.3656 24.7948 35.4236 24.8032 35.485C24.7721 35.4408 24.7436 35.3978 24.7173 35.3563C24.6599 35.2658 24.54 35.2389 24.4495 35.2962C24.3589 35.3536 24.332 35.4735 24.3893 35.564C24.4265 35.6227 24.4677 35.684 24.5134 35.7472C24.4717 35.7391 24.4317 35.7304 24.3934 35.7213C24.2891 35.6965 24.1844 35.7609 24.1596 35.8652C24.1348 35.9694 24.1992 36.0741 24.3035 36.0989C24.3622 36.1129 24.4242 36.1259 24.4893 36.1374C24.4603 36.1582 24.4304 36.179 24.3997 36.1998C24.3109 36.2598 24.2875 36.3804 24.3476 36.4692C24.4076 36.558 24.5282 36.5814 24.617 36.5214C24.6781 36.4801 24.7362 36.4386 24.7915 36.3969C24.7843 36.4439 24.776 36.4919 24.7665 36.5408C24.7461 36.646 24.8148 36.7478 24.92 36.7683C25.0252 36.7887 25.1271 36.72 25.1476 36.6148C25.1589 36.5564 25.1687 36.4991 25.1771 36.443C25.2273 36.4835 25.2798 36.5239 25.3349 36.564C25.4215 36.6272 25.5429 36.6081 25.606 36.5215C25.6692 36.4349 25.6502 36.3135 25.5636 36.2504C25.5248 36.2222 25.4875 36.1938 25.4515 36.1654C25.5277 36.1571 25.6062 36.1463 25.6869 36.1325C25.7925 36.1145 25.8636 36.0142 25.8456 35.9086C25.8276 35.8029 25.7273 35.7319 25.6216 35.7499C25.5576 35.7608 25.4952 35.7697 25.4346 35.7767C25.4959 35.6998 25.5501 35.6247 25.5984 35.5523C25.6578 35.4631 25.6337 35.3426 25.5446 35.2832C25.4554 35.2237 25.3349 35.2478 25.2754 35.337C25.2494 35.376 25.2214 35.416 25.191 35.4569C25.181 35.3789 25.1688 35.3055 25.1553 35.2365Z" fill="#FFC21A"/>
<path d="M28.6641 30.975C28.6435 30.8698 28.5416 30.8012 28.4364 30.8217C28.3312 30.8423 28.2626 30.9442 28.2831 31.0494C28.2938 31.1041 28.3036 31.1622 28.3119 31.2236C28.2809 31.1794 28.2524 31.1364 28.2261 31.0949C28.1687 31.0043 28.0488 30.9774 27.9582 31.0347C27.8677 31.0921 27.8408 31.212 27.8981 31.3025C27.9353 31.3613 27.9764 31.4225 28.0221 31.4857C27.9805 31.4777 27.9405 31.469 27.9022 31.4598C27.7979 31.435 27.6932 31.4994 27.6684 31.6037C27.6436 31.708 27.708 31.8126 27.8123 31.8374C27.871 31.8514 27.9329 31.8644 27.9981 31.8759C27.969 31.8968 27.9392 31.9176 27.9085 31.9383C27.8197 31.9983 27.7963 32.1189 27.8563 32.2078C27.9164 32.2966 28.037 32.3199 28.1258 32.2599C28.1869 32.2187 28.245 32.1771 28.3003 32.1354C28.2931 32.1824 28.2848 32.2304 28.2753 32.2793C28.2549 32.3845 28.3236 32.4864 28.4288 32.5068C28.534 32.5273 28.6359 32.4585 28.6563 32.3533C28.6677 32.2949 28.6775 32.2376 28.6859 32.1816C28.7361 32.222 28.7886 32.2624 28.8436 32.3025C28.9303 32.3657 29.0517 32.3467 29.1148 32.2601C29.178 32.1735 29.159 32.0521 29.0723 31.9889C29.0336 31.9607 28.9963 31.9323 28.9603 31.9039C29.0365 31.8957 29.1149 31.8848 29.1957 31.871C29.3013 31.853 29.3724 31.7528 29.3544 31.6471C29.3364 31.5414 29.2361 31.4704 29.1304 31.4884C29.0664 31.4993 29.004 31.5082 28.9434 31.5153C29.0047 31.4383 29.0589 31.3632 29.1072 31.2908C29.1666 31.2016 29.1425 31.0811 29.0533 31.0217C28.9642 30.9622 28.8437 30.9863 28.7842 31.0755C28.7582 31.1145 28.7301 31.1545 28.6998 31.1954C28.6898 31.1175 28.6776 31.044 28.6641 30.975Z" fill="#FFC21A"/>
<path d="M20.9732 57.3203C33.6433 62.1952 35.6044 49.2004 28.2911 45.3966C28.0613 45.2724 27.8098 45.4897 27.8703 45.7381C28.805 49.6195 28.7523 53.9978 20.9809 56.7458C20.7092 56.839 20.7046 57.2271 20.9732 57.3203Z" fill="#FFC21A"/>
<path fill-rule="evenodd" clip-rule="evenodd" d="M27.8027 24.6625C28.2397 24.714 28.6104 25.0074 28.7609 25.4208L41.2291 59.6854C41.3511 60.0206 41.3127 60.3932 41.125 60.6964C40.9373 60.9997 40.6209 61.2002 40.2665 61.2405C30.9516 62.3007 23.5236 61.8293 18.0033 60.7934C12.5141 59.7633 8.84358 58.1615 7.09548 56.8975C6.59004 56.532 6.46237 55.8332 6.80594 55.3126L26.6946 25.1776C26.937 24.8104 27.3657 24.6111 27.8027 24.6625ZM9.40686 55.5998C11.1032 56.5343 14.0989 57.6912 18.4329 58.5045C23.4214 59.4406 30.124 59.9098 38.5314 59.0828L27.3636 28.392L9.40686 55.5998Z" fill="#1A1A1A"/>
</svg>
