<svg width="75" height="86" viewBox="0 0 75 86" fill="none" xmlns="http://www.w3.org/2000/svg">
<path d="M50.6186 75.0807C50.8706 75.3027 51.0151 75.621 51.0151 75.9563V83.9198H61.5202C63.7663 79.2029 67.7308 68.2506 67.7308 57.4751C67.7308 43.7635 54.1252 30.354 38.1308 30.354C30.0869 30.354 21.4224 33.0401 14.7907 38.419C8.1879 43.7745 3.57227 51.8163 3.57227 62.6588C3.57227 73.7889 5.88033 78.5927 8.42155 80.7105C10.6286 82.5488 13.2266 82.5985 15.6678 82.5768V76.6473C14.6675 76.7094 13.5433 76.714 12.5439 76.551C10.9308 76.2891 9.26786 75.3859 9.26786 73.5373C9.26786 70.5672 10.657 68.7459 12.3633 67.7321C13.9871 66.7663 15.8215 66.5654 16.8322 66.5654C17.8477 66.5654 20.4628 66.6388 22.7673 69.2055C24.9185 71.6012 26.6244 75.9796 26.7756 83.9198H36.9663V75.9563C36.9663 75.621 37.1115 75.3011 37.3645 75.0791C37.8243 74.6786 38.3395 74.813 38.8703 74.8757C39.2387 74.9207 39.7544 74.9797 40.3428 75.0387C41.5309 75.1583 42.9731 75.2701 44.095 75.2623C45.1822 75.2546 46.5749 75.1412 47.7184 75.0263C48.2853 74.9704 48.782 74.913 49.1368 74.8711C49.6598 74.8069 50.1672 74.6858 50.6186 75.0807Z" fill="#FF99E0"/>
<path fill-rule="evenodd" clip-rule="evenodd" d="M38.1307 29.1896C29.8478 29.1896 20.9171 31.9506 14.0571 37.5146C7.19702 43.0788 2.40771 51.4461 2.40771 62.6589C2.40771 73.8715 4.71803 79.14 7.67598 81.6051C10.2465 83.7461 13.2601 83.7628 15.6781 83.7412C16.3171 83.7355 16.8322 83.2159 16.8322 82.5768V76.6473C16.8322 76.3259 16.6993 76.0189 16.4652 75.7988C16.231 75.5787 15.9163 75.4652 15.5955 75.4851C14.6324 75.5449 13.6059 75.5444 12.7305 75.4016C12.4399 75.3544 12.1619 75.2844 11.9066 75.1941C11.5637 75.0728 11.2616 74.9149 11.0245 74.7268C10.6455 74.4262 10.4323 74.0579 10.4323 73.5374C10.4323 71.0031 11.5832 69.5501 12.9585 68.7329C14.3341 67.9148 15.9343 67.7299 16.8322 67.7299C17.7314 67.7299 19.9283 67.7867 21.9008 69.9835C23.3418 71.5884 24.6647 74.3378 25.272 79.0487C25.4576 80.4887 25.5764 82.1121 25.6113 83.942C25.6233 84.5764 26.141 85.0843 26.7755 85.0843H36.9662C37.6093 85.0843 38.1307 84.563 38.1307 83.9198V75.9675L38.8646 76.048L40.2266 76.1974C41.4239 76.3179 42.9168 76.435 44.1033 76.4268C45.9632 76.4135 47.8085 76.1831 49.6537 75.9786C49.7532 75.9676 49.8122 75.9655 49.8506 75.967V83.9198C49.8506 84.563 50.3719 85.0843 51.0151 85.0843H61.5202C61.9693 85.0843 62.3784 84.826 62.5715 84.4205C64.8594 79.6156 68.8952 68.4864 68.8952 57.4751C68.8952 43.0514 54.697 29.1896 38.1307 29.1896ZM38.1307 31.5185C30.3258 31.5185 21.9276 34.1296 15.5242 39.3234C15.4718 39.3659 15.4195 39.4086 15.3674 39.4515C13.8822 40.6721 12.5036 42.0349 11.2644 43.5425C8.38839 47.0414 6.26391 51.3196 5.30397 56.4075C4.93367 58.3703 4.73666 60.4535 4.73666 62.6589C4.73666 73.3653 6.90229 77.7712 8.96975 79.6445C9.03553 79.7041 9.10122 79.7612 9.16674 79.8158C10.7171 81.107 12.5074 81.3712 14.5032 81.4095V77.8516C13.7951 77.8538 13.0562 77.8145 12.3564 77.7003C10.2001 77.35 8.10331 75.9781 8.10331 73.5374C8.10331 70.4793 9.41542 68.4018 11.158 67.133C11.3563 66.9886 11.5602 66.8547 11.7684 66.731C13.6402 65.6179 15.7086 65.401 16.8322 65.401C17.9637 65.401 20.997 65.491 23.6337 68.4275C25.5519 70.5638 27.0374 73.9647 27.648 79.2967C27.7619 80.2915 27.8454 81.3535 27.8955 82.487C27.8994 82.576 27.9032 82.6655 27.9067 82.7554H35.8017V75.9564C35.8017 75.2844 36.0925 74.646 36.5965 74.2038L36.5996 74.2011C37.6214 73.311 39.2322 73.7571 40.4593 73.8802C41.6381 73.9988 43.0297 74.1052 44.0869 74.0979C45.1174 74.0905 46.4657 73.9819 47.6019 73.8677L47.6041 73.8675C48.8292 73.7467 50.3638 73.3106 51.3853 74.2043L51.3883 74.207C51.8896 74.6487 52.1795 75.2845 52.1795 75.9564V82.7554H60.7771C63.0165 77.8179 66.5662 67.5392 66.5662 57.4751C66.5662 44.4756 53.5532 31.5185 38.1307 31.5185Z" fill="#1A1A1A"/>
<path d="M68.1247 53.0252C67.5688 52.7018 66.856 52.8902 66.5325 53.446C66.2091 54.0019 66.3975 54.7147 66.9534 55.0382C68.0953 55.7026 72.5415 59.4048 70.7652 68.139C70.7244 68.1792 70.6865 68.2224 70.652 68.2684L70.6495 68.2706C70.5546 68.3545 70.4305 68.4766 70.3534 68.5525C70.3268 68.5786 70.3059 68.5992 70.2935 68.611L70.2814 68.6226C69.7608 69.1181 69.2784 69.6438 68.7398 70.1214C68.4055 70.4178 68.0428 71.0198 67.9145 71.3342L67.7286 72.1172C67.584 72.7438 67.9747 73.3691 68.6013 73.5137C69.1108 73.6314 69.6941 73.3843 69.9442 72.9551C69.856 73.4104 69.8334 73.4845 69.8092 73.7574C69.7838 74.044 69.7638 74.3293 69.7455 74.6043C69.7029 75.246 70.1885 75.8008 70.8302 75.8435C71.4719 75.8861 72.0267 75.4005 72.0694 74.7588C72.0762 74.6564 72.083 74.555 72.0902 74.4544C72.3028 74.6821 72.6055 74.8244 72.9416 74.8244C73.5847 74.8244 74.106 74.3031 74.106 73.66C74.106 73.284 74.1023 72.7748 73.9791 72.2563C73.9257 72.0326 73.8879 71.7941 73.8473 71.5121L73.8301 71.392C73.7958 71.151 73.647 70.535 73.5293 69.9307C73.4116 69.3264 73.072 68.4809 73.072 68.4809C75.0059 58.7333 70.0104 54.1225 68.1247 53.0252Z" fill="#1A1A1A"/>
<path fill-rule="evenodd" clip-rule="evenodd" d="M26.7229 38.6603C25.3804 39.91 24.5922 41.3383 24.3961 42.0668C24.229 42.6879 23.59 43.0558 22.969 42.8886C22.348 42.7215 21.9801 42.0825 22.1472 41.4615C22.4809 40.222 23.55 38.4321 25.136 36.9557C26.7454 35.4574 29.0153 34.1634 31.8004 34.1634C33.3857 34.1634 36.0372 34.4752 38.3149 36.208C40.6527 37.9866 42.3878 41.0997 42.3878 46.2651C42.3878 51.5171 39.9715 55.8734 37.0136 58.795C35.5339 60.2565 33.8956 61.3831 32.3112 62.0935C30.7508 62.793 29.1303 63.1374 27.7334 62.8679C25.0853 62.3568 23.3646 60.4111 22.4878 58.0896C21.6162 55.7819 21.5202 52.992 22.1399 50.4315C22.2911 49.8065 22.9205 49.4224 23.5456 49.5737C24.1707 49.7249 24.5547 50.3543 24.4035 50.9794C23.8787 53.1476 23.9819 55.4539 24.6666 57.2668C25.3461 59.066 26.5389 60.2654 28.1747 60.5811C28.92 60.7249 30.0292 60.5642 31.3584 59.9683C32.6636 59.3832 34.0748 58.4242 35.377 57.138C37.9826 54.5644 40.0589 50.7775 40.0589 46.2651C40.0589 41.666 38.5464 39.3105 36.9048 38.0616C35.2029 36.7669 33.1429 36.4924 31.8004 36.4924C29.7715 36.4924 28.0418 37.4325 26.7229 38.6603Z" fill="#1A1A1A"/>
<path d="M19.6033 59.2177C20.0222 59.7056 20.7574 59.7625 21.2454 59.3436C21.7332 58.9247 21.7884 58.1894 21.3697 57.7015C20.0946 56.2161 18.6203 55.7824 17.2592 56.0427C16.0075 56.2822 15.0271 57.0736 14.4905 57.7075C14.0751 58.1984 14.1361 58.9326 14.627 59.3481C15.1179 59.7636 15.8521 59.7025 16.2676 59.2117C16.5758 58.8475 17.12 58.4412 17.6959 58.3307C18.1626 58.2414 18.8205 58.3059 19.6033 59.2177Z" fill="#1A1A1A"/>
<path fill-rule="evenodd" clip-rule="evenodd" d="M13.9997 62.1986C14.4751 61.7655 15.2116 61.7997 15.6447 62.2751C16.9705 63.7304 16.8663 65.9844 15.4122 67.3111L14.9374 67.7436C14.4619 68.1767 13.7254 68.1423 13.2924 67.6669C12.8593 67.1914 12.8937 66.4549 13.3691 66.0218L13.8424 65.5907C13.8426 65.5906 13.8423 65.5908 13.8424 65.5907C14.3466 65.1304 14.3829 64.3483 13.9231 63.8436C13.49 63.3682 13.5243 62.6317 13.9997 62.1986Z" fill="#1A1A1A"/>
<path d="M8.04238 55.9717C7.18488 55.9717 6.48975 56.6668 6.48975 57.5243C6.48975 58.3818 7.18488 59.0769 8.04238 59.0769C8.89987 59.0769 9.59501 58.3818 9.59501 57.5243C9.59501 56.6668 8.89987 55.9717 8.04238 55.9717Z" fill="#1A1A1A"/>
</svg>
