<svg width="75" height="90" viewBox="0 0 75 90" fill="none" xmlns="http://www.w3.org/2000/svg">
<path d="M18.8156 26.7276L18.6328 23.8212L23.9886 23.4843L24.1713 26.3922L21.5632 27.67L18.8156 26.7276Z" fill="#787878"/>
<path d="M23.9247 22.4806C24.191 22.4638 24.4539 22.5529 24.6541 22.7292C24.8541 22.9056 24.9753 23.1545 24.9922 23.4206L25.1757 26.3286L24.1704 26.3908L24.1719 26.3923L25.1757 26.3286C25.2012 26.7345 24.9798 27.1168 24.6146 27.2959L22.0066 28.574C21.7667 28.6915 21.4889 28.7077 21.2363 28.621L18.4887 27.6795L18.3507 27.6204C18.0853 27.4823 17.8952 27.2321 17.8322 26.9396L17.8109 26.791L17.629 23.8846C17.5941 23.3302 18.0148 22.8523 18.5691 22.8172L23.9247 22.4806ZM19.6987 24.7609L19.7776 25.992L21.4956 26.5818L23.1241 25.7843L23.0468 24.5502L19.6987 24.7609Z" fill="#1A1A1A"/>
<ellipse cx="20.4715" cy="15.2736" rx="15.2752" ry="15.2736" fill="url(#paint0_radial_9800_58196)"/>
<path d="M24.496 23.6489L17.7882 24.346C17.5646 23.1832 17.6096 20.578 16.8491 19.4617C15.8984 18.066 12.4219 17.3673 12.4219 14.5759C12.4219 11.7844 15.7759 8.29581 20.0961 8.29581C24.4164 8.29581 28.5208 10.3886 28.5208 13.1801C28.5208 15.9716 25.167 17.3673 24.496 18.7631C23.9594 19.8793 24.496 22.3665 24.496 23.6489Z" fill="#FFE054"/>
<path d="M27.5153 13.1809C27.5153 12.3219 26.8719 11.3678 25.4395 10.57C24.0428 9.7923 22.1089 9.30254 20.096 9.30254C18.2095 9.30258 16.5222 10.0643 15.3059 11.1416C14.0663 12.2396 13.4288 13.5566 13.4287 14.5757C13.4287 15.4629 13.9441 16.0738 14.8601 16.7211C15.3576 17.0726 15.767 17.3015 16.3127 17.6641C16.7786 17.9737 17.3229 18.3705 17.6805 18.8953C17.966 19.3143 18.1423 19.8162 18.2612 20.2856C18.3827 20.7652 18.4609 21.2802 18.519 21.7669C18.577 22.2527 18.6174 22.7437 18.6555 23.1572C18.6581 23.1859 18.6604 23.2142 18.663 23.2421L23.4318 22.7463C23.4274 22.6985 23.4246 22.6493 23.4197 22.5992C23.3792 22.1826 23.3256 21.6936 23.2908 21.2165C23.256 20.738 23.2359 20.2306 23.2651 19.7549C23.2934 19.2931 23.373 18.7772 23.5895 18.3267C23.8514 17.7823 24.3247 17.3173 24.7313 16.9485C25.2164 16.5085 25.5956 16.2119 26.0687 15.7644C26.9493 14.9315 27.515 14.1382 27.5153 13.1809ZM29.5274 13.1809C29.5271 15.0142 28.4153 16.3145 27.4516 17.226C27.0026 17.6506 26.4163 18.1374 26.0839 18.4389C25.6735 18.8111 25.4769 19.0453 25.4031 19.1985C25.3514 19.3059 25.2962 19.5208 25.2742 19.8793C25.2531 20.2238 25.2662 20.6281 25.2984 21.071C25.3308 21.5153 25.3795 21.9586 25.4228 22.4037C25.4643 22.8307 25.5016 23.2725 25.5016 23.6484C25.5016 24.1638 25.1121 24.5958 24.5994 24.6491L17.8927 25.3465C17.3735 25.4005 16.898 25.048 16.7995 24.5354C16.7328 24.1884 16.6908 23.7582 16.6524 23.3406C16.6122 22.904 16.5742 22.455 16.5205 22.0049C16.4669 21.5561 16.4005 21.1384 16.3097 20.7798C16.2161 20.4105 16.1118 20.1669 16.0171 20.0278C15.8991 19.8549 15.6527 19.6405 15.1998 19.3395C14.8267 19.0916 14.1887 18.7094 13.6986 18.3631C12.6388 17.6142 11.415 16.48 11.415 14.5757C11.4151 12.8035 12.4542 10.9801 13.9715 9.63609C15.5122 8.27139 17.6624 7.28913 20.096 7.28908C22.4031 7.28908 24.6818 7.84635 26.4175 8.81282C28.1171 9.75931 29.5274 11.2484 29.5274 13.1809Z" fill="#E4981F"/>
<defs>
<radialGradient id="paint0_radial_9800_58196" cx="0" cy="0" r="1" gradientTransform="matrix(5.12431 13.7969 -13.7983 5.12377 20.4715 15.2736)" gradientUnits="userSpaceOnUse">
<stop stop-color="#F7E922" stop-opacity="0.8"/>
<stop offset="0.865385" stop-color="#F7E922" stop-opacity="0"/>
</radialGradient>
</defs>
</svg>
