<svg width="75" height="86" viewBox="0 0 75 86" fill="none" xmlns="http://www.w3.org/2000/svg">
<path fill-rule="evenodd" clip-rule="evenodd" d="M33.858 24.136C24.9347 24.0956 19.1976 18.9179 16.4445 14.7043C15.5927 13.4017 16.1436 11.6985 17.5313 10.9921C29.7865 4.75088 35.7063 11.1117 38.041 17.9149C40.3756 11.1117 46.2955 4.75088 58.5507 10.9921C59.9384 11.6985 60.4893 13.4017 59.6375 14.7043C56.6305 19.306 50.0636 25.0582 39.6735 24.0102L39.9336 31.582C39.9792 32.9125 38.9133 34.0148 37.5823 34.0148C36.4414 34.0148 35.4649 33.1966 35.2657 32.0741L33.858 24.136Z" fill="#14AE5C"/>
<path d="M33.858 24.1359L35.0047 23.9326C34.9064 23.3783 34.426 22.973 33.8633 22.9715L33.858 24.1359ZM38.041 17.9149L36.9395 18.2937C37.101 18.7641 37.5435 19.0793 38.041 19.0793C38.5385 19.0793 38.981 18.7641 39.1425 18.2937L38.041 17.9149ZM39.6735 24.0102L39.7904 22.852C39.456 22.8178 39.1232 22.9311 38.8779 23.1609C38.6324 23.3907 38.4983 23.7152 38.5098 24.0505L39.6735 24.0102ZM33.8633 22.9715C25.4384 22.9327 20.0246 18.0546 17.4195 14.0677L15.4696 15.3408C18.3707 19.781 24.431 25.2584 33.8529 25.3003L33.8633 22.9715ZM17.4195 14.0677C16.988 13.4078 17.2197 12.4577 18.0598 12.0291L17.0027 9.95495C15.0676 10.9393 14.1975 13.3939 15.4696 15.3408L17.4195 14.0677ZM18.0598 12.0291C23.9783 9.01566 28.1156 9.16164 30.9833 10.6024C33.9049 12.0711 35.822 15.0364 36.9395 18.2937L39.1425 17.5376C37.9253 13.99 35.7152 10.3742 32.0294 8.52199C28.2897 6.64186 23.3395 6.72721 17.0027 9.95495L18.0598 12.0291ZM59.0793 9.95495C52.7424 6.72721 47.7923 6.64186 44.0526 8.52199C40.3668 10.3742 38.1567 13.99 36.9395 17.5376L39.1425 18.2937C40.2598 15.0364 42.1771 12.0711 45.0987 10.6024C47.9664 9.16164 52.1037 9.01566 58.0222 12.0291L59.0793 9.95495ZM60.6124 15.3408C61.8845 13.3939 61.0144 10.9393 59.0793 9.95495L58.0222 12.0291C58.8624 12.4577 59.094 13.4078 58.6625 14.0677L60.6124 15.3408ZM39.5568 25.1684C50.4995 26.2738 57.4415 20.194 60.6124 15.3408L58.6625 14.0677C55.8194 18.4195 49.6276 23.844 39.7904 22.852L39.5568 25.1684ZM41.0975 31.5416L40.8374 23.9698L38.5098 24.0505L38.7697 31.6223L41.0975 31.5416ZM37.5823 35.1792C39.5721 35.1792 41.1657 33.5304 41.0975 31.5416L38.7697 31.6223C38.7928 32.293 38.2545 32.8504 37.5823 32.8504V35.1792ZM34.1192 32.2759C34.417 33.9558 35.8767 35.1792 37.5823 35.1792V32.8504C37.0061 32.8504 36.513 32.4374 36.4124 31.8707L34.1192 32.2759ZM32.7113 24.3393L34.1192 32.2759L36.4124 31.8707L35.0047 23.9326L32.7113 24.3393Z" fill="#1A1A1A"/>
<path d="M42.6652 18.0655C46.0162 15.6823 49.7668 14.077 52.6819 13.1222C53.4818 12.8598 53.4258 11.714 52.584 11.7047C47.1121 11.6395 43.5863 14.5303 41.692 17.2737C41.2353 17.9351 42.0103 18.5312 42.6652 18.0655Z" fill="#036838"/>
<path d="M31.864 18.0655C28.513 15.6823 24.7624 14.0754 21.8474 13.1222C21.0474 12.8598 21.1035 11.714 21.9452 11.7047C27.4171 11.6395 30.943 14.5303 32.8373 17.2737C33.2939 17.9351 32.519 18.5312 31.864 18.0655Z" fill="#036838"/>
</svg>
