<svg width="75" height="86" viewBox="0 0 75 86" fill="none" xmlns="http://www.w3.org/2000/svg">
<path d="M42.8732 12.144L36.6599 26.0392C36.4947 26.4087 36.466 26.8466 36.7447 27.14C37.2936 27.7191 38.2957 28.1492 39.1206 28.41C39.6158 28.5652 40.1462 28.4115 40.4957 28.028C42.7912 25.5082 47.066 19.5745 49.3227 16.3374C49.5295 16.0409 49.6393 15.6791 49.5302 15.3345C48.9783 13.5894 46.6139 12.1734 44.7487 11.3661C44.0196 11.0509 43.1976 11.419 42.8732 12.144Z" fill="#FFA629"/>
<path d="M41.8109 11.6682C42.368 10.4236 43.8375 9.70344 45.212 10.2976L45.9763 10.6493C46.7606 11.0325 47.5903 11.5092 48.3326 12.0684C49.2966 12.7948 50.2558 13.7672 50.6404 14.9825C50.896 15.7893 50.6094 16.5284 50.278 17.0035L48.3675 15.6708C48.3801 15.6527 48.3878 15.6358 48.3948 15.6223C48.2084 15.1084 47.7205 14.5232 46.9315 13.9288C46.3342 13.4787 45.6397 13.0777 44.9588 12.7447L44.2871 12.4354C44.2325 12.4118 44.1772 12.4109 44.1157 12.4369C44.0658 12.4581 44.0136 12.4972 43.9732 12.5551L43.9368 12.6188L37.7396 26.475C38.1148 26.7774 38.7703 27.0772 39.4682 27.2983C39.5133 27.3124 39.578 27.3061 39.635 27.2437C41.8698 24.7906 46.1006 18.9224 48.3675 15.6708L50.278 17.0035C48.0313 20.2263 43.7136 26.2267 41.3576 28.8129C40.7156 29.5173 39.7174 29.8173 38.7722 29.5209L38.4356 29.4087C37.6185 29.1228 36.5745 28.6502 35.9018 27.9411C35.1443 27.1436 35.3507 26.1149 35.5971 25.5638L41.8109 11.6682Z" fill="#DD7C0E"/>
<path d="M52.0168 25.4866L44.1073 31.8039C43.7922 32.0554 43.5884 32.4311 43.786 32.7665C44.1104 33.3161 44.8266 33.9806 45.3974 34.4634C45.8122 34.8143 46.4011 34.8997 46.9267 34.7056C50.6993 33.3114 52.5826 32.4545 55.6579 31.0416C56.0215 30.874 56.3338 30.579 56.3314 30.1924C56.3234 28.8945 55.0711 26.9289 54.0577 25.6403C53.5696 25.0193 52.6538 24.9789 52.0168 25.4866Z" fill="#FFA629"/>
<path d="M51.292 24.576C52.3453 23.7367 54.0193 23.7067 54.9736 24.9202L53.1434 26.359C53.121 26.3306 53.0862 26.3059 53.0176 26.3014C52.942 26.2965 52.8382 26.3199 52.7431 26.3954L45.0614 32.5313C45.3368 32.8475 45.7374 33.2252 46.1502 33.5744L46.2138 33.6123C46.2888 33.6455 46.3981 33.6597 46.5232 33.6138L47.8408 33.1196C50.7281 32.0186 52.4792 31.2201 55.1465 29.9948C55.0884 29.6365 54.8971 29.1126 54.5475 28.4665C54.2467 27.9106 53.8757 27.3454 53.5073 26.8412L53.1434 26.359L54.9736 24.9202C55.5088 25.6007 56.1156 26.4702 56.5961 27.3582C57.0539 28.2045 57.4908 29.235 57.4968 30.1858C57.503 31.2654 56.655 31.8644 56.1457 32.0992L55.8637 31.4867L55.5907 30.8939L56.1457 32.0992C53.0603 33.5167 51.1446 34.3879 47.3314 35.7971L46.9932 35.8987C46.1922 36.0843 45.3137 35.9177 44.646 35.3529C44.1592 34.9411 43.4347 34.2914 42.9674 33.6381L42.7839 33.3576C42.4731 32.8303 42.4987 32.2687 42.6717 31.8278C42.832 31.4199 43.1134 31.1078 43.3814 30.8939L51.292 24.576Z" fill="#DD7C0E"/>
</svg>
