<svg width="75" height="86" viewBox="0 0 75 86" fill="none" xmlns="http://www.w3.org/2000/svg">
<path d="M6.17198 60.8823C14.1198 63.444 20.6494 62.8385 24.0113 62.8385C27.2825 62.8385 37.2186 61.3481 40.8934 59.1745C41.3201 58.9261 41.508 58.4139 41.408 57.9326C39.3893 48.136 29.4175 41.2582 21.988 42.0034C15.1363 42.671 5.76449 48.0583 5.25324 59.5782C5.22689 60.1681 5.607 60.696 6.17198 60.8823Z" fill="#5C806D"/>
<path d="M23.3779 40.8225C27.9103 42.1186 33.3519 47.6222 34.5049 57.8489L32.1904 58.1096C31.2441 49.716 27.2832 45.2045 24.0332 43.5745C23.8683 47.5052 23.8052 54.2507 24.5283 58.1721L22.2393 58.594C21.4853 54.5046 21.5368 47.77 21.6953 43.7532C18.1401 45.5521 13.542 50.1219 13.542 57.7161H11.2129C11.2129 47.6197 18.3678 42.0879 22.7383 40.8381L23.0557 41.9495L23.3779 40.8225Z" fill="#517361"/>
<path d="M21.8722 40.8445C25.9645 40.4343 30.6043 42.1173 34.441 45.0943C38.2943 48.0843 41.4736 52.4809 42.5487 57.6951L42.5775 57.8664C42.6906 58.7213 42.3436 59.6718 41.4842 60.1755L41.4858 60.1771C39.4547 61.3782 35.8676 62.3221 32.5213 62.9653C29.139 63.6153 25.7544 64.0022 24.0117 64.0023C20.7368 64.0023 13.9797 64.6222 5.81442 61.9904L5.80683 61.9889C4.77047 61.6471 4.03978 60.6626 4.09036 59.5266C4.63503 47.2536 14.638 41.5521 21.8722 40.846V40.8445ZM33.0126 46.9349C29.5016 44.2106 25.4411 42.828 22.1042 43.1627H22.1012C15.6323 43.793 6.8942 48.8646 6.41639 59.6297C6.41447 59.6727 6.44239 59.742 6.53163 59.7738C14.2609 62.2645 20.5632 61.6735 24.0117 61.6735C25.5407 61.6734 28.76 61.3173 32.0816 60.6789C35.4181 60.0376 38.6151 59.1543 40.2682 58.1894C40.2682 58.1832 40.2695 58.1764 40.2682 58.1697L40.2666 58.1681C39.3226 53.5868 36.5066 49.6462 33.0126 46.9349Z" fill="#1A1A1A"/>
<path d="M3.14291 62.3572C3.05263 61.2393 3.13132 59.9817 3.27645 58.8328C3.47869 57.2337 5.1118 56.3332 6.68664 56.6748C16.6736 58.7862 32.3198 57.6219 40.8303 56.5817C42.0834 56.4265 43.2942 57.125 43.5574 58.3515C43.7362 59.1898 43.8603 60.0748 43.9648 60.8821C44.1601 62.4036 43.1787 63.9252 41.6828 64.2512C29.1389 66.9992 16.959 66.1298 5.13211 64.2978C4.09832 64.1426 3.22627 63.4129 3.14291 62.3572Z" fill="#5C806D"/>
<path d="M18 57.4663C18 58.2819 17.9149 59.655 17.8193 61.1206C17.7222 62.6104 17.6108 64.2318 17.5537 65.604L15.2275 65.5063C15.286 64.0998 15.3989 62.4445 15.4951 60.9692C15.5929 59.4699 15.6709 58.1876 15.6709 57.4663H18ZM31.5439 57.4663C31.5439 58.1876 31.6219 59.4699 31.7197 60.9692C31.8159 62.4445 31.9298 64.0998 31.9883 65.5063L29.6611 65.604C29.6041 64.2318 29.4946 62.6104 29.3975 61.1206C29.3019 59.655 29.2148 58.2819 29.2148 57.4663H31.5439ZM22.3369 57.397C22.3858 58.2051 22.3823 59.5778 22.375 61.0444C22.3675 62.536 22.3555 64.1615 22.3809 65.5337L20.0518 65.5767C20.0258 64.1701 20.0385 62.5109 20.0459 61.0337C20.0534 59.5323 20.054 58.2499 20.0107 57.5366L22.3369 57.397ZM27.1611 57.397C27.2101 58.2051 27.2066 59.5778 27.1992 61.0444C27.1918 62.536 27.1797 64.1615 27.2051 65.5337L24.876 65.5767C24.85 64.1701 24.8627 62.5109 24.8701 61.0337C24.8776 59.5323 24.8782 58.2499 24.835 57.5366L27.1611 57.397ZM35.875 57.3228C36.0249 58.5219 36.3534 61.5832 36.4707 64.4048L34.1436 64.5015C34.0298 61.7656 33.7086 58.7721 33.5635 57.6108L35.875 57.3228ZM40.3574 57.3228C40.5073 58.5219 40.8357 61.5832 40.9531 64.4048L38.625 64.5015C38.5111 61.7656 38.1911 58.7721 38.0459 57.6108L40.3574 57.3228ZM9.16797 57.4556C9.02276 58.6166 8.70264 61.6103 8.58887 64.3462L6.2627 64.2495C6.38003 61.4278 6.70747 58.3666 6.85742 57.1675L9.16797 57.4556ZM13.6504 57.4556C13.5052 58.6166 13.1851 61.6103 13.0713 64.3462L10.7451 64.2495C10.8625 61.4278 11.1899 58.3666 11.3398 57.1675L13.6504 57.4556Z" fill="#517361"/>
<path d="M40.6868 55.4263C42.4133 55.2124 44.2811 56.1749 44.6959 58.1069V58.1084C44.7907 58.5526 44.871 59.0063 44.94 59.4502L45.1205 60.7329V60.7344C45.3688 62.6707 44.2281 64.6578 42.3229 65.2828L41.9317 65.389C29.185 68.1813 16.8423 67.2885 4.9593 65.4481C3.53268 65.2337 2.11999 64.1767 1.98277 62.4507C1.88365 61.2229 1.97036 59.8783 2.12076 58.6876C2.42803 56.2579 4.84826 55.0904 6.92596 55.537L6.92748 55.5355C16.7039 57.6024 32.1738 56.4681 40.6868 55.4278V55.4263ZM40.9733 57.7369H40.9718C32.4632 58.7769 16.6432 59.9698 6.44681 57.8143L6.44074 57.8127C5.37059 57.5806 4.52863 58.2131 4.43162 58.9787C4.30927 59.9473 4.24068 60.9648 4.27999 61.8791L4.30425 62.2642V62.2657C4.33464 62.6498 4.665 63.0503 5.30502 63.1466H5.31109C17.0801 64.9696 29.0954 65.8163 41.4343 63.1132H41.4358C42.2885 62.9269 42.9345 62.0082 42.8096 61.0315C42.7316 60.4291 42.646 59.8033 42.5367 59.1955L42.4184 58.5951C42.3062 58.0747 41.7523 57.6404 40.9733 57.7369Z" fill="#1A1A1A"/>
</svg>
