<svg width="75" height="86" viewBox="0 0 75 86" fill="none" xmlns="http://www.w3.org/2000/svg">
<path d="M52.0643 50.3984C59.3803 50.3984 65.5536 55.2737 67.5285 61.95C68.929 62.7574 69.8683 64.2324 69.8683 65.9248C69.8683 67.1203 69.3963 68.2071 68.6278 69.03C69.3963 69.8529 69.8683 70.9398 69.8683 72.1353C69.8683 73.5482 69.2085 74.8213 68.1729 75.6752C68.2629 76.0323 68.3157 76.405 68.3157 76.7932C68.3157 79.3705 66.2305 81.4511 63.6578 81.4511C62.807 81.4511 62.012 81.2181 61.3257 80.8144C60.4625 82.3671 58.9657 83.3919 57.2641 83.3919C56.8588 83.3919 56.4645 83.3297 56.0872 83.221C55.2068 84.2768 53.974 84.9445 52.6062 84.9445C51.4231 84.9445 50.3394 84.4476 49.4994 83.6247C48.6594 84.4476 47.5772 84.9445 46.3956 84.9445C45.2125 84.9445 44.1288 84.4476 43.2889 83.6247C42.4489 84.4476 41.3667 84.9445 40.1851 84.9445C38.5968 84.9445 37.1854 84.0439 36.3035 82.6776C35.4201 84.0439 34.0103 84.9445 32.422 84.9445C31.2389 84.9445 30.1552 84.4476 29.3152 83.6247C28.4752 84.4476 27.393 84.9445 26.2114 84.9445C24.5843 84.9445 23.1465 84.0129 22.2693 82.5845C22.0985 82.5534 21.9308 82.5379 21.7632 82.5069C20.9403 83.5316 19.7773 84.1682 18.4824 84.1682C17.1674 84.1682 15.9874 83.516 15.1629 82.4602C14.5853 82.8018 13.9162 83.0037 13.1973 83.0037C11.0531 83.0037 9.31571 81.2648 9.31571 79.1221C9.31571 78.1284 9.68833 77.2279 10.297 76.5447C8.81885 76.0013 7.76308 74.5729 7.76308 72.9116C7.76308 72.4148 7.85624 71.9489 8.02392 71.5142C6.98055 71.1881 6.21045 70.0857 6.21045 68.766C6.21045 68.5642 6.22751 68.3778 6.26167 68.176C6.22751 67.9586 6.21045 67.7103 6.21045 67.4774C6.21045 65.9869 6.90915 64.6671 7.99289 63.8131C9.28312 56.2052 15.9098 50.3984 23.8934 50.3984H52.0643Z" fill="white"/>
<path d="M22.501 80.2563C23.134 80.3243 23.7102 80.6412 24.0991 81.1357L24.2537 81.3586L24.4615 81.6618C24.9691 82.3187 25.6148 82.6155 26.2112 82.6155V84.9445C24.5843 84.9444 23.1462 84.0133 22.269 82.5852C22.0982 82.5542 21.9302 82.5374 21.7625 82.5064L22.0673 80.2093C22.2754 80.2248 22.3798 80.2407 22.501 80.2563Z" fill="#1A1A1A"/>
<path d="M29.3104 83.6284C28.471 84.4488 27.3907 84.9445 26.2112 84.9445V82.6155C26.7158 82.6155 27.2331 82.3982 27.691 81.9636L29.3104 83.6284Z" fill="#1A1A1A"/>
<path d="M30.9388 81.9636C31.3968 82.3982 31.9141 82.6155 32.4217 82.6155V84.9445C31.2402 84.9444 30.1574 84.4493 29.318 83.6284L30.9388 81.9636Z" fill="#1A1A1A"/>
<path d="M36.3033 80.3488C37.0951 80.3488 37.8338 80.7531 38.2623 81.4207C38.7901 82.2434 39.5174 82.6155 40.1849 82.6155V84.9445C38.5966 84.9444 37.1852 84.044 36.3033 82.6777C35.4198 84.0439 34.01 84.9445 32.4217 84.9445V82.6155C33.0892 82.6155 33.8149 82.2433 34.3443 81.4207L34.5187 81.1827C34.9577 80.658 35.609 80.3488 36.3033 80.3488Z" fill="#1A1A1A"/>
<path d="M43.2841 83.6284C42.4447 84.4488 41.3644 84.9445 40.1849 84.9445V82.6155C40.6894 82.6155 41.2067 82.3982 41.6647 81.9636L43.2841 83.6284Z" fill="#1A1A1A"/>
<path d="M44.9125 81.9636C45.3705 82.3982 45.8878 82.6155 46.3954 82.6155V84.9445C45.2139 84.9444 44.1311 84.4493 43.2917 83.6284L44.9125 81.9636Z" fill="#1A1A1A"/>
<path d="M49.4946 83.6284C48.6552 84.4488 47.5749 84.9445 46.3954 84.9445V82.6155C46.9 82.6155 47.4173 82.3982 47.8753 81.9636L49.4946 83.6284Z" fill="#1A1A1A"/>
<path d="M51.123 81.9636C51.581 82.3982 52.0983 82.6155 52.6059 82.6155V84.9445C51.4245 84.9444 50.3416 84.4493 49.5022 83.6284L51.123 81.9636Z" fill="#1A1A1A"/>
<path d="M54.295 81.7301C54.8881 81.0159 55.8465 80.7216 56.7362 80.9856C56.91 81.0321 57.0854 81.0629 57.2638 81.0629V83.3919C56.8587 83.3918 56.4644 83.3292 56.0872 83.2205C55.2069 84.2763 53.9738 84.9445 52.6059 84.9445V82.6155C53.1835 82.6155 53.792 82.3356 54.295 81.7301Z" fill="#1A1A1A"/>
<path d="M13.9797 80.4579C14.9198 79.9049 16.1097 80.0743 16.8484 80.8522L16.9909 81.0159L17.1638 81.2161C17.5781 81.6488 18.048 81.8392 18.4829 81.8392V84.1682L18.2373 84.1606C17.0212 84.085 15.9352 83.4506 15.1623 82.4609C14.5849 82.8022 13.9159 83.0037 13.1973 83.0037V80.6748C13.4766 80.6748 13.7407 80.5975 13.9797 80.4579Z" fill="#1A1A1A"/>
<path d="M21.758 82.5109C20.9354 83.5326 19.7755 84.168 18.4829 84.1682V81.8392C18.9717 81.8391 19.5021 81.6061 19.9521 81.0478L21.758 82.5109Z" fill="#1A1A1A"/>
<path d="M27.691 81.9636C28.5946 81.0786 30.0352 81.0787 30.9388 81.9636L29.3149 83.6254L27.691 81.9636Z" fill="#1A1A1A"/>
<path d="M41.6647 81.9636C42.5683 81.0786 44.0089 81.0787 44.9125 81.9636L43.2886 83.6254L41.6647 81.9636Z" fill="#1A1A1A"/>
<path d="M47.8753 81.9636C48.7789 81.0786 50.2194 81.0787 51.123 81.9636L49.4992 83.6254L47.8753 81.9636Z" fill="#1A1A1A"/>
<path d="M61.3213 80.8203C60.4575 82.3694 58.9632 83.3919 57.2638 83.3919V81.0629C57.9733 81.0629 58.7646 80.6286 59.2941 79.6816L61.3213 80.8203Z" fill="#1A1A1A"/>
<path d="M7.99203 63.8126L9.43398 65.6458C8.88283 66.0805 8.5394 66.7321 8.5394 67.4774C8.5394 67.547 8.54123 67.6089 8.54546 67.6669L8.56366 67.8352L8.58488 68.0232C8.5982 68.2138 8.58793 68.4086 8.55304 68.5949L6.28323 68.1794L6.26049 68.184L8.55304 68.5949C8.54528 68.6414 8.5394 68.7041 8.5394 68.7662C8.53943 68.9679 8.6002 69.1234 8.65918 69.2165C8.69038 69.2621 8.71516 69.2854 8.72741 69.2954L8.71831 69.2938C9.33301 69.4802 9.83986 69.9309 10.1208 70.5053C10.4002 71.0796 10.4293 71.7467 10.1982 72.3521C10.1283 72.5384 10.092 72.7253 10.092 72.9116C10.092 73.482 10.4089 73.9937 10.8896 74.2686L11.1064 74.3717L11.3672 74.4855C11.9574 74.7883 12.3928 75.3342 12.5559 75.9865C12.7419 76.7316 12.548 77.5229 12.0374 78.0971L10.2982 76.546L10.2967 76.5521L12.0374 78.0971C11.7889 78.3766 11.6447 78.734 11.6447 79.1221C11.6447 79.9761 12.3402 80.6748 13.1973 80.6748V83.0037C11.0531 83.0037 9.31571 81.2648 9.31571 79.1221C9.31571 78.1284 9.6881 77.2277 10.2967 76.5445C8.81876 76.001 7.76308 74.5728 7.76308 72.9116C7.76308 72.4148 7.85619 71.9484 8.02387 71.5136C7.0457 71.2078 6.30782 70.2202 6.21955 69.0103L6.21045 68.7662C6.21045 68.5645 6.22788 68.3781 6.262 68.1764C6.22784 67.959 6.21045 67.7103 6.21045 67.4774C6.21045 65.987 6.90847 64.6666 7.99203 63.8126Z" fill="#1A1A1A"/>
<path d="M22.0673 80.2093L21.7625 82.5064L19.9521 81.0478C20.4629 80.4112 21.2631 80.1006 22.0673 80.2093Z" fill="#1A1A1A"/>
<path d="M62.4949 78.8113C62.8442 79.0131 63.2386 79.1221 63.6578 79.1221V81.4511C62.8082 81.4511 62.0145 81.2184 61.3289 80.8158L62.4949 78.8113Z" fill="#1A1A1A"/>
<path d="M65.9868 76.7932C65.9868 76.7076 65.9808 76.6182 65.9686 76.5248L65.9125 76.2337L65.8776 76.0699C65.7359 75.251 66.0428 74.4128 66.6918 73.8744L68.1717 75.6742L68.1732 75.6757C68.2632 76.0327 68.3157 76.4052 68.3157 76.7932C68.3157 79.3705 66.2305 81.4511 63.6578 81.4511V79.1221C64.9434 79.1221 65.9868 78.0819 65.9868 76.7932Z" fill="#1A1A1A"/>
<path d="M60.7087 78.5793C61.3111 78.4085 61.9546 78.4853 62.4949 78.8113L61.3258 80.8143L59.2941 79.6816C59.5983 79.1384 60.1082 78.7347 60.7087 78.5793Z" fill="#1A1A1A"/>
<path d="M67.5394 72.1353C67.5394 71.5763 67.3212 71.0477 66.9253 70.613C66.0916 69.728 66.0916 68.3321 66.9253 67.4471C67.3212 67.0123 67.5394 66.4837 67.5394 65.9248C67.5394 65.2317 67.204 64.5743 66.6206 64.1295L66.3567 63.9536L66.1702 63.8339C65.752 63.5363 65.4421 63.1051 65.2954 62.6027L67.5227 61.9522L67.5258 61.9446C67.5263 61.9465 67.5282 61.9488 67.5288 61.9507C68.929 62.7581 69.8683 64.2326 69.8683 65.9248C69.8683 67.1202 69.3965 68.2071 68.6281 69.03C69.3965 69.8529 69.8683 70.9398 69.8683 72.1353C69.8683 73.5464 69.2095 74.8172 68.1762 75.6712L66.6918 73.8744C67.2321 73.4241 67.5394 72.8029 67.5394 72.1353Z" fill="#1A1A1A"/>
<path d="M52.7469 50.4121C59.7591 50.7043 65.6099 55.4783 67.5258 61.9416L65.2954 62.6027C63.603 56.8891 58.3185 52.7275 52.0646 52.7274H23.8929C17.0648 52.7276 11.3932 57.6956 10.2891 64.2008C10.1929 64.7753 9.88735 65.2887 9.43398 65.6458L7.99203 63.8126C9.28248 56.2052 15.9097 50.3987 23.8929 50.3984H52.0646L52.7469 50.4121Z" fill="#1A1A1A"/>
<path d="M37.1078 31.7124C55.3217 31.7124 67.9524 52.6342 71.9286 60.211C72.7919 61.8568 72.5342 63.8286 71.3712 65.2725C70.7393 66.0644 69.6944 66.3904 68.7334 66.0799C58.649 62.866 47.3676 57.8821 37.1078 57.8821C28.3851 57.8821 17.3148 63.6112 7.91362 66.7165C6.44328 67.1978 4.85029 66.6078 3.98703 65.3191C2.63158 63.3007 2.38785 60.7389 3.52282 58.5962C7.73356 50.6157 19.563 31.7124 37.1078 31.7124Z" fill="url(#paint0_linear_9800_32738)"/>
<path d="M24.8419 60.1025C24.8419 52.3393 23.4336 41.193 23.4336 35.7588L27.1708 33.703L36.4866 32.1504L46.5787 33.703C46.5787 42.3978 47.872 54.6683 48.1313 60.1025L43.4734 59.3262L34.1576 58.5499L24.8419 60.1025Z" fill="#2C2C2C"/>
<path d="M36.8017 30.9719C46.0834 30.9719 54.1783 36.3075 60.4597 42.5257C66.7432 48.7429 71.2136 55.8464 73.2431 59.3651L73.2446 59.3666C74.0754 60.8116 74.302 62.4974 73.9891 64.1261L71.7011 63.6864C71.9191 62.5515 71.751 61.4414 71.225 60.5265C69.2418 57.0885 64.893 50.1882 58.8221 44.1814L57.6607 43.0624C51.769 37.5486 44.6558 33.3009 36.8017 33.3009C28.8555 33.301 21.784 37.6517 15.9883 43.2762C10.2193 48.8746 5.98703 55.4785 3.75526 59.3772L3.61425 59.6425C2.95477 60.9887 2.96624 62.6229 3.66731 64.1079L3.66883 64.1109C4.03884 64.9018 4.88463 65.2537 5.6354 65.0161C7.5373 64.415 9.59307 63.72 11.7307 62.9904L11.7383 62.9889L12.0461 63.9123L12.0718 63.9866L11.7383 62.9889C14.0676 62.2105 16.4964 61.3911 18.9101 60.6281L21.3149 59.8867C26.6943 58.2684 32.1915 56.9513 36.8017 56.9512C41.863 56.9512 47.6815 58.1318 53.3894 59.6759C58.0197 60.9117 62.6994 62.4273 66.9568 63.8077L66.9689 63.8122C67.9719 64.1501 68.946 64.4549 69.921 64.769C70.6946 65.0172 71.537 64.5352 71.7011 63.6864L73.9891 64.1261C73.5924 66.1828 71.6122 67.4983 69.6117 67.0918L69.2114 66.9872L69.5602 65.9001L69.5662 65.8788L69.2114 66.9872C68.263 66.6818 67.2575 66.3646 66.2381 66.0214C61.9715 64.638 57.3518 63.1434 52.7905 61.926L52.786 61.9245C47.1337 60.3952 41.5514 59.2802 36.8017 59.2802C32.5565 59.2802 27.3381 60.5077 21.9835 62.1186C18.8419 63.0584 15.601 64.1515 12.4827 65.1935C10.3447 65.9233 8.26716 66.626 6.33742 67.2359L6.33893 67.2374C4.44202 67.8378 2.41401 66.9165 1.56277 65.101C0.522228 62.8967 0.522252 60.3347 1.73562 58.2188C4.01908 54.23 8.37588 47.4182 14.3659 41.6053C20.3576 35.7905 27.9833 30.972 36.8017 30.9719Z" fill="#1A1A1A"/>
<path d="M14.1992 49.4668C13.159 47.8443 16.1462 47.6086 16.9893 47.7266C16.6647 48.7063 15.0532 50.7861 14.1992 49.4668ZM49.749 46.8633C50.5564 47.1428 53.1296 48.7219 51.4854 49.6846C50.1379 50.4761 49.6126 47.882 49.749 46.8633ZM21.7617 46.7139C22.0924 47.6703 22.057 50.2582 20.5479 49.7148C18.7096 49.0627 21.0025 47.1176 21.7617 46.7139ZM53.8457 46.6318C54.5259 46.1054 57.2428 44.8154 57.0859 46.7607C56.9569 48.3642 54.5819 47.3258 53.8457 46.6318ZM18.501 45.5127C18.3644 44.4957 18.8896 41.893 20.2373 42.6895C21.8813 43.6614 19.3083 45.2348 18.501 45.5127ZM48.669 41.1943C49.5182 41.2347 52.4103 42.0217 51.0879 43.4189C50.0026 44.5663 48.8071 42.2129 48.669 41.1943Z" fill="#FDEECE"/>
<path d="M41.2573 74.1196H34.2573L37.7573 68.8696L41.2573 74.1196Z" fill="#FFAFA3"/>
<path d="M41.258 75.2842C41.6873 75.284 42.0819 75.0471 42.2845 74.6686C42.4867 74.2901 42.4648 73.8309 42.2269 73.4738L38.7259 68.223C38.5098 67.8995 38.146 67.7045 37.757 67.7045C37.368 67.7047 37.004 67.8994 36.7881 68.223L33.2886 73.4738C33.0505 73.831 33.0286 74.29 33.231 74.6686C33.4336 75.0472 33.8281 75.2842 34.2575 75.2842H41.258ZM37.757 70.9705L39.0822 72.9552H36.4333L37.757 70.9705Z" fill="#1A1A1A"/>
<path d="M46.8403 66.4194C47.6084 66.4199 48.23 66.9932 48.23 67.7004C48.2299 68.4075 47.6084 68.9809 46.8403 68.9813H43.2128C42.4445 68.9812 41.8214 68.4076 41.8213 67.7004C41.8213 66.993 42.4444 66.4196 43.2128 66.4194H46.8403Z" fill="#1A1A1A"/>
<path d="M27.6846 66.4194C26.9165 66.4199 26.2949 66.9932 26.2949 67.7004C26.295 68.4075 26.9165 68.9809 27.6846 68.9813H31.3121C32.0804 68.9812 32.7035 68.4076 32.7036 67.7004C32.7036 66.993 32.0805 66.4196 31.3121 66.4194H27.6846Z" fill="#1A1A1A"/>
<defs>
<linearGradient id="paint0_linear_9800_32738" x1="9.14955" y1="58.6894" x2="73.2639" y2="62.4623" gradientUnits="userSpaceOnUse">
<stop offset="0.504808" stop-color="#664435"/>
<stop offset="1" stop-color="#2C2C2C"/>
</linearGradient>
</defs>
</svg>
