<svg width="75" height="86" viewBox="0 0 75 86" fill="none" xmlns="http://www.w3.org/2000/svg">
<path d="M51.6276 17.8543C53.1431 17.8543 54.5079 18.5374 55.469 19.6289C56.0715 20.3151 57.0761 20.6427 57.9751 20.4874C58.2515 20.4393 58.5356 20.4129 58.826 20.4129C61.7327 20.4145 64.0881 22.9264 64.0897 26.0269C64.0897 26.6805 63.9825 27.3093 63.79 27.8931C63.6409 28.3418 63.6409 28.8292 63.79 29.2779C63.9825 29.8617 64.0897 30.4904 64.0897 31.1456C64.0897 34.2445 61.7327 36.7581 58.826 36.7581C57.9782 36.7581 57.177 36.5439 56.4674 36.1635C55.7113 35.7599 54.7408 35.7599 53.9846 36.1635C53.2766 36.5439 52.4754 36.7581 51.6276 36.7581C50.9165 36.7581 50.2395 36.6075 49.6215 36.3343C48.9958 36.0579 48.2614 36.0579 47.6372 36.3343C47.4664 36.4088 47.2925 36.4756 47.1139 36.5315C46.8468 36.6153 46.5969 36.7457 46.3795 36.9196C45.5006 37.6214 44.4122 38.0374 43.2306 38.0374C40.3239 38.0374 37.9669 35.5254 37.9653 32.425C37.9653 32.1766 37.852 31.9406 37.6579 31.7853C36.3878 30.7607 35.5664 29.1351 35.5664 27.3062C35.568 24.6762 37.2635 22.4685 39.5522 21.8599C40.1873 21.6907 40.7478 21.2652 41.0583 20.6861C41.9636 18.9954 43.6715 17.8543 45.6295 17.8543C46.3407 17.8543 47.0176 18.0049 47.6372 18.2766C48.2614 18.5529 48.9958 18.553 49.6215 18.2782C50.2395 18.0049 50.9165 17.8543 51.6276 17.8543Z" fill="white"/>
<path d="M51.6281 19.0187C52.7818 19.0187 53.8361 19.5357 54.5938 20.3974L56.3437 18.8604C55.1807 17.5376 53.5053 16.6899 51.6281 16.6899V19.0187ZM58.1743 21.6332C58.387 21.5975 58.6044 21.5773 58.8265 21.5773V19.2485C58.4693 19.2485 58.1184 19.2795 57.7753 19.34L58.1743 21.6332ZM58.8265 21.5773C61.0204 21.5789 62.924 23.4978 62.9256 26.0269H65.2547C65.2531 22.3551 62.4458 19.25 58.8265 19.2485V21.5773ZM62.9256 26.0269C62.9256 26.5547 62.8402 27.0593 62.6849 27.5266L64.896 28.2595C65.1273 27.5593 65.2547 26.8078 65.2547 26.0269H62.9256ZM62.6849 29.6443C62.8402 30.1116 62.9256 30.6162 62.9256 31.1456H65.2547C65.2547 30.3647 65.1273 29.6117 64.896 28.9115L62.6849 29.6443ZM62.9256 31.1456C62.9256 33.6731 61.0204 35.5937 58.8265 35.5937V37.9225C62.4458 37.921 65.2531 34.8158 65.2547 31.1456H62.9256ZM58.8265 35.5937C58.1774 35.5937 57.5641 35.4307 57.0175 35.1373L55.9182 37.1913C56.7908 37.657 57.7799 37.9225 58.8265 37.9225V35.5937ZM53.4354 35.1373C52.8904 35.4307 52.2771 35.5937 51.6281 35.5937V37.9225C52.6746 37.9225 53.6637 37.657 54.5363 37.1913L53.4354 35.1373ZM51.6281 35.5937C51.0846 35.5937 50.566 35.4788 50.0925 35.2692L49.1515 37.3993C49.9139 37.7362 50.7508 37.9225 51.6281 37.9225V35.5937ZM47.1672 35.2692C47.0352 35.3266 46.9016 35.3779 46.765 35.4198L47.4622 37.643C47.6827 37.5731 47.8985 37.4924 48.1081 37.3993L47.1672 35.2692ZM45.6533 36.0097C44.9685 36.5578 44.1316 36.873 43.2311 36.873V39.2018C44.6937 39.2018 46.0352 38.6848 47.1066 37.8294L45.6533 36.0097ZM43.2311 36.873C41.0371 36.873 39.1319 34.9525 39.1303 32.4249H36.8013C36.8028 36.0967 39.6117 39.2018 43.2311 39.2018V36.873ZM38.3897 30.8786C37.3944 30.0759 36.7314 28.7842 36.7314 27.3062H34.4023C34.4023 29.486 35.3821 31.4438 36.9286 32.6905L38.3897 30.8786ZM36.7314 27.3062C36.733 25.1699 38.1056 23.4497 39.8524 22.9839L39.253 20.7342C36.4224 21.4872 34.4039 24.1809 34.4023 27.3062H36.7314ZM42.0851 21.2357C42.8103 19.8834 44.1456 19.0187 45.63 19.0187V16.6899C43.1984 16.6899 41.1194 18.1073 40.0309 20.1365L42.0851 21.2357ZM45.63 19.0187C46.175 19.0187 46.692 19.1336 47.1672 19.3432L48.1066 17.2115C47.3442 16.8762 46.5073 16.6899 45.63 16.6899V19.0187ZM50.0909 19.3432C50.566 19.1336 51.0846 19.0187 51.6281 19.0187V16.6899C50.7508 16.6899 49.9139 16.8762 49.1515 17.2115L50.0909 19.3432ZM47.1672 19.3432C48.0926 19.7499 49.167 19.7499 50.0909 19.3432L49.1515 17.2115C48.8255 17.3559 48.4326 17.3559 48.1066 17.2115L47.1672 19.3432ZM39.1303 32.4249C39.1303 31.8195 38.854 31.2527 38.3897 30.8786L36.9286 32.6905C36.851 32.6284 36.8013 32.5321 36.8013 32.4249H39.1303ZM46.765 35.4198C46.366 35.5456 45.9871 35.7427 45.6533 36.0097L47.1066 37.8294C47.2091 37.7486 47.3286 37.6834 47.4622 37.643L46.765 35.4198ZM57.0175 35.1373C55.9182 34.5488 54.5348 34.5488 53.4354 35.1373L54.5363 37.1913C54.9478 36.9693 55.5052 36.9693 55.9182 37.1913L57.0175 35.1373ZM50.0925 35.2692C49.1671 34.8608 48.091 34.8608 47.1672 35.2692L48.1081 37.3993C48.4326 37.2549 48.8255 37.2549 49.1515 37.3993L50.0925 35.2692ZM39.8524 22.9839C40.7809 22.7371 41.6131 22.116 42.0851 21.2357L40.0309 20.1365C39.8819 20.4159 39.5962 20.6426 39.253 20.7342L39.8524 22.9839ZM62.6849 27.5266C62.4567 28.2128 62.4567 28.9581 62.6849 29.6443L64.896 28.9115C64.8261 28.7004 64.8261 28.4706 64.896 28.2595L62.6849 27.5266ZM54.5938 20.3974C55.4804 21.405 56.8995 21.8552 58.1743 21.6332L57.7753 19.34C57.2536 19.4301 56.6635 19.2237 56.3437 18.8604L54.5938 20.3974Z" fill="#1A1A1A"/>
<path d="M34.1736 41.1708C35.4678 41.1708 36.517 40.1217 36.517 38.8276C36.517 37.5335 35.4678 36.4844 34.1736 36.4844C32.8793 36.4844 31.8301 37.5335 31.8301 38.8276C31.8301 40.1217 32.8793 41.1708 34.1736 41.1708Z" fill="white"/>
<path d="M35.353 38.8283C35.353 38.1775 34.8255 37.6492 34.1748 37.6488C33.5237 37.6488 32.9951 38.1773 32.9951 38.8283C32.9955 39.479 33.5239 40.0064 34.1748 40.0064C34.8253 40.006 35.3525 39.4788 35.353 38.8283ZM37.682 38.8283C37.6816 40.765 36.1116 42.3348 34.1748 42.3352C32.2376 42.3352 30.6664 40.7652 30.666 38.8283C30.666 36.8911 32.2374 35.3199 34.1748 35.3199C36.1118 35.3203 37.682 36.8914 37.682 38.8283Z" fill="#1A1A1A"/>
<path d="M28.739 45.8284C29.6045 45.8284 30.3061 45.1269 30.3061 44.2615C30.3061 43.3961 29.6045 42.6945 28.739 42.6945C27.8735 42.6945 27.1719 43.3961 27.1719 44.2615C27.1719 45.1269 27.8735 45.8284 28.739 45.8284Z" fill="white"/>
<path d="M29.142 44.2623C29.142 44.0402 28.9622 43.8594 28.7402 43.859C28.5179 43.859 28.3369 44.04 28.3369 44.2623C28.3373 44.4842 28.5181 44.664 28.7402 44.664C28.962 44.6636 29.1416 44.484 29.142 44.2623ZM31.4711 44.2623C31.4707 45.7702 30.2483 46.9925 28.7402 46.9929C27.2318 46.9929 26.0082 45.7704 26.0078 44.2623C26.0078 42.7538 27.2316 41.5302 28.7402 41.5302C30.2485 41.5306 31.4711 42.754 31.4711 44.2623Z" fill="#1A1A1A"/>
<path d="M55.8951 29.441C55.5411 29.441 55.2119 29.3323 54.9045 29.1165C54.5971 28.8991 54.4434 28.5467 54.4434 28.0577C54.4434 27.6819 54.5396 27.3792 54.7337 27.1525C54.9262 26.9134 55.1483 26.7364 55.3998 26.6231C55.6607 26.5082 55.8827 26.4523 56.0659 26.4523C56.2585 26.4523 56.4759 26.4973 56.715 26.5889C56.965 26.6681 57.1808 26.8218 57.364 27.05C57.5457 27.2658 57.6373 27.5795 57.6373 27.9893C57.6373 28.3868 57.4665 28.7283 57.1249 29.014C56.7941 29.2981 56.3842 29.441 55.8951 29.441Z" fill="#1A1A1A"/>
<path d="M49.6842 29.441C49.3302 29.441 49.001 29.3323 48.6936 29.1165C48.3861 28.8991 48.2324 28.5467 48.2324 28.0577C48.2324 27.6819 48.3287 27.3792 48.5228 27.1525C48.7153 26.9134 48.9373 26.7364 49.1889 26.6231C49.4497 26.5082 49.6718 26.4523 49.855 26.4523C50.0475 26.4523 50.2649 26.4973 50.504 26.5889C50.754 26.6681 50.9698 26.8218 51.1531 27.05C51.3347 27.2658 51.4263 27.5795 51.4263 27.9893C51.4263 28.3868 51.2555 28.7283 50.9139 29.014C50.5832 29.2981 50.1733 29.441 49.6842 29.441Z" fill="#1A1A1A"/>
<path d="M43.4733 29.441C43.1192 29.441 42.7901 29.3323 42.4826 29.1165C42.1752 28.8991 42.0215 28.5467 42.0215 28.0577C42.0215 27.6819 42.1177 27.3792 42.3118 27.1525C42.5044 26.9134 42.7264 26.7364 42.9779 26.6231C43.2388 26.5082 43.4608 26.4523 43.6441 26.4523C43.8366 26.4523 44.054 26.4973 44.2931 26.5889C44.5431 26.6681 44.7589 26.8218 44.9421 27.05C45.1238 27.2658 45.2154 27.5795 45.2154 27.9893C45.2154 28.3868 45.0446 28.7283 44.703 29.014C44.3723 29.2981 43.9624 29.441 43.4733 29.441Z" fill="#1A1A1A"/>
</svg>
