<svg width="75" height="86" viewBox="0 0 75 86" fill="none" xmlns="http://www.w3.org/2000/svg">
<path d="M67.1116 82.7243C53.8276 79.293 18.7578 61.655 3.10547 48.4576C3.10547 48.4576 14.3856 44.4986 29.1574 40.8344C43.9289 37.1546 54.7376 34.158 54.7376 34.158C60.4134 43.2564 67.3321 66.7476 70.0253 79.7121C70.4157 81.6063 68.971 83.2056 67.1116 82.7243Z" fill="#FFE8A3"/>
<path d="M55.7248 33.5424C58.6466 38.2262 61.8324 46.4977 64.6085 55.1291C67.0467 62.7102 69.1996 70.6662 70.6082 76.9099L71.1647 79.4754C71.4313 80.7685 71.0815 82.0366 70.258 82.9082C69.42 83.7948 68.157 84.1976 66.8191 83.8513C60.0389 82.0997 47.8508 76.7791 35.4557 70.2855C23.048 63.7852 10.2786 56.0289 2.3546 49.3477L0.795898 48.0346L2.72001 47.3584C2.72156 47.3578 2.72619 47.3563 2.72911 47.3553C2.73492 47.3533 2.74389 47.3501 2.75488 47.3462C2.77732 47.3384 2.81012 47.3264 2.85344 47.3114C2.9411 47.281 3.07144 47.2362 3.2416 47.1779C3.58187 47.0615 4.08322 46.8913 4.73055 46.6761C6.02549 46.2454 7.90515 45.6346 10.2466 44.9081C14.9286 43.4555 21.4631 41.543 28.8752 39.7044C36.2537 37.8663 42.6428 36.1983 47.1868 34.9904C49.4587 34.3865 51.2697 33.8985 52.5119 33.5606C53.1329 33.3916 53.6121 33.2598 53.9356 33.1709C54.0973 33.1265 54.2202 33.092 54.3026 33.0693C54.3433 33.0581 54.3744 33.0507 54.395 33.045C54.4054 33.0422 54.4142 33.0389 54.4193 33.0375C54.4213 33.0369 54.4227 33.0362 54.4239 33.0359H54.4269L55.2654 32.804L55.7248 33.5424ZM53.1229 35.8076C51.8769 36.1466 50.0622 36.6369 47.7857 37.242C43.2327 38.4523 36.8317 40.122 29.4392 41.9636L29.4377 41.9651L29.1572 40.834L29.048 40.3958L29.4377 41.9651C22.0786 43.7905 15.5873 45.6895 10.9365 47.1324C8.61275 47.8534 6.74903 48.4591 5.46744 48.8852C13.2646 55.0996 25.0004 62.1781 36.5368 68.2218C48.1367 74.2989 59.3986 79.2596 66.1201 81.2403L67.4029 81.5966C67.9244 81.7316 68.3142 81.5748 68.5658 81.3085C68.8313 81.0273 69.0076 80.5485 68.8843 79.9485C67.5472 73.5121 65.1566 64.4384 62.3917 55.8417C59.7647 47.6738 56.8329 40.0508 54.1919 35.515C53.904 35.5938 53.5462 35.6925 53.1229 35.8076Z" fill="#1A1A1A"/>
<path d="M51.7812 51.2427C55.3616 51.2427 58.2646 53.5202 58.2646 56.3296C58.2645 59.1389 55.3615 61.4165 51.7812 61.4165C48.2012 61.4163 45.299 59.1388 45.2988 56.3296C45.2988 53.5203 48.2011 51.2428 51.7812 51.2427ZM29.498 49.7056C32.9269 49.7056 35.7069 52.0175 35.707 54.8696C35.707 57.7218 32.927 60.0337 29.498 60.0337C26.0691 60.0337 23.2891 57.7218 23.2891 54.8696C23.2892 52.0175 26.0692 49.7056 29.498 49.7056ZM45.2988 36.4302C48.879 36.4303 51.7812 38.7078 51.7812 41.5171C51.7812 44.3264 48.8791 46.6039 45.2988 46.604C41.7185 46.604 38.8154 44.3265 38.8154 41.5171C38.8155 38.7078 41.7185 36.4302 45.2988 36.4302Z" fill="#BD2915"/>
<path d="M31.0201 31.7355C25.1618 33.3968 9.98032 39.592 3.10547 43.132L8.0996 53.0688C15.8684 49.5599 30.102 44.2188 32.5727 43.5201C34.977 42.837 48.5929 39.0485 55.6321 37.0922C55.9996 36.999 56.3188 36.7661 56.4913 36.4245C57.0785 35.26 57.7132 33.2726 57.2533 31.7355C56.7998 30.1984 55.5976 28.9253 54.7451 28.2576C54.4726 28.0403 54.1231 27.9628 53.7793 28.0093C48.2203 28.6149 36.6912 30.1208 31.0201 31.7355Z" fill="#D4693B"/>
<path d="M53.6538 26.8546C54.2588 26.78 54.926 26.912 55.4717 27.3474L55.4702 27.3489C56.4189 28.094 57.8205 29.5468 58.3693 31.4019L58.4663 31.7885C58.655 32.6983 58.5753 33.6403 58.4042 34.4586C58.2059 35.406 57.863 36.2893 57.5308 36.9483L56.0995 36.2265L56.9364 36.6496L57.5308 36.9483V36.9498L57.3898 37.1909C57.0391 37.721 56.5059 38.0624 55.9418 38.2113L55.9433 38.2143C48.9014 40.1714 35.2903 43.9582 32.8904 44.6402H32.8888C30.4954 45.3171 16.3221 50.6329 8.57893 54.1303C8.0101 54.3872 7.34017 54.1496 7.05966 53.5921L2.06516 43.6546C1.77859 43.0842 2.00438 42.39 2.57158 42.0974C9.49772 38.531 24.751 32.3025 30.7009 30.6149C36.4821 28.9689 48.1096 27.4555 53.6538 26.8516V26.8546ZM53.9055 29.1669L51.5629 29.4353C45.5648 30.1504 36.2051 31.4705 31.3392 32.8559L30.986 31.6172L31.3377 32.8559C25.845 34.4136 11.8802 40.0792 4.66854 43.6501L8.6411 51.5527C16.6 48.043 29.8124 43.0901 32.255 42.3992C34.6662 41.7141 48.2845 37.9256 55.3201 35.9703L55.6309 37.0923H55.6325L55.3201 35.9703C55.3286 35.9679 55.3373 35.9664 55.3459 35.9642C55.4259 35.9439 55.4488 35.9055 55.452 35.899C55.7067 35.3937 55.9744 34.7018 56.1252 33.981C56.2788 33.247 56.2904 32.5804 56.1374 32.069L56.1359 32.0644C55.8228 31.0043 55.0211 30.0395 54.3194 29.4186L54.0268 29.1745L54.0192 29.1684L54.0086 29.1654C53.9958 29.1622 53.9713 29.1591 53.9358 29.1639C53.9258 29.1652 53.9155 29.1658 53.9055 29.1669Z" fill="#1A1A1A"/>
<path d="M8.83147 47.1378C9.75303 50.2431 8.9055 52.8981 7.05176 53.4105C5.19802 53.9229 2.5902 52.1994 1.66862 49.0941C0.747057 45.9889 1.50263 43.07 3.35638 42.5576C5.21011 42.0452 7.90989 44.0325 8.83147 47.1378Z" fill="#864E37"/>
<path d="M3.04672 41.4357C4.47945 41.04 6.00043 41.642 7.17242 42.5835C8.38053 43.5541 9.41955 45.0289 9.94714 46.8062C10.4576 48.5262 10.5032 50.2001 10.0988 51.5748C9.69461 52.9482 8.79073 54.1381 7.36195 54.533C5.9764 54.916 4.49191 54.4322 3.30903 53.5383C2.10291 52.6267 1.08077 51.2048 0.552503 49.4248C0.0430218 47.7077 -0.0226196 45.984 0.344778 44.5622C0.705977 43.1646 1.56149 41.8462 3.04672 41.4357ZM5.71379 44.3984C4.8427 43.6988 4.0877 43.5637 3.66686 43.6797C3.2985 43.7815 2.84913 44.1787 2.59943 45.1444C2.35608 46.0862 2.37271 47.3745 2.78441 48.7622C3.17772 50.0874 3.92146 51.0811 4.71307 51.6794C5.52784 52.2953 6.27384 52.4168 6.7418 52.2874C7.16649 52.1698 7.61278 51.7762 7.86534 50.9183C8.11758 50.0611 8.1263 48.854 7.71523 47.4688C7.32117 46.1412 6.54924 45.0696 5.71379 44.3984Z" fill="#1A1A1A"/>
<path d="M58.0488 71.5811H51.0488L54.5488 76.831L58.0488 71.5811Z" fill="#FFAFA3"/>
<path d="M58.0495 70.4165C58.4788 70.4167 58.8734 70.6536 59.076 71.0321C59.2783 71.4105 59.2563 71.8698 59.0184 72.2269L55.5174 77.4776C55.3013 77.8011 54.9375 77.9962 54.5485 77.9962C54.1595 77.996 53.7955 77.8013 53.5796 77.4776L50.0801 72.2269C49.842 71.8697 49.8201 71.4107 50.0225 71.0321C50.2252 70.6535 50.6196 70.4165 51.049 70.4165H58.0495ZM54.5485 74.7302L55.8737 72.7455H53.2248L54.5485 74.7302Z" fill="#1A1A1A"/>
<path d="M62.271 69.9219C62.6962 70.3976 63.4425 70.453 63.9377 70.0446C64.4328 69.6361 64.4889 68.9192 64.0639 68.4435C62.7697 66.9953 61.2733 66.5724 59.8918 66.8262C58.6213 67.0597 57.6262 67.8313 57.0816 68.4494C56.6599 68.928 56.7218 69.6439 57.2201 70.049C57.7183 70.4541 58.4635 70.3945 58.8853 69.9159C59.1981 69.5608 59.7505 69.1647 60.335 69.057C60.8087 68.97 61.4765 69.0328 62.271 69.9219Z" fill="#1A1A1A"/>
<path d="M49.8496 69.9219C50.2748 70.3976 51.0211 70.453 51.5164 70.0446C52.0115 69.6361 52.0675 68.9192 51.6426 68.4435C50.3483 66.9953 48.8519 66.5724 47.4704 66.8262C46.1999 67.0597 45.2048 67.8313 44.6602 68.4494C44.2385 68.928 44.3005 69.6439 44.7987 70.049C45.2969 70.4541 46.0422 70.3945 46.4639 69.9159C46.7767 69.5608 47.3291 69.1647 47.9136 69.057C48.3873 68.97 49.0551 69.0328 49.8496 69.9219Z" fill="#1A1A1A"/>
</svg>
