<svg width="75" height="86" viewBox="0 0 75 86" fill="none" xmlns="http://www.w3.org/2000/svg">
<path d="M10.114 55.4242L13.3342 51.2368L16.7298 52.85L18.7265 56.685L28.4677 56.6074L30.0172 53.3825L33.7855 51.2896L37.8922 54.5905H40.3081L51.8224 53.3825L59.23 54.5905L62.7234 56.6896L64.7061 59.5837L66.9885 62.4235L70.1823 70.213V74.6412L68.4107 79.473L65.9948 81.406L56.6666 84.1433L47.8073 80.5194L40.3081 81.406L31.691 84.1433H28.8729L26.5378 80.5194L13.8963 79.473L6.32717 82.4525L3.5076 80.5194L3.10547 77.7821L7.79753 74.5107L7.2805 67.35L10.114 55.4242Z" fill="#FFD966"/>
<path d="M48.4575 71.5655C49.0549 71.4357 49.7018 71.5378 50.2495 71.9053C50.4613 72.0475 50.6191 72.1977 50.7026 72.2813C50.799 72.3778 50.8837 72.475 50.9517 72.5547C51.0863 72.7127 51.2203 72.8836 51.3276 73.0254C51.595 73.3787 51.7131 73.5476 51.8032 73.6534L50.5933 74.6846V74.6866L51.8032 73.6534L51.8052 73.6553L51.8872 73.7403C51.9745 73.8148 52.1097 73.892 52.5796 74.2422C53.0821 74.6167 53.9546 75.3375 54.2749 76.6465C54.5447 77.7504 54.2846 78.9547 53.8247 79.7803C53.6142 80.158 53.0926 80.95 52.0796 81.2617C50.94 81.6124 50.0026 81.1544 49.4146 80.6114C49.4058 80.6074 49.3955 80.6041 49.3853 80.5996C49.1658 80.503 48.9092 80.4081 48.5132 80.2539C48.173 80.1215 47.7194 79.9405 47.311 79.7246C47.1036 79.6149 46.85 79.4667 46.604 79.2744C46.3742 79.0947 46.0277 78.78 45.771 78.3037C45.3171 77.4618 45.2904 76.6288 45.4048 75.9688C45.5044 75.3943 45.7289 74.8745 45.8218 74.6485C45.8496 74.5808 45.8714 74.5245 45.8892 74.4795C45.6099 73.4581 46.056 72.343 47.0278 71.8184C47.4826 71.5731 47.9823 71.4982 48.4575 71.5655ZM50.9214 78.8311L49.1167 80.3018L51.1665 78.6328L50.9214 78.8311ZM46.5806 53.5655C47.0993 53.5655 47.5763 53.7387 47.9634 54.0254C48.5541 54.1971 49.0779 54.5972 49.3833 55.1866C49.4983 55.4085 49.564 55.6124 49.5972 55.7246C49.6354 55.8539 49.6643 55.9783 49.686 56.0801C49.7291 56.2819 49.7634 56.4954 49.7905 56.6709C49.8578 57.1065 49.8831 57.3139 49.9126 57.4522L49.9136 57.4551L50.0142 58.0401C50.0981 58.6522 50.1336 59.3306 50.1323 59.9551C50.1306 60.7709 50.0658 61.7405 49.8618 62.5225C49.7627 62.9025 49.5575 63.5017 49.0747 64.0069C48.812 64.2816 48.4115 64.5826 47.8618 64.7295C47.2876 64.8828 46.7219 64.8213 46.2456 64.627C45.4023 64.2826 44.9824 63.6038 44.8071 63.2696C44.5934 62.8618 44.4651 62.4263 44.3882 62.0235L44.3872 62.0215C44.2206 61.1454 44.2524 60.3124 44.2524 59.6836V55.8946C44.2525 54.6085 45.2946 53.5657 46.5806 53.5655ZM55.897 52.0127C56.4785 52.0128 57.0075 52.2296 57.4155 52.5821C58.0045 52.7817 58.5145 53.2121 58.7915 53.8233C58.9576 54.1899 59.0293 54.5815 59.0581 54.7373C59.0997 54.9623 59.1346 55.2072 59.1626 55.419C59.2285 55.917 59.2608 56.2204 59.2974 56.4209L59.395 57.0821C59.4773 57.7776 59.5144 58.5642 59.5132 59.3028C59.5115 60.2726 59.4436 61.3757 59.2495 62.2354C59.1606 62.6301 58.9818 63.2412 58.5474 63.7686C58.3124 64.0538 57.911 64.4258 57.3042 64.6143C56.6471 64.8181 55.9972 64.7295 55.4751 64.4825C54.6056 64.0708 54.2194 63.3037 54.0786 62.9922C53.9357 62.6761 53.8345 62.34 53.7622 62.0078L53.6978 61.6778V61.6748L55.4741 61.3838L54.7114 61.2119L55.4702 61.3838L53.6978 61.6748C53.5378 60.7006 53.5679 59.7816 53.5679 58.9727V54.3418C53.568 53.0557 54.6108 52.0127 55.897 52.0127Z" fill="#FAB815"/>
<path opacity="0.7" d="M12.999 68.3148C15.0332 68.3149 16.6826 69.7601 16.6826 71.5423C16.6824 73.3244 15.033 74.7688 12.999 74.7689C10.9649 74.7689 9.31562 73.3244 9.31543 71.5423C9.31543 69.7601 10.9648 68.3148 12.999 68.3148ZM33.1826 68.3148C35.2168 68.3148 36.8662 69.7601 36.8662 71.5423C36.866 73.3244 35.2167 74.7689 33.1826 74.7689C31.1487 74.7687 29.5002 73.3243 29.5 71.5423C29.5 69.7602 31.1486 68.315 33.1826 68.3148Z" fill="#FFAFA3"/>
<path d="M47.2023 69.5352C49.6282 69.0449 51.9941 70.5489 52.6017 72.9195L52.6548 73.1514C52.7543 73.6441 53.0814 74.2009 54.124 74.7344L54.6168 74.9618L55.1596 75.1665C56.4148 75.5922 57.8144 75.7589 58.8183 75.7609C61.5233 75.3608 62.2417 74.1893 62.4239 73.7291C62.5682 73.3613 62.5504 73.109 62.5194 72.9725C62.5047 72.9075 62.4829 72.8641 62.4709 72.8406C62.0551 72.4241 62.013 71.7521 62.3921 71.285C62.7973 70.7856 63.5302 70.7099 64.0296 71.1151C64.3932 71.4103 64.6658 71.9132 64.7892 72.457C64.9247 73.0537 64.9045 73.7832 64.5891 74.5843V74.5873C64.0524 75.9428 62.5381 77.5903 59.073 78.0792L58.9957 78.0898L58.9183 78.0914C57.5408 78.1015 55.4921 77.8524 53.7176 77.1088C51.8655 76.3341 50.6923 75.2028 50.3713 73.6139C50.1181 72.3704 48.9066 71.5658 47.6633 71.8172C46.4195 72.0702 45.6173 73.284 45.8696 74.5267L45.9454 74.8648C46.7802 78.3071 49.4095 80.2843 51.9406 81.3452C54.5344 82.4322 57.3688 82.7274 59.2277 82.6795L59.3414 82.6765L59.4551 82.6613L59.7492 84.9721L59.5779 84.9948L59.5218 85.0009L59.2913 85.0069C57.3224 85.0579 54.4035 84.7774 51.5994 83.7166L51.0399 83.4937C50.1661 83.1275 49.2514 82.6474 48.3668 82.0397C46.571 81.8509 45.0545 81.7003 43.6634 81.5348C41.6069 81.2907 39.4082 82.2198 37.3619 83.515C35.935 84.417 34.2239 85.147 32.5509 85.3208C30.8533 85.4972 29.0726 85.0993 27.8187 83.5771C27.1714 82.7923 26.7765 81.9716 26.63 81.1375C25.617 81.2346 24.7144 81.2785 23.4534 81.2785C20.3893 81.2785 17.4466 81.0014 14.87 80.3172C13.6545 81.5168 11.6649 82.6153 9.7072 83.1844C8.56365 83.5168 7.33874 83.698 6.19558 83.5741C5.04163 83.449 3.8979 83.001 3.08122 82.0109C2.26292 81.0177 1.89161 79.9408 1.94556 78.8586C1.9984 77.8007 2.45095 76.8623 3.04635 76.0945C3.90847 74.9827 5.16945 74.0986 6.41544 73.5608C6.04136 72.4881 5.84839 71.3027 5.84836 70.0052C5.84836 67.5081 5.84632 65.613 6.39421 62.938C6.67318 59.8537 7.52831 55.2483 10.1606 51.6799C11.137 50.3597 12.853 49.7757 14.4318 50.2198C15.3985 50.492 16.5751 50.9649 17.6614 51.9135C18.6299 52.7594 19.4775 53.9415 20.0586 55.5843C21.0343 55.3183 22.0901 54.9961 23.4534 54.996C24.8876 54.996 26.2156 55.3069 27.4093 55.6207C27.9631 54.0482 28.7556 52.8891 29.6685 52.0408C30.7725 51.015 31.9869 50.5042 32.9982 50.2198L33.2954 50.1485C34.7863 49.8521 36.3643 50.4378 37.2664 51.7103C37.7364 52.3731 38.1364 53.0742 38.4824 53.7921H39.7788C41.0185 53.7878 42.5135 53.5754 44.2108 53.3311L45.4753 53.131C45.9437 53.0528 46.4561 52.9638 47.0022 52.8717C48.0831 52.6894 49.2803 52.4937 50.4714 52.335C51.6602 52.1766 52.8639 52.0518 53.9557 52.0181C55.01 51.9855 56.0487 52.0348 56.8911 52.2637C60.3945 53.118 63.1704 54.8227 65.1653 57.2567C67.0937 59.6098 68.2374 62.5794 68.6663 65.972C71.8793 68.799 72.4924 73.4144 71.0286 77.1255C69.3933 81.2706 65.3866 84.2595 59.7492 84.9721L59.4551 82.6613C64.4094 82.0353 67.5938 79.4846 68.8619 76.2704C70.0692 73.2091 69.437 69.5935 66.9332 67.555L66.915 67.5398L66.8968 67.5232L67.6686 66.6513L67.6762 66.6392L66.8968 67.5232C66.6089 67.2684 66.4313 66.916 66.3919 66.5422C66.034 63.3681 65.0094 60.7414 63.364 58.7335C61.723 56.7312 59.4078 55.2739 56.3407 54.5259L56.321 54.5214L56.3028 54.5168L56.1012 54.4668C55.6033 54.3613 54.9042 54.32 54.0285 54.347C53.0481 54.3773 51.931 54.4892 50.7792 54.6427C49.63 54.7958 48.4655 54.9872 47.3888 55.1688C46.3229 55.3486 45.3241 55.523 44.5444 55.6358C42.898 55.8728 41.2245 56.1159 39.7879 56.121H39.4073C39.5873 56.6792 39.742 57.2366 39.8743 57.7859C40.0249 58.411 39.6411 59.0406 39.0162 59.1914C38.3909 59.342 37.7612 58.9569 37.6106 58.3317C37.1591 56.4575 36.4625 54.6039 35.3666 53.0582C34.9906 52.5278 34.284 52.2781 33.6289 52.4623C32.8516 52.681 32.0074 53.0485 31.2545 53.7481C30.5084 54.4414 29.7859 55.5216 29.3425 57.2734L29.338 57.2718C29.1987 57.8288 28.7013 58.1892 28.1659 58.1892H28.1371C28.1204 58.1888 28.0897 58.1881 28.0522 58.1846C28.0194 58.1816 27.951 58.1729 27.8627 58.1498C26.2613 57.7367 24.9433 57.3249 23.4534 57.3249C22.1321 57.325 21.52 57.6601 19.9297 58.0254L19.913 58.0285C19.0636 58.21 18.2661 57.6828 18.0374 56.9049L18.0359 56.8989L17.8509 56.3257C17.3952 55.0539 16.7701 54.2268 16.13 53.6677C15.4822 53.102 14.7703 52.7677 14.0907 52.5488L13.8011 52.4623C13.1512 52.2795 12.434 52.5229 12.0346 53.0612L12.0361 53.0628C9.79695 56.0982 8.9893 60.1598 8.71861 63.1033C8.71781 63.1439 8.71466 63.1849 8.70951 63.2261C8.70781 63.2398 8.7039 63.2528 8.70193 63.2656C8.70144 63.2717 8.70103 63.279 8.70041 63.2868C8.69856 63.3103 8.69629 63.3451 8.69283 63.3808C8.6839 63.4727 8.65922 63.5593 8.63067 63.6431C8.18186 65.94 8.17731 67.5967 8.17731 70.0052C8.17735 71.7213 8.58804 73.0863 9.2872 74.184C9.98974 75.2869 11.0261 76.1852 12.3728 76.8966C15.0987 78.3365 18.9825 78.9495 23.4534 78.9496C24.8322 78.9496 25.7329 78.8916 26.9029 78.7646C27.0299 78.4635 27.1867 78.1789 27.3669 77.914C28.3681 76.4422 30.1244 75.4495 31.7109 75.0771C32.3368 74.9304 32.9633 75.3186 33.1104 75.9444C33.2573 76.5703 32.8689 77.1967 32.2431 77.3439C31.0845 77.6158 29.8928 78.3416 29.2925 79.224C29.0064 79.6448 28.8748 80.069 28.8937 80.4931C28.9127 80.9149 29.086 81.4536 29.6155 82.0958L28.5586 82.9676L28.7178 82.8372L29.617 82.0973C30.2277 82.8384 31.1278 83.1282 32.3098 83.0055C33.5167 82.8801 34.8845 82.3246 36.1171 81.5454C38.2751 80.1795 41.0557 78.8799 43.9394 79.2225C44.4598 79.2844 44.9976 79.3405 45.5633 79.4014C44.7305 78.3015 44.0628 76.9866 43.6831 75.4228L43.5876 74.9891C43.0792 72.4844 44.6976 70.0452 47.2008 69.5367L47.2023 69.5352ZM7.46468 75.6487C6.51399 76.0354 5.51512 76.7114 4.88707 77.5213C4.49533 78.0264 4.29417 78.5201 4.27147 78.9753C4.25009 79.4061 4.38004 79.925 4.87645 80.528C5.20164 80.9223 5.70998 81.1789 6.44576 81.2588C7.19267 81.3398 8.09873 81.2265 9.05673 80.948C10.2643 80.5969 11.41 80.0248 12.2803 79.4287C11.9387 79.2804 11.606 79.1249 11.2856 78.9556C9.73488 78.1365 8.41713 77.0534 7.46468 75.6487ZM6.40937 62.8668C6.40842 62.8714 6.40769 62.8776 6.40634 62.885C6.40817 62.8743 6.4103 62.8637 6.41241 62.8531C6.41154 62.857 6.41039 62.8618 6.40937 62.8668ZM28.175 56.9777L27.0864 56.7017L28.1644 56.9762L28.175 56.9777L28.2129 56.9883L28.2372 56.9929L28.175 56.9777Z" fill="#1A1A1A"/>
<path opacity="0.7" d="M12.8788 54.7997C13.1552 54.4241 13.6464 54.2564 14.0966 54.3836C14.6479 54.5391 15.8428 55.6154 16.5244 56.7782C16.8007 57.2486 16.4745 57.7873 15.9482 57.9286C14.7528 58.2484 13.7948 58.6988 12.6972 59.4999C12.0126 59.9981 11.12 59.5078 11.3369 58.6883C11.7172 57.2444 12.2826 55.607 12.8788 54.7997ZM34.0351 54.3836C34.4853 54.2563 34.9765 54.424 35.2529 54.7997C35.8491 55.607 36.4135 57.2444 36.7939 58.6883C37.0109 59.5079 36.1191 59.998 35.4345 59.4999C34.3368 58.6987 33.3781 58.2484 32.1826 57.9286C31.6565 57.7871 31.3311 57.2485 31.6074 56.7782C32.2889 55.6154 33.4839 54.539 34.0351 54.3836Z" fill="#FFAFA3"/>
<path d="M23.2292 73.75C23.658 73.75 24.0056 74.0975 24.0056 74.5263C24.0056 74.955 23.658 75.3026 23.2292 75.3026H21.7373C21.3085 75.3026 20.9609 74.955 20.9609 74.5263C20.9609 74.0975 21.3085 73.75 21.7373 73.75H23.2292Z" fill="#1A1A1A"/>
<path d="M30.5589 71.7548C30.9626 72.2426 31.6711 72.2995 32.1413 71.8806C32.6113 71.4618 32.6646 70.7267 32.2611 70.2389C31.0323 68.7538 29.6116 68.3201 28.2999 68.5804C27.0937 68.8199 26.1489 69.6111 25.6319 70.2449C25.2315 70.7357 25.2903 71.4698 25.7634 71.8852C26.2364 72.3006 26.944 72.2395 27.3443 71.7488C27.6414 71.3846 28.1658 70.9784 28.7207 70.868C29.1705 70.7787 29.8045 70.8432 30.5589 71.7548Z" fill="#1A1A1A"/>
<path d="M18.138 71.7548C18.5417 72.2426 19.2502 72.2994 19.7204 71.8806C20.1904 71.4618 20.2437 70.7266 19.8402 70.2388C18.6114 68.7538 17.1907 68.3201 15.879 68.5804C14.6728 68.8198 13.728 69.611 13.211 70.2449C12.8106 70.7357 12.8694 71.4697 13.3425 71.8851C13.8155 72.3005 14.5231 72.2395 14.9234 71.7487C15.2205 71.3846 15.7449 70.9784 16.2998 70.8679C16.7496 70.7787 17.3836 70.8431 18.138 71.7548Z" fill="#1A1A1A"/>
</svg>
