<svg width="75" height="86" viewBox="0 0 75 86" fill="none" xmlns="http://www.w3.org/2000/svg">
<path d="M17.0791 33.7679V27.9458C17.0791 24.5162 19.8598 21.7356 23.2899 21.7356H41.9224C45.3525 21.7356 48.1333 24.5162 48.1333 27.9458V33.7679C48.1333 37.1974 45.3525 39.978 41.9224 39.978H32.9591L25.3367 46.5764V39.978H23.2899C19.8598 39.978 17.0791 37.1974 17.0791 33.7679Z" fill="white"/>
<path d="M46.9692 27.9458C46.9692 25.1593 44.7098 22.9 41.9229 22.9H23.2904C20.5035 22.9 18.2441 25.1593 18.2441 27.9458V33.7679C18.2441 36.5544 20.5035 38.8136 23.2904 38.8136H25.3374C25.9805 38.8138 26.502 39.335 26.502 39.978V44.0262L32.1972 39.0972C32.4089 38.914 32.6801 38.8136 32.96 38.8136H41.9229C44.7098 38.8136 46.9692 36.5544 46.9692 33.7679V27.9458ZM49.2983 33.7679C49.2983 37.8405 45.9962 41.1425 41.9229 41.1425H33.3936L26.1001 47.4573C25.7557 47.7554 25.2682 47.8252 24.8537 47.6362C24.4391 47.4467 24.1729 47.0321 24.1729 46.5764V41.1425H23.2904C19.2171 41.1425 15.915 37.8405 15.915 33.7679V27.9458C15.915 23.8732 19.2171 20.5712 23.2904 20.5712H41.9229C45.9962 20.5712 49.2983 23.8732 49.2983 27.9458V33.7679Z" fill="#1A1A1A"/>
<path d="M31.8541 26.5936C32.3673 27.3512 32.8974 28.1399 32.9109 29.0528C32.9174 29.4922 33.1815 28.6398 33.3019 28.4892C33.5155 28.2238 33.7037 27.9288 33.9593 27.6912C34.4128 27.2705 34.8159 26.8497 35.3698 26.5408C36.1025 26.134 37.0795 25.7521 37.9285 25.7521C38.5761 25.7521 39.0177 25.9074 39.4096 26.4244C39.8371 26.9895 39.9953 27.9117 39.836 28.5808C39.6194 29.4906 39.0783 30.1986 38.4735 30.9019C37.8178 31.6642 37.1178 32.4125 36.3932 33.1143C35.5457 33.9356 34.7596 34.7538 33.772 35.4276C33.2669 35.7738 32.7841 36.1495 32.2743 36.4879C32.1013 36.6028 32.0007 36.7674 31.8541 36.5361C31.6279 36.179 31.3757 35.8359 31.1177 35.499C30.8848 35.1947 30.6828 34.8562 30.4416 34.5643C29.8704 33.8719 29.4429 33.0894 28.8273 32.4234C27.6791 31.1798 26.3838 29.8974 26.3956 28.1213C26.399 27.5903 26.4676 27.0966 26.7409 26.6293C27.0662 26.075 27.6151 25.5565 28.1596 25.2025C28.4841 24.9929 28.8354 24.8439 29.2288 24.8439C29.5308 24.8439 29.8617 24.8113 30.1399 24.9448C30.2865 25.0162 30.418 25.1326 30.5519 25.2227C30.7641 25.3686 30.9483 25.6093 31.1301 25.7878L31.1313 25.7893C31.3843 26.0362 31.656 26.3017 31.8541 26.5936Z" fill="#E24C0C"/>
</svg>
