<svg width="75" height="86" viewBox="0 0 75 86" fill="none" xmlns="http://www.w3.org/2000/svg">
<path d="M39.5924 31.2856C42.9116 31.2856 45.7863 33.1799 47.1994 35.9435C47.2514 35.9435 47.3034 35.9435 47.3556 35.9435C51.3558 35.9435 54.713 38.6918 55.6403 42.4025C59.3543 43.3341 62.1056 46.7033 62.1056 50.6935C62.1056 50.7556 62.102 50.8022 62.1011 50.8488C64.868 52.2617 66.7635 55.1341 66.7635 58.4567C66.7635 58.5188 66.7599 58.5653 66.759 58.6119C69.5259 60.0248 71.4214 62.8972 71.4214 66.2199C71.4214 67.462 71.1517 68.642 70.6739 69.7133C72.0995 71.2349 72.974 73.2843 72.974 75.5356C72.974 80.2556 69.1508 84.0751 64.4345 84.0751C62.7154 84.0751 61.1165 83.5627 59.7766 82.6933C58.4367 83.5627 56.8378 84.0751 55.1187 84.0751C52.6707 84.0751 50.4652 83.0504 48.9082 81.3891C47.3512 83.0504 45.1457 84.0751 42.6977 84.0751C40.633 84.0751 38.74 83.3454 37.2635 82.1188C35.7869 83.3454 33.8939 84.0751 31.8293 84.0751C29.7646 84.0751 27.8716 83.3454 26.395 82.1188C24.9185 83.3454 23.0255 84.0751 20.9608 84.0751C19.5627 84.0751 18.2442 83.7336 17.0793 83.1436C15.9143 83.7336 14.5959 84.0751 13.1977 84.0751C8.48145 84.0751 4.6582 80.2556 4.6582 75.5356C4.6582 73.2843 5.5315 71.2349 6.95683 69.7133C6.47911 68.642 6.21083 67.462 6.21083 66.2199C6.21083 62.8972 8.10543 60.0248 10.8718 58.6119C10.8708 58.5653 10.8687 58.5188 10.8687 58.4567C10.8687 54.5441 13.5004 51.2524 17.0898 50.2432C17.2898 46.4393 19.972 43.3031 23.543 42.4025C24.4702 38.6918 27.8289 35.9435 31.8293 35.9435C31.881 35.9435 31.9325 35.9435 31.9839 35.9435C33.3969 33.1799 36.2729 31.2856 39.5924 31.2856Z" fill="#F5F5F5"/>
<path d="M38.2033 41.5728C39.0889 41.5096 41.1513 41.4484 43.1311 41.7183C43.1728 41.724 43.2145 41.7335 43.2569 41.7396C44.4933 41.7621 46.2792 41.9954 47.6707 43.2361L47.6692 43.2376C49.2741 44.6675 50.4325 46.2918 51.3582 48.079H51.3597C52.1824 49.6592 52.2332 51.3862 52.1542 52.6383C52.0727 53.9302 51.8095 55.2089 51.6554 56.0135C51.0663 59.1006 49.0806 61.9392 47.096 63.7781L47.0945 63.7766C45.1533 65.5947 42.9067 66.166 40.9386 66.3846L40.1107 66.4604H40.1047C36.9039 66.686 34.1231 66.1057 31.318 64.8941L31.3059 64.888L31.0421 64.7622C30.4486 64.4538 29.9983 64.0513 29.6987 63.7478C29.3309 63.3752 29.0166 62.9737 28.7662 62.6213C28.5162 62.2693 28.2915 61.9108 28.1006 61.5887L27.6411 60.7714L27.6366 60.7623C26.5334 58.6769 26.0487 56.3735 26.6677 53.824C26.3324 51.4968 26.7559 48.5489 28.5721 46.3641L28.5751 46.3611C29.455 45.3049 30.4203 43.9986 32.4112 43.0072L32.7797 42.8313C34.6189 41.9888 36.4443 41.6894 38.2033 41.5728Z" fill="#DC3412"/>
<path d="M25.5908 68.2377C32.2095 68.6414 44.9044 69.1232 50.5469 68.3315C51.0007 68.2694 51.4221 68.5794 51.4678 69.0297C51.9062 73.3999 52.7834 80.5871 53.6943 83.9545C51.8218 83.6409 50.1564 82.7208 48.9082 81.3891C47.3512 83.0503 45.1452 84.0746 42.6973 84.0746C40.6328 84.0745 38.7401 83.345 37.2637 82.1186C35.7871 83.3451 33.8938 84.0746 31.8291 84.0746C29.7645 84.0746 27.8711 83.3451 26.3945 82.1186C25.5468 82.8227 24.5613 83.3612 23.4854 83.6938C23.9538 79.0541 24.6225 72.0154 24.748 69.0141C24.7669 68.5639 25.1433 68.2068 25.5908 68.2377Z" fill="#F7FDFF"/>
<path d="M25.5908 68.2377C32.2095 68.6414 44.9044 69.1232 50.5469 68.3315C51.0007 68.2694 51.4221 68.5794 51.4678 69.0297C51.9062 73.3999 52.7834 80.5871 53.6943 83.9545C51.8218 83.6409 50.1564 82.7208 48.9082 81.3891C47.3512 83.0503 45.1452 84.0746 42.6973 84.0746C40.6328 84.0745 38.7401 83.345 37.2637 82.1186C35.7871 83.3451 33.8938 84.0746 31.8291 84.0746C29.7645 84.0746 27.8711 83.3451 26.3945 82.1186C25.5468 82.8227 24.5613 83.3612 23.4854 83.6938C23.9538 79.0541 24.6225 72.0154 24.748 69.0141C24.7669 68.5639 25.1433 68.2068 25.5908 68.2377Z" fill="#2C2C2C"/>
<path d="M47.1993 35.9435L46.1623 36.4868C46.3648 36.875 46.7753 37.1235 47.2203 37.1079L47.1993 35.9435ZM55.6402 42.4025L54.5105 42.6974C54.6147 43.1166 54.9407 43.4427 55.3584 43.5359L55.6402 42.4025ZM62.101 50.8487L60.9367 50.8331C60.9288 51.2679 61.1752 51.6872 61.5714 51.889L62.101 50.8487ZM66.7589 58.6118L65.5946 58.5963C65.5867 59.031 65.8331 59.4503 66.2293 59.6522L66.7589 58.6118ZM70.6738 69.7132L69.6112 69.2318C69.4195 69.6665 69.5029 70.1635 69.8229 70.5051L70.6738 69.7132ZM59.7765 82.6932L60.4128 81.715C60.0261 81.4666 59.527 81.4666 59.1403 81.715L59.7765 82.6932ZM48.9081 81.389L49.7551 80.5972C49.5351 80.3643 49.2287 80.2245 48.9081 80.2245C48.5875 80.2245 48.2812 80.3643 48.0612 80.5972L48.9081 81.389ZM37.2634 82.1187L38.0049 81.2336C37.5745 80.8765 36.9522 80.8765 36.5219 81.2336L37.2634 82.1187ZM26.395 82.1187L27.1365 81.2336C26.7061 80.8765 26.0838 80.8765 25.6534 81.2336L26.395 82.1187ZM17.0792 83.1435L17.6094 82.1032C17.2764 81.9324 16.882 81.9324 16.549 82.1032L17.0792 83.1435ZM6.95675 69.7132L7.80773 70.5051C8.1277 70.1635 8.21108 69.6665 8.01931 69.2318L6.95675 69.7132ZM10.8717 58.6118L11.4014 59.6522C11.7976 59.4503 12.0439 59.031 12.036 58.5963L10.8717 58.6118ZM17.0897 50.2431L17.4054 51.361C17.8856 51.2213 18.2264 50.8021 18.2527 50.3053L17.0897 50.2431ZM23.5429 42.4025L23.8251 43.5359C24.2426 43.4427 24.5685 43.1166 24.6726 42.6974L23.5429 42.4025ZM31.9838 35.9435L31.9632 37.1079C32.408 37.1235 32.8185 36.875 33.0208 36.4713L31.9838 35.9435ZM39.5923 31.2856V32.45C42.4566 32.45 44.9402 34.0803 46.1623 36.4868L47.1993 35.9435L48.2363 35.4156C46.6323 32.2793 43.3665 30.1211 39.5923 30.1211V31.2856ZM47.1993 35.9435L47.2203 37.1079C47.3108 37.1079 47.3134 37.1079 47.3555 37.1079V35.9435V34.779C47.2932 34.779 47.1917 34.779 47.1785 34.779L47.1993 35.9435ZM47.3555 35.9435V37.1079C50.8085 37.1079 53.7095 39.4834 54.5105 42.6974L55.6402 42.4025L56.77 42.1229C55.7163 37.9153 51.903 34.779 47.3555 34.779V35.9435ZM55.6402 42.4025L55.3584 43.5359C58.5658 44.3432 60.941 47.2466 60.941 50.6935H62.1055H63.27C63.27 46.1443 60.1425 42.3402 55.9221 41.2844L55.6402 42.4025ZM62.1055 50.6935H60.941C60.941 50.6935 60.941 50.6935 60.9409 50.709C60.9407 50.709 60.9404 50.709 60.9399 50.7245C60.9393 50.7401 60.9375 50.7866 60.9367 50.8331L62.101 50.8487L63.2653 50.8642C63.2655 50.8642 63.2658 50.8487 63.2672 50.8176C63.2683 50.7866 63.27 50.74 63.27 50.6935H62.1055ZM62.101 50.8487L61.5714 51.889C63.9645 53.1156 65.5989 55.5998 65.5989 58.4566H66.7634H67.9279C67.9279 54.6837 65.7714 51.4231 62.6304 49.8084L62.101 50.8487ZM66.7634 58.4566H65.5989C65.5989 58.4566 65.5989 58.4566 65.5988 58.4722C65.5986 58.4722 65.5983 58.4722 65.5978 58.4877C65.5972 58.5032 65.5953 58.5497 65.5946 58.5963L66.7589 58.6118L67.9232 58.6274C67.9234 58.6274 67.9237 58.6118 67.9251 58.5808C67.9262 58.5497 67.9279 58.5032 67.9279 58.4566H66.7634ZM66.7589 58.6118L66.2293 59.6522C68.6224 60.8788 70.2568 63.3629 70.2568 66.2198H71.4213H72.5858C72.5858 62.4469 70.4293 59.1863 67.2883 57.5715L66.7589 58.6118ZM71.4213 66.2198H70.2568C70.2568 67.2911 70.0244 68.3157 69.6112 69.2318L70.6738 69.7132L71.7363 70.1944C72.279 68.9834 72.5858 67.6327 72.5858 66.2198H71.4213ZM70.6738 69.7132L69.8229 70.5051C71.0558 71.8248 71.8094 73.5948 71.8094 75.5356H72.9739H74.1384C74.1384 72.9737 73.1433 70.6448 71.5247 68.9213L70.6738 69.7132ZM72.9739 75.5356H71.8094C71.8094 79.619 68.5076 82.9106 64.4344 82.9106V84.075V85.2395C69.7938 85.2395 74.1384 80.8921 74.1384 75.5356H72.9739ZM64.4344 84.075V82.9106C62.9494 82.9106 61.5703 82.4758 60.4128 81.715L59.7765 82.6932L59.1403 83.6713C60.6626 84.665 62.4814 85.2395 64.4344 85.2395V84.075ZM59.7765 82.6932L59.1403 81.715C57.9828 82.4758 56.6037 82.9106 55.1187 82.9106V84.075V85.2395C57.0717 85.2395 58.8905 84.665 60.4128 83.6713L59.7765 82.6932ZM55.1187 84.075V82.9106C53.0052 82.9106 51.102 82.0256 49.7551 80.5972L48.9081 81.389L48.0612 82.1962C49.8284 84.0749 52.336 85.2395 55.1187 85.2395V84.075ZM48.9081 81.389L48.0612 80.5972C46.7143 82.0256 44.811 82.9106 42.6976 82.9106V84.075V85.2395C45.4802 85.2395 47.9879 84.0749 49.7551 82.1962L48.9081 81.389ZM42.6976 84.075V82.9106C40.9138 82.9106 39.2807 82.2739 38.0049 81.2336L37.2634 82.1187L36.5219 83.0192C38.199 84.401 40.3522 85.2395 42.6976 85.2395V84.075ZM37.2634 82.1187L36.5219 81.2336C35.2461 82.2739 33.613 82.9106 31.8292 82.9106V84.075V85.2395C34.1746 85.2395 36.3278 84.401 38.0049 83.0192L37.2634 82.1187ZM31.8292 84.075V82.9106C30.0454 82.9106 28.4123 82.2739 27.1365 81.2336L26.395 82.1187L25.6534 83.0192C27.3306 84.401 29.4838 85.2395 31.8292 85.2395V84.075ZM26.395 82.1187L25.6534 81.2336C24.3776 82.2739 22.7446 82.9106 20.9608 82.9106V84.075V85.2395C23.3062 85.2395 25.4594 84.401 27.1365 83.0192L26.395 82.1187ZM20.9608 84.075V82.9106C19.7527 82.9106 18.6152 82.6155 17.6094 82.1032L17.0792 83.1435L16.549 84.1836C17.8729 84.8513 19.3726 85.2395 20.9608 85.2395V84.075ZM17.0792 83.1435L16.549 82.1032C15.5432 82.6155 14.4057 82.9106 13.1976 82.9106V84.075V85.2395C14.7858 85.2395 16.2855 84.8513 17.6094 84.1836L17.0792 83.1435ZM13.1976 84.075V82.9106C9.1245 82.9106 5.8226 79.619 5.8226 75.5356H4.65813H3.49365C3.49365 80.8921 7.83826 85.2395 13.1976 85.2395V84.075ZM4.65813 75.5356H5.8226C5.8226 73.5948 6.57552 71.8248 7.80773 70.5051L6.95675 69.7132L6.10577 68.9213C4.48731 70.6448 3.49365 72.9737 3.49365 75.5356H4.65813ZM6.95675 69.7132L8.01931 69.2318C7.6067 68.3157 7.37523 67.2911 7.37523 66.2198H6.21076H5.04628C5.04628 67.6327 5.35136 68.9834 5.89419 70.1944L6.95675 69.7132ZM6.21076 66.2198H7.37523C7.37523 63.3629 9.00911 60.8788 11.4014 59.6522L10.8717 58.6118L10.342 57.5715C7.2016 59.1863 5.04628 62.4469 5.04628 66.2198H6.21076ZM10.8717 58.6118L12.036 58.5963C12.0343 58.5031 12.0331 58.5032 12.0331 58.4566H10.8687H9.70418C9.70418 58.5187 9.70721 58.6274 9.70739 58.6274L10.8717 58.6118ZM10.8687 58.4566H12.0331C12.0331 55.0874 14.3044 52.2305 17.4054 51.361L17.0897 50.2431L16.7742 49.1253C12.6962 50.2742 9.70418 54.0161 9.70418 58.4566H10.8687ZM17.0897 50.2431L18.2527 50.3053C18.4252 47.0293 20.7409 44.3122 23.8251 43.5359L23.5429 42.4025L23.2608 41.2844C19.2027 42.2936 16.1543 45.8647 15.927 50.181L17.0897 50.2431ZM23.5429 42.4025L24.6726 42.6974C25.4735 39.4834 28.3757 37.1079 31.8292 37.1079V35.9435V34.779C27.2818 34.779 23.4667 37.9153 22.4131 42.1229L23.5429 42.4025ZM31.8292 35.9435V37.1079C31.8716 37.1079 31.8709 37.1079 31.9632 37.1079L31.9838 35.9435L32.0045 34.779C31.9938 34.779 31.89 34.779 31.8292 34.779V35.9435ZM31.9838 35.9435L33.0208 36.4713C34.2427 34.0803 36.7274 32.45 39.5923 32.45V31.2856V30.1211C35.8182 30.1211 32.5508 32.2793 30.9468 35.4156L31.9838 35.9435Z" fill="#1A1A1A"/>
<path d="M24.8428 53.0225C26.5577 53.0225 27.9482 54.0654 27.9482 55.3516C27.9482 56.6378 26.5577 57.6806 24.8428 57.6807C23.1278 57.6807 21.7373 56.6378 21.7373 55.3516C21.7373 54.0653 23.1278 53.0225 24.8428 53.0225ZM52.79 53.0225C54.505 53.0225 55.8955 54.0654 55.8955 55.3516C55.8955 56.6378 54.505 57.6806 52.79 57.6807C51.075 57.6807 49.6846 56.6378 49.6846 55.3516C49.6846 54.0653 51.0751 53.0225 52.79 53.0225Z" fill="#FFAFA3"/>
<path d="M41.944 56.0907C41.944 57.3769 40.9013 58.4196 39.6151 58.4196C38.3288 58.4196 37.2861 57.3769 37.2861 56.0907C37.2861 54.8044 38.3288 53.7617 39.6151 53.7617C40.9013 53.7617 41.944 54.8044 41.944 56.0907Z" fill="#FFAFA3"/>
<path d="M40.7795 56.0906C40.7795 55.4475 40.2581 54.9261 39.615 54.9261C38.9719 54.9261 38.4505 55.4475 38.4505 56.0906C38.4505 56.7337 38.9719 57.2551 39.615 57.2551C40.2581 57.2551 40.7795 56.7337 40.7795 56.0906ZM43.1084 56.0906C43.1084 58.02 41.5444 59.584 39.615 59.584C37.6856 59.584 36.1216 58.02 36.1216 56.0906C36.1216 54.1612 37.6856 52.5972 39.615 52.5972C41.5444 52.5972 43.1084 54.1612 43.1084 56.0906Z" fill="#1A1A1A"/>
<path d="M48.8786 50.4085C49.3793 49.8255 50.2578 49.7576 50.8409 50.2581C51.4238 50.7587 51.4899 51.6374 50.9895 52.2204C49.4657 53.9954 47.7039 54.5138 46.0774 54.2027C44.5816 53.9165 43.4101 52.9708 42.7689 52.2132C42.2724 51.6266 42.3454 50.7492 42.932 50.2527C43.5186 49.7562 44.3959 49.8292 44.8924 50.4158C45.2608 50.851 45.9111 51.3365 46.5993 51.4685C47.157 51.5752 47.9432 51.4982 48.8786 50.4085Z" fill="#1A1A1A"/>
<path d="M29.3601 50.4085C28.8595 49.8255 27.9809 49.7576 27.3978 50.2581C26.8149 50.7587 26.7489 51.6374 27.2493 52.2204C28.7731 53.9954 30.5348 54.5138 32.1613 54.2027C33.6571 53.9165 34.8287 52.9708 35.4699 52.2132C35.9664 51.6266 35.8934 50.7492 35.3068 50.2527C34.7202 49.7562 33.8428 49.8292 33.3463 50.4158C32.978 50.851 32.3276 51.3365 31.6395 51.4685C31.0818 51.5752 30.2956 51.4982 29.3601 50.4085Z" fill="#1A1A1A"/>
</svg>
