<svg width="75" height="86" viewBox="0 0 75 86" fill="none" xmlns="http://www.w3.org/2000/svg">
<path d="M36.0078 7.28858C35.155 9.24525 34.5517 12.8968 34.2616 15.3146C34.1932 15.8847 34.458 16.4401 34.9359 16.7586L43.4648 22.4441C43.916 22.7448 44.4915 22.7884 44.9827 22.5593L56.2414 17.3058C56.559 17.1575 56.8283 16.9099 56.9296 16.5745C57.6482 14.1941 56.1723 10.1575 54.9047 7.52985C54.5435 6.78105 53.6649 6.55842 53.0685 7.13752C51.5687 8.59334 49.3873 11.3067 48.0035 13.1157C47.7067 13.5039 47.2478 13.7332 46.7592 13.7332H43.7923C43.0523 13.7332 42.427 13.2036 42.1528 12.5162C41.2424 10.2345 39.2146 8.19154 37.6895 6.96565C37.1126 6.50191 36.3035 6.61012 36.0078 7.28858Z" fill="#CB0B96"/>
<path d="M38.7289 36.5419C31.4249 32.2817 29.5679 19.3902 29.503 11.8554C29.4941 10.8217 30.5162 10.1202 31.4393 10.5855C36.2308 13.0007 38.8221 17.6881 39.5649 20.6592C37.803 12.4377 42.7888 7.05241 46.4832 4.1639C47.2275 3.582 48.3071 3.86099 48.654 4.73989C51.1345 11.0238 50.3657 17.9084 49.5971 21.4951C51.7956 15.4498 56.7796 13.1306 60.1874 12.032C61.1619 11.7178 62.1377 12.4786 62.1155 13.502C61.8112 27.5331 58.3761 34.6795 55.4493 36.5419C48.7611 39.8856 40.6796 37.9352 38.7289 36.5419Z" fill="#FF99E0"/>
<path fill-rule="evenodd" clip-rule="evenodd" d="M45.7664 3.24658C47.1065 2.19895 49.0971 2.6894 49.7377 4.31247C50.1968 5.47541 50.5495 6.65564 50.8148 7.83108C51.3255 7.25546 51.8176 6.72944 52.2577 6.30217C52.8346 5.74204 53.604 5.53505 54.3326 5.70009C55.0444 5.86132 55.6316 6.35523 55.9541 7.02396C56.5895 8.34096 57.284 10.0171 57.7469 11.6946C58.484 11.3823 59.1884 11.1308 59.8305 10.9238C61.6045 10.3518 63.319 11.7432 63.2803 13.5273C63.1263 20.6267 62.1797 26.0427 60.8707 29.9547C59.5783 33.8167 57.876 36.3783 56.075 37.5243L56.0243 37.5565L55.9705 37.5834C52.3835 39.3768 48.464 39.7341 45.2217 39.4791C43.5953 39.3512 42.1159 39.0676 40.9027 38.719C39.745 38.3864 38.747 37.9711 38.0991 37.5222C34.0839 35.1571 31.692 30.5275 30.2848 25.756C28.8602 20.9258 28.372 15.7055 28.339 11.8654C28.3234 10.0551 30.1792 8.64618 31.964 9.54578C32.6258 9.87937 33.2482 10.2526 33.8322 10.6566C34.1303 9.22098 34.5004 7.83392 34.9408 6.8234C35.2485 6.11755 35.8561 5.67072 36.5451 5.55145C37.2119 5.43603 37.8918 5.6338 38.4196 6.05812C39.1564 6.6503 40.0301 7.44331 40.8566 8.38024C42.3519 6.17708 44.1984 4.47257 45.7664 3.24658ZM39.6118 10.5204C38.8016 9.49717 37.8476 8.59162 37.0091 7.91248C36.5608 9.01208 36.1773 10.672 35.8813 12.3346C36.7771 13.1951 37.5468 14.1213 38.1961 15.0583C38.4406 13.3944 38.9462 11.8828 39.6118 10.5204ZM55.6148 12.7454C55.5903 12.6466 55.5646 12.5468 55.5376 12.4459C55.5145 12.3596 55.4906 12.273 55.466 12.1864C55.0514 10.7251 54.4355 9.23617 53.8564 8.03574C53.8516 8.02588 53.8469 8.01725 53.8423 8.00988C53.1139 8.72204 52.2095 9.75073 51.3158 10.826C51.5226 12.6651 51.5476 14.4437 51.4678 16.0716C52.7431 14.6338 54.1876 13.5595 55.6148 12.7454ZM47.2009 5.08124C47.3495 4.96508 47.5181 5.03261 47.5712 5.16733C49.9283 11.1387 49.2081 17.7552 48.4589 21.2512L50.692 21.8931C52.7059 16.3553 57.2601 14.1993 60.5453 13.1403C60.7202 13.0839 60.9574 13.2139 60.9517 13.4767C60.8014 20.4084 59.8782 25.5812 58.662 29.2158C57.4463 32.8487 55.9918 34.7884 54.872 35.5288C51.7855 37.0549 48.3445 37.3887 45.4043 37.1575C43.9306 37.0416 42.6057 36.7853 41.546 36.4808C40.4589 36.1685 39.7356 35.8296 39.4062 35.5944L39.3625 35.5632L39.3161 35.5361C36.0536 33.6332 33.8771 29.7031 32.5187 25.0973C31.1726 20.533 30.6998 15.5401 30.6679 11.8454C30.6669 11.7281 30.7196 11.6595 30.7679 11.6273C30.7926 11.6109 30.8146 11.6048 30.8314 11.6036C30.8449 11.6026 30.8715 11.6031 30.9156 11.6253C35.3374 13.8541 37.7547 18.2181 38.4356 20.9416L40.7041 20.4153C39.086 12.8654 43.6159 7.8843 47.2009 5.08124Z" fill="#1A1A1A"/>
</svg>
