<svg width="75" height="86" viewBox="0 0 75 86" fill="none" xmlns="http://www.w3.org/2000/svg">
<g clip-path="url(#clip0_9800_32998)">
<path d="M6.53635 59.3885C-5.86452 43.2535 7.67132 37.751 16.852 36.1999C17.2806 36.127 17.7122 36.1099 18.1469 36.1347L64.0722 38.8022C68.0485 39.2633 69.7968 39.1344 71.1522 40.6373C73.2296 42.943 71.9798 46.0498 69.4071 47.7856C68.0516 48.6986 67.5734 50.5928 68.505 51.9343C69.7921 53.7865 71.4224 55.5457 72.4704 57.6744C73.2886 59.3388 72.7607 61.351 71.292 62.4828C70.6631 62.9673 70.0762 63.3011 69.4986 63.5619C67.224 64.5898 65.2817 66.7308 66.4043 68.9604C67.0502 70.2444 67.9817 70.9634 68.7301 72.1682C77.5118 86.2925 33.0025 84.0303 11.4054 80.8288C6.33604 80.0758 0.693796 76.41 2.72464 71.704C3.5258 69.847 4.98215 68.2664 6.43076 66.7976C8.45694 64.7435 8.29393 61.6755 6.53635 59.3885Z" fill="white"/>
<path d="M18.213 34.9716L64.14 37.6402L64.1733 37.6417L64.2067 37.6448L66.7843 37.9131C67.5563 37.9929 68.2373 38.0742 68.816 38.1861C70.0743 38.4292 71.1155 38.8578 72.0168 39.857L71.0813 40.7015L71.1526 40.6378L72.0184 39.8585C73.3476 41.3343 73.6202 43.1134 73.1419 44.7514C72.677 46.3434 71.5242 47.7628 70.0594 48.7512C69.1698 49.3504 68.9493 50.5313 69.462 51.2697L69.9441 51.9414C70.436 52.606 70.9563 53.2609 71.5104 54.0035C72.224 54.9598 72.9436 56.0001 73.5149 57.1603L71.4255 58.1883C70.9488 57.2201 70.3292 56.3153 69.6439 55.3969C68.9841 54.5127 68.2037 53.5409 67.5485 52.5979C66.1987 50.6537 66.9349 48.0464 68.7554 46.8196C69.8628 46.0724 70.6215 45.0708 70.9054 44.0994C71.1757 43.174 71.0343 42.2468 70.2868 41.4172C69.833 40.9141 69.3229 40.6558 68.3748 40.4726C67.3331 40.2712 66.0491 40.2012 63.9853 39.9631L18.0796 37.2976C17.7199 37.2771 17.3778 37.2916 17.0485 37.3476C14.8114 37.7256 12.3321 38.3415 10.0708 39.2838C7.80011 40.2302 5.82279 41.4752 4.49707 43.0699C3.20001 44.6301 2.49024 46.5635 2.7822 49.0393C3.07992 51.5626 4.43039 54.7363 7.45981 58.6781C9.4841 61.3125 9.78744 65.0521 7.25966 67.6148C5.80609 69.0886 4.49836 70.5314 3.79353 72.165C3.39395 73.091 3.38657 73.9147 3.6222 74.6578C3.86523 75.4236 4.39216 76.1789 5.17786 76.8806C6.76395 78.297 9.21587 79.3258 11.5764 79.6765C22.3283 81.2704 38.7674 82.627 51.3868 81.8341C57.7386 81.435 62.9348 80.4995 65.9731 78.9002C67.481 78.1064 68.2819 77.24 68.5674 76.365C68.8422 75.5222 68.7313 74.3766 67.741 72.7837L69.7197 71.554C70.9241 73.4914 71.3436 75.3642 70.7811 77.0883C70.2289 78.7804 68.8244 80.0305 67.0572 80.9608C63.5449 82.8095 57.9097 83.7578 51.5324 84.1585C38.6936 84.9651 22.0802 83.5888 11.2352 81.9812C8.52657 81.5788 5.62131 80.3978 3.62675 78.6167C2.62259 77.7198 1.80306 76.6294 1.4009 75.3613C0.991452 74.0701 1.04005 72.67 1.65563 71.2432C2.55312 69.1629 4.15878 67.444 5.60241 65.9803C7.12683 64.4349 7.10361 62.0369 5.61302 60.0973C2.44261 55.9721 0.83506 52.4069 0.469931 49.3123C0.0993746 46.1705 1.02223 43.6068 2.70639 41.5809C4.36196 39.5895 6.71471 38.1596 9.17619 37.1338C11.6468 36.1043 14.3046 35.4511 16.6573 35.0535C17.1841 34.9639 17.7043 34.9426 18.213 34.9716ZM73.5149 57.1603C74.592 59.3513 73.8844 61.956 72.0032 63.4057C71.2973 63.9495 70.6306 64.3268 69.9775 64.6217L69.979 64.6233C68.9808 65.0743 68.1225 65.744 67.6455 66.4579C67.2523 67.0468 67.1383 67.6136 67.3392 68.1895L67.4454 68.4366L67.6516 68.8096C67.8708 69.1676 68.1275 69.4912 68.4249 69.8497C68.8085 70.3122 69.2931 70.8671 69.7197 71.554L67.741 72.7837C67.4194 72.2659 67.0633 71.8562 66.6327 71.3372C66.2153 70.834 65.7488 70.25 65.3636 69.4843C64.5744 67.9167 64.8998 66.3747 65.7093 65.163C66.4915 63.9923 67.7429 63.0773 69.0192 62.5005C69.5211 62.2739 70.0294 61.9853 70.581 61.5605C71.6372 60.7465 71.9847 59.3261 71.4255 58.1883L73.5149 57.1603Z" fill="#1A1A1A"/>
<path d="M57.7298 33.6721C40.5841 21.3286 25.3279 27.8358 16.7186 35.5834C13.6723 38.3253 12.0405 42.5702 13.5326 46.3881C17.5306 56.62 31.3444 59.3868 38.8156 59.3868C49.9045 58.9924 56.8541 54.1342 60.8599 49.026C64.6887 44.1461 62.7634 37.2975 57.7298 33.6721Z" fill="#80CAFF"/>
<path d="M33.8511 25.9424C41.2009 24.8427 49.6054 26.3881 58.4112 32.7275C63.824 36.6264 66.1241 44.2031 61.7773 49.7443C57.5733 55.1051 50.3109 60.1431 38.8577 60.5506L38.8153 59.3649V59.3861L38.8577 60.5506H38.8153C34.9625 60.5505 29.4888 59.8418 24.4368 57.8047C19.3898 55.7695 14.6084 52.3413 12.4479 46.8119C10.7296 42.4147 12.6476 37.6818 15.9398 34.7184C20.3665 30.7347 26.5357 27.0368 33.8511 25.9424ZM57.0496 34.6168C48.7098 28.6129 40.9123 27.2406 34.1953 28.2455C27.4444 29.2557 21.6809 32.6848 17.4985 36.4484C14.6983 38.9688 13.352 42.7259 14.6176 45.9643C16.455 50.6666 20.5801 53.7378 25.3071 55.644C30.0247 57.5463 35.1883 58.2189 38.8062 58.2201C49.512 57.8306 56.1403 53.1576 59.9441 48.3069L60.2398 47.9066C63.0597 43.8449 61.6564 38.2402 57.4772 34.9397L57.0496 34.6168Z" fill="#1A1A1A"/>
<path d="M45.1908 42.3076C46.1552 42.3077 46.9366 43.0893 46.9369 44.0537C46.9369 45.0183 46.1553 45.8006 45.1908 45.8007C44.2261 45.8007 43.4437 45.0183 43.4437 44.0537C43.4439 43.0892 44.2262 42.3076 45.1908 42.3076ZM46.9857 37.6269C47.6993 37.2487 48.5567 37.3807 48.9007 37.9208C49.2446 38.461 48.9461 39.2055 48.2328 39.5839L48.2298 39.5849C48.2286 39.5856 48.227 39.5877 48.2249 39.5888C48.2194 39.5917 48.2092 39.5959 48.1986 39.6015C48.1773 39.6128 48.1465 39.6293 48.1068 39.6503C48.0262 39.693 47.9098 39.7551 47.766 39.831C47.4778 39.9831 47.0785 40.1934 46.6371 40.4248C45.7589 40.885 44.6924 41.4389 43.9925 41.788L43.8568 41.8486C43.1658 42.1273 42.4025 41.9596 42.1009 41.4423C41.7794 40.8904 42.1052 40.1493 42.8294 39.788L44.0365 39.1738C44.4877 38.9405 44.9666 38.6905 45.4066 38.4599C45.8437 38.2308 46.2389 38.0229 46.5248 37.872L46.9544 37.6435C46.9648 37.638 46.9736 37.6336 46.9789 37.6308C46.981 37.6296 46.9825 37.6285 46.9837 37.6279L46.9857 37.6269Z" fill="#1A1A1A"/>
<path d="M31.2466 42.3074C30.2819 42.3074 29.4995 43.0898 29.4995 44.0545C29.4996 45.0192 30.2819 45.8016 31.2466 45.8016C32.2111 45.8014 32.9927 45.019 32.9927 44.0545C32.9927 43.0899 32.2111 42.3076 31.2466 42.3074ZM29.4517 37.6277C28.7381 37.2494 27.8798 37.3806 27.5357 37.9207C27.1918 38.4608 27.4905 39.2053 28.2036 39.5838L28.2076 39.5858C28.2088 39.5865 28.2104 39.5876 28.2124 39.5887C28.218 39.5916 28.2272 39.5967 28.2378 39.6024C28.2591 39.6136 28.2899 39.6302 28.3296 39.6512C28.4102 39.6938 28.5274 39.7558 28.6714 39.8319C28.9596 39.984 29.3589 40.1933 29.8003 40.4246C30.6785 40.8849 31.744 41.4388 32.4439 41.7879L32.5806 41.8494C33.2716 42.128 34.035 41.9595 34.3365 41.4422C34.6575 40.8903 34.331 40.15 33.607 39.7889L32.3999 39.1736C31.9489 38.9404 31.4706 38.6903 31.0308 38.4598C30.5934 38.2306 30.1976 38.0228 29.9117 37.8719L29.482 37.6434C29.4717 37.638 29.4628 37.6344 29.4576 37.6317C29.4555 37.6305 29.4539 37.6284 29.4527 37.6277H29.4517Z" fill="#1A1A1A"/>
<rect x="31.5537" y="48.1094" width="12.5461" height="5.4761" fill="white"/>
<path d="M41.8965 47.0308C44.0043 47.0312 45.7118 48.7393 45.7119 50.8472C45.7118 52.955 44.0043 54.6641 41.8965 54.6646H33.7568C31.6488 54.6644 29.9405 52.9552 29.9404 50.8472C29.9406 48.7392 31.6488 47.0309 33.7568 47.0308H41.8965ZM38.9902 52.8013H40.3203V48.8921H38.9902V52.8013ZM35.332 52.8013H36.6611L36.6621 48.8921H35.332V52.8013ZM33.0029 49.0435C32.298 49.3387 31.8028 50.0354 31.8027 50.8472C31.8028 51.6589 32.2981 52.3547 33.0029 52.6499V49.0435ZM42.6494 52.6499C43.3545 52.3548 43.8505 51.6591 43.8506 50.8472C43.8505 50.0352 43.3546 49.3386 42.6494 49.0435V52.6499Z" fill="#1A1A1A"/>
<path d="M44.2496 36.0181C47.2509 36.0181 49.6839 34.6454 49.6839 32.952C49.6839 31.2585 47.2509 29.8857 44.2496 29.8857C41.2484 29.8857 38.8154 31.2585 38.8154 32.952C38.8154 34.6454 41.2484 36.0181 44.2496 36.0181Z" fill="white"/>
</g>
<defs>
<clipPath id="clip0_9800_32998">
<rect width="74.5263" height="85.3947" fill="white"/>
</clipPath>
</defs>
</svg>
