<svg width="75" height="86" viewBox="0 0 75 86" fill="none" xmlns="http://www.w3.org/2000/svg">
<path d="M18.0694 36.0521C19.9018 30.8663 34.3591 28.2424 41.3589 27.5903C42.178 28.584 43.8167 31.5495 43.8167 35.3535C43.8167 40.1045 58.53 38.1793 59.4346 41.564C60.1583 44.2656 58.0365 46.8274 56.885 47.7745C58.8634 48.0074 63.0639 49.3738 64.04 53.0224C65.0162 56.6711 63.5123 60.3509 62.6383 61.7482C64.6407 63.5803 68.6453 64.4809 68.6453 69.5114C68.6453 73.5327 65.3684 80.4575 56.0308 82.9572C48.5604 84.9601 41.0667 83.1124 38.2534 81.9324C28.7273 83.0969 9.07127 83.1745 6.65631 74.1693C4.24135 65.1485 12.2237 59.0311 16.5168 57.0903C14.4466 56.8574 10.3062 55.2893 10.3062 50.8798C10.3062 46.4703 15.4816 44.9022 18.0694 44.6693C17.3058 43.9551 16.2368 41.2534 18.0694 36.0521Z" fill="#D4693B"/>
<path d="M17.7642 43.1318C19.1941 45.0105 22.8018 48.1313 26.7476 49.7461C28.1414 50.305 28.7379 52.6804 27.52 53.5654L22.9907 56.8574C20.7941 59.2174 16.401 64.7602 16.4009 68.0518C16.4009 79.4015 38.5562 74.1851 38.5562 79.1846C38.5558 82.8795 32.1786 82.7862 29.6187 83.0967L12.5024 80.3174L6.21045 74.4023L7.59814 64.3105L15.7407 57.6494L10.8364 53.8604V47.8369L18.7075 44.6074L17.7642 43.1318ZM62.0757 49.249L64.7261 52.8516L64.2007 60.5215C63.8422 60.8629 62.1261 60.9257 59.2886 62.5713C55.7408 64.605 46.5786 64.7757 46.5786 61.6084C46.5791 58.4412 59.6831 59.2016 59.6831 55.584C59.683 52.6962 58.0424 49.1717 57.2222 47.7744L62.0757 49.249Z" fill="#864E37"/>
<path d="M42.652 35.3534C42.652 34.4131 42.6913 33.4123 42.7005 32.6378C42.7104 31.8082 42.691 31.1199 42.5944 30.5469C42.4987 29.98 42.3404 29.6025 42.1319 29.3415C41.9529 29.1174 41.6776 28.9072 41.1949 28.7562C37.2297 28.7778 32.0671 29.5729 27.6731 30.9851C25.4469 31.7006 23.4649 32.5602 21.9508 33.5248C20.4122 34.505 19.4982 35.5024 19.1669 36.4375C18.294 38.9151 18.1412 40.7213 18.2557 41.9339C18.3738 43.1844 18.7643 43.7242 18.8652 43.8186C19.2005 44.1322 19.3207 44.6141 19.1715 45.0483C19.0222 45.4823 18.6309 45.788 18.1738 45.8291C17.0034 45.9345 15.245 46.3478 13.8176 47.2059C12.4132 48.0503 11.4705 49.2219 11.4705 50.8797C11.4705 52.6577 12.2822 53.8287 13.3355 54.6203C14.4296 55.4424 15.7727 55.835 16.647 55.9334C17.1677 55.9919 17.5855 56.3908 17.6674 56.9083C17.749 57.426 17.4747 57.9356 16.9972 58.1516L16.609 58.3336C14.6255 59.3023 11.9529 61.1373 9.99368 63.6844C7.92688 66.3713 6.68996 69.7895 7.78149 73.8675C8.2731 75.7007 9.65858 77.1675 11.8192 78.3176C13.9865 79.4713 16.8232 80.2427 19.9615 80.7133C26.2313 81.6534 33.415 81.3512 38.1124 80.777L38.264 80.7679C38.4146 80.7692 38.5639 80.8002 38.7037 80.8589C41.3524 81.9698 48.576 83.7503 55.7296 81.8323C64.5731 79.4649 67.4805 72.9901 67.4805 69.5113C67.4805 67.386 66.6685 66.2095 65.6307 65.3113C65.0784 64.8334 64.461 64.4341 63.7945 64.0074C63.2389 63.6516 62.6201 63.2584 62.0796 62.805L61.8522 62.6079L61.7127 62.4547C61.4229 62.0754 61.3902 61.5478 61.6505 61.131L61.8037 60.8718C62.5926 59.4622 63.7215 56.3389 62.9151 53.3239C62.5322 51.8929 61.5071 50.8539 60.2526 50.1231C58.9915 49.3886 57.604 49.0321 56.7485 48.9314C56.2852 48.8766 55.8989 48.5496 55.7675 48.102C55.6364 47.6545 55.785 47.1717 56.1451 46.8753C56.6195 46.4851 57.3333 45.7232 57.8357 44.7799C58.3366 43.8393 58.5696 42.8344 58.3102 41.8657V41.8642C58.3083 41.8569 58.27 41.7287 57.9251 41.5306C57.5753 41.3298 57.0482 41.1398 56.3361 40.965C54.9041 40.6136 53.0709 40.3987 51.1233 40.1235C49.2434 39.8579 47.2459 39.534 45.7088 38.9378C44.2213 38.3608 42.652 37.3134 42.652 35.3534ZM44.981 35.3534C44.981 35.7689 45.2522 36.2625 46.5518 36.7666C47.8014 37.2511 49.5383 37.5473 51.4493 37.8173C53.293 38.0778 55.3099 38.3148 56.891 38.7028C57.6847 38.8976 58.4559 39.1493 59.0835 39.5094C59.7083 39.868 60.3346 40.4188 60.5604 41.2622L60.6362 41.5867C60.9648 43.1974 60.5168 44.7007 59.8917 45.8746C59.6575 46.3145 59.3885 46.7207 59.1123 47.0891C59.8584 47.3297 60.6564 47.6636 61.4246 48.1111C63.0089 49.0339 64.5719 50.5043 65.1652 52.722C66.0816 56.1481 65.0525 59.5296 64.1281 61.4404C64.4001 61.6299 64.7068 61.8257 65.0499 62.0453C65.6972 62.4597 66.4556 62.9447 67.1545 63.5494C68.6195 64.8172 69.8094 66.6061 69.8094 69.5113C69.8094 74.0751 66.1635 81.4488 56.3316 84.0809L56.3331 84.0824C48.7889 86.1051 41.2669 84.367 38.0972 83.1211C33.2655 83.6881 26.0261 83.9777 19.6158 83.0165C16.3476 82.5264 13.2211 81.7016 10.726 80.3737C8.22447 79.0421 6.24723 77.1403 5.53138 74.4709C4.20824 69.5285 5.75472 65.3772 8.14842 62.2652C9.73118 60.2075 11.7 58.5778 13.5129 57.4147C12.9788 57.1663 12.441 56.8617 11.936 56.4822C10.4016 55.3291 9.14156 53.5113 9.14156 50.8797C9.14156 48.1281 10.7882 46.3108 12.6183 45.2105C13.7939 44.5038 15.1032 44.0521 16.2649 43.7868C16.1093 43.3082 15.9948 42.7608 15.9374 42.1522C15.7847 40.5353 16.012 38.389 16.9714 35.6658V35.6642C17.557 34.0071 18.9861 32.6516 20.6999 31.5598C22.4388 30.452 24.6221 29.5199 26.9604 28.7684C31.6359 27.2657 37.1207 26.4258 41.3587 26.4258C41.4602 26.4258 41.5623 26.439 41.6604 26.4652C42.6298 26.7245 43.3975 27.1953 43.9514 27.889C44.4923 28.5662 44.7559 29.3651 44.89 30.1603C45.0231 30.9497 45.0397 31.8111 45.0295 32.6651C45.0187 33.5742 44.981 34.3919 44.981 35.3534Z" fill="#1A1A1A"/>
<path d="M41.1296 60.6089H34.8296L37.9796 55.5339L41.1296 60.6089Z" fill="#FFAFA3"/>
<path d="M41.13 61.7349C41.5163 61.7347 41.8715 61.5057 42.0538 61.1398C42.2359 60.774 42.2161 60.33 42.002 59.9848L38.8511 54.9091C38.6567 54.5964 38.3292 54.4078 37.9791 54.4078C37.629 54.408 37.3014 54.5962 37.1071 54.9091L33.9576 59.9848C33.7432 60.3301 33.7235 60.7738 33.9057 61.1398C34.0881 61.5058 34.443 61.7349 34.8296 61.7349H41.13ZM37.9791 57.5649L39.1718 59.4835H36.7878L37.9791 57.5649Z" fill="#1A1A1A"/>
<path d="M27.3961 50.8875C25.9857 50.8877 24.8424 52.0317 24.8424 53.4422C24.8425 54.8525 25.9858 55.9957 27.3961 55.9959C28.8066 55.9959 29.9506 54.8526 29.9508 53.4422C29.9508 52.0316 28.8067 50.8875 27.3961 50.8875ZM24.7721 44.0437C23.7284 43.4905 22.4734 43.6834 21.9703 44.4734C21.4676 45.2632 21.9049 46.3517 22.9478 46.9051L22.9527 46.907C22.9546 46.908 22.9564 46.9112 22.9596 46.9129C22.9676 46.9171 22.9821 46.9232 22.9976 46.9314C23.0287 46.9479 23.0742 46.9719 23.1324 47.0027C23.2503 47.0651 23.4209 47.1562 23.6314 47.2674C24.0528 47.4898 24.6364 47.7963 25.2818 48.1346C26.5657 48.8074 28.1237 49.6172 29.1471 50.1277L29.3473 50.2166C30.3577 50.6242 31.4738 50.3794 31.9146 49.6228C32.3847 48.8159 31.908 47.7322 30.8492 47.2039L29.0836 46.3055C28.4238 45.9643 27.7239 45.5986 27.0807 45.2615C26.4412 44.9264 25.8629 44.6228 25.4449 44.4021L24.817 44.0681C24.8021 44.0603 24.7895 44.0546 24.7818 44.0506C24.7786 44.0489 24.7768 44.0457 24.775 44.0447L24.7721 44.0437Z" fill="#1A1A1A"/>
<path d="M47.5458 50.8871C48.9563 50.8871 50.1003 52.0304 50.1004 53.4408C50.1004 54.8514 48.9563 55.9955 47.5458 55.9955C46.1353 55.9954 44.992 54.8513 44.992 53.4408C44.9921 52.0304 46.1354 50.8873 47.5458 50.8871ZM50.1708 44.0434C51.2142 43.4903 52.4683 43.6825 52.9715 44.4721C53.4744 45.2619 53.038 46.3513 51.995 46.9047L51.9901 46.9067C51.9882 46.9077 51.9855 46.9098 51.9823 46.9116C51.9743 46.9158 51.9605 46.922 51.9452 46.9301C51.9141 46.9466 51.8686 46.9716 51.8104 47.0024C51.6925 47.0647 51.5219 47.1549 51.3114 47.266C50.8899 47.4885 50.3056 47.7958 49.66 48.1342C48.376 48.8071 46.818 49.6169 45.7948 50.1274L45.5956 50.2162C44.5851 50.6238 43.469 50.3781 43.0282 49.6215C42.5582 48.8145 43.0348 47.7318 44.0936 47.2035L45.8583 46.3051C46.5181 45.964 47.2178 45.5974 47.8612 45.2602C48.5007 44.925 49.0798 44.6215 49.4979 44.4008L50.1258 44.0668C50.1408 44.0589 50.1533 44.0533 50.161 44.0492C50.1641 44.0476 50.1661 44.0454 50.1678 44.0444L50.1708 44.0434Z" fill="#1A1A1A"/>
</svg>
