<svg width="75" height="86" viewBox="0 0 75 86" fill="none" xmlns="http://www.w3.org/2000/svg">
<path d="M38.941 57.1265C21.1487 59.1448 10.716 55.5739 7.72363 53.5401L27.1066 25.8955L38.941 57.1265Z" fill="#FFCD29"/>
<path d="M12.4502 47.4436C14.5996 47.4437 16.3416 49.1861 16.3418 51.3352C16.3418 53.4845 14.5997 55.2277 12.4502 55.2278C10.3006 55.2278 8.55762 53.4846 8.55762 51.3352C8.55786 49.186 10.3008 47.4436 12.4502 47.4436ZM24.1289 47.4436C26.2783 47.4437 28.0203 49.1861 28.0205 51.3352C28.0205 53.4845 26.2784 55.2277 24.1289 55.2278C21.9793 55.2278 20.2363 53.4846 20.2363 51.3352C20.2366 49.186 21.9795 47.4436 24.1289 47.4436ZM36.9629 54.0051L37.5518 53.804C36.9368 54.2076 36.2015 54.4406 35.4092 54.4407C33.2598 54.4407 31.5168 52.7014 31.5166 50.5588C31.5166 48.7269 32.7776 47.1899 34.4766 46.7708L36.9629 54.0051ZM18.0166 38.8743C20.1661 38.8744 21.9082 40.6166 21.9082 42.7659C21.908 44.915 20.1659 46.6573 18.0166 46.6575C15.8671 46.6575 14.1242 44.9151 14.124 42.7659C14.124 40.6165 15.867 38.8743 18.0166 38.8743ZM29.1904 36.9641C31.3398 36.9642 33.0819 38.7065 33.082 40.8557C33.082 43.005 31.3399 44.7472 29.1904 44.7473C27.0408 44.7473 25.2979 43.0051 25.2979 40.8557C25.298 38.7065 27.0409 36.9641 29.1904 36.9641ZM23.1533 30.3948C24.675 30.9242 25.7684 32.3662 25.7686 34.0676C25.7686 36.2131 24.0264 37.9523 21.877 37.968C20.7048 37.968 19.656 37.4402 18.9424 36.6174L23.1533 30.3948Z" fill="#007BE5"/>
<path d="M27.0218 22.7964C27.4591 22.8478 27.8297 23.1422 27.9801 23.556L40.0348 56.728C40.1566 57.0632 40.118 57.4361 39.9302 57.7393C39.7424 58.0425 39.4264 58.2434 39.072 58.2836L37.4055 58.458C29.1781 59.2454 22.5529 58.7819 17.5478 57.8379C12.2408 56.8368 8.6862 55.2818 6.98973 54.0475C6.48672 53.6814 6.36085 52.984 6.70314 52.4646L25.9134 23.3119C26.1556 22.9446 26.5847 22.7451 27.0218 22.7964ZM9.30211 52.7511C10.941 53.6527 13.8208 54.7655 17.98 55.55C22.7861 56.4565 29.2417 56.9117 37.3373 56.1231L26.5836 26.5292L9.30211 52.7511Z" fill="#1A1A1A"/>
<path d="M26.0844 19.9336C26.715 19.8098 27.3281 20.2211 27.4526 20.8516C27.6112 21.6566 27.7455 22.5374 27.8373 23.4932C28.3253 22.8881 28.7524 22.3026 29.1264 21.7451C29.4847 21.212 30.2069 21.0694 30.7407 21.4268C31.2747 21.7851 31.4173 22.509 31.059 23.043C30.5177 23.8498 29.878 24.7078 29.1166 25.5938C29.9222 25.5382 30.7669 25.4472 31.6508 25.3067C32.2858 25.2058 32.8826 25.6396 32.9838 26.2744C33.0846 26.9094 32.6511 27.5055 32.016 27.6065C31.0644 27.7577 30.1533 27.8568 29.2826 27.917C29.7795 28.3333 30.3096 28.7504 30.8783 29.1631C31.3986 29.5408 31.5136 30.2697 31.1362 30.7901C30.7584 31.31 30.0305 31.4252 29.5102 31.0479C28.8758 30.5875 28.285 30.1212 27.7319 29.6553C27.6471 30.3308 27.5401 31.0294 27.3998 31.75C27.277 32.3811 26.6648 32.7926 26.0336 32.6699C25.4027 32.5469 24.9901 31.9367 25.1127 31.3057C25.259 30.5545 25.3692 29.8309 25.4506 29.1348C24.7935 29.6644 24.0838 30.193 23.3139 30.7119C22.7807 31.0713 22.0572 30.9315 21.6977 30.3985C21.3383 29.8653 21.48 29.1417 22.0131 28.7823C22.5322 28.4324 23.02 28.0766 23.4819 27.7217C22.6316 27.6014 21.844 27.4503 21.1196 27.2813C20.4939 27.1348 20.1055 26.5077 20.2514 25.8819C20.3978 25.256 21.0247 24.8666 21.6508 25.0127C22.2569 25.1541 22.9122 25.2831 23.6176 25.3887C23.006 24.5983 22.4849 23.8339 22.0366 23.1123C21.6974 22.5662 21.8646 21.8492 22.4106 21.5098C22.9568 21.1705 23.6747 21.3386 24.0141 21.8848C24.4451 22.5783 24.9513 23.3167 25.5522 24.083C25.4699 23.0634 25.3321 22.1363 25.1674 21.3008C25.0434 20.6702 25.4538 20.0581 26.0844 19.9336Z" fill="#007BE5"/>
</svg>
