<svg width="75" height="86" viewBox="0 0 75 86" fill="none" xmlns="http://www.w3.org/2000/svg">
<path d="M62.2398 41.5885C44.4475 43.6068 34.0148 40.036 31.0225 38.0021L50.4054 10.3575L62.2398 41.5885Z" fill="#FFCD29"/>
<path d="M35.749 31.9056C37.8985 31.9056 39.6413 33.6481 39.6416 35.7972C39.6416 37.9466 37.8986 39.6898 35.749 39.6898C33.5995 39.6897 31.8574 37.9466 31.8574 35.7972C31.8577 33.6481 33.5997 31.9057 35.749 31.9056ZM47.4277 31.9056C49.5772 31.9056 51.3201 33.6481 51.3203 35.7972C51.3203 37.9466 49.5773 39.6898 47.4277 39.6898C45.2782 39.6898 43.5361 37.9466 43.5361 35.7972C43.5364 33.6481 45.2783 31.9057 47.4277 31.9056ZM60.2617 38.4681L60.8506 38.266C60.2356 38.6696 59.5005 38.9027 58.708 38.9027C56.5586 38.9027 54.8156 37.1634 54.8154 35.0209C54.8155 33.1889 56.0765 31.652 57.7754 31.2328L60.2617 38.4681ZM41.3154 23.3363C43.465 23.3363 45.208 25.0786 45.208 27.2279C45.2078 29.3771 43.4649 31.1195 41.3154 31.1195C39.166 31.1195 37.423 29.3771 37.4229 27.2279C37.4229 25.0785 39.1658 23.3363 41.3154 23.3363ZM52.4893 21.4261C54.6387 21.4261 56.3817 23.1685 56.3818 25.3177C56.3818 27.4671 54.6388 29.2094 52.4893 29.2094C50.3397 29.2093 48.5967 27.4671 48.5967 25.3177C48.5968 23.1685 50.3398 21.4262 52.4893 21.4261ZM46.4521 14.8568C47.9739 15.3862 49.0682 16.8282 49.0684 18.5297C49.0684 20.6752 47.3253 22.4144 45.1758 22.4301C44.0036 22.4301 42.9548 21.9023 42.2412 21.0795L46.4521 14.8568Z" fill="#007BE5"/>
<path d="M50.3216 7.25845C50.7589 7.30987 51.1295 7.60428 51.2799 8.01805L63.3346 41.1901C63.4564 41.5252 63.4178 41.8982 63.23 42.2013C63.0422 42.5045 62.7262 42.7054 62.3718 42.7456L60.7053 42.92C52.4779 43.7074 45.8527 43.244 40.8476 42.2999C35.5406 41.2988 31.986 39.7439 30.2895 38.5095C29.7865 38.1435 29.6607 37.4461 30.0029 36.9266L49.2132 7.77395C49.4554 7.40664 49.8845 7.20713 50.3216 7.25845ZM32.6019 37.2132C34.2408 38.1147 37.1206 39.2275 41.2798 40.012C46.086 40.9185 52.5415 41.3737 60.6371 40.5851L49.8834 10.9912L32.6019 37.2132Z" fill="#1A1A1A"/>
<path d="M49.3842 4.39558C50.0146 4.27203 50.6269 4.68324 50.7514 5.31355C50.91 6.11849 51.0443 6.9994 51.1361 7.95515C51.6241 7.35006 52.0512 6.76455 52.4252 6.2071C52.7836 5.67375 53.5066 5.53101 54.0404 5.88874C54.5743 6.24695 54.7167 6.97098 54.3588 7.50495C53.8175 8.31161 53.1777 9.16988 52.4164 10.0557C53.2217 10.0002 54.066 9.90906 54.9496 9.76863C55.5846 9.66768 56.1814 10.1015 56.2826 10.7364C56.3835 11.3714 55.95 11.9675 55.3148 12.0684C54.3636 12.2196 53.4528 12.3188 52.5824 12.379C53.0791 12.7952 53.6086 13.2134 54.1771 13.626C54.6972 14.0038 54.8124 14.7317 54.435 15.252C54.0572 15.7719 53.3293 15.8872 52.809 15.5098C52.1746 15.0494 51.5838 14.5831 51.0307 14.1173C50.9459 14.7928 50.8389 15.4913 50.6986 16.212C50.5757 16.8431 49.9636 17.2556 49.3324 17.1329C48.7015 17.0098 48.2889 16.3986 48.4115 15.7676C48.5578 15.0165 48.668 14.2928 48.7494 13.5968C48.0923 14.1263 47.3825 14.655 46.6127 15.1739C46.0794 15.5332 45.3559 15.3936 44.9965 14.8604C44.6371 14.3273 44.7789 13.6037 45.3119 13.2442C45.8309 12.8944 46.3188 12.5386 46.7807 12.1837C45.9306 12.0634 45.1436 11.9122 44.4193 11.7432C43.7935 11.5968 43.4042 10.9698 43.5502 10.3438C43.6966 9.71794 44.3235 9.3286 44.9496 9.47468C45.5557 9.61611 46.2111 9.7451 46.9164 9.85066C46.3048 9.06031 45.7837 8.29577 45.3353 7.57429C44.9963 7.02812 45.1642 6.31107 45.7103 5.97175C46.2566 5.63274 46.9735 5.80068 47.3129 6.34675C47.7439 7.0403 48.2501 7.77865 48.851 8.54499C48.7687 7.52537 48.6309 6.59829 48.4662 5.76277C48.3422 5.13202 48.7534 4.51987 49.3842 4.39558Z" fill="#007BE5"/>
</svg>
