<svg width="75" height="86" viewBox="0 0 75 86" fill="none" xmlns="http://www.w3.org/2000/svg">
<path d="M52.0643 50.3987C59.3803 50.3987 65.5536 55.2739 67.5285 61.9503C68.929 62.7576 69.8683 64.2326 69.8683 65.925C69.8683 67.1205 69.3963 68.2074 68.6278 69.0303C69.3963 69.8532 69.8683 70.94 69.8683 72.1355C69.8683 73.5484 69.2085 74.8215 68.1729 75.6755C68.2629 76.0326 68.3157 76.4053 68.3157 76.7934C68.3157 79.3708 66.2305 81.4513 63.6578 81.4513C62.807 81.4513 62.012 81.2184 61.3257 80.8147C60.4625 82.3673 58.9657 83.3921 57.2641 83.3921C56.8588 83.3921 56.4645 83.3299 56.0872 83.2212C55.2068 84.277 53.974 84.9447 52.6062 84.9447C51.4231 84.9447 50.3394 84.4478 49.4994 83.6249C48.6594 84.4478 47.5772 84.9447 46.3956 84.9447C45.2125 84.9447 44.1288 84.4478 43.2889 83.6249C42.4489 84.4478 41.3667 84.9447 40.1851 84.9447C38.5968 84.9447 37.1854 84.0442 36.3035 82.6779C35.4201 84.0442 34.0103 84.9447 32.422 84.9447C31.2389 84.9447 30.1552 84.4478 29.3152 83.6249C28.4752 84.4478 27.393 84.9447 26.2114 84.9447C24.5843 84.9447 23.1465 84.0131 22.2693 82.5847C22.0985 82.5537 21.9308 82.5381 21.7632 82.5071C20.9403 83.5318 19.7773 84.1684 18.4824 84.1684C17.1674 84.1684 15.9874 83.5163 15.1629 82.4605C14.5853 82.802 13.9162 83.0039 13.1973 83.0039C11.0531 83.0039 9.31571 81.265 9.31571 79.1224C9.31571 78.1287 9.68833 77.2281 10.297 76.5449C8.81885 76.0015 7.76308 74.5732 7.76308 72.9118C7.76308 72.415 7.85624 71.9492 8.02392 71.5144C6.98055 71.1884 6.21045 70.086 6.21045 68.7662C6.21045 68.5644 6.22754 68.3781 6.26169 68.1762C6.22754 67.9589 6.21045 67.7105 6.21045 67.4776C6.21045 65.9871 6.90913 64.6673 7.99286 63.8133C9.2831 56.2055 15.9098 50.3987 23.8934 50.3987H52.0643Z" fill="white"/>
<path d="M22.501 80.2565C23.134 80.3245 23.7102 80.6414 24.0991 81.1359L24.2537 81.3588L24.4615 81.6621C24.9691 82.3189 25.6148 82.6157 26.2112 82.6158V84.9447C24.5843 84.9446 23.1462 84.0136 22.269 82.5855C22.0982 82.5544 21.9302 82.5377 21.7625 82.5066L22.0673 80.2095C22.2754 80.225 22.3798 80.241 22.501 80.2565Z" fill="#1A1A1A"/>
<path d="M29.3104 83.6286C28.471 84.449 27.3907 84.9447 26.2112 84.9447V82.6158C26.7158 82.6158 27.2331 82.3985 27.691 81.9638L29.3104 83.6286Z" fill="#1A1A1A"/>
<path d="M30.9388 81.9638C31.3968 82.3985 31.9141 82.6157 32.4217 82.6158V84.9447C31.2402 84.9447 30.1574 84.4496 29.318 83.6286L30.9388 81.9638Z" fill="#1A1A1A"/>
<path d="M36.3033 80.349C37.0951 80.349 37.8338 80.7534 38.2623 81.421C38.7901 82.2436 39.5174 82.6157 40.1849 82.6158V84.9447C38.5966 84.9446 37.1852 84.0442 36.3033 82.678C35.4198 84.0442 34.01 84.9447 32.4217 84.9447V82.6158C33.0892 82.6158 33.8149 82.2436 34.3443 81.421L34.5187 81.1829C34.9577 80.6583 35.609 80.3491 36.3033 80.349Z" fill="#1A1A1A"/>
<path d="M43.2841 83.6286C42.4447 84.449 41.3644 84.9447 40.1849 84.9447V82.6158C40.6894 82.6158 41.2067 82.3985 41.6647 81.9638L43.2841 83.6286Z" fill="#1A1A1A"/>
<path d="M44.9125 81.9638C45.3705 82.3985 45.8878 82.6157 46.3954 82.6158V84.9447C45.2139 84.9447 44.1311 84.4496 43.2917 83.6286L44.9125 81.9638Z" fill="#1A1A1A"/>
<path d="M49.4946 83.6286C48.6552 84.449 47.5749 84.9447 46.3954 84.9447V82.6158C46.9 82.6158 47.4173 82.3985 47.8753 81.9638L49.4946 83.6286Z" fill="#1A1A1A"/>
<path d="M51.123 81.9638C51.581 82.3985 52.0983 82.6157 52.6059 82.6158V84.9447C51.4245 84.9447 50.3416 84.4496 49.5022 83.6286L51.123 81.9638Z" fill="#1A1A1A"/>
<path d="M54.295 81.7303C54.8881 81.0161 55.8465 80.7219 56.7362 80.9858C56.91 81.0324 57.0854 81.0631 57.2638 81.0632V83.3921C56.8587 83.3921 56.4644 83.3294 56.0872 83.2208C55.2069 84.2766 53.9738 84.9447 52.6059 84.9447V82.6158C53.1835 82.6158 53.792 82.3358 54.295 81.7303Z" fill="#1A1A1A"/>
<path d="M13.9797 80.4582C14.9198 79.9052 16.1097 80.0745 16.8484 80.8524L16.9909 81.0162L17.1638 81.2163C17.5781 81.6491 18.048 81.8395 18.4829 81.8395V84.1684L18.2373 84.1608C17.0212 84.0853 15.9352 83.4508 15.1623 82.4611C14.5849 82.8025 13.9159 83.0039 13.1973 83.0039V80.675C13.4766 80.675 13.7407 80.5978 13.9797 80.4582Z" fill="#1A1A1A"/>
<path d="M21.758 82.5112C20.9354 83.5329 19.7755 84.1683 18.4829 84.1684V81.8395C18.9717 81.8393 19.5021 81.6064 19.9521 81.048L21.758 82.5112Z" fill="#1A1A1A"/>
<path d="M27.691 81.9638C28.5946 81.0788 30.0352 81.0789 30.9388 81.9638L29.3149 83.6256L27.691 81.9638Z" fill="#1A1A1A"/>
<path d="M41.6647 81.9638C42.5683 81.0788 44.0089 81.0789 44.9125 81.9638L43.2886 83.6256L41.6647 81.9638Z" fill="#1A1A1A"/>
<path d="M47.8753 81.9638C48.7789 81.0788 50.2194 81.0789 51.123 81.9638L49.4992 83.6256L47.8753 81.9638Z" fill="#1A1A1A"/>
<path d="M61.3213 80.8206C60.4575 82.3696 58.9632 83.3921 57.2638 83.3921V81.0632C57.9733 81.0632 58.7646 80.6289 59.2941 79.6819L61.3213 80.8206Z" fill="#1A1A1A"/>
<path d="M7.99203 63.8129L9.43398 65.646C8.88283 66.0807 8.5394 66.7324 8.5394 67.4776C8.5394 67.5472 8.54123 67.6091 8.54546 67.6672L8.56366 67.8355L8.58488 68.0235C8.5982 68.2141 8.58793 68.4089 8.55304 68.5951L6.28323 68.1797L6.26049 68.1842L8.55304 68.5951C8.54528 68.6417 8.5394 68.7043 8.5394 68.7664C8.53943 68.9682 8.6002 69.1236 8.65918 69.2168C8.69038 69.2624 8.71516 69.2856 8.72741 69.2956L8.71831 69.2941C9.33301 69.4805 9.83986 69.9312 10.1208 70.5056C10.4002 71.0798 10.4293 71.747 10.1982 72.3523C10.1283 72.5387 10.092 72.7255 10.092 72.9118C10.092 73.4823 10.4089 73.9939 10.8896 74.2689L11.1064 74.372L11.3672 74.4857C11.9574 74.7885 12.3928 75.3344 12.5559 75.9868C12.7419 76.7318 12.548 77.5231 12.0374 78.0974L10.2982 76.5463L10.2967 76.5523L12.0374 78.0974C11.7889 78.3769 11.6447 78.7342 11.6447 79.1224C11.6447 79.9763 12.3402 80.675 13.1973 80.675V83.0039C11.0531 83.0039 9.31571 81.265 9.31571 79.1224C9.31571 78.1287 9.6881 77.2279 10.2967 76.5448C8.81876 76.0013 7.76308 74.5731 7.76308 72.9118C7.76308 72.415 7.85619 71.9486 8.02387 71.5139C7.0457 71.2081 6.30782 70.2204 6.21955 69.0106L6.21045 68.7664C6.21045 68.5647 6.22788 68.3783 6.262 68.1766C6.22784 67.9592 6.21045 67.7105 6.21045 67.4776C6.21045 65.9872 6.90847 64.6668 7.99203 63.8129Z" fill="#1A1A1A"/>
<path d="M22.0673 80.2095L21.7625 82.5066L19.9521 81.048C20.4629 80.4115 21.2631 80.1009 22.0673 80.2095Z" fill="#1A1A1A"/>
<path d="M62.4949 78.8115C62.8442 79.0134 63.2386 79.1224 63.6578 79.1224V81.4513C62.8082 81.4513 62.0145 81.2186 61.3289 80.816L62.4949 78.8115Z" fill="#1A1A1A"/>
<path d="M65.9868 76.7934C65.9868 76.7079 65.9808 76.6184 65.9686 76.525L65.9125 76.2339L65.8776 76.0702C65.7359 75.2513 66.0428 74.4131 66.6918 73.8747L68.1717 75.6744L68.1732 75.676C68.2632 76.0329 68.3157 76.4055 68.3157 76.7934C68.3157 79.3708 66.2305 81.4513 63.6578 81.4513V79.1224C64.9434 79.1224 65.9868 78.0821 65.9868 76.7934Z" fill="#1A1A1A"/>
<path d="M60.7087 78.5796C61.3111 78.4088 61.9546 78.4856 62.4949 78.8115L61.3258 80.8145L59.2941 79.6819C59.5983 79.1387 60.1082 78.735 60.7087 78.5796Z" fill="#1A1A1A"/>
<path d="M67.5394 72.1355C67.5394 71.5766 67.3212 71.048 66.9253 70.6132C66.0916 69.7282 66.0916 68.3323 66.9253 67.4473C67.3212 67.0126 67.5394 66.4839 67.5394 65.925C67.5394 65.2319 67.204 64.5745 66.6206 64.1298L66.3567 63.9539L66.1702 63.8341C65.752 63.5366 65.4421 63.1054 65.2954 62.6029L67.5227 61.9524L67.5258 61.9449C67.5263 61.9468 67.5282 61.949 67.5288 61.9509C68.929 62.7584 69.8683 64.2328 69.8683 65.925C69.8683 67.1205 69.3965 68.2074 68.6281 69.0303C69.3965 69.8531 69.8683 70.9401 69.8683 72.1355C69.8683 73.5466 69.2095 74.8175 68.1762 75.6714L66.6918 73.8747C67.2321 73.4244 67.5394 72.8032 67.5394 72.1355Z" fill="#1A1A1A"/>
<path d="M52.7469 50.4123C59.7591 50.7045 65.6099 55.4785 67.5258 61.9418L65.2954 62.6029C63.603 56.8893 58.3185 52.7278 52.0646 52.7276H23.8929C17.0648 52.7279 11.3932 57.6959 10.2891 64.201C10.1929 64.7755 9.88735 65.2889 9.43398 65.646L7.99203 63.8129C9.28248 56.2054 15.9097 50.3989 23.8929 50.3987H52.0646L52.7469 50.4123Z" fill="#1A1A1A"/>
<path d="M36.8703 30.2144C52.6264 30.2144 64.9574 41.9056 70.8077 48.7217C73.3044 51.6251 73.8105 55.6309 72.587 59.264L71.7393 61.7793C70.6695 64.9622 67.2724 66.7012 64.1314 65.5367C55.2845 62.2296 45.9858 57.8823 37.1078 57.8823C29.2608 57.8823 19.515 62.5091 10.7938 65.7075C7.78638 66.8099 4.5476 65.1951 3.38623 62.2141L2.26523 59.3262C0.839916 55.662 1.21565 51.532 3.72781 48.5198C9.41821 41.6727 21.2726 30.2144 36.8703 30.2144Z" fill="#681ABB"/>
<path d="M59.6387 38.3459C60.7509 39.1496 61.8087 39.9792 62.8115 40.8147C63.1222 42.149 63.43 43.6615 63.71 45.1467C64.6117 49.9366 64.0565 54.9001 62.376 59.0022L60.3018 64.0432C59.4375 63.7043 58.5695 63.3634 57.6992 63.0237L59.7891 57.9417C61.2631 54.3434 61.7664 49.9294 60.9639 45.6653L60.5186 43.4016C60.0697 41.2312 59.6202 39.4016 59.2568 38.5002L59.6387 38.3459ZM8.02441 43.8284C8.48116 44.1443 8.9423 44.4706 9.39355 44.7991C12.2207 46.8577 14.0093 49.9902 14.7227 53.4553L16.7217 63.1907L13.9844 63.7522L11.9863 54.0178C11.4265 51.2989 10.1027 48.954 8.14746 47.3665L7.74805 47.0579C7.18026 46.6446 6.6072 46.2415 6.05469 45.8665C6.6681 45.203 7.32595 44.521 8.02441 43.8284ZM19.0498 35.2756C20.1572 36.2225 21.3205 37.2746 22.3965 38.2825C24.9433 40.6664 26.3707 43.9919 26.7012 47.553L27.7891 59.3186C26.8877 59.587 25.9775 59.88 25.0625 60.1936L23.9189 47.8108C23.6408 44.8139 22.4563 42.1638 20.4883 40.3215C19.2009 39.1156 17.8007 37.8641 16.5469 36.8235C17.3556 36.2875 18.1907 35.7704 19.0498 35.2756ZM48.8643 32.4612C49.9551 32.8696 51.0186 33.3241 52.0537 33.8157C52.5365 35.9599 53.0617 38.5576 53.5059 41.0325C54.3617 45.8086 53.5436 50.5894 51.5967 54.3616L51.1914 55.1018L48.5186 59.7415C47.5912 59.4596 46.6647 59.1996 45.7402 58.9661L48.7705 53.7073C50.6718 50.41 51.5527 45.9804 50.7549 41.5266C50.1498 38.1554 49.4213 34.682 48.8643 32.4612ZM38.2021 35.1721C40.347 39.4648 41.1792 44.51 40.4873 49.0686L40.3281 49.9739L38.7607 57.8049C38.1459 57.7648 37.5329 57.7424 36.9229 57.7424C36.5906 57.7424 36.2554 57.7533 35.917 57.7698L37.5869 49.427L37.7246 48.6428C38.3232 44.689 37.6038 40.2283 35.7021 36.4221C34.7325 34.4822 33.6809 32.383 32.7314 30.4846C33.7151 30.3565 34.7159 30.2729 35.7334 30.2366C36.5428 31.8557 37.4007 33.5686 38.2021 35.1721Z" fill="white" fill-opacity="0.3"/>
<path d="M36.8701 30.2144C52.626 30.2144 64.9555 41.9044 70.8066 48.7231H70.8081C73.304 51.6282 73.8116 55.6302 72.5867 59.264L71.7406 61.778V61.7795L71.633 62.0721C70.4615 65.0444 67.1943 66.6671 64.1094 65.655V65.6565C63.8726 65.5838 63.6356 65.5068 63.4089 65.4336C63.1795 65.3596 62.9589 65.2881 62.7402 65.2213L62.7281 65.2183L62.716 65.2138L63.0799 64.1084L63.0859 64.0872L62.716 65.2138C54.2168 62.4208 45.2766 59.4975 36.8701 59.4975C32.9545 59.4976 28.6059 60.3658 24.1595 61.5975L24.1579 61.596C20.8025 62.5346 17.3733 63.6607 14.0355 64.7634C12.9603 65.1187 11.8847 65.4791 10.8302 65.8218C7.78325 66.8117 4.54732 65.1901 3.38694 62.2177L4.68636 61.7112L4.47106 61.7946L3.38694 62.2177L3.38543 62.2162L2.26492 59.3292L2.01929 58.6363C0.895472 55.1515 1.37386 51.3482 3.72961 48.5199C9.42065 41.6711 21.2745 30.2145 36.8701 30.2144ZM36.8701 32.5433C22.3862 32.5434 11.1344 43.2504 5.51878 50.0089V50.0104L4.98809 49.5677L4.78188 49.3963L5.51878 50.0104C3.63462 52.2725 3.2656 55.4741 4.43618 58.4847V58.4862L5.55668 61.3716L5.70831 61.7112C6.53665 63.3562 8.40056 64.1627 10.1115 63.6065C11.1589 63.2662 12.2205 62.9116 13.3062 62.5528C16.6403 61.4512 20.119 60.3089 23.5348 59.3535H23.5378C28.0591 58.101 32.6439 57.1686 36.8701 57.1686C45.7193 57.1686 55.0289 60.2363 63.4438 63.0016C63.6749 63.0723 63.9044 63.1458 64.1246 63.2169L64.7932 63.4291L64.8069 63.4337L64.819 63.4382C66.7563 64.0832 68.8603 63.0233 69.533 61.035L70.3791 58.5196L70.5504 57.9601C71.2693 55.3415 70.8663 52.674 69.3768 50.6624L69.0417 50.2409H69.0402C63.2524 43.4956 51.5261 32.5433 36.8701 32.5433Z" fill="#1A1A1A"/>
<path fill-rule="evenodd" clip-rule="evenodd" d="M34.3825 69.7495C34.862 69.3208 35.5981 69.362 36.0268 69.8415C36.918 70.8385 38.4663 70.876 39.4054 69.9229L39.5281 69.7989C39.9802 69.3416 40.7175 69.3374 41.1748 69.7895C41.6322 70.2417 41.6364 70.979 41.1842 71.4363L41.0643 71.5576C41.0641 71.5579 41.0646 71.5573 41.0643 71.5576C39.1822 73.4667 36.0778 73.393 34.2905 71.3937C33.8619 70.9142 33.9031 70.1781 34.3825 69.7495Z" fill="#1A1A1A"/>
<path d="M45.0269 64.5737C46.862 64.5739 48.3491 65.944 48.3491 67.6333C48.3488 69.3224 46.8618 70.6917 45.0269 70.6919C43.1917 70.6919 41.7039 69.3225 41.7036 67.6333C41.7036 65.9439 43.1915 64.5737 45.0269 64.5737Z" fill="#1A1A1A"/>
<path d="M43.6635 67.4093C44.1759 67.4093 44.5912 67.027 44.5912 66.5554C44.5912 66.0837 44.1759 65.7014 43.6635 65.7014C43.1512 65.7014 42.7358 66.0837 42.7358 66.5554C42.7358 67.027 43.1512 67.4093 43.6635 67.4093Z" fill="white"/>
<path d="M29.4995 64.5737C27.6644 64.574 26.1772 65.944 26.1772 67.6333C26.1775 69.3224 27.6646 70.6917 29.4995 70.6919C31.3347 70.6919 32.8225 69.3225 32.8228 67.6333C32.8228 65.9439 31.3348 64.5737 29.4995 64.5737Z" fill="#1A1A1A"/>
<path d="M28.1372 67.4093C28.6495 67.4093 29.0649 67.027 29.0649 66.5554C29.0649 66.0837 28.6495 65.7014 28.1372 65.7014C27.6248 65.7014 27.2095 66.0837 27.2095 66.5554C27.2095 67.027 27.6248 67.4093 28.1372 67.4093Z" fill="white"/>
</svg>
