<svg width="75" height="86" viewBox="0 0 75 86" fill="none" xmlns="http://www.w3.org/2000/svg">
<path d="M33.9918 33.3818C26.2752 33.3818 20.0072 39.1576 19.8597 46.3152C18.7387 45.9891 17.5432 45.8029 16.3026 45.8029C9.87163 45.8029 4.65789 50.6626 4.65789 56.6713C4.65789 58.8916 5.37676 60.9566 6.60489 62.68C2.67673 64.6363 0 68.5179 0 72.9739C0 79.4018 5.56153 84.6187 12.4211 84.6187C12.789 84.6187 13.1523 84.6031 13.5126 84.5721C13.6818 84.6031 13.8557 84.6187 14.0327 84.6187H62.9204C62.9701 84.6187 63.0198 84.6187 63.0679 84.6187C68.5564 84.5255 72.9737 80.3955 72.9737 75.3029C72.9737 70.8003 69.5067 67.0429 64.9015 66.1734C66.0862 64.0463 66.7632 61.6087 66.7632 59.0003C66.7632 50.8489 60.1598 44.2503 52.0132 44.2503C50.622 44.2503 49.2774 44.4521 48.0027 44.8092C47.0742 38.3502 41.1556 33.3818 33.9918 33.3818Z" fill="#DAECDF"/>
<path d="M59.7453 64.7761C63.3256 49.3585 53.6869 46.5327 46.832 45.5545L48.9079 45.0267L54.2831 44.3589C54.8297 44.2813 55.3855 44.359 55.8916 44.5763L60.003 46.3464C60.3663 46.5016 60.6955 46.7191 60.975 46.9985L64.8534 50.8801C65.0894 51.113 65.2866 51.3925 65.4357 51.6875L65.8626 52.5413C65.9449 52.7121 66.0133 52.883 66.0645 53.0538L66.8905 55.864C67.0426 56.3919 67.0566 56.9509 66.9262 57.4788L65.9869 61.3293L65.6391 63.0682C65.3829 64.3569 65.962 65.6611 67.0877 66.3443L68.6403 67.2758C68.94 67.4466 69.2055 67.6796 69.429 67.9435L72.1104 71.1574C72.6616 71.825 72.9131 72.679 72.806 73.533L72.3138 77.4767C72.2377 78.0822 71.9847 78.6566 71.5872 79.1224L69.5113 81.529C68.9213 82.2277 68.0612 82.6158 67.156 82.6158H61.1551C70.0082 76.2966 65.5847 71.2971 61.5417 68.8284C60.166 67.99 59.3804 66.3442 59.7453 64.7761Z" fill="#C3E0CC"/>
<path d="M2.32895 72.9738C2.32895 77.9733 6.70365 82.2896 12.4211 82.2896V84.6186L11.7812 84.6034C5.21892 84.291 0 79.2006 0 72.9738C0 68.5178 2.67671 64.6364 6.60475 62.6801C5.45303 61.0642 4.75033 59.1479 4.66699 57.0851L4.6579 56.6712C4.6579 50.6625 9.8718 45.8028 16.3026 45.8028C16.9463 45.8028 17.5783 45.8491 18.1934 45.9423C18.1929 45.8958 18.1888 45.8493 18.1888 45.8028C18.1888 38.0862 24.8917 31.8291 33.1602 31.8291L33.8516 31.8443C40.9493 32.1458 46.7565 37.0663 47.9178 43.4435C49.428 42.9622 51.0385 42.6975 52.7106 42.6975L53.5142 42.7172C61.7596 43.1355 68.3156 49.9537 68.3158 58.3012C68.3158 61.2045 67.5214 63.9219 66.143 66.2508C70.9525 67.229 74.5263 70.9088 74.5263 75.3028C74.5263 80.442 69.6256 84.6185 63.5791 84.6186V82.2896C68.7058 82.2896 72.1974 78.8272 72.1974 75.3028C72.1974 72.2752 69.6848 69.3402 65.6775 68.5328C64.9395 68.3776 64.3196 67.8816 64.0142 67.1833C63.709 66.5002 63.7562 65.7081 64.1401 65.056C65.3125 63.0842 65.9868 60.7699 65.9868 58.3012C65.9866 50.9729 60.0429 45.0265 52.7106 45.0265C51.2861 45.0265 49.9161 45.2596 48.6319 45.6633C47.9935 45.8649 47.297 45.7877 46.7215 45.4465C46.1456 45.1049 45.7468 44.5296 45.6268 43.862C44.6456 38.4744 39.5387 34.158 33.1602 34.158C26.0302 34.1581 20.5275 39.5052 20.5178 45.7861C20.5183 45.7962 20.5189 45.8093 20.5193 45.8179C20.5202 45.849 20.5219 45.8805 20.5223 45.9271C20.5297 46.6102 20.236 47.263 19.7202 47.7133C19.2045 48.1475 18.5182 48.349 17.8431 48.2561C17.3399 48.1784 16.8248 48.1317 16.3026 48.1317C11.0038 48.1317 6.98684 52.1065 6.98684 56.6712C6.98684 58.3791 7.53771 59.9783 8.50157 61.3291C8.8971 61.888 9.02898 62.5872 8.86395 63.2547C8.69884 63.9064 8.253 64.465 7.64338 64.7755C4.42034 66.3747 2.32895 69.4959 2.32895 72.9738Z" fill="#1A1A1A"/>
<path d="M13.9009 82.2745C13.9894 82.29 14.027 82.2896 14.0343 82.2896V84.6186C13.8565 84.6186 13.6823 84.6026 13.5127 84.5716C13.1532 84.6026 12.7888 84.6186 12.4211 84.6186V82.2896C12.7089 82.2896 13.0076 82.2737 13.3232 82.2426C13.516 82.2271 13.7101 82.2434 13.9009 82.2745Z" fill="#1A1A1A"/>
<path d="M62.9225 84.6186H14.0343V82.2896H62.9225V84.6186Z" fill="#1A1A1A"/>
<path d="M63.5791 82.2896V84.6186L63.3683 84.6171C63.2984 84.6151 63.2286 84.6112 63.1591 84.6034C63.0813 84.6189 63.0023 84.6186 62.9225 84.6186V82.2896H62.9877C63.0695 82.2741 63.1515 82.2745 63.2334 82.2745C63.381 82.29 63.4828 82.2896 63.5791 82.2896Z" fill="#1A1A1A"/>
<path d="M13.1973 69.0923C15.3409 69.0924 17.0781 70.8305 17.0781 72.9741C17.078 75.1177 15.3408 76.8548 13.1973 76.855C11.0536 76.855 9.31557 75.1177 9.31543 72.9741C9.31543 70.8304 11.0535 69.0923 13.1973 69.0923ZM39.5918 69.0923C41.7355 69.0923 43.4736 70.8304 43.4736 72.9741C43.4735 75.1177 41.7354 76.855 39.5918 76.855C37.4481 76.855 35.7101 75.1177 35.71 72.9741C35.71 70.8304 37.4481 69.0923 39.5918 69.0923Z" fill="#9FC1AA"/>
<path d="M30.7361 72.8548C31.3451 72.6494 32.005 72.9766 32.2108 73.5855C32.4164 74.1947 32.0902 74.8563 31.481 75.0621C27.7433 76.3237 24.0371 76.1517 20.3483 75.095C19.73 74.9179 19.3732 74.2726 19.5503 73.6543C19.7276 73.0365 20.3715 72.6789 20.9895 72.8558C24.3307 73.813 27.5414 73.9331 30.7361 72.8548Z" fill="#1A1A1A"/>
<path d="M20.2147 69.458C19.7037 69.4584 19.2902 69.8727 19.2902 70.3838C19.2902 70.8948 19.7037 71.3093 20.2147 71.3095H22.628C23.1391 71.3095 23.5536 70.8949 23.5537 70.3838C23.5537 69.8726 23.1391 69.4581 22.628 69.458H20.2147Z" fill="#1A1A1A"/>
<path d="M31.9406 69.458C32.4515 69.4584 32.8651 69.8727 32.8651 70.3838C32.865 70.8948 32.4516 71.3093 31.9406 71.3095H29.5273C29.0161 71.3095 28.6017 70.8949 28.6016 70.3838C28.6016 69.8726 29.0161 69.4581 29.5273 69.458H31.9406Z" fill="#1A1A1A"/>
</svg>
