<svg width="75" height="86" viewBox="0 0 75 86" fill="none" xmlns="http://www.w3.org/2000/svg">
<path fill-rule="evenodd" clip-rule="evenodd" d="M55.1187 84.0751C56.8375 84.0751 58.4367 83.5627 59.7766 82.6933C61.1165 83.5627 62.7158 84.0751 64.4345 84.0751C69.1514 84.0751 72.974 80.2556 72.974 75.5356C72.974 73.2843 72.103 71.2349 70.6776 69.7133C71.1559 68.642 71.4214 67.462 71.4214 66.2199C71.4214 62.8972 69.5271 60.0248 66.7619 58.6119C66.7635 58.5653 66.7635 58.5188 66.7635 58.4567C66.7635 55.1341 64.8692 52.2617 62.104 50.8488C62.1056 50.8022 62.1056 50.7556 62.1056 50.6935C62.1056 46.7033 59.3543 43.3339 55.6404 42.4179C54.7135 38.6916 51.3567 35.9435 47.3556 35.9435C47.3043 35.9435 47.2531 35.9435 47.2019 35.9435C45.789 33.1799 42.9119 31.2856 39.5924 31.2856C36.2729 31.2856 33.3959 33.1799 31.983 35.9435C31.9317 35.9435 31.8805 35.9435 31.8293 35.9435C27.8281 35.9435 24.4713 38.6916 23.5444 42.4179C19.9734 43.3029 17.292 46.4393 17.0917 50.2432C13.5004 51.2524 10.8687 54.5441 10.8687 58.4567C10.8687 58.5188 10.8687 58.5653 10.8703 58.6119C8.10506 60.0248 6.21083 62.8972 6.21083 66.2199C6.21083 67.462 6.47634 68.642 6.95455 69.7133C5.52924 71.2349 4.6582 73.2843 4.6582 75.5356C4.6582 80.2556 8.48078 84.0751 13.1977 84.0751C14.595 84.0751 15.9148 83.7491 17.0793 83.1436C18.2437 83.7491 19.5635 84.0751 20.9608 84.0751C23.0258 84.0751 24.9185 83.3454 26.395 82.1188C27.8716 83.3454 29.7643 84.0751 31.8293 84.0751C33.8943 84.0751 35.7869 83.3454 37.2635 82.1188C38.74 83.3454 40.6327 84.0751 42.6977 84.0751C45.1446 84.0751 47.3509 83.0504 48.9082 81.4046C50.4655 83.0504 52.6718 84.0751 55.1187 84.0751Z" fill="#F5F5F5"/>
<path d="M59.7765 82.6932L60.4131 81.715C60.0265 81.4666 59.5266 81.4666 59.14 81.715L59.7765 82.6932ZM70.6776 69.7132L69.6156 69.2318C69.4231 69.6665 69.5069 70.1635 69.8267 70.5051L70.6776 69.7132ZM66.7618 58.6118L65.5974 58.5963C65.5896 59.031 65.8365 59.4503 66.2324 59.6522L66.7618 58.6118ZM62.1039 50.8487L60.9395 50.8331C60.9317 51.2679 61.1786 51.6872 61.5745 51.889L62.1039 50.8487ZM55.6403 42.4178L54.5116 42.6974C54.6156 43.1166 54.9417 43.4427 55.3593 43.5359L55.6403 42.4178ZM47.2018 35.9435L46.1646 36.4713C46.3665 36.875 46.7779 37.1235 47.222 37.1079L47.2018 35.9435ZM31.9829 35.9435L31.9627 37.1079C32.4068 37.1235 32.8182 36.875 33.02 36.4713L31.9829 35.9435ZM23.5443 42.4178L23.8254 43.5359C24.243 43.4427 24.5691 43.1166 24.6731 42.6974L23.5443 42.4178ZM17.0916 50.2431L17.4068 51.361C17.8865 51.2213 18.2281 50.8021 18.2545 50.3053L17.0916 50.2431ZM10.8702 58.6118L11.3996 59.6522C11.7956 59.4503 12.0425 59.031 12.0347 58.5963L10.8702 58.6118ZM6.95447 69.7132L7.8053 70.5051C8.12514 70.1635 8.20899 69.6665 8.01646 69.2318L6.95447 69.7132ZM17.0792 83.1435L17.6086 82.1032C17.2764 81.9324 16.882 81.9324 16.5497 82.1032L17.0792 83.1435ZM26.395 82.1187L27.1371 81.2336C26.7055 80.8765 26.0844 80.8765 25.6528 81.2336L26.395 82.1187ZM37.2634 82.1187L38.0055 81.2336C37.5739 80.8765 36.9529 80.8765 36.5212 81.2336L37.2634 82.1187ZM48.9081 81.4046L49.7543 80.5972C49.5354 80.3643 49.228 80.2401 48.9081 80.2401C48.5883 80.2401 48.2809 80.3643 48.0619 80.5972L48.9081 81.4046ZM59.14 81.715C57.9848 82.4758 56.6045 82.9106 55.1187 82.9106V85.2395C57.0703 85.2395 58.89 84.665 60.4131 83.6713L59.14 81.715ZM64.4344 82.9106C62.9486 82.9106 61.5683 82.4758 60.4131 81.715L59.14 83.6713C60.6631 84.665 62.4828 85.2395 64.4344 85.2395V82.9106ZM71.8094 75.5356C71.8094 79.619 68.507 82.9106 64.4344 82.9106V85.2395C69.7941 85.2395 74.1384 80.8921 74.1384 75.5356H71.8094ZM69.8267 70.5051C71.058 71.8248 71.8094 73.5948 71.8094 75.5356H74.1384C74.1384 72.9737 73.1463 70.6448 71.5284 68.9213L69.8267 70.5051ZM70.2568 66.2198C70.2568 67.2911 70.027 68.3157 69.6156 69.2318L71.7411 70.1944C72.2845 68.9834 72.5858 67.6327 72.5858 66.2198H70.2568ZM66.2324 59.6522C68.6235 60.8788 70.2568 63.3629 70.2568 66.2198H72.5858C72.5858 62.4469 70.4323 59.1863 67.2913 57.5715L66.2324 59.6522ZM65.5989 58.4566C65.5989 58.5032 65.5989 58.5497 65.5974 58.5963L67.9263 58.6274C67.9279 58.5808 67.9279 58.5187 67.9279 58.4566H65.5989ZM61.5745 51.889C63.9656 53.1156 65.5989 55.5998 65.5989 58.4566H67.9279C67.9279 54.6837 65.7744 51.4231 62.6334 49.8084L61.5745 51.889ZM60.941 50.6935C60.941 50.74 60.941 50.7866 60.9395 50.8331L63.2684 50.8642C63.27 50.8177 63.27 50.7556 63.27 50.6935H60.941ZM55.3593 43.5359C58.5655 44.3432 60.941 47.2466 60.941 50.6935H63.27C63.27 46.1443 60.143 42.3402 55.9229 41.2844L55.3593 43.5359ZM47.3555 37.1079C50.8085 37.1079 53.7104 39.4834 54.5116 42.6974L56.7706 42.1229C55.718 37.9153 51.9032 34.779 47.3555 34.779V37.1079ZM47.222 37.1079C47.267 37.1079 47.3105 37.1079 47.3555 37.1079V34.779C47.2965 34.779 47.239 34.779 47.18 34.779L47.222 37.1079ZM39.5923 32.45C42.4569 32.45 44.9427 34.0803 46.1646 36.4713L48.2389 35.4156C46.6335 32.2793 43.3652 30.1211 39.5923 30.1211V32.45ZM33.02 36.4713C34.242 34.0803 36.7277 32.45 39.5923 32.45V30.1211C35.8194 30.1211 32.5512 32.2793 30.9457 35.4156L33.02 36.4713ZM31.8292 37.1079C31.8742 37.1079 31.9177 37.1079 31.9627 37.1079L32.0046 34.779C31.9456 34.779 31.8882 34.779 31.8292 34.779V37.1079ZM24.6731 42.6974C25.4743 39.4834 28.3761 37.1079 31.8292 37.1079V34.779C27.2815 34.779 23.4667 37.9153 22.414 42.1229L24.6731 42.6974ZM18.2545 50.3053C18.4269 47.0293 20.7418 44.3122 23.8254 43.5359L23.2617 41.2844C19.2032 42.2936 16.1569 45.8647 15.9287 50.181L18.2545 50.3053ZM12.0331 58.4566C12.0331 55.0874 14.3046 52.2305 17.4068 51.361L16.7764 49.1097C12.6961 50.2587 9.70418 54.0161 9.70418 58.4566H12.0331ZM12.0347 58.5963C12.0331 58.5497 12.0331 58.5032 12.0331 58.4566H9.70418C9.70418 58.5187 9.70419 58.5808 9.70574 58.6274L12.0347 58.5963ZM7.37523 66.2198C7.37523 63.3629 9.00859 60.8788 11.3996 59.6522L10.3408 57.5715C7.19979 59.1863 5.04628 62.4469 5.04628 66.2198H7.37523ZM8.01646 69.2318C7.60501 68.3157 7.37523 67.2911 7.37523 66.2198H5.04628C5.04628 67.6327 5.3475 68.9834 5.89093 70.1944L8.01646 69.2318ZM5.8226 75.5356C5.8226 73.5948 6.57406 71.8248 7.8053 70.5051L6.10363 68.9213C4.48578 70.6448 3.49365 72.9737 3.49365 75.5356H5.8226ZM13.1976 82.9106C9.12505 82.9106 5.8226 79.619 5.8226 75.5356H3.49365C3.49365 80.8921 7.83792 85.2395 13.1976 85.2395V82.9106ZM16.5497 82.1032C15.5452 82.6311 14.4071 82.9106 13.1976 82.9106V85.2395C14.7844 85.2395 16.2842 84.8668 17.6086 84.1836L16.5497 82.1032ZM20.9608 82.9106C19.7513 82.9106 18.6132 82.6311 17.6086 82.1032L16.5497 84.1836C17.8741 84.8668 19.374 85.2395 20.9608 85.2395V82.9106ZM25.6528 81.2336C24.3781 82.2739 22.7447 82.9106 20.9608 82.9106V85.2395C23.3052 85.2395 25.4587 84.4165 27.1371 83.0192L25.6528 81.2336ZM31.8292 82.9106C30.0452 82.9106 28.4118 82.2739 27.1371 81.2336L25.6528 83.0192C27.3312 84.4165 29.4847 85.2395 31.8292 85.2395V82.9106ZM36.5212 81.2336C35.2465 82.2739 33.6132 82.9106 31.8292 82.9106V85.2395C34.1737 85.2395 36.3271 84.4165 38.0055 83.0192L36.5212 81.2336ZM42.6976 82.9106C40.9136 82.9106 39.2803 82.2739 38.0055 81.2336L36.5212 83.0192C38.1996 84.4165 40.3531 85.2395 42.6976 85.2395V82.9106ZM48.0619 80.5972C46.7158 82.0256 44.8107 82.9106 42.6976 82.9106V85.2395C45.4784 85.2395 47.9874 84.0749 49.7543 82.1962L48.0619 80.5972ZM55.1187 82.9106C53.0055 82.9106 51.1004 82.0256 49.7543 80.5972L48.0619 82.1962C49.8288 84.0749 52.3379 85.2395 55.1187 85.2395V82.9106Z" fill="#1A1A1A"/>
<path d="M22.9388 75.1942C23.3409 75.4582 23.8657 75.4426 24.2585 75.1631C24.6529 74.8837 24.8314 74.3867 24.7103 73.921C24.3563 72.5546 24.0117 70.5052 24.0971 68.7508C24.1405 67.8658 24.288 67.1516 24.5271 66.6547C24.7507 66.2045 25.0115 66.0025 25.3298 65.9249C26.3608 65.692 27.5905 66.0957 28.8465 66.903C30.0731 67.7104 31.1227 68.7663 31.6956 69.496C31.9378 69.8065 32.3167 69.9618 32.7048 69.9308C33.093 69.8997 33.4392 69.6823 33.6287 69.3408L37.6158 62.1055C38.3533 60.7702 40.277 60.7702 41.0145 62.1055L45.0017 69.3408C45.1895 69.6823 45.5373 69.8997 45.9255 69.9308C46.3137 69.9618 46.6925 69.8065 46.9347 69.496C47.5076 68.7663 48.5572 67.7104 49.7838 66.903C51.0399 66.0957 52.2695 65.692 53.3005 65.9249C53.6188 66.0025 53.8796 66.2045 54.1032 66.6547C54.3423 67.1516 54.4898 67.8658 54.5333 68.7508C54.6187 70.5052 54.274 72.5546 53.92 73.921C53.7989 74.3867 53.9774 74.8837 54.3718 75.1631C54.7646 75.4426 55.2894 75.4582 55.6916 75.1942C57.0858 74.2626 59.1011 73.1757 60.6926 72.8031C61.5155 72.6168 61.9875 72.6789 62.1971 72.772H62.2002C62.2701 72.8186 62.4936 72.9272 62.4936 73.6569C62.4936 75.3338 61.4627 77.4299 59.952 79.5104C58.6074 81.3735 57.0082 83.0194 55.8453 84.0752H22.7835C21.6222 83.0194 20.023 81.3735 18.6768 79.5104C17.1677 77.4299 16.1367 75.3338 16.1367 73.6569C16.1367 72.9272 16.3603 72.8186 16.4302 72.772H16.4333C16.6429 72.6789 17.1149 72.6168 17.9378 72.8031C19.5292 73.1757 21.5445 74.2626 22.9388 75.1942Z" fill="#009951"/>
<path d="M36.5968 61.542C37.7404 59.472 40.6625 59.4074 41.9173 61.3479L42.0341 61.542V61.5435L46.0157 68.7684L46.0187 68.7699C46.0205 68.7701 46.022 68.77 46.0233 68.7699C46.6661 67.9528 47.8046 66.8115 49.1437 65.93L49.1543 65.924C50.4153 65.1134 51.8717 64.529 53.277 64.7367L53.5575 64.7883L53.5757 64.7928C54.2082 64.9471 54.6752 65.3354 55.01 65.8891L55.1465 66.1362L55.1526 66.1499C55.4871 66.8451 55.6498 67.7351 55.6969 68.6941C55.7784 70.3683 55.5041 72.2423 55.1859 73.6431L55.0464 74.2132L55.048 74.2148L55.0449 74.2132L55.0464 74.2148C55.0496 74.217 55.0533 74.2158 55.0555 74.2163C56.4902 73.2592 58.6381 72.088 60.4276 71.669L60.4352 71.6675C61.2764 71.477 61.9894 71.4676 62.523 71.6523C62.6371 71.6852 62.7461 71.7359 62.846 71.8024C62.8729 71.8196 62.9736 71.8876 63.0613 71.9677C63.192 72.0872 63.3098 72.2372 63.4055 72.4211C63.5884 72.7726 63.6587 73.1892 63.6587 73.6568C63.6587 75.7265 62.4287 78.0821 60.8946 80.1948C59.4913 82.1387 57.8334 83.8432 56.6279 84.9376C56.4137 85.132 56.1347 85.2393 55.8455 85.2394H22.7838C22.4942 85.2394 22.2143 85.131 21.9999 84.9361C20.7959 83.8415 19.1381 82.1363 17.7332 80.1918V80.1903C16.2019 78.0786 14.9722 75.7254 14.9722 73.6568C14.9722 73.1893 15.0411 72.7726 15.2239 72.4211C15.3196 72.2371 15.4388 72.0872 15.5696 71.9677C15.6849 71.8623 15.8219 71.7777 15.7849 71.8024C15.8848 71.7359 15.9937 71.6852 16.1078 71.6523C16.5685 71.493 17.1624 71.4774 17.8576 71.5992L18.1942 71.6675L18.2033 71.669C19.9921 72.0879 22.1376 73.2594 23.5723 74.2163L23.5829 74.2148V74.2132C23.2122 72.7824 22.8408 70.6077 22.934 68.6941C22.9811 67.735 23.1437 66.8452 23.4783 66.1499L23.4843 66.1362C23.8248 65.4509 24.3308 64.9692 25.0537 64.7928L25.0734 64.7883C26.3777 64.4938 27.741 64.9223 28.9625 65.6131L29.4765 65.924L29.4872 65.93C30.8263 66.8115 31.9648 67.9528 32.6076 68.7699H32.6136L36.5968 61.542ZM39.9947 62.6671C39.7 62.1353 38.9311 62.1355 38.6362 62.6671L34.6484 69.9026L34.6469 69.9056C34.2633 70.5972 33.5636 71.03 32.7971 71.0913C32.0413 71.1516 31.2751 70.8483 30.779 70.2134C30.2764 69.5736 29.3219 68.6126 28.2165 67.8829L27.792 67.6267C26.8644 67.1059 26.138 66.9598 25.6389 67.052C25.6237 67.0735 25.6015 67.1092 25.5737 67.1642C25.431 67.4636 25.2995 68.0014 25.2599 68.8078C25.1824 70.4028 25.5004 72.3265 25.8376 73.628L25.8755 73.8023C26.033 74.6799 25.6753 75.5864 24.9324 76.1131L24.9308 76.1116C24.1573 76.6609 23.1131 76.7011 22.3002 76.1677L22.2911 76.1616C20.9379 75.2576 19.0621 74.2628 17.6741 73.9373C17.5339 73.9057 17.4124 73.8861 17.3087 73.8721C17.3829 74.9743 18.0105 76.4361 19.0933 78.0691L19.6194 78.8272L19.621 78.8287C20.7871 80.4426 22.1619 81.8951 23.2418 82.9104H55.3891C56.4697 81.8954 57.844 80.4422 59.0084 78.8287L59.0099 78.8257C60.4157 76.8895 61.2336 75.142 61.3191 73.8721C61.2162 73.886 61.0955 73.9046 60.9567 73.9358C59.5685 74.2611 57.6918 75.2573 56.3383 76.1616L56.3307 76.1677C55.5175 76.7014 54.4723 76.6614 53.6985 76.1116V76.1131C52.9059 75.5514 52.5515 74.5581 52.7933 73.628L52.9176 73.114C53.2034 71.8519 53.4373 70.2039 53.3695 68.8078C53.3298 68.0011 53.1984 67.4635 53.0556 67.1642C53.0278 67.1091 53.0056 67.0734 52.9904 67.052C52.4175 66.9465 51.5446 67.1555 50.4128 67.8829C49.309 68.6117 48.3548 69.5707 47.8519 70.2104L47.8534 70.2119C47.3572 70.8481 46.5888 71.1518 45.8322 71.0913C45.0684 71.0301 44.3643 70.5982 43.9809 69.9011V69.8995L39.9947 62.6671Z" fill="#1A1A1A"/>
<path d="M24.8428 53.0225C26.5577 53.0225 27.9482 54.0654 27.9482 55.3516C27.9482 56.6378 26.5577 57.6806 24.8428 57.6807C23.1278 57.6807 21.7373 56.6378 21.7373 55.3516C21.7373 54.0653 23.1278 53.0225 24.8428 53.0225ZM52.79 53.0225C54.505 53.0225 55.8955 54.0654 55.8955 55.3516C55.8955 56.6378 54.505 57.6806 52.79 57.6807C51.075 57.6807 49.6846 56.6378 49.6846 55.3516C49.6846 54.0653 51.0751 53.0225 52.79 53.0225Z" fill="#FFAFA3"/>
<path d="M41.944 56.0902C41.944 57.3764 40.9013 58.4191 39.6151 58.4191C38.3288 58.4191 37.2861 57.3764 37.2861 56.0902C37.2861 54.8039 38.3288 53.7612 39.6151 53.7612C40.9013 53.7612 41.944 54.8039 41.944 56.0902Z" fill="#FFAFA3"/>
<path d="M40.7795 56.0901C40.7795 55.447 40.2581 54.9256 39.615 54.9256C38.9719 54.9256 38.4505 55.447 38.4505 56.0901C38.4505 56.7332 38.9719 57.2546 39.615 57.2546C40.2581 57.2546 40.7795 56.7332 40.7795 56.0901ZM43.1084 56.0901C43.1084 58.0195 41.5444 59.5835 39.615 59.5835C37.6856 59.5835 36.1216 58.0195 36.1216 56.0901C36.1216 54.1607 37.6856 52.5967 39.615 52.5967C41.5444 52.5967 43.1084 54.1607 43.1084 56.0901Z" fill="#1A1A1A"/>
<path d="M48.8806 50.4105C49.3812 49.8274 50.2598 49.7595 50.8429 50.2601C51.4258 50.7607 51.4918 51.6393 50.9915 52.2224C49.4677 53.9974 47.7059 54.5157 46.0794 54.2046C44.5836 53.9184 43.412 52.9727 42.7708 52.2151C42.2744 51.6285 42.3473 50.7512 42.9339 50.2547C43.5205 49.7582 44.3979 49.8311 44.8944 50.4177C45.2627 50.8529 45.9131 51.3384 46.6012 51.4704C47.1589 51.5772 47.9452 51.5001 48.8806 50.4105Z" fill="#1A1A1A"/>
<path d="M29.3621 50.4105C28.8615 49.8274 27.9829 49.7595 27.3998 50.2601C26.8169 50.7607 26.7509 51.6393 27.2512 52.2224C28.775 53.9974 30.5368 54.5157 32.1633 54.2046C33.6591 53.9184 34.8307 52.9727 35.4718 52.2151C35.9683 51.6285 35.8954 50.7512 35.3088 50.2547C34.7222 49.7582 33.8448 49.8311 33.3483 50.4177C32.9799 50.8529 32.3296 51.3384 31.6415 51.4704C31.0837 51.5772 30.2975 51.5001 29.3621 50.4105Z" fill="#1A1A1A"/>
</svg>
