<svg width="75" height="86" viewBox="0 0 75 86" fill="none" xmlns="http://www.w3.org/2000/svg">
<path fill-rule="evenodd" clip-rule="evenodd" d="M40.1395 35.6855C45.5054 38.2364 49.8812 42.5177 54.6604 47.1938L54.7703 47.3009C56.8176 45.6381 59.6442 44.4363 63.4539 44.4363C72.7147 44.4363 73.637 45.4518 72.9405 45.9595C71.0431 47.5478 67.2485 51.6856 67.2485 56.3978C67.2485 61.1101 71.0431 65.4667 72.9405 67.0566C73.637 67.5643 72.7147 68.5798 63.4539 68.5798C59.6431 68.5798 56.8161 66.8983 54.7686 64.6718C50.3384 70.7177 46.0886 75.077 39.9846 77.2027C40.7673 79.5461 41.7735 81.7753 42.6595 83.5129C42.7378 83.6667 42.7267 83.8421 42.6395 83.9881C42.556 84.1262 42.4366 84.1884 42.3023 84.1837C31.7467 83.8157 25.8861 81.3051 22.1896 78.4203C21.811 78.125 21.4533 77.8244 21.114 77.5199C9.18701 74.5268 0 66.0053 0 55.9584C0 44.8897 11.2657 35.6704 24.0013 33.6587C27.7436 31.3341 33.3249 29.4713 42.3023 29.1583C42.4366 29.1537 42.556 29.2158 42.6395 29.354C42.7268 29.4999 42.7378 29.6754 42.6595 29.8291C41.8309 31.4542 40.8972 33.5092 40.1395 35.6855Z" fill="#F24822"/>
<path d="M25.0795 69.62C9.83147 69.62 6.71606 60.7964 1.55273 57.4474C3.16984 62.6787 5.95989 67.8014 10.9555 71.4244C15.5528 74.7585 22.1764 76.8087 27.9475 76.8087C45.2764 76.8087 49.4061 67.4929 53.1867 62.835C48.0235 64.3876 41.4052 69.62 25.0795 69.62Z" fill="#FFAFA3"/>
<path fill-rule="evenodd" clip-rule="evenodd" d="M41.1819 36.2089C46.0806 38.7992 50.1944 42.8241 54.6604 47.1938L54.7703 47.3009L54.774 47.2979C56.821 45.6366 59.6465 44.4363 63.4539 44.4363C66.9589 44.4363 69.2694 44.5818 70.7498 44.7901C70.8277 44.8011 70.9034 44.8122 70.9767 44.8235C71.4894 44.9025 71.8924 44.9894 72.2038 45.0801C72.2466 45.0925 72.2881 45.1052 72.3275 45.1178L72.9354 45.9526L72.9405 45.9587C72.5441 46.2905 72.0648 46.7345 71.5547 47.2709L71.5208 47.3066C69.5955 49.3412 67.2485 52.6919 67.2485 56.3978C67.2485 60.1159 69.6109 63.6127 71.5398 65.7036L71.5679 65.7341C72.0731 66.2793 72.5475 66.7273 72.9405 67.0566C73.2492 67.2817 73.2399 67.6066 72.3269 67.8985C72.2876 67.9111 72.2465 67.9236 72.2039 67.936C71.8924 68.0267 71.4894 68.1136 70.9767 68.1926C70.9051 68.2036 70.8314 68.2145 70.7554 68.2252C69.2752 68.434 66.9633 68.5798 63.4539 68.5798C60.6175 68.5798 58.3261 67.6482 56.4955 66.2538C55.8666 65.7748 55.2921 65.2411 54.7686 64.6718C54.2935 65.3202 53.8205 65.9492 53.347 66.5581C49.6732 71.2828 45.9733 74.7989 41.075 76.7915C41.8308 79.0632 42.8138 81.252 43.6969 82.984C43.9678 83.516 43.9191 84.117 43.6389 84.5856L43.636 84.5904C43.3509 85.0622 42.8494 85.3678 42.2619 85.3474C31.5309 84.9733 25.4124 82.4124 21.4735 79.3385C20.4449 78.5363 19.565 77.6989 18.7903 76.8562C8.01441 73.3954 0 65.3422 0 55.9584C0 45.645 9.78063 36.9372 21.4177 34.1695C26.2775 30.178 32.3381 28.4683 42.2631 27.9774C42.9992 27.941 43.5559 28.3811 43.8116 28.8886C44.0634 29.3882 44.0846 30.0626 43.6872 30.6243C42.5994 32.162 41.9323 34.0582 41.1819 36.2089ZM27.0838 33.3169C27.7667 33.2734 28.4515 33.2512 29.1368 33.2512C32.8936 33.2512 36.1325 33.9693 39.0642 35.2037C39.6341 33.5665 40.2428 31.8778 41.0935 30.3755C34.929 30.7633 30.5536 31.6766 27.0838 33.3169ZM23.6693 78.068C27.0189 80.4253 32.2109 82.4931 41.0888 82.9649C40.3328 81.3926 39.5307 79.5221 38.8757 77.5581C36.3969 78.2855 33.6154 78.6656 30.4091 78.6656C28.1143 78.6656 25.8555 78.4589 23.6693 78.068ZM67.414 64.1424C67.8562 64.8424 68.3279 65.4946 68.802 66.0879C67.5198 66.1848 65.7804 66.2508 63.4539 66.2508C60.4191 66.2508 58.1813 64.9419 56.483 63.0943C56.0115 62.5819 55.335 62.3071 54.6393 62.3459C53.9437 62.3848 53.3018 62.7325 52.8901 63.2946C49.7331 67.6031 46.8207 70.8218 43.3903 72.9893C40.0144 75.1226 35.977 76.3367 30.4091 76.3367C22.8316 76.3367 15.7185 73.9379 10.5494 70.1386C5.3711 66.3331 2.32895 61.2855 2.32895 55.9584C2.32895 50.6329 5.40687 45.5775 10.4672 41.7627C15.5159 37.9557 22.3087 35.5801 29.1368 35.5801C39.3362 35.5801 45.3069 41.3 53.0317 48.8582L53.1416 48.9669C53.9876 49.7945 55.32 49.855 56.2388 49.1098C57.8674 47.7869 60.1746 46.7653 63.4539 46.7653C65.754 46.7653 67.4802 46.8294 68.7581 46.9243C68.306 47.4782 67.8556 48.0851 67.4311 48.7372C66.1067 50.7711 64.9196 53.4276 64.9196 56.3978C64.9196 59.3587 66.0999 62.0618 67.414 64.1424Z" fill="#1A1A1A"/>
<path d="M72.3275 45.1178C73.239 45.4095 73.2487 45.7337 72.9405 45.9587L72.3275 45.1178Z" fill="#1A1A1A"/>
<path d="M19.9735 53.0899C21.109 53.09 22.0295 54.1321 22.0295 55.3961C22.0294 55.7155 21.9711 55.9499 21.8643 56.133C21.7617 56.3006 21.6136 56.4131 21.423 56.4912C21.216 56.5638 20.9844 56.6053 20.7695 56.6191H19.176C18.9608 56.6052 18.7296 56.564 18.5225 56.4912C18.3321 56.4131 18.1836 56.3006 18.0812 56.133C17.9747 55.95 17.9176 55.7151 17.9175 55.3961C17.9175 54.132 18.8378 53.0899 19.9735 53.0899Z" fill="#1A1A1A"/>
<path d="M7.55286 53.0899C6.41732 53.09 5.49684 54.1321 5.49684 55.3961C5.49693 55.7155 5.55531 55.9499 5.66211 56.133C5.76466 56.3006 5.91281 56.4131 6.10334 56.4912C6.31036 56.5638 6.54194 56.6053 6.75684 56.6191H8.35041C8.5656 56.6052 8.79681 56.564 9.00391 56.4912C9.19425 56.4131 9.34277 56.3006 9.44513 56.133C9.55171 55.95 9.60879 55.7151 9.60889 55.3961C9.60889 54.132 8.68862 53.0899 7.55286 53.0899Z" fill="#1A1A1A"/>
<path fill-rule="evenodd" clip-rule="evenodd" d="M9.91528 57.1465C10.4112 56.737 11.1452 56.8071 11.5546 57.3031C12.7417 58.7407 14.9281 58.7936 16.1829 57.4149L16.3227 57.2612C16.7553 56.7853 17.4918 56.7502 17.9676 57.1828C18.4435 57.6154 18.4786 58.3519 18.0459 58.8278L17.9062 58.9815C15.6971 61.4095 11.8483 61.3166 9.75875 58.7859C9.34928 58.29 9.41936 57.556 9.91528 57.1465Z" fill="#1A1A1A"/>
</svg>
