<svg width="75" height="86" viewBox="0 0 75 86" fill="none" xmlns="http://www.w3.org/2000/svg">
<path d="M38.868 82.8438C68.1747 81.5675 71.6411 60.1955 66.1288 49.3302C60.6165 38.4649 44.9735 35.2339 38.868 35.7649C22.7777 37.5287 17.2038 42.8123 11.4705 51.7384C10.4629 53.3081 9.60877 54.9927 9.0593 56.7752C1.90089 79.9854 25.7343 84.3825 38.868 82.8438Z" fill="#FFA629"/>
<path d="M38.767 34.6046C42.0294 34.3209 47.6472 35.0372 53.1455 37.1898C58.6473 39.3437 64.2315 43.0154 67.1677 48.8027C70.0846 54.5523 70.6176 63.0246 66.5718 70.2514C62.4916 77.5396 53.8889 83.3413 38.9717 84.0037C32.2669 84.7835 22.7665 84.0708 15.7792 80.1025C12.2534 78.1 9.3183 75.2387 7.76591 71.2825C6.21366 67.3263 6.10003 62.4191 7.94634 56.4324C8.53444 54.5247 9.44153 52.7431 10.4906 51.1089C13.3906 46.5938 16.3258 42.8779 20.654 40.0873C24.9796 37.2985 30.5908 35.5011 38.7412 34.6076L38.8671 35.7675L38.8686 35.7645L38.7412 34.6076L38.7549 34.6061L38.767 34.6046ZM52.2964 39.358C47.0836 37.3173 41.8416 36.6798 38.9929 36.9214L38.9944 36.9229C31.0551 37.7933 25.8341 39.5194 21.917 42.0448C18.0027 44.5684 15.2841 47.9568 12.4511 52.3674C11.6055 53.6846 10.8857 55.0656 10.3769 56.5006L10.1722 57.1177C8.43945 62.7359 8.62054 67.0839 9.93413 70.4319C11.2477 73.7792 13.7496 76.2728 16.9286 78.0783C23.3406 81.72 32.3049 82.4398 38.7321 81.6869L38.7746 81.6824L38.817 81.6809L40.1437 81.6081C53.6556 80.7101 61.0556 75.3382 64.5401 69.1143C68.1759 62.6198 67.6858 54.9721 65.0905 49.8565C62.5143 44.7789 57.5203 41.4031 52.2964 39.358Z" fill="#1A1A1A"/>
<path d="M50.4484 72.0048C56.3825 62.9856 55.8459 53.6884 54.4035 46.8832C54.02 45.0744 55.3146 43.3619 56.8575 44.382C60.1619 46.5666 63.2012 52.4323 64.6616 59.09C65.1029 61.1007 65.1088 63.2262 64.2845 65.1142C61.9004 70.5702 56.3963 74.1273 52.2617 75.6473C49.4291 76.6891 48.7895 74.5263 50.4484 72.0048Z" fill="#F79722"/>
<path d="M38.0309 45.0264C40.6034 45.0264 42.6888 44.1574 42.6888 43.0856C42.6888 42.0137 40.6034 41.1448 38.0309 41.1448C35.4585 41.1448 33.373 42.0137 33.373 43.0856C33.373 44.1574 35.4585 45.0264 38.0309 45.0264Z" fill="#14AE5C"/>
<path d="M40.384 63.3435C41.027 63.3437 41.5485 63.865 41.5485 64.508C41.5485 65.151 41.027 65.6723 40.384 65.6725H35.6503C35.0072 65.6724 34.4858 65.1511 34.4858 64.508C34.4858 63.8649 35.0072 63.3435 35.6503 63.3435H40.384Z" fill="#1A1A1A"/>
<path d="M46.7161 56.3869C47.325 56.2253 47.9829 56.5066 48.2754 57.0922C48.568 57.679 48.3972 58.3766 47.9003 58.7656L47.668 58.9104L46.2819 59.6013L47.5681 60.4432L47.7821 60.6164C48.2299 61.0609 48.3204 61.7741 47.9615 62.3225C47.6022 62.871 46.9112 63.0733 46.3247 62.8402L46.0821 62.7139L42.8208 60.5757C42.415 60.3095 42.1811 59.8474 42.2093 59.3629C42.2381 58.8782 42.5249 58.4442 42.9594 58.2275L46.4572 56.4848L46.7161 56.3869Z" fill="#1A1A1A"/>
<path d="M28.3992 56.3869C27.7902 56.2253 27.1324 56.5066 26.8398 57.0922C26.5473 57.679 26.718 58.3766 27.2149 58.7656L27.4473 58.9104L28.8333 59.6013L27.5471 60.4432L27.3331 60.6164C26.8853 61.0609 26.7948 61.7741 27.1538 62.3225C27.513 62.871 28.204 63.0733 28.7905 62.8402L29.0331 62.7139L32.2944 60.5757C32.7002 60.3095 32.9342 59.8474 32.9059 59.3629C32.8772 58.8782 32.5904 58.4442 32.1558 58.2275L28.658 56.4848L28.3992 56.3869Z" fill="#1A1A1A"/>
</svg>
