<svg width="75" height="86" viewBox="0 0 75 86" fill="none" xmlns="http://www.w3.org/2000/svg">
<path fill-rule="evenodd" clip-rule="evenodd" d="M55.1187 84.0751C56.8375 84.0751 58.4367 83.5627 59.7766 82.6933C61.1165 83.5627 62.7158 84.0751 64.4345 84.0751C69.1514 84.0751 72.974 80.2556 72.974 75.5356C72.974 73.2843 72.103 71.2349 70.6776 69.7133C71.1559 68.642 71.4214 67.462 71.4214 66.2199C71.4214 62.8972 69.5271 60.0248 66.7619 58.6119C66.7635 58.5653 66.7635 58.5188 66.7635 58.4567C66.7635 55.1341 64.8692 52.2617 62.104 50.8488C62.1056 50.8022 62.1056 50.7556 62.1056 50.6935C62.1056 46.7033 59.3543 43.3339 55.6404 42.4179C54.7135 38.6916 51.3567 35.9435 47.3556 35.9435C47.3043 35.9435 47.2531 35.9435 47.2019 35.9435C45.789 33.1799 42.9119 31.2856 39.5924 31.2856C36.2729 31.2856 33.3959 33.1799 31.983 35.9435C31.9317 35.9435 31.8805 35.9435 31.8293 35.9435C27.8281 35.9435 24.4713 38.6916 23.5444 42.4179C19.9734 43.3029 17.292 46.4393 17.0917 50.2432C13.5004 51.2524 10.8687 54.5441 10.8687 58.4567C10.8687 58.5188 10.8687 58.5653 10.8703 58.6119C8.10506 60.0248 6.21083 62.8972 6.21083 66.2199C6.21083 67.462 6.47634 68.642 6.95455 69.7133C5.52924 71.2349 4.6582 73.2843 4.6582 75.5356C4.6582 80.2556 8.48078 84.0751 13.1977 84.0751C14.595 84.0751 15.9148 83.7491 17.0793 83.1436C18.2437 83.7491 19.5635 84.0751 20.9608 84.0751C23.0258 84.0751 24.9185 83.3454 26.395 82.1188C27.8716 83.3454 29.7643 84.0751 31.8293 84.0751C33.8943 84.0751 35.7869 83.3454 37.2635 82.1188C38.74 83.3454 40.6327 84.0751 42.6977 84.0751C45.1446 84.0751 47.3509 83.0504 48.9082 81.4046C50.4655 83.0504 52.6718 84.0751 55.1187 84.0751Z" fill="#383838"/>
<path d="M25.603 63.9526C32.2049 64.4649 44.8326 65.0547 50.4966 64.0766C50.9668 63.9992 51.4165 64.3251 51.4556 64.8061C51.904 70.4195 52.8316 79.9282 53.7847 83.9711C51.8757 83.6728 50.1762 82.7452 48.9077 81.4047C47.3505 83.0502 45.1444 84.0746 42.6978 84.0746C40.6328 84.0746 38.7397 83.3452 37.2632 82.1186C35.7867 83.3451 33.8935 84.0746 31.8286 84.0746C29.7639 84.0745 27.8714 83.345 26.395 82.1186C25.5368 82.8315 24.5372 83.374 23.4458 83.7055C23.9233 77.8446 24.6411 68.4493 24.7534 64.7289C24.7674 64.2787 25.1512 63.9215 25.603 63.9526Z" fill="#1E1E1E"/>
<path d="M59.7765 82.6932L60.4131 81.715C60.0265 81.4666 59.5266 81.4666 59.14 81.715L59.7765 82.6932ZM70.6776 69.7132L69.6156 69.2318C69.4231 69.6665 69.5069 70.1635 69.8267 70.5051L70.6776 69.7132ZM66.7618 58.6118L65.5974 58.5963C65.5896 59.031 65.8365 59.4503 66.2324 59.6522L66.7618 58.6118ZM62.1039 50.8487L60.9395 50.8331C60.9317 51.2679 61.1786 51.6872 61.5745 51.889L62.1039 50.8487ZM55.6403 42.4178L54.5116 42.6974C54.6156 43.1166 54.9417 43.4427 55.3593 43.5359L55.6403 42.4178ZM47.2018 35.9435L46.1646 36.4713C46.3665 36.875 46.7779 37.1235 47.222 37.1079L47.2018 35.9435ZM31.9829 35.9435L31.9627 37.1079C32.4068 37.1235 32.8182 36.875 33.02 36.4713L31.9829 35.9435ZM23.5443 42.4178L23.8254 43.5359C24.243 43.4427 24.5691 43.1166 24.6731 42.6974L23.5443 42.4178ZM17.0916 50.2431L17.4068 51.361C17.8865 51.2213 18.2281 50.8021 18.2545 50.3053L17.0916 50.2431ZM10.8702 58.6118L11.3997 59.6522C11.7956 59.4503 12.0425 59.031 12.0347 58.5963L10.8702 58.6118ZM6.95447 69.7132L7.80532 70.5051C8.12516 70.1635 8.20899 69.6665 8.01646 69.2318L6.95447 69.7132ZM17.0792 83.1435L17.6086 82.1032C17.2764 81.9324 16.882 81.9324 16.5497 82.1032L17.0792 83.1435ZM26.395 82.1187L27.1371 81.2336C26.7055 80.8765 26.0844 80.8765 25.6528 81.2336L26.395 82.1187ZM37.2634 82.1187L38.0055 81.2336C37.5739 80.8765 36.9529 80.8765 36.5212 81.2336L37.2634 82.1187ZM48.9081 81.4046L49.7543 80.5972C49.5354 80.3643 49.228 80.2401 48.9081 80.2401C48.5883 80.2401 48.2808 80.3643 48.0619 80.5972L48.9081 81.4046ZM59.14 81.715C57.9848 82.4758 56.6045 82.9106 55.1187 82.9106V85.2395C57.0703 85.2395 58.89 84.665 60.4131 83.6713L59.14 81.715ZM64.4344 82.9106C62.9486 82.9106 61.5683 82.4758 60.4131 81.715L59.14 83.6713C60.6631 84.665 62.4828 85.2395 64.4344 85.2395V82.9106ZM71.8094 75.5356C71.8094 79.619 68.507 82.9106 64.4344 82.9106V85.2395C69.7941 85.2395 74.1384 80.8921 74.1384 75.5356H71.8094ZM69.8267 70.5051C71.058 71.8248 71.8094 73.5948 71.8094 75.5356H74.1384C74.1384 72.9737 73.1463 70.6448 71.5284 68.9213L69.8267 70.5051ZM70.2568 66.2198C70.2568 67.2911 70.027 68.3157 69.6156 69.2318L71.7411 70.1944C72.2845 68.9834 72.5858 67.6327 72.5858 66.2198H70.2568ZM66.2324 59.6522C68.6234 60.8788 70.2568 63.3629 70.2568 66.2198H72.5858C72.5858 62.4469 70.4323 59.1863 67.2913 57.5715L66.2324 59.6522ZM65.5989 58.4566C65.5989 58.5032 65.5989 58.5497 65.5974 58.5963L67.9263 58.6274C67.9279 58.5808 67.9279 58.5187 67.9279 58.4566H65.5989ZM61.5745 51.889C63.9655 53.1156 65.5989 55.5998 65.5989 58.4566H67.9279C67.9279 54.6837 65.7744 51.4231 62.6334 49.8084L61.5745 51.889ZM60.941 50.6935C60.941 50.74 60.941 50.7866 60.9395 50.8331L63.2684 50.8642C63.27 50.8177 63.27 50.7556 63.27 50.6935H60.941ZM55.3593 43.5359C58.5655 44.3432 60.941 47.2466 60.941 50.6935H63.27C63.27 46.1443 60.143 42.3402 55.9229 41.2844L55.3593 43.5359ZM47.3555 37.1079C50.8085 37.1079 53.7104 39.4834 54.5116 42.6974L56.7706 42.1229C55.718 37.9153 51.9032 34.779 47.3555 34.779V37.1079ZM47.222 37.1079C47.267 37.1079 47.3105 37.1079 47.3555 37.1079V34.779C47.2965 34.779 47.239 34.779 47.18 34.779L47.222 37.1079ZM39.5923 32.45C42.4569 32.45 44.9427 34.0803 46.1646 36.4713L48.2389 35.4156C46.6335 32.2793 43.3652 30.1211 39.5923 30.1211V32.45ZM33.02 36.4713C34.242 34.0803 36.7277 32.45 39.5923 32.45V30.1211C35.8194 30.1211 32.5512 32.2793 30.9457 35.4156L33.02 36.4713ZM31.8292 37.1079C31.8742 37.1079 31.9177 37.1079 31.9627 37.1079L32.0046 34.779C31.9456 34.779 31.8882 34.779 31.8292 34.779V37.1079ZM24.6731 42.6974C25.4742 39.4834 28.3761 37.1079 31.8292 37.1079V34.779C27.2815 34.779 23.4667 37.9153 22.414 42.1229L24.6731 42.6974ZM18.2545 50.3053C18.4268 47.0293 20.7418 44.3122 23.8254 43.5359L23.2617 41.2844C19.2032 42.2936 16.1569 45.8647 15.9287 50.181L18.2545 50.3053ZM12.0331 58.4566C12.0331 55.0874 14.3046 52.2305 17.4068 51.361L16.7764 49.1097C12.6961 50.2587 9.70418 54.0161 9.70418 58.4566H12.0331ZM12.0347 58.5963C12.0331 58.5497 12.0331 58.5032 12.0331 58.4566H9.70418C9.70418 58.5187 9.70419 58.5808 9.70574 58.6274L12.0347 58.5963ZM7.37523 66.2198C7.37523 63.3629 9.00862 60.8788 11.3997 59.6522L10.3408 57.5715C7.19979 59.1863 5.04628 62.4469 5.04628 66.2198H7.37523ZM8.01646 69.2318C7.60501 68.3157 7.37523 67.2911 7.37523 66.2198H5.04628C5.04628 67.6327 5.3475 68.9834 5.89093 70.1944L8.01646 69.2318ZM5.8226 75.5356C5.8226 73.5948 6.57409 71.8248 7.80532 70.5051L6.10363 68.9213C4.48578 70.6448 3.49365 72.9737 3.49365 75.5356H5.8226ZM13.1976 82.9106C9.12505 82.9106 5.8226 79.619 5.8226 75.5356H3.49365C3.49365 80.8921 7.83792 85.2395 13.1976 85.2395V82.9106ZM16.5497 82.1032C15.5452 82.6311 14.4071 82.9106 13.1976 82.9106V85.2395C14.7844 85.2395 16.2842 84.8668 17.6086 84.1836L16.5497 82.1032ZM20.9608 82.9106C19.7513 82.9106 18.6132 82.6311 17.6086 82.1032L16.5497 84.1836C17.8741 84.8668 19.374 85.2395 20.9608 85.2395V82.9106ZM25.6528 81.2336C24.3781 82.2739 22.7447 82.9106 20.9608 82.9106V85.2395C23.3052 85.2395 25.4587 84.4165 27.1371 83.0192L25.6528 81.2336ZM31.8292 82.9106C30.0452 82.9106 28.4118 82.2739 27.1371 81.2336L25.6528 83.0192C27.3312 84.4165 29.4847 85.2395 31.8292 85.2395V82.9106ZM36.5212 81.2336C35.2465 82.2739 33.6132 82.9106 31.8292 82.9106V85.2395C34.1737 85.2395 36.3271 84.4165 38.0055 83.0192L36.5212 81.2336ZM42.6976 82.9106C40.9136 82.9106 39.2803 82.2739 38.0055 81.2336L36.5212 83.0192C38.1996 84.4165 40.3531 85.2395 42.6976 85.2395V82.9106ZM48.0619 80.5972C46.7158 82.0256 44.8107 82.9106 42.6976 82.9106V85.2395C45.4784 85.2395 47.9874 84.0749 49.7543 82.1962L48.0619 80.5972ZM55.1187 82.9106C53.0055 82.9106 51.1005 82.0256 49.7543 80.5972L48.0619 82.1962C49.8288 84.0749 52.3379 85.2395 55.1187 85.2395V82.9106Z" fill="#1A1A1A"/>
<path d="M24.8428 53.0225C26.5577 53.0225 27.9482 54.0654 27.9482 55.3516C27.9482 56.6378 26.5577 57.6806 24.8428 57.6807C23.1278 57.6807 21.7373 56.6378 21.7373 55.3516C21.7373 54.0653 23.1278 53.0225 24.8428 53.0225ZM52.79 53.0225C54.505 53.0225 55.8955 54.0654 55.8955 55.3516C55.8955 56.6378 54.505 57.6806 52.79 57.6807C51.075 57.6807 49.6846 56.6378 49.6846 55.3516C49.6846 54.0653 51.0751 53.0225 52.79 53.0225Z" fill="#757575"/>
<path d="M42.81 55.7017H35.8101L39.31 60.9516L42.81 55.7017Z" fill="#FFAFA3"/>
<path d="M42.8107 54.5376C43.24 54.5378 43.6347 54.7747 43.8372 55.1532C44.0395 55.5316 44.0176 55.9909 43.7796 56.348L40.2786 61.5987C40.0626 61.9222 39.6988 62.1173 39.3097 62.1173C38.9207 62.1171 38.5567 61.9224 38.3408 61.5987L34.8414 56.348C34.6032 55.9908 34.5813 55.5318 34.7837 55.1532C34.9864 54.7746 35.3808 54.5376 35.8102 54.5376H42.8107ZM39.3097 58.8513L40.6349 56.8665H37.986L39.3097 58.8513Z" fill="#D9D9D9"/>
<path d="M46.5796 48.4575C48.4147 48.4577 49.9019 49.9456 49.9019 51.7808C49.9016 53.6158 48.4146 55.1028 46.5796 55.103C44.7444 55.103 43.2566 53.6159 43.2563 51.7808C43.2563 49.9454 44.7443 48.4575 46.5796 48.4575Z" fill="#D9D9D9"/>
<path d="M45.2163 51.537C45.7286 51.537 46.144 51.1217 46.144 50.6093C46.144 50.097 45.7286 49.6816 45.2163 49.6816C44.7039 49.6816 44.2886 50.097 44.2886 50.6093C44.2886 51.1217 44.7039 51.537 45.2163 51.537Z" fill="white"/>
<path d="M31.0522 48.4575C29.2171 48.4578 27.73 49.9456 27.73 51.7808C27.7302 53.6157 29.2173 55.1028 31.0522 55.103C32.8874 55.103 34.3753 53.6159 34.3755 51.7808C34.3755 49.9454 32.8876 48.4575 31.0522 48.4575Z" fill="#D9D9D9"/>
<path d="M29.6899 51.537C30.2023 51.537 30.6176 51.1217 30.6176 50.6093C30.6176 50.097 30.2023 49.6816 29.6899 49.6816C29.1776 49.6816 28.7622 50.097 28.7622 50.6093C28.7622 51.1217 29.1776 51.537 29.6899 51.537Z" fill="white"/>
</svg>
