<svg width="75" height="86" viewBox="0 0 75 86" fill="none" xmlns="http://www.w3.org/2000/svg">
<ellipse cx="33.9295" cy="8.59664" rx="8.57496" ry="8.57406" fill="url(#paint0_radial_9800_57980)"/>
<path d="M32.9951 15.7726V12.4204C32.9951 11.7773 33.5165 11.256 34.1596 11.256C34.8028 11.256 35.3242 11.7773 35.3242 12.4204V15.7726C35.324 16.4155 34.8027 16.937 34.1596 16.937C33.5166 16.937 32.9953 16.4155 32.9951 15.7726Z" fill="#E8CD7D"/>
<path d="M27.5082 33.5706C26.7319 32.7943 25.9555 16.4926 26.6935 16.3436C27.4317 16.1945 39.9299 15.0891 40.7063 15.7163C41.4826 16.3435 41.4826 33.1405 40.7063 34.3468C39.9299 35.5532 32.5887 35.3405 27.5082 33.5706Z" fill="#FFF1C2"/>
<path d="M38.2767 14.3639C38.9345 14.3549 39.5273 14.3628 39.9931 14.3957C40.2238 14.4121 40.4517 14.4367 40.6527 14.4761C40.7704 14.4992 41.0585 14.5557 41.326 14.7293L41.4382 14.8112L41.5944 14.9613C41.7294 15.1138 41.8027 15.2661 41.837 15.3418C41.8954 15.4709 41.9374 15.6018 41.9674 15.7133C42.0281 15.9388 42.0754 16.2063 42.1145 16.4865C42.1937 17.0542 42.2563 17.8026 42.3055 18.6546C42.4043 20.3663 42.4526 22.5874 42.4526 24.8148C42.4526 27.0426 42.4041 29.2975 42.3055 31.0796C42.2564 31.9683 42.1937 32.7569 42.116 33.372C42.0773 33.6777 42.0332 33.9603 41.9795 34.1998C41.9359 34.3945 41.8556 34.713 41.6853 34.9776C41.3798 35.452 40.8843 35.6921 40.5314 35.8236C40.1371 35.9705 39.6746 36.0686 39.191 36.1359C38.218 36.2713 36.9913 36.3013 35.6656 36.2375C33.0147 36.1099 29.7947 35.5995 27.1257 34.6698L26.8725 34.5819L26.6844 34.3939C26.5123 34.2217 26.4183 34.0319 26.3736 33.933C26.3202 33.8147 26.2789 33.6926 26.2462 33.5827C26.1806 33.362 26.1238 33.0988 26.0734 32.8201C25.9717 32.2577 25.8777 31.5237 25.7913 30.6929C25.6179 29.0246 25.4699 26.886 25.3698 24.7769C25.2697 22.6686 25.2171 20.5673 25.2363 18.9745C25.2459 18.1836 25.2724 17.4896 25.3258 16.9747C25.3517 16.725 25.3891 16.4678 25.4486 16.2485C25.4769 16.1444 25.5257 15.9851 25.6169 15.8255C25.6822 15.7114 25.9294 15.3101 26.463 15.2023L26.7936 15.1538C27.2473 15.0971 28.0473 15.0173 28.9816 14.934C30.2772 14.8185 31.9422 14.6851 33.6094 14.5762C35.2731 14.4674 36.9544 14.3821 38.2767 14.3639ZM38.3085 16.6927C37.046 16.7101 35.411 16.7926 33.7611 16.9004C32.1146 17.0081 30.4676 17.1396 29.1879 17.2537C28.565 17.3092 28.0316 17.3605 27.6291 17.4023C27.5967 17.8008 27.5719 18.3432 27.5639 19.0034C27.5454 20.5331 27.597 22.5838 27.6958 24.6662C27.7946 26.7482 27.9408 28.8406 28.1083 30.4519C28.1923 31.2603 28.2796 31.9281 28.366 32.4062C28.382 32.4947 28.397 32.5736 28.4115 32.6427C30.7235 33.3762 33.4697 33.8006 35.7778 33.9117C37.0185 33.9714 38.0893 33.9384 38.8695 33.8299C39.2612 33.7753 39.5399 33.7071 39.7157 33.6419C39.7439 33.5057 39.7748 33.3191 39.8051 33.0794C39.8729 32.5426 39.9316 31.8159 39.9795 30.9507C40.075 29.2246 40.1235 27.0152 40.1235 24.8148C40.1235 22.6138 40.0748 20.4414 39.9795 18.7896C39.9316 17.9601 39.8745 17.2835 39.8081 16.808C39.8037 16.7761 39.7973 16.746 39.793 16.717C39.4266 16.6929 38.9225 16.6843 38.3085 16.6927Z" fill="#E8CD7D"/>
<path d="M29.0586 23.884C29.0586 23.5782 29.0528 23.2782 29.0435 22.9849C29.0153 23.0503 28.9866 23.1158 28.954 23.1775C28.8848 23.3084 28.7554 23.5269 28.537 23.7082C28.2833 23.9184 27.8464 24.1175 27.327 23.9689C27.0356 23.8857 26.832 23.723 26.728 23.6293C26.6111 23.5238 26.5154 23.4099 26.4445 23.32C26.3081 23.1471 26.1665 22.9309 26.0745 22.7954C25.998 22.6828 25.9396 22.6074 25.8986 22.5544C25.5056 22.3673 25.2314 21.9709 25.2314 21.5067C25.2318 20.8639 25.7531 20.3423 26.396 20.3423C26.7519 20.3423 27.0249 20.4811 27.186 20.5864C27.2249 20.6119 27.2588 20.6429 27.2936 20.6698C27.3218 20.5806 27.3702 20.4406 27.4453 20.3089C27.5613 20.1056 27.7464 19.8239 28.0033 19.5781C28.2496 19.3425 28.6922 19.0187 29.3043 19.0187L29.5924 19.0399C29.8771 19.0839 30.1465 19.196 30.3824 19.378C30.6784 19.6064 30.8503 19.8923 30.9525 20.1224C31.136 20.5356 31.1971 21.0314 31.227 21.2186C31.3722 22.1269 31.3877 23.0584 31.3877 23.884C31.3877 24.6248 31.3952 25.3107 31.5181 25.7989L31.5787 25.996L31.8396 26.7799C31.9222 27.0336 32 27.2566 32.0882 27.4546C32.0929 27.465 32.0988 27.4748 32.1034 27.4849C32.0921 27.1731 32.0637 26.8313 32.0276 26.4842C31.9833 26.0582 31.9169 25.5259 31.9169 25.1788C31.9169 24.341 31.9029 22.7999 31.9169 21.9267C31.9365 20.7111 32.8496 19.7222 34.1337 19.7222L34.2763 19.7298C34.6006 19.7619 34.8655 19.8949 35.0011 19.9693C35.196 20.0763 35.3794 20.2091 35.5348 20.3362C35.6921 20.4649 35.8475 20.6095 35.9791 20.7562C36.0811 20.8699 36.2724 21.0957 36.3779 21.3793L34.8676 21.9403L35.2861 21.7857L36.3779 21.3793L36.3794 21.3824C36.4252 21.5062 36.4792 21.6297 36.5386 21.769C36.6319 21.4924 36.774 21.1223 36.9556 20.7714C37.0846 20.5221 37.2641 20.2224 37.4969 19.9693C37.7031 19.7452 38.1358 19.3569 38.7752 19.3568L38.9784 19.3719C39.4295 19.4418 39.7236 19.7287 39.8214 19.8268C39.9855 19.9912 40.1236 20.184 40.2308 20.3483C40.4496 20.6836 40.6739 21.1086 40.8662 21.4794C41.0722 21.8767 41.2464 22.2214 41.4014 22.4861C41.4606 22.5871 41.5058 22.6543 41.5349 22.6954C41.9286 22.9867 42.1129 23.5032 41.9504 23.9932C41.7476 24.6035 41.0884 24.9343 40.478 24.7316C40.2371 24.6515 40.0671 24.5169 39.9746 24.4344C39.8732 24.3439 39.7914 24.2482 39.7289 24.1691C39.6044 24.0112 39.4895 23.8301 39.3923 23.6642C39.1978 23.3322 38.984 22.9102 38.7979 22.5513C38.7851 22.5266 38.7711 22.5027 38.7585 22.4785C38.7279 22.5671 38.7036 22.6385 38.6918 22.6817C38.6695 22.7633 38.4745 23.592 38.196 24.2358C38.1226 24.4052 38.0314 24.5916 37.92 24.7664C37.8172 24.9277 37.6501 25.1561 37.3984 25.3335C37.1168 25.5318 36.67 25.6984 36.158 25.5412C35.711 25.4039 35.4394 25.0836 35.2907 24.8604C35.0903 24.5601 34.9683 24.253 34.8843 24.0099C34.8422 23.888 34.8045 23.7661 34.7736 23.6672C34.7407 23.562 34.7146 23.4779 34.6872 23.4004L34.4688 22.8591C34.4 22.6987 34.3221 22.5101 34.2459 22.3148C34.2395 23.1798 34.2459 24.4081 34.2459 25.1788C34.2459 25.3664 34.2864 25.6993 34.343 26.2432C34.3935 26.7292 34.4495 27.3325 34.437 27.8912C34.4307 28.1723 34.4066 28.4749 34.3445 28.7661C34.2845 29.0474 34.1733 29.3951 33.9427 29.7046C33.6892 30.0443 33.3072 30.3136 32.8115 30.3868C32.357 30.4539 31.9314 30.3378 31.5818 30.1806V30.1791L31.2679 30.0139C30.5818 29.5903 30.1973 28.9328 29.9608 28.4022C29.8214 28.0892 29.7124 27.7725 29.6242 27.5016C29.529 27.2093 29.4651 26.9993 29.3922 26.8011L29.277 26.4266C29.0427 25.53 29.0586 24.4938 29.0586 23.884Z" fill="#E8CD7D"/>
<path d="M31.3919 4.65758L32.3926 4.0614C32.1477 3.64997 31.6757 3.43108 31.2031 3.50871C30.7304 3.58634 30.3536 3.94494 30.2533 4.41381L31.3919 4.65758ZM31.3919 9.84928L32.4288 9.31834L32.281 9.02956L32.0049 8.85875L31.3919 9.84928ZM33.6054 5.30967C33.2154 5.1746 32.8227 4.78488 32.3926 4.0614L30.3913 5.25376C30.8854 6.08282 31.6394 7.09354 32.8435 7.51118L33.6054 5.30967ZM30.2533 4.41381C30.1715 4.79573 29.9935 6.04711 29.9216 7.25499C29.8854 7.85893 29.8724 8.50632 29.9232 9.05126C29.9482 9.3214 29.9929 9.61639 30.0809 9.88808C30.1544 10.1132 30.3308 10.5619 30.779 10.8382L32.0049 8.85875C32.2808 9.02953 32.3238 9.25312 32.2963 9.16928C32.2835 9.12892 32.2597 9.02487 32.2421 8.83701C32.2077 8.4644 32.213 7.95517 32.2465 7.39315C32.3137 6.266 32.4805 5.13578 32.5306 4.90135L30.2533 4.41381ZM30.3551 10.3787C30.7809 11.2109 31.6501 11.6813 32.3524 11.9111C33.0792 12.1486 33.9768 12.2464 34.7442 12.0182L34.0826 9.78565C33.9066 9.83843 33.5143 9.83998 33.0764 9.69714C32.8736 9.63038 32.7055 9.54654 32.5851 9.46271C32.4605 9.37576 32.4283 9.31679 32.4288 9.31834L30.3551 10.3787ZM34.7442 12.0182C35.5698 11.7744 36.1938 11.2047 36.599 10.5821C37.0038 9.96109 37.245 9.20652 37.245 8.46285H34.9159C34.9159 8.72212 34.8252 9.03884 34.6473 9.31209C34.47 9.58378 34.2605 9.73286 34.0826 9.78565L34.7442 12.0182ZM37.245 8.46285C37.245 7.83562 37.0448 7.29069 36.695 6.85131C36.3633 6.43368 35.9398 6.162 35.5615 5.97725C35.1822 5.7925 34.7839 5.66365 34.4524 5.56429C34.0818 5.4525 33.8413 5.39195 33.6054 5.30967L32.8435 7.51118C33.1382 7.61209 33.52 7.71609 33.7843 7.79527C34.0878 7.88531 34.3372 7.97226 34.5392 8.07007C34.7423 8.16943 34.8338 8.25173 34.8718 8.29986C34.8917 8.3247 34.9159 8.35728 34.9159 8.46285H37.245Z" fill="#F79722"/>
<defs>
<radialGradient id="paint0_radial_9800_57980" cx="0" cy="0" r="1" gradientTransform="matrix(2.87661 7.7451 -7.74591 2.87631 33.9295 8.59664)" gradientUnits="userSpaceOnUse">
<stop stop-color="#FFD755" stop-opacity="0.8"/>
<stop offset="0.865385" stop-color="#FFD755" stop-opacity="0"/>
</radialGradient>
</defs>
</svg>
