<svg width="75" height="86" viewBox="0 0 75 86" fill="none" xmlns="http://www.w3.org/2000/svg">
<path fill-rule="evenodd" clip-rule="evenodd" d="M46.5745 33.9157C46.8974 29.4193 43.6679 24.7676 40.4183 24.7676C37.24 24.7676 32.9128 29.5731 30.1228 33.363H21.8659C13.3792 33.363 1.03418 38.0722 1.03418 47.5122C1.03418 61.0992 9.16535 71.9148 21.8659 71.9148H30.3246C33.1178 77.9779 37.3146 85.3948 40.4183 85.3948C43.6369 85.3948 47.18 79.2029 46.7732 71.4444C54.8065 70.1589 60.5528 65.7587 60.5528 52.639C60.5528 40.28 54.7134 35.4109 46.5745 33.9157Z" fill="#7DA0C7"/>
<path opacity="0.7" d="M47.4686 47.9982C48.4344 58.6461 43.8976 67.7601 26.7115 69.3204C14.2812 70.4492 3.42203 62.7326 2.45474 52.0862C1.489 41.4383 9.48661 51.4465 21.917 50.3193C34.3473 49.1906 46.5014 37.3518 47.4686 47.9982Z" fill="#AFD8FF"/>
<path d="M40.4571 53.8375C41.1651 61.6348 37.5102 68.3406 23.8533 69.5796C13.9739 70.477 5.3925 64.8829 4.6845 57.0856C3.9765 49.2867 10.2724 56.5779 20.1518 55.6805C30.0297 54.783 39.7491 46.0402 40.4571 53.8375Z" fill="#D3EDFF"/>
<path fill-rule="evenodd" clip-rule="evenodd" d="M46.7762 71.5151C47.1581 79.2407 43.6262 85.3944 40.4186 85.3948L40.1259 85.3735C37.0678 84.937 33.0629 77.8485 30.3583 71.9866H21.8658L21.2745 71.979C9.10956 71.6539 1.28542 61.2966 1.04024 48.2195L1.03418 47.5857C1.03418 38.4408 12.6195 33.7336 21.0592 33.4483L21.8658 33.4347H29.8094L30.3477 32.6083C33.1396 28.4081 37.3239 23.2895 40.4186 23.2895L40.7309 23.3062C43.9597 23.6345 47.0539 28.9659 46.5396 33.982C54.6956 35.4694 60.5527 40.3362 60.5527 52.7106L60.5361 53.9145C60.1917 66.1018 54.5585 70.2682 46.7762 71.5151ZM37.1981 79.6421C35.5244 77.2031 33.8459 73.9848 32.4735 71.0117L31.8488 69.6577H21.8658C10.8579 69.6577 3.36339 60.3325 3.36313 47.5857C3.36313 44.0395 5.65076 41.1374 9.419 38.9947C13.1794 36.8569 17.9828 35.7636 21.8658 35.7636H31.0831L31.7699 34.6916C33.1129 32.5956 34.8508 30.1922 36.6037 28.3446C37.4823 27.418 38.3077 26.6925 39.0357 26.2128C39.7981 25.7113 40.2462 25.6184 40.4186 25.6184C40.8271 25.6187 41.8789 26.0835 42.9173 27.867C43.814 29.407 44.3635 31.4229 44.2547 33.3589L44.2243 33.7455L44.0045 35.8879L46.1227 36.2731C49.8673 36.9562 52.7998 38.361 54.8229 40.7627C56.8459 43.1661 58.2238 46.8805 58.2238 52.7106C58.2237 58.9598 56.8535 62.7224 54.8956 65.0513C52.7517 67.6004 49.5867 68.6608 46.4077 69.2165L44.3487 69.5455L44.4502 71.6303C44.6226 75.1299 43.9016 78.2021 42.8552 80.3214C42.3305 81.3845 41.7629 82.132 41.2631 82.5806C40.7943 83.0025 40.5094 83.0562 40.4337 83.0628L40.4294 83.0613C40.37 83.0409 40.0669 82.9369 39.4952 82.4214C38.8182 81.8112 38.038 80.8687 37.1981 79.6421Z" fill="#1A1A1A"/>
<path d="M34.7989 39.1729C35.9287 39.2214 37.2113 39.5344 38.3454 40.3707C39.4945 41.2184 40.398 42.5345 40.8623 44.4146L40.9912 45.0089C41.54 47.931 40.6503 50.1276 39.3825 51.5879L39.2233 51.7607C37.5482 53.4935 35.0045 53.2474 33.2265 52.6508L30.3912 51.7031C29.7814 51.4991 29.452 50.8391 29.6558 50.2293C29.8598 49.6197 30.5199 49.2904 31.1296 49.494L33.9649 50.4431L34.2667 50.5371C35.649 50.9376 36.8121 50.8243 37.4872 50.202L37.6251 50.0595C38.4473 49.1121 39.1185 47.626 38.7002 45.4229L38.6016 44.9725C38.2508 43.5524 37.6223 42.7304 36.9641 42.2448C36.2907 41.7482 35.4892 41.5328 34.7003 41.4988H34.5366C33.7181 41.5312 32.8877 42.0687 32.0939 42.9681L29.7756 45.5942C29.35 46.0761 28.614 46.1212 28.132 45.6958C27.6499 45.2702 27.6034 44.5343 28.0289 44.0522L30.3472 41.426C31.345 40.2956 32.86 39.0897 34.7989 39.1729Z" fill="#1A1A1A"/>
<path d="M21.2454 44.0343C22.1027 44.0343 22.7979 44.8159 22.7981 45.7804C22.7981 46.7451 22.1029 47.5275 21.2454 47.5275C20.388 47.5274 19.6926 46.745 19.6926 45.7804C19.6929 44.816 20.3881 44.0344 21.2454 44.0343ZM22.8411 39.3537C23.4755 38.9754 24.2384 39.1073 24.5442 39.6476C24.8496 40.1877 24.5842 40.9322 23.9505 41.3107L23.9465 41.3117C23.9454 41.3124 23.9446 41.3144 23.9426 41.3156C23.9377 41.3185 23.9287 41.3226 23.9192 41.3283C23.9004 41.3395 23.8732 41.3562 23.8382 41.3771C23.7665 41.4198 23.6624 41.4818 23.5344 41.5578C23.2782 41.7099 22.923 41.9201 22.5305 42.1515C21.75 42.6117 20.8029 43.1657 20.1809 43.5148L20.0598 43.5753C19.4457 43.8541 18.7673 43.6863 18.4993 43.1691C18.2135 42.6172 18.503 41.8761 19.1467 41.5148L20.22 40.9005C20.6211 40.6672 21.0467 40.4172 21.4378 40.1867C21.8265 39.9575 22.1778 39.7497 22.4319 39.5988L22.8137 39.3703C22.8229 39.3648 22.8305 39.3604 22.8352 39.3576C22.8369 39.3565 22.8381 39.3553 22.8391 39.3546L22.8411 39.3537Z" fill="#1A1A1A"/>
<path d="M8.84944 44.0339C7.99194 44.0339 7.29671 44.8163 7.29671 45.7809C7.29673 46.7456 7.99196 47.528 8.84944 47.528C9.70687 47.5279 10.4022 46.7456 10.4022 45.7809C10.4022 44.8163 9.70688 44.034 8.84944 44.0339ZM7.25374 39.3542C6.61933 38.9758 5.85648 39.1069 5.55061 39.6472C5.24502 40.1872 5.5107 40.9317 6.14436 41.3102L6.14827 41.3122C6.1493 41.3129 6.15051 41.3141 6.15218 41.3151C6.15708 41.318 6.16614 41.3232 6.17561 41.3288C6.19447 41.34 6.22162 41.3568 6.25667 41.3776C6.32833 41.4203 6.43236 41.4823 6.56038 41.5583C6.81659 41.7104 7.17186 41.9197 7.56429 42.1511C8.34486 42.6113 9.29181 43.1652 9.9139 43.5143L10.035 43.5759C10.6492 43.8546 11.3276 43.686 11.5955 43.1686C11.8812 42.6168 11.5916 41.8766 10.9481 41.5153L9.87483 40.9001C9.47382 40.6668 9.04804 40.4167 8.65706 40.1862C8.26842 39.9571 7.91697 39.7492 7.66292 39.5983L7.28108 39.3698C7.27199 39.3644 7.26424 39.3609 7.2596 39.3581C7.25765 39.3569 7.25678 39.3548 7.25569 39.3542H7.25374Z" fill="#1A1A1A"/>
<path d="M17.5505 49.4541C17.5505 50.7403 16.5078 51.783 15.2215 51.783C13.9353 51.783 12.8926 50.7403 12.8926 49.4541C12.8926 48.1678 13.9353 47.1251 15.2215 47.1251C16.5078 47.1251 17.5505 48.1678 17.5505 49.4541Z" fill="#FFAFA3"/>
<path d="M16.3859 49.4541C16.3859 48.811 15.8646 48.2896 15.2214 48.2896C14.5783 48.2896 14.057 48.811 14.057 49.4541C14.057 50.0972 14.5783 50.6186 15.2214 50.6186C15.8646 50.6186 16.3859 50.0972 16.3859 49.4541ZM18.7149 49.4541C18.7149 51.3835 17.1508 52.9475 15.2214 52.9475C13.2921 52.9475 11.728 51.3835 11.728 49.4541C11.728 47.5248 13.2921 45.9607 15.2214 45.9607C17.1508 45.9607 18.7149 47.5248 18.7149 49.4541Z" fill="#1A1A1A"/>
</svg>
