<svg width="75" height="86" viewBox="0 0 75 86" fill="none" xmlns="http://www.w3.org/2000/svg">
<path d="M46.4843 8.05083C40.6261 7.10378 27.2362 8.05086 21.3781 23.199L18.0645 37.1905C20.5751 35.298 26.3993 34.5606 31.4204 34.5606C48.158 34.5606 53.3184 37.4001 58.2004 37.4001C65.7323 18.4653 52.3424 8.99633 46.4843 8.05083Z" fill="#757575"/>
<path d="M51.8828 35.7816C51.7919 36.0218 51.6957 36.2609 51.5947 36.4984L50.165 35.892C50.2579 35.6735 50.3469 35.4521 50.4307 35.2308L51.8828 35.7816ZM40.0029 33.6039C39.9798 33.8567 39.9578 34.1104 39.9375 34.3636L38.3906 34.2396C38.4115 33.9804 38.4333 33.72 38.457 33.4613L40.0029 33.6039ZM52.75 32.8265C52.6423 33.3271 52.5176 33.8251 52.373 34.3187L50.8818 33.8832C51.0155 33.4268 51.1323 32.9644 51.2324 32.4994L52.75 32.8265ZM26.7383 32.6791C26.7118 32.9241 26.6878 33.1702 26.668 33.4164L25.1211 33.2924C25.142 33.0322 25.1663 32.7721 25.1943 32.5131L26.7383 32.6791ZM40.3467 30.5717C40.2788 31.0746 40.2166 31.5802 40.1592 32.0863L38.6162 31.9105C38.6749 31.3937 38.7384 30.878 38.8076 30.3646L40.3467 30.5717ZM53.1934 29.7924C53.1522 30.301 53.0948 30.8091 53.0215 31.3148L51.4854 31.0922C51.5538 30.6199 51.6059 30.1439 51.6445 29.6664L53.1934 29.7924ZM27.2188 29.7582C27.1118 30.2396 27.0177 30.7242 26.9375 31.2113L25.4062 30.9603C25.4912 30.4446 25.5908 29.931 25.7041 29.4213L27.2188 29.7582ZM40.8164 27.556C40.728 28.0551 40.6451 28.5577 40.5664 29.0619L39.0322 28.8226C39.1126 28.3078 39.1979 27.794 39.2881 27.2845L40.8164 27.556ZM28.0205 26.9076C27.8607 27.3752 27.7145 27.8472 27.5811 28.3217L26.0859 27.9017C26.2272 27.3995 26.3826 26.9004 26.5518 26.4056L28.0205 26.9076ZM53.2646 26.7406C53.2806 27.2484 53.2829 27.7575 53.2715 28.266L51.7188 28.2308C51.7295 27.7514 51.727 27.2704 51.7119 26.7894L53.2646 26.7406ZM41.4111 24.5599C41.3029 25.0542 41.198 25.5533 41.0986 26.0551L39.5762 25.7533C39.6775 25.2414 39.7831 24.7322 39.8936 24.2279L41.4111 24.5599ZM29.1309 24.1615C28.9206 24.6102 28.7226 25.0632 28.5381 25.5199L27.0986 24.9379C27.2936 24.4555 27.5018 23.9769 27.7236 23.5033L29.1309 24.1615ZM53.0205 23.7094C53.0844 24.2105 53.1367 24.7156 53.1777 25.2211L51.6299 25.347C51.5909 24.8661 51.5405 24.3852 51.4795 23.9066L53.0205 23.7094ZM42.124 21.5931C41.996 22.0815 41.8718 22.5762 41.752 23.0746L40.2422 22.7103C40.3645 22.2016 40.4923 21.6973 40.623 21.1986L42.124 21.5931ZM30.5283 21.5482C30.2716 21.9731 30.027 22.4025 29.7949 22.8363L28.4258 22.1039C28.6708 21.646 28.9285 21.1926 29.1992 20.7445L30.5283 21.5482ZM52.5107 20.723C52.6148 21.2144 52.7106 21.7109 52.7959 22.2103L51.2656 22.473C51.1839 21.9947 51.0931 21.5183 50.9932 21.0463L52.5107 20.723ZM32.1904 19.0883C31.8913 19.4863 31.6038 19.8896 31.3281 20.2972L30.042 19.4281C30.3323 18.9989 30.6356 18.5742 30.9502 18.1556L32.1904 19.0883ZM42.959 18.6576C42.8108 19.1383 42.6679 19.6276 42.5273 20.1215L41.0332 19.6947C41.1768 19.1905 41.3252 18.6927 41.4766 18.2015L42.959 18.6576ZM51.7764 17.7924C51.9147 18.2721 52.0475 18.7584 52.1709 19.2504L50.6641 19.6283C50.5452 19.1543 50.4187 18.6843 50.2852 18.2211L51.7764 17.7924ZM34.0908 16.8011C33.754 17.1697 33.427 17.5434 33.1123 17.9222L31.918 16.931C32.2483 16.5333 32.5912 16.1407 32.9443 15.7543L34.0908 16.8011ZM43.9238 15.765C43.7543 16.2365 43.5876 16.7186 43.4248 17.2074L41.9521 16.7162C42.1187 16.2161 42.2901 15.7237 42.4639 15.2406L43.9238 15.765ZM50.8457 14.9222C51.0139 15.3889 51.1788 15.865 51.3359 16.349L49.8584 16.8275C49.7066 16.36 49.5484 15.8999 49.3857 15.4486L50.8457 14.9222ZM36.1963 14.6967C35.8267 15.0342 35.467 15.3777 35.1182 15.726L34.0225 14.6283C34.3878 14.2635 34.7638 13.9032 35.1504 13.5502L36.1963 14.6967ZM45.0273 12.9301C44.8345 13.3882 44.644 13.8591 44.457 14.3402L43.0098 13.7777C43.2019 13.2834 43.398 12.7985 43.5967 12.3265L45.0273 12.9301ZM49.7354 12.1185C49.9303 12.5695 50.123 13.0343 50.3115 13.5101L48.8682 14.0824C48.6857 13.6216 48.4993 13.1714 48.3105 12.7347L49.7354 12.1185ZM38.4814 12.7826C38.084 13.0882 37.6965 13.4005 37.3184 13.7172L36.3213 12.5267C36.716 12.1962 37.1209 11.8707 37.5352 11.5521L38.4814 12.7826ZM40.918 11.059C40.4975 11.3325 40.0853 11.6112 39.6826 11.8959L38.7861 10.6283C39.2056 10.3317 39.6348 10.0408 40.0723 9.75623L40.918 11.059ZM46.292 10.1722C46.0719 10.6116 45.8523 11.0683 45.6367 11.5394L44.2256 10.892C44.4483 10.4055 44.6749 9.93398 44.9033 9.47791L46.292 10.1722ZM48.4512 9.39001C48.6723 9.82274 48.896 10.275 49.1172 10.7455L47.7119 11.4066C47.4981 10.9517 47.2836 10.5135 47.0703 10.0961L48.4512 9.39001ZM43.4854 9.52185C43.0446 9.76447 42.6117 10.0121 42.1875 10.266L41.3896 8.93494C41.83 8.6714 42.2794 8.41304 42.7363 8.1615L43.4854 9.52185ZM47.7402 8.05505L47.2988 8.30212C47.1976 8.47675 47.0949 8.65429 46.9941 8.8363L46.666 8.65466L46.3848 8.81189C46.2972 8.65484 46.2083 8.50282 46.1221 8.35388L45.6357 8.08435C45.765 7.85087 45.8949 7.62185 46.0254 7.3988L46.6953 7.79138L47.3662 7.3988C47.4896 7.60969 47.6142 7.82911 47.7402 8.05505ZM45.4814 8.4906C45.2555 8.60015 45.0316 8.71222 44.8096 8.82458L44.1074 7.43884C44.3376 7.3224 44.5707 7.2066 44.8047 7.09314L45.4814 8.4906Z" fill="#2C2C2C"/>
<path d="M46.233 3.49421L48.3589 3.78327C49.8181 3.98183 50.8758 5.33069 50.7203 6.79499C50.6679 7.28601 50.4826 7.7253 50.2085 8.08796C52.9869 9.43615 56.0814 11.8528 58.3414 15.3467C61.7004 20.5403 63.1764 28.0412 59.2828 37.8301L59.2056 37.9893C58.999 38.342 58.6181 38.5644 58.2007 38.5645C56.861 38.5645 55.2123 38.307 53.3677 37.9678C51.4779 37.6204 49.38 37.1873 46.9673 36.7735C42.185 35.9533 36.3937 35.2584 29.8287 35.7227C28.1394 35.842 25.896 35.9783 23.7603 36.3155C21.5705 36.6613 19.7382 37.1862 18.7349 37.9424L18.5826 38.0391C18.2111 38.2371 17.7548 38.2207 17.3951 37.9844C16.9845 37.7144 16.7883 37.216 16.9039 36.7383L20.2457 22.9249C20.2577 22.8753 20.2741 22.8269 20.2925 22.7794C23.3394 14.9008 28.3867 10.6462 33.482 8.51569C36.9955 7.04675 40.5021 6.59945 43.3531 6.63093C43.2956 6.35917 43.2775 6.07499 43.3082 5.7862C43.464 4.32228 44.774 3.29608 46.233 3.49421ZM46.2994 9.20026C43.5355 8.75343 38.9502 8.75354 34.3804 10.6641C29.8655 12.5519 25.303 16.3273 22.4898 23.5538L19.7496 34.8692C20.8975 34.4748 22.1715 34.2093 23.398 34.0157C25.6551 33.6593 28.0131 33.5152 29.6646 33.3985C36.4888 32.9159 42.4837 33.6414 47.3599 34.4776C49.776 34.892 51.9773 35.3459 53.7876 35.6788C55.23 35.944 56.4315 36.1318 57.4117 36.2032C60.6717 27.4483 59.2207 20.9954 56.3853 16.6114C53.4142 12.0181 48.8818 9.6173 46.2994 9.20026Z" fill="#1A1A1A"/>
<path d="M20.062 22.0813C14.9139 24.6135 13.3393 29.5164 17.9961 37.3832C20.062 36.4361 25.9956 34.8029 30.5492 34.5436C36.8996 34.1803 40.5916 34.5436 48.1234 35.4906C42.9883 20.0086 25.21 19.5475 20.062 22.0813Z" fill="#85E0A3"/>
<path d="M25.8632 19.7665C28.4493 19.6921 31.4406 20.0097 34.435 20.9158C40.4419 22.7334 46.5174 26.9464 49.2297 35.1237C49.3555 35.5032 49.2773 35.9216 49.0235 36.2305C48.7697 36.539 48.3751 36.6956 47.9787 36.6459L48.1243 35.4906H48.1228L47.9787 36.6459C40.4682 35.7015 36.8587 35.3487 30.6154 35.7059C28.4337 35.8302 25.8864 36.2873 23.6145 36.837C21.3294 37.3898 19.4137 38.0139 18.4818 38.4411C17.9399 38.6895 17.2979 38.4885 16.9943 37.9756C14.6001 33.9309 13.6798 30.4439 14.2058 27.5247C14.7436 24.5404 16.7399 22.4184 19.5478 21.0371C21.0409 20.3022 23.3021 19.8403 25.8632 19.7665ZM25.93 22.0938C23.5494 22.1624 21.6568 22.5943 20.5758 23.1264C18.2364 24.2772 16.8708 25.8723 16.4985 27.9386C16.1442 29.9056 16.6481 32.5233 18.5045 35.9182C19.6807 35.4828 21.3017 35.0001 23.0656 34.5733C25.4152 34.0049 28.1118 33.5167 30.4834 33.3816C36.3685 33.045 40.026 33.3259 46.3456 34.0973C43.6902 27.9393 38.7565 24.6564 33.7602 23.1445C31.0248 22.3169 28.2855 22.026 25.93 22.0938Z" fill="#1A1A1A"/>
</svg>
