<svg width="75" height="86" viewBox="0 0 75 86" fill="none" xmlns="http://www.w3.org/2000/svg">
<path d="M24.8428 13.5848V7.76273C24.8428 4.33316 27.6235 1.55255 31.0536 1.55255H49.6861C53.1162 1.55255 55.8969 4.33316 55.8969 7.76273V13.5848C55.8969 17.0144 53.1162 19.795 49.6861 19.795H40.7228L33.1004 26.3933V19.795H31.0536C27.6235 19.795 24.8428 17.0144 24.8428 13.5848Z" fill="white"/>
<path d="M54.7329 7.76273C54.7329 4.97622 52.4735 2.71696 49.6866 2.71696H31.0541C28.2672 2.71696 26.0078 4.97622 26.0078 7.76273V13.5848C26.0078 16.3713 28.2672 18.6305 31.0541 18.6305H33.1011C33.7441 18.6307 34.2656 19.152 34.2656 19.795V23.8431L39.9609 18.9141C40.1726 18.731 40.4438 18.6305 40.7236 18.6305H49.6866C52.4735 18.6305 54.7329 16.3713 54.7329 13.5848V7.76273ZM57.0619 13.5848C57.0619 17.6574 53.7598 20.9594 49.6866 20.9594H41.1573L33.8638 27.2742C33.5194 27.5723 33.0318 27.6421 32.6174 27.4531C32.2028 27.2636 31.9366 26.8491 31.9366 26.3933V20.9594H31.0541C26.9808 20.9594 23.6787 17.6574 23.6787 13.5848V7.76273C23.6787 3.69009 26.9808 0.388138 31.0541 0.388138H49.6866C53.7598 0.388138 57.0619 3.69009 57.0619 7.76273V13.5848Z" fill="#1A1A1A"/>
<path d="M39.6178 6.41048C40.131 7.16813 40.6611 7.95682 40.6746 8.86971C40.6811 9.30909 40.9452 8.45675 41.0656 8.30615C41.2792 8.04067 41.4674 7.74567 41.723 7.50813C42.1765 7.08739 42.5796 6.66666 43.1335 6.3577C43.8662 5.95094 44.8431 5.56902 45.6922 5.56902C46.3398 5.56902 46.7814 5.72427 47.1733 6.24127C47.6007 6.80639 47.759 7.72859 47.5997 8.39774C47.3831 9.30753 46.8419 10.0155 46.2372 10.7188C45.5815 11.4811 44.8815 12.2294 44.1568 12.9312C43.3094 13.7525 42.5232 14.5707 41.5357 15.2445C41.0306 15.5907 40.5477 15.9664 40.038 16.3049C39.865 16.4197 39.7644 16.5843 39.6178 16.353C39.3916 15.9959 39.1394 15.6528 38.8814 15.3159C38.6485 15.0116 38.4464 14.6731 38.2053 14.3813C37.6341 13.6888 37.2066 12.9063 36.591 12.2403C35.4427 10.9967 34.1475 9.71431 34.1593 7.9382C34.1627 7.40723 34.2313 6.9135 34.5046 6.44618C34.8299 5.89193 35.3788 5.37339 35.9233 5.01941C36.2478 4.80982 36.599 4.66077 36.9925 4.66077C37.2945 4.66077 37.6254 4.62817 37.9036 4.76169C38.0502 4.8331 38.1817 4.94954 38.3155 5.03959C38.5278 5.18553 38.712 5.42617 38.8938 5.60472L38.895 5.60626C39.148 5.85311 39.4197 6.1186 39.6178 6.41048Z" fill="#E24C0C"/>
</svg>
