<svg width="75" height="86" viewBox="0 0 75 86" fill="none" xmlns="http://www.w3.org/2000/svg">
<path d="M18.069 36.0521C19.9011 30.8663 34.3593 28.2424 41.3585 27.5903C42.1783 28.584 43.8163 31.5495 43.8163 35.3535C43.8163 40.1045 58.5291 38.1793 59.4342 41.564C60.1578 44.2656 58.0369 46.8274 56.8848 47.7745C58.8629 48.0074 63.0628 49.3738 64.0394 53.0224C65.016 56.6711 63.5114 60.3509 62.6373 61.7482C64.6402 63.5803 68.6445 64.4809 68.6445 69.5114C68.6445 73.5327 65.3684 80.4575 56.0309 82.9572C48.5596 84.9601 41.0666 83.1124 38.2533 81.9324C28.7263 83.0969 9.07152 83.1745 6.65563 74.1693C4.24128 65.1485 12.2234 59.0311 16.5164 57.0903C14.4468 56.8574 10.3059 55.2893 10.3059 50.8798C10.3059 46.4703 15.4808 44.9022 18.069 44.6693C17.3051 43.9551 16.2369 41.2534 18.069 36.0521Z" fill="#B3B3B3"/>
<path d="M17.7646 43.1318C19.1931 45.0105 22.8018 48.1314 26.7471 49.7461C28.1411 50.3052 28.7367 52.6805 27.5195 53.5654L22.9912 56.8574C20.7943 59.2174 16.3995 64.7602 16.3994 68.0518C16.3994 79.4015 38.5557 74.1851 38.5557 79.1846C38.5553 82.8794 32.1779 82.7862 29.6191 83.0967L12.501 80.3174L6.20996 74.4023L7.59766 64.3105L15.7402 57.6494L10.8369 53.8604V47.8369L18.707 44.6074L17.7646 43.1318ZM62.0752 49.249L64.7256 52.8516L64.2012 60.5215C63.8425 60.8631 62.1263 60.9255 59.2881 62.5713C55.7402 64.6052 46.5781 64.7757 46.5781 61.6084C46.5786 58.4412 59.6826 59.2016 59.6826 55.584C59.6825 52.6962 58.0414 49.1717 57.2217 47.7744L62.0752 49.249Z" fill="#757575"/>
<path d="M67.4798 69.5113C67.4798 67.3861 66.6678 66.2094 65.63 65.3113C65.0776 64.8333 64.459 64.4342 63.7923 64.0074C63.1575 63.6009 62.4403 63.1463 61.8515 62.6079C61.4371 62.2287 61.3522 61.6073 61.6499 61.131C62.4325 59.8799 63.775 56.5399 62.9144 53.3239C62.5314 51.8928 61.5063 50.8539 60.2519 50.1231C58.9913 49.3888 57.6048 49.0322 56.7494 48.9314C56.2858 48.8768 55.8983 48.5499 55.7669 48.102C55.6357 47.6542 55.7855 47.1716 56.1459 46.8753C56.6204 46.4852 57.3329 45.7231 57.835 44.7799C58.3358 43.8393 58.5689 42.8346 58.3096 41.8657C58.307 41.8563 58.2665 41.727 57.9245 41.5306C57.5745 41.3297 57.0464 41.1399 56.3339 40.965C54.902 40.6137 53.0699 40.3986 51.1226 40.1235C49.2428 39.8579 47.2452 39.534 45.7081 38.9378C44.2207 38.3608 42.6514 37.3133 42.6514 35.3534C42.6514 34.4132 42.6922 33.4122 42.7014 32.6378C42.7112 31.8082 42.6904 31.1199 42.5938 30.5469C42.4981 29.98 42.3397 29.6025 42.1313 29.3415C41.9522 29.1174 41.6769 28.9072 41.1943 28.7562C37.229 28.7778 32.0665 29.5729 27.6724 30.9851C25.4462 31.7006 23.4643 32.5602 21.9501 33.5248C20.4105 34.5057 19.4984 35.5049 19.1678 36.4406C18.2955 38.9175 18.1406 40.7214 18.255 41.9339C18.3731 43.1845 18.7637 43.7243 18.8646 43.8186C19.1999 44.1321 19.3201 44.6141 19.1708 45.0483C19.0215 45.4823 18.6303 45.788 18.1732 45.8291L17.7092 45.8837C16.5688 46.0452 15.066 46.455 13.817 47.2059C12.4126 48.0502 11.4699 49.2218 11.4699 50.8797C11.4699 52.6576 12.2814 53.8287 13.3348 54.6203C14.429 55.4425 15.7722 55.8349 16.6463 55.9334C17.167 55.992 17.5849 56.3908 17.6667 56.9083C17.7483 57.4261 17.4741 57.9356 16.9966 58.1516L16.6084 58.3336C14.625 59.3022 11.9537 61.1376 9.99455 63.6844C7.9277 66.3714 6.68959 69.7895 7.78084 73.8675C8.27271 75.7008 9.65928 77.1675 11.8201 78.3176C13.9873 79.4711 16.823 80.2428 19.9608 80.7133C26.2305 81.6534 33.4139 81.3512 38.1117 80.777L38.2634 80.7679C38.414 80.7692 38.5632 80.8003 38.7031 80.8589C41.3519 81.9698 48.5746 83.7501 55.729 81.8323L56.3324 84.0824C48.7872 86.1051 41.2662 84.367 38.0966 83.1211C33.2644 83.6881 26.0253 83.9777 19.6151 83.0165C16.3469 82.5264 13.2205 81.7017 10.7254 80.3737C8.38002 79.1253 6.49561 77.3756 5.67933 74.9622L5.53074 74.4709C4.20795 69.5286 5.75412 65.3771 8.14777 62.2652C9.7305 60.2076 11.6994 58.5778 13.5122 57.4147C12.9782 57.1663 12.4403 56.8617 11.9353 56.4822C10.4009 55.3292 9.14091 53.5113 9.14091 50.8797C9.14091 48.1282 10.7875 46.3108 12.6177 45.2105C13.7932 44.5038 15.1025 44.0521 16.2642 43.7868C16.1086 43.3081 15.9941 42.7607 15.9367 42.1522C15.7842 40.5354 16.0116 38.389 16.9708 35.6658C17.5562 34.0086 18.9855 32.6516 20.6992 31.5598C22.4382 30.452 24.6214 29.5199 26.9598 28.7684C31.6352 27.2658 37.12 26.4259 41.358 26.4258C41.4596 26.4258 41.5616 26.439 41.6597 26.4652C42.6292 26.7245 43.3968 27.1953 43.9508 27.889C44.4916 28.5662 44.7552 29.3651 44.8893 30.1603C45.0225 30.9497 45.039 31.8111 45.0288 32.6651C45.018 33.5743 44.9803 34.3917 44.9803 35.3534C44.9803 35.7689 45.2517 36.2625 46.5511 36.7666C47.8007 37.2511 49.5377 37.5473 51.4486 37.8173C53.2923 38.0778 55.3092 38.3148 56.8904 38.7028C57.6841 38.8976 58.4553 39.1493 59.0829 39.5094C59.7077 39.868 60.3339 40.4188 60.5597 41.2622L60.6355 41.5867C60.9641 43.1974 60.5161 44.7006 59.891 45.8746C59.6568 46.3146 59.3879 46.7207 59.1117 47.0891C59.8577 47.3298 60.6558 47.6636 61.424 48.1111C63.0081 49.0339 64.571 50.5044 65.1645 52.722C66.0812 56.1477 65.0505 59.528 64.1259 61.4388C64.3984 61.6288 64.7055 61.8252 65.0493 62.0453C65.6966 62.4598 66.4549 62.9446 67.1538 63.5494C68.6189 64.8172 69.8088 66.6062 69.8088 69.5113C69.8088 74.075 66.1641 81.4503 56.3324 84.0824L55.729 81.8323C64.5717 79.4648 67.4798 72.9902 67.4798 69.5113Z" fill="#1A1A1A"/>
<path fill-rule="evenodd" clip-rule="evenodd" d="M34.9433 56.3846C35.3748 55.9703 36.0373 56.0101 36.4231 56.4736C37.2252 57.4373 38.6187 57.4736 39.4639 56.5523L39.5743 56.4324C39.9812 55.9903 40.6448 55.9862 41.0564 56.4233C41.468 56.8604 41.4718 57.5731 41.0648 58.0152L40.9569 58.1324C40.9567 58.1327 40.9572 58.1322 40.9569 58.1324C39.263 59.9779 36.4691 59.9067 34.8605 57.974C34.4747 57.5106 34.5118 56.799 34.9433 56.3846Z" fill="#1A1A1A"/>
<path d="M31.6704 56.7227C31.3504 56.0942 30.5802 55.842 29.9517 56.1621C29.9504 56.1628 29.9483 56.1651 29.9449 56.167C29.9368 56.171 29.9225 56.1788 29.9048 56.1875C29.8693 56.2049 29.8146 56.2289 29.7466 56.2607C29.6094 56.325 29.417 56.4141 29.1968 56.5039C28.7255 56.6961 28.2413 56.8531 27.9146 56.8916C27.6021 56.9282 27.1148 56.8928 26.6304 56.8252C26.4041 56.7936 26.2033 56.7595 26.0601 56.7324C25.9888 56.719 25.9313 56.7069 25.8941 56.6992C25.8766 56.6956 25.8635 56.6923 25.855 56.6904C25.8508 56.6895 25.8458 56.6888 25.8443 56.6885C25.1558 56.5364 24.4732 56.9717 24.3208 57.6602C24.169 58.3485 24.6051 59.0293 25.2935 59.1816L25.3003 59.1846C25.3044 59.1855 25.3113 59.1861 25.3179 59.1875L25.5855 59.2412C25.7585 59.2739 26.0003 59.316 26.2759 59.3545C26.7964 59.4272 27.5576 59.5048 28.2134 59.4277C28.9019 59.3467 29.6516 59.0734 30.1597 58.8662C30.4286 58.7566 30.663 58.6532 30.8296 58.5752C30.9125 58.5364 30.981 58.5029 31.0288 58.4795C31.0526 58.4678 31.0738 58.458 31.0874 58.4512C31.0937 58.4481 31.0991 58.4463 31.1031 58.4443L31.1109 58.4385L31.3286 58.2998C31.7932 57.9301 31.9495 57.2725 31.6704 56.7227ZM27.3951 50.8877C25.9846 50.8877 24.8415 52.031 24.8413 53.4414C24.8413 54.852 25.9845 55.9961 27.3951 55.9961C28.8056 55.9961 29.9488 54.852 29.9488 53.4414C29.9486 52.031 28.8055 50.8877 27.3951 50.8877Z" fill="#1A1A1A"/>
<path d="M43.3116 56.7222C43.6316 56.0939 44.401 55.8418 45.0294 56.1616C45.0307 56.1623 45.0334 56.1646 45.0372 56.1665C45.0452 56.1705 45.0585 56.1783 45.0762 56.187C45.1116 56.2044 45.1664 56.2284 45.2344 56.2603C45.3717 56.3245 45.5649 56.4136 45.7852 56.5034C46.2566 56.6956 46.7408 56.8527 47.0674 56.8911C47.38 56.9277 47.8673 56.8923 48.3516 56.8247C48.5778 56.7931 48.7788 56.7599 48.9219 56.7329C48.9931 56.7195 49.0507 56.7064 49.0879 56.6987C49.1053 56.6951 49.1186 56.6917 49.127 56.6899C49.131 56.6891 49.1352 56.6893 49.1368 56.689C49.8253 56.5366 50.5078 56.9712 50.6602 57.6597C50.812 58.3479 50.3767 59.0287 49.6885 59.1812L49.6807 59.1841C49.6767 59.185 49.6704 59.1857 49.6641 59.187L49.3956 59.2407C49.2226 59.2734 48.9814 59.3155 48.7061 59.354C48.1857 59.4267 47.4245 59.5043 46.7686 59.4272C46.0799 59.3462 45.3295 59.0729 44.8213 58.8657C44.5525 58.7561 44.318 58.6527 44.1514 58.5747C44.0687 58.5359 44.0009 58.5024 43.9532 58.479C43.9294 58.4673 43.9083 58.4575 43.8946 58.4507C43.8881 58.4474 43.882 58.4459 43.878 58.4438L43.8711 58.438L43.6534 58.2993C43.1887 57.9296 43.0324 57.2721 43.3116 56.7222ZM47.586 50.8872C48.9965 50.8872 50.1405 52.0305 50.1407 53.4409C50.1407 54.8515 48.9966 55.9956 47.586 55.9956C46.1756 55.9954 45.0323 54.8514 45.0323 53.4409C45.0324 52.0306 46.1757 50.8874 47.586 50.8872Z" fill="#1A1A1A"/>
</svg>
