<svg width="75" height="86" viewBox="0 0 75 86" fill="none" xmlns="http://www.w3.org/2000/svg">
<path d="M33.9917 33.3818C26.2751 33.3818 20.0087 39.1576 19.8612 46.3152C18.7386 45.9891 17.5446 45.8029 16.3041 45.8029C9.87154 45.8029 4.65936 50.6626 4.65936 56.6713C4.65936 58.8916 5.37668 60.9566 6.60482 62.68C2.67666 64.6363 0.00146484 68.5179 0.00146484 72.9739C0.00146484 79.4018 5.56144 84.6187 12.4225 84.6187C12.7905 84.6187 13.1538 84.6031 13.514 84.5721C13.6833 84.6031 13.8556 84.6187 14.0341 84.6187H62.9219C62.9715 84.6187 63.0197 84.6187 63.0694 84.6187C68.5564 84.5255 72.9752 80.3955 72.9752 75.3029C72.9752 70.8003 69.5081 67.0429 64.9014 66.1734C66.0861 64.0463 66.7646 61.6087 66.7646 59.0003C66.7646 50.8489 60.1597 44.2503 52.0146 44.2503C50.6235 44.2503 49.2789 44.4521 48.0042 44.8092C47.0741 38.3502 41.1571 33.3818 33.9917 33.3818Z" fill="#F1E5FF"/>
<path d="M59.7452 64.7761C63.3271 49.3585 53.6868 46.5327 46.8335 45.5545L48.9078 45.0267L54.2846 44.3589C54.8311 44.2813 55.3854 44.359 55.8931 44.5763L60.0029 46.3464C60.3662 46.5016 60.697 46.7191 60.9764 46.9985L64.8549 50.8801C65.0909 51.113 65.2865 51.3925 65.4371 51.6875L65.8626 52.5413C65.9464 52.7121 66.0131 52.883 66.0659 53.0538L66.8904 55.864C67.0441 56.3919 67.0565 56.9509 66.9277 57.4788L65.9868 61.3293L65.6405 63.0682C65.3828 64.3569 65.9619 65.6611 67.0876 66.3443L68.6418 67.2758C68.9399 67.4466 69.2069 67.6796 69.429 67.9435L72.1119 71.1574C72.6615 71.825 72.9131 72.679 72.8075 73.533L72.3138 77.4767C72.2377 78.0822 71.9861 78.6566 71.5887 79.1224L69.5128 81.529C68.9228 82.2277 68.0626 82.6158 67.1574 82.6158H61.1565C70.0081 76.2966 65.5862 71.2971 61.5431 68.8284C60.1675 67.99 59.3803 66.3442 59.7452 64.7761Z" fill="#E4CCFF"/>
<path d="M2.32895 72.9738C2.32895 77.9733 6.70365 82.2896 12.4211 82.2896V84.6186L11.7812 84.6034C5.21892 84.291 0 79.2006 0 72.9738C0 68.5178 2.67671 64.6364 6.60475 62.6801C5.45303 61.0642 4.75033 59.1479 4.66699 57.0851L4.6579 56.6712C4.6579 50.6625 9.8718 45.8028 16.3026 45.8028C16.9463 45.8028 17.5783 45.8491 18.1934 45.9423C18.1929 45.8958 18.1888 45.8493 18.1888 45.8028C18.1888 38.0862 24.8917 31.8291 33.1602 31.8291L33.8516 31.8443C40.9493 32.1458 46.7565 37.0663 47.9178 43.4435C49.428 42.9622 51.0385 42.6975 52.7106 42.6975L53.5142 42.7172C61.7596 43.1355 68.3156 49.9537 68.3158 58.3012C68.3158 61.2045 67.5214 63.9219 66.143 66.2508C70.9525 67.229 74.5263 70.9088 74.5263 75.3028C74.5263 80.442 69.6256 84.6185 63.5791 84.6186V82.2896C68.7058 82.2896 72.1974 78.8272 72.1974 75.3028C72.1974 72.2752 69.6848 69.3402 65.6775 68.5328C64.9395 68.3776 64.3196 67.8816 64.0142 67.1833C63.709 66.5002 63.7562 65.7081 64.1401 65.056C65.3125 63.0842 65.9868 60.7699 65.9868 58.3012C65.9866 50.9729 60.0429 45.0265 52.7106 45.0265C51.2861 45.0265 49.9161 45.2596 48.6319 45.6633C47.9935 45.8649 47.297 45.7877 46.7215 45.4465C46.1456 45.1049 45.7468 44.5296 45.6268 43.862C44.6456 38.4744 39.5387 34.158 33.1602 34.158C26.0302 34.1581 20.5275 39.5052 20.5178 45.7861C20.5183 45.7962 20.5189 45.8093 20.5193 45.8179C20.5202 45.849 20.5219 45.8805 20.5223 45.9271C20.5297 46.6102 20.236 47.263 19.7202 47.7133C19.2045 48.1475 18.5182 48.349 17.8431 48.2561C17.3399 48.1784 16.8248 48.1317 16.3026 48.1317C11.0038 48.1317 6.98684 52.1065 6.98684 56.6712C6.98684 58.3791 7.53771 59.9783 8.50157 61.3291C8.8971 61.888 9.02898 62.5872 8.86395 63.2547C8.69884 63.9064 8.253 64.465 7.64338 64.7755C4.42034 66.3747 2.32895 69.4959 2.32895 72.9738Z" fill="#1A1A1A"/>
<path d="M13.9009 82.2745C13.9894 82.29 14.027 82.2896 14.0343 82.2896V84.6186C13.8565 84.6186 13.6823 84.6026 13.5127 84.5716C13.1532 84.6026 12.7888 84.6186 12.4211 84.6186V82.2896C12.7089 82.2896 13.0076 82.2737 13.3232 82.2426C13.516 82.2271 13.7101 82.2434 13.9009 82.2745Z" fill="#1A1A1A"/>
<path d="M62.9225 84.6186H14.0343V82.2896H62.9225V84.6186Z" fill="#1A1A1A"/>
<path d="M63.5791 82.2896V84.6186L63.3683 84.6171C63.2984 84.6151 63.2286 84.6112 63.1591 84.6034C63.0813 84.6189 63.0023 84.6186 62.9225 84.6186V82.2896H62.9877C63.0695 82.2741 63.1515 82.2745 63.2334 82.2745C63.381 82.29 63.4828 82.2896 63.5791 82.2896Z" fill="#1A1A1A"/>
<path d="M13.1992 69.0923C15.3428 69.0924 17.0801 70.8305 17.0801 72.9741C17.0799 75.1177 15.3428 76.8548 13.1992 76.855C11.0556 76.855 9.31752 75.1177 9.31738 72.9741C9.31738 70.8304 11.0555 69.0923 13.1992 69.0923ZM39.5938 69.0923C41.7375 69.0923 43.4756 70.8304 43.4756 72.9741C43.4754 75.1177 41.7374 76.855 39.5938 76.855C37.4501 76.855 35.7121 75.1177 35.7119 72.9741C35.7119 70.8304 37.45 69.0923 39.5938 69.0923Z" fill="#D9B8FF"/>
<path fill-rule="evenodd" clip-rule="evenodd" d="M22.5139 75.7481C22.9933 76.1767 23.7295 76.1355 24.1581 75.656C25.0494 74.6591 26.5977 74.6216 27.5368 75.5746L27.6594 75.6987C28.1116 76.156 28.8489 76.1602 29.3062 75.708C29.7635 75.2559 29.7677 74.5186 29.3156 74.0612L29.1957 73.94C29.1954 73.9397 29.196 73.9403 29.1957 73.94C27.3136 72.0309 24.2092 72.1045 22.4218 74.1038C21.9932 74.5833 22.0344 75.3195 22.5139 75.7481Z" fill="#1A1A1A"/>
<path d="M21.4239 69.1005C20.7423 69.1005 20.1897 69.6533 20.1896 70.3349C20.1896 71.0166 20.7422 71.5693 21.4239 71.5693C22.1056 71.5692 22.6583 71.0166 22.6583 70.3349C22.6582 69.6533 22.1055 69.1006 21.4239 69.1005ZM20.1554 65.7939C19.651 65.5265 19.045 65.6192 18.8019 66.0009C18.5589 66.3826 18.7695 66.9093 19.2736 67.1767H19.2765C19.2774 67.1772 19.278 67.1788 19.2794 67.1796C19.2833 67.1817 19.2905 67.1845 19.298 67.1884C19.313 67.1964 19.3353 67.2087 19.3634 67.2236C19.4204 67.2537 19.503 67.2979 19.6046 67.3515C19.8083 67.459 20.0907 67.6071 20.4025 67.7704C21.023 68.0956 21.7762 68.4867 22.2706 68.7333L22.3663 68.7763C22.8547 68.9733 23.3945 68.8548 23.6075 68.4892C23.8345 68.0992 23.6036 67.5755 23.0919 67.3203L22.2394 66.8867C21.9205 66.7218 21.5825 66.5447 21.2716 66.3818C20.9625 66.2198 20.6826 66.0734 20.4806 65.9667L20.1769 65.8046C20.1697 65.8009 20.1639 65.7978 20.1603 65.7958C20.1588 65.795 20.1572 65.7943 20.1564 65.7939H20.1554Z" fill="#1A1A1A"/>
<path d="M30.715 69.101C31.3967 69.101 31.9494 69.6536 31.9494 70.3354C31.9493 71.017 31.3966 71.5697 30.715 71.5697C30.0336 71.5695 29.4817 71.0168 29.4816 70.3354C29.4816 69.6538 30.0335 69.1012 30.715 69.101ZM31.9836 65.7934C32.4879 65.526 33.0948 65.6187 33.338 66.0004C33.5811 66.3821 33.3695 66.9087 32.8654 67.1762L32.8595 67.1791C32.8556 67.1812 32.8485 67.1849 32.841 67.1889C32.826 67.1968 32.8043 67.2083 32.7765 67.2231C32.7196 67.2532 32.637 67.2973 32.5353 67.351C32.3317 67.4585 32.0494 67.6065 31.7375 67.7699C31.1169 68.0952 30.3639 68.4871 29.8693 68.7338L29.7726 68.7768C29.2845 68.9737 28.7456 68.855 28.5324 68.4897C28.3052 68.0996 28.5353 67.576 29.047 67.3207L29.8996 66.8861C30.2185 66.7213 30.5574 66.5442 30.8683 66.3813C31.1772 66.2194 31.4564 66.0728 31.6584 65.9662L31.9621 65.8051C31.9694 65.8012 31.9759 65.7983 31.9797 65.7963C31.9809 65.7956 31.9818 65.7948 31.9826 65.7943L31.9836 65.7934Z" fill="#1A1A1A"/>
</svg>
