<svg width="75" height="86" viewBox="0 0 75 86" fill="none" xmlns="http://www.w3.org/2000/svg">
<path d="M38.8762 84.3965C68.1743 83.1203 71.6398 61.7483 66.1295 50.883C60.6177 40.0176 44.9796 36.7866 38.8762 37.3176C21.4091 39.2336 9.31715 43.2022 6.451 57.2317C2.616 75.9984 19.1624 84.3965 38.8762 84.3965Z" fill="#0768CF"/>
<path d="M38.7758 36.1573C42.0373 35.8737 47.6533 36.59 53.1498 38.7425C58.6499 40.8964 64.2315 44.5686 67.1675 50.3554V50.3569C70.0832 56.1065 70.6163 64.5774 66.5716 71.8041C62.4877 79.1007 53.8727 84.9083 38.9275 85.5595L38.8759 84.3783V84.3965L38.9275 85.5595L38.9017 85.561H38.8759C28.8916 85.5609 19.5467 83.4405 13.1483 78.794C9.93347 76.4594 7.45237 73.4776 6.04016 69.8118C4.62805 66.146 4.31497 61.8714 5.31085 56.998C6.81704 49.6263 10.7851 44.8448 16.6372 41.7052C22.4115 38.6074 29.9932 37.1207 38.7485 36.1603L38.7758 36.1573L38.8759 37.3172L38.8789 37.3536L38.7758 36.1573ZM52.3007 40.9107C47.0898 38.8701 41.8494 38.2326 39.0017 38.4741C30.2911 39.4296 23.094 40.8858 17.7395 43.7582C12.4626 46.5892 8.95133 50.8077 7.59128 57.465C6.66978 61.9747 6.9868 65.788 8.21445 68.9748C9.44216 72.1616 11.611 74.7986 14.5175 76.9093C20.3576 81.1503 29.134 83.2275 38.8547 83.2305C53.1884 82.5991 60.9464 77.0872 64.5398 70.667C68.1747 64.1724 67.6861 56.5249 65.0917 51.4092C62.5158 46.3315 57.5229 42.9558 52.3007 40.9107Z" fill="#1A1A1A"/>
<path d="M50.4528 73.5591C56.3854 64.5384 55.8497 55.2412 54.4073 48.436C54.0238 46.6272 55.3187 44.9147 56.8605 45.9347C60.1645 48.1193 63.203 53.9851 64.6625 60.6428C65.1034 62.6534 65.1096 64.779 64.2852 66.6655C61.9019 72.123 56.3993 75.68 52.2662 77.2C49.4342 78.2418 48.7946 76.0791 50.4528 73.5591Z" fill="#034AC1"/>
<path d="M16.3706 37.2634H27.947L26.3944 33.0635L35.7102 36.4606L41.3462 33.0635L43.4733 37.2634L54.3418 34.1581L50.3096 39.5069L59.0649 41.8111L48.1312 45.0265L48.9681 51.2371L41.3462 45.9177L35.7102 53.448L31.7975 45.9177L19.1265 48.6721L26.3944 42.429L16.3706 37.2634Z" fill="#0768CF"/>
<path d="M40.8519 32.0096C41.1058 31.8905 41.3954 31.8662 41.6676 31.9444C41.9787 32.0338 42.2385 32.2485 42.3848 32.5373L44.0769 35.8775L54.022 33.0376C54.503 32.9003 55.0184 33.0862 55.3017 33.4986C55.5849 33.9112 55.5726 34.4589 55.2713 34.8586L52.2828 38.8221L59.3606 40.6855L59.0635 41.8091L59.065 41.8106L59.3606 40.6855C59.8661 40.8186 60.2218 41.2713 60.2295 41.7939C60.2369 42.3165 59.8953 42.7804 59.394 42.9281L49.4187 45.862L50.1222 51.0809L48.9668 51.2356L48.3012 52.1923L41.6039 47.5162L36.6428 54.1452C36.4028 54.4659 36.014 54.6419 35.6148 54.6092C35.2157 54.5764 34.8609 54.3398 34.6762 53.9845L35.7103 53.4477L35.7088 53.4462L34.6762 53.9845L31.1737 47.2433L19.3743 49.8103L19.1787 49.8361C18.725 49.8566 18.292 49.609 18.084 49.1917C17.8465 48.7145 17.9634 48.1365 18.3675 47.7891L24.3233 42.6718L15.8369 38.299C15.3592 38.0528 15.1129 37.5112 15.2395 36.9889C15.3662 36.4667 15.8332 36.0989 16.3706 36.0989H26.2763L25.3028 33.4667C25.1456 33.0412 25.2496 32.5631 25.5697 32.2416C25.8897 31.9204 26.3672 31.8134 26.7933 31.9687L35.5845 35.1755L40.7457 32.0657L40.8519 32.0096ZM50.1222 51.0809C50.1839 51.5388 49.9693 51.9911 49.5748 52.2317C49.1804 52.4723 48.6801 52.4567 48.3012 52.1923L48.9683 51.2371L50.1222 51.0809ZM36.3107 37.4575C36.0093 37.6391 35.6422 37.675 35.3115 37.5545L35.7103 36.4613H35.7088L35.3115 37.5545L28.3581 35.0193L29.0388 36.8601C29.1708 37.2173 29.12 37.6165 28.9024 37.929C28.6847 38.2414 28.328 38.4278 27.9471 38.4279H21.1741L26.9282 41.3936C27.2724 41.5711 27.5062 41.9082 27.5514 42.2928C27.5966 42.6775 27.4465 43.0593 27.1526 43.3117L23.3757 46.5564L31.5497 44.7794C32.0633 44.6677 32.5886 44.9149 32.831 45.3813L35.8877 51.2659L40.4137 45.2191C40.7901 44.7165 41.4984 44.6035 42.0133 44.9629L47.4597 48.7641L46.9775 45.1812L46.9684 44.9704C46.9916 44.483 47.3198 44.0511 47.8023 43.9091L54.724 41.8728L50.013 40.6325C49.6379 40.5336 49.3365 40.2545 49.2094 39.888C49.0824 39.5214 49.1457 39.1152 49.3792 38.8054L51.32 36.2308L43.7934 38.3824L43.4735 37.2619V37.2634L43.7934 38.3824C43.2568 38.5357 42.6871 38.2873 42.4348 37.7895L40.8731 34.707L36.3107 37.4575Z" fill="#1A1A1A"/>
<path d="M37.1046 44.6135C40.5345 44.6135 43.3151 43.3156 43.3151 41.7147C43.3151 40.1137 40.5345 38.8159 37.1046 38.8159C33.6746 38.8159 30.894 40.1137 30.894 41.7147C30.894 43.3156 33.6746 44.6135 37.1046 44.6135Z" fill="#034AC1"/>
<path d="M39.9202 62.4502C40.5631 62.4504 41.0846 62.9717 41.0846 63.6147C41.0846 64.2577 40.5631 64.779 39.9202 64.7791H35.1864C34.5433 64.7791 34.022 64.2578 34.022 63.6147C34.022 62.9716 34.5433 62.4502 35.1864 62.4502H39.9202Z" fill="#1A1A1A"/>
<path d="M44.8672 55.179C46.7023 55.1792 48.1895 56.667 48.1895 58.5022C48.1892 60.3372 46.7022 61.8242 44.8672 61.8245C43.032 61.8245 41.5442 60.3373 41.5439 58.5022C41.5439 56.6669 43.0319 55.179 44.8672 55.179Z" fill="#1A1A1A"/>
<path d="M43.5039 58.259C44.0162 58.259 44.4316 57.8436 44.4316 57.3313C44.4316 56.8189 44.0162 56.4036 43.5039 56.4036C42.9915 56.4036 42.5762 56.8189 42.5762 57.3313C42.5762 57.8436 42.9915 58.259 43.5039 58.259Z" fill="white"/>
<path d="M29.3555 55.179C27.5204 55.1792 26.0332 56.667 26.0332 58.5022C26.0334 60.3372 27.5205 61.8242 29.3555 61.8245C31.1907 61.8245 32.6785 60.3373 32.6787 58.5022C32.6787 56.6669 31.1908 55.179 29.3555 55.179Z" fill="#1A1A1A"/>
<path d="M27.9931 58.259C28.5055 58.259 28.9208 57.8436 28.9208 57.3313C28.9208 56.8189 28.5055 56.4036 27.9931 56.4036C27.4808 56.4036 27.0654 56.8189 27.0654 57.3313C27.0654 57.8436 27.4808 58.259 27.9931 58.259Z" fill="white"/>
</svg>
