<svg width="75" height="86" viewBox="0 0 75 86" fill="none" xmlns="http://www.w3.org/2000/svg">
<path d="M6.53635 59.3885C-5.86452 43.2535 7.67132 37.751 16.852 36.1999C17.2806 36.127 17.7122 36.1099 18.1469 36.1347L64.0722 38.8022C68.0485 39.2633 69.7968 39.1344 71.1522 40.6373C73.2296 42.943 71.9798 46.0498 69.4071 47.7856C68.0516 48.6986 67.5734 50.5928 68.505 51.9343C69.7921 53.7865 71.4224 55.5457 72.4704 57.6744C73.2886 59.3388 72.7607 61.351 71.2919 62.4828C70.6631 62.9673 70.0762 63.3011 69.4986 63.5619C67.224 64.5898 65.2817 66.7308 66.4043 68.9604C67.0502 70.2444 67.9817 70.9634 68.7301 72.1682C77.5118 86.2925 33.0025 84.0303 11.4054 80.8288C6.33606 80.0758 0.693796 76.41 2.72464 71.704C3.5258 69.847 4.98215 68.2664 6.43076 66.7976C8.45694 64.7435 8.29393 61.6755 6.53635 59.3885Z" fill="white"/>
<path d="M18.213 34.9716L64.14 37.6402L64.1733 37.6417L64.2067 37.6448L66.7843 37.9131C67.5563 37.9929 68.2373 38.0742 68.816 38.1861C70.0743 38.4292 71.1155 38.8578 72.0168 39.857L71.0813 40.7015L71.1526 40.6378L72.0184 39.8585C73.3476 41.3343 73.6202 43.1134 73.1419 44.7514C72.677 46.3434 71.5242 47.7628 70.0594 48.7512C69.1698 49.3504 68.9493 50.5313 69.462 51.2697L69.9441 51.9414C70.436 52.606 70.9563 53.2609 71.5104 54.0035C72.224 54.9598 72.9436 56.0001 73.5149 57.1603L71.4255 58.1883C70.9487 57.2201 70.3292 56.3153 69.6439 55.3969C68.9841 54.5127 68.2037 53.5409 67.5485 52.5979C66.1988 50.6538 66.9349 48.0464 68.7554 46.8196C69.8628 46.0724 70.6215 45.0708 70.9054 44.0994C71.1757 43.174 71.0343 42.2468 70.2868 41.4172C69.833 40.9141 69.3229 40.6558 68.3748 40.4726C67.3331 40.2712 66.0491 40.2012 63.9853 39.9631L18.0796 37.2976C17.7199 37.2771 17.3778 37.2916 17.0485 37.3476C14.8114 37.7256 12.3321 38.3415 10.0708 39.2838C7.80011 40.2302 5.82279 41.4752 4.49707 43.0699C3.20001 44.6301 2.49024 46.5635 2.7822 49.0393C3.07992 51.5626 4.43039 54.7363 7.45981 58.6781C9.4841 61.3125 9.78744 65.0521 7.25966 67.6148C5.80609 69.0886 4.49836 70.5314 3.79353 72.165C3.39395 73.091 3.38657 73.9147 3.6222 74.6578C3.86523 75.4236 4.39216 76.1789 5.17786 76.8806C6.76395 78.297 9.21587 79.3258 11.5764 79.6765C22.3283 81.2704 38.7674 82.627 51.3868 81.8341C57.7386 81.435 62.9348 80.4995 65.9731 78.9002C67.481 78.1064 68.2819 77.24 68.5674 76.365C68.8422 75.5222 68.7313 74.3766 67.741 72.7837L69.7197 71.554C70.9241 73.4914 71.3436 75.3642 70.7811 77.0883C70.2289 78.7804 68.8244 80.0305 67.0572 80.9608C63.5449 82.8095 57.9097 83.7578 51.5324 84.1585C38.6936 84.9651 22.0802 83.5888 11.2352 81.9812C8.52657 81.5788 5.62132 80.3978 3.62675 78.6167C2.62259 77.7198 1.80306 76.6294 1.4009 75.3613C0.991451 74.0701 1.04005 72.67 1.65563 71.2432C2.55312 69.1629 4.15878 67.444 5.60241 65.9803C7.12683 64.4349 7.10361 62.0369 5.61302 60.0973C2.44261 55.9721 0.83506 52.4069 0.469931 49.3123C0.0993746 46.1705 1.02223 43.6068 2.70639 41.5809C4.36196 39.5895 6.71471 38.1596 9.17619 37.1338C11.6468 36.1043 14.3046 35.4511 16.6573 35.0535C17.1841 34.9639 17.7043 34.9426 18.213 34.9716ZM73.5149 57.1603C74.592 59.3513 73.8844 61.956 72.0032 63.4057C71.2973 63.9495 70.6306 64.3268 69.9775 64.6217L69.979 64.6233C68.9808 65.0743 68.1224 65.744 67.6455 66.4579C67.2523 67.0468 67.1383 67.6136 67.3392 68.1895L67.4454 68.4366L67.6516 68.8096C67.8708 69.1677 68.1275 69.4912 68.4249 69.8497C68.8085 70.3122 69.2931 70.8671 69.7197 71.554L67.741 72.7837C67.4194 72.2659 67.0632 71.8562 66.6327 71.3372C66.2153 70.834 65.7488 70.25 65.3636 69.4843C64.5744 67.9167 64.8998 66.3747 65.7093 65.163C66.4915 63.9923 67.7429 63.0773 69.0192 62.5005C69.5211 62.2739 70.0294 61.9853 70.581 61.5605C71.6372 60.7465 71.9847 59.3261 71.4255 58.1883L73.5149 57.1603Z" fill="#1A1A1A"/>
<path d="M57.7298 33.6721C40.5841 21.3286 25.3279 27.8358 16.7186 35.5834C13.6723 38.3253 12.0405 42.5702 13.5326 46.3881C17.5306 56.62 31.3444 59.3868 38.8156 59.3868C49.9045 58.9924 56.8541 54.1342 60.8599 49.026C64.6887 44.1461 62.7634 37.2975 57.7298 33.6721Z" fill="#9747FF"/>
<path d="M33.8506 25.9424C41.2004 24.8427 49.6049 26.3881 58.4107 32.7275C63.8236 36.6264 66.1236 44.2031 61.7768 49.7443C57.5729 55.1051 50.3104 60.1431 38.8573 60.5506L38.8148 59.3649V59.3861L38.8573 60.5506H38.8148C34.9621 60.5505 29.4883 59.8418 24.4363 57.8047C19.3893 55.7695 14.6079 52.3413 12.4474 46.8119C10.7291 42.4147 12.6471 37.6818 15.9393 34.7184C20.366 30.7347 26.5353 27.0368 33.8506 25.9424ZM57.0491 34.6168C48.7093 28.6129 40.9118 27.2406 34.1948 28.2455C27.4439 29.2557 21.6804 32.6848 17.498 36.4484C14.6978 38.9688 13.3515 42.7259 14.6171 45.9643C16.4545 50.6666 20.5796 53.7378 25.3066 55.644C30.0242 57.5463 35.1878 58.2189 38.8057 58.2201C49.5115 57.8306 56.1398 53.1576 59.9436 48.3069L60.2393 47.9066C63.0592 43.8449 61.6559 38.2402 57.4767 34.9397L57.0491 34.6168Z" fill="#1A1A1A"/>
<path d="M46.5393 41.2256C47.1126 41.0734 47.7319 41.3382 48.0073 41.8895C48.2828 42.4419 48.122 43.0987 47.6542 43.465L47.4355 43.6012L46.1306 44.2517L47.3415 45.0442L47.5429 45.2073C47.9645 45.6258 48.0497 46.2972 47.7118 46.8135C47.3736 47.3299 46.7231 47.5203 46.1709 47.3009L45.9426 47.1819L42.8723 45.169C42.4902 44.9184 42.27 44.4833 42.2966 44.0272C42.3236 43.5709 42.5937 43.1624 43.0028 42.9584L46.2956 41.3177L46.5393 41.2256Z" fill="#1A1A1A"/>
<path d="M29.9255 41.2256C29.3522 41.0734 28.7329 41.3382 28.4575 41.8895C28.1821 42.4419 28.3428 43.0987 28.8106 43.465L29.0294 43.6012L30.3342 44.2517L29.1234 45.0442L28.9219 45.2073C28.5003 45.6258 28.4151 46.2972 28.753 46.8135C29.0913 47.3299 29.7418 47.5203 30.2939 47.3009L30.5223 47.1819L33.5926 45.169C33.9746 44.9184 34.1949 44.4833 34.1682 44.0272C34.1412 43.5709 33.8712 43.1624 33.4621 42.9584L30.1692 41.3177L29.9255 41.2256Z" fill="#1A1A1A"/>
<path d="M40.1936 47.354C40.8366 47.3542 41.358 47.8755 41.3581 48.5185C41.3581 49.1615 40.8366 49.6828 40.1936 49.683H35.4599C34.8168 49.6829 34.2954 49.1616 34.2954 48.5185C34.2954 47.8754 34.8168 47.354 35.4599 47.354H40.1936Z" fill="#1A1A1A"/>
<path d="M44.2496 36.0181C47.2509 36.0181 49.6839 34.6454 49.6839 32.952C49.6839 31.2585 47.2509 29.8857 44.2496 29.8857C41.2484 29.8857 38.8154 31.2585 38.8154 32.952C38.8154 34.6454 41.2484 36.0181 44.2496 36.0181Z" fill="white"/>
</svg>
