<svg width="75" height="86" viewBox="0 0 75 86" fill="none" xmlns="http://www.w3.org/2000/svg">
<path d="M10.1141 55.4243L13.3342 51.2368L16.7298 52.85L18.7265 56.685L28.4677 56.6074L30.0172 53.3826L33.7855 51.2896L37.8922 54.5905H40.3081L51.8224 53.3826L61.1599 54.5905L64.7061 59.5838L66.9404 63.1719L70.1823 70.2131V74.6412L68.4107 79.473L65.9948 81.406L56.6666 84.1433L47.8073 80.5195L40.3081 81.406L31.691 84.1433H28.8729L26.5378 80.5195L13.8963 79.473L6.32717 82.4525L3.5076 80.5195L3.10547 77.7822L7.79753 74.5108L7.28049 67.35L10.1141 55.4243Z" fill="#E6E6E6"/>
<path d="M30.4354 76.4669C31.0786 76.4669 31.6005 76.9888 31.6005 77.6319C31.6003 78.1966 31.1984 78.6653 30.6649 78.7716V80.6173C30.7555 80.6786 30.8892 80.7732 31.0243 80.9083C31.0998 80.9838 31.1664 81.0632 31.2011 81.1036C31.2223 81.1283 31.2363 81.1441 31.2489 81.1583C31.2524 81.1622 31.2553 81.1663 31.2577 81.169C31.2561 81.1675 31.2559 81.1657 31.2577 81.1671C31.2621 81.1704 31.2724 81.1784 31.3017 81.1974L31.3134 81.2052L31.3241 81.213L31.5438 81.3614L31.5487 81.3643C31.6419 81.4265 31.7001 81.4667 31.7772 81.5177L31.787 81.5235C31.8035 81.5274 31.8214 81.5312 31.8397 81.5362C31.9032 81.5537 32.0338 81.5939 32.1767 81.6817L32.1991 81.6954L32.2216 81.7101C32.2414 81.7236 32.26 81.7391 32.2782 81.753C32.3181 81.7684 32.3533 81.7815 32.3808 81.794C32.3828 81.795 32.3856 81.796 32.3876 81.797H34.6493C35.2919 81.7973 35.8139 82.3185 35.8144 82.961C35.8144 83.6039 35.2921 84.1257 34.6493 84.1261H32.3065C32.2522 84.1262 31.9851 84.1352 31.6991 84.0382L31.6796 84.0313C31.6135 84.0076 31.5567 83.9829 31.5185 83.9649C31.5 83.9563 31.4819 83.9471 31.4667 83.9395C31.4365 83.9332 31.3953 83.9251 31.3515 83.9122C31.3163 83.9019 31.2636 83.8844 31.2011 83.8575L30.9892 83.7423L30.9774 83.7325L30.9638 83.7237C30.9515 83.7149 30.9403 83.7045 30.9286 83.6954C30.7007 83.6052 30.5138 83.4739 30.4901 83.4581V83.4571C30.4138 83.4067 30.3197 83.3439 30.2567 83.3018V83.3009C30.1729 83.2455 30.0893 83.1896 30.0145 83.1388V83.1368C29.9118 83.0696 29.7646 82.9689 29.6112 82.8155L29.6034 82.8077C29.5324 82.7353 29.467 82.6579 29.4354 82.6212C29.4158 82.5983 29.4026 82.5829 29.3915 82.5704C29.3829 82.5608 29.3786 82.5557 29.3778 82.5548C29.3894 82.5664 29.3959 82.5687 29.3261 82.5226L29.3212 82.5196C29.2278 82.4573 29.17 82.4164 29.0927 82.3653L29.0878 82.3624C29.0671 82.3486 28.9118 82.2529 28.7587 82.1046L28.6103 81.9395L28.6015 81.9268L29.4794 81.2813L29.538 81.2374L28.6015 81.9268C28.3135 81.5353 28.3358 81.1204 28.3358 81.0792V78.4142C28.3358 78.2957 28.3392 78.0242 28.5038 77.7013C28.5325 77.6445 28.5603 77.5961 28.58 77.5636C28.6018 77.5277 28.6245 77.4931 28.6376 77.4727C28.6413 77.467 28.6456 77.4615 28.6483 77.4571C28.6748 77.3849 28.7962 77.0648 29.1376 76.8419L29.1366 76.8399L29.1405 76.839C29.1423 76.8378 29.1437 76.8352 29.1454 76.8341L29.1474 76.836C29.1779 76.8165 29.2085 76.802 29.2362 76.7872C29.2837 76.746 29.3364 76.7037 29.3974 76.6661L29.4003 76.67C29.6578 76.5111 29.9077 76.4836 29.9794 76.4767C30.0804 76.4669 30.1796 76.4669 30.204 76.4669H30.4354ZM31.5575 82.6837L31.5673 82.6729L32.1444 81.7315L31.5575 82.6837ZM55.0712 76.4962C55.5258 76.0415 56.2629 76.0417 56.7177 76.4962C57.1411 76.9196 57.1697 77.5869 56.8046 78.044C56.7916 78.0802 56.7799 78.1214 56.7606 78.1622L56.7558 78.1729L56.7499 78.1856C56.7294 78.2265 56.7092 78.2609 56.6923 78.2882C56.6897 78.2923 56.686 78.2969 56.6835 78.3009C56.6464 78.3805 56.5833 78.4939 56.4774 78.6085C56.4518 78.6453 56.4269 78.6754 56.4071 78.6993L56.4013 78.7101L56.3964 78.7208C56.3293 78.8481 56.2526 78.9387 56.2147 78.9825C56.1937 79.0069 56.1748 79.0276 56.163 79.0401C56.1571 79.0464 56.1521 79.0528 56.1483 79.0567C56.1439 79.0614 56.1408 79.0641 56.1386 79.0665L56.1181 79.089L56.0946 79.1104C56.087 79.1177 56.0788 79.1254 56.0692 79.1349C56.0672 79.1385 56.0654 79.143 56.0634 79.1466C56.0522 79.1658 56.036 79.1933 56.0165 79.2237L56.0067 79.2345C55.96 79.3551 55.9038 79.4693 55.8417 79.5645L55.8436 79.5665C55.8419 79.5692 55.8385 79.5717 55.8368 79.5743C55.8334 79.5795 55.8315 79.5858 55.828 79.5909L55.8251 79.589C55.7963 79.6319 55.7699 79.6691 55.7509 79.6935C55.7492 79.6963 55.7463 79.7006 55.7431 79.7061C55.7368 79.7171 55.7249 79.7391 55.7118 79.7608C55.7018 79.7775 55.6867 79.798 55.6708 79.8224L55.6718 79.8243C55.6698 79.8274 55.6659 79.8301 55.664 79.8331C55.6608 79.8379 55.6585 79.8438 55.6552 79.8487L55.6542 79.8468C55.5892 79.944 55.5228 80.0182 55.4716 80.0714C55.4683 80.0771 55.4662 80.0841 55.4628 80.0899C55.4516 80.1092 55.4356 80.1374 55.4159 80.1681L55.4061 80.1808L55.3993 80.1925L54.456 79.5518L54.4208 79.5284L55.3993 80.1925C55.3308 80.2934 55.2596 80.3692 55.2138 80.4171C55.2103 80.4232 55.2068 80.4302 55.203 80.4366C55.1902 80.4584 55.1714 80.4913 55.1474 80.5274L55.1415 80.5352L54.997 80.7188C54.9541 80.7666 54.9188 80.8009 54.9003 80.8194C54.8516 80.8682 54.764 80.9559 54.6376 81.0616L54.6308 81.0694L54.6288 81.0675C54.4863 81.1845 54.4447 81.2121 54.3436 81.3009C54.2619 81.3727 54.1748 81.459 54.0692 81.5645L53.8114 81.8224C53.7453 81.8885 53.6436 81.9925 53.5087 82.0987L53.5067 82.0968C53.4328 82.1554 53.3307 82.2299 53.2841 82.2628C52.8398 82.7088 52.1197 82.7217 51.6601 82.2862C51.1937 81.8442 51.1729 81.1085 51.6142 80.6417L51.7226 80.5352C51.7636 80.4979 51.812 80.4568 51.871 80.4122L51.8876 80.4005L51.9481 80.3565C51.9671 80.3431 51.9823 80.3326 51.9979 80.3214C52.0298 80.2986 52.0487 80.2844 52.0585 80.2765L52.0683 80.2686L52.1649 80.1759C52.2404 80.099 52.3364 80.0044 52.4228 79.9181C52.5189 79.822 52.6588 79.6817 52.8065 79.5518C52.9262 79.4467 53.0945 79.314 53.1425 79.2755L53.2353 79.1886C53.2368 79.1858 53.2384 79.1826 53.2401 79.1798C53.2542 79.156 53.2734 79.1213 53.2987 79.0841H53.3007C53.3694 78.9819 53.4415 78.9009 53.4853 78.8556C53.4897 78.848 53.4959 78.8395 53.5009 78.8311C53.5148 78.8079 53.5331 78.7758 53.5565 78.7413H53.5585C53.6284 78.6375 53.7061 78.5505 53.7421 78.5128C53.7468 78.5047 53.7532 78.4965 53.7587 78.4874C53.7717 78.4658 53.7908 78.4359 53.8134 78.4024C53.8279 78.3807 53.8424 78.3607 53.8554 78.3429C53.87 78.2992 53.888 78.2472 53.913 78.1944L53.9179 78.1837L53.9237 78.1729L54.0175 78.0128C54.0369 77.9846 54.0551 77.9601 54.0663 77.9454C54.0739 77.9321 54.0876 77.9109 54.1015 77.8878C54.1122 77.8699 54.126 77.8466 54.1425 77.8214C54.2446 77.6626 54.3738 77.5375 54.3622 77.5499L54.369 77.5411C54.4355 77.4171 54.5092 77.3281 54.5458 77.2862C54.5738 77.2364 54.6129 77.1827 54.6591 77.1251C54.7062 77.0048 54.7669 76.8867 54.829 76.7901L54.8436 76.7657C54.9404 76.6232 55.0387 76.5287 55.0712 76.4962ZM6.1249 74.9142C6.76786 74.9143 7.28896 75.4362 7.28896 76.0792C7.28884 76.644 6.887 77.1126 6.35342 77.2188V79.0645C6.38761 79.0877 6.42798 79.1148 6.47158 79.1476L6.70693 79.3477L6.71474 79.3556L6.72158 79.3643C6.79291 79.4371 6.85824 79.5139 6.8915 79.5528C6.91199 79.5768 6.92626 79.5938 6.93838 79.6075C6.94139 79.6109 6.944 79.6139 6.94619 79.6163C6.93708 79.6075 6.93324 79.6075 6.9999 79.6515L7.00381 79.6544C7.11012 79.7253 7.15199 79.7553 7.22549 79.8028L7.23623 79.8106L7.24795 79.8185C7.32605 79.8716 7.39724 79.9191 7.4667 79.9649L7.4706 79.9679L7.47353 79.9698C7.49118 79.974 7.51126 79.978 7.53115 79.9835C7.59568 80.0015 7.72428 80.0424 7.86513 80.129L7.87881 80.1368L7.89248 80.1456C7.91918 80.1631 7.94475 80.182 7.96865 80.2003C8.01027 80.2164 8.04616 80.2313 8.07412 80.2442H10.3378C10.9803 80.2446 11.5024 80.7658 11.5028 81.4083C11.5028 82.0512 10.9806 82.573 10.3378 82.5733H7.99599C7.93985 82.5734 7.67716 82.5829 7.39345 82.4884L7.37978 82.4835L7.36806 82.4786C7.30192 82.4548 7.24551 82.4294 7.20693 82.4112C7.18981 82.4032 7.17356 82.394 7.15908 82.3868C7.12873 82.3804 7.08656 82.3725 7.04189 82.3595C7.00659 82.3491 6.95326 82.3317 6.89052 82.3048L6.67763 82.1895L6.65713 82.1739L6.63369 82.1573C6.62757 82.1527 6.62206 82.1474 6.61611 82.1427C6.39492 82.0547 6.21228 81.9282 6.17959 81.9063V81.9044C6.09622 81.8493 6.01326 81.7942 5.93838 81.7433V81.7423C5.85735 81.6892 5.75934 81.6236 5.71181 81.5919V81.5909C5.62413 81.533 5.46416 81.4272 5.2997 81.2628L6.08388 80.4786L6.04677 80.5138L5.2997 81.2628L5.29189 81.255C5.22025 81.1819 5.15497 81.1041 5.12197 81.0655C5.10184 81.042 5.08903 81.0264 5.07705 81.0128L5.07509 81.0108L5.01455 80.9708L5.00967 80.9669L4.78896 80.8185L4.76748 80.8038L5.42275 79.8409L5.43642 79.8194L4.76748 80.8038C4.73536 80.782 4.66625 80.7352 4.59951 80.6837C4.57044 80.6613 4.52408 80.6242 4.4706 80.5743L4.29873 80.3868L4.28994 80.3741L5.16787 79.7286L5.22646 79.6847L4.28994 80.3741C4.0023 79.9828 4.02431 79.5681 4.02431 79.5265V76.8614C4.02432 76.7429 4.02665 76.4715 4.19131 76.1485L4.27138 76.0089C4.29164 75.9757 4.31278 75.9423 4.32509 75.9229C4.32902 75.9168 4.33292 75.9109 4.33584 75.9063C4.35827 75.8474 4.4738 75.5286 4.81045 75.3009L4.80849 75.2999C4.81446 75.2958 4.8221 75.293 4.82802 75.2892C4.83672 75.2835 4.8454 75.2761 4.85439 75.2706L4.85732 75.2735C4.87924 75.26 4.90147 75.2503 4.92177 75.2393C4.96549 75.201 5.01355 75.1607 5.06924 75.1251L5.07119 75.127C5.33547 74.9579 5.59679 74.9308 5.66787 74.9239C5.76865 74.9142 5.86803 74.9142 5.89248 74.9142H6.1249ZM6.74599 82.006L6.74795 82.003L6.79189 81.8712L6.74599 82.006ZM7.24209 81.1397L7.25576 81.1202L7.83291 80.1788L7.24209 81.1397ZM51.9657 74.7481C52.4205 74.2934 53.1584 74.2935 53.6132 74.7481C54.0371 75.1723 54.0652 75.8418 53.6981 76.2989C53.6855 76.3336 53.6726 76.3723 53.6542 76.4112L53.6552 76.4132C53.6538 76.4157 53.6507 76.4175 53.6493 76.42C53.6471 76.4246 53.6467 76.4311 53.6444 76.4356L53.6415 76.4337C53.6273 76.4623 53.6109 76.487 53.5976 76.5099C53.5959 76.514 53.5964 76.5194 53.5946 76.5235C53.5586 76.6062 53.4859 76.7401 53.3563 76.8751C53.3385 76.8999 53.3218 76.9243 53.3046 76.9454C53.3037 76.9472 53.3025 76.9495 53.3017 76.9513L53.2958 76.962L53.2909 76.9718C53.2236 77.0996 53.1476 77.1921 53.1054 77.2403C53.0636 77.288 53.0216 77.33 53.0126 77.339H53.0106V77.3409L53.0097 77.3419H53.0077V77.3438H53.0067V77.3448H53.0048V77.3468H53.0028V77.3487H53.0019V77.3497L52.9999 77.3517H52.9989V77.3526H52.997V77.3546H52.996V77.3556H52.994V77.3575H52.9931V77.3585H52.9911V77.3604H52.9901V77.3624H52.9882V77.3634H52.9862V77.3653H52.9853V77.3663H52.9833V77.3683H52.9823V77.3692H52.9804V77.3712H52.9794V77.3722H52.9774V77.3741H52.9765V77.3751H52.9745V77.377H52.9726V77.379H52.9716V77.38H52.9696V77.3819H52.9686V77.3829H52.9667V77.3849H52.9657V77.3858H52.9638C52.9613 77.39 52.9585 77.3952 52.956 77.3995C52.9452 77.4178 52.9299 77.4436 52.911 77.4727C52.863 77.5997 52.7986 77.7308 52.7226 77.8429L52.7216 77.8409C52.6926 77.8839 52.6638 77.9207 52.6444 77.9454C52.6437 77.9467 52.6433 77.9488 52.6425 77.9503C52.6363 77.9611 52.6228 77.9832 52.6093 78.006C52.5965 78.0274 52.5771 78.0572 52.5546 78.0909L52.5556 78.0929C52.4859 78.1972 52.4116 78.2758 52.3651 78.3243C52.3622 78.3295 52.3604 78.3367 52.3573 78.3419C52.3461 78.3611 52.3301 78.3895 52.3104 78.42L52.2831 78.4601L51.3427 77.797L51.3339 77.7921L52.2831 78.4601C52.2228 78.5456 52.1603 78.612 52.1073 78.6671C52.1044 78.6722 52.1025 78.6785 52.0995 78.6837C52.0883 78.7029 52.0724 78.732 52.0526 78.7628L51.0575 78.1231L51.0731 78.1339L52.0526 78.7628L52.0438 78.7755L52.036 78.7872L51.8915 78.9708C51.8488 79.0183 51.8134 79.0519 51.7948 79.0704C51.7373 79.1279 51.6571 79.2073 51.5419 79.3058L51.5321 79.3136L51.5253 79.3194L51.2382 79.5528C51.1564 79.6246 51.0694 79.7109 50.9638 79.8165L50.9579 79.8224C50.8605 79.9183 50.7772 80.0021 50.706 80.0733C50.6505 80.1289 50.5416 80.2417 50.4032 80.3507L50.4013 80.3487C50.3402 80.3973 50.2829 80.4419 50.245 80.4688C50.2175 80.4884 50.2114 80.4933 50.1923 80.5069C50.1868 80.5108 50.182 80.5132 50.1786 80.5157L50.0907 80.5948C49.6335 80.9682 48.9586 80.9419 48.5321 80.5157C48.0774 80.061 48.0776 79.324 48.5321 78.8692L48.7655 78.6642L48.8417 78.6095C48.8567 78.5988 48.885 78.5778 48.8954 78.5704C48.9304 78.5455 48.9464 78.5328 48.953 78.5274L48.9628 78.5206C48.964 78.5197 48.9683 78.5155 48.9804 78.504C48.9877 78.497 48.9974 78.4878 49.0106 78.4747C49.0255 78.4599 49.0385 78.4469 49.0595 78.4259C49.1308 78.3545 49.2191 78.2666 49.3231 78.1642C49.419 78.0682 49.5562 77.9301 49.7011 77.8028C49.8141 77.7036 49.9705 77.5813 50.0282 77.5352C50.0733 77.4967 50.1039 77.466 50.1298 77.4405C50.1323 77.4362 50.1349 77.4314 50.1376 77.4268C50.1516 77.4035 50.1696 77.3709 50.1933 77.336L50.1952 77.338C50.2658 77.233 50.344 77.1449 50.3798 77.1075C50.3842 77.0999 50.3904 77.0914 50.3954 77.0831C50.4094 77.0598 50.4276 77.0278 50.4511 76.9933H50.453C50.5225 76.8895 50.5927 76.8096 50.6376 76.7628C50.6413 76.7564 50.6462 76.7501 50.6503 76.7433L50.7089 76.6495C50.7232 76.6284 50.7389 76.6094 50.7519 76.5919C50.766 76.5498 50.7838 76.5001 50.8095 76.4464H50.8075C50.8439 76.3698 50.8817 76.3096 50.9081 76.2706C50.9337 76.2328 50.957 76.2012 50.9667 76.1886C50.9736 76.1764 50.983 76.1596 50.9931 76.1427C51.0041 76.1241 51.019 76.099 51.037 76.0714C51.131 75.9253 51.2367 75.8172 51.2685 75.7862C51.3374 75.6589 51.4102 75.569 51.4433 75.5313C51.4451 75.5293 51.4474 75.5275 51.4491 75.5255C51.4769 75.4775 51.5115 75.4235 51.5565 75.3683C51.6032 75.251 51.663 75.1363 51.7235 75.0421L51.7392 75.0177C51.8357 74.8756 51.9331 74.7807 51.9657 74.7481ZM55.2245 80.3917L54.2831 79.7511L54.2479 79.7286L55.2245 80.3917ZM55.7421 79.7061L54.7792 79.0528L55.3124 79.3956L54.7421 79.0284L55.7421 79.7061ZM55.037 78.5948L55.7616 79.0597L55.0233 78.5851L55.037 78.5948ZM56.0692 79.0567C56.0704 79.0531 56.0731 79.0493 56.0741 79.046C56.0781 79.0324 56.0809 79.0207 56.0829 79.0128C56.0833 79.0114 56.0835 79.01 56.0839 79.0089C56.0851 79.004 56.0858 78.9994 56.0858 78.9981C56.0849 79.0022 56.0778 79.0241 56.0692 79.0567ZM54.9354 78.795L54.9628 78.8038L53.8407 78.4024L54.9354 78.795ZM55.6464 78.7892L55.6444 78.7872L55.1503 78.4698L55.6464 78.7892ZM51.6659 78.3351L51.6649 78.3341L51.1776 78.003L51.1425 77.9806L51.6659 78.3351ZM30.4159 78.3233L30.0087 77.6573L29.9911 77.6319L30.4159 78.3233ZM56.662 78.2276C56.6633 78.2238 56.6661 78.2212 56.6669 78.2188C56.668 78.2151 56.6678 78.2114 56.6679 78.211C56.6673 78.213 56.6647 78.2189 56.662 78.2276ZM30.204 78.1642L29.9384 77.7726L29.911 77.7345L30.204 78.1642ZM56.7177 78.1417L56.7216 78.1397V78.1368C56.7203 78.1381 56.7189 78.1404 56.7177 78.1417ZM55.3925 78.0929L55.413 78.1017L54.8944 77.8429L55.3925 78.0929ZM51.9921 78.0382L51.4159 77.6466L51.3974 77.6349L51.9921 78.0382ZM52.6366 77.9561L51.6737 77.3028L52.6405 77.9474L51.581 77.2403L52.6366 77.9561ZM29.7733 77.8155L29.8583 77.9454L29.7108 77.7179L29.7733 77.8155ZM55.5448 77.9249L55.5311 77.9171L54.5253 77.4425L55.5448 77.9249ZM52.8124 77.6104C52.8133 77.6093 52.8153 77.6073 52.8173 77.6046L52.8183 77.6017C52.8139 77.6073 52.8134 77.6091 52.8124 77.6104ZM55.7294 77.5606L55.7567 77.5694L55.2265 77.38L55.7294 77.5606ZM54.5849 77.3683C54.5853 77.3663 54.5871 77.3635 54.5878 77.3604V77.3575C54.5867 77.362 54.5854 77.3659 54.5849 77.3683ZM52.9628 77.3106C52.9638 77.3073 52.9658 77.304 52.9667 77.3009C52.9722 77.2824 52.9773 77.2675 52.9794 77.2589C52.9807 77.2536 52.9804 77.249 52.9804 77.2472C52.9792 77.2513 52.9721 77.2752 52.9628 77.3106ZM54.744 77.0128C54.7426 77.0148 54.7411 77.0178 54.7392 77.0206C54.7474 77.0096 54.7533 77.0014 54.7558 76.9981L54.744 77.0128ZM51.2128 76.8253L51.2343 76.8331L51.2323 76.8311L50.7353 76.6534L51.2128 76.8253ZM6.12881 76.7813L6.13076 76.7823L6.1249 76.7716L5.89248 76.4093L5.69717 76.1046L6.12881 76.7813ZM6.50771 76.7413C6.50918 76.7376 6.51211 76.7348 6.51259 76.7335V76.7306C6.51179 76.7328 6.50943 76.7365 6.50771 76.7413ZM52.7665 76.6954L52.288 76.4435L52.2499 76.4249L52.7665 76.6954ZM53.5175 76.5811C53.5189 76.5778 53.5219 76.5754 53.5233 76.5724C53.5249 76.5686 53.5248 76.5633 53.5263 76.5597C53.5237 76.5666 53.5204 76.5736 53.5175 76.5811ZM53.6366 76.4024C53.6396 76.3938 53.6443 76.3854 53.6464 76.379C53.648 76.3737 53.6487 76.3669 53.6503 76.3614C53.6489 76.3661 53.6435 76.381 53.6366 76.4024ZM53.6132 76.3927L53.6161 76.3917V76.3888C53.615 76.3899 53.6142 76.3914 53.6132 76.3927ZM52.1513 76.0401H52.1542L52.1561 76.0411H52.1522L52.4394 76.1759L52.4257 76.169L52.1542 76.0401L52.1083 75.9923L52.1054 75.9913L52.1513 76.0401ZM51.3397 75.7686C51.3352 75.7819 51.3315 75.7965 51.329 75.8048C51.3296 75.8028 51.3384 75.7793 51.3505 75.7442C51.347 75.7534 51.3423 75.7614 51.3397 75.7686ZM24.3983 64.5431L24.3964 64.546C24.3969 64.5451 24.3971 64.5431 24.3983 64.5411V64.5431ZM21.0712 55.7735C21.5371 55.7737 21.9388 56.048 22.1249 56.4435V56.1739L25.0536 56.4376L25.1698 56.4542C25.6152 56.5401 25.9571 56.8766 26.0692 57.2999C26.4005 57.5052 26.6239 57.8688 26.6239 58.2872C26.6239 58.2907 26.6236 58.3141 26.6229 58.339C26.6222 58.3644 26.6197 58.409 26.6132 58.463C26.6084 58.5025 26.5878 58.6597 26.4979 58.8468C26.4769 58.9118 26.4476 58.986 26.4052 59.0626C26.3888 59.1163 26.3717 59.1713 26.3515 59.2227L26.3436 59.2442L26.3349 59.2638C26.3034 59.3355 26.269 59.3932 26.2421 59.4386C26.2272 59.4872 26.1956 59.5913 26.1601 59.6895L26.1581 59.6886C26.1098 59.8246 26.0522 59.9606 26.0038 60.0645L25.9979 60.0753L25.9931 60.086C25.9648 60.1435 25.9376 60.1965 25.9179 60.2345C25.8956 60.2772 25.8852 60.2966 25.8778 60.3116L25.8739 60.3224L25.8671 60.3311C25.8663 60.3328 25.8666 60.3351 25.8661 60.336L25.8612 60.3477L25.8603 60.3556C25.8578 60.3628 25.8081 60.5186 25.7489 60.6632L25.7431 60.6768C25.7121 60.7497 25.674 60.8306 25.6503 60.8819C25.6226 60.942 25.5987 60.9954 25.5761 61.0499C25.5252 61.1727 25.4711 61.3239 25.4081 61.502L25.4061 61.505C25.3413 61.687 25.2765 61.8658 25.202 62.0704L25.2001 62.0782C25.121 62.2912 25.0473 62.4883 25.0048 62.6222V62.6251C24.9855 62.6851 24.9714 62.7341 24.956 62.7892C24.9429 62.8357 24.9181 62.922 24.8876 63.0089L24.8847 63.0206C24.8533 63.1072 24.8149 63.1923 24.8026 63.2208C24.7868 63.2576 24.7753 63.2889 24.7606 63.3302C24.721 63.4486 24.6677 63.6355 24.6259 63.7872L24.6229 63.797C24.6011 63.8735 24.5878 63.9191 24.58 63.9493C24.5729 63.9766 24.573 63.9762 24.5751 63.964C24.5773 63.9512 24.5795 63.9365 24.5751 63.9776C24.5735 63.9923 24.5695 64.0279 24.5634 64.0675C24.5572 64.1074 24.5461 64.1713 24.5243 64.2462L24.5224 64.2442C24.4836 64.3783 24.4346 64.4782 24.4101 64.5235C24.4062 64.5306 24.4011 64.5367 24.3983 64.5411C24.4029 64.5323 24.415 64.5079 24.4296 64.4747C24.4313 64.4708 24.4346 64.4672 24.4364 64.463C24.4378 64.4596 24.438 64.4556 24.4394 64.4522C24.4745 64.3662 24.4917 64.2914 24.5009 64.2384L23.8856 64.0597H22.2968C22.3091 64.0846 22.3187 64.103 22.3241 64.1124C22.3172 64.1011 22.3055 64.0825 22.2938 64.0616C22.206 64.0615 22.1916 64.0599 22.1894 64.0597V63.8067C22.1591 63.7092 22.1396 63.6243 22.1327 63.5597C22.1238 63.4757 22.1249 63.4014 22.1249 63.3985V58.4444C22.104 58.4979 22.0827 58.5456 22.0673 58.5782C22.0644 58.5844 22.0614 58.5908 22.0585 58.5968V58.7511C22.0585 58.7799 22.076 59.127 21.9511 59.4493L21.9481 59.4474C21.9246 59.5084 21.8993 59.5626 21.8749 59.6085C21.8689 59.7284 21.8514 59.9042 21.7733 60.1056L21.7704 60.1134L20.7724 59.7169L20.6874 59.6837L21.7704 60.1134C21.7486 60.1685 21.7255 60.2164 21.7128 60.2433C21.7091 60.251 21.7054 60.2596 21.702 60.2667V60.5411C21.7027 60.5672 21.7237 60.9233 21.5321 61.2745L21.5263 61.2852V61.4474C21.5263 61.5335 21.5297 61.7749 21.4159 62.0675L21.4169 62.0694C21.3955 62.1245 21.3742 62.1734 21.3583 62.2071C21.3554 62.2133 21.3514 62.2197 21.3485 62.2257V62.9845C21.3485 63.6276 20.8276 64.1495 20.1845 64.1495C19.5815 64.1495 19.0859 63.6918 19.0263 63.1046L19.0204 62.9845V62.0763C19.0204 61.9787 19.0215 61.7612 19.1259 61.4864L19.1356 61.4591L20.2128 61.9005L20.2401 61.9102L19.1356 61.4591C19.1561 61.4091 19.1784 61.3648 19.1933 61.3341C19.1949 61.3307 19.1956 61.3267 19.1972 61.3233V61.17C19.1969 61.1387 19.1813 60.79 19.3114 60.463C19.3312 60.4131 19.351 60.3661 19.3729 60.3243V60.2618C19.3729 60.1855 19.3681 59.9243 19.452 59.6388H19.4511C19.4524 59.6342 19.4536 59.6296 19.455 59.6251C19.4555 59.6232 19.4564 59.6211 19.4569 59.6192H19.4579C19.4904 59.5114 19.5285 59.4182 19.5565 59.3565C19.5622 59.2261 19.5816 59.0135 19.661 58.8087L20.6913 59.2081L20.661 59.1944L19.661 58.8087L19.664 58.8018L19.7255 58.6651C19.727 58.6623 19.7279 58.6592 19.7294 58.6563V58.4757L19.7421 58.2393C19.7549 58.1319 19.7802 57.9988 19.8368 57.8526L19.8417 57.8399C19.8623 57.7884 19.884 57.7431 19.8993 57.711C19.9018 57.7058 19.9046 57.6996 19.9071 57.6944V56.9386C19.9071 56.2955 20.4282 55.7737 21.0712 55.7735ZM13.5224 51.2364C15.4414 52.5903 19.2203 55.561 18.9843 56.6075C15.5887 60.7623 11.406 62.1272 7.76357 64.2325L9.82998 54.8175L13.5224 51.2364ZM24.5028 64.2267C24.5036 64.2218 24.507 64.2174 24.5077 64.213C24.5123 64.1816 24.515 64.1524 24.5165 64.128C24.5173 64.1159 24.5172 64.1039 24.5175 64.0929V64.0616L23.9071 64.0597L24.5028 64.2267ZM33.7821 51.5675C34.2401 51.3564 34.7744 51.3921 35.206 51.6544L37.621 53.1143C37.9437 53.31 38.1854 53.6176 38.2987 53.9776L39.8778 59.0167C40.1449 59.866 39.6481 60.7806 38.7802 60.9747C35.9232 61.6149 32.2063 61.8309 29.9989 56.8624V56.9268C29.9989 57.0281 30.0014 57.2468 29.9101 57.5245L29.911 57.5265C29.8928 57.5819 29.874 57.6322 29.8593 57.669C29.8461 57.7019 29.8325 57.7336 29.8222 57.7579V58.0206C29.8222 58.0736 29.8343 58.4069 29.7323 58.713L29.7304 58.712C29.7033 58.7936 29.6705 58.8659 29.6415 58.9239C29.6409 59.0389 29.6357 59.239 29.5546 59.4825C29.5363 59.5373 29.5172 59.5864 29.5048 59.6173C29.4982 59.6336 29.4913 59.6497 29.4862 59.6622C29.4807 59.6759 29.4766 59.6872 29.4726 59.6974C29.4707 59.702 29.4681 59.7064 29.4667 59.7101C29.4666 59.7137 29.4668 59.7179 29.4667 59.7227C29.4664 59.7411 29.4657 59.7618 29.4657 59.7931V60.1925C29.4641 60.3159 29.4463 60.5704 29.3261 60.8243L29.3212 60.836L29.3153 60.8468L29.2899 60.8927V61.1817C29.29 61.2815 29.2938 61.506 29.2001 61.7872C29.1821 61.8412 29.1628 61.89 29.1483 61.9259C29.1358 61.9568 29.1222 61.9873 29.1122 62.0108V62.9864C29.1117 63.6292 28.59 64.1505 27.9472 64.1505C27.3045 64.1502 26.7836 63.629 26.7831 62.9864V61.92C26.7831 61.8269 26.7829 61.6159 26.8729 61.3458L26.8759 61.3351C26.8937 61.2834 26.9135 61.2359 26.9276 61.2013C26.9397 61.1719 26.9513 61.1415 26.9608 61.1192V60.8575L26.9667 60.6007C26.9767 60.4739 27.0013 60.3168 27.0526 60.1642H27.0517C27.0529 60.1606 27.0553 60.1569 27.0565 60.1534C27.0571 60.1514 27.0569 60.1485 27.0575 60.1466H27.0595C27.083 60.0789 27.1104 60.0186 27.1366 59.9659V59.7931C27.1366 59.6947 27.1337 59.4375 27.205 59.1563H27.203C27.2377 59.0176 27.2845 58.8971 27.3104 58.8321C27.3129 58.8259 27.3159 58.8194 27.3183 58.8136C27.319 58.6978 27.3268 58.4506 27.4052 58.2149L27.4931 58.0079V57.6964L27.5019 57.463C27.5124 57.3594 27.535 57.2318 27.5819 57.0909L27.5849 57.0802L27.6366 56.9474C27.6487 56.9179 27.6605 56.8873 27.6698 56.8653V55.8946C27.6699 55.2515 28.1918 54.7306 28.8349 54.7306C28.9875 54.7307 29.1329 54.761 29.2665 54.8145C29.2376 54.7137 29.2066 54.6117 29.1786 54.5079C28.9767 53.9456 31.8201 52.474 33.7821 51.5675ZM25.7958 59.5958C25.7935 59.5967 25.7913 59.5982 25.7899 59.5987C25.7911 59.5982 25.7932 59.5984 25.7948 59.5977C25.7973 59.5967 25.7996 59.5926 25.8036 59.5909C25.8004 59.5922 25.798 59.5949 25.7958 59.5958ZM26.2069 59.4991C26.1991 59.5113 26.204 59.5032 26.1991 59.5108C26.2005 59.5086 26.205 59.5038 26.2089 59.4972L26.2069 59.4962V59.4991ZM28.8046 57.1642L28.9882 57.2227L28.0966 56.9268L28.8046 57.1642Z" fill="#B3B3B3"/>
<path d="M12.999 68.3148C15.0332 68.3149 16.6826 69.7602 16.6826 71.5424C16.6824 73.3245 15.033 74.7689 12.999 74.769C10.9649 74.769 9.31562 73.3245 9.31543 71.5424C9.31543 69.7601 10.9648 68.3148 12.999 68.3148ZM33.1826 68.3148C35.2168 68.3148 36.8662 69.7601 36.8662 71.5424C36.866 73.3245 35.2167 74.769 33.1826 74.769C31.1487 74.7687 29.5002 73.3244 29.5 71.5424C29.5 69.7603 31.1486 68.3151 33.1826 68.3148Z" fill="#FFAFA3"/>
<path d="M47.2023 69.5352C49.6282 69.0449 51.9941 70.5489 52.6017 72.9195L52.6548 73.1515C52.7543 73.6441 53.0814 74.2009 54.124 74.7344L54.6168 74.9618L55.1596 75.1665C56.4148 75.5922 57.8144 75.7589 58.8183 75.7609C61.5233 75.3608 62.2417 74.1893 62.4239 73.7291C62.5682 73.3614 62.5504 73.109 62.5194 72.9725C62.5047 72.9075 62.4829 72.8641 62.4709 72.8406C62.0551 72.4241 62.013 71.7521 62.3921 71.285C62.7973 70.7856 63.5302 70.7099 64.0296 71.1151C64.3932 71.4103 64.6658 71.9132 64.7892 72.457C64.9247 73.0537 64.9045 73.7832 64.5891 74.5843V74.5873C64.0524 75.9428 62.5381 77.5903 59.073 78.0792L58.9957 78.0899L58.9183 78.0914C57.5408 78.1015 55.4921 77.8524 53.7176 77.1088C51.8655 76.3341 50.6923 75.2028 50.3713 73.6139C50.1181 72.3704 48.9066 71.5658 47.6633 71.8172L47.6648 71.8187C46.4213 72.0714 45.6174 73.2841 45.8696 74.5267L45.9454 74.8648C46.7802 78.3071 49.4095 80.2843 51.9406 81.3452C54.5343 82.4322 57.3688 82.7274 59.2277 82.6795L59.3414 82.6765L59.4551 82.6613L59.7492 84.9721L59.5779 84.9948L59.5218 85.0009L59.2913 85.0069C57.3224 85.0579 54.4035 84.7774 51.5994 83.7166L51.04 83.4937C50.1661 83.1275 49.2514 82.6474 48.3668 82.0397C46.571 81.851 45.0545 81.7003 43.6634 81.5348C41.6069 81.2907 39.4082 82.2198 37.3619 83.515C35.935 84.417 34.2239 85.147 32.5509 85.3208C30.8533 85.4972 29.0726 85.0993 27.8187 83.5771C27.1714 82.7923 26.7765 81.9716 26.63 81.1375C25.617 81.2346 24.7144 81.2785 23.4534 81.2785C20.3899 81.2785 17.4477 81.0011 14.8715 80.3172C13.6555 81.5168 11.6654 82.6152 9.7072 83.1844C8.56357 83.5168 7.33877 83.698 6.19558 83.5741C5.04161 83.449 3.8979 83.001 3.08122 82.0109C2.26292 81.0177 1.89161 79.9408 1.94556 78.8586C1.9984 77.8007 2.45095 76.8623 3.04635 76.0945C3.90847 74.9827 5.16945 74.0986 6.41544 73.5608C6.04136 72.4881 5.84839 71.3027 5.84836 70.0053C5.84836 67.5081 5.84632 65.613 6.39421 62.938C6.67318 59.8537 7.52831 55.2483 10.1606 51.68C11.137 50.3597 12.853 49.7757 14.4318 50.2198C15.3985 50.492 16.5751 50.9649 17.6614 51.9135C18.6299 52.7594 19.4775 53.9415 20.0586 55.5843C21.0343 55.3183 22.0901 54.9961 23.4534 54.996C24.8876 54.996 26.2156 55.3069 27.4093 55.6207C27.9631 54.0482 28.7556 52.8891 29.6685 52.0408C30.7725 51.015 31.987 50.5042 32.9982 50.2198L33.2954 50.1485C34.7863 49.8521 36.3643 50.4378 37.2664 51.7103C37.7364 52.3731 38.1364 53.0742 38.4824 53.7921H39.7788C41.0185 53.7878 42.5135 53.5754 44.2108 53.3311L45.4753 53.131C45.9437 53.0528 46.4561 52.9638 47.0022 52.8717C48.0831 52.6894 49.2803 52.4937 50.4714 52.335C51.6602 52.1766 52.8639 52.0518 53.9557 52.0181C55.01 51.9855 56.0487 52.0348 56.8911 52.2637C60.3945 53.118 63.1704 54.8227 65.1653 57.2567C67.0937 59.6098 68.2374 62.5794 68.6663 65.972C71.8793 68.799 72.4924 73.4144 71.0286 77.1255C69.3933 81.2706 65.3866 84.2595 59.7492 84.9721L59.4551 82.6613C64.4094 82.0353 67.5938 79.4846 68.8619 76.2704C70.0692 73.2091 69.437 69.5935 66.9332 67.555L66.915 67.5398L66.8968 67.5232L67.6686 66.6513L67.6762 66.6392L66.8968 67.5232C66.6089 67.2684 66.4313 66.916 66.3919 66.5422C66.034 63.3681 65.0094 60.7414 63.364 58.7335C61.723 56.7312 59.4078 55.2739 56.3407 54.5259L56.321 54.5214L56.3028 54.5168L56.1012 54.4668C55.6033 54.3613 54.9042 54.32 54.0285 54.347C53.0481 54.3773 51.931 54.4892 50.7792 54.6427C49.63 54.7958 48.4655 54.9872 47.3888 55.1688C46.3229 55.3486 45.3241 55.523 44.5444 55.6358C42.898 55.8728 41.2245 56.116 39.7879 56.121H39.4073C39.5873 56.6792 39.742 57.2366 39.8743 57.7859C40.0249 58.411 39.6411 59.0406 39.0162 59.1914C38.3909 59.342 37.7612 58.9569 37.6106 58.3317C37.1591 56.4575 36.4625 54.6039 35.3666 53.0582C34.9906 52.5278 34.284 52.2781 33.6289 52.4623C32.8516 52.681 32.0074 53.0485 31.2545 53.7481C30.5084 54.4414 29.7859 55.5216 29.3425 57.2734L29.338 57.2719C29.1987 57.8288 28.7013 58.1892 28.1659 58.1892H28.1371C28.1204 58.1888 28.0896 58.1881 28.0522 58.1846C28.0196 58.1816 27.9512 58.1729 27.8627 58.1498C26.2613 57.7367 24.9433 57.3249 23.4534 57.3249C22.1321 57.325 21.52 57.6601 19.9297 58.0254L19.913 58.0285C19.0636 58.2101 18.2661 57.6828 18.0374 56.9049L18.0359 56.8989L17.8509 56.3257C17.3952 55.054 16.7701 54.2268 16.13 53.6677C15.4822 53.1021 14.7703 52.7677 14.0907 52.5488L13.8011 52.4623C13.1512 52.2795 12.434 52.5229 12.0346 53.0612L12.0361 53.0628C9.79695 56.0982 8.9893 60.1598 8.71861 63.1033C8.71781 63.1439 8.71466 63.1849 8.70951 63.2261C8.70781 63.2398 8.7039 63.2529 8.70193 63.2656C8.70144 63.2717 8.70102 63.279 8.70041 63.2868C8.69857 63.3103 8.69629 63.345 8.69283 63.3808C8.6839 63.4727 8.65922 63.5593 8.63067 63.6431C8.18186 65.94 8.17731 67.5967 8.17731 70.0053C8.17735 71.7213 8.58804 73.0863 9.2872 74.184C9.98974 75.2869 11.0261 76.1852 12.3728 76.8966C15.0987 78.3365 18.9825 78.9495 23.4534 78.9496C24.8322 78.9496 25.7329 78.8916 26.9029 78.7646C27.0299 78.4635 27.1867 78.1789 27.3669 77.914C28.3681 76.4422 30.1244 75.4495 31.7109 75.0771C32.3368 74.9304 32.9633 75.3186 33.1104 75.9444C33.2573 76.5703 32.8689 77.1967 32.2431 77.3439C31.0845 77.6158 29.8928 78.3416 29.2925 79.224C29.0064 79.6448 28.8748 80.069 28.8937 80.4931C28.9127 80.9149 29.086 81.4536 29.6155 82.0958L28.5586 82.9676L28.7178 82.8372L29.617 82.0973C30.2277 82.8384 31.1278 83.1282 32.3098 83.0055C33.5167 82.8801 34.8845 82.3246 36.1171 81.5454C38.2751 80.1795 41.0557 78.8799 43.9394 79.2225C44.4598 79.2844 44.9976 79.3405 45.5633 79.4014C44.7305 78.3015 44.0628 76.9866 43.6831 75.4228L43.5876 74.9891C43.0791 72.4838 44.6997 70.0451 47.2008 69.5367L47.2023 69.5352ZM7.46468 75.6487C6.51399 76.0355 5.51512 76.7115 4.88707 77.5213C4.49533 78.0264 4.29417 78.5201 4.27147 78.9753C4.25009 79.4061 4.38004 79.925 4.87645 80.528C5.20164 80.9223 5.70996 81.1789 6.44576 81.2588C7.19267 81.3398 8.09866 81.2264 9.05673 80.948C10.2643 80.597 11.4111 80.0263 12.2818 79.4302C11.9396 79.2817 11.6066 79.1252 11.2856 78.9556C9.73488 78.1365 8.41713 77.0534 7.46468 75.6487ZM6.40937 62.8653C6.40839 62.87 6.40777 62.8772 6.40634 62.885C6.40825 62.8738 6.41019 62.8627 6.41241 62.8516C6.41152 62.8555 6.41044 62.8601 6.40937 62.8653ZM28.175 56.9777L27.0864 56.7017L28.1644 56.9762L28.175 56.9777L28.2129 56.9883L28.2372 56.9929L28.175 56.9777Z" fill="#1A1A1A"/>
<path d="M12.8788 54.7997C13.1552 54.4241 13.6464 54.2564 14.0966 54.3837C14.6479 54.5392 15.8428 55.6155 16.5244 56.7782C16.8007 57.2487 16.4745 57.7873 15.9482 57.9286C14.7528 58.2484 13.7948 58.6988 12.6972 59.4999C12.0126 59.9981 11.12 59.5078 11.3369 58.6884C11.7172 57.2444 12.2826 55.6071 12.8788 54.7997ZM34.0351 54.3837C34.4853 54.2564 34.9765 54.4241 35.2529 54.7997C35.8491 55.6071 36.4135 57.2444 36.7939 58.6884C37.0109 59.5079 36.1191 59.998 35.4345 59.4999C34.3368 58.6987 33.3781 58.2484 32.1826 57.9286C31.6565 57.7871 31.3311 57.2485 31.6074 56.7782C32.2889 55.6154 33.4839 54.539 34.0351 54.3837Z" fill="#FFAFA3"/>
<path d="M23.2292 73.75C23.658 73.75 24.0056 74.0976 24.0056 74.5263C24.0056 74.9551 23.658 75.3026 23.2292 75.3026H21.7373C21.3085 75.3026 20.9609 74.9551 20.9609 74.5263C20.9609 74.0976 21.3085 73.75 21.7373 73.75H23.2292Z" fill="#1A1A1A"/>
<path d="M38.7194 52.2318C42.109 51.6282 44.5549 51.8955 45.65 52.2162L45.8502 52.2806L45.9577 52.3246C46.2021 52.4398 46.4006 52.6373 46.5162 52.8841C46.7617 53.4088 46.961 54.0967 47.1295 54.8978L50.4606 53.5658H57.4469L62.5045 55.7328L62.528 55.6127C62.6071 55.296 62.8166 55.0247 63.108 54.8685C63.4411 54.6903 63.8404 54.6841 64.1784 54.8529C66.0575 55.7925 67.8161 57.6368 68.6686 61.0463C68.7104 61.2133 68.715 61.3881 68.6813 61.557C67.8851 65.5378 66.3897 69.4122 63.983 76.4554C63.8446 76.8604 63.4951 77.1574 63.0729 77.2279L58.4147 78.0043C58.021 78.0697 57.621 77.9288 57.3551 77.6312C57.1621 77.415 57.0604 77.1376 57.0602 76.8549H55.1188L48.0797 70.5199C48.0816 74.6881 47.978 78.828 47.8463 82.016C47.8371 82.2389 47.7646 82.4555 47.6364 82.6381C47.1256 83.365 46.2272 83.609 45.5787 83.7142C44.8509 83.8323 44.0035 83.8378 43.1735 83.7904C41.5044 83.695 39.6863 83.371 38.5475 83.1009C38.0823 82.9906 37.7319 82.6073 37.6637 82.1341C37.5957 81.6607 37.8243 81.1933 38.2399 80.9564C38.5146 80.7996 38.8162 80.4839 39.0993 79.9008C39.3819 79.3182 39.6116 78.5373 39.7789 77.5658C40.1138 75.6212 40.1658 73.0966 40.0221 70.2943C39.7353 64.7027 38.6842 58.2384 37.7799 53.6009C37.7202 53.2948 37.7863 52.9774 37.9625 52.7201C38.139 52.4626 38.4121 52.2865 38.7194 52.2318Z" fill="#14AE5C"/>
<path d="M46.124 79.7544C46.5522 79.755 46.8994 80.1024 46.8994 80.5307C46.8992 80.9589 46.5521 81.3055 46.124 81.3061C45.5987 81.3061 45.0716 81.3244 44.5947 81.3901C44.2182 81.442 43.8112 81.4332 43.5215 81.437C43.1968 81.4412 42.9632 81.4576 42.7725 81.5141C42.2345 81.6745 41.7152 81.6694 41.3018 81.6694C40.8734 81.6693 40.5259 81.3213 40.5254 80.893C40.5254 80.4643 40.8731 80.1167 41.3018 80.1167C41.7545 80.1167 42.0434 80.1117 42.3281 80.0268C42.7423 79.9036 43.1646 79.8886 43.5 79.8842C43.8708 79.8794 44.1312 79.8858 44.3828 79.851C44.9648 79.7708 45.5749 79.7544 46.124 79.7544ZM46.124 75.8335C46.5522 75.8341 46.8993 76.1816 46.8994 76.6098C46.8994 77.0382 46.5522 77.3855 46.124 77.3862C45.5987 77.3862 45.0716 77.4045 44.5947 77.4702C44.2182 77.5221 43.8112 77.5133 43.5215 77.5171C43.1968 77.5213 42.9632 77.5377 42.7725 77.5942C42.2345 77.7545 41.7152 77.7485 41.3018 77.7485C40.8733 77.7484 40.5257 77.4006 40.5254 76.9721C40.5255 76.5436 40.8732 76.1958 41.3018 76.1958C41.7544 76.1958 42.0434 76.1917 42.3281 76.1069C42.7423 75.9837 43.1646 75.9687 43.5 75.9643C43.8708 75.9595 44.1312 75.9659 44.3828 75.9311C44.9648 75.8509 45.5749 75.8335 46.124 75.8335ZM58.6914 71.6206C58.8599 71.2267 59.316 71.0434 59.71 71.2114C60.09 71.3738 60.3157 71.464 60.5635 71.4858C60.9781 71.5216 61.3521 71.6659 61.6357 71.7817C61.9546 71.912 62.1577 72.0041 62.3711 72.0591C62.8992 72.1945 63.42 72.3967 63.8818 72.5932C64.276 72.7613 64.4598 73.2174 64.292 73.6118C64.124 74.0061 63.6679 74.1888 63.2734 74.021C62.8382 73.8358 62.3999 73.6696 61.9844 73.563L62.1582 72.8852L61.9834 73.562C61.6365 73.4726 61.2857 73.314 61.0488 73.2173C60.7772 73.1063 60.5917 73.0466 60.4307 73.0327C59.8967 72.986 59.4464 72.7879 59.1006 72.6401C58.7065 72.4717 58.5232 72.0147 58.6914 71.6206ZM46.124 71.9135C46.5522 71.9142 46.8994 72.2616 46.8994 72.6899C46.8992 73.1181 46.5521 73.4656 46.124 73.4663C45.5988 73.4663 45.0716 73.4836 44.5947 73.5493C44.2182 73.6012 43.8112 73.5924 43.5215 73.5962C43.1968 73.6004 42.9631 73.6168 42.7725 73.6733C42.2345 73.8337 41.7152 73.8286 41.3018 73.8286C40.8734 73.8285 40.5259 73.4805 40.5254 73.0522C40.5254 72.6235 40.8731 72.2759 41.3018 72.2758C41.7545 72.2758 42.0433 72.2709 42.3281 72.186C42.7423 72.0628 43.1646 72.0478 43.5 72.0434C43.8708 72.0386 44.1312 72.045 44.3828 72.0102C44.9648 71.93 45.5749 71.9135 46.124 71.9135ZM60.8896 68.3413C61.059 67.9477 61.5154 67.766 61.9092 67.935C62.2142 68.066 62.3404 68.1113 62.4805 68.1128L62.4785 68.1147C62.8713 68.1174 63.2116 68.2448 63.4404 68.3374C63.7113 68.447 63.8352 68.505 63.9736 68.5346C64.423 68.6308 64.8574 68.7971 65.2275 68.9546C65.6216 69.1225 65.8043 69.5769 65.6367 69.9712C65.4689 70.3656 65.0146 70.5499 64.6201 70.3823C64.2823 70.2386 63.9546 70.1185 63.6494 70.0532C63.3379 69.9866 63.0254 69.8438 62.8574 69.7758C62.6475 69.691 62.5434 69.666 62.4678 69.6655H62.4648C61.966 69.6604 61.5612 69.4747 61.2959 69.3608C60.9022 69.1915 60.7206 68.7351 60.8896 68.3413ZM46.124 67.9926C46.5522 67.9933 46.8993 68.3407 46.8994 68.769C46.8994 69.1974 46.5522 69.5447 46.124 69.5454C45.5988 69.5454 45.0716 69.5627 44.5947 69.6284C44.2182 69.6803 43.8113 69.6725 43.5215 69.6762C43.1968 69.6804 42.9631 69.6969 42.7725 69.7534C42.2345 69.9137 41.7152 69.9077 41.3018 69.9077C40.8733 69.9076 40.5257 69.5597 40.5254 69.1313C40.5255 68.7027 40.8731 68.355 41.3018 68.3549C41.7544 68.3549 42.0434 68.3509 42.3281 68.2661C42.7423 68.1429 43.1646 68.1279 43.5 68.1235C43.8708 68.1187 44.1312 68.1251 44.3828 68.0903C44.9648 68.0101 45.5749 67.9926 46.124 67.9926ZM60.8887 64.269C61.0573 63.8753 61.5133 63.6917 61.9072 63.8598C62.3243 64.0383 62.5904 64.1479 62.8848 64.1811L62.8838 64.1831C63.3142 64.231 63.7091 64.381 64.0195 64.5083C64.3626 64.649 64.5985 64.7562 64.8438 64.8227C65.4126 64.9765 65.9794 65.1996 66.4844 65.4155C66.8782 65.5839 67.0623 66.0401 66.8945 66.4341C66.7259 66.8282 66.2682 67.0118 65.874 66.8432C65.392 66.6371 64.9022 66.4473 64.4375 66.3217C64.0699 66.2221 63.6976 66.0547 63.4297 65.9448C63.1292 65.8216 62.9085 65.747 62.7119 65.7251H62.7109L62.5049 65.6948C62.0348 65.61 61.6307 65.4301 61.2979 65.2876C60.904 65.1189 60.7205 64.663 60.8887 64.269ZM46.124 64.0727C46.5522 64.0734 46.8994 64.4207 46.8994 64.8491C46.8992 65.2773 46.5521 65.6248 46.124 65.6255C45.5988 65.6255 45.0716 65.6427 44.5947 65.7085C44.2182 65.7604 43.8112 65.7516 43.5215 65.7553C43.1968 65.7595 42.9631 65.776 42.7725 65.8325C42.2345 65.9929 41.7152 65.9878 41.3018 65.9878C40.8734 65.9877 40.5259 65.6397 40.5254 65.2114C40.5254 64.7827 40.8731 64.4351 41.3018 64.435C41.7545 64.435 42.0433 64.43 42.3281 64.3452C42.7423 64.222 43.1646 64.207 43.5 64.2026C43.8708 64.1978 44.1312 64.2042 44.3828 64.1694C44.9648 64.0892 45.5749 64.0727 46.124 64.0727ZM62.9443 60.5815C63.1119 60.1872 63.5665 60.0032 63.9609 60.1704C64.323 60.3241 64.518 60.4018 64.7344 60.4165L64.7334 60.4174C65.1407 60.4442 65.5042 60.5819 65.7715 60.6909C66.074 60.8142 66.2529 60.8961 66.4434 60.9438C66.9478 61.0673 67.445 61.2587 67.8789 61.4428C68.2733 61.6104 68.4573 62.0669 68.29 62.4614C68.1225 62.8557 67.6669 63.0395 67.2725 62.8725C66.9671 62.7429 66.6619 62.6235 66.3672 62.5327L66.0752 62.4526H66.0732C65.7389 62.3697 65.4007 62.2165 65.1846 62.1284C64.9949 62.0511 64.8566 62.0027 64.7412 61.9799L64.6318 61.9663L64.4395 61.9448C64.0017 61.8819 63.6324 61.7171 63.3545 61.5991C62.9601 61.4314 62.7768 60.976 62.9443 60.5815ZM45.5215 60.0591C45.9497 60.0597 46.2969 60.4071 46.2969 60.8354C46.2968 61.2637 45.9496 61.6111 45.5215 61.6118C44.9962 61.6118 44.4691 61.6291 43.9922 61.6948C43.6157 61.7467 43.2087 61.7379 42.9189 61.7417C42.5943 61.7459 42.3606 61.7623 42.1699 61.8188C41.631 61.9795 41.1097 61.9721 40.6992 61.9721C40.2708 61.972 39.9232 61.6242 39.9229 61.1958C39.923 60.7672 40.2707 60.4195 40.6992 60.4194C41.1549 60.4194 41.4417 60.4161 41.7256 60.3315C42.1397 60.2083 42.5621 60.1933 42.8975 60.1889C43.2683 60.1841 43.5286 60.1905 43.7803 60.1557C44.3623 60.0755 44.9724 60.0591 45.5215 60.0591ZM45.5215 56.8647C45.9496 56.8654 46.2967 57.2129 46.2969 57.6411C46.2969 58.0694 45.9497 58.4168 45.5215 58.4174C44.9962 58.4174 44.4691 58.4357 43.9922 58.5014C43.6157 58.5534 43.2087 58.5446 42.9189 58.5483C42.5943 58.5525 42.3606 58.569 42.1699 58.6255C41.632 58.7858 41.1127 58.7798 40.6992 58.7798C40.2708 58.7797 39.9232 58.4318 39.9229 58.0034C39.9231 57.5749 40.2707 57.2271 40.6992 57.227C41.1519 57.227 41.4408 57.223 41.7256 57.1382C42.1397 57.015 42.5621 56.9999 42.8975 56.9956C43.2683 56.9908 43.5286 56.9971 43.7803 56.9624C44.3623 56.8822 44.9723 56.8647 45.5215 56.8647Z" fill="#009951"/>
<path d="M38.7189 52.2315C42.3334 51.5878 44.8747 51.9348 45.8497 52.2804C46.0696 52.3584 46.2598 52.5 46.3966 52.6847L46.5148 52.8839L46.5411 52.9483C46.6916 52.9227 46.8459 52.8985 47.0021 52.8722C48.0829 52.6899 49.2809 52.4938 50.4718 52.3351C51.6605 52.1767 52.8646 52.0524 53.9562 52.0187C55.0103 51.9861 56.0494 52.0349 56.8917 52.2638C59.2075 52.8286 61.2037 53.7672 62.8683 55.0401C62.8651 55.0431 62.8627 55.0469 62.8595 55.0499C62.9339 54.9796 63.0172 54.9177 63.1095 54.8683C63.4423 54.6904 63.8402 54.6842 64.1779 54.8526C66.0571 55.7923 67.8166 57.6372 68.6691 61.047C68.7108 61.2141 68.7146 61.3888 68.6808 61.5577C67.8846 65.5382 66.39 69.4125 63.9835 76.4552C63.845 76.8601 63.4946 77.1573 63.0724 77.2276L61.3097 77.5206C60.6746 77.763 59.9345 77.9577 59.0734 78.0792L58.9962 78.0899L58.9181 78.0919C57.5407 78.1019 55.492 77.8528 53.7179 77.1095C51.8659 76.3348 50.6923 75.2031 50.3712 73.6144C50.1462 72.5094 49.1646 71.7525 48.0763 71.7735C48.0594 75.5101 47.9652 79.1487 47.8468 82.0167L47.8282 82.1817C47.7978 82.3448 47.7319 82.5 47.6359 82.6368C47.1251 83.3639 46.2268 83.6098 45.5782 83.7149C44.8504 83.8329 44.0029 83.8386 43.173 83.7911C41.5039 83.6957 39.6857 83.3708 38.547 83.1007C38.082 82.9902 37.7313 82.607 37.6632 82.1339C37.5953 81.6606 37.824 81.194 38.2394 80.9571C38.5142 80.8005 38.8146 80.483 39.0978 79.8995C39.3804 79.3169 39.6112 78.5361 39.7784 77.5646C40.1132 75.6201 40.1663 73.0969 40.0226 70.295C39.7717 65.4023 38.935 59.8406 38.1241 55.42L37.7804 53.6007L37.7589 53.3702C37.7604 53.1397 37.8298 52.9129 37.962 52.7198C38.1385 52.4624 38.4116 52.2863 38.7189 52.2315ZM44.59 54.3605C43.8323 54.2206 42.3604 54.0917 40.2911 54.3487C41.1469 58.9132 42.076 64.8955 42.3468 70.1749C42.494 73.045 42.452 75.7677 42.0743 77.961C41.8854 79.0579 41.6046 80.0699 41.1935 80.9171C41.1451 81.0167 41.0932 81.1153 41.0402 81.212C41.7727 81.3267 42.5613 81.4223 43.3058 81.4649C44.0604 81.5081 44.717 81.4942 45.2052 81.4151C45.3487 81.3919 45.4583 81.3657 45.5402 81.3419C45.7087 77.0037 45.8248 71.1084 45.6984 65.7989C45.6322 63.0229 45.5015 60.4241 45.2814 58.2999C45.0974 56.5254 44.8564 55.1903 44.59 54.3605ZM54.0284 54.3478C53.0483 54.378 51.931 54.4893 50.7794 54.6427C49.6303 54.7958 48.4653 54.9874 47.3888 55.169C47.3226 55.1802 47.2562 55.1902 47.1906 55.2013C47.3561 56.0571 47.4898 57.0275 47.5968 58.0597C47.8259 60.2705 47.9597 62.9377 48.0265 65.7433C48.0554 66.9556 48.07 68.1972 48.0763 69.4435L48.2716 69.4454C50.2909 69.5103 52.0842 70.9009 52.6017 72.92L52.6554 73.1515C52.755 73.644 53.082 74.2011 54.1241 74.7345L54.6173 74.962L55.1603 75.1671C55.8803 75.4112 56.6484 75.5668 57.3614 75.6583C57.3398 75.7324 57.3185 75.806 57.297 75.879C58.8695 70.4763 61.5868 62.1685 62.4249 56.3302L62.5031 55.7501C62.4317 56.3207 62.3342 56.9174 62.2257 57.5362C60.7049 56.147 58.757 55.1157 56.3409 54.5265L56.3214 54.5216L56.3029 54.5177L56.1017 54.4669C55.6038 54.3615 54.904 54.3208 54.0284 54.3478ZM64.5197 57.9386C63.5523 63.4373 61.3179 70.5077 59.8624 75.3995L62.007 75.0431C64.2655 68.4593 65.5977 64.9358 66.3419 61.3634C65.9011 59.7463 65.2415 58.6672 64.5197 57.9386Z" fill="#1A1A1A"/>
<path d="M70.2119 72.1026L68.2705 80.42L62.4951 83.8155L53.9229 83.0538L57.5283 79.1036L58.2119 76.9219L62.4951 76.0342L65.9873 73.7501L67.54 66.7628L70.2119 72.1026ZM51.0986 72.752V74.4688L50.3564 76.2657L47.4785 79.3799L44.4609 75.3682L45.5547 72.3233L46.335 70.6837H48.9512L51.0986 72.752Z" fill="#E6E6E6"/>
<path d="M66.7653 65.916C67.1713 65.4173 67.9056 65.3416 68.4043 65.7476C71.8466 68.5501 72.5305 73.3152 71.0274 77.1255C69.3922 81.2705 65.3867 84.2595 59.7496 84.9721L59.5783 84.9948L59.4297 83.8319L59.4312 83.8394L59.5783 84.9948L59.5207 85.0009L59.2917 85.007C57.1914 85.0613 54.0103 84.7384 51.0403 83.4937C48.1387 82.2775 44.7577 79.8478 43.6835 75.4228L43.5865 74.9891C43.0782 72.4843 44.6978 70.045 47.2012 69.5367L47.2027 69.5352C49.6284 69.0452 51.9929 70.5492 52.6005 72.9195L52.6551 73.1515C52.7689 73.7145 53.1808 74.361 54.6171 74.9619C55.9949 75.5392 57.6672 75.7587 58.8186 75.7609C61.5236 75.3607 62.2404 74.1901 62.4212 73.7307C62.6567 73.1322 63.333 72.8371 63.9314 73.0726C64.5295 73.3082 64.8232 73.9846 64.5879 74.5828C64.053 75.9421 62.5378 77.5903 59.0734 78.0792L58.996 78.0899L58.9187 78.0914L58.3729 78.0823C57.0336 78.0315 55.2709 77.7595 53.718 77.1088C51.8664 76.3343 50.693 75.2037 50.3717 73.6154L50.314 73.3865C49.968 72.2742 48.8294 71.5816 47.6636 71.8172L47.6652 71.8187C46.4207 72.0713 45.6176 73.2836 45.8699 74.5267C46.6099 78.178 49.3268 80.2499 51.9394 81.3452C54.5334 82.4323 57.3691 82.7275 59.228 82.6795L59.3417 82.6765L59.4555 82.6613C64.4095 82.0352 67.5927 79.4845 68.8607 76.2704C70.0682 73.2091 69.4373 69.5937 66.9336 67.555C66.4348 67.149 66.3592 66.4147 66.7653 65.916Z" fill="#1A1A1A"/>
<path d="M30.5584 68.9158C30.9621 68.428 31.6706 68.3712 32.1408 68.79C32.6109 69.2088 32.6641 69.9439 32.2606 70.4318C31.0318 71.9168 29.6111 72.3505 28.2994 72.0902C27.0932 71.8508 26.1484 71.0595 25.6314 70.4257C25.231 69.9349 25.2898 69.2009 25.7629 68.7855C26.2359 68.3701 26.9435 68.4311 27.3438 68.9219C27.6409 69.286 28.1653 69.6922 28.7202 69.8027C29.17 69.8919 29.804 69.8275 30.5584 68.9158Z" fill="#1A1A1A"/>
<path d="M14.9187 68.9158C14.515 68.428 13.8065 68.3711 13.3363 68.79C12.8662 69.2088 12.8129 69.9439 13.2164 70.4317C14.4453 71.9168 15.866 72.3505 17.1776 72.0902C18.3838 71.8507 19.3286 71.0595 19.8457 70.4257C20.246 69.9349 20.1872 69.2008 19.7142 68.7854C19.2411 68.37 18.5336 68.4311 18.1332 68.9218C17.8362 69.286 17.3117 69.6922 16.7568 69.8026C16.307 69.8919 15.673 69.8274 14.9187 68.9158Z" fill="#1A1A1A"/>
</svg>
