<svg width="75" height="86" viewBox="0 0 75 86" fill="none" xmlns="http://www.w3.org/2000/svg">
<path d="M36.4729 27.9924C18.2683 29.4488 16.1443 45.5915 17.3569 53.4804C18.8986 63.4934 21.9092 64.4032 21.9092 73.5063C22.3377 78.2263 24.0534 80.7555 25.8234 82.0986C27.7797 83.5813 30.4533 83.4944 32.8304 82.8826C45.7762 79.5523 52.7305 65.9014 54.679 58.941C61.2327 32.7248 45.2732 27.3853 36.4729 27.9924Z" fill="url(#paint0_linear_9800_32938)"/>
<path d="M36.3922 26.8301C41.0126 26.5114 47.595 27.7394 52.1808 32.6101C56.8196 37.5371 59.1407 45.8901 55.8076 59.2231C55.805 59.2337 55.803 59.2445 55.8001 59.255L55.5954 59.9509C54.498 63.5233 52.2704 68.4555 48.8026 72.9815C45.1018 77.8116 39.9243 82.2602 33.1201 84.0107C30.7147 84.6297 27.7051 84.8255 25.3463 83.1904L25.1189 83.0266L24.7323 82.7158C22.8152 81.0837 21.173 78.2797 20.7491 73.6107C20.746 73.576 20.7446 73.541 20.7446 73.5061C20.7446 69.1265 20.0302 66.7601 19.1161 64.2298C18.1756 61.6263 16.9956 58.7923 16.2049 53.657C15.5726 49.543 15.8013 43.2737 18.596 37.7956C21.433 32.2351 26.8706 27.5924 36.38 26.8317L36.3922 26.8301ZM50.4856 34.2067C46.53 30.0053 40.7327 28.8662 36.5529 29.1545L36.5514 29.153C27.8651 29.852 23.142 34.0093 20.6703 38.8539C18.1556 43.7832 17.9279 49.529 18.5081 53.3037C19.2591 58.1804 20.3554 60.8081 21.3056 63.4383C22.2773 66.1283 23.0641 68.7561 23.072 73.4349C23.4819 77.8721 25.0705 80.0652 26.5275 81.1707H26.526C28.0483 82.3245 30.2686 82.3388 32.5394 81.7545C38.6808 80.1746 43.4545 76.1331 46.9543 71.5653C50.4467 67.0072 52.6062 62.0046 53.5484 58.653C56.7671 45.7734 54.3875 38.3512 50.4856 34.2067Z" fill="#1A1A1A"/>
<path d="M58.6318 22.8173C47.8752 21.5255 41.1119 27.3168 38.0392 31.9638C37.1806 33.2618 37.7256 34.9651 39.109 35.6824C53.5547 43.163 59.3864 33.6873 60.9313 25.9583C61.2356 24.432 60.1767 23.002 58.6318 22.8173Z" fill="#14AE5C"/>
<path d="M37.3832 30.858C40.7638 26.0386 47.816 20.3453 58.7698 21.6604C60.8366 21.9076 62.3178 23.73 62.1328 25.774L62.0737 26.1864C61.2755 30.1798 59.3373 34.832 55.522 37.4809C51.5983 40.205 46.0405 40.5834 38.5734 36.7167C36.6501 35.7195 35.7832 33.2645 37.0678 31.3219L37.3832 30.858ZM58.4923 23.9742C48.6056 22.7871 42.3121 27.8852 39.2921 32.1923L39.0101 32.6062C38.5779 33.2596 38.8021 34.2113 39.6454 34.6486H39.6439C46.6224 38.2623 51.204 37.6432 54.1938 35.5674C57.2918 33.4164 59.042 29.4656 59.7887 25.73C59.9572 24.8836 59.3783 24.0803 58.4938 23.9742H58.4923Z" fill="#1A1A1A"/>
<path d="M56.0853 29.6444C53.2036 31.5743 50.0098 32.8863 47.4355 33.6921C46.6282 33.9452 46.667 35.0957 47.5132 35.1003C52.2456 35.1329 55.3245 32.7683 57.0277 30.4378C57.4981 29.795 56.7467 29.2004 56.0853 29.6444Z" fill="#008043"/>
<path d="M32.1451 55.748H25.6118L28.8785 50.4981L32.1451 55.748Z" fill="#FFAFA3"/>
<path d="M32.1458 56.9126C32.5464 56.9124 32.9148 56.6755 33.1039 56.297C33.2926 55.9186 33.2722 55.4593 33.0501 55.1022L29.7825 49.8515C29.5809 49.528 29.2413 49.3329 28.8782 49.3329C28.5151 49.3331 28.1754 49.5278 27.9739 49.8515L24.7077 55.1022C24.4855 55.4594 24.465 55.9184 24.654 56.297C24.8431 56.6756 25.2112 56.9126 25.612 56.9126H32.1458ZM28.8782 52.5989L30.1151 54.5837H27.6428L28.8782 52.5989Z" fill="#1A1A1A"/>
<path d="M32.8056 51.1748C33.0575 50.68 33.6633 50.4814 34.1581 50.7334C34.1592 50.734 34.1611 50.7359 34.164 50.7373C34.1703 50.7405 34.1813 50.7461 34.1952 50.7529C34.2231 50.7666 34.2659 50.7856 34.3192 50.8105C34.4273 50.8612 34.5794 50.9312 34.7528 51.002C35.1238 51.1532 35.5044 51.2773 35.7616 51.3076C36.0076 51.3365 36.392 51.3091 36.7733 51.2559C36.9512 51.231 37.1089 51.2039 37.2216 51.1826C37.2777 51.172 37.3231 51.1623 37.3524 51.1562C37.3663 51.1534 37.377 51.1508 37.3837 51.1494C37.3869 51.1488 37.3903 51.1487 37.3915 51.1484C37.9336 51.0286 38.4708 51.371 38.5907 51.9131C38.71 52.4548 38.3668 52.9905 37.8251 53.1104L37.8202 53.1123C37.8171 53.113 37.8117 53.1141 37.8065 53.1152L37.5956 53.1572C37.4594 53.183 37.2686 53.2167 37.0517 53.2471C36.642 53.3043 36.0434 53.3643 35.5272 53.3037C34.9851 53.2399 34.3941 53.0254 33.994 52.8623C33.7823 52.776 33.5978 52.6942 33.4667 52.6328C33.4015 52.6023 33.348 52.5761 33.3104 52.5576C33.2917 52.5484 33.2753 52.5405 33.2645 52.5352C33.2595 52.5326 33.255 52.5309 33.2518 52.5293L33.246 52.5254L33.0741 52.416C32.7085 52.1249 32.5859 51.6076 32.8056 51.1748ZM36.1708 46.5811C37.2812 46.5811 38.1815 47.4814 38.1815 48.5918C38.1815 49.7022 37.2812 50.6025 36.1708 50.6025C35.0604 50.6025 34.1601 49.7022 34.16 48.5918C34.16 47.4813 35.0603 46.5811 36.1708 46.5811Z" fill="#1A1A1A"/>
<path d="M25.5619 51.1748C25.31 50.6801 24.7041 50.4815 24.2094 50.7334C24.2083 50.7339 24.2064 50.7358 24.2035 50.7373C24.1972 50.7405 24.1862 50.7461 24.1723 50.7529C24.1443 50.7666 24.1009 50.7854 24.0473 50.8105C23.9392 50.8611 23.7879 50.9313 23.6146 51.002C23.2435 51.1533 22.8621 51.2774 22.6049 51.3076C22.3588 51.3364 21.9753 51.3091 21.5941 51.2559C21.416 51.231 21.2576 51.2039 21.1449 51.1826C21.0892 51.1721 21.0443 51.1623 21.015 51.1562C21.0012 51.1534 20.9904 51.1508 20.9838 51.1494C20.9806 51.1487 20.9773 51.1487 20.976 51.1484C20.4339 51.0285 19.8967 51.371 19.7768 51.9131C19.6575 52.4547 19.9999 52.9903 20.5414 53.1104L20.5473 53.1123C20.5505 53.113 20.5557 53.1141 20.5609 53.1152L20.7719 53.1572C20.908 53.1829 21.098 53.2168 21.3148 53.2471C21.7246 53.3043 22.3238 53.3644 22.8402 53.3037C23.3824 53.2399 23.9734 53.0254 24.3734 52.8623C24.585 52.776 24.7697 52.6942 24.9008 52.6328C24.9658 52.6023 25.0195 52.576 25.057 52.5576C25.0758 52.5484 25.0922 52.5405 25.1029 52.5352C25.108 52.5326 25.1125 52.5309 25.1156 52.5293L25.1215 52.5254L25.2924 52.416C25.6581 52.125 25.7815 51.6076 25.5619 51.1748ZM22.1967 46.5811C21.0862 46.5811 20.1859 47.4813 20.1859 48.5918C20.186 49.7022 21.0862 50.6025 22.1967 50.6025C23.307 50.6024 24.2074 49.7021 24.2074 48.5918C24.2074 47.4814 23.307 46.5812 22.1967 46.5811Z" fill="#1A1A1A"/>
<defs>
<linearGradient id="paint0_linear_9800_32938" x1="36.6483" y1="27.9474" x2="36.6483" y2="83.5192" gradientUnits="userSpaceOnUse">
<stop stop-color="#F79722"/>
<stop offset="1" stop-color="#FFCD29"/>
</linearGradient>
</defs>
</svg>
