<svg width="75" height="86" viewBox="0 0 75 86" fill="none" xmlns="http://www.w3.org/2000/svg">
<path d="M38.868 82.8438C68.1747 81.5675 71.6411 60.1955 66.1288 49.3302C60.6165 38.4649 44.9735 35.2339 38.868 35.7649C22.7777 37.5287 17.2038 42.8123 11.4705 51.7384C10.4629 53.3081 9.60877 54.9927 9.0593 56.7752C1.90089 79.9854 25.7343 84.3825 38.868 82.8438Z" fill="#FFA629"/>
<path d="M38.767 34.6046C42.0294 34.3209 47.6472 35.0372 53.1455 37.1898C58.6473 39.3437 64.2315 43.0154 67.1677 48.8027C70.0846 54.5523 70.6176 63.0246 66.5718 70.2514C62.4916 77.5396 53.8889 83.3413 38.9717 84.0037C32.2669 84.7835 22.7665 84.0708 15.7792 80.1025C12.2534 78.1 9.3183 75.2387 7.76591 71.2825C6.21366 67.3263 6.10003 62.4191 7.94634 56.4324C8.53444 54.5247 9.44153 52.7431 10.4906 51.1089C13.3906 46.5938 16.3258 42.8779 20.654 40.0873C24.9796 37.2985 30.5908 35.5011 38.7412 34.6076L38.8671 35.7675L38.8686 35.7645L38.7412 34.6076L38.7549 34.6061L38.767 34.6046ZM52.2964 39.358C47.0836 37.3173 41.8416 36.6798 38.9929 36.9214L38.9944 36.9229C31.0551 37.7933 25.8341 39.5194 21.917 42.0448C18.0027 44.5684 15.2841 47.9568 12.4511 52.3674C11.6055 53.6846 10.8857 55.0656 10.3769 56.5006L10.1722 57.1177C8.43945 62.7359 8.62054 67.0839 9.93413 70.4319C11.2477 73.7792 13.7496 76.2728 16.9286 78.0783C23.3406 81.72 32.3049 82.4398 38.7321 81.6869L38.7746 81.6824L38.817 81.6809L40.1437 81.6081C53.6556 80.7101 61.0556 75.3382 64.5401 69.1143C68.1759 62.6198 67.6858 54.9721 65.0905 49.8565C62.5143 44.7789 57.5203 41.4031 52.2964 39.358Z" fill="#1A1A1A"/>
<path d="M50.4484 72.0048C56.3825 62.9856 55.8459 53.6884 54.4035 46.8832C54.02 45.0744 55.3146 43.3619 56.8575 44.382C60.1619 46.5666 63.2012 52.4323 64.6616 59.09C65.1029 61.1007 65.1088 63.2262 64.2845 65.1142C61.9004 70.5702 56.3963 74.1273 52.2617 75.6473C49.4291 76.6891 48.7895 74.5263 50.4484 72.0048Z" fill="#F79722"/>
<path d="M38.0309 45.0264C40.6034 45.0264 42.6888 44.1574 42.6888 43.0856C42.6888 42.0137 40.6034 41.1448 38.0309 41.1448C35.4585 41.1448 33.373 42.0137 33.373 43.0856C33.373 44.1574 35.4585 45.0264 38.0309 45.0264Z" fill="#14AE5C"/>
<path d="M41.1056 62.8272C41.5643 62.3768 42.3016 62.3838 42.7522 62.8424C43.2026 63.3011 43.1956 64.0384 42.7371 64.489L42.5475 64.6755L42.5445 64.677L41.7318 63.8446L41.6393 63.7506L42.5445 64.677C39.9358 67.224 35.7409 67.1228 33.259 64.4511C32.8214 63.9799 32.8485 63.2422 33.3197 62.8045C33.7909 62.3668 34.5286 62.3939 34.9663 62.8651C36.5573 64.5779 39.2454 64.6432 40.9176 63.0107V63.0122L41.1056 62.8272Z" fill="#1A1A1A"/>
<path d="M45.3129 57.5361C46.3376 57.5361 47.1683 58.3668 47.1683 59.3915C47.1683 60.4162 46.3376 61.2469 45.3129 61.2469C44.2882 61.2469 43.4575 60.4162 43.4575 59.3915C43.4575 58.3668 44.2882 57.5361 45.3129 57.5361Z" fill="#1A1A1A"/>
<path d="M29.8022 57.5361C28.7775 57.5361 27.9468 58.3668 27.9468 59.3915C27.9468 60.4162 28.7775 61.2469 29.8022 61.2469C30.8269 61.2469 31.6576 60.4162 31.6576 59.3915C31.6576 58.3668 30.8269 57.5361 29.8022 57.5361Z" fill="#1A1A1A"/>
</svg>
