<svg width="75" height="86" viewBox="0 0 75 86" fill="none" xmlns="http://www.w3.org/2000/svg">
<path d="M18.0694 36.0521C19.9019 30.8663 34.3592 28.2424 41.3589 27.5903C42.1781 28.584 43.8167 31.5495 43.8167 35.3535C43.8167 40.1045 58.5301 38.1793 59.4347 41.564C60.1583 44.2656 58.0365 46.8274 56.8851 47.7745C58.8634 48.0074 63.0639 49.3738 64.0401 53.0224C65.0162 56.6711 63.5123 60.3509 62.6384 61.7482C64.6408 63.5803 68.6453 64.4809 68.6453 69.5114C68.6453 73.5327 65.3685 80.4575 56.0308 82.9572C48.5605 84.9601 41.0667 83.1124 38.2535 81.9324C28.7273 83.0969 9.07127 83.1745 6.6563 74.1693C4.24136 65.1485 12.2238 59.0311 16.5168 57.0903C14.4467 56.8574 10.3063 55.2893 10.3063 50.8798C10.3063 46.4703 15.4817 44.9022 18.0694 44.6693C17.3059 43.9551 16.2369 41.2534 18.0694 36.0521Z" fill="#F24822"/>
<path d="M17.7642 43.1318C19.1941 45.0105 22.8018 48.1313 26.7476 49.7461C28.1414 50.305 28.7379 52.6804 27.52 53.5654L22.9907 56.8574C20.7941 59.2174 16.401 64.7602 16.4009 68.0518C16.4009 79.4015 38.5562 74.1851 38.5562 79.1846C38.5558 82.8795 32.1786 82.7862 29.6187 83.0967L12.5024 80.3174L6.21045 74.4023L7.59814 64.3105L15.7407 57.6494L10.8364 53.8604V47.8369L18.7075 44.6074L17.7642 43.1318ZM62.0757 49.2344L64.7261 52.8516L64.2007 60.5215C63.8422 60.8629 62.1261 60.9257 59.2886 62.5713C55.7408 64.605 46.5786 64.7757 46.5786 61.6084C46.5791 58.4412 59.6831 59.2016 59.6831 55.584C59.683 52.6962 58.0424 49.1717 57.2222 47.7744L62.0757 49.2344Z" fill="#BD2915"/>
<path d="M42.652 35.3534C42.652 34.4131 42.6928 33.4123 42.7021 32.6378C42.7119 31.8082 42.691 31.1199 42.5944 30.5469C42.4987 29.98 42.3404 29.6025 42.1319 29.3415C41.9529 29.1174 41.6777 28.9072 41.1949 28.7562C37.2297 28.7778 32.0671 29.5729 27.6731 30.9851C25.4469 31.7006 23.4649 32.5602 21.9508 33.5248C20.4122 34.505 19.4982 35.5024 19.1669 36.4375C18.294 38.9151 18.1412 40.7213 18.2557 41.9339C18.3738 43.1842 18.7643 43.7241 18.8652 43.8186C19.2005 44.1322 19.3207 44.6141 19.1715 45.0483C19.0222 45.4823 18.6309 45.788 18.1738 45.8291C17.0034 45.9345 15.2449 46.3478 13.8176 47.2059C12.4132 48.0503 11.4705 49.2219 11.4705 50.8797C11.4705 52.6577 12.2822 53.8287 13.3355 54.6203C14.4296 55.4424 15.7727 55.835 16.647 55.9334C17.1677 55.9919 17.5855 56.3908 17.6674 56.9083C17.749 57.426 17.4747 57.9356 16.9972 58.1516L16.609 58.3336C14.6254 59.3023 11.9529 61.1373 9.99368 63.6844C7.92687 66.3713 6.68996 69.7895 7.78148 73.8675C8.2731 75.7007 9.65857 77.1675 11.8192 78.3176C13.9865 79.4713 16.8232 80.2427 19.9615 80.7133C26.2313 81.6534 33.4149 81.3512 38.1124 80.777L38.264 80.7679C38.4146 80.7692 38.5639 80.8003 38.7037 80.8589C41.3524 81.9698 48.576 83.7503 55.7296 81.8323C64.5731 79.4649 67.4805 72.9901 67.4805 69.5113C67.4805 67.386 66.6685 66.2095 65.6307 65.3113C65.0784 64.8334 64.461 64.4341 63.7945 64.0074C63.2389 63.6516 62.6201 63.2585 62.0796 62.805L61.8522 62.6079L61.7127 62.4547C61.4228 62.0753 61.3913 61.5479 61.652 61.131C62.4345 59.88 63.7753 56.54 62.9151 53.3239C62.5322 51.8929 61.5071 50.8539 60.2526 50.1231C58.9915 49.3887 57.604 49.0321 56.7485 48.9314C56.2853 48.8766 55.8989 48.5496 55.7675 48.102C55.6364 47.6545 55.7851 47.1717 56.1451 46.8753C56.6195 46.4851 57.3333 45.7232 57.8357 44.7799C58.3366 43.8392 58.5696 42.8345 58.3102 41.8657V41.8642C58.3082 41.8567 58.2698 41.7285 57.9251 41.5306C57.5753 41.3298 57.0482 41.1398 56.3361 40.965C54.9041 40.6136 53.0709 40.3987 51.1233 40.1235C49.2434 39.8579 47.2459 39.534 45.7088 38.9378C44.2213 38.3608 42.652 37.3134 42.652 35.3534ZM44.981 35.3534C44.981 35.7689 45.2522 36.2625 46.5518 36.7666C47.8014 37.2511 49.5383 37.5473 51.4493 37.8173C53.293 38.0778 55.3099 38.3148 56.891 38.7028C57.6847 38.8976 58.4559 39.1493 59.0835 39.5094C59.7083 39.868 60.3346 40.4188 60.5604 41.2622L60.6362 41.5867C60.9648 43.1974 60.5168 44.7007 59.8917 45.8746C59.6575 46.3145 59.3885 46.7207 59.1123 47.0891C59.8584 47.3297 60.6564 47.6636 61.4246 48.1111C63.0089 49.0339 64.5719 50.5043 65.1652 52.722C66.0816 56.1481 65.0525 59.5296 64.1281 61.4404C64.4001 61.6299 64.7068 61.8257 65.0499 62.0453C65.6972 62.4597 66.4556 62.9447 67.1545 63.5494C68.6195 64.8172 69.8094 66.6061 69.8094 69.5113C69.8094 74.0751 66.1635 81.4488 56.3316 84.0809L56.3331 84.0824C48.7888 86.1051 41.2669 84.367 38.0972 83.1211C33.2655 83.6881 26.0261 83.9777 19.6158 83.0165C16.3476 82.5264 13.2211 81.7016 10.726 80.3737C8.22446 79.0421 6.24722 77.1403 5.53138 74.4709C4.20824 69.5285 5.75471 65.3772 8.14841 62.2652C9.73117 60.2076 11.7 58.5778 13.5129 57.4147C12.9788 57.1663 12.441 56.8617 11.936 56.4822C10.4016 55.3291 9.14155 53.5113 9.14155 50.8797C9.14155 48.1281 10.7881 46.3108 12.6183 45.2105C13.7939 44.5038 15.1032 44.0521 16.2649 43.7868C16.1093 43.3082 15.9948 42.7608 15.9373 42.1522C15.7847 40.5353 16.012 38.389 16.9714 35.6658V35.6642C17.557 34.0071 18.9861 32.6516 20.6999 31.5598C22.439 30.4519 24.6233 29.52 26.9619 28.7684C31.6373 27.2659 37.1209 26.4258 41.3587 26.4258C41.4602 26.4258 41.5623 26.439 41.6604 26.4652C42.6298 26.7245 43.3975 27.1953 43.9514 27.889C44.4923 28.5662 44.7559 29.3651 44.89 30.1603C45.0231 30.9497 45.0397 31.8111 45.0295 32.6651C45.0186 33.5742 44.981 34.3919 44.981 35.3534Z" fill="#1A1A1A"/>
<path d="M39.7593 59.9814C40.1732 60.4157 40.8367 60.4082 41.2413 59.9638C41.6457 59.5192 41.6373 58.8066 41.2235 58.372L38.4493 55.4582C38.042 55.0305 37.3909 55.0305 36.9837 55.4582L34.2094 58.372L34.1371 58.457C33.7968 58.8951 33.8137 59.5471 34.193 59.9638C34.5724 60.3804 35.1791 60.4133 35.5945 60.0576L35.675 59.9814L37.7165 57.837L39.7593 59.9814Z" fill="#1A1A1A"/>
<path d="M49.519 49.3023C50.3573 49.0799 51.2628 49.4671 51.6655 50.2732C52.0683 51.0809 51.8333 52.0412 51.1492 52.5768L50.8294 52.776L48.9214 53.7272L50.6919 54.8861L50.9865 55.1246C51.6029 55.7364 51.7275 56.7182 51.2334 57.4731C50.7389 58.2281 49.7877 58.5066 48.9803 58.1858L48.6464 58.0118L44.1569 55.0685C43.5983 54.702 43.2763 54.0659 43.3152 53.3989C43.3547 52.7317 43.7495 52.1344 44.3477 51.8361L49.1627 49.437L49.519 49.3023Z" fill="#1A1A1A"/>
<path d="M25.4659 49.3028C24.6276 49.0803 23.722 49.4675 23.3193 50.2737C22.9166 51.0814 23.1516 52.0417 23.8356 52.5773L24.1555 52.7765L26.0635 53.7277L24.293 54.8866L23.9984 55.1251C23.3819 55.7369 23.2573 56.7186 23.7514 57.4736C24.246 58.2286 25.1972 58.507 26.0046 58.1863L26.3385 58.0123L30.8279 55.0689C31.3865 54.7025 31.7086 54.0664 31.6697 53.3994C31.6301 52.7322 31.2353 52.1349 30.6371 51.8365L25.8222 49.4375L25.4659 49.3028Z" fill="#1A1A1A"/>
</svg>
