<svg width="75" height="86" viewBox="0 0 75 86" fill="none" xmlns="http://www.w3.org/2000/svg">
<path d="M69.9587 72.4165C70.5715 72.7255 70.7855 73.0205 70.851 73.1711C70.9018 73.2876 70.9044 73.4009 70.8169 73.5577C70.5986 73.949 69.7809 74.5467 68.3157 74.5467H59.8127C58.3574 74.5467 57.9735 76.5574 59.3263 77.0931L65.9972 79.7387C66.9551 80.1191 67.213 80.8085 67.1602 81.2929C67.1098 81.7572 66.7457 82.3239 65.748 82.4279C57.4597 83.2989 46.643 83.9246 40.8862 84.0706C32.3692 84.2864 23.8392 83.7352 16.7578 82.5195C13.2172 81.9124 10.1685 81.161 7.71405 80.3117C5.24103 79.4546 3.44914 78.5246 2.35687 77.6008C1.26781 76.6785 1.09162 75.9674 1.18855 75.4612C1.30412 74.8573 1.89078 74.0064 3.45001 73.0391C6.53211 71.1278 12.2869 69.465 19.8558 68.4263C27.3797 67.3938 36.0834 67.06 44.4734 67.4885C52.8726 67.9186 60.3776 69.0799 65.7202 70.7521C67.4 71.2785 68.8149 71.8374 69.9587 72.4165Z" fill="#91D940"/>
<path fill-rule="evenodd" clip-rule="evenodd" d="M66.4275 78.657C67.8304 79.2144 68.4324 80.3718 68.3182 81.4196C68.2661 81.8978 68.0522 82.4165 67.6147 82.8357C67.1726 83.2593 66.5739 83.5112 65.868 83.5848L65.8695 83.5863C58.5886 84.3514 49.3735 84.9268 43.3078 85.1571L40.9152 85.2344C32.3358 85.4518 23.7292 84.8971 16.5613 83.6666L15.2392 83.4301C12.2075 82.86 9.54731 82.178 7.33348 81.412C4.80401 80.5353 2.8546 79.5466 1.6036 78.4887C0.345151 77.4227 -0.162167 76.3241 0.044905 75.2424L0.0919085 75.0377C0.372125 74.0188 1.28886 73.0092 2.83631 72.0492L3.48526 71.6701C6.88622 69.795 12.5692 68.2512 19.6969 67.273L21.1358 67.085C28.3957 66.19 36.6058 65.9205 44.533 66.3254L46.1083 66.4148C53.9311 66.9064 60.9408 68.0366 66.0681 69.6414L67.3145 70.0538C68.5125 70.4734 69.5708 70.9149 70.4819 71.376C71.251 71.7638 71.7121 72.231 71.9193 72.7072C71.9998 72.8923 72.0663 73.1351 72.0482 73.4229C72.0305 73.7029 71.9368 73.9388 71.8329 74.1249L71.7313 74.2887C71.1757 75.0938 69.9308 75.7109 68.3152 75.7109H59.8121C59.7668 75.711 59.743 75.7194 59.7333 75.723C59.7234 75.7268 59.7167 75.7311 59.7105 75.7367C59.6959 75.7498 59.6711 75.7822 59.6605 75.8368C59.65 75.8918 59.6609 75.933 59.6696 75.9505C59.6732 75.9574 59.6775 75.9635 59.6848 75.9702C59.6922 75.977 59.7119 75.9942 59.7545 76.0111L66.4275 78.657ZM15.6667 81.1406C12.7207 80.5865 10.176 79.9321 8.09463 79.2119C5.67904 78.3747 4.0427 77.501 3.10923 76.7116C2.64714 76.3203 2.45703 76.038 2.38143 75.8777C2.31843 75.744 2.33109 75.6886 2.33291 75.6806C2.35583 75.5608 2.5951 74.9378 4.06143 74.0279L4.06295 74.0294C6.92782 72.2528 12.479 70.6133 20.0138 69.5792L21.4239 69.3958C28.5367 68.5191 36.6094 68.2527 44.4132 68.6513L45.9673 68.7392C53.6737 69.2238 60.4824 70.3323 65.3722 71.8627L66.5458 72.2524C67.5172 72.5927 68.369 72.9407 69.1021 73.2925C68.8899 73.3434 68.6293 73.382 68.3152 73.382H59.8121C57.0746 73.3824 56.3493 77.1657 58.8978 78.1748L65.5678 80.8207C65.8497 80.9327 65.9452 81.054 65.9741 81.0996C65.9895 81.1239 65.9952 81.1435 65.9984 81.1557C65.9799 81.1715 65.8861 81.2423 65.6254 81.2695C58.4023 82.0285 49.2423 82.6011 43.2275 82.8297L40.8561 82.907C32.402 83.1212 23.9486 82.5719 16.954 81.371L15.6667 81.1406Z" fill="#1A1A1A"/>
<path d="M38.5158 36.1981C38.581 31.9735 42.6631 28.5554 47.1144 29.7662C50.6357 30.7242 52.703 34.2419 51.9997 37.6825C55.9074 38.6142 58.7468 42.123 58.747 46.2372C58.747 47.0643 58.6325 47.8623 58.421 48.6177C61.9995 51.7563 64.046 55.6435 64.0463 59.7757C64.0463 63.1611 62.6725 66.3828 60.2087 69.1627L59.5097 74.7198C59.2178 77.0379 57.0883 78.821 54.7547 78.7014C52.8053 78.6 51.3344 77.203 51.0718 75.3945C47.0504 77.0536 42.331 78.0191 37.2634 78.0191C32.0788 78.0191 27.2584 77.0093 23.1775 75.2793C22.9621 77.1436 21.4703 78.5981 19.4794 78.7014C17.1458 78.8209 15.0178 77.0378 14.7259 74.7198L13.9754 68.7655C11.7271 66.0778 10.4805 63.0009 10.4805 59.7757C10.4807 55.6174 12.5519 51.7059 16.1724 48.557C15.9702 47.817 15.8616 47.0363 15.8616 46.2281C15.8617 42.1155 18.6998 38.6083 22.6074 37.6765C21.9087 34.2374 23.9745 30.7227 27.4927 29.7662C31.9425 28.5552 36.0214 31.969 36.0928 36.189C36.9 36.1471 37.7086 36.15 38.5158 36.1981Z" fill="#2C2C2C"/>
<path fill-rule="evenodd" clip-rule="evenodd" d="M37.4634 34.9959C38.2089 30.6193 42.6224 27.3362 47.4206 28.6413C51.1825 29.665 53.524 33.1833 53.2824 36.8517C57.1777 38.2311 59.9113 41.9403 59.9114 46.2373C59.9114 46.9184 59.8389 47.5816 59.7097 48.222C63.1633 51.4514 65.2104 55.4456 65.2107 59.7758C65.2107 63.469 63.7226 66.9196 61.1426 69.8588L60.5133 74.8654C60.1453 77.7884 57.4861 80.015 54.5439 79.8645L54.5424 79.863C52.563 79.76 50.9501 78.6103 50.1862 76.9836C46.3212 78.3862 41.9267 79.1837 37.2633 79.1837C32.6007 79.1837 28.2076 78.3849 24.3434 76.9821C23.5793 78.6089 21.9699 79.7602 19.9903 79.863L19.9887 79.8645C17.1384 80.0102 14.5549 77.9248 14.0618 75.1368L14.0208 74.8654L13.3901 69.8649C10.8069 66.924 9.31592 63.4717 9.31592 59.7758C9.31614 55.4166 11.3893 51.396 14.8851 48.1553C14.7634 47.5328 14.6971 46.8889 14.6971 46.2282C14.6971 41.934 17.4295 38.2248 21.3246 36.8442C21.0871 33.1788 23.4287 29.6651 27.1879 28.6413C31.9871 27.3351 36.3979 30.6197 37.1435 34.9959C37.2501 34.9955 37.3568 34.9947 37.4634 34.9959ZM15.7084 50.6025C13.0677 53.3383 11.6451 56.5088 11.6449 59.7758C11.6449 62.5149 12.6437 65.1876 14.5227 67.592C15.0589 67.6371 15.5093 68.0498 15.5795 68.6049L16.3316 74.5743L16.3877 74.8912C16.7474 76.4489 18.2525 77.6207 19.869 77.5386C21.4233 77.4579 22.533 76.244 22.4951 74.7366L22.4708 74.4303L21.7203 68.4608C21.6404 67.823 22.0923 67.2402 22.7301 67.1599C23.3678 67.0799 23.9504 67.5322 24.031 68.1697L24.7816 74.1392L24.8104 74.4181C24.8168 74.5042 24.8203 74.5907 24.8225 74.6759C28.4873 76.052 32.7206 76.8547 37.2633 76.8547C41.8083 76.8547 46.0437 76.0512 49.7101 74.6744C49.7148 74.498 49.7284 74.319 49.7511 74.1392L50.5031 68.1697C50.5838 67.5321 51.1662 67.0796 51.804 67.1599C52.4415 67.2406 52.8938 67.8233 52.8139 68.4608L52.0618 74.4303C51.8545 76.0764 53.0054 77.4525 54.6637 77.5386C56.3882 77.6264 57.9869 76.287 58.2026 74.5743L58.9531 68.6049C59.0228 68.0535 59.4679 67.6432 59.9993 67.5935C61.8803 65.1886 62.8817 62.5162 62.8817 59.7758C62.8815 56.5322 61.479 53.3838 58.8743 50.6617C57.0774 54.2772 53.1581 56.6186 48.8413 56.1338L39.0312 55.0315C37.8188 54.8965 36.5955 54.8964 35.3831 55.0345L25.7762 56.1232C21.4364 56.6146 17.4949 54.2496 15.7084 50.6025ZM46.8111 30.8899C43.1299 29.8869 39.7332 32.7108 39.6802 36.2164L39.6726 36.3347C39.6398 36.6086 39.5122 36.8631 39.3072 37.0534C39.0743 37.2692 38.7627 37.3814 38.4444 37.3612C37.6823 37.3146 36.9171 37.3117 36.1549 37.3521C35.8383 37.3692 35.5295 37.2554 35.2998 37.0413C35.0684 36.8254 34.9345 36.524 34.9283 36.2088C34.8691 32.7079 31.4768 29.8888 27.7989 30.8899C24.8848 31.6817 23.1701 34.5941 23.749 37.4431C23.8747 38.0592 23.4885 38.6615 22.8787 38.8077L22.5633 38.8911C19.3374 39.8084 17.026 42.7717 17.026 46.2282C17.026 50.7819 20.9898 54.3214 25.5139 53.8094L35.1208 52.7192C36.507 52.5624 37.9058 52.5625 39.292 52.7177L49.1006 53.82C53.6234 54.3277 57.5824 50.788 57.5824 46.2373C57.5823 42.668 55.1188 39.6228 51.7298 38.8153C51.118 38.6693 50.7321 38.0655 50.8579 37.4491L50.9064 37.1823C51.3337 34.4191 49.6354 31.6587 46.8111 30.8899Z" fill="#1A1A1A"/>
<path d="M24.2318 47.0754C26.0161 47.0754 27.4626 45.6485 27.4626 43.8883C27.4626 42.1282 26.0161 40.7013 24.2318 40.7013C22.4475 40.7013 21.001 42.1282 21.001 43.8883C21.001 45.6485 22.4475 47.0754 24.2318 47.0754Z" fill="#FFAFA3"/>
<path d="M50.3766 47.0754C52.1609 47.0754 53.6074 45.6485 53.6074 43.8883C53.6074 42.1282 52.1609 40.7013 50.3766 40.7013C48.5923 40.7013 47.1458 42.1282 47.1458 43.8883C47.1458 45.6485 48.5923 47.0754 50.3766 47.0754Z" fill="#FFAFA3"/>
<path d="M45.382 35.3852C46.1409 35.3852 46.756 36.0004 46.756 36.7592C46.756 37.5181 46.1409 38.1333 45.382 38.1333C44.6233 38.1331 44.008 37.518 44.008 36.7592C44.008 36.0004 44.6232 35.3854 45.382 35.3852ZM46.7941 31.7036C47.3555 31.406 48.0302 31.5092 48.301 31.934C48.5715 32.359 48.3367 32.9449 47.7756 33.2426L47.7726 33.2436C47.7717 33.2442 47.7703 33.2457 47.7687 33.2465C47.7644 33.2488 47.7572 33.2521 47.7492 33.2563C47.7325 33.2652 47.7073 33.2788 47.676 33.2954C47.6126 33.3289 47.5212 33.3774 47.4084 33.437C47.1816 33.5567 46.8671 33.7217 46.5197 33.9038C45.829 34.2657 44.9912 34.7014 44.4406 34.976L44.3332 35.0239C43.7896 35.2432 43.1885 35.1116 42.9513 34.7046C42.6985 34.2705 42.9552 33.688 43.5246 33.4038L44.4748 32.9194C44.8296 32.7359 45.206 32.5392 45.5519 32.3579C45.8958 32.1777 46.2069 32.0147 46.4318 31.896L46.7697 31.7163C46.7778 31.712 46.7851 31.7087 46.7892 31.7065C46.7909 31.7056 46.7922 31.7041 46.7931 31.7036H46.7941Z" fill="#D9D9D9"/>
<path d="M29.2015 35.3847C28.4428 35.3847 27.8277 36 27.8275 36.7587C27.8275 37.5176 28.4427 38.1327 29.2015 38.1327C29.9604 38.1327 30.5756 37.5176 30.5756 36.7587C30.5754 36 29.9603 35.3847 29.2015 35.3847ZM27.7894 31.703C27.228 31.4055 26.5532 31.5095 26.2826 31.9345C26.0123 32.3593 26.2471 32.9444 26.808 33.2421L26.8109 33.2431C26.8119 33.2436 26.8131 33.2451 26.8148 33.246C26.8191 33.2483 26.8269 33.2523 26.8353 33.2567C26.852 33.2656 26.8765 33.2784 26.9076 33.2948C26.971 33.3284 27.0629 33.3776 27.1761 33.4374C27.4029 33.5571 27.7167 33.7223 28.0638 33.9042C28.7547 34.2663 29.5933 34.7018 30.1439 34.9765L30.2513 35.0243C30.7949 35.2435 31.3951 35.111 31.6322 34.704C31.8849 34.2699 31.6285 33.6874 31.059 33.4032L30.1097 32.9198C29.7547 32.7363 29.3778 32.5397 29.0316 32.3583C28.6875 32.178 28.3766 32.0141 28.1517 31.8954L27.8138 31.7157C27.8058 31.7115 27.7994 31.7082 27.7953 31.706L27.7894 31.703Z" fill="#D9D9D9"/>
<path d="M39.533 43.6395C39.9929 44.0888 40.7301 44.0811 41.1797 43.6213C41.629 43.1614 41.6197 42.4242 41.1599 41.9747L38.0774 38.9604C37.6249 38.5179 36.9015 38.5179 36.449 38.9604L33.3665 41.9747L33.2861 42.0626C32.9081 42.5157 32.9268 43.1902 33.3483 43.6213C33.7698 44.0523 34.444 44.0863 34.9054 43.7183L34.9949 43.6395L37.2632 41.4212L39.533 43.6395Z" fill="#D9D9D9"/>
</svg>
