<svg width="75" height="86" viewBox="0 0 75 86" fill="none" xmlns="http://www.w3.org/2000/svg">
<path d="M42.1281 13.1235C48.4679 19.1924 48.0098 27.5498 46.9881 34.7055C46.7832 36.1385 45.3065 37.3433 43.8594 37.3402C41.9667 37.3355 41.1018 35.5919 41.2089 33.704C41.344 31.3318 41.3145 28.7608 41.2633 26.3931C40.8937 20.3429 40.2727 18.1491 39.5413 17.244C38.6858 16.1898 36.97 15.9445 35.7512 16.5438C34.5183 17.1493 34.169 18.5792 34.2559 19.5713C34.2699 19.7296 34.3273 19.8864 34.3972 20.0293C38.692 28.663 29.6133 28.9875 27.483 25.7411C25.2471 22.9387 27.7578 20.554 29.6521 19.503C30.3369 19.1226 30.826 18.3867 30.8167 17.6058C30.7763 13.7958 32.6504 11.911 34.7668 11.0834C37.3117 10.0898 40.1531 11.2325 42.1281 13.1235Z" fill="#B3EE71"/>
<path d="M34.6366 9.89221C37.6821 8.8663 40.8505 10.2888 42.9324 12.2817C49.7345 18.7932 49.1615 27.7214 48.1409 34.8694L48.0636 35.259C47.8366 36.1476 47.2924 36.908 46.6352 37.456C45.884 38.0822 44.8945 38.5074 43.8558 38.5051C42.494 38.5017 41.4502 37.8451 40.8095 36.8647C40.1992 35.9305 39.9818 34.7579 40.0453 33.6383C40.1767 31.3302 40.1505 28.8159 40.0999 26.4638C39.9164 23.4604 39.6742 21.4629 39.3978 20.1248C39.117 18.7651 38.8244 18.2109 38.6351 17.9764C38.1766 17.4147 37.0796 17.1881 36.2651 17.5882L35.2371 15.499C36.7579 14.7512 38.9033 14.9366 40.1985 16.2358L40.4456 16.5102L40.4471 16.5118L39.7436 17.0788L40.0165 16.859L39.5601 17.2289L39.5404 17.2441L40.4471 16.5118C40.9892 17.1826 41.3737 18.1781 41.6784 19.6532C41.949 20.9635 42.1761 22.7541 42.3531 25.2221L42.4274 26.3456V26.3683C42.4723 28.4422 42.5011 30.7001 42.4153 32.8544L42.3713 33.7702C42.3278 34.5379 42.4899 35.1804 42.758 35.5911C42.9961 35.9554 43.3312 36.175 43.8619 36.1763L44.0181 36.1672C44.3875 36.1294 44.7933 35.9586 45.1432 35.6669C45.5434 35.3333 45.7806 34.9178 45.8346 34.5404C46.8254 27.6012 47.1776 20.0766 41.8558 14.4983L41.3221 13.9646L40.9778 13.6523C39.3424 12.243 37.315 11.5482 35.5616 12.0436L35.1901 12.168C34.3037 12.5146 33.5113 13.0641 32.9399 13.8888C32.3714 14.7094 31.9623 15.8869 31.98 17.5913C31.9952 18.8608 31.2199 19.9637 30.2181 20.5205C29.3658 20.9933 28.4781 21.7173 28.0421 22.5203C27.835 22.9019 27.7437 23.2728 27.7722 23.6407C27.8007 24.0054 27.9539 24.4646 28.3924 25.0144L28.4273 25.0568L28.4561 25.1023L27.4826 25.7406L27.4766 25.7436L28.4561 25.1023C28.7852 25.6038 29.465 26.0649 30.3682 26.3076C31.2609 26.5475 32.207 26.5261 32.9383 26.25C33.6307 25.9885 34.1151 25.5148 34.2939 24.7536C34.4872 23.9301 34.366 22.5826 33.3538 20.5478L33.3508 20.5402C33.2751 20.3855 33.1865 20.1767 33.1339 19.9307L33.096 19.6729L33.0809 19.4349C33.0428 18.1983 33.5021 16.3513 35.2371 15.499L36.2651 17.5882C35.6546 17.8882 35.3537 18.6984 35.4145 19.4531C35.4187 19.4651 35.4273 19.4837 35.4403 19.5107L35.6434 19.9337C36.6164 22.0317 36.9069 23.8208 36.5623 25.2873C36.1803 26.9133 35.0665 27.9372 33.7602 28.4303C32.4925 28.9086 31.0374 28.8985 29.7632 28.5561C28.5046 28.2178 27.2555 27.5075 26.5182 26.3941C25.8749 25.5647 25.5193 24.7007 25.4508 23.8227C25.3806 22.9228 25.6175 22.1064 25.9951 21.4105C26.6375 20.2269 27.7251 19.3169 28.6851 18.7208L29.0869 18.4843C29.4078 18.3057 29.6021 18.0011 29.6434 17.7323L29.6525 17.6201C29.6302 15.516 30.1377 13.8445 31.0247 12.5637C31.9093 11.2869 33.1127 10.4792 34.3424 9.99834L34.6366 9.89221Z" fill="#1A1A1A"/>
<path d="M30.6295 25.2582C32.1512 24.1683 32.4012 23.1498 32.4431 22.2494C32.4555 21.9761 32.7723 21.8457 32.9477 22.0553C34.9119 24.3919 33.6527 26.3263 30.7274 25.8124C30.4587 25.7658 30.4075 25.4165 30.6295 25.2582Z" fill="#78B136"/>
</svg>
