<svg width="75" height="86" viewBox="0 0 75 86" fill="none" xmlns="http://www.w3.org/2000/svg">
<path d="M19.6983 32.1139C27.6461 34.6756 34.1757 34.0702 37.5377 34.0702C40.8089 34.0702 50.745 32.5798 54.4198 30.4062C54.8465 30.1578 55.0344 29.6456 54.9344 29.1643C52.9157 19.3677 42.9439 12.4899 35.5143 13.2351C28.6627 13.9027 19.2909 19.29 18.7796 30.8099C18.7533 31.3998 19.1334 31.9276 19.6983 32.1139Z" fill="#E24C0C"/>
<path d="M36.9062 12.0544C41.4385 13.3507 46.8793 18.8545 48.0322 29.0808L45.7188 29.3416C44.7723 20.947 40.8107 16.434 37.5605 14.8044C37.3956 18.735 37.3335 25.4821 38.0566 29.4041L35.7666 29.825C35.0125 25.7347 35.065 18.9985 35.2236 14.9822C31.6683 16.7806 27.0695 21.3521 27.0693 28.947H24.7402C24.7404 18.8511 31.8952 13.3189 36.2656 12.0691L36.583 13.1814L36.9062 12.0544Z" fill="#AA370D"/>
<path d="M35.3986 12.0762C39.4909 11.6659 44.1307 13.349 47.9673 16.326C51.8207 19.316 54.9999 23.7126 56.0751 28.9268L56.1039 29.0981C56.2169 29.953 55.8699 30.9035 55.0106 31.4072L55.0121 31.4087C52.9811 32.6099 49.3939 33.5538 46.0477 34.197C42.6654 34.847 39.2808 35.2339 37.5381 35.234C34.2631 35.234 27.5061 35.8539 19.3408 33.2221L19.3332 33.2205C18.2968 32.8788 17.5661 31.8942 17.6167 30.7583C18.1614 18.4853 28.1644 12.7838 35.3986 12.0777V12.0762ZM46.539 18.1666C43.0279 15.4423 38.9675 14.0597 35.6306 14.3944H35.6275C29.1587 15.0247 20.4206 20.0963 19.9428 30.8614C19.9408 30.9044 19.9688 30.9737 20.058 31.0054C27.7873 33.4962 34.0895 32.9052 37.5381 32.9052C39.067 32.9051 42.2864 32.549 45.6079 31.9106C48.9445 31.2693 52.1415 30.386 53.7945 29.4211C53.7946 29.4149 53.7959 29.4081 53.7945 29.4013L53.793 29.3998C52.849 24.8185 50.033 20.8779 46.539 18.1666Z" fill="#1A1A1A"/>
<path d="M16.6702 33.5891C16.58 32.4713 16.6587 31.2137 16.8038 30.0648C17.006 28.4657 18.6391 27.5652 20.214 27.9067C30.201 30.0182 45.8471 28.8539 54.3577 27.8137C55.6107 27.6584 56.8215 28.3569 57.0847 29.5834C57.2636 30.4218 57.3876 31.3067 57.4921 32.1141C57.6875 33.6355 56.706 35.1571 55.2101 35.4831C42.6663 38.2312 30.4863 37.3618 18.6595 35.5298C17.6257 35.3745 16.7536 34.6448 16.6702 33.5891Z" fill="#E24C0C"/>
<path d="M31.5254 28.6982C31.5254 29.5138 31.4413 30.8869 31.3457 32.3525C31.2485 33.8423 31.1371 35.4637 31.0801 36.8359L28.7539 36.7383C28.8124 35.3317 28.9243 33.6764 29.0205 32.2012C29.1183 30.7019 29.1963 29.4195 29.1963 28.6982H31.5254ZM45.0713 28.6982C45.0713 29.4195 45.1493 30.7019 45.2471 32.2012C45.3433 33.6765 45.4571 35.3317 45.5156 36.7383L43.1875 36.8359C43.1305 35.4637 43.021 33.8423 42.9238 32.3525C42.8282 30.8869 42.7422 29.5139 42.7422 28.6982H45.0713ZM35.8643 28.6289C35.9132 29.4371 35.9097 30.8098 35.9023 32.2764C35.8949 33.768 35.8828 35.3934 35.9082 36.7656L33.5791 36.8086C33.5531 35.4021 33.5658 33.7428 33.5732 32.2656C33.5808 30.7643 33.5813 29.4819 33.5381 28.7686L35.8643 28.6289ZM40.6885 28.6289C40.7374 29.4371 40.7339 30.8097 40.7266 32.2764C40.7191 33.768 40.708 35.3934 40.7334 36.7656L38.4043 36.8086C38.3783 35.4021 38.3901 33.7428 38.3975 32.2656C38.405 30.7643 38.4065 29.4819 38.3633 28.7686L40.6885 28.6289ZM49.4014 28.5547C49.5513 29.7538 49.8808 32.8151 49.998 35.6367L47.6699 35.7334C47.5562 32.9976 47.236 30.0042 47.0908 28.8428L49.4014 28.5547ZM53.8838 28.5547C54.0337 29.7538 54.362 32.8152 54.4795 35.6367L52.1523 35.7334C52.0385 32.9976 51.7184 30.0042 51.5732 28.8428L53.8838 28.5547ZM22.6943 28.6875C22.5491 29.8487 22.229 32.8423 22.1152 35.5781L19.7891 35.4814C19.9064 32.6598 20.2338 29.5985 20.3838 28.3994L22.6943 28.6875ZM27.1768 28.6875C27.0315 29.8486 26.7114 32.8423 26.5977 35.5781L24.2715 35.4814C24.3888 32.6598 24.7163 29.5985 24.8662 28.3994L27.1768 28.6875Z" fill="#AA370D"/>
<path d="M54.2141 26.658C55.9406 26.4441 57.8084 27.4066 58.2232 29.3386V29.3401C58.318 29.7843 58.3983 30.238 58.4674 30.6819L58.6478 31.9645V31.9661C58.8962 33.9023 57.7554 35.8895 55.8502 36.5145L55.459 36.6207C42.7123 39.413 30.3696 38.5202 18.4866 36.6798C17.06 36.4654 15.6473 35.4084 15.5101 33.6824C15.411 32.4546 15.4977 31.11 15.6481 29.9192C15.9554 27.4896 18.3756 26.3221 20.4533 26.7687L20.4548 26.7672C30.2313 28.8341 45.7012 27.6998 54.2141 26.6595V26.658ZM54.5007 28.9686H54.4992C45.9906 30.0086 30.1706 31.2015 19.9742 29.0459L19.9681 29.0444C18.8979 28.8123 18.056 29.4448 17.959 30.2104C17.8366 31.179 17.768 32.1964 17.8073 33.1108L17.8316 33.4959V33.4974C17.862 33.8815 18.1923 34.282 18.8324 34.3783H18.8384C30.6074 36.2013 42.6227 37.048 54.9616 34.3449H54.9632C55.8158 34.1586 56.4618 33.2399 56.3369 32.2632C56.259 31.6608 56.1733 31.035 56.064 30.4272L55.9457 29.8268C55.8336 29.3064 55.2797 28.8721 54.5007 28.9686Z" fill="#1A1A1A"/>
</svg>
