<svg width="75" height="86" viewBox="0 0 75 86" fill="none" xmlns="http://www.w3.org/2000/svg">
<path d="M46.4334 46.3747C48.1134 46.6852 49.2314 48.2844 48.9302 49.9611C48.7873 50.7685 48.6864 51.3428 48.6212 51.7775C49.0544 51.8707 49.6305 51.9793 50.427 52.119C52.1086 52.414 53.2265 54.0287 52.9238 55.7055C52.7467 56.6991 52.1117 57.491 51.2763 57.9102C51.9114 58.6088 52.2312 59.5713 52.0542 60.565C51.7514 62.2417 50.1444 63.3595 48.4644 63.049C47.6678 62.9093 47.0902 62.8162 46.6523 62.7541C46.5607 63.1733 46.4536 63.7631 46.3108 64.5549C46.0095 66.2317 44.4025 67.3495 42.7224 67.0545C41.8607 66.8992 41.148 66.4024 40.6977 65.7193C40.0409 66.2006 39.2009 66.4181 38.3392 66.2629C36.6591 65.9679 35.5412 64.3531 35.8424 62.6764C35.9852 61.8846 36.0846 61.2946 36.1498 60.8599C35.7166 60.7667 35.1421 60.6581 34.3456 60.5183C32.6656 60.2234 31.5476 58.6088 31.8488 56.9321C32.0274 55.9384 32.6609 55.1466 33.4947 54.7274C32.8596 54.0287 32.5413 53.0662 32.7199 52.0881C33.0211 50.3958 34.6282 49.2778 36.3082 49.5884C37.1048 49.7281 37.6808 49.8213 38.1187 49.8834C38.2118 49.4643 38.319 48.8898 38.4618 48.0824C38.763 46.4057 40.3701 45.2879 42.0517 45.5829C42.9119 45.7381 43.623 46.2349 44.0733 46.918C44.7301 46.4367 45.5717 46.2194 46.4334 46.3747Z" fill="white"/>
<path d="M40.0269 48.7347C40.1465 48.0671 40.7893 47.6169 41.4616 47.7411C42.134 47.8498 42.5811 48.5019 42.46 49.1695C42.2473 50.3649 42.0719 51.3586 41.8483 52.1038C41.6278 52.849 41.2908 53.6252 40.5766 54.122C39.8623 54.6188 39.0208 54.6655 38.246 54.6034C37.4634 54.5568 36.4697 54.3705 35.2819 54.1686C34.6095 54.0444 34.1624 53.4078 34.2835 52.7247C34.4046 52.0571 35.0474 51.6068 35.7197 51.731C36.9665 51.9484 37.7988 52.1037 38.4121 52.1347C39.0347 52.1813 39.1605 52.0883 39.1636 52.0883C39.1667 52.0883 39.2987 51.995 39.4757 51.4051C39.6512 50.8151 39.8033 49.9768 40.0269 48.7347Z" fill="#DC3412"/>
<path d="M46.8418 49.961C46.9629 49.2779 46.5157 48.6413 45.8434 48.5171C45.1711 48.4084 44.5282 48.8432 44.4087 49.5263C44.1944 50.7062 44.0143 51.6999 43.9615 52.4917C43.9103 53.2525 43.9568 54.1064 44.4537 54.8205C44.9506 55.5347 45.7238 55.8606 46.4676 56.078C47.2206 56.3109 48.2144 56.4817 49.4022 56.699C50.0745 56.8232 50.7173 56.373 50.8369 55.7054C50.958 55.0223 50.5108 54.3856 49.8385 54.2614C48.5917 54.0441 47.7594 53.8889 47.171 53.7181C46.5732 53.5318 46.4847 53.4077 46.4847 53.4077C46.4816 53.3921 46.3884 53.2679 46.4303 52.6469C46.4707 52.0414 46.6182 51.2031 46.8418 49.961Z" fill="#DC3412"/>
<path d="M37.408 63.3284C37.2869 63.996 37.7341 64.6325 38.4064 64.7567C39.0787 64.8809 39.7216 64.4306 39.8427 63.763C40.0554 62.5675 40.237 61.5741 40.2883 60.7978C40.3411 60.0215 40.2945 59.1831 39.7961 58.469C39.2992 57.7548 38.5275 57.4131 37.7838 57.1958C37.0307 56.9629 36.037 56.7921 34.8492 56.5747C34.1768 56.466 33.534 56.9008 33.4129 57.5839C33.2933 58.2515 33.7405 58.8881 34.4128 59.0123C35.6597 59.2452 36.4904 59.3849 37.0804 59.5712C37.6782 59.742 37.7636 59.8661 37.7667 59.8816C37.7667 59.8816 37.863 60.006 37.821 60.627C37.7791 61.248 37.6316 62.0709 37.408 63.3284Z" fill="#DC3412"/>
<path d="M44.224 64.5395C44.1029 65.2226 43.46 65.6574 42.7877 65.5487C42.1154 65.4245 41.6682 64.7725 41.7893 64.1049C42.002 62.925 42.1791 61.9313 42.4026 61.1706C42.6231 60.4254 42.9585 59.6645 43.6743 59.1677C44.3886 58.6709 45.2301 58.6089 46.0034 58.671C46.7875 58.7176 47.7812 58.9038 48.9675 59.1211C49.6398 59.2298 50.087 59.8819 49.9659 60.5495C49.8463 61.2171 49.2035 61.6674 48.5312 61.5432C47.2844 61.3258 46.4521 61.1705 45.8388 61.1395C45.2162 61.0929 45.0888 61.1861 45.0857 61.1861C45.0826 61.1861 44.9506 61.2792 44.7736 61.8691C44.5997 62.4591 44.4476 63.2974 44.224 64.5395Z" fill="#DC3412"/>
</svg>
