<svg width="75" height="86" viewBox="0 0 75 86" fill="none" xmlns="http://www.w3.org/2000/svg">
<path d="M36.4867 84.1852C36.4665 84.1852 36.4448 84.1867 36.4246 84.1867C31.1565 84.4677 23.2552 83.4213 16.7155 79.4264C10.2519 75.4749 5.0459 68.6107 5.0459 57.0032C5.0459 49.65 6.64666 44.4984 9.04392 40.9056C11.4365 37.3206 14.6862 35.1903 18.1641 33.9855C25.1882 31.5525 33.0662 32.9266 36.1731 33.7961C39.6572 34.7712 41.9939 34.3178 44.3026 33.6548C44.6163 33.5648 44.9283 33.4715 45.2404 33.3784C47.1626 32.8039 49.122 32.217 52.013 32.217C58.3415 32.217 69.4801 40.2643 69.4801 57.0032C69.4801 65.3983 67.1186 72.1228 61.9514 76.7698C56.7625 81.4386 48.5522 84.1852 36.4867 84.1852Z" fill="#85E0A3"/>
<path d="M68.3156 57.003C68.3155 48.9049 65.626 42.9824 62.2415 39.0977C58.8196 35.1702 54.75 33.3814 52.0129 33.3814C49.3023 33.3814 47.4802 33.9245 45.5734 34.4944L44.6243 34.7733C42.1986 35.4699 39.626 35.9716 35.8589 34.9174C32.8468 34.0745 25.2422 32.7659 18.5449 35.0857C15.265 36.222 12.2416 38.2132 10.013 41.5525C7.77448 44.9075 6.21032 49.8171 6.2103 57.003C6.2103 68.1841 11.1875 74.6811 17.3228 78.432C23.6094 82.2723 31.2596 83.2954 36.3623 83.0232C36.3829 83.0221 36.4038 83.0217 36.4244 83.0217H36.4396C36.4512 83.0214 36.4676 83.0202 36.4866 83.0202C48.3978 83.0202 56.2793 80.3071 61.1725 75.9044L61.6198 75.489C66.1627 71.1434 68.3156 64.9245 68.3156 57.003ZM70.6445 57.003C70.6445 65.6159 68.2152 72.7027 62.7297 77.636C57.2451 82.5705 48.706 85.3491 36.4866 85.3491H36.4972C36.4927 85.3493 36.4823 85.3503 36.4714 85.3506C36.4641 85.3508 36.4548 85.3505 36.4442 85.3506C31.1811 85.6238 23.3906 84.6248 16.7497 80.8004L16.1083 80.4198C9.31662 76.2678 3.88135 69.0366 3.88135 57.003C3.88138 49.4827 5.5194 44.0896 8.07527 40.2591L8.56502 39.5586C11.0666 36.1485 14.3365 34.0795 17.7823 32.8856C25.1329 30.3395 33.2848 31.7788 36.4866 32.6749C39.6878 33.5707 41.7895 33.1648 43.9814 32.5354C44.2878 32.4474 44.5934 32.3558 44.9063 32.2625C46.8438 31.6834 48.9416 31.0525 52.0129 31.0525C55.6043 31.0525 60.2678 33.2873 63.9973 37.5678C67.7641 41.8913 70.6445 48.3623 70.6445 57.003Z" fill="#1A1A1A"/>
<path d="M55.7081 18.8907C45.0555 20.8657 40.3262 28.4099 38.7798 33.7618C38.3466 35.2586 39.376 36.7211 40.91 36.9929C56.9285 39.8264 59.6689 29.0418 58.8398 21.2041C58.6767 19.6577 57.2374 18.6082 55.7081 18.8907Z" fill="#14AE5C"/>
<path d="M55.4969 17.7455C57.6773 17.3428 59.7627 18.845 59.9986 21.0827C60.4268 25.1319 59.963 30.1488 57.1117 33.8146C54.1789 37.585 48.9876 39.6036 40.7075 38.1389C38.5748 37.7612 37.0134 35.6781 37.6613 33.4386L37.8236 32.9018C39.6127 27.2933 44.6475 19.7568 55.4954 17.7455H55.4969ZM57.6818 21.3268C57.5916 20.4718 56.7981 19.8743 55.9199 20.0365V20.035C45.8134 21.9089 41.3573 29.0339 39.8978 34.0845V34.086C39.68 34.8397 40.1788 35.6807 41.1138 35.8464H41.1123C48.8505 37.2152 53.0393 35.2577 55.274 32.3848C57.4447 29.5938 58.0145 25.6462 57.747 22.0425L57.6818 21.3268Z" fill="#1A1A1A"/>
<path d="M55.3138 26.1666C53.1386 28.8697 50.4805 31.0744 48.2633 32.6099C47.5693 33.0928 47.9497 34.1781 48.7586 33.9327C53.2845 32.5509 55.5188 29.3758 56.4503 26.6431C56.7065 25.8901 55.8122 25.5471 55.3138 26.1666Z" fill="#008043"/>
<path d="M31.7294 18.47L26.3945 23.2567C33.9434 24.9755 36.8531 33.414 37.3639 37.4183H40.3682C40.3682 27.2889 35.4091 20.2229 31.7294 18.47Z" fill="#A55E40"/>
<path d="M31.0903 17.4966C31.4269 17.2755 31.8594 17.2425 32.2305 17.4193C34.3786 18.4428 36.6937 20.8831 38.4607 24.2636C40.2464 27.6799 41.5326 32.1638 41.5326 37.4185C41.5325 38.0616 41.0112 38.583 40.3681 38.583H37.3645C36.7783 38.583 36.2833 38.147 36.2091 37.5656C35.9713 35.702 35.1625 32.7542 33.5269 30.0905C31.8969 27.4364 29.5104 25.1609 26.1367 24.3925C25.7125 24.2959 25.3773 23.9705 25.2679 23.5495C25.1586 23.1282 25.2927 22.6802 25.6166 22.3895L30.9523 17.6028L31.0903 17.4966ZM28.6825 22.7686C31.7715 24.0421 33.9858 26.3893 35.5101 28.8715C37.0732 31.4167 37.9565 34.1709 38.3531 36.2541H39.1779C39.0056 31.8874 37.8805 28.1814 36.3971 25.3432C34.9894 22.6502 33.3039 20.8157 31.8848 19.8938L28.6825 22.7686Z" fill="#1A1A1A"/>
<path opacity="0.5" d="M56.8851 70.5468C54.7068 73.4332 48.5242 76.4794 42.7407 78.3395C41.0887 78.872 41.1585 80.3191 42.8618 79.9821C49.1313 78.7431 56.1507 75.8677 58.9998 74.2234C61.5927 72.7252 63.4435 66.465 64.5319 60.3849C64.847 58.6196 62.782 58.1817 62.1299 59.8523C60.4997 64.0289 58.5868 68.2909 56.8851 70.5468Z" fill="#14AE5C"/>
<path d="M40.2503 62.1713C39.9996 63.4329 38.6134 64.2205 37.1542 63.9305C35.695 63.6406 34.7153 62.3828 34.966 61.1212C35.2167 59.8596 36.6029 59.072 38.0621 59.362C39.5213 59.652 40.501 60.9098 40.2503 62.1713Z" fill="#FFAFA3"/>
<path d="M38.9296 61.9089C39.0549 61.2781 38.5651 60.6492 37.8355 60.5043C37.1058 60.3593 36.4128 60.7531 36.2874 61.3839C36.1621 62.0146 36.6519 62.6435 37.3815 62.7885C38.1111 62.9335 38.8042 62.5397 38.9296 61.9089ZM41.5717 62.434C41.1957 64.3264 39.1164 65.5078 36.9276 65.0728C34.7387 64.6378 33.2692 62.7511 33.6453 60.8588C34.0213 58.9664 36.1006 57.785 38.2894 58.22C40.4782 58.655 41.9478 60.5416 41.5717 62.434Z" fill="#1A1A1A"/>
<path d="M44.3988 53.0174C45.2348 53.0174 45.9125 53.695 45.9125 54.531C45.9124 55.3671 45.2348 56.0447 44.3988 56.0447C43.5628 56.0447 42.8851 55.3671 42.8851 54.531C42.8851 53.695 43.5628 53.0174 44.3988 53.0174ZM45.9544 48.9607C46.573 48.6328 47.3164 48.7474 47.6146 49.2156C47.9125 49.6837 47.6537 50.329 47.0355 50.657L47.0326 50.658C47.0315 50.6586 47.0304 50.6599 47.0287 50.6609C47.0239 50.6634 47.0153 50.6668 47.0062 50.6717C46.9878 50.6814 46.9606 50.6964 46.9261 50.7146C46.8563 50.7516 46.755 50.805 46.6302 50.8709C46.3804 51.0027 46.0343 51.185 45.6517 51.3855C44.8907 51.7844 43.9672 52.2646 43.3607 52.5672L43.2425 52.6199C42.6437 52.8614 41.9823 52.7157 41.721 52.2674C41.4424 51.789 41.7252 51.1468 42.3529 50.8338L43.3988 50.3015C43.7899 50.0993 44.2049 49.8822 44.5863 49.6824C44.9652 49.4838 45.3083 49.3034 45.556 49.1726L45.9281 48.9754C45.9369 48.9707 45.944 48.967 45.9486 48.9646C45.9503 48.9637 45.9515 48.9623 45.9525 48.9617L45.9544 48.9607Z" fill="#1A1A1A"/>
<path d="M31.1212 51.1163C30.2854 51.1163 29.6078 51.7941 29.6076 52.6299C29.6076 53.466 30.2852 54.1445 31.1212 54.1446C31.9573 54.1446 32.6349 53.466 32.6349 52.6299C32.6347 51.7941 31.9571 51.1163 31.1212 51.1163ZM29.5656 47.0606C28.9471 46.7327 28.2037 46.8464 27.9054 47.3145C27.6074 47.7826 27.8664 48.4279 28.4845 48.7559L28.4874 48.7569C28.4885 48.7575 28.4895 48.7598 28.4914 48.7608C28.4961 48.7633 28.5047 48.7667 28.5138 48.7716C28.5322 48.7813 28.5595 48.7953 28.5939 48.8135C28.6638 48.8505 28.765 48.9049 28.8898 48.9708C29.1396 49.1026 29.4857 49.2839 29.8683 49.4844C30.6294 49.8833 31.5528 50.3635 32.1593 50.6661L32.2775 50.7188C32.8762 50.9603 33.5375 50.8153 33.799 50.3673C34.0776 49.8889 33.7948 49.2467 33.1671 48.9337L32.1212 48.4005C31.7304 48.1984 31.3158 47.982 30.9347 47.7823C30.5558 47.5837 30.2127 47.4033 29.965 47.2725L29.5919 47.0743C29.5832 47.0697 29.5759 47.0659 29.5714 47.0635C29.5696 47.0625 29.5686 47.0612 29.5675 47.0606H29.5656Z" fill="#1A1A1A"/>
</svg>
