<svg width="75" height="86" viewBox="0 0 75 86" fill="none" xmlns="http://www.w3.org/2000/svg">
<path d="M12.7159 32.1293C11.863 34.086 11.2597 37.7376 10.9697 40.1553C10.9013 40.7254 11.166 41.2808 11.6439 41.5994L20.1728 47.2848C20.624 47.5855 21.1995 47.6291 21.6907 47.4L32.9494 42.1465C33.267 41.9982 33.5364 41.7506 33.6376 41.4152C34.3562 39.0349 32.8803 34.9982 31.6127 32.3706C31.2515 31.6218 30.3729 31.3991 29.7765 31.9782C28.2767 33.4341 26.0953 36.1474 24.7115 37.9565C24.4147 38.3446 23.9558 38.5739 23.4672 38.5739H20.5003C19.7603 38.5739 19.135 38.0443 18.8608 37.3569C17.9504 35.0752 15.9226 33.0323 14.3975 31.8064C13.8206 31.3426 13.0116 31.4508 12.7159 32.1293Z" fill="#CB0B96"/>
<path d="M15.4359 61.3826C8.13191 57.1225 6.27489 44.2309 6.21002 36.6961C6.20112 35.6624 7.22319 34.961 8.14635 35.4263C12.9378 37.8414 15.5291 42.5289 16.272 45.5C14.51 37.2785 19.4958 31.8931 23.1902 29.0046C23.9346 28.4227 25.0142 28.7017 25.361 29.5806C27.8415 35.8645 27.0727 42.7492 26.3042 46.3358C28.5026 40.2905 33.4867 37.9713 36.8944 36.8728C37.8689 36.5585 38.8448 37.3193 38.8226 38.3427C38.5182 52.3738 35.0832 59.5202 32.1563 61.3826C25.4682 64.7264 17.3866 62.7759 15.4359 61.3826Z" fill="#FF99E0"/>
<path fill-rule="evenodd" clip-rule="evenodd" d="M22.4734 28.0873C23.8136 27.0397 25.8042 27.5301 26.4447 29.1532C26.9038 30.3161 27.2565 31.4964 27.5218 32.6718C28.0325 32.0962 28.5246 31.5702 28.9648 31.1429C29.5416 30.5828 30.3111 30.3758 31.0397 30.5408C31.7515 30.702 32.3386 31.1959 32.6612 31.8647C33.2965 33.1817 33.9911 34.8578 34.4539 36.5353C35.1911 36.223 35.8954 35.9715 36.5375 35.7645C38.3115 35.1925 40.026 36.584 39.9873 38.368C39.8333 45.4674 38.8868 50.8834 37.5777 54.7954C36.2854 58.6574 34.583 61.219 32.782 62.365L32.7313 62.3973L32.6776 62.4241C29.0905 64.2175 25.171 64.5748 21.9287 64.3198C20.3023 64.1919 18.823 63.9083 17.6098 63.5598C16.452 63.2271 15.454 62.8118 14.8061 62.363C10.7909 59.9978 8.39904 55.3682 6.99179 50.5967C5.5672 45.7665 5.07906 40.5462 5.046 36.7061C5.03041 34.8958 6.88619 33.4869 8.67102 34.3865C9.33284 34.7201 9.95527 35.0933 10.5392 35.4973C10.8374 34.0617 11.2074 32.6746 11.6479 31.6641C11.9555 30.9583 12.5631 30.5114 13.2522 30.3922C13.9189 30.2767 14.5988 30.4745 15.1267 30.8988C15.8634 31.491 16.7372 32.284 17.5636 33.221C19.0589 31.0178 20.9054 29.3133 22.4734 28.0873ZM16.3189 35.3611C15.5087 34.3379 14.5546 33.4323 13.7161 32.7532C13.2679 33.8528 12.8843 35.5127 12.5884 37.1753C13.4842 38.0358 14.2539 38.962 14.9032 39.899C15.1477 38.2351 15.6533 36.7236 16.3189 35.3611ZM32.3218 37.5861C32.2973 37.4873 32.2716 37.3875 32.2446 37.2866C32.2215 37.2003 32.1976 37.1138 32.1731 37.0271C31.7585 35.5659 31.1425 34.0769 30.5634 32.8765C30.5586 32.8666 30.5539 32.858 30.5493 32.8506C29.8209 33.5628 28.9165 34.5914 28.0228 35.6667C28.2297 37.5058 28.2546 39.2844 28.1749 40.9123C29.4501 39.4745 30.8946 38.4002 32.3218 37.5861ZM23.9079 29.922C24.0565 29.8058 24.2251 29.8733 24.2783 30.008C26.6354 35.9795 25.9151 42.5959 25.1659 46.0919L27.399 46.7338C29.413 41.196 33.9671 39.04 37.2523 37.981C37.4272 37.9246 37.6645 38.0546 37.6588 38.3175C37.5084 45.2491 36.5852 50.4219 35.369 54.0565C34.1533 57.6894 32.6988 59.6291 31.579 60.3695C28.4926 61.8957 25.0515 62.2294 22.1114 61.9982C20.6376 61.8823 19.3127 61.626 18.253 61.3215C17.166 61.0092 16.4426 60.6704 16.1133 60.4351L16.0696 60.4039L16.0232 60.3768C12.7606 58.4739 10.5841 54.5439 9.22574 49.938C7.87958 45.3737 7.40678 40.3808 7.37497 36.6861C7.37396 36.5688 7.4266 36.5002 7.47491 36.468C7.49959 36.4516 7.52162 36.4456 7.53844 36.4443C7.55194 36.4433 7.57858 36.4438 7.62262 36.466C12.0444 38.6948 14.4617 43.0588 15.1427 45.7824L17.4111 45.256C15.7931 37.7061 20.3229 32.725 23.9079 29.922Z" fill="#1A1A1A"/>
</svg>
