<svg width="75" height="86" viewBox="0 0 75 86" fill="none" xmlns="http://www.w3.org/2000/svg">
<path d="M67.1107 82.7243C53.8279 79.293 18.7571 61.655 3.10498 48.4576C3.10498 48.4576 14.3848 44.4986 29.1566 40.8344C43.9283 37.1546 54.7378 34.158 54.7378 34.158C60.4126 43.2564 67.3312 66.7476 70.025 79.7121C70.4147 81.6063 68.9707 83.2056 67.1107 82.7243Z" fill="#E0D4ED"/>
<path d="M55.7263 33.5424C58.6476 38.2263 61.8326 46.4979 64.6085 55.1291C67.0466 62.7102 69.1993 70.6662 70.6082 76.9099L71.1647 79.4754L71.1662 79.4769L70.1139 79.6922L70.0624 79.7043L71.1662 79.4769C71.4322 80.7697 71.0814 82.0366 70.258 82.9082C69.42 83.7949 68.1572 84.1975 66.8191 83.8513L65.4864 83.4828C58.5159 81.4314 47.0768 76.3736 35.4557 70.2855C23.0479 63.7852 10.2785 56.0289 2.3546 49.3477L0.795898 48.0346L2.72001 47.3584H2.72153C2.72307 47.3578 2.72619 47.3563 2.72911 47.3553C2.73492 47.3533 2.74389 47.3501 2.75488 47.3462C2.77732 47.3384 2.81012 47.3264 2.85344 47.3114C2.9411 47.281 3.07144 47.2362 3.2416 47.1779C3.58187 47.0615 4.08322 46.8913 4.73055 46.6761C6.02547 46.2454 7.90516 45.6346 10.2466 44.9081C14.9285 43.4555 21.463 41.543 28.8752 39.7044C36.2537 37.8663 42.6426 36.1983 47.1868 34.9904C49.4585 34.3866 51.2697 33.8985 52.5119 33.5606C53.1327 33.3917 53.6121 33.2598 53.9356 33.1709C54.0972 33.1265 54.2202 33.092 54.3026 33.0693C54.3437 33.0579 54.3759 33.0508 54.3966 33.045C54.4067 33.0422 54.4142 33.0389 54.4193 33.0375C54.4218 33.0368 54.4241 33.0363 54.4254 33.0359H54.4269L55.2654 32.804L55.7263 33.5424ZM53.1244 35.8076C51.8783 36.1466 50.0625 36.6368 47.7857 37.242C43.2324 38.4523 36.8306 40.122 29.4377 41.9636V41.9651C22.0786 43.7905 15.5872 45.6895 10.9365 47.1324C8.61275 47.8534 6.74902 48.459 5.46744 48.8852C13.2645 55.0996 25.0003 62.1781 36.5368 68.2218C48.9096 74.7038 60.8978 79.9164 67.4014 81.5966H67.4029C67.9247 81.7316 68.3143 81.5747 68.5658 81.3085C68.8314 81.0271 69.0079 80.5462 68.8843 79.9454C67.5467 73.5092 65.1546 64.4371 62.3902 55.8417C59.7632 47.6734 56.834 40.0492 54.1934 35.5135C53.9054 35.5923 53.5481 35.6924 53.1244 35.8076Z" fill="#1A1A1A"/>
<path d="M31.2047 53.2168C30.7544 53.2612 29.976 53.4461 29.2745 53.8309C28.5772 54.2134 28.1201 54.6958 27.9508 55.2713C27.8644 55.5682 27.8969 55.7263 27.9205 55.799C27.9475 55.8816 28.0086 55.9851 28.1479 56.1068C28.4651 56.3837 28.9919 56.5783 29.4004 56.6435L28.9121 59.7109C28.1517 59.5897 27.0063 59.2327 26.1056 58.4463C25.6364 58.0366 25.2017 57.4807 24.9669 56.7572C24.7288 56.0236 24.7311 55.2264 24.9699 54.4055L24.9714 54.404C25.4518 52.7606 26.661 51.722 27.781 51.1077C28.898 50.4951 30.0911 50.2065 30.8999 50.1267L31.2047 53.2168Z" fill="#681ABB"/>
<path d="M38.7838 62.3083C38.8758 62.7596 39.1381 63.5177 39.5889 64.1764C39.9815 64.7501 40.4317 65.1317 40.9353 65.2908L41.1552 65.3454L41.1643 65.3469C41.4652 65.4042 41.6153 65.3583 41.6828 65.3287C41.7606 65.2946 41.8572 65.224 41.9648 65.0725C42.2093 64.7281 42.3493 64.1827 42.3712 63.7761L45.4719 63.9429C45.4302 64.7162 45.1895 65.8953 44.497 66.8707C44.1362 67.3788 43.6254 67.8677 42.9277 68.1732C42.2197 68.4831 41.4244 68.5561 40.5835 68.3961C38.8986 68.083 37.7476 66.9842 37.0264 65.9307C36.3059 64.8778 35.9033 63.7179 35.7422 62.927L38.7838 62.3083Z" fill="#681ABB"/>
<path d="M36.4934 41.0874C36.3204 41.517 36.1199 42.2941 36.1325 43.0918C36.1452 43.8845 36.3593 44.5128 36.7936 44.9341C37.0149 45.148 37.1687 45.194 37.244 45.207C37.3296 45.2218 37.4494 45.2158 37.6215 45.1494C38.0128 44.9984 38.4289 44.6238 38.6707 44.2942L41.1741 46.1319C40.7095 46.7648 39.8574 47.6157 38.7405 48.0469C38.1584 48.2716 37.4625 48.3965 36.7133 48.2668C35.9539 48.1351 35.2513 47.7607 34.6375 47.1675C33.4042 45.9743 33.0493 44.4208 33.0288 43.1419C33.0085 41.8673 33.3105 40.6794 33.6126 39.929L36.4934 41.0874Z" fill="#681ABB"/>
<path d="M56.4046 45.2405C56.7051 45.9896 57.0071 47.1772 56.9868 48.4519C56.9663 49.7309 56.6125 51.2842 55.3781 52.4775C54.7644 53.0711 54.0612 53.4448 53.3023 53.5768C52.5542 53.7068 51.8607 53.5827 51.2797 53.36C50.1639 52.9322 49.3121 52.0869 48.8491 51.4662L51.3388 49.6103C51.5823 49.9366 51.9986 50.3105 52.3911 50.4609C52.5636 50.527 52.6841 50.5318 52.7701 50.517C52.8456 50.5039 52.9982 50.459 53.2189 50.2456V50.2441C53.6548 49.8228 53.8704 49.1954 53.883 48.4018C53.8957 47.6042 53.6951 46.8267 53.5222 46.3959L56.4046 45.2405Z" fill="#681ABB"/>
<path d="M19.5625 46.8277C20.3044 46.6512 20.985 46.8434 21.4805 47.0825L21.479 47.084C22.613 47.6244 23.0073 48.7371 23.0104 49.6707C23.0134 50.5894 22.6589 51.5809 21.9869 52.2589L21.0256 51.3052L21.1591 51.4386L21.9869 52.2589L21.9809 52.2634C21.3584 52.8834 20.5402 53.1636 19.7838 53.2293C19.0264 53.295 18.231 53.1567 17.5565 52.8245V52.8229C17.2558 52.6765 16.8853 52.4511 16.5739 52.1285C16.2594 51.8025 15.925 51.2909 15.925 50.6153C15.925 50.4968 15.9202 50.4627 15.9159 50.2711C15.9127 50.1269 15.9124 49.9235 15.9477 49.7025C16.0366 49.1318 16.3273 48.7066 16.58 48.4167C16.8156 48.1467 17.1184 47.8895 17.2517 47.7678V47.7693C17.6523 47.3894 18.1848 47.1992 18.5238 47.0946C18.8918 46.981 19.3428 46.8837 19.5458 46.8323L19.8475 48.024L19.8324 47.9604L19.5458 46.8323L19.5625 46.8277ZM20.9347 48.2121L20.4768 49.184L20.4692 49.1809L20.3266 49.1218C20.2063 49.082 20.1351 49.0861 20.1038 49.093C19.7626 49.179 19.5051 49.2296 19.2107 49.3204C19.0763 49.3619 18.9752 49.3999 18.9044 49.4341C18.8444 49.4632 18.8323 49.4772 18.8453 49.466L18.8422 49.4705L18.8225 49.4887L18.6679 49.6267C18.619 49.6703 18.575 49.7092 18.5329 49.748C18.448 49.8264 18.3851 49.8902 18.3358 49.9466C18.2446 50.0512 18.2421 50.0857 18.2464 50.0679L18.2479 50.0694C18.246 50.0812 18.2411 50.1193 18.2433 50.2196C18.2442 50.26 18.2483 50.3936 18.2509 50.5122C18.2793 50.5415 18.3237 50.5786 18.3843 50.6198C18.4445 50.6607 18.511 50.6994 18.5784 50.732L18.8059 50.823C19.0399 50.8978 19.313 50.9328 19.5822 50.9094C19.9423 50.8782 20.1957 50.7545 20.3373 50.6138C20.5248 50.4208 20.6827 50.0488 20.6814 49.6783C20.6802 49.3213 20.5514 49.2193 20.4768 49.184L20.9741 48.1317L20.9347 48.2121ZM17.0971 49.886L17.558 49.9557L17.0971 49.886Z" fill="#9747FF"/>
<path d="M41.1371 51.6503C42.0533 51.6585 43.0416 52.0224 43.7102 52.7056L43.7132 52.7071L43.927 52.9527C44.3899 53.542 44.6056 54.2539 44.6563 54.9178C44.714 55.6741 44.5661 56.4673 44.2196 57.1376C44.0704 57.43 43.8411 57.8029 43.51 58.114C43.1806 58.4235 42.6694 58.7421 42.0014 58.7342V58.7357C41.8561 58.7357 41.8908 58.7426 41.6541 58.7463C41.5165 58.7484 41.321 58.7419 41.1068 58.7054V58.7084C41.0924 58.7063 41.0785 58.7016 41.0643 58.6993C41.0579 58.6981 41.0511 58.6991 41.0446 58.6978V58.6963C40.4839 58.5992 40.0718 58.3061 39.7967 58.0579C39.5464 57.8321 39.2705 57.5047 39.1736 57.3999L39.1766 57.3968C38.7893 56.9887 38.6003 56.4415 38.5004 56.1004C38.4463 55.916 38.3973 55.709 38.3548 55.5243L38.2532 55.08L38.2502 55.0664C38.0789 54.3114 38.2789 53.6422 38.5186 53.1498L38.5246 53.1377L39.5663 53.6593L39.6497 53.7002L38.5246 53.1377C39.0853 52.017 40.2061 51.6421 41.1371 51.6503ZM41.1174 53.9792C40.7558 53.976 40.6453 54.1051 40.6079 54.1794C40.5079 54.3884 40.5091 54.4936 40.52 54.5463C40.6021 54.8896 40.6474 55.1454 40.7353 55.4454C40.7751 55.5811 40.8128 55.6823 40.846 55.7532C40.8739 55.8129 40.8869 55.8239 40.8748 55.8093L40.8839 55.8184L40.0515 56.5856L40.0393 56.5978L40.8839 55.8184C40.9701 55.9117 41.0971 56.0571 41.1568 56.1232C41.2378 56.213 41.301 56.2774 41.357 56.3279C41.4105 56.3762 41.4429 56.3971 41.457 56.4052L41.4692 56.4082L41.501 56.4143C41.5064 56.4149 41.5382 56.4186 41.6178 56.4173C41.6646 56.4166 41.7114 56.4137 41.7785 56.4113C41.8195 56.4098 41.8685 56.4092 41.921 56.4082C41.9486 56.3812 41.9856 56.3411 42.0256 56.2839C42.0685 56.2226 42.1097 56.1521 42.1469 56.0792L43.1401 56.5872L43.0673 56.5477L42.1469 56.0792L42.15 56.0716C42.2848 55.8123 42.3622 55.4533 42.3349 55.0952C42.3077 54.7385 42.1868 54.4812 42.0453 54.334L41.9695 54.2658C41.7718 54.1093 41.4479 53.9824 41.1174 53.9792Z" fill="#9747FF"/>
<path d="M48.9043 36.9563C49.8224 36.9675 50.8075 37.3364 51.4728 38.0162L50.6768 38.7955L50.7329 38.7394L51.4728 38.0162L51.4758 38.0192L51.6896 38.2648C52.1525 38.854 52.3682 39.566 52.4189 40.2299C52.4766 40.9858 52.3283 41.7781 51.9823 42.4481L51.9838 42.4496C51.8345 42.7421 51.6038 43.115 51.2727 43.4261C50.9432 43.7356 50.4321 44.0542 49.764 44.0462V44.0478C49.6188 44.0478 49.6534 44.0547 49.4168 44.0584C49.2724 44.0606 49.0641 44.0549 48.8376 44.0129V44.0159C48.8294 44.0145 48.8215 44.0113 48.8133 44.0099C48.8114 44.0095 48.8092 44.0102 48.8073 44.0099V44.0083C48.2536 43.9053 47.844 43.6183 47.5639 43.3685C47.3088 43.1408 47.0444 42.829 46.9362 42.712L46.9377 42.7104C46.5557 42.3015 46.3678 41.7583 46.2645 41.408C46.1558 41.0392 46.0639 40.5922 46.0159 40.3921L46.0128 40.3769L45.9658 40.098C45.8929 39.4579 46.0716 38.8925 46.2812 38.4619L46.2842 38.4559C46.8432 37.3234 47.9678 36.945 48.9043 36.9563ZM48.8755 39.2852C48.5192 39.281 48.4111 39.4068 48.3721 39.4854C48.2693 39.6983 48.2716 39.8053 48.2826 39.8584C48.3636 40.1969 48.4108 40.4542 48.4979 40.7499C48.5376 40.8845 48.5758 40.987 48.6101 41.0608L48.6359 41.1199L48.6465 41.1305C48.6968 41.1849 48.7456 41.2396 48.7891 41.2882C48.8346 41.3392 48.8749 41.3839 48.9149 41.4277C48.9949 41.5153 49.0584 41.5803 49.1151 41.6309C49.2297 41.7331 49.2594 41.7251 49.2318 41.7203L49.2485 41.7234L49.2636 41.7264C49.269 41.727 49.3009 41.7307 49.3804 41.7294C49.4272 41.7287 49.474 41.7258 49.5411 41.7234C49.5822 41.7219 49.6312 41.7213 49.6836 41.7203C49.7112 41.6933 49.7482 41.6532 49.7883 41.596C49.8311 41.5347 49.8724 41.4642 49.9096 41.3913L49.9126 41.3837C50.0474 41.1244 50.1248 40.7654 50.0976 40.4073C50.0703 40.0506 49.9494 39.7933 49.808 39.6461L49.7306 39.5764C49.5302 39.4174 49.204 39.2892 48.8755 39.2852Z" fill="#9747FF"/>
<path d="M56.2224 57.6496C56.9646 57.4729 57.6464 57.6652 58.142 57.9043L58.1404 57.9058C59.274 58.4463 59.6673 59.5591 59.6703 60.4925C59.6734 61.4112 59.3188 62.4027 58.6469 63.0808L58.6423 63.0853C58.0234 63.7017 57.2076 63.9886 56.4483 64.0572C55.6951 64.1252 54.9006 63.9883 54.2225 63.6478V63.6494L54.2043 63.6403V63.6387C53.9075 63.4925 53.5441 63.2695 53.2369 62.9519C52.9226 62.6266 52.5865 62.1142 52.5865 61.4372C52.5864 61.3173 52.5813 61.2806 52.5774 61.0915C52.5744 60.9482 52.5746 60.7483 52.6077 60.532V60.5304C52.6961 59.9571 52.9876 59.53 53.2415 59.2386C53.477 58.9684 53.7789 58.7122 53.9132 58.5897V58.5912C54.3138 58.2115 54.8464 58.0211 55.1853 57.9164C55.5534 57.8028 56.0041 57.7056 56.2072 57.6541L56.2224 57.6496ZM55.4825 60.3106C55.4302 60.3583 55.376 60.4068 55.3293 60.4486C55.2806 60.4922 55.2364 60.5311 55.1944 60.5699C55.1095 60.6482 55.0466 60.712 54.9973 60.7685C54.9017 60.8782 54.9033 60.9117 54.9078 60.8898C54.9054 60.9092 54.9029 60.9516 54.9048 61.0429C54.9056 61.0843 54.9099 61.2156 54.9124 61.3325C54.941 61.3621 54.9847 61.4001 55.0458 61.4417L55.2414 61.5554L55.2611 61.5645H55.2596C55.5227 61.6985 55.8827 61.7695 56.2391 61.7374C56.5916 61.7055 56.8451 61.582 56.9911 61.4402C57.1809 61.2487 57.3426 60.874 57.3414 60.5001C57.3402 60.1431 57.2114 60.0412 57.1367 60.0058L57.1291 60.0028C56.9214 59.9026 56.8079 59.9057 56.7652 59.9148C56.4241 60.0009 56.1665 60.0514 55.8721 60.1423C55.7377 60.1838 55.6367 60.2217 55.5659 60.256C55.5284 60.2742 55.5096 60.287 55.5037 60.2909L55.5022 60.2924L55.4825 60.3106L54.7062 59.4585H54.7046L55.4825 60.3106Z" fill="#9747FF"/>
<path d="M31.0198 31.7358C25.1617 33.3971 9.98003 39.5922 3.10498 43.1322L8.09979 53.0691C15.8676 49.5601 30.1021 44.2191 32.5724 43.5204C34.9759 42.8372 48.5924 39.0488 55.6321 37.0925C55.9985 36.9993 56.3183 36.7663 56.4907 36.4247C57.0776 35.2603 57.7126 33.2729 57.253 31.7358C56.7996 30.1987 55.5964 28.9255 54.744 28.2579C54.4723 28.0405 54.1229 27.963 53.7782 28.0096C48.2198 28.6151 36.6915 30.121 31.0198 31.7358Z" fill="#7F699B"/>
<path d="M53.6523 26.8532C54.2541 26.7789 54.9164 26.9117 55.4611 27.343L55.4626 27.3415C56.4107 28.0842 57.819 29.5413 58.3693 31.402L58.4663 31.7901C58.6545 32.6996 58.5753 33.6409 58.4042 34.4587C58.2058 35.4061 57.8628 36.2895 57.5308 36.9484L56.0979 36.2266L56.4907 36.4253L57.5308 36.9484V36.9499L57.3898 37.191C57.039 37.7214 56.5054 38.0625 55.9433 38.2114L55.9448 38.2144C48.9025 40.1715 35.2895 43.9583 32.8904 44.6403L32.3081 44.8207C28.7522 45.9746 15.8379 50.8514 8.57893 54.1304C8.01012 54.387 7.34001 54.1497 7.05966 53.5922L2.06516 43.6547C1.77859 43.0844 2.00438 42.3901 2.57158 42.0975C9.49786 38.5312 24.7511 32.3026 30.7009 30.615C36.472 28.972 48.0663 27.4624 53.6219 26.8563C53.6318 26.8549 53.6423 26.8529 53.6523 26.8517V26.8532ZM53.7781 28.0101L53.9343 29.164C53.9244 29.1653 53.9138 29.166 53.9039 29.167C48.3304 29.7742 36.8993 31.2727 31.3377 32.856L31.1133 32.0646L31.3377 32.856C25.8451 34.4137 11.8804 40.0793 4.66854 43.6502L8.6411 51.5528C16.5991 48.0431 29.8126 43.0903 32.255 42.3993C34.6653 41.7142 48.2839 37.9258 55.3201 35.9704L55.3459 35.9643C55.4227 35.9447 55.4462 35.9084 55.4505 35.9007L55.6431 35.4882C55.8329 35.0466 56.0121 34.5219 56.1252 33.9811C56.2789 33.247 56.2903 32.5805 56.1374 32.0691L56.1359 32.0646C55.7785 30.8538 54.7826 29.7667 54.0268 29.1746L54.7788 28.2133L54.7439 28.2573L54.0268 29.1746L54.0161 29.167C54.0146 29.1664 54.0119 29.1663 54.0086 29.1655C53.996 29.1624 53.9709 29.159 53.9343 29.164L53.7781 28.0086V28.0101Z" fill="#1A1A1A"/>
<path d="M8.83125 47.1378C9.75352 50.2431 8.90579 52.8981 7.05194 53.4105C5.1981 53.9229 2.58966 52.1994 1.66895 49.0941C0.746689 45.9889 1.50283 43.07 3.35667 42.5576C5.21051 42.0452 7.91054 44.0325 8.83125 47.1378Z" fill="#604D75"/>
<path d="M3.04671 41.4357C4.47943 41.0399 6.00036 41.642 7.1724 42.5835C8.38047 43.5541 9.41997 45.0289 9.94712 46.8063C10.4579 48.5262 10.5046 50.2001 10.1003 51.5748C9.69611 52.9483 8.79077 54.1381 7.36193 54.533C5.97642 54.9159 4.49194 54.4322 3.30902 53.5384C2.10303 52.6269 1.0804 51.2061 0.552489 49.4263L0.38267 48.7819C0.0333956 47.282 0.0231672 45.8065 0.344764 44.5622C0.706054 43.1645 1.5615 41.8462 3.04671 41.4357ZM5.71378 44.3985C4.84269 43.6989 4.08769 43.5636 3.66685 43.6798C3.29835 43.7816 2.84914 44.1788 2.59942 45.1445C2.35602 46.0862 2.37237 47.3746 2.7844 48.7622L2.78591 48.7637C3.17885 50.0885 3.92155 51.0813 4.71306 51.6795C5.52783 52.2952 6.27375 52.4168 6.74179 52.2875C7.16661 52.1699 7.61277 51.7762 7.86532 50.9183C8.11752 50.0612 8.12658 48.8539 7.71522 47.4689C7.3216 46.1413 6.5492 45.0697 5.71378 44.3985Z" fill="#1A1A1A"/>
<path d="M58.0483 75.2783H51.0483L54.5483 70.0283L58.0483 75.2783Z" fill="#FFAFA3"/>
<path d="M58.049 76.4429C58.4783 76.4427 58.8729 76.2058 59.0755 75.8273C59.2778 75.4488 59.2558 74.9896 59.0179 74.6325L55.5169 69.3817C55.3009 69.0582 54.937 68.8632 54.548 68.8632C54.159 68.8633 53.795 69.0581 53.5791 69.3817L50.0796 74.6325C49.8415 74.9897 49.8196 75.4487 50.022 75.8273C50.2247 76.2059 50.6191 76.4429 51.0485 76.4429H58.049ZM54.548 72.1292L55.8732 74.1139H53.2243L54.548 72.1292Z" fill="#1A1A1A"/>
<path d="M57.9396 70.2131C58.1371 69.8411 58.6116 69.6918 58.9992 69.8811C59 69.8815 59.0018 69.8829 59.004 69.884C59.009 69.8864 59.0176 69.8906 59.0285 69.8958C59.0503 69.9061 59.0841 69.9208 59.1261 69.9397C59.2108 69.9778 59.33 70.03 59.466 70.0833C59.7568 70.1972 60.0554 70.2909 60.257 70.3137C60.4498 70.3354 60.7502 70.3147 61.049 70.2747C61.1884 70.256 61.3122 70.236 61.4005 70.22L61.5275 70.1946C61.5298 70.1941 61.5322 70.1937 61.5333 70.1936C61.9581 70.1033 62.3795 70.3609 62.4738 70.7688C62.5674 71.1767 62.2988 71.5808 61.8742 71.6711L61.8693 71.6721C61.8667 71.6727 61.8625 71.6742 61.8585 71.675L61.6935 71.7063C61.5867 71.7257 61.4377 71.7509 61.2677 71.7737C60.9466 71.8168 60.4771 71.8623 60.0724 71.8167C59.6476 71.7686 59.1848 71.6074 58.8712 71.4846C58.7055 71.4197 58.5609 71.358 58.4581 71.3118C58.407 71.2887 58.3646 71.269 58.3351 71.2551C58.3204 71.2482 58.3074 71.2426 58.299 71.2385C58.295 71.2366 58.2917 71.2348 58.2892 71.2336L58.2843 71.2307L58.1505 71.1487C57.8638 70.9295 57.7673 70.5391 57.9396 70.2131ZM60.5773 66.7551C61.4475 66.7553 62.1524 67.4329 62.1525 68.2688C62.1525 69.1048 61.4475 69.7823 60.5773 69.7825C59.7069 69.7825 59.0011 69.1049 59.0011 68.2688C59.0012 67.4328 59.707 66.7551 60.5773 66.7551Z" fill="#1A1A1A"/>
<path d="M50.7928 70.2131C50.5953 69.8408 50.12 69.6915 49.7323 69.8811C49.7314 69.8815 49.7297 69.8829 49.7274 69.884C49.7224 69.8864 49.7138 69.8907 49.703 69.8958C49.6811 69.9061 49.6472 69.9208 49.6053 69.9397C49.5207 69.9778 49.4021 70.0301 49.2665 70.0833C48.9757 70.1971 48.677 70.2909 48.4754 70.3137C48.2826 70.3354 47.9814 70.3147 47.6825 70.2747C47.543 70.2559 47.4192 70.236 47.3309 70.22C47.287 70.212 47.2514 70.204 47.2284 70.1995C47.218 70.1974 47.2101 70.1957 47.2049 70.1946C47.2023 70.194 47.199 70.1938 47.1981 70.1936C46.7734 70.1034 46.3518 70.3609 46.2577 70.7688C46.164 71.1768 46.4335 71.5809 46.8583 71.6711L46.8622 71.6721C46.8647 71.6726 46.8688 71.6742 46.8729 71.675L47.0379 71.7063C47.1446 71.7257 47.2938 71.7509 47.4637 71.7737C47.7848 71.8167 48.2544 71.8623 48.659 71.8167C49.084 71.7686 49.5476 71.6074 49.8612 71.4846C50.0271 71.4196 50.1715 71.358 50.2743 71.3118C50.3252 71.2889 50.3669 71.269 50.3963 71.2551C50.4111 71.2482 50.425 71.2426 50.4335 71.2385C50.4374 71.2367 50.4408 71.2348 50.4432 71.2336L50.4471 71.2307L50.5819 71.1487C50.8686 70.9295 50.9651 70.5391 50.7928 70.2131ZM48.1551 66.7551C47.2848 66.7551 46.579 67.4328 46.579 68.2688C46.579 69.1049 47.2848 69.7825 48.1551 69.7825C49.0254 69.7823 49.7303 69.1048 49.7303 68.2688C49.7303 67.4329 49.0253 66.7553 48.1551 66.7551Z" fill="#1A1A1A"/>
</svg>
