<svg width="75" height="86" viewBox="0 0 75 86" fill="none" xmlns="http://www.w3.org/2000/svg">
<path d="M6.53697 59.3885C-5.86421 43.2535 7.67195 37.751 16.8528 36.1999C17.2812 36.127 17.7128 36.1099 18.1466 36.1347L64.0732 38.8022C68.0487 39.2633 69.7974 39.1344 71.1522 40.6373C73.2304 42.943 71.9807 46.0498 69.4069 47.7856C68.0527 48.6986 67.5734 50.5928 68.5059 51.9343C69.7929 53.7865 71.423 55.5457 72.4701 57.6744C73.2885 59.3388 72.761 61.351 71.2915 62.4828C70.6631 62.9673 70.0766 63.3011 69.499 63.5619C67.2241 64.5898 65.2822 66.7308 66.4047 68.9604C67.0509 70.2444 67.9816 70.9634 68.7309 72.1682C77.5123 86.2925 33.0033 84.0303 11.4063 80.8288C6.3359 80.0758 0.694261 76.41 2.72433 71.704C3.52549 69.847 4.98201 68.2664 6.4317 66.7976C8.45773 64.7435 8.29502 61.6755 6.53697 59.3885Z" fill="white"/>
<path d="M18.213 34.9717L64.14 37.6403L64.1733 37.6418L64.2067 37.6448C66.0913 37.8634 67.6587 37.9624 68.8161 38.1861C70.0742 38.4293 71.1158 38.8576 72.0168 39.857C73.3471 41.3329 73.6203 43.1129 73.1419 44.7514C72.6769 46.3437 71.5234 47.7629 70.0579 48.7513C69.2243 49.3132 68.9792 50.3859 69.374 51.1257L69.462 51.2698C70.0938 52.1791 70.7714 53.0144 71.5104 54.0051C72.2238 54.9614 72.9441 56 73.5149 57.1604C74.5922 59.3513 73.8841 61.9559 72.0017 63.4058C71.2965 63.9494 70.6306 64.3284 69.9775 64.6233C68.9795 65.0743 68.1223 65.7442 67.6455 66.458C67.1963 67.1308 67.1122 67.7748 67.4454 68.4367C67.7062 68.955 68.0282 69.373 68.4249 69.8513C68.7125 70.1981 69.0566 70.5959 69.3907 71.0628L69.7197 71.5525C70.9242 73.49 71.3436 75.3642 70.7811 77.0883C70.2289 78.7804 68.8244 80.0306 67.0572 80.9608C63.545 82.8095 57.9109 83.7579 51.5339 84.1586C39.4972 84.9149 24.1421 83.7514 13.3337 82.2784L11.2353 81.9812L10.7258 81.8963C8.16686 81.4288 5.49693 80.2867 3.62675 78.6167C2.62248 77.7198 1.80316 76.6295 1.40091 75.3613C0.991324 74.07 1.0401 72.6702 1.65564 71.2432C2.55307 69.1631 4.15763 67.4442 5.60242 65.9803L7.25967 67.6149C5.80527 69.0884 4.49833 70.5316 3.79354 72.1651C3.39411 73.091 3.38499 73.9147 3.62069 74.6578C3.86376 75.4237 4.39201 76.1789 5.17787 76.8806C6.76412 78.297 9.21676 79.3259 11.5779 79.6766C22.3297 81.2703 38.7679 82.627 51.3869 81.8342C57.7385 81.4351 62.9348 80.4996 65.9731 78.9002C67.4811 78.1064 68.2819 77.2401 68.5674 76.3651C68.8422 75.5222 68.7314 74.3767 67.741 72.7837C67.4187 72.2654 67.0633 71.8565 66.6327 71.3372C66.2153 70.834 65.7503 70.2497 65.3651 69.4844C64.5759 67.9168 64.8998 66.3749 65.7093 65.1631C66.4915 63.9923 67.7428 63.0773 69.0192 62.5006C69.5211 62.2739 70.0297 61.9855 70.581 61.5605L70.7705 61.4013C71.6774 60.5706 71.9498 59.2552 71.4255 58.1884C70.9492 57.2201 70.3291 56.3155 69.6439 55.397C68.9844 54.5129 68.2051 53.5409 67.55 52.598C66.1978 50.6528 66.9364 48.0459 68.7554 46.8196C69.8636 46.0722 70.6217 45.0695 70.9054 44.0979C71.1754 43.1729 71.0345 42.2468 70.2868 41.4172C69.8333 40.9141 69.3231 40.6559 68.3748 40.4726C67.333 40.2713 66.049 40.2013 63.9853 39.9632L18.0796 37.2976L17.8127 37.2885C17.5497 37.2867 17.2955 37.3056 17.0485 37.3476C14.8115 37.7256 12.3335 38.3416 10.0723 39.2839C7.80127 40.2303 5.82297 41.475 4.49708 43.0699C3.19999 44.6302 2.49024 46.5636 2.78221 49.0394C3.07993 51.5626 4.43035 54.7364 7.45981 58.6781C9.48488 61.3125 9.78678 65.0521 7.25967 67.6149L5.60242 65.9803C7.12673 64.4349 7.10377 62.0383 5.61303 60.0988C2.44221 55.9734 0.835098 52.4071 0.469937 49.3123C0.099368 46.1705 1.02221 43.6069 2.70639 41.581C4.362 39.5895 6.71466 38.1596 9.1762 37.1338C11.6468 36.1043 14.3046 35.4511 16.6573 35.0536C17.1842 34.9638 17.7048 34.9426 18.213 34.9717Z" fill="#1A1A1A"/>
<path d="M57.7298 33.6721C40.5836 21.3286 25.3275 27.8358 16.7191 35.5834C13.6725 38.3253 12.04 42.5702 13.5318 46.3881C17.5305 56.62 31.3447 59.3868 38.8155 59.3868C49.9045 58.9924 56.854 54.1342 60.8594 49.026C64.6878 44.1461 62.7639 37.2975 57.7298 33.6721Z" fill="#FFA629"/>
<path d="M33.8504 25.9424C41.2001 24.8427 49.6044 26.3881 58.4105 32.7275C63.8243 36.6265 66.1228 44.2032 61.7765 49.7443C57.5729 55.1052 50.3105 60.1432 38.857 60.5506H38.8161C34.9634 60.5506 29.4885 59.842 24.436 57.8047C19.3889 55.7695 14.608 52.3412 12.4471 46.8119C10.729 42.4145 12.6479 37.6817 15.9405 34.7184C20.3668 30.7347 26.5351 27.0369 33.8504 25.9424ZM57.0489 34.6168C48.709 28.6131 40.9114 27.2406 34.1946 28.2455C27.4435 29.2558 21.6797 32.6846 17.4977 36.4484C14.6972 38.9689 13.3515 42.7259 14.6169 45.9643C16.4546 50.6668 20.5806 53.7378 25.3079 55.644C30.0253 57.5461 35.1879 58.2189 38.8055 58.2201C49.5116 57.8307 56.1398 53.1576 59.9434 48.3069L60.2391 47.9066C63.1529 43.7091 61.5576 37.8638 57.0489 34.6168Z" fill="#1A1A1A"/>
<path d="M46.5398 41.2256C47.1131 41.0734 47.7324 41.3382 48.0078 41.8895C48.2833 42.4419 48.1225 43.0987 47.6547 43.465L47.436 43.6012L46.1311 44.2517L47.3419 45.0442L47.5434 45.2073C47.965 45.6258 48.0502 46.2972 47.7123 46.8135C47.3741 47.3299 46.7236 47.5203 46.1714 47.3009L45.943 47.1819L42.8728 45.169C42.4907 44.9184 42.2705 44.4833 42.2971 44.0272C42.3241 43.5709 42.5941 43.1624 43.0033 42.9584L46.2961 41.3177L46.5398 41.2256Z" fill="#1A1A1A"/>
<path d="M29.925 41.2256C29.3517 41.0734 28.7324 41.3382 28.457 41.8895C28.1816 42.4419 28.3423 43.0987 28.8101 43.465L29.0289 43.6012L30.3337 44.2517L29.1229 45.0442L28.9214 45.2073C28.4998 45.6258 28.4146 46.2972 28.7526 46.8135C29.0908 47.3299 29.7413 47.5203 30.2934 47.3009L30.5218 47.1819L33.5921 45.169C33.9741 44.9184 34.1944 44.4833 34.1678 44.0272C34.1407 43.5709 33.8707 43.1624 33.4616 42.9584L30.1687 41.3177L29.925 41.2256Z" fill="#1A1A1A"/>
<path d="M40.1931 47.354C40.8361 47.3542 41.3575 47.8755 41.3576 48.5185C41.3576 49.1615 40.8361 49.6828 40.1931 49.683H35.4594C34.8163 49.6829 34.2949 49.1616 34.2949 48.5185C34.2949 47.8754 34.8163 47.354 35.4594 47.354H40.1931Z" fill="#1A1A1A"/>
<path d="M44.2496 36.0181C47.2509 36.0181 49.6839 34.6454 49.6839 32.952C49.6839 31.2585 47.2509 29.8857 44.2496 29.8857C41.2484 29.8857 38.8154 31.2585 38.8154 32.952C38.8154 34.6454 41.2484 36.0181 44.2496 36.0181Z" fill="white"/>
</svg>
