<svg width="75" height="86" viewBox="0 0 75 86" fill="none" xmlns="http://www.w3.org/2000/svg">
<path d="M36.4729 27.9924C18.2683 29.4488 16.1443 45.5915 17.3569 53.4804C18.8986 63.4934 21.9092 64.4032 21.9092 73.5063C22.3377 78.2263 24.0534 80.7555 25.8234 82.0986C27.7797 83.5813 30.4533 83.4944 32.8304 82.8826C45.7762 79.5523 52.7305 65.9014 54.679 58.941C61.2327 32.7248 45.2732 27.3853 36.4729 27.9924Z" fill="url(#paint0_linear_9800_32936)"/>
<path d="M36.3922 26.8301C41.0126 26.5114 47.595 27.7394 52.1808 32.6101C56.8196 37.5371 59.1407 45.8901 55.8076 59.2231C55.805 59.2337 55.803 59.2445 55.8001 59.255L55.5954 59.9509C54.498 63.5233 52.2704 68.4555 48.8026 72.9815C45.1018 77.8116 39.9243 82.2602 33.1201 84.0107C30.7147 84.6297 27.7051 84.8255 25.3463 83.1904L25.1189 83.0266L24.7323 82.7158C22.8152 81.0837 21.173 78.2797 20.7491 73.6107C20.746 73.576 20.7446 73.541 20.7446 73.5061C20.7446 69.1265 20.0302 66.7601 19.1161 64.2298C18.1756 61.6263 16.9956 58.7923 16.2049 53.657C15.5726 49.543 15.8013 43.2737 18.596 37.7956C21.433 32.2351 26.8706 27.5924 36.38 26.8317L36.3922 26.8301ZM50.4856 34.2067C46.53 30.0053 40.7327 28.8662 36.5529 29.1545L36.5514 29.153C27.8651 29.852 23.142 34.0093 20.6703 38.8539C18.1556 43.7832 17.9279 49.529 18.5081 53.3037C19.2591 58.1804 20.3554 60.8081 21.3056 63.4383C22.2773 66.1283 23.0641 68.7561 23.072 73.4349C23.4819 77.8721 25.0705 80.0652 26.5275 81.1707H26.526C28.0483 82.3245 30.2686 82.3388 32.5394 81.7545C38.6808 80.1746 43.4545 76.1331 46.9543 71.5653C50.4467 67.0072 52.6062 62.0046 53.5484 58.653C56.7671 45.7734 54.3875 38.3512 50.4856 34.2067Z" fill="#1A1A1A"/>
<path d="M58.6318 22.8173C47.8752 21.5255 41.1119 27.3168 38.0392 31.9638C37.1806 33.2618 37.7256 34.9651 39.109 35.6824C53.5547 43.163 59.3864 33.6873 60.9313 25.9583C61.2356 24.432 60.1767 23.002 58.6318 22.8173Z" fill="#14AE5C"/>
<path d="M37.3832 30.858C40.7638 26.0386 47.816 20.3453 58.7698 21.6604C60.8366 21.9076 62.3178 23.73 62.1328 25.774L62.0737 26.1864C61.2755 30.1798 59.3373 34.832 55.522 37.4809C51.5983 40.205 46.0405 40.5834 38.5734 36.7167C36.6501 35.7195 35.7832 33.2645 37.0678 31.3219L37.3832 30.858ZM58.4923 23.9742C48.6056 22.7871 42.3121 27.8852 39.2921 32.1923L39.0101 32.6062C38.5779 33.2596 38.8021 34.2113 39.6454 34.6486H39.6439C46.6224 38.2623 51.204 37.6432 54.1938 35.5674C57.2918 33.4164 59.042 29.4656 59.7887 25.73C59.9572 24.8836 59.3783 24.0803 58.4938 23.9742H58.4923Z" fill="#1A1A1A"/>
<path d="M56.0853 29.6444C53.2036 31.5743 50.0098 32.8863 47.4355 33.6921C46.6282 33.9452 46.667 35.0957 47.5132 35.1003C52.2456 35.1329 55.3245 32.7683 57.0277 30.4378C57.4981 29.795 56.7467 29.2004 56.0853 29.6444Z" fill="#008043"/>
<path d="M31.0524 52.4381C31.0524 53.7243 30.0793 54.767 28.8788 54.767C27.6783 54.767 26.7051 53.7243 26.7051 52.4381C26.7051 51.1518 27.6783 50.1091 28.8788 50.1091C30.0793 50.1091 31.0524 51.1518 31.0524 52.4381Z" fill="#FFAFA3"/>
<path d="M29.9655 52.4382C29.9655 51.7951 29.4789 51.2738 28.8787 51.2738C28.2784 51.2738 27.7918 51.7951 27.7918 52.4382C27.7918 53.0814 28.2784 53.6027 28.8787 53.6027C29.4789 53.6027 29.9655 53.0814 29.9655 52.4382ZM32.1392 52.4382C32.1392 54.3676 30.6794 55.9317 28.8787 55.9317C27.078 55.9317 25.6182 54.3676 25.6182 52.4382C25.6182 50.5089 27.078 48.9448 28.8787 48.9448C30.6794 48.9448 32.1392 50.5089 32.1392 52.4382Z" fill="#1A1A1A"/>
<path d="M36.1391 46.5812C37.2495 46.5813 38.1499 47.4816 38.1499 48.5919C38.1497 49.7022 37.2494 50.6025 36.1391 50.6027C35.0288 50.6027 34.1285 49.7023 34.1284 48.5919C34.1284 47.4815 35.0287 46.5812 36.1391 46.5812ZM38.2046 41.1935C39.0262 40.7579 40.0146 40.9094 40.4106 41.5314C40.8063 42.1532 40.4621 43.0108 39.6411 43.4464L39.6372 43.4474C39.6357 43.4482 39.6338 43.45 39.6313 43.4513C39.625 43.4546 39.6141 43.4596 39.602 43.466C39.5775 43.4789 39.5414 43.4983 39.4956 43.5226C39.4028 43.5717 39.2687 43.6431 39.103 43.7306C38.7712 43.9057 38.3115 44.1469 37.8032 44.4132C36.7923 44.943 35.5659 45.5807 34.7602 45.9826L34.603 46.0529C33.8076 46.3737 32.9296 46.1805 32.5825 45.5851C32.2124 44.9498 32.5877 44.0966 33.4214 43.6808L34.81 42.9738C35.3295 42.7052 35.8807 42.417 36.3872 42.1515C36.8906 41.8877 37.3462 41.6485 37.6753 41.4748L38.1694 41.2121C38.1813 41.2058 38.1917 41.2016 38.1977 41.1984C38.2 41.1971 38.2013 41.1953 38.2026 41.1945L38.2046 41.1935Z" fill="#1A1A1A"/>
<path d="M22.1973 46.5808C21.0869 46.5808 20.1867 47.4811 20.1866 48.5915C20.1866 49.702 21.0869 50.6022 22.1973 50.6022C23.3077 50.6022 24.2081 49.7019 24.2081 48.5915C24.2079 47.4812 23.3076 46.5808 22.1973 46.5808ZM20.1309 41.1931C19.3094 40.7577 18.3218 40.9101 17.9258 41.5319C17.5303 42.1537 17.8744 43.0104 18.6954 43.446L18.6993 43.4479C18.7007 43.4488 18.7028 43.4506 18.7051 43.4518C18.7115 43.4552 18.7225 43.4602 18.7344 43.4665C18.7589 43.4794 18.7942 43.499 18.8399 43.5231C18.9327 43.5722 19.0677 43.6436 19.2334 43.7311C19.5652 43.9062 20.0244 44.1476 20.5323 44.4138C21.5432 44.9436 22.7706 45.5812 23.5762 45.9831L23.7334 46.0534C24.5286 46.3739 25.4069 46.1808 25.754 45.5856C26.124 44.9504 25.7486 44.0972 24.9151 43.6813L23.5254 42.9743C23.006 42.7057 22.4548 42.4175 21.9483 42.152C21.445 41.8883 20.9902 41.649 20.6612 41.4753L20.1661 41.2126C20.1542 41.2063 20.1448 41.2011 20.1387 41.1979C20.1362 41.1966 20.1343 41.1948 20.1329 41.194L20.1309 41.1931Z" fill="#1A1A1A"/>
<defs>
<linearGradient id="paint0_linear_9800_32936" x1="36.6483" y1="27.9474" x2="36.6483" y2="83.5192" gradientUnits="userSpaceOnUse">
<stop stop-color="#F79722"/>
<stop offset="1" stop-color="#FFCD29"/>
</linearGradient>
</defs>
</svg>
