<svg width="12" height="12" viewBox="0 0 12 12" fill="none" xmlns="http://www.w3.org/2000/svg">
<path fill-rule="evenodd" clip-rule="evenodd" d="M5.95059 4.53638L1.70857 0.294351C1.31524 -0.0989702 0.68426 -0.0967889 0.293735 0.293735C-0.0995116 0.686982 -0.0965132 1.3177 0.294351 1.70857L4.53638 5.95059L0.294351 10.1926C-0.0989702 10.5859 -0.0967889 11.2169 0.293735 11.6074C0.686982 12.0007 1.3177 11.9977 1.70857 11.6068L5.95059 7.3648L10.1926 11.6068C10.5859 12.0001 11.2169 11.998 11.6074 11.6074C12.0007 11.2142 11.9977 10.5835 11.6068 10.1926L7.3648 5.95059L11.6068 1.70857C12.0001 1.31524 11.998 0.68426 11.6074 0.293735C11.2142 -0.0995116 10.5835 -0.0965132 10.1926 0.294351L5.95059 4.53638Z" fill="white"/>
</svg>
