<svg width="75" height="86" viewBox="0 0 75 86" fill="none" xmlns="http://www.w3.org/2000/svg">
<path d="M69.9587 72.3799C70.5715 72.6889 70.7855 72.9839 70.851 73.1345C70.9018 73.251 70.9044 73.3643 70.8169 73.5211C70.5986 73.9124 69.7809 74.5101 68.3157 74.5101H59.8127C58.3574 74.5101 57.9735 76.5208 59.3263 77.0565L65.9972 79.7021C66.9551 80.0825 67.213 80.7719 67.1602 81.2563C67.1098 81.7205 66.7457 82.2872 65.748 82.3913C57.4597 83.2623 46.643 83.888 40.8862 84.034C32.3692 84.2498 23.8392 83.6986 16.7578 82.4829C13.2172 81.8758 10.1685 81.1244 7.71405 80.2751C5.24103 79.418 3.44914 78.488 2.35687 77.5642C1.26781 76.6419 1.09162 75.9308 1.18855 75.4246C1.30412 74.8206 1.89078 73.9698 3.45001 73.0025C6.53211 71.0912 12.2869 69.4284 19.8558 68.3897C27.3797 67.3572 36.0834 67.0233 44.4734 67.4519C52.8726 67.882 60.3776 69.0433 65.7202 70.7155C67.4 71.2418 68.8149 71.8008 69.9587 72.3799Z" fill="#91D940"/>
<path fill-rule="evenodd" clip-rule="evenodd" d="M66.4275 78.6202C67.8304 79.1776 68.4324 80.335 68.3182 81.3828C68.2661 81.861 68.0522 82.3797 67.6147 82.799C67.1726 83.2225 66.5739 83.4744 65.868 83.548L65.8695 83.5495C58.5886 84.3147 49.3735 84.89 43.3078 85.1204L40.9152 85.1977C32.3358 85.4151 23.7292 84.8604 16.5613 83.6299L15.2392 83.3934C12.2075 82.8233 9.54731 82.1412 7.33348 81.3752C4.80401 80.4986 2.8546 79.5099 1.6036 78.4519C0.345151 77.386 -0.162167 76.2873 0.044905 75.2057L0.0919085 75.001C0.372125 73.9821 1.28886 72.9724 2.83631 72.0124L3.48526 71.6334C6.88622 69.7583 12.5692 68.2145 19.6969 67.2363L21.1358 67.0483C28.3957 66.1533 36.6058 65.8837 44.533 66.2886L46.1083 66.3781C53.9311 66.8697 60.9408 67.9999 66.0681 69.6047L67.3145 70.0171C68.5125 70.4367 69.5708 70.8781 70.4819 71.3392C71.251 71.727 71.7121 72.1943 71.9193 72.6705C71.9998 72.8555 72.0663 73.0984 72.0482 73.3862C72.0305 73.6662 71.9368 73.902 71.8329 74.0882L71.7313 74.2519C71.1757 75.0571 69.9308 75.6742 68.3152 75.6742H59.8121C59.7668 75.6742 59.743 75.6826 59.7333 75.6863C59.7234 75.6901 59.7167 75.6944 59.7105 75.6999C59.6959 75.713 59.6711 75.7455 59.6605 75.8C59.65 75.8551 59.6609 75.8963 59.6696 75.9137C59.6732 75.9207 59.6775 75.9268 59.6848 75.9334C59.6922 75.9403 59.7119 75.9575 59.7545 75.9744L66.4275 78.6202ZM15.6667 81.1038C12.7207 80.5497 10.176 79.8953 8.09463 79.1752C5.67904 78.338 4.0427 77.4643 3.10923 76.6749C2.64714 76.2835 2.45703 76.0013 2.38143 75.841C2.31843 75.7073 2.33109 75.6518 2.33291 75.6438C2.35583 75.5241 2.5951 74.9011 4.06143 73.9911L4.06295 73.9927C6.92782 72.2161 12.479 70.5765 20.0138 69.5425L21.4239 69.359C28.5367 68.4824 36.6094 68.216 44.4132 68.6145L45.9673 68.7025C53.6737 69.1871 60.4824 70.2955 65.3722 71.8259L66.5458 72.2156C67.5172 72.5559 68.369 72.904 69.1021 73.2558C68.8899 73.3067 68.6293 73.3452 68.3152 73.3452H59.8121C57.0746 73.3457 56.3493 77.1289 58.8978 78.1381L65.5678 80.7839C65.8497 80.8959 65.9452 81.0173 65.9741 81.0629C65.9895 81.0872 65.9952 81.1068 65.9984 81.119C65.9799 81.1347 65.8861 81.2055 65.6254 81.2327C58.4023 81.9918 49.2423 82.5643 43.2275 82.7929L40.8561 82.8703C32.402 83.0844 23.9486 82.5351 16.954 81.3343L15.6667 81.1038Z" fill="#1A1A1A"/>
<path d="M38.5156 36.1611C38.5812 31.9367 42.6629 28.5176 47.1152 29.7285C50.6361 30.6865 52.7024 34.205 51.999 37.6455C55.9072 38.5771 58.747 42.0868 58.7471 46.2012C58.7469 50.3463 55.8973 53.759 52.1299 54.7217L54.7373 65.1943C55.9544 70.0829 52.4978 74.8185 47.6006 75.2744C47.1358 77.2888 45.2541 78.7124 43.1318 78.543C41.2597 78.3922 39.7707 77.0458 39.3516 75.3145H35.4072C34.988 77.0456 33.4999 78.3921 31.6279 78.543C29.5104 78.712 27.631 77.2954 27.1611 75.2881C22.1825 74.9185 18.6412 70.1341 19.8711 65.1943L22.4795 54.7129C18.7119 53.7511 15.8613 50.3374 15.8613 46.1914C15.8614 42.0786 18.7007 38.5712 22.6084 37.6397C21.9092 34.2006 23.9747 30.6849 27.4932 29.7285C31.9421 28.5176 36.0212 31.9325 36.0928 36.1524C36.8999 36.1104 37.7088 36.113 38.5156 36.1611Z" fill="#FFBDF2"/>
<path fill-rule="evenodd" clip-rule="evenodd" d="M37.1432 34.9592C36.3978 30.5831 31.9868 27.2986 27.1876 28.6046C23.4281 29.6283 21.0862 33.142 21.3243 36.8075C17.4297 38.1881 14.6968 41.8974 14.6968 46.1915C14.6968 50.4716 17.3787 54.0636 21.0847 55.4906L18.7406 64.9125C17.4009 70.2936 21.0166 75.5082 26.2854 76.351C27.1159 78.395 29.1463 79.7853 31.4422 79.7186L31.7196 79.7035C33.7742 79.5381 35.4672 78.2433 36.2395 76.4784H38.3668C39.1392 78.2435 40.8337 79.538 42.8883 79.7035C45.2967 79.8953 47.462 78.4775 48.3255 76.351C53.4126 75.5353 56.958 70.6439 55.9871 65.4629L55.8658 64.9125L53.5217 55.4997C57.2289 54.0726 59.9111 50.4802 59.9111 46.2006C59.911 41.903 57.1769 38.1924 53.2806 36.8135C53.5215 33.1456 51.1816 29.6281 47.4203 28.6046C42.6212 27.3 38.2087 30.5828 37.4631 34.9592C37.3768 34.9582 37.2905 34.9586 37.2042 34.9589C37.1839 34.959 37.1636 34.9591 37.1432 34.9592ZM35.3829 54.9978C36.5948 54.8596 37.819 54.8598 39.0309 54.9948L48.841 56.0971C49.6674 56.1898 50.4786 56.1747 51.264 56.0713L53.6066 65.475L53.696 65.889C54.37 69.4873 52.1394 72.8994 48.7758 73.8705L49.6462 63.0581C49.6976 62.4174 49.2194 61.856 48.5787 61.8042C47.9378 61.7528 47.3764 62.2308 47.3248 62.8717L46.3847 74.5634C46.2483 76.2551 44.7662 77.5169 43.0732 77.3821C41.3811 77.2455 40.1199 75.7617 40.2561 74.0691L41.1961 62.3804C41.2475 61.7398 40.7692 61.177 40.1287 61.1249C39.488 61.0734 38.9268 61.5518 38.8748 62.1924L37.9347 73.8826C37.9275 73.9718 37.9223 74.0609 37.9195 74.1495H36.6883L36.6732 73.8826L35.7331 62.1924C35.6811 61.5518 35.1199 61.0735 34.4792 61.1249C33.8385 61.1768 33.3603 61.7396 33.4118 62.3804L34.3518 74.0691L34.3609 74.3845C34.3302 75.8388 33.2759 77.0786 31.8455 77.3411L31.5331 77.3821C29.946 77.508 28.5449 76.4064 28.2641 74.8742L28.2232 74.5634L27.2831 62.8717C27.2315 62.2307 26.6686 61.7527 26.0277 61.8042C25.3873 61.8564 24.9089 62.4176 24.9602 63.0581L25.8305 73.872C22.3383 72.8634 20.067 69.2217 20.9998 65.475L23.3424 56.0622C24.1311 56.1661 24.946 56.1804 25.776 56.0865L35.3829 54.9978ZM39.6799 36.1797C39.7344 32.6741 43.1285 29.8503 46.8093 30.8532C49.6349 31.6218 51.3328 34.3822 50.9061 37.1456L50.8576 37.4124C50.7317 38.0288 51.1181 38.6326 51.7295 38.7786C55.1192 39.5861 57.582 42.6314 57.5822 46.2006C57.5822 50.7513 53.6234 54.291 49.1003 53.7833L39.2917 52.681C37.9059 52.5257 36.5061 52.5257 35.1206 52.6825L25.5136 53.7727C20.9889 54.2847 17.0257 50.7452 17.0257 46.1915C17.0258 42.6236 19.4891 39.5799 22.8784 38.771C23.4888 38.6248 23.8738 38.0225 23.7487 37.4064C23.1697 34.5575 24.8843 31.645 27.7986 30.8532C31.4767 29.8518 34.8686 32.6711 34.928 36.1721C34.9334 36.4873 35.067 36.7888 35.298 37.0046C35.529 37.2187 35.8377 37.3323 36.1531 37.3154C36.7256 37.2851 37.2997 37.2786 37.8725 37.2972L38.4442 37.3245L38.5639 37.326C38.8391 37.315 39.103 37.2054 39.3069 37.0167C39.5111 36.8264 39.6402 36.572 39.6723 36.298L39.6799 36.1797Z" fill="#1A1A1A"/>
<path d="M24.2313 47.0391C26.0156 47.0391 27.4621 45.6122 27.4621 43.8521C27.4621 42.0919 26.0156 40.665 24.2313 40.665C22.447 40.665 21.0005 42.0919 21.0005 43.8521C21.0005 45.6122 22.447 47.0391 24.2313 47.0391Z" fill="#FF24BD"/>
<path d="M50.3774 47.0391C52.1617 47.0391 53.6082 45.6122 53.6082 43.8521C53.6082 42.0919 52.1617 40.665 50.3774 40.665C48.5931 40.665 47.1466 42.0919 47.1466 43.8521C47.1466 45.6122 48.5931 47.0391 50.3774 47.0391Z" fill="#FF24BD"/>
<path d="M46.883 35.7078C47.2538 35.276 47.9044 35.2257 48.3363 35.5965C48.768 35.9672 48.8169 36.6179 48.4463 37.0497C47.3178 38.3642 46.0131 38.7481 44.8085 38.5177C43.7007 38.3058 42.8331 37.6054 42.3582 37.0443C41.9905 36.6099 42.0446 35.9601 42.479 35.5924C42.9134 35.2247 43.5632 35.2788 43.9309 35.7132C44.2037 36.0355 44.6853 36.3951 45.1949 36.4928C45.608 36.5719 46.1903 36.5148 46.883 35.7078Z" fill="#1A1A1A"/>
<path d="M31.3786 35.7382C30.9339 35.3831 30.2859 35.4559 29.9307 35.9005C29.7713 36.1 29.5072 36.2956 29.2718 36.3433C29.1748 36.363 29.0819 36.3576 28.978 36.3165C28.8686 36.2732 28.6909 36.1667 28.4694 35.8938C28.1107 35.4519 27.4608 35.3849 27.0188 35.7435C26.5775 36.1023 26.5101 36.751 26.8685 37.1928C27.6952 38.2114 28.7072 38.5601 29.6811 38.3629C30.5429 38.1882 31.1934 37.6211 31.541 37.186C31.896 36.7413 31.8232 36.0933 31.3786 35.7382Z" fill="#1A1A1A"/>
<path d="M40.8032 45.231H33.8032L37.3032 39.981L40.8032 45.231Z" fill="#FFAFA3"/>
<path d="M40.8039 46.3955C41.2331 46.3953 41.6278 46.1584 41.8304 45.7799C42.0326 45.4015 42.0107 44.9422 41.7728 44.5851L38.2718 39.3344C38.0557 39.0109 37.6919 38.8158 37.3029 38.8158C36.9139 38.816 36.5499 39.0107 36.334 39.3344L32.8345 44.5851C32.5964 44.9423 32.5745 45.4013 32.7769 45.7799C32.9795 46.1586 33.374 46.3955 33.8034 46.3955H40.8039ZM37.3029 42.0818L38.6281 44.0666H35.9792L37.3029 42.0818Z" fill="#1A1A1A"/>
</svg>
