<svg width="75" height="86" viewBox="0 0 75 86" fill="none" xmlns="http://www.w3.org/2000/svg">
<path d="M69.9587 72.4165C70.5715 72.7255 70.7855 73.0205 70.851 73.1711C70.9018 73.2876 70.9044 73.4009 70.8169 73.5577C70.5986 73.949 69.7809 74.5467 68.3157 74.5467H59.8127C58.3574 74.5467 57.9735 76.5574 59.3263 77.0931L65.9972 79.7387C66.9551 80.1191 67.213 80.8085 67.1602 81.2929C67.1098 81.7572 66.7457 82.3239 65.748 82.4279C57.4597 83.2989 46.643 83.9246 40.8862 84.0706C32.3692 84.2864 23.8392 83.7352 16.7578 82.5195C13.2172 81.9124 10.1685 81.161 7.71405 80.3117C5.24103 79.4546 3.44914 78.5246 2.35687 77.6008C1.26781 76.6785 1.09162 75.9674 1.18855 75.4612C1.30412 74.8573 1.89078 74.0064 3.45001 73.0391C6.53211 71.1278 12.2869 69.465 19.8558 68.4263C27.3797 67.3938 36.0834 67.06 44.4734 67.4885C52.8726 67.9186 60.3776 69.0799 65.7202 70.7521C67.4 71.2785 68.8149 71.8374 69.9587 72.4165Z" fill="#91D940"/>
<path fill-rule="evenodd" clip-rule="evenodd" d="M66.4275 78.6571C67.8304 79.2145 68.4324 80.3719 68.3182 81.4197C68.2661 81.8979 68.0522 82.4166 67.6147 82.8359C67.1726 83.2594 66.5739 83.5113 65.868 83.5849L65.8695 83.5864C58.5886 84.3516 49.3735 84.9269 43.3078 85.1572L40.9152 85.2346C32.3358 85.4519 23.7292 84.8973 16.5613 83.6668L15.2392 83.4302C12.2075 82.8601 9.54731 82.1781 7.33348 81.4121C4.80401 80.5354 2.8546 79.5467 1.6036 78.4888C0.345151 77.4228 -0.162167 76.3242 0.044905 75.2425L0.0919085 75.0378C0.372125 74.019 1.28886 73.0093 2.83631 72.0493L3.48526 71.6703C6.88622 69.7951 12.5692 68.2514 19.6969 67.2732L21.1358 67.0851C28.3957 66.1901 36.6058 65.9206 44.533 66.3255L46.1083 66.415C53.9311 66.9066 60.9408 68.0367 66.0681 69.6415L67.3145 70.0539C68.5125 70.4735 69.5708 70.915 70.4819 71.3761C71.251 71.7639 71.7121 72.2311 71.9193 72.7074C71.9998 72.8924 72.0663 73.1352 72.0482 73.423C72.0305 73.7031 71.9368 73.9389 71.8329 74.125L71.7313 74.2888C71.1757 75.0939 69.9308 75.711 68.3152 75.711H59.8121C59.7668 75.7111 59.743 75.7195 59.7333 75.7232C59.7234 75.7269 59.7167 75.7313 59.7105 75.7368C59.6959 75.7499 59.6711 75.7823 59.6605 75.8369C59.65 75.8919 59.6609 75.9332 59.6696 75.9506C59.6732 75.9575 59.6775 75.9636 59.6848 75.9703C59.6922 75.9771 59.7119 75.9944 59.7545 76.0113L66.4275 78.6571ZM15.6667 81.1407C12.7207 80.5866 10.176 79.9322 8.09463 79.212C5.67904 78.3749 4.0427 77.5012 3.10923 76.7118C2.64714 76.3204 2.45703 76.0381 2.38143 75.8778C2.31843 75.7441 2.33109 75.6887 2.33291 75.6807C2.35583 75.561 2.5951 74.938 4.06143 74.028L4.06295 74.0295C6.92782 72.2529 12.479 70.6134 20.0138 69.5794L21.4239 69.3959C28.5367 68.5192 36.6094 68.2529 44.4132 68.6514L45.9673 68.7394C53.6737 69.224 60.4824 70.3324 65.3722 71.8628L66.5458 72.2525C67.5172 72.5928 68.369 72.9409 69.1021 73.2926C68.8899 73.3435 68.6293 73.3821 68.3152 73.3821H59.8121C57.0746 73.3825 56.3493 77.1658 58.8978 78.1749L65.5678 80.8208C65.8497 80.9328 65.9452 81.0541 65.9741 81.0998C65.9895 81.124 65.9952 81.1436 65.9984 81.1559C65.9799 81.1716 65.8861 81.2424 65.6254 81.2696C58.4023 82.0286 49.2423 82.6012 43.2275 82.8298L40.8561 82.9071C32.402 83.1213 23.9486 82.572 16.954 81.3712L15.6667 81.1407Z" fill="#1A1A1A"/>
<path d="M38.5158 36.1981C38.581 31.9735 42.6631 28.5554 47.1144 29.7662C50.6357 30.7242 52.703 34.2419 51.9997 37.6825C55.9074 38.6142 58.7468 42.123 58.747 46.2372C58.747 47.0643 58.6325 47.8623 58.421 48.6177C61.9995 51.7563 64.046 55.6435 64.0463 59.7757C64.0463 63.1611 62.6725 66.3828 60.2087 69.1627L59.5097 74.7198C59.2178 77.0379 57.0883 78.821 54.7547 78.7014C52.8053 78.6 51.3344 77.203 51.0718 75.3945C47.0504 77.0536 42.331 78.0191 37.2634 78.0191C32.0788 78.0191 27.2584 77.0093 23.1775 75.2793C22.9621 77.1436 21.4703 78.5981 19.4794 78.7014C17.1458 78.8209 15.0178 77.0378 14.7259 74.7198L13.9754 68.7655C11.7271 66.0778 10.4805 63.0009 10.4805 59.7757C10.4807 55.6174 12.5519 51.7059 16.1724 48.557C15.9702 47.817 15.8616 47.0363 15.8616 46.2281C15.8617 42.1155 18.6998 38.6083 22.6074 37.6765C21.9087 34.2374 23.9745 30.7227 27.4927 29.7662C31.9425 28.5552 36.0214 31.969 36.0928 36.189C36.9 36.1471 37.7086 36.15 38.5158 36.1981Z" fill="#2C2C2C"/>
<path fill-rule="evenodd" clip-rule="evenodd" d="M37.4634 34.9959C38.2089 30.6193 42.6224 27.3362 47.4206 28.6413C51.1825 29.665 53.524 33.1833 53.2824 36.8517C57.1777 38.2311 59.9113 41.9403 59.9114 46.2373C59.9114 46.9184 59.8389 47.5816 59.7097 48.222C63.1633 51.4514 65.2104 55.4456 65.2107 59.7758C65.2107 63.469 63.7226 66.9196 61.1426 69.8588L60.5133 74.8654C60.1453 77.7884 57.4861 80.015 54.5439 79.8645L54.5424 79.863C52.563 79.76 50.9501 78.6103 50.1862 76.9836C46.3212 78.3862 41.9267 79.1837 37.2633 79.1837C32.6007 79.1837 28.2076 78.3849 24.3434 76.9821C23.5793 78.6089 21.9699 79.7602 19.9903 79.863L19.9887 79.8645C17.1384 80.0102 14.5549 77.9248 14.0618 75.1368L14.0208 74.8654L13.3901 69.8649C10.8069 66.924 9.31592 63.4717 9.31592 59.7758C9.31614 55.4166 11.3893 51.396 14.8851 48.1553C14.7634 47.5328 14.6971 46.8889 14.6971 46.2282C14.6971 41.934 17.4295 38.2248 21.3246 36.8442C21.0871 33.1788 23.4287 29.6651 27.1879 28.6413C31.9871 27.3351 36.3979 30.6197 37.1435 34.9959C37.2501 34.9955 37.3568 34.9947 37.4634 34.9959ZM15.7084 50.6025C13.0677 53.3383 11.6451 56.5088 11.6449 59.7758C11.6449 62.5149 12.6437 65.1876 14.5227 67.592C15.0589 67.6371 15.5093 68.0498 15.5795 68.6049L16.3316 74.5743L16.3877 74.8912C16.7474 76.4489 18.2525 77.6207 19.869 77.5386C21.4233 77.4579 22.533 76.244 22.4951 74.7366L22.4708 74.4303L21.7203 68.4608C21.6404 67.823 22.0923 67.2402 22.7301 67.1599C23.3678 67.0799 23.9504 67.5322 24.031 68.1697L24.7816 74.1392L24.8104 74.4181C24.8168 74.5042 24.8203 74.5907 24.8225 74.6759C28.4873 76.052 32.7206 76.8547 37.2633 76.8547C41.8083 76.8547 46.0437 76.0512 49.7101 74.6744C49.7148 74.498 49.7284 74.319 49.7511 74.1392L50.5031 68.1697C50.5838 67.5321 51.1662 67.0796 51.804 67.1599C52.4415 67.2406 52.8938 67.8233 52.8139 68.4608L52.0618 74.4303C51.8545 76.0764 53.0054 77.4525 54.6637 77.5386C56.3882 77.6264 57.9869 76.287 58.2026 74.5743L58.9531 68.6049C59.0228 68.0535 59.4679 67.6432 59.9993 67.5935C61.8803 65.1886 62.8817 62.5162 62.8817 59.7758C62.8815 56.5322 61.479 53.3838 58.8743 50.6617C57.0774 54.2772 53.1581 56.6186 48.8413 56.1338L39.0312 55.0315C37.8188 54.8965 36.5955 54.8964 35.3831 55.0345L25.7762 56.1232C21.4364 56.6146 17.4949 54.2496 15.7084 50.6025ZM46.8111 30.8899C43.1299 29.8869 39.7332 32.7108 39.6802 36.2164L39.6726 36.3347C39.6398 36.6086 39.5122 36.8631 39.3072 37.0534C39.0743 37.2692 38.7627 37.3814 38.4444 37.3612C37.6823 37.3146 36.9171 37.3117 36.1549 37.3521C35.8383 37.3692 35.5295 37.2554 35.2998 37.0413C35.0684 36.8254 34.9345 36.524 34.9283 36.2088C34.8691 32.7079 31.4768 29.8888 27.7989 30.8899C24.8848 31.6817 23.1701 34.5941 23.749 37.4431C23.8747 38.0592 23.4885 38.6615 22.8787 38.8077L22.5633 38.8911C19.3374 39.8084 17.026 42.7717 17.026 46.2282C17.026 50.7819 20.9898 54.3214 25.5139 53.8094L35.1208 52.7192C36.507 52.5624 37.9058 52.5625 39.292 52.7177L49.1006 53.82C53.6234 54.3277 57.5824 50.788 57.5824 46.2373C57.5823 42.668 55.1188 39.6228 51.7298 38.8153C51.118 38.6693 50.7321 38.0655 50.8579 37.4491L50.9064 37.1823C51.3337 34.4191 49.6354 31.6587 46.8111 30.8899Z" fill="#1A1A1A"/>
<path d="M24.2318 47.0753C26.0161 47.0753 27.4626 45.6484 27.4626 43.8882C27.4626 42.1281 26.0161 40.7012 24.2318 40.7012C22.4475 40.7012 21.001 42.1281 21.001 43.8882C21.001 45.6484 22.4475 47.0753 24.2318 47.0753Z" fill="#FFAFA3"/>
<path d="M50.3766 47.0753C52.1609 47.0753 53.6074 45.6484 53.6074 43.8882C53.6074 42.1281 52.1609 40.7012 50.3766 40.7012C48.5923 40.7012 47.1458 42.1281 47.1458 43.8882C47.1458 45.6484 48.5923 47.0753 50.3766 47.0753Z" fill="#FFAFA3"/>
<path d="M46.8825 35.7447C47.2533 35.3129 47.904 35.2626 48.3358 35.6333C48.7675 36.004 48.8164 36.6548 48.4458 37.0866C47.3173 38.4011 46.0126 38.785 44.808 38.5546C43.7002 38.3426 42.8326 37.6423 42.3577 37.0812C41.9901 36.6468 42.0441 35.997 42.4785 35.6293C42.9129 35.2616 43.5627 35.3156 43.9304 35.7501C44.2032 36.0724 44.6848 36.4319 45.1945 36.5297C45.6075 36.6087 46.1898 36.5517 46.8825 35.7447Z" fill="#D9D9D9"/>
<path d="M31.3781 35.775C30.9334 35.42 30.2854 35.4927 29.9302 35.9374C29.7708 36.1369 29.5067 36.3324 29.2714 36.3802C29.1743 36.3999 29.0814 36.3945 28.9775 36.3534C28.8681 36.3101 28.6904 36.2036 28.4689 35.9307C28.1103 35.4887 27.4603 35.4217 27.0183 35.7804C26.577 36.1391 26.5096 36.7879 26.8681 37.2296C27.6947 38.2482 28.7067 38.597 29.6806 38.3997C30.5424 38.225 31.193 37.658 31.5405 37.2229C31.8955 36.7782 31.8228 36.1302 31.3781 35.775Z" fill="#D9D9D9"/>
<path d="M40.7632 44.6099H33.7632L37.2632 39.3599L40.7632 44.6099Z" fill="#FFAFA3"/>
<path d="M40.7639 45.7744C41.1931 45.7742 41.5878 45.5373 41.7903 45.1588C41.9926 44.7804 41.9707 44.3211 41.7327 43.964L38.2317 38.7133C38.0157 38.3898 37.6519 38.1947 37.2629 38.1947C36.8738 38.1949 36.5099 38.3896 36.294 38.7133L32.7945 43.964C32.5563 44.3212 32.5344 44.7803 32.7369 45.1588C32.9395 45.5375 33.3339 45.7744 33.7634 45.7744H40.7639ZM37.2629 41.4607L38.588 43.4455H35.9392L37.2629 41.4607Z" fill="#D9D9D9"/>
</svg>
