<svg width="75" height="86" viewBox="0 0 75 86" fill="none" xmlns="http://www.w3.org/2000/svg">
<path d="M13.835 36.0501L14.5093 26.6681L25.9259 27.4071L28.7315 1.55255L55.0774 4.5102L50.3918 28.8867H61.0537L59.8442 38.4861L13.835 36.0501Z" fill="#2C2C2C"/>
<path d="M26.8863 23.2882L26.3955 27.7238L50.1068 29.2034L50.985 24.7663L26.8863 23.2882Z" fill="#DC3412"/>
<path d="M29.2605 0.395724L55.6065 3.35375L55.7263 3.37346C56.0004 3.43371 56.2449 3.59116 56.4131 3.81921C56.6056 4.0803 56.6817 4.4103 56.6209 4.7289L52.2402 27.6608L62.1979 27.9716C62.5379 27.9821 62.8566 28.1401 63.0698 28.4052C63.2828 28.6703 63.369 29.0156 63.3063 29.3498L61.5777 38.5468L60.4329 38.3315V38.333L61.5777 38.5468C61.4838 39.0464 61.0803 39.42 60.5921 39.4868L60.3783 39.4959L13.9184 37.2747C13.5954 37.2592 13.293 37.1109 13.0844 36.8639C12.8758 36.6167 12.7802 36.2934 12.819 35.9724L14.0321 25.9915L15.1875 26.1325V26.131L14.0321 25.9915C14.0993 25.4401 14.5425 25.0241 15.0753 24.9726L15.3073 24.9742L25.5591 26.0279L27.9716 1.43884L28.0171 1.21142C28.0845 0.991449 28.2162 0.794362 28.3977 0.647406C28.6399 0.451349 28.9508 0.360957 29.2605 0.395724ZM27.7639 27.4212C27.7336 27.7295 27.5822 28.0136 27.3423 28.2096C27.1024 28.4057 26.7938 28.4976 26.4856 28.4659L16.205 27.4076L15.28 35.0081L59.4746 37.1201L60.765 30.2564L50.8058 29.9487L50.6784 29.9365C50.3865 29.8953 50.1188 29.7445 49.9324 29.512C49.7195 29.2462 49.6336 28.9004 49.6974 28.5659L54.0962 5.5264L30.1748 2.83977L27.7639 27.4212Z" fill="#1A1A1A"/>
</svg>
