<svg width="75" height="86" viewBox="0 0 75 86" fill="none" xmlns="http://www.w3.org/2000/svg">
<path d="M58.3996 12.9202L52.1863 26.8154C52.0211 27.1849 51.9923 27.6228 52.2711 27.9163C52.8199 28.4954 53.8221 28.9254 54.647 29.1862C55.1422 29.3415 55.6726 29.1877 56.0221 28.8043C58.3176 26.2845 62.5924 20.3507 64.8491 17.1136C65.0559 16.8171 65.1657 16.4554 65.0565 16.1107C64.5047 14.3656 62.1402 12.9497 60.2751 12.1424C59.546 11.8272 58.724 12.1952 58.3996 12.9202Z" fill="#FFA629"/>
<path d="M57.3373 12.4444C57.8943 11.1998 59.3639 10.4797 60.7384 11.0738L61.5026 11.4256C62.2869 11.8088 63.1167 12.2854 63.859 12.8447C64.823 13.571 65.7821 14.5435 66.1668 15.7587C66.4223 16.5656 66.1358 17.3046 65.8044 17.7798L63.8939 16.4471C63.9065 16.429 63.9142 16.412 63.9211 16.3986C63.7348 15.8846 63.2469 15.2995 62.4579 14.705C61.8605 14.2549 61.166 13.8539 60.4852 13.5209L59.8134 13.2116C59.7589 13.188 59.7036 13.1871 59.6421 13.2131C59.5921 13.2343 59.54 13.2735 59.4996 13.3314L59.4632 13.3951L53.266 27.2497C53.641 27.5523 54.2962 27.8533 54.9946 28.0745C55.0397 28.0886 55.1044 28.0823 55.1614 28.0199C57.3961 25.5668 61.627 19.6987 63.8939 16.4471L65.8044 17.7798C63.5577 21.0025 59.24 27.0029 56.8839 29.5891C56.2419 30.2935 55.2438 30.5935 54.2986 30.2972L53.962 30.185C53.1449 29.899 52.1009 29.4265 51.4282 28.7173C50.6707 27.9198 50.877 26.8911 51.1234 26.34L57.3373 12.4444Z" fill="#DD7C0E"/>
<path d="M67.5441 26.2628L59.6346 32.58C59.3196 32.8315 59.1157 33.2072 59.3134 33.5426C59.6377 34.0922 60.354 34.7567 60.9248 35.2395C61.3395 35.5904 61.9284 35.6758 62.454 35.4817C66.2267 34.0876 68.1099 33.2306 71.1852 31.8178C71.5489 31.6501 71.8611 31.3551 71.8588 30.9685C71.8507 29.6706 70.5985 27.7051 69.585 26.4165C69.097 25.7954 68.1812 25.7551 67.5441 26.2628Z" fill="#FFA629"/>
<path d="M66.8184 25.3523C67.8717 24.5129 69.5457 24.4829 70.5 25.6964L68.6698 27.1353C68.6474 27.1068 68.6125 27.0822 68.5439 27.0777C68.4683 27.0728 68.3645 27.0962 68.2695 27.1717L60.5878 33.3076C60.8631 33.6237 61.2638 34.0015 61.6765 34.3507L61.7402 34.3886C61.8151 34.4217 61.9245 34.436 62.0495 34.3901L63.3672 33.8958C66.2545 32.7949 68.0055 31.9963 70.6728 30.771C70.6148 30.4128 70.4235 29.8889 70.0739 29.2427C69.7731 28.6868 69.4021 28.1217 69.0337 27.6174L68.6698 27.1353L70.5 25.6964C71.0352 26.3769 71.642 27.2465 72.1224 28.1344C72.5803 28.9807 73.0172 30.0113 73.0231 30.9621C73.0294 32.0416 72.1813 32.6406 71.6721 32.8754L71.39 32.2629L71.1171 31.6701L71.6721 32.8754C68.5866 34.2929 66.6709 35.1642 62.8577 36.5734L62.5196 36.6749C61.7186 36.8605 60.8401 36.6939 60.1723 36.1291C59.6855 35.7173 58.9611 35.0677 58.4938 34.4143L58.3103 34.1339C57.9995 33.6065 58.0251 33.0449 58.1981 32.6041C58.3583 32.1962 58.6398 31.884 58.9077 31.6701L66.8184 25.3523Z" fill="#DD7C0E"/>
</svg>
