<svg width="75" height="86" viewBox="0 0 75 86" fill="none" xmlns="http://www.w3.org/2000/svg">
<path d="M21.5986 37.6026L22.2741 28.2206L33.6896 28.9597L36.4953 3.1051L62.8417 6.06275L58.1556 30.4392H68.818L67.6085 40.0386L21.5986 37.6026Z" fill="#2C2C2C"/>
<path d="M34.6508 24.8408L34.1602 29.2764L57.8716 30.756L58.7504 26.3188L34.6508 24.8408Z" fill="#DC3412"/>
<path d="M69.3414 40.0994C69.2341 40.6706 68.7211 41.0762 68.1405 41.0485L68.1966 39.8856L69.3414 40.0994ZM37.0241 1.94828L63.3701 4.9063L63.2397 6.06313L64.3846 6.28145L60.0039 29.2133L69.9616 29.5242C70.3011 29.5349 70.6189 29.6931 70.8319 29.9578C71.045 30.2228 71.1327 30.5681 71.07 30.9023L69.3414 40.0994L68.1966 39.8841L68.1405 41.0485L21.682 38.8273C21.3591 38.8117 21.0567 38.6634 20.8481 38.4164C20.6395 38.1693 20.5438 37.846 20.5827 37.5249L21.7958 27.5441L22.9512 27.6851V27.6835L21.7958 27.5441C21.8629 26.9927 22.3063 26.5767 22.839 26.5252L23.071 26.5267L33.3243 27.5804L35.7353 2.99139L35.7808 2.76397C35.8482 2.54401 35.9798 2.34691 36.1613 2.19996C36.4036 2.0039 36.7144 1.91351 37.0241 1.94828ZM35.529 28.9738C35.4988 29.2821 35.3459 29.5661 35.106 29.7622C34.926 29.9091 34.7077 29.9983 34.4798 30.0199L34.2508 30.0184L23.9686 28.9601L23.0437 36.5606L67.2383 38.6726L68.5286 31.809L58.5695 31.5012C58.2289 31.4906 57.9107 31.3304 57.6976 31.0646C57.4845 30.7987 57.3972 30.4531 57.4611 30.1185L61.8599 7.07895L37.9385 4.39232L35.529 28.9738ZM63.3701 4.9063C63.6925 4.94249 63.9859 5.11066 64.1783 5.37176C64.3707 5.63283 64.4454 5.9629 64.3846 6.28145L63.2412 6.06313L63.3701 4.9063Z" fill="#1A1A1A"/>
</svg>
