<svg width="75" height="86" viewBox="0 0 75 86" fill="none" xmlns="http://www.w3.org/2000/svg">
<path d="M62.0167 19.8416C64.1265 20.2298 65.5303 22.2479 65.1516 24.3594C64.9721 25.353 64.8474 26.0828 64.7665 26.6262C65.3106 26.7504 66.0324 26.8747 67.0325 27.061C69.1424 27.4336 70.5462 29.4518 70.1675 31.5632C69.9439 32.8053 69.1472 33.7989 68.1002 34.3423C68.897 35.1962 69.2978 36.4072 69.0742 37.6493C68.6953 39.7607 66.6776 41.1736 64.5676 40.7854C63.5675 40.6147 62.844 40.4905 62.2937 40.3973C62.178 40.9407 62.0434 41.6703 61.8637 42.664C61.485 44.7754 59.4671 46.1883 57.3573 45.8001C56.2754 45.6138 55.3813 44.9774 54.816 44.139C53.9915 44.729 52.9372 45.0083 51.856 44.822C49.7459 44.4339 48.3424 42.4155 48.7211 40.3041C48.9006 39.3104 49.0253 38.5808 49.1062 38.0374C48.5621 37.9287 47.8401 37.789 46.8402 37.6026C44.73 37.23 43.3266 35.2117 43.7053 33.1002C43.9287 31.8582 44.7232 30.8647 45.7699 30.3213C44.974 29.4674 44.5751 28.2564 44.7985 27.0144C45.1772 24.9029 47.1948 23.4901 49.305 23.8782C50.3051 24.049 51.0289 24.1732 51.579 24.2663C51.6946 23.7229 51.8293 22.9933 52.009 21.9997C52.3877 19.8882 54.4053 18.4754 56.5154 18.8635C57.5963 19.0498 58.4886 19.6863 59.0539 20.5246C59.8787 19.9347 60.935 19.6553 62.0167 19.8416Z" fill="white"/>
<path d="M53.9734 22.8069C54.1248 21.9686 54.9319 21.4097 55.776 21.5495C56.62 21.7047 57.1815 22.5121 57.0299 23.3505C56.7624 24.8409 56.541 26.0985 56.2609 27.0455C55.9839 27.9771 55.5614 28.9397 54.6639 29.5762C53.7666 30.1972 52.7105 30.2592 51.7385 30.1815C50.7551 30.1194 49.5079 29.8866 48.017 29.6226C47.1729 29.4674 46.6114 28.6602 46.763 27.8218C46.9145 26.9834 47.7215 26.4244 48.5655 26.5642C50.1313 26.8436 51.1764 27.0299 51.9467 27.092C52.7282 27.1386 52.8869 27.03 52.8907 27.0145C52.8948 27.0145 53.06 26.9057 53.2828 26.1605C53.5022 25.4153 53.6924 24.375 53.9734 22.8069Z" fill="#DC3412"/>
<path d="M62.531 24.3442C62.6824 23.5058 62.1211 22.6985 61.277 22.5432C60.433 22.388 59.6259 22.9468 59.4743 23.8007C59.2068 25.2911 58.9801 26.5332 58.9143 27.5113C58.8491 28.4894 58.9079 29.5451 59.5323 30.4456C60.1564 31.3461 61.1263 31.7653 62.0602 32.0448C63.005 32.3242 64.2534 32.5416 65.7442 32.8055C66.5882 32.9608 67.3953 32.4018 67.5469 31.5479C67.6983 30.7095 67.137 29.9023 66.2929 29.7471C64.7272 29.4676 63.683 29.2812 62.9429 29.0638C62.1919 28.831 62.0812 28.6757 62.0812 28.6757C62.0784 28.6602 61.961 28.5049 62.0135 27.7287C62.065 26.9524 62.25 25.9123 62.531 24.3442Z" fill="#DC3412"/>
<path d="M50.6861 41.1271C50.5345 41.9655 51.096 42.7728 51.94 42.9281C52.7841 43.0834 53.591 42.5088 53.7426 41.6704C54.0103 40.18 54.2368 38.9379 54.3028 37.9443C54.368 36.9817 54.309 35.9262 53.6848 35.0257C53.0605 34.1252 52.0908 33.706 51.1569 33.4265C50.2119 33.1471 48.9637 32.9297 47.4728 32.6658C46.6287 32.5105 45.8218 33.0693 45.6702 33.9077C45.5187 34.7616 46.0801 35.569 46.9242 35.7087C48.4898 36.0037 49.5341 36.1899 50.2741 36.4073C51.025 36.6247 51.1357 36.7954 51.1357 36.7954C51.1357 36.7954 51.2559 36.9664 51.2036 37.7427C51.1519 38.5189 50.9671 39.559 50.6861 41.1271Z" fill="#DC3412"/>
<path d="M59.2434 42.664C59.0919 43.5024 58.2848 44.0613 57.4407 43.9061C56.5967 43.7664 56.0354 42.959 56.1868 42.1051C56.4545 40.6146 56.6757 39.3726 56.956 38.4256C57.2328 37.494 57.6555 36.5159 58.5528 35.8949C59.4503 35.2739 60.5064 35.2117 61.4783 35.2738C62.4617 35.3515 63.709 35.5688 65.1999 35.8483C66.044 35.988 66.6053 36.7954 66.4539 37.6493C66.3024 38.4877 65.4953 39.0467 64.6512 38.8914C63.0856 38.6119 62.0403 38.4255 61.2702 38.3789C60.4887 38.3324 60.3299 38.4411 60.326 38.4411C60.3221 38.4566 60.1567 38.5652 59.9341 39.3104C59.7147 40.0556 59.5245 41.0959 59.2434 42.664Z" fill="#DC3412"/>
</svg>
