<svg width="75" height="86" viewBox="0 0 75 86" fill="none" xmlns="http://www.w3.org/2000/svg">
<path d="M37.1083 82.8438C4.81364 81.5675 0.993683 60.1955 7.06804 49.3302C13.1424 38.4649 30.3803 35.2339 37.1083 35.7649C54.797 37.5256 60.9521 42.7874 67.2539 51.6747C68.3943 53.2832 69.3717 55.0315 69.9988 56.9009C77.7494 80.001 51.555 84.3794 37.1083 82.8438Z" fill="#DC3412"/>
<path d="M21.4535 37.1761C27.4901 35.0316 33.646 34.3243 37.1997 34.6046H37.2118L37.2239 34.6061C46.1611 35.4957 52.3039 37.2806 57.0382 40.0418C61.7831 42.8092 65.0118 46.4997 68.2038 51.0012C69.3907 52.6753 70.4302 54.5258 71.1029 56.531C73.1081 62.5076 72.9633 67.4206 71.2287 71.3826C69.4991 75.3328 66.2632 78.169 62.4102 80.1464C54.7538 84.0756 44.3487 84.7818 37.0026 84.0038C20.6427 83.344 11.2031 77.5777 6.70958 70.2939C2.23756 63.0449 2.82531 54.5326 6.05153 48.7617C9.28767 42.9732 15.426 39.3175 21.4535 37.1761ZM37.0177 36.926C33.8433 36.6754 28.0155 37.3173 22.2329 39.3717C16.441 41.4294 10.9229 44.8223 8.08481 49.8989C5.23689 54.9934 4.69843 62.5996 8.6913 69.0718C12.5334 75.2993 20.7239 80.7036 35.685 81.6066L37.1542 81.6809L37.1936 81.6824L37.2315 81.6854C44.3308 82.44 54.2369 81.7232 61.3458 78.0752C64.8782 76.2625 67.642 73.768 69.0954 70.4485C70.5435 67.1408 70.765 62.8438 68.8952 57.2709C68.3137 55.5375 67.3978 53.8905 66.304 52.3477C63.1943 47.9623 60.1946 44.5793 55.8646 42.0539C51.5278 39.5245 45.7557 37.7963 37.0177 36.9244V36.926Z" fill="#1A1A1A"/>
<path d="M18.8405 39.6419C21.3908 37.5567 24.7217 36.3829 27.0185 35.7091C27.8577 35.4638 28.3513 34.5865 28.0639 33.7605C27.7377 32.8243 27.4324 32.0791 27.1742 31.4999C26.776 30.6041 27.2781 30.0047 28.1837 30.3788C30.6709 31.4051 33.7195 33.3025 35.5988 34.6859C36.2254 35.1486 37.0966 35.1284 37.7166 34.658C41.6132 31.6987 45.8896 31.2049 49.0511 31.444C50.4301 31.5496 50.6276 33.2171 49.415 33.8817C45.7412 35.897 44.7817 36.7167 44.907 37.0971C44.9964 37.3688 45.4036 37.2958 45.6813 37.2275C52.1798 35.6563 56.3531 37.6965 58.3456 39.142C59.0168 39.6295 58.9918 40.5563 58.2051 40.8187C55.7182 41.6494 50.8304 41.5252 47.4772 41.8606C46.7408 41.9351 46.2008 42.5623 46.1747 43.3014C45.8139 53.5457 45.0863 54.2817 44.3924 53.2492C44.3488 53.184 44.3126 53.1109 44.2823 53.0379C39.9899 42.817 37.7468 41.5842 37.0174 42.3295C36.9078 42.4413 36.867 42.6043 36.8398 42.7595C35.2201 51.9697 33.4394 55.2366 32.1931 56.1355C31.6029 56.561 31.1612 55.8234 31.2436 55.0998C31.591 52.052 31.4714 45.8276 31.4778 42.3559C31.4793 41.4989 30.8035 40.7909 29.9467 40.8281C27.2379 40.9415 23.0596 41.3948 19.8244 41.6852C18.5458 41.7985 17.8466 40.4539 18.8405 39.6419Z" fill="#14AE5C"/>
<path d="M26.3145 29.6939C26.9756 28.9416 27.9543 29.0242 28.6283 29.3027C31.2319 30.3771 34.3637 32.3315 36.2884 33.7483H36.2899C36.4859 33.893 36.7885 33.8991 37.0116 33.7301C41.2009 30.5486 45.7888 30.0289 49.1385 30.2822H49.14C50.3723 30.3766 51.2132 31.2351 51.3583 32.2957C51.4966 33.3085 50.9844 34.3487 49.9755 34.9022C49.5513 35.1348 49.1659 35.3507 48.8171 35.5496C53.8101 35.1733 57.2009 36.8738 59.029 38.2H59.0305C59.6534 38.6527 60.0328 39.3744 59.9842 40.1393C59.9324 40.949 59.4044 41.6464 58.5726 41.9239L58.5711 41.9224C57.1593 42.3934 55.1656 42.5745 53.2339 42.6881C51.2209 42.8063 49.241 42.8524 47.5935 43.0171L47.595 43.0186C47.4878 43.0294 47.3461 43.1339 47.3387 43.3431C47.1588 48.4509 46.8848 51.3064 46.5412 52.7695C46.4538 53.1417 46.3497 53.4792 46.2152 53.7597C46.0978 54.0045 45.868 54.399 45.4237 54.6163C44.8577 54.8931 44.323 54.7209 44.0015 54.5041C43.7269 54.3189 43.5389 54.0681 43.4253 53.8991L43.4238 53.8961C43.3262 53.7501 43.2573 53.6054 43.2085 53.4882L42.4337 51.69C40.6851 47.7399 39.3525 45.4905 38.402 44.2968C38.1877 44.0277 38.0024 43.8311 37.8516 43.6842C37.0732 47.9403 36.2585 50.921 35.462 52.9833C34.6375 55.1183 33.7799 56.4266 32.8738 57.0802C32.5364 57.3234 32.0891 57.4866 31.5911 57.4032C31.1083 57.3221 30.7634 57.0405 30.5494 56.7679C30.1448 56.2522 30.0196 55.5594 30.0869 54.9681C30.4245 52.0062 30.3064 45.8986 30.3129 42.353C30.3129 42.2337 30.2667 42.1363 30.2052 42.074C30.1474 42.0155 30.0785 41.9887 29.9975 41.9921H29.996C27.324 42.1039 23.2061 42.55 19.9281 42.8442H19.9266C18.8476 42.9398 17.877 42.414 17.4369 41.5281C16.9751 40.5981 17.2039 39.4753 18.1041 38.7398C20.8441 36.4998 24.3647 35.2737 26.6906 34.5913H26.6921C26.9411 34.5183 27.0146 34.2925 26.9635 34.144L26.733 33.5011C26.5061 32.8927 26.2941 32.3875 26.1098 31.9743V31.9728C25.8257 31.3335 25.6919 30.4025 26.3145 29.6939ZM28.5722 31.8227C28.6806 32.0883 28.7985 32.3747 28.9149 32.6869L29.1636 33.3768V33.3783C29.6536 34.7876 28.8817 36.2179 27.6064 36.7353L27.3456 36.8263C25.0866 37.489 21.961 38.6047 19.6036 40.5213L19.7219 40.5244C22.9134 40.2379 27.1506 39.7797 29.8959 39.6647C31.4762 39.5959 32.6442 40.899 32.6418 42.3575C32.6364 45.3112 32.7266 50.4903 32.516 53.8521C32.7521 53.4172 33.0134 52.8592 33.2892 52.1449C34.0552 50.1615 34.8897 47.1229 35.6925 42.5577C35.7198 42.4014 35.801 41.9067 36.1853 41.5145L36.3975 41.3295C36.6263 41.1598 36.9024 41.0402 37.2163 41.0005C37.62 40.9494 38.0027 41.04 38.3338 41.1885C38.9667 41.4726 39.5899 42.0487 40.2245 42.8457C41.3458 44.254 42.7621 46.6912 44.5291 50.6741C44.7147 49.1594 44.8864 46.8057 45.0113 43.2597L45.0295 43.0231C45.1748 41.8509 46.0799 40.8313 47.36 40.7018H47.3615C49.0668 40.5312 51.2071 40.4732 53.0974 40.3621C54.7849 40.263 56.2674 40.1197 57.3338 39.8557C55.443 38.5909 51.7108 36.9674 45.9544 38.3592L45.9529 38.3577C45.8072 38.3934 45.4954 38.469 45.1675 38.4532C44.8455 38.4376 44.0744 38.29 43.8014 37.4616C43.5756 36.7761 43.9454 36.2238 44.1334 35.9893C44.3581 35.709 44.6774 35.4371 45.0447 35.166C45.7948 34.6124 47.0115 33.8726 48.855 32.8613V32.8598C48.9619 32.8012 49.0087 32.7387 49.0294 32.6991C49.0471 32.6649 49.0489 32.6377 49.0491 32.6217L48.9626 32.605C45.9896 32.3803 42.024 32.8476 38.4202 35.5845V35.586C37.404 36.3569 35.9655 36.403 34.9086 35.6239L34.1717 35.0978C32.582 33.9935 30.4621 32.7034 28.5722 31.8227Z" fill="#1A1A1A"/>
<path d="M53.404 74.8493C59.7077 65.9636 59.1561 56.8356 57.6027 50.1065C57.1754 48.2557 58.4773 46.4562 60.1269 47.3971C63.7728 49.4777 67.1469 55.2706 68.8063 61.8972C69.3564 64.0958 69.3608 66.4542 68.3369 68.4757C65.6528 73.7733 59.7298 77.2388 55.2495 78.7417C52.1727 79.7742 51.5264 77.4965 53.404 74.8493Z" fill="#BD2915"/>
<path d="M32.1889 69.7429C31.9775 71.0117 30.7776 71.8689 29.5089 71.6575C28.2401 71.4461 27.3829 70.2462 27.5943 68.9775C27.8057 67.7087 29.0056 66.8515 30.2743 67.0629C31.5431 67.2743 32.4003 68.4742 32.1889 69.7429Z" fill="#FFAFA3"/>
<path d="M31.04 69.5517C31.1457 68.9173 30.7171 68.3174 30.0827 68.2117C29.4483 68.106 28.8484 68.5346 28.7427 69.169C28.637 69.8034 29.0656 70.4033 29.7 70.509C30.3344 70.6147 30.9343 70.1861 31.04 69.5517ZM33.3373 69.9345C33.0202 71.8376 31.2204 73.1234 29.3173 72.8063C27.4141 72.4892 26.1284 70.6894 26.4454 68.7863C26.7625 66.8831 28.5623 65.5974 30.4655 65.9144C32.3686 66.2315 33.6543 68.0313 33.3373 69.9345Z" fill="#1A1A1A"/>
<path d="M35.239 62.3068C35.9187 62.3603 36.4263 62.9546 36.3729 63.6342C36.3193 64.3137 35.7251 64.8214 35.0456 64.768C34.3662 64.7143 33.8594 64.1201 33.9127 63.4408C33.9661 62.7613 34.5596 62.2537 35.239 62.3068ZM36.7629 59.1088C37.2867 58.8818 37.8845 59.0218 38.097 59.4214C38.3094 59.821 38.0572 60.3294 37.5337 60.5565L37.5276 60.559C37.5236 60.5607 37.5162 60.5639 37.5084 60.5672C37.4928 60.574 37.4703 60.5838 37.4414 60.5963C37.3823 60.6218 37.2965 60.6593 37.1909 60.7049C36.9795 60.7961 36.6865 60.9215 36.3627 61.06C35.7185 61.3356 34.9371 61.6673 34.4247 61.8745L34.325 61.9098C33.8229 62.0678 33.2949 61.9072 33.1111 61.5263C32.9151 61.1197 33.1856 60.6157 33.7157 60.4013L34.5997 60.0349C34.9306 59.8955 35.2823 59.7456 35.6051 59.6075C35.9256 59.4704 36.2155 59.3461 36.4252 59.2557L36.7406 59.1188C36.7482 59.1155 36.755 59.1131 36.7588 59.1114C36.7601 59.1108 36.7611 59.1101 36.7619 59.1097L36.7629 59.1088Z" fill="#1A1A1A"/>
<path d="M23.2257 60.7677C22.5549 60.8887 22.1093 61.5308 22.2302 62.2016C22.3512 62.8725 22.9932 63.3182 23.6641 63.1972C24.335 63.0761 24.7807 62.4341 24.6597 61.7632C24.5385 61.0925 23.8965 60.6467 23.2257 60.7677ZM21.3901 57.7388C20.8463 57.5653 20.2664 57.7641 20.0949 58.1829C19.9235 58.6017 20.2243 59.0826 20.7679 59.2563L20.7708 59.2557C20.7717 59.256 20.7726 59.2576 20.7742 59.2581C20.7783 59.2594 20.7859 59.2609 20.794 59.2635C20.8102 59.2686 20.8343 59.2768 20.8646 59.2864C20.926 59.306 21.0152 59.3348 21.1247 59.3695C21.3442 59.4391 21.6485 59.5347 21.9843 59.6401C22.6527 59.8499 23.4633 60.101 23.9937 60.2559L24.0956 60.2812C24.6111 60.3884 25.1213 60.1759 25.2661 59.7783C25.4202 59.3542 25.0999 58.8798 24.551 58.7195L23.6351 58.4442C23.292 58.3386 22.9279 58.2243 22.593 58.1192C22.2601 58.0146 21.9586 57.9203 21.7409 57.8512L21.4132 57.7456C21.4055 57.7431 21.3992 57.7411 21.3953 57.7399C21.3937 57.7393 21.392 57.739 21.3911 57.7387L21.3901 57.7388Z" fill="#1A1A1A"/>
</svg>
