<svg width="75" height="86" viewBox="0 0 75 86" fill="none" xmlns="http://www.w3.org/2000/svg">
<path d="M58.4 28.4459L52.186 42.3411C52.0214 42.7106 51.9919 43.1485 52.2714 43.4419C52.8195 44.021 53.8226 44.451 54.6471 44.7119C55.1424 44.8671 55.6718 44.7134 56.0228 44.3299C58.3177 41.8101 62.5923 35.8763 64.8484 32.6393C65.0564 32.3427 65.1651 31.981 65.0564 31.6363C64.5052 29.8913 62.1404 28.4753 60.2756 27.668C59.5459 27.3528 58.7245 27.7208 58.4 28.4459Z" fill="#FFA629"/>
<path d="M57.3366 27.9699C57.8588 26.8032 59.1821 26.0968 60.4784 26.5023L60.7377 26.5993L61.5019 26.9511C62.2864 27.3344 63.1172 27.8107 63.8598 28.3702C64.8239 29.0967 65.782 30.0698 66.1661 31.2858L66.2374 31.5844C66.3485 32.2711 66.0963 32.8891 65.8022 33.3083C63.5555 36.5317 59.238 42.5275 56.8832 45.1131L55.8445 44.1655L56.8817 45.1162C56.2395 45.8178 55.244 46.1193 54.2979 45.8227H54.2948C53.4506 45.5556 52.1942 45.0541 51.426 44.2428L51.4275 44.2413C50.6693 43.4432 50.8788 42.4147 51.1227 41.867V41.8655L57.3366 27.9699ZM56.8832 45.1131L56.8817 45.1162L56.0219 44.3293L56.8832 45.1131ZM59.6414 28.7386C59.5749 28.7669 59.5047 28.8276 59.4625 28.9221L53.2653 42.7767C53.6396 43.0787 54.2954 43.3787 54.9939 43.6C55.0208 43.6084 55.0483 43.6088 55.0742 43.6015C55.1011 43.5938 55.1335 43.5768 55.1637 43.5439C57.3985 41.0894 61.6277 35.2245 63.8931 31.9741L63.8946 31.9711C63.9071 31.9534 63.9137 31.9356 63.9204 31.9226C63.7341 31.4091 63.2456 30.8246 62.4572 30.2305C61.6608 29.6305 60.6919 29.1177 59.8127 28.7371V28.7356C59.7578 28.7122 59.7023 28.7128 59.6414 28.7386ZM52.2706 43.4423L52.263 43.4499L53.0333 42.7191L52.2706 43.4423Z" fill="#DD7C0E"/>
<path d="M67.5441 41.7884L59.6346 48.1056C59.3194 48.3572 59.116 48.7329 59.3132 49.0682C59.6377 49.6178 60.3535 50.2823 60.9249 50.7652C61.3395 51.1161 61.9279 51.2015 62.4543 51.0074C66.2258 49.6132 68.1092 48.7562 71.1852 47.3434C71.5485 47.1757 71.8606 46.8807 71.859 46.4942C71.8497 45.1962 70.5983 43.2307 69.5843 41.9421C69.0968 41.3211 68.1807 41.2807 67.5441 41.7884Z" fill="#FFA629"/>
<path d="M66.8184 40.8778C67.8713 40.0384 69.5447 40.0094 70.4985 41.2235C71.034 41.9042 71.6421 42.7722 72.1225 43.66C72.5232 44.4007 72.9077 45.2817 73.0019 46.1268L73.0231 46.4861V46.4891C73.0275 47.5665 72.1834 48.1656 71.6736 48.401H71.6706L71.2354 47.4519L70.8821 46.6862L71.6706 48.401C68.5844 49.8185 66.67 50.6897 62.8578 52.0989V52.1004C61.9744 52.4261 60.937 52.2998 60.1739 51.6547L59.7084 51.2483C59.2088 50.7952 58.6392 50.2164 58.3103 49.6594L59.81 48.7755L59.3126 49.0681L58.3103 49.6594L58.3088 49.6579C57.9994 49.1313 58.0255 48.5716 58.1981 48.1311C58.3582 47.723 58.6393 47.4099 58.9078 47.1957L66.8169 40.8778H66.8184ZM62.8062 51.9625L62.2649 50.4933L62.8062 51.9625ZM68.5439 42.6032C68.4683 42.5982 68.3643 42.6217 68.2695 42.6972L60.5878 48.8331C60.7657 49.0374 60.9949 49.2681 61.2474 49.4987L61.6765 49.8762C61.7424 49.932 61.8822 49.9764 62.0511 49.9141C65.7706 48.5391 67.623 47.6974 70.6729 46.2966C70.6143 45.9378 70.4232 45.4139 70.0739 44.7683C69.6729 44.0271 69.1464 43.27 68.6683 42.6623V42.6608C68.6462 42.6328 68.6124 42.6077 68.5439 42.6032Z" fill="#DD7C0E"/>
</svg>
