<svg width="75" height="86" viewBox="0 0 75 86" fill="none" xmlns="http://www.w3.org/2000/svg">
<path d="M36.4867 84.1852C36.4665 84.1852 36.4448 84.1867 36.4246 84.1867C31.1565 84.4677 23.2552 83.4213 16.7155 79.4264C10.2519 75.4749 5.0459 68.6107 5.0459 57.0032C5.0459 49.65 6.64666 44.4984 9.04392 40.9056C11.4365 37.3206 14.6862 35.1903 18.1641 33.9855C25.1882 31.5525 33.0662 32.9266 36.1731 33.7961C39.6572 34.7712 41.9939 34.3178 44.3026 33.6548C44.6163 33.5648 44.9283 33.4715 45.2404 33.3784C47.1626 32.8039 49.122 32.217 52.013 32.217C58.3415 32.217 69.4801 40.2643 69.4801 57.0032C69.4801 65.3983 67.1186 72.1228 61.9514 76.7698C56.7625 81.4386 48.5522 84.1852 36.4867 84.1852Z" fill="#85E0A3"/>
<path d="M68.3156 57.003C68.3155 48.9049 65.626 42.9824 62.2415 39.0977C58.8196 35.1702 54.75 33.3814 52.0129 33.3814C49.3023 33.3814 47.4802 33.9245 45.5734 34.4944L44.6243 34.7733C42.1986 35.4699 39.626 35.9716 35.8589 34.9174C32.8468 34.0745 25.2422 32.7659 18.5449 35.0857C15.265 36.222 12.2416 38.2132 10.013 41.5525C7.77448 44.9075 6.21032 49.8171 6.2103 57.003C6.2103 68.1841 11.1875 74.6811 17.3228 78.432C23.6094 82.2723 31.2596 83.2954 36.3623 83.0232C36.3829 83.0221 36.4038 83.0217 36.4244 83.0217H36.4396C36.4512 83.0214 36.4676 83.0202 36.4866 83.0202C48.3978 83.0202 56.2793 80.3071 61.1725 75.9044L61.6198 75.489C66.1627 71.1434 68.3156 64.9245 68.3156 57.003ZM70.6445 57.003C70.6445 65.6159 68.2152 72.7027 62.7297 77.636C57.2451 82.5705 48.706 85.3491 36.4866 85.3491H36.4972C36.4927 85.3493 36.4823 85.3503 36.4714 85.3506C36.4641 85.3508 36.4548 85.3505 36.4442 85.3506C31.1811 85.6238 23.3906 84.6248 16.7497 80.8004L16.1083 80.4198C9.31662 76.2678 3.88135 69.0366 3.88135 57.003C3.88138 49.4827 5.5194 44.0896 8.07527 40.2591L8.56502 39.5586C11.0666 36.1485 14.3365 34.0795 17.7823 32.8856C25.1329 30.3395 33.2848 31.7788 36.4866 32.6749C39.6878 33.5707 41.7895 33.1648 43.9814 32.5354C44.2878 32.4474 44.5934 32.3558 44.9063 32.2625C46.8438 31.6834 48.9416 31.0525 52.0129 31.0525C55.6043 31.0525 60.2678 33.2873 63.9973 37.5678C67.7641 41.8913 70.6445 48.3623 70.6445 57.003Z" fill="#1A1A1A"/>
<path d="M55.7081 18.8907C45.0555 20.8657 40.3262 28.4099 38.7798 33.7618C38.3466 35.2586 39.376 36.7211 40.91 36.9929C56.9285 39.8264 59.6689 29.0418 58.8398 21.2041C58.6767 19.6577 57.2374 18.6082 55.7081 18.8907Z" fill="#14AE5C"/>
<path d="M55.4969 17.7455C57.6773 17.3428 59.7627 18.845 59.9986 21.0827C60.4268 25.1319 59.963 30.1488 57.1117 33.8146C54.1789 37.585 48.9876 39.6036 40.7075 38.1389C38.5748 37.7612 37.0134 35.6781 37.6613 33.4386L37.8236 32.9018C39.6127 27.2933 44.6475 19.7568 55.4954 17.7455H55.4969ZM57.6818 21.3268C57.5916 20.4718 56.7981 19.8743 55.9199 20.0365V20.035C45.8134 21.9089 41.3573 29.0339 39.8978 34.0845V34.086C39.68 34.8397 40.1788 35.6807 41.1138 35.8464H41.1123C48.8505 37.2152 53.0393 35.2577 55.274 32.3848C57.4447 29.5938 58.0145 25.6462 57.747 22.0425L57.6818 21.3268Z" fill="#1A1A1A"/>
<path d="M55.3138 26.1666C53.1386 28.8697 50.4805 31.0744 48.2633 32.6099C47.5693 33.0928 47.9497 34.1781 48.7586 33.9327C53.2845 32.5509 55.5188 29.3758 56.4503 26.6431C56.7065 25.8901 55.8122 25.5471 55.3138 26.1666Z" fill="#008043"/>
<path d="M31.7294 18.47L26.3945 23.2567C33.9434 24.9755 36.8531 33.414 37.3639 37.4183H40.3682C40.3682 27.2889 35.4091 20.2229 31.7294 18.47Z" fill="#A55E40"/>
<path d="M31.0903 17.4966C31.4269 17.2755 31.8594 17.2425 32.2305 17.4193C34.3786 18.4428 36.6937 20.8831 38.4607 24.2636C40.2464 27.6799 41.5326 32.1638 41.5326 37.4185C41.5325 38.0616 41.0112 38.583 40.3681 38.583H37.3645C36.7783 38.583 36.2833 38.147 36.2091 37.5656C35.9713 35.702 35.1625 32.7542 33.5269 30.0905C31.8969 27.4364 29.5104 25.1609 26.1367 24.3925C25.7125 24.2959 25.3773 23.9705 25.2679 23.5495C25.1586 23.1282 25.2927 22.6802 25.6166 22.3895L30.9523 17.6028L31.0903 17.4966ZM28.6825 22.7686C31.7715 24.0421 33.9858 26.3893 35.5101 28.8715C37.0732 31.4167 37.9565 34.1709 38.3531 36.2541H39.1779C39.0056 31.8874 37.8805 28.1814 36.3971 25.3432C34.9894 22.6502 33.3039 20.8157 31.8848 19.8938L28.6825 22.7686Z" fill="#1A1A1A"/>
<path opacity="0.5" d="M56.8851 70.5468C54.7068 73.4332 48.5242 76.4794 42.7407 78.3395C41.0887 78.872 41.1585 80.3191 42.8618 79.9821C49.1313 78.7431 56.1507 75.8677 58.9998 74.2234C61.5927 72.7252 63.4435 66.465 64.5319 60.3849C64.847 58.6196 62.782 58.1817 62.1299 59.8523C60.4997 64.0289 58.5868 68.2909 56.8851 70.5468Z" fill="#14AE5C"/>
<path d="M44.1691 60.9498C44.8488 60.7268 45.6381 61.0387 45.9314 61.6463C46.2244 62.2537 45.9115 62.926 45.2323 63.1491L44.7198 63.3162C39.6713 65.0038 33.7815 63.7089 29.9397 60.076C29.4237 59.5878 29.4357 58.8473 29.9661 58.4225C30.4966 57.998 31.3456 58.0498 31.8618 58.538C34.927 61.4363 39.6261 62.4687 43.6506 61.1204L43.6584 61.1173L44.1691 60.9498Z" fill="#1A1A1A"/>
<path d="M44.423 53.0171C45.2591 53.0171 45.9368 53.6948 45.9368 54.5309C45.9368 55.367 45.2591 56.0447 44.423 56.0447C43.5869 56.0447 42.9092 55.367 42.9092 54.5309C42.9092 53.6948 43.5869 53.0171 44.423 53.0171Z" fill="#1A1A1A"/>
<path d="M31.1212 51.1165C30.2852 51.1165 29.6074 51.7942 29.6074 52.6303C29.6074 53.4663 30.2852 54.1441 31.1212 54.1441C31.9573 54.1441 32.6351 53.4663 32.6351 52.6303C32.6351 51.7942 31.9573 51.1165 31.1212 51.1165Z" fill="#1A1A1A"/>
</svg>
