<svg width="75" height="86" viewBox="0 0 75 86" fill="none" xmlns="http://www.w3.org/2000/svg">
<path d="M28.4358 26.4103C28.0781 25.1816 26.7811 24.434 25.5387 24.7405C24.2962 25.047 23.579 26.2914 23.9366 27.5201L30.4044 49.7419C30.762 50.9706 32.0591 51.7182 33.3015 51.4117C34.5439 51.1052 35.2612 49.8608 34.9036 48.6321L28.4358 26.4103Z" fill="#383838"/>
<path d="M17.0791 37.7166L19.6021 40.356C20.9762 41.7953 23.2741 41.7953 24.6482 40.356C26.0223 38.9183 28.3202 38.9183 29.6942 40.356C31.0683 41.7953 33.3662 41.7953 34.7403 40.356C36.1144 38.9183 38.4123 38.9183 39.7863 40.356L39.9012 40.4755C41.2132 41.8496 43.4055 41.8496 44.7175 40.4755L44.9333 40.2505C46.2142 38.9106 48.3848 39.0083 49.54 40.4585C50.6361 41.8357 52.6654 42.0064 53.9759 40.8311L57.4475 37.7166L52.7151 79.2728C52.5365 80.8409 51.209 82.0271 49.63 82.0271H24.1094C22.5071 82.0271 21.1687 80.8083 21.0166 79.2153L17.0791 37.7166Z" fill="#B3B3B3"/>
<path d="M39.6207 75.699L36.9229 74.1614L34.1568 79.0146L36.8547 80.5522L39.6207 75.699Z" fill="#D9D9D9"/>
<path d="M42.7262 66.7793L40.0283 65.2417L37.2623 70.0949L39.9601 71.6325L42.7262 66.7793Z" fill="#D9D9D9"/>
<path d="M44.0019 75.0469L40.9785 74.3384L39.7039 79.7771L42.7273 80.4857L44.0019 75.0469Z" fill="#D9D9D9"/>
<path d="M45.2551 66.7635L43.6162 69.4011L48.3611 72.3494L49.9999 69.7118L45.2551 66.7635Z" fill="#D9D9D9"/>
<path d="M50.1642 60.5519L47.4229 62.0105L50.0467 66.942L52.7881 65.4835L50.1642 60.5519Z" fill="#D9D9D9"/>
<path d="M47.8304 73.3549L45.3691 75.2483L48.7753 79.6758L51.2365 77.7824L47.8304 73.3549Z" fill="#D9D9D9"/>
<path d="M27.7513 70.6294L26.2256 73.334L31.0909 76.0786L32.6167 73.374L27.7513 70.6294Z" fill="#D9D9D9"/>
<path d="M24.616 64.0799L21.7363 65.2417L23.8264 70.4221L26.7061 69.2602L24.616 64.0799Z" fill="#D9D9D9"/>
<path d="M34.9031 66.0474L31.7988 65.9683L31.6564 71.5527L34.7607 71.6318L34.9031 66.0474Z" fill="#D9D9D9"/>
<path d="M26.5029 74.2305L23.5361 75.1475L25.1857 80.4845L28.1525 79.5675L26.5029 74.2305Z" fill="#D9D9D9"/>
<path d="M59.961 29.9534H14.565C13.3808 29.9534 12.4209 30.9133 12.4209 32.0974C12.4209 33.2816 13.3808 34.2415 14.565 34.2415H59.961C61.1452 34.2415 62.1051 33.2816 62.1051 32.0974C62.1051 30.9133 61.1452 29.9534 59.961 29.9534Z" fill="#1A1A1A"/>
<path d="M58.1281 31.894C59.2761 31.894 60.19 32.8862 60.0568 34.0501V34.0517C58.8796 44.2023 56.5222 64.3428 55.0411 77.2752C54.615 81.0043 51.4597 83.8177 47.707 83.8177H26.604C23.3985 83.8177 20.5857 81.7022 20.0462 78.4305C18.4363 68.6756 15.837 46.6734 14.4604 34.0335H14.4589L14.4482 33.8166C14.4495 32.7448 15.3307 31.894 16.3905 31.894H58.1281ZM16.8227 34.223C18.2119 46.9348 20.7654 68.4815 22.3448 78.0515C22.681 80.0898 24.4249 81.4888 26.604 81.4888H47.707C50.2764 81.4888 52.4343 79.5623 52.7258 77.0098H52.7273C54.1875 64.2599 56.4988 44.5015 57.6915 34.223H16.8227Z" fill="#1A1A1A"/>
<path d="M40.3318 60.4666C40.7917 60.916 41.529 60.9082 41.9785 60.4484C42.4278 59.9886 42.4185 59.2513 41.9588 58.8018L38.8762 55.7875C38.4237 55.3451 37.7003 55.3451 37.2478 55.7875L34.1653 58.8018L34.0849 58.8898C33.7069 59.3429 33.7256 60.0174 34.1471 60.4484C34.5687 60.8794 35.2428 60.9134 35.7043 60.5455L35.7937 60.4666L38.062 58.2484L40.3318 60.4666Z" fill="#1A1A1A"/>
<path d="M45.2936 51.6921C46.3183 51.6921 47.1491 52.4569 47.1491 53.4001C47.1489 54.3432 46.3182 55.1081 45.2936 55.1081C44.2691 55.108 43.4383 54.3431 43.4381 53.4001C43.4381 52.4569 44.269 51.6922 45.2936 51.6921ZM47.2008 47.1159C47.9589 46.7461 48.8696 46.8748 49.235 47.403C49.6002 47.9311 49.2835 48.6589 48.526 49.029L48.5221 49.03C48.5207 49.0307 48.5186 49.0328 48.5162 49.0339C48.5103 49.0367 48.4999 49.0412 48.4889 49.0466C48.4663 49.0576 48.4333 49.074 48.3912 49.0944C48.3056 49.1361 48.1817 49.197 48.0289 49.2712C47.7228 49.4199 47.2986 49.6251 46.8297 49.8513C45.897 50.3012 44.7655 50.8429 44.0221 51.1843L43.8766 51.2439C43.1427 51.5163 42.3316 51.3521 42.0114 50.8464C41.6699 50.3067 42.0165 49.5814 42.7858 49.2282L44.068 48.6276C44.5473 48.3995 45.0557 48.1549 45.5231 47.9294C45.9876 47.7053 46.4079 47.5027 46.7116 47.3552L47.1676 47.1315C47.1783 47.1263 47.1874 47.1225 47.193 47.1198C47.1954 47.1187 47.1975 47.1166 47.1989 47.1159H47.2008Z" fill="#1A1A1A"/>
<path d="M29.8129 51.6916C28.7883 51.6916 27.9576 52.4565 27.9574 53.3996C27.9574 54.3429 28.7882 55.1076 29.8129 55.1076C30.8376 55.1076 31.6684 54.3428 31.6684 53.3996C31.6683 52.4565 30.8375 51.6916 29.8129 51.6916ZM27.9067 47.1154C27.1486 46.7455 26.2371 46.8744 25.8715 47.4025C25.5062 47.9307 25.8238 48.6585 26.5815 49.0285L26.5844 49.0305C26.5858 49.0311 26.5879 49.0323 26.5903 49.0334C26.5961 49.0362 26.6064 49.0406 26.6176 49.0461C26.6402 49.0571 26.673 49.0734 26.7153 49.0939C26.8009 49.1357 26.9246 49.1964 27.0776 49.2707C27.3837 49.4195 27.8078 49.6245 28.2768 49.8508C29.2096 50.3008 30.3419 50.8424 31.0854 51.1838L31.2299 51.2434C31.9639 51.5159 32.7749 51.3518 33.0951 50.8459C33.4365 50.3063 33.0899 49.5819 32.3207 49.2287L31.0385 48.6281C30.5592 48.4 30.0508 48.1553 29.5834 47.9299C29.1188 47.7058 28.6986 47.5022 28.3949 47.3547L27.9389 47.132C27.9279 47.1267 27.9191 47.1221 27.9135 47.1193C27.9114 47.1183 27.9098 47.1171 27.9086 47.1164L27.9067 47.1154Z" fill="#1A1A1A"/>
</svg>
