<svg width="75" height="86" viewBox="0 0 75 86" fill="none" xmlns="http://www.w3.org/2000/svg">
<path d="M60.0716 63.6581C60.0716 70.1729 57.4445 75.278 53.2183 78.7745C48.9687 82.2897 43.0377 84.2304 36.3939 84.2304C29.7518 84.2304 23.8192 82.2897 19.5696 78.7745C15.3434 75.278 12.7163 70.1729 12.7163 63.6581C12.7163 57.4367 16.9674 53.8268 22.2339 49.644C22.3877 49.5214 22.5429 49.3987 22.6966 49.276C27.7287 45.2873 33.4284 40.7692 35.2263 32.9393C35.7154 30.8153 36.9498 29.9645 37.8782 29.9148C38.7477 29.8698 40.0721 30.5094 40.7988 33.0029C43.0408 40.6993 47.7934 45.4085 51.9265 49.5059C52.0973 49.6735 52.2665 49.8412 52.4342 50.0089C56.7319 54.2771 60.0716 57.8668 60.0716 63.6581Z" fill="#33293D"/>
<path d="M58.907 63.658C58.907 58.4058 55.9389 55.1304 51.6139 50.8351L51.6109 50.8321C51.4458 50.667 51.2788 50.5015 51.1105 50.3363L51.106 50.3332L49.526 48.7563C45.7787 44.968 41.7242 40.3422 39.6811 33.3286C39.0458 31.1485 38.0812 31.0699 37.9389 31.077C37.6825 31.0917 36.7714 31.4167 36.3605 33.2012C34.4587 41.4809 28.4149 46.2294 23.4194 50.1892L23.4179 50.1877C23.341 50.249 23.2647 50.3125 23.1889 50.3727C23.1117 50.434 23.0353 50.4945 22.96 50.5546L22.9584 50.5561L22.2337 49.6433L21.941 49.2764L22.9584 50.5561C17.6207 54.7955 13.8807 58.0759 13.8807 63.658C13.8807 69.8282 16.3556 74.6035 20.3126 77.8773C24.3153 81.188 29.9691 83.0659 36.3939 83.0659C42.8205 83.0659 48.4739 81.1883 52.4766 77.8773C56.4334 74.6035 58.907 69.828 58.907 63.658ZM61.236 63.658C61.236 70.5171 58.4562 75.9517 53.961 79.671C49.4647 83.3903 43.2547 85.3948 36.3939 85.3948C29.5346 85.3948 23.3231 83.3903 18.8267 79.671C14.3316 75.9517 11.5518 70.5171 11.5518 63.658C11.5518 56.7974 16.3138 52.8582 21.5089 48.7321C21.5864 48.6703 21.6645 48.6093 21.7409 48.5486C21.8183 48.4871 21.8943 48.4254 21.9699 48.3652L21.9729 48.3636C27.0412 44.3462 32.3962 40.0573 34.0907 32.6781H34.0922C34.6587 30.218 36.2136 28.8383 37.8161 28.7526L37.8176 28.7511C39.4162 28.6683 41.0988 29.8729 41.916 32.6766C44.0643 40.0512 48.6051 44.5733 52.742 48.6745C52.9142 48.8436 53.0852 49.0131 53.2545 49.1824C57.5248 53.4234 61.236 57.3276 61.236 63.658Z" fill="#1A1A1A"/>
<path d="M40.7973 33.0029C40.8113 33.0495 40.8268 33.0929 40.8454 33.1364L44.6509 42.0082L42.5937 41.5114C42.0767 41.3872 41.5425 41.6277 41.2926 42.0966L39.2167 45.9906C39.063 46.281 38.6407 46.2608 38.5165 45.9565L36.2186 40.4105C36.0385 39.9758 35.6146 39.6917 35.1426 39.6917C34.0061 39.6917 33.1382 39.6917 32.0591 39.7926C32.3168 39.2787 32.604 38.6995 32.899 38.1002C33.8306 36.206 34.8973 33.9702 35.2 33.0371C35.2109 33.0045 35.2187 32.9719 35.2264 32.9393C35.7139 30.8153 36.9498 29.9645 37.8783 29.9148C38.7462 29.8698 40.0706 30.5094 40.7973 33.0029Z" fill="#678E79"/>
<path d="M37.8175 28.7511C39.4132 28.6683 41.0933 29.8708 41.9113 32.6675H41.9129C41.9137 32.6704 41.9135 32.6737 41.9144 32.6766H41.9159L45.7201 41.5497C45.8938 41.9547 45.824 42.4229 45.5397 42.7596C45.2553 43.0961 44.8051 43.2436 44.3767 43.1402L42.3207 42.6429L42.3192 42.6444L40.2435 46.5381C39.6293 47.6926 37.9417 47.6197 37.4399 46.4016L35.1428 40.8567C34.0026 40.8567 33.1854 40.8571 32.168 40.9523C31.7468 40.9916 31.3364 40.7994 31.0975 40.4504C30.8588 40.1011 30.8277 39.6489 31.0171 39.2707C31.2732 38.7602 31.56 38.1836 31.8541 37.5862L32.5667 36.1215C33.266 34.6656 33.8875 33.3036 34.0906 32.6781C34.6556 30.2168 36.2141 28.8383 37.816 28.7526L37.8175 28.7511ZM37.9388 31.077C37.6818 31.0918 36.7697 31.4166 36.3604 33.1997L36.3589 33.2088C36.3531 33.2332 36.3337 33.3099 36.3058 33.3953L36.3073 33.3968C35.9767 34.4155 34.8858 36.6916 33.9799 38.5354C34.3532 38.5305 34.7344 38.5278 35.1428 38.5278C36.0862 38.528 36.9343 39.0961 37.2944 39.9652L38.9622 43.9908L40.2647 41.5481C40.7323 40.6715 41.6988 40.1932 42.6679 40.3397L39.775 33.5955C39.7373 33.5076 39.7063 33.4221 39.6809 33.3377L39.6794 33.3286C39.0439 31.1475 38.0787 31.07 37.9388 31.077Z" fill="#1A1A1A"/>
<path d="M39.217 68.2726C39.217 69.5588 38.1743 70.6015 36.888 70.6015C35.6018 70.6015 34.5591 69.5588 34.5591 68.2726C34.5591 66.9863 35.6018 65.9436 36.888 65.9436C38.1743 65.9436 39.217 66.9863 39.217 68.2726Z" fill="#FFAFA3"/>
<path d="M38.0524 68.2727C38.0524 67.6296 37.5311 67.1082 36.888 67.1082C36.2448 67.1082 35.7235 67.6296 35.7235 68.2727C35.7235 68.9158 36.2448 69.4372 36.888 69.4372C37.5311 69.4372 38.0524 68.9158 38.0524 68.2727ZM40.3814 68.2727C40.3814 70.2021 38.8173 71.7661 36.888 71.7661C34.9586 71.7661 33.3945 70.2021 33.3945 68.2727C33.3945 66.3434 34.9586 64.7793 36.888 64.7793C38.8173 64.7793 40.3814 66.3434 40.3814 68.2727Z" fill="#D9D9D9"/>
<path d="M44.1192 62.1075C45.1439 62.1075 45.9747 62.9383 45.9747 63.963C45.9746 64.9876 45.1439 65.8184 44.1192 65.8184C43.0947 65.8183 42.2639 64.9875 42.2638 63.963C42.2638 62.9383 43.0946 62.1076 44.1192 62.1075ZM46.0265 57.1358C46.7844 56.7342 47.6951 56.8738 48.0606 57.4473C48.4259 58.021 48.1091 58.8119 47.3517 59.2139L47.3478 59.2159C47.3464 59.2166 47.3442 59.2186 47.3419 59.2198C47.336 59.2229 47.3255 59.2277 47.3145 59.2335C47.292 59.2454 47.2589 59.263 47.2169 59.2852C47.1313 59.3305 47.0074 59.397 46.8546 59.4776C46.5484 59.6392 46.1242 59.8618 45.6554 60.1075C44.7226 60.5963 43.5911 61.1849 42.8478 61.5557L42.7022 61.6202C41.9682 61.9162 41.1572 61.7381 40.837 61.1886C40.4955 60.6024 40.8423 59.8155 41.6114 59.4317L42.8937 58.7784C43.3729 58.5306 43.8814 58.2655 44.3487 58.0206C44.8133 57.7771 45.2335 57.5559 45.5372 57.3956L45.9933 57.1534C46.0042 57.1476 46.0131 57.1427 46.0187 57.1397L46.0265 57.1358Z" fill="#D9D9D9"/>
<path d="M28.6387 62.1072C27.614 62.1072 26.7833 62.938 26.7832 63.9626C26.7832 64.9874 27.6139 65.8181 28.6387 65.8181C29.6633 65.8181 30.4941 64.9873 30.4941 63.9626C30.494 62.9381 29.6632 62.1072 28.6387 62.1072ZM26.7324 57.1355C25.9742 56.7336 25.0627 56.8741 24.6973 57.448C24.332 58.0218 24.6495 58.8126 25.4072 59.2146L25.4101 59.2156C25.4115 59.2163 25.4137 59.2182 25.416 59.2195C25.4219 59.2226 25.4322 59.2272 25.4433 59.2331C25.4659 59.2451 25.4988 59.2626 25.541 59.2849C25.6266 59.3302 25.7503 59.3965 25.9033 59.4773C26.2095 59.6389 26.6336 59.8614 27.1025 60.1072C28.0354 60.596 29.1677 61.1846 29.9111 61.5554L30.0557 61.6199C30.7897 61.916 31.6007 61.7378 31.9209 61.1882C32.2621 60.602 31.9156 59.8151 31.1465 59.4314L29.8642 58.779C29.3849 58.5312 28.8765 58.2652 28.4092 58.0203C27.9446 57.7768 27.5244 57.5565 27.2207 57.3962L26.7646 57.1531C26.7538 57.1473 26.7448 57.1433 26.7392 57.1404C26.737 57.1392 26.7356 57.1372 26.7344 57.1365L26.7324 57.1355Z" fill="#D9D9D9"/>
</svg>
