<svg width="75" height="86" viewBox="0 0 75 86" fill="none" xmlns="http://www.w3.org/2000/svg">
<path d="M62.0866 49.2933C65.3144 49.2933 67.931 46.6772 67.931 43.4495C67.931 42.2665 67.9294 41.2387 67.4993 39.2902C67.0798 37.3899 66.2527 34.6077 64.6333 29.8647C63.802 27.4303 60.3701 27.4257 59.5358 29.8616C57.9183 34.586 57.0921 37.3697 56.6732 39.2763C56.2439 41.2294 56.2422 42.268 56.2422 43.4495C56.2422 46.6772 58.8588 49.2933 62.0866 49.2933Z" fill="#007BE5"/>
<path d="M55.0771 43.45C55.0771 42.2287 55.0802 41.0952 55.5351 39.0259C55.9691 37.0507 56.8149 34.2147 58.4343 29.4847C59.6288 25.9968 64.5458 26.0056 65.7353 29.4878L63.5306 30.2413C63.0573 28.8554 61.1118 28.8552 60.6375 30.2382C59.0221 34.9567 58.2134 37.6884 57.8096 39.5262C57.4058 41.363 57.4062 42.3084 57.4062 43.45C57.4065 46.0342 59.5013 48.1286 62.0856 48.1289C64.67 48.1289 66.7661 46.0344 66.7664 43.45C66.7664 42.3073 66.7659 41.3732 66.3616 39.5414C65.957 37.709 65.1481 34.979 63.5306 30.2413L65.7353 29.4878C67.3562 34.2354 68.2015 37.0715 68.6361 39.0395C69.0918 41.1043 69.0955 42.2268 69.0955 43.45C69.0952 47.3207 65.9563 50.4577 62.0856 50.4577C58.2151 50.4575 55.0775 47.3205 55.0771 43.45Z" fill="#1A1A1A"/>
<path d="M64.9017 36.0614C66.2068 40.7716 66.1591 43.4315 65.6957 44.7713C64.9006 47.0702 60.2836 48.1038 60.2836 46.2782C60.2838 44.6871 63.2015 46.135 64.1654 44.5701C65.3205 42.6963 65.0436 40.8506 64.9017 36.0614ZM61.347 30.4578C61.8318 30.6122 60.5909 39.8058 59.2777 39.6102C58.4741 39.4896 60.778 30.4578 61.347 30.4578Z" fill="#BDE3FF"/>
</svg>
