<svg width="24" height="24" viewBox="0 0 24 24" fill="none" xmlns="http://www.w3.org/2000/svg">
<mask id="mask0_26896_149528" style="mask-type:alpha" maskUnits="userSpaceOnUse" x="0" y="0" width="24" height="24">
<rect width="24" height="24" fill="#D9D9D9"/>
</mask>
<g mask="url(#mask0_26896_149528)">
<path d="M5.5 15.4C6.58333 15.2667 7.6625 15.1667 8.7375 15.1C9.8125 15.0333 10.9 15 12 15C13.1 15 14.1875 15.0333 15.2625 15.1C16.3375 15.1667 17.4167 15.2667 18.5 15.4L14 10L11.15 13.4L9.15 11L5.5 15.4ZM3 20C2.71667 20 2.47917 19.9042 2.2875 19.7125C2.09583 19.5208 2 19.2833 2 19V5C2 4.71667 2.09583 4.47917 2.2875 4.2875C2.47917 4.09583 2.71667 4 3 4C3.13333 4 3.42917 4.07917 3.8875 4.2375C4.34583 4.39583 4.95833 4.56667 5.725 4.75C6.49167 4.93333 7.39583 5.10417 8.4375 5.2625C9.47917 5.42083 10.6667 5.5 12 5.5C13.3333 5.5 14.5208 5.42083 15.5625 5.2625C16.6042 5.10417 17.5083 4.93333 18.275 4.75C19.0417 4.56667 19.6542 4.39583 20.1125 4.2375C20.5708 4.07917 20.8667 4 21 4C21.2833 4 21.5208 4.09583 21.7125 4.2875C21.9042 4.47917 22 4.71667 22 5V19C22 19.2833 21.9042 19.5208 21.7125 19.7125C21.5208 19.9042 21.2833 20 21 20C20.8667 20 20.5708 19.9208 20.1125 19.7625C19.6542 19.6042 19.0417 19.4333 18.275 19.25C17.5083 19.0667 16.6042 18.8958 15.5625 18.7375C14.5208 18.5792 13.3333 18.5 12 18.5C10.6667 18.5 9.47917 18.5792 8.4375 18.7375C7.39583 18.8958 6.49167 19.0667 5.725 19.25C4.95833 19.4333 4.34583 19.6042 3.8875 19.7625C3.42917 19.9208 3.13333 20 3 20ZM4 17.65C5.3 17.2667 6.62083 16.9792 7.9625 16.7875C9.30417 16.5958 10.65 16.5 12 16.5C13.35 16.5 14.6958 16.5958 16.0375 16.7875C17.3792 16.9792 18.7 17.2667 20 17.65V6.375C18.7 6.75833 17.3792 7.04167 16.0375 7.225C14.6958 7.40833 13.35 7.5 12 7.5C10.65 7.5 9.30417 7.40833 7.9625 7.225C6.62083 7.04167 5.3 6.75833 4 6.375V17.65Z" fill="#F5F5F7"/>
</g>
</svg>
