<svg width="75" height="86" viewBox="0 0 75 86" fill="none" xmlns="http://www.w3.org/2000/svg">
<path fill-rule="evenodd" clip-rule="evenodd" d="M19.8844 24.136C10.9611 24.0956 5.224 18.9179 2.47089 14.7043C1.61909 13.4017 2.16995 11.6985 3.55765 10.9921C15.8129 4.75088 21.7327 11.1117 24.0674 17.9149C26.402 11.1117 32.3219 4.75088 44.5771 10.9921C45.9647 11.6985 46.5156 13.4017 45.6638 14.7043C42.6569 19.306 36.09 25.0582 25.6999 24.0102L25.96 31.582C26.0056 32.9125 24.9397 34.0148 23.6087 34.0148C22.4678 34.0148 21.4913 33.1966 21.2921 32.0741L19.8844 24.136Z" fill="#14AE5C"/>
<path d="M19.8844 24.1359L21.0311 23.9326C20.9328 23.3783 20.4524 22.973 19.8897 22.9715L19.8844 24.1359ZM24.0674 17.9149L22.9659 18.2937C23.1274 18.7641 23.5699 19.0793 24.0674 19.0793C24.5649 19.0793 25.0074 18.7641 25.1689 18.2937L24.0674 17.9149ZM25.6999 24.0102L25.8168 22.852C25.4824 22.8178 25.1496 22.9311 24.9043 23.1609C24.6588 23.3907 24.5247 23.7152 24.5361 24.0505L25.6999 24.0102ZM19.8897 22.9715C11.4648 22.9327 6.05097 18.0546 3.4458 14.0677L1.496 15.3408C4.39706 19.781 10.4574 25.2584 19.8793 25.3003L19.8897 22.9715ZM3.4458 14.0677C3.0144 13.4078 3.24599 12.4577 4.08617 12.0291L3.02915 9.95495C1.09392 10.9393 0.223814 13.3939 1.496 15.3408L3.4458 14.0677ZM4.08617 12.0291C10.0046 9.01566 14.142 9.16164 17.0097 10.6024C19.9313 12.0711 21.8484 15.0364 22.9659 18.2937L25.1689 17.5376C23.9517 13.99 21.7416 10.3742 18.0558 8.52199C14.3161 6.64186 9.36594 6.72721 3.02915 9.95495L4.08617 12.0291ZM45.1056 9.95495C38.7687 6.72721 33.8187 6.64186 30.079 8.52199C26.3932 10.3742 24.1831 13.99 22.9659 17.5376L25.1689 18.2937C26.2862 15.0364 28.2035 12.0711 31.1251 10.6024C33.9928 9.16164 38.1301 9.01566 44.0486 12.0291L45.1056 9.95495ZM46.6388 15.3408C47.9109 13.3939 47.0408 10.9393 45.1056 9.95495L44.0486 12.0291C44.8887 12.4577 45.1204 13.4078 44.6889 14.0677L46.6388 15.3408ZM25.5831 25.1684C36.5259 26.2738 43.4679 20.194 46.6388 15.3408L44.6889 14.0677C41.8457 18.4195 35.654 23.844 25.8168 22.852L25.5831 25.1684ZM27.1239 31.5416L26.8638 23.9698L24.5361 24.0505L24.7961 31.6223L27.1239 31.5416ZM23.6087 35.1792C25.5985 35.1792 27.1921 33.5304 27.1239 31.5416L24.7961 31.6223C24.8192 32.293 24.2809 32.8504 23.6087 32.8504V35.1792ZM20.1456 32.2759C20.4434 33.9558 21.9031 35.1792 23.6087 35.1792V32.8504C23.0325 32.8504 22.5394 32.4374 22.4388 31.8707L20.1456 32.2759ZM18.7377 24.3393L20.1456 32.2759L22.4388 31.8707L21.0311 23.9326L18.7377 24.3393Z" fill="#1A1A1A"/>
<path d="M28.6906 18.0655C32.0416 15.6823 35.7922 14.077 38.7073 13.1222C39.5072 12.8598 39.4512 11.714 38.6094 11.7047C33.1375 11.6395 29.6116 14.5303 27.7173 17.2737C27.2607 17.9351 28.0357 18.5312 28.6906 18.0655Z" fill="#036838"/>
<path d="M17.8904 18.0655C14.5393 15.6823 10.7888 14.0754 7.87374 13.1222C7.07381 12.8598 7.12982 11.714 7.97147 11.7047C13.4434 11.6395 16.9693 14.5303 18.8636 17.2737C19.3203 17.9351 18.5453 18.5312 17.8904 18.0655Z" fill="#036838"/>
</svg>
