<svg width="75" height="86" viewBox="0 0 75 86" fill="none" xmlns="http://www.w3.org/2000/svg">
<path d="M21.9201 47.9256L21.7373 45.0192L27.0931 44.6823L27.2758 47.5902L24.6677 48.868L21.9201 47.9256Z" fill="#787878"/>
<path d="M27.0292 43.6786C27.2955 43.6619 27.5584 43.7509 27.7586 43.9273C27.9586 44.1036 28.0798 44.3525 28.0967 44.6186L28.2802 47.5266L27.2749 47.5888L27.2764 47.5903L28.2802 47.5266C28.3057 47.9325 28.0843 48.3148 27.7191 48.4939L25.1111 49.772C24.8712 49.8895 24.5934 49.9057 24.3408 49.8191L21.5932 48.8775L21.4552 48.8184C21.1898 48.6803 20.9997 48.4301 20.9367 48.1376L20.9154 47.989L20.7335 45.0826C20.6986 44.5282 21.1192 44.0503 21.6736 44.0152L27.0292 43.6786ZM22.8032 45.9589L22.8821 47.19L24.6001 47.7798L26.2286 46.9823L26.1513 45.7482L22.8032 45.9589Z" fill="#1A1A1A"/>
<ellipse cx="23.576" cy="36.4762" rx="15.2752" ry="15.2736" fill="url(#paint0_radial_9800_57726)"/>
<path d="M27.6005 44.8469L20.8927 45.544C20.6691 44.3812 20.7141 41.776 19.9536 40.6597C19.0029 39.264 15.5264 38.5653 15.5264 35.7739C15.5264 32.9824 18.8804 29.4938 23.2006 29.4938C27.5209 29.4938 31.6253 31.5867 31.6253 34.3781C31.6253 37.1696 28.2715 38.5653 27.6005 39.9611C27.0639 41.0774 27.6005 43.5645 27.6005 44.8469Z" fill="#FFE054"/>
<path d="M30.6198 34.3789C30.6198 33.5199 29.9763 32.5658 28.5439 31.7681C27.1473 30.9903 25.2134 30.5005 23.2004 30.5005C21.314 30.5006 19.6267 31.2623 18.4104 32.3396C17.1708 33.4377 16.5332 34.7546 16.5332 35.7737C16.5332 36.6609 17.0485 37.2719 17.9646 37.9191C18.4621 38.2706 18.8714 38.4995 19.4172 38.8622C19.8831 39.1717 20.4274 39.5685 20.785 40.0933C21.0704 40.5123 21.2468 41.0142 21.3657 41.4836C21.4872 41.9632 21.5654 42.4782 21.6235 42.9649C21.6815 43.4507 21.7219 43.9417 21.7599 44.3552C21.7626 44.3839 21.7649 44.4123 21.7675 44.4401L26.5363 43.9443C26.5319 43.8965 26.5291 43.8473 26.5242 43.7973C26.4837 43.3806 26.43 42.8916 26.3953 42.4145C26.3605 41.936 26.3404 41.4286 26.3695 40.9529C26.3979 40.4911 26.4775 39.9753 26.694 39.5247C26.9559 38.9803 27.4292 38.5154 27.8358 38.1465C28.3209 37.7066 28.7001 37.4099 29.1732 36.9624C30.0538 36.1295 30.6195 35.3363 30.6198 34.3789ZM32.6319 34.3789C32.6316 36.2122 31.5198 37.5125 30.5561 38.424C30.1071 38.8486 29.5208 39.3354 29.1884 39.6369C28.778 40.0091 28.5814 40.2433 28.5076 40.3965C28.4559 40.5039 28.4006 40.7189 28.3787 41.0773C28.3576 41.4218 28.3707 41.8261 28.4029 42.269C28.4353 42.7133 28.484 43.1566 28.5273 43.6017C28.5688 44.0287 28.6061 44.4706 28.6061 44.8464C28.6061 45.3618 28.2166 45.7938 27.7039 45.8471L20.9972 46.5445C20.478 46.5985 20.0025 46.246 19.904 45.7334C19.8373 45.3864 19.7953 44.9562 19.7569 44.5387C19.7167 44.102 19.6787 43.653 19.625 43.2029C19.5714 42.7541 19.505 42.3365 19.4142 41.9779C19.3206 41.6085 19.2163 41.3649 19.1216 41.2258C19.0036 41.0529 18.7572 40.8385 18.3043 40.5375C17.9311 40.2896 17.2932 39.9074 16.8031 39.5611C15.7433 38.8122 14.5195 37.678 14.5195 35.7737C14.5196 34.0015 15.5587 32.1782 17.076 30.8341C18.6167 29.4694 20.7669 28.4871 23.2004 28.4871C25.5076 28.4871 27.7863 29.0444 29.522 30.0108C31.2216 30.9573 32.6319 32.4464 32.6319 34.3789Z" fill="#E4981F"/>
<defs>
<radialGradient id="paint0_radial_9800_57726" cx="0" cy="0" r="1" gradientTransform="matrix(5.12431 13.7969 -13.7983 5.12377 23.576 36.4762)" gradientUnits="userSpaceOnUse">
<stop stop-color="#F7E922" stop-opacity="0.8"/>
<stop offset="0.865385" stop-color="#F7E922" stop-opacity="0"/>
</radialGradient>
</defs>
</svg>
