<svg width="75" height="86" viewBox="0 0 75 86" fill="none" xmlns="http://www.w3.org/2000/svg">
<path fill-rule="evenodd" clip-rule="evenodd" d="M6.21045 68.7662C6.21045 70.086 6.9776 71.1884 8.0202 71.5144C7.85406 71.9492 7.76308 72.415 7.76308 72.9118C7.76308 74.5732 8.81421 76.0015 10.29 76.5449C9.68368 77.2281 9.31571 78.1287 9.31571 79.1224C9.31571 81.265 11.0536 83.0039 13.1973 83.0039C13.9138 83.0039 14.585 82.8021 15.1611 82.476C15.9854 83.5163 17.1688 84.1684 18.4834 84.1684C19.7773 84.1684 20.9442 83.5318 21.7666 82.5226C21.9324 82.5382 22.0992 82.5537 22.2665 82.5847C23.1445 84.0131 24.584 84.9447 26.2107 84.9447C27.3924 84.9447 28.4753 84.4478 29.3159 83.6249C30.1565 84.4478 31.2393 84.9447 32.4212 84.9447C34.0099 84.9447 35.4198 84.0442 36.3028 82.6779C37.1856 84.0442 38.5956 84.9447 40.1844 84.9447C41.3661 84.9447 42.449 84.4478 43.2896 83.6249C44.1302 84.4478 45.213 84.9447 46.3949 84.9447C47.5766 84.9447 48.6596 84.4478 49.5001 83.6249C50.3407 84.4478 51.4235 84.9447 52.6054 84.9447C53.9734 84.9447 55.2089 84.277 56.0895 83.2212C56.4653 83.3299 56.8585 83.3921 57.2633 83.3921C58.9645 83.3921 60.461 82.3673 61.3245 80.8302C62.0106 81.2184 62.8076 81.4513 63.6578 81.4513C66.2304 81.4513 68.3157 79.3708 68.3157 76.7934C68.3157 76.4053 68.2685 76.0326 68.1795 75.6755C69.2134 74.8215 69.8683 73.5484 69.8683 72.1355C69.8683 70.94 69.4021 69.8532 68.6354 69.0303C69.4021 68.2074 69.8683 67.1205 69.8683 65.925C69.8683 64.2326 68.9326 62.7576 67.5323 61.9347C65.5551 55.2584 59.3783 50.3987 52.0646 50.3987H23.8932C15.9096 50.3987 9.28078 56.2055 7.99039 63.8133C6.90649 64.6673 6.21045 65.9871 6.21045 67.4776C6.21045 67.7105 6.22846 67.9589 6.26324 68.1762C6.22862 68.3781 6.21045 68.5644 6.21045 68.7662Z" fill="white"/>
<path d="M22.501 80.2565C23.134 80.3245 23.7102 80.6414 24.0991 81.1359L24.2537 81.3588L24.4615 81.6621C24.9691 82.3189 25.6148 82.6157 26.2112 82.6158V84.9447C24.5843 84.9446 23.1462 84.0136 22.269 82.5855C22.0982 82.5544 21.9302 82.5377 21.7625 82.5066L22.0673 80.2095C22.2754 80.225 22.3798 80.241 22.501 80.2565Z" fill="#1A1A1A"/>
<path d="M29.3104 83.6286C28.471 84.449 27.3907 84.9447 26.2112 84.9447V82.6158C26.7158 82.6158 27.2331 82.3985 27.691 81.9638L29.3104 83.6286Z" fill="#1A1A1A"/>
<path d="M30.9388 81.9638C31.3968 82.3985 31.9141 82.6157 32.4217 82.6158V84.9447C31.2402 84.9447 30.1574 84.4496 29.318 83.6286L30.9388 81.9638Z" fill="#1A1A1A"/>
<path d="M36.3033 80.349C37.0951 80.349 37.8338 80.7534 38.2623 81.421C38.7901 82.2436 39.5174 82.6157 40.1849 82.6158V84.9447C38.5966 84.9446 37.1852 84.0442 36.3033 82.678C35.4198 84.0442 34.01 84.9447 32.4217 84.9447V82.6158C33.0892 82.6158 33.8149 82.2436 34.3443 81.421L34.5187 81.1829C34.9577 80.6583 35.609 80.3491 36.3033 80.349Z" fill="#1A1A1A"/>
<path d="M43.2841 83.6286C42.4447 84.449 41.3644 84.9447 40.1849 84.9447V82.6158C40.6894 82.6158 41.2067 82.3985 41.6647 81.9638L43.2841 83.6286Z" fill="#1A1A1A"/>
<path d="M44.9125 81.9638C45.3705 82.3985 45.8878 82.6157 46.3954 82.6158V84.9447C45.2139 84.9447 44.1311 84.4496 43.2917 83.6286L44.9125 81.9638Z" fill="#1A1A1A"/>
<path d="M49.4946 83.6286C48.6552 84.449 47.5749 84.9447 46.3954 84.9447V82.6158C46.9 82.6158 47.4173 82.3985 47.8753 81.9638L49.4946 83.6286Z" fill="#1A1A1A"/>
<path d="M51.123 81.9638C51.581 82.3985 52.0983 82.6157 52.6059 82.6158V84.9447C51.4245 84.9447 50.3416 84.4496 49.5022 83.6286L51.123 81.9638Z" fill="#1A1A1A"/>
<path d="M54.295 81.7303C54.8881 81.0161 55.8465 80.7219 56.7362 80.9858C56.91 81.0324 57.0854 81.0631 57.2638 81.0632V83.3921C56.8587 83.3921 56.4644 83.3294 56.0872 83.2208C55.2069 84.2766 53.9738 84.9447 52.6059 84.9447V82.6158C53.1835 82.6158 53.792 82.3358 54.295 81.7303Z" fill="#1A1A1A"/>
<path d="M13.9797 80.4582C14.9198 79.9052 16.1097 80.0745 16.8484 80.8524L16.9909 81.0162L17.1638 81.2163C17.5781 81.6491 18.048 81.8395 18.4829 81.8395V84.1684L18.2373 84.1608C17.0212 84.0853 15.9352 83.4508 15.1623 82.4611C14.5849 82.8025 13.9159 83.0039 13.1973 83.0039V80.675C13.4766 80.675 13.7407 80.5978 13.9797 80.4582Z" fill="#1A1A1A"/>
<path d="M21.758 82.5112C20.9354 83.5329 19.7755 84.1683 18.4829 84.1684V81.8395C18.9717 81.8393 19.5021 81.6064 19.9521 81.048L21.758 82.5112Z" fill="#1A1A1A"/>
<path d="M27.691 81.9638C28.5946 81.0788 30.0352 81.0789 30.9388 81.9638L29.3149 83.6256L27.691 81.9638Z" fill="#1A1A1A"/>
<path d="M41.6647 81.9638C42.5683 81.0788 44.0089 81.0789 44.9125 81.9638L43.2886 83.6256L41.6647 81.9638Z" fill="#1A1A1A"/>
<path d="M47.8753 81.9638C48.7789 81.0788 50.2194 81.0789 51.123 81.9638L49.4992 83.6256L47.8753 81.9638Z" fill="#1A1A1A"/>
<path d="M61.3213 80.8206C60.4575 82.3696 58.9632 83.3921 57.2638 83.3921V81.0632C57.9733 81.0632 58.7646 80.6289 59.2941 79.6819L61.3213 80.8206Z" fill="#1A1A1A"/>
<path d="M7.99203 63.8129L9.43398 65.646C8.88283 66.0807 8.5394 66.7324 8.5394 67.4776C8.5394 67.5472 8.54123 67.6091 8.54546 67.6672L8.56366 67.8355L8.58488 68.0235C8.5982 68.2141 8.58793 68.4089 8.55304 68.5951L6.28323 68.1797L6.26049 68.1842L8.55304 68.5951C8.54528 68.6417 8.5394 68.7043 8.5394 68.7664C8.53943 68.9682 8.6002 69.1236 8.65918 69.2168C8.69038 69.2624 8.71516 69.2856 8.72741 69.2956L8.71831 69.2941C9.33301 69.4805 9.83986 69.9312 10.1208 70.5056C10.4002 71.0798 10.4293 71.747 10.1982 72.3523C10.1283 72.5387 10.092 72.7255 10.092 72.9118C10.092 73.4823 10.4089 73.9939 10.8896 74.2689L11.1064 74.372L11.3672 74.4857C11.9574 74.7885 12.3928 75.3344 12.5559 75.9868C12.7419 76.7318 12.548 77.5231 12.0374 78.0974L10.2982 76.5463L10.2967 76.5523L12.0374 78.0974C11.7889 78.3769 11.6447 78.7342 11.6447 79.1224C11.6447 79.9763 12.3402 80.675 13.1973 80.675V83.0039C11.0531 83.0039 9.31571 81.265 9.31571 79.1224C9.31571 78.1287 9.6881 77.2279 10.2967 76.5448C8.81876 76.0013 7.76308 74.5731 7.76308 72.9118C7.76308 72.415 7.85619 71.9486 8.02387 71.5139C7.0457 71.2081 6.30782 70.2204 6.21955 69.0106L6.21045 68.7664C6.21045 68.5647 6.22788 68.3783 6.262 68.1766C6.22784 67.9592 6.21045 67.7105 6.21045 67.4776C6.21045 65.9872 6.90847 64.6668 7.99203 63.8129Z" fill="#1A1A1A"/>
<path d="M22.0673 80.2095L21.7625 82.5066L19.9521 81.048C20.4629 80.4115 21.2631 80.1009 22.0673 80.2095Z" fill="#1A1A1A"/>
<path d="M62.4949 78.8115C62.8442 79.0134 63.2386 79.1224 63.6578 79.1224V81.4513C62.8082 81.4513 62.0145 81.2186 61.3289 80.816L62.4949 78.8115Z" fill="#1A1A1A"/>
<path d="M65.9868 76.7934C65.9868 76.7079 65.9808 76.6184 65.9686 76.525L65.9125 76.2339L65.8776 76.0702C65.7359 75.2513 66.0428 74.4131 66.6918 73.8747L68.1717 75.6744L68.1732 75.676C68.2632 76.0329 68.3157 76.4055 68.3157 76.7934C68.3157 79.3708 66.2305 81.4513 63.6578 81.4513V79.1224C64.9434 79.1224 65.9868 78.0821 65.9868 76.7934Z" fill="#1A1A1A"/>
<path d="M60.7087 78.5796C61.3111 78.4088 61.9546 78.4856 62.4949 78.8115L61.3258 80.8145L59.2941 79.6819C59.5983 79.1387 60.1082 78.735 60.7087 78.5796Z" fill="#1A1A1A"/>
<path d="M67.5394 72.1355C67.5394 71.5766 67.3212 71.048 66.9253 70.6132C66.0916 69.7282 66.0916 68.3323 66.9253 67.4473C67.3212 67.0126 67.5394 66.4839 67.5394 65.925C67.5394 65.2319 67.204 64.5745 66.6206 64.1298L66.3567 63.9539L66.1702 63.8341C65.752 63.5366 65.4421 63.1054 65.2954 62.6029L67.5227 61.9524L67.5258 61.9449C67.5263 61.9468 67.5282 61.949 67.5288 61.9509C68.929 62.7584 69.8683 64.2328 69.8683 65.925C69.8683 67.1205 69.3965 68.2074 68.6281 69.0303C69.3965 69.8531 69.8683 70.9401 69.8683 72.1355C69.8683 73.5466 69.2095 74.8175 68.1762 75.6714L66.6918 73.8747C67.2321 73.4244 67.5394 72.8032 67.5394 72.1355Z" fill="#1A1A1A"/>
<path d="M52.7469 50.4123C59.7591 50.7045 65.6099 55.4785 67.5258 61.9418L65.2954 62.6029C63.603 56.8893 58.3185 52.7278 52.0646 52.7276H23.8929C17.0648 52.7279 11.3932 57.6959 10.2891 64.201C10.1929 64.7755 9.88735 65.2889 9.43398 65.646L7.99203 63.8129C9.28248 56.2054 15.9097 50.3989 23.8929 50.3987H52.0646L52.7469 50.4123Z" fill="#1A1A1A"/>
<path d="M36.8709 30.2144C52.6266 30.2144 64.9571 41.9056 70.8079 48.7217C73.3037 51.6251 73.8105 55.6309 72.5866 59.264L71.7398 61.7793C70.6694 64.9622 67.2721 66.7012 64.1316 65.5367C55.2847 62.2296 45.9853 57.8823 37.1085 57.8823C29.261 57.8823 19.5155 62.5091 10.7939 65.7075C7.78672 66.8099 4.54747 65.1951 3.38641 62.2141L2.26463 59.3262C0.839782 55.662 1.21629 51.532 3.7283 48.5198C9.41838 41.6727 21.2732 30.2144 36.8709 30.2144Z" fill="#FC9E24"/>
<path d="M59.6396 38.3459C60.678 39.0962 61.6701 39.8677 62.6133 40.6467C62.939 42.0238 63.2628 43.6118 63.5576 45.175C64.4548 49.936 63.901 54.8684 62.2314 58.9426L60.1572 63.9866C59.3887 63.6851 58.617 63.3825 57.8438 63.0803L59.9326 58.0012C61.4188 54.3747 61.9251 49.9296 61.1162 45.636C60.5303 42.5292 59.8931 39.6613 59.4014 38.4426L59.6396 38.3459ZM7.85645 43.9954C8.32244 44.3173 8.79326 44.6514 9.25488 44.9875L9.76367 45.3782C12.2454 47.3925 13.8352 50.298 14.4951 53.5022L16.4941 63.2385L14.2119 63.7053L12.2139 53.9709C11.6446 51.2075 10.2979 48.8101 8.29395 47.1838L7.88477 46.8704C7.32641 46.4637 6.76256 46.065 6.2168 45.6936C6.73368 45.1385 7.28063 44.5706 7.85645 43.9954ZM22.3711 38.3098C24.9098 40.686 26.3334 44.0026 26.6621 47.5559L27.751 59.3303C26.8743 59.592 25.9892 59.8765 25.0996 60.1809L23.957 47.8069C23.6791 44.8026 22.4899 42.1439 20.5137 40.2942L22.3711 38.3098ZM48.9082 32.4778C49.9678 32.876 51.0018 33.3173 52.0088 33.7942C52.4929 35.9431 53.0196 38.5533 53.4658 41.0403C54.3778 46.1255 53.3889 51.2146 51.1582 55.0823L48.4795 59.7297C47.5782 59.4564 46.6778 59.2035 45.7793 58.9758L48.8037 53.7268C50.7102 50.4216 51.5923 45.9825 50.792 41.5198C50.1897 38.1628 49.4645 34.702 48.9082 32.4778ZM38.2021 35.1721C40.4905 39.7511 41.2844 45.1863 40.3281 49.9739L38.7607 57.8049C38.1459 57.7648 37.5329 57.7424 36.9229 57.7424C36.5903 57.7424 36.2547 57.7533 35.916 57.7698L37.5859 49.425C38.4126 45.2852 37.7299 40.4816 35.7012 36.4221C34.7317 34.4825 33.6809 32.3832 32.7314 30.4846C33.7148 30.3565 34.7153 30.273 35.7324 30.2366C36.542 31.8557 37.4006 33.5684 38.2021 35.1721ZM19.0146 35.2961C20.1246 36.2445 21.2919 37.2991 22.3711 38.3098L21.4414 39.301L20.5137 40.2942L19.4639 39.3225C18.493 38.4356 17.4984 37.5618 16.5811 36.8C17.3679 36.2795 18.1802 35.7777 19.0146 35.2961Z" fill="#FFC470"/>
<path d="M36.8715 30.2144C52.6259 30.2146 64.9551 41.9045 70.8065 48.7231C73.3022 51.6282 73.8103 55.6291 72.5866 59.2625L71.7405 61.778L70.3441 61.3079L71.739 61.7795C70.6723 64.9365 67.2942 66.6995 64.1093 65.655C63.8724 65.5822 63.6352 65.5067 63.4088 65.4336C63.1795 65.3596 62.9589 65.2895 62.7401 65.2229L62.7159 65.2138L63.0798 64.1084L63.0873 64.0857L62.7159 65.2138C54.2181 62.4208 45.2773 59.4977 36.8715 59.4975C32.9549 59.4975 28.6062 60.3659 24.1594 61.5975L24.1578 61.596C20.8022 62.5346 17.3746 63.6606 14.0354 64.7634L10.8316 65.8218C7.78357 66.812 4.54734 65.1904 3.38684 62.2177L4.47247 61.7946L4.68626 61.7112L3.38684 62.2177L2.26482 59.3292C0.840139 55.6635 1.2171 51.5367 3.72951 48.5199C9.42028 41.671 21.2747 30.2144 36.8715 30.2144ZM36.8715 32.5433C22.3864 32.5433 11.134 43.2504 5.51868 50.0089L4.988 49.5677L4.78179 49.3963L5.51868 50.0089C3.6348 52.2709 3.26478 55.4743 4.43457 58.4847L5.55659 61.3716L5.70821 61.7112C6.53635 63.3561 8.39939 64.1625 10.1114 63.6065C11.1578 63.2661 12.2193 62.9115 13.3046 62.5528C16.6397 61.4512 20.1185 60.3089 23.5347 59.3535H23.5377C28.0595 58.1011 32.6442 57.1686 36.8715 57.1686C45.72 57.1687 55.0301 60.2363 63.4437 63.0016C63.6753 63.0724 63.9047 63.1459 64.1245 63.2169L64.7931 63.4291L64.8052 63.4337L64.8189 63.4382C66.7571 64.0832 68.861 63.0223 69.5329 61.0335L70.379 58.5196C71.3202 55.7253 70.9722 52.8174 69.3767 50.6624L69.0416 50.2409C63.2535 43.4957 51.5259 32.5436 36.8715 32.5433Z" fill="#1A1A1A"/>
<path d="M47.2043 33.0711C47.1461 33.2606 47.0672 33.4391 46.9749 33.6052C46.5109 34.439 45.2246 35.0927 44.2427 35.1206C41.2616 35.206 39.4521 31.0791 41.8257 29.3805C41.8914 29.3339 41.9543 29.2936 42.0131 29.261C42.425 29.0949 42.8073 28.9893 43.1599 28.9318C45.3755 28.5747 47.8468 30.9751 47.2043 33.0711Z" fill="#FF5C16"/>
<path d="M43.0125 28.0123C44.4906 27.7743 45.9477 28.4544 46.9137 29.424C47.8762 30.39 48.5511 31.8568 48.0949 33.345C48.0156 33.6029 47.9091 33.8409 47.7886 34.0576C47.4405 34.6832 46.8393 35.1636 46.2451 35.4844C45.7189 35.7684 45.111 35.9749 44.5211 36.0348L44.2694 36.0515C42.3103 36.1075 40.8112 34.7839 40.1695 33.2858C39.5263 31.7837 39.6359 29.8028 41.2839 28.6234L41.287 28.6204L41.8025 29.3497L41.8131 29.3633L41.287 28.6204C41.3733 28.5591 41.4656 28.4991 41.5614 28.446L41.6645 28.3975C42.1349 28.2078 42.5847 28.0818 43.0109 28.0123L43.1156 28.6613L43.1322 28.7614L43.0125 28.0123ZM43.3081 29.85L43.3096 29.8515C43.0481 29.8942 42.7541 29.9716 42.4272 30.0987C42.4098 30.1097 42.3876 30.1225 42.3635 30.1396C41.6413 30.6592 41.4704 31.5906 41.8829 32.5535C42.2979 33.5218 43.1947 34.2188 44.2164 34.1895C44.5322 34.1805 44.958 34.0629 45.3611 33.8453C45.7711 33.624 46.0442 33.3605 46.1602 33.1524C46.2243 33.037 46.2762 32.9183 46.3133 32.7976L46.3634 32.5626C46.4332 31.9965 46.1778 31.3238 45.5946 30.7385C44.9319 30.0734 44.0453 29.7313 43.3081 29.85Z" fill="#1A1A1A"/>
<path d="M32.1455 37.6483C31.9733 37.5148 31.8233 37.3626 31.6935 37.2027C31.0223 36.3767 30.9708 34.8272 31.4641 33.8941C32.7936 31.3819 37.0371 31.6691 37.7552 34.4374C37.7909 34.5756 37.8103 34.6999 37.8166 34.807C37.7859 35.293 37.6993 35.709 37.574 36.0677C36.8657 38.0861 33.8467 38.982 32.1455 37.6483Z" fill="#FF5C16"/>
<path d="M34.9129 31.2575C36.4136 31.376 37.9662 32.2205 38.5534 33.8639L38.6565 34.2036L37.6512 34.4644L38.658 34.2051C38.6822 34.2989 38.7022 34.3916 38.7171 34.4826L38.7474 34.7525L38.7459 34.8662C38.7103 35.4294 38.6089 35.9295 38.4533 36.3748L37.8665 36.1701L37.3813 36.0003L38.4533 36.3748C37.9753 37.7367 36.7584 38.6377 35.4936 39.0085C34.2287 39.3792 32.7187 39.2781 31.5741 38.3823C31.4565 38.2911 31.3484 38.1954 31.2481 38.0958L30.9706 37.7895C30.4741 37.1782 30.2549 36.3747 30.2125 35.6425C30.1699 34.9059 30.2973 34.1078 30.6401 33.4591L32.2882 34.3294C32.138 34.6137 32.0453 35.0571 32.0729 35.5348C32.1008 36.0169 32.2428 36.4013 32.4171 36.6159C32.5079 36.7277 32.6076 36.8275 32.7158 36.9116L32.0957 37.7106L32.1457 37.6485L32.7158 36.9116L32.7204 36.9146C33.2765 37.3506 34.1246 37.4689 34.9705 37.2209C35.8172 36.9726 36.464 36.4155 36.6944 35.7592C36.7836 35.5038 36.8501 35.1956 36.8794 34.8207C36.8747 34.7829 36.8693 34.7329 36.8536 34.6721L36.8036 34.5068C36.5172 33.7005 35.7342 33.1913 34.7658 33.1149C33.7279 33.0331 32.74 33.4764 32.2882 34.3294L30.6401 33.4591C31.518 31.8005 33.3174 31.1317 34.9129 31.2575Z" fill="#1A1A1A"/>
<path d="M38.4175 37.6451C38.2453 37.51 38.0954 37.3579 37.9656 37.198C37.2942 36.372 37.2428 34.8225 37.7361 33.8894C39.0654 31.3772 43.3091 31.666 44.0272 34.4328C44.0629 34.5709 44.0823 34.6951 44.0887 34.8023C44.0579 35.2882 43.9713 35.7044 43.846 36.063C43.1377 38.083 40.1187 38.9788 38.4175 37.6451Z" fill="#FF5C16"/>
<path d="M41.1848 31.2534C42.7854 31.38 44.4441 32.3333 44.9284 34.1995L43.1256 34.6665C42.8918 33.7664 42.0705 33.1925 41.0378 33.1108C39.9996 33.0288 39.0117 33.4722 38.5602 34.3253L37.1532 33.5809L37.7369 33.8902L38.5602 34.3253C38.41 34.6097 38.3173 35.0532 38.3449 35.5308C38.3729 36.0125 38.5148 36.3958 38.6891 36.6103C38.7798 36.7221 38.8808 36.8245 38.9924 36.9121L39.2137 37.0606C39.7601 37.372 40.5023 37.4355 41.2425 37.2183C42.0889 36.97 42.7358 36.4122 42.9664 35.7552L43.0331 35.5399C43.0895 35.3311 43.1298 35.0917 43.1514 34.8166C43.1467 34.7786 43.1415 34.7281 43.1256 34.6665L44.9284 34.1995C44.9771 34.388 45.009 34.5721 45.0194 34.7469C45.0217 34.7847 45.0203 34.8228 45.0179 34.8606C44.9911 35.2835 44.9274 35.6713 44.8314 36.0266L44.7253 36.3708C44.2475 37.7333 43.032 38.6348 41.7671 39.006C40.5801 39.3542 39.1757 39.287 38.0614 38.5375L37.843 38.3783C37.7268 38.2871 37.6184 38.191 37.5186 38.0917L37.2426 37.7854C36.746 37.1742 36.5269 36.3706 36.4845 35.6384C36.4419 34.9016 36.5691 34.1023 36.9121 33.4535C37.79 31.7949 39.5895 31.1274 41.1848 31.2534Z" fill="#1A1A1A"/>
<path d="M34.8221 33.0105C34.5722 32.8956 34.3526 32.7559 34.1609 32.6022C33.0813 31.7296 32.9646 29.7624 33.8018 28.6756C35.5171 26.446 39.4066 26.5967 40.6619 29.1383C40.8093 29.438 40.8776 29.7065 40.8911 29.9084C40.8434 30.5496 40.6836 31.0728 40.4573 31.4951C39.471 33.335 36.7399 33.8893 34.8221 33.0105Z" fill="#FF5C16"/>
<path d="M37.4572 26.187C39.0617 26.2786 40.6901 27.0932 41.4965 28.7252L41.498 28.7268L41.6254 29.0179C41.7375 29.3064 41.8037 29.5881 41.821 29.8457C41.8239 29.8895 41.8227 29.934 41.8195 29.9777L40.8915 29.9079H40.8839L41.8195 29.9777C41.763 30.7371 41.5712 31.3884 41.2782 31.9351C40.63 33.1442 39.4437 33.8715 38.2123 34.1761C36.981 34.4807 35.6013 34.3926 34.4339 33.8577L35.2102 32.1641C35.9604 32.5077 36.905 32.5815 37.765 32.3688C38.6251 32.156 39.2979 31.6862 39.6361 31.0557C39.7869 30.7743 39.9057 30.4053 39.9515 29.9246C39.9389 29.8488 39.9079 29.7193 39.8256 29.5516L39.7361 29.3848C39.2585 28.5772 38.366 28.1054 37.3511 28.0475C36.2634 27.9854 35.1805 28.4112 34.54 29.2438L34.4505 29.3742C34.2569 29.6976 34.1519 30.1571 34.1913 30.6448C34.2364 31.2029 34.4574 31.644 34.7462 31.8775H34.7447C34.8797 31.9855 35.0342 32.0831 35.2102 32.1641L34.4323 33.8577C34.1095 33.7093 33.825 33.5272 33.5772 33.3285L33.5757 33.327C32.7852 32.6881 32.4079 31.7098 32.3339 30.7949C32.2599 29.879 32.4747 28.8706 33.0632 28.1066H33.0647C34.1396 26.7106 35.858 26.0958 37.4572 26.187Z" fill="#1A1A1A"/>
<path d="M27.8491 35.1299C27.6771 34.9948 27.5269 34.8427 27.3971 34.6828C26.7259 33.8568 26.6744 32.3072 27.1677 31.3741C28.4972 28.8619 32.7407 29.1507 33.4588 31.9191C33.4945 32.0557 33.5141 32.1815 33.5203 32.287C33.4895 32.773 33.4029 33.1907 33.2776 33.5478C32.5693 35.5678 29.5503 36.4636 27.8491 35.1299Z" fill="#FF5C16"/>
<path d="M30.6164 28.7384C32.2165 28.8651 33.8734 29.8178 34.3585 31.6829H34.36C34.4094 31.8717 34.4408 32.0586 34.451 32.2318C34.4532 32.2695 34.4519 32.3078 34.4495 32.3455C34.4139 32.9079 34.3129 33.4107 34.1569 33.8557C33.6791 35.2182 32.4636 36.1197 31.1987 36.4909C29.9327 36.8623 28.4197 36.7608 27.2747 35.8632C27.1587 35.7721 27.05 35.6759 26.9502 35.5766L26.6742 35.2703C26.1774 34.6589 25.9585 33.8542 25.9161 33.1218C25.8736 32.3852 26.0008 31.5871 26.3437 30.9384L26.5196 30.6382C27.4465 29.1987 29.1208 28.62 30.6164 28.7384ZM30.4694 30.5958C29.4313 30.5136 28.4434 30.9571 27.9918 31.8103C27.8417 32.0946 27.7489 32.5382 27.7765 33.0157C27.8045 33.4974 27.9464 33.8808 28.1207 34.0952C28.2112 34.2067 28.3122 34.3091 28.424 34.397L28.6453 34.5456C29.1917 34.8569 29.9339 34.9204 30.6741 34.7033C31.5205 34.4549 32.1674 33.8971 32.398 33.2401C32.4866 32.9877 32.5535 32.6782 32.583 32.3031C32.5784 32.2654 32.5729 32.2145 32.5572 32.1545V32.1529C32.3234 31.2518 31.5019 30.6776 30.4694 30.5958Z" fill="#1A1A1A"/>
<path d="M40.1247 69.6453C40.7677 69.6454 41.2892 70.1667 41.2892 70.8097C41.2892 71.4528 40.7677 71.9741 40.1247 71.9742H35.391C34.7479 71.9742 34.2266 71.4529 34.2266 70.8097C34.2266 70.1666 34.7479 69.6453 35.391 69.6453H40.1247Z" fill="#1A1A1A"/>
<path d="M47.0227 69.4956C47.5233 70.0323 48.4019 70.0948 48.985 69.634C49.5679 69.1732 49.6339 68.3644 49.1336 67.8277C47.6098 66.1938 45.848 65.7167 44.2215 66.003C42.7257 66.2665 41.5541 67.137 40.9129 67.8344C40.4164 68.3743 40.4894 69.182 41.076 69.639C41.6626 70.096 42.54 70.0288 43.0365 69.4889C43.4048 69.0883 44.0552 68.6414 44.7433 68.5199C45.301 68.4216 46.0872 68.4925 47.0227 69.4956Z" fill="#1A1A1A"/>
<path d="M31.4963 69.4956C31.9969 70.0323 32.8755 70.0948 33.4586 69.634C34.0415 69.1732 34.1075 68.3644 33.6072 67.8277C32.0834 66.1938 30.3216 65.7167 28.6951 66.003C27.1993 66.2665 26.0277 67.137 25.3866 67.8344C24.8901 68.3743 24.963 69.182 25.5496 69.639C26.1362 70.096 27.0136 70.0288 27.5101 69.4889C27.8785 69.0883 28.5288 68.6414 29.2169 68.5199C29.7747 68.4216 30.5609 68.4925 31.4963 69.4956Z" fill="#1A1A1A"/>
</svg>
