<svg width="75" height="86" viewBox="0 0 75 86" fill="none" xmlns="http://www.w3.org/2000/svg">
<path d="M18.0695 36.0521C19.9016 30.8663 34.3597 28.2424 41.359 27.5903C42.1788 28.584 43.8168 31.5495 43.8168 35.3535C43.8168 40.1045 58.5295 38.1793 59.4347 41.564C60.1582 44.2656 58.0373 46.8274 56.8853 47.7745C58.8633 48.0074 63.0632 49.3738 64.0398 53.0224C65.0164 56.6711 63.5119 60.3509 62.6378 61.7482C64.6407 63.5803 68.6449 64.4809 68.6449 69.5114C68.6449 73.5327 65.3689 80.4575 56.0314 82.9572C48.5601 84.9601 41.0671 83.1124 38.2537 81.9324C28.7268 83.0969 9.07201 83.1745 6.65611 74.1693C4.24177 65.1485 12.2238 59.0311 16.5169 57.0903C14.4472 56.8574 10.3063 55.2893 10.3063 50.8798C10.3063 46.4703 15.4813 44.9022 18.0695 44.6693C17.3056 43.9551 16.2374 41.2534 18.0695 36.0521Z" fill="#C5B2DC"/>
<path d="M17.7651 43.1318C19.1936 45.0105 22.8023 48.1314 26.7476 49.7461C28.1416 50.3052 28.7372 52.6805 27.52 53.5654L22.9917 56.8574C20.7947 59.2174 16.4 64.7602 16.3999 68.0518C16.3999 79.4015 38.5562 74.1851 38.5562 79.1846C38.5558 82.8794 32.1784 82.7862 29.6196 83.0967L12.5015 80.3174L6.21045 74.4023L7.59814 64.3105L15.7407 57.6494L10.8374 53.8604V47.8369L18.7075 44.6074L17.7651 43.1318ZM62.0757 49.249L64.7261 52.8516L64.2017 60.5215C63.843 60.8631 62.1268 60.9255 59.2886 62.5713C55.7407 64.6052 46.5786 64.7757 46.5786 61.6084C46.5791 58.4412 59.6831 59.2016 59.6831 55.584C59.683 52.6962 58.0419 49.1717 57.2222 47.7744L62.0757 49.249Z" fill="#7F699B"/>
<path d="M67.4803 69.5113C67.4803 67.3861 66.6682 66.2094 65.6305 65.3113C65.0781 64.8333 64.4595 64.4342 63.7928 64.0074C63.158 63.6009 62.4408 63.1463 61.852 62.6079C61.4376 62.2287 61.3527 61.6073 61.6504 61.131C62.433 59.8799 63.7755 56.5399 62.9149 53.3239C62.5319 51.8928 61.5068 50.8539 60.2524 50.1231C58.9918 49.3888 57.6053 49.0322 56.7499 48.9314C56.2863 48.8768 55.8988 48.5499 55.7673 48.102C55.6362 47.6542 55.786 47.1716 56.1464 46.8753C56.6209 46.4852 57.3334 45.7231 57.8355 44.7799C58.3362 43.8393 58.5694 42.8346 58.3101 41.8657C58.3075 41.8563 58.267 41.727 57.925 41.5306C57.575 41.3297 57.0469 41.1399 56.3344 40.965C54.9025 40.6137 53.0704 40.3986 51.1231 40.1235C49.2432 39.8579 47.2457 39.534 45.7086 38.9378C44.2212 38.3608 42.6519 37.3133 42.6519 35.3534C42.6519 34.4132 42.6927 33.4122 42.7019 32.6378C42.7117 31.8082 42.6909 31.1199 42.5942 30.5469C42.4986 29.98 42.3402 29.6025 42.1318 29.3415C41.9527 29.1174 41.6774 28.9072 41.1947 28.7562C37.2295 28.7778 32.067 29.5729 27.6729 30.9851C25.4467 31.7006 23.4648 32.5602 21.9506 33.5248C20.412 34.5051 19.4979 35.5024 19.1668 36.4375C18.2941 38.9152 18.1411 40.7212 18.2555 41.9339C18.3736 43.1845 18.7642 43.7243 18.8651 43.8186C19.2003 44.1321 19.3205 44.6141 19.1713 45.0483C19.022 45.4823 18.6308 45.788 18.1736 45.8291L17.7097 45.8837C16.5693 46.0452 15.0665 46.455 13.8175 47.2059C12.4131 48.0502 11.4703 49.2218 11.4703 50.8797C11.4703 52.6576 12.2819 53.8287 13.3353 54.6203C14.4295 55.4425 15.7727 55.8349 16.6468 55.9334C17.1675 55.992 17.5854 56.3908 17.6672 56.9083C17.7488 57.4261 17.4746 57.9356 16.997 58.1516L16.6089 58.3336C14.6255 59.3022 11.9542 61.1376 9.99504 63.6844C7.92819 66.3714 6.69007 69.7895 7.78133 73.8675C8.2732 75.7008 9.65977 77.1675 11.8206 78.3176C13.9878 79.4711 16.8235 80.2428 19.9613 80.7133C26.231 81.6534 33.4144 81.3512 38.1122 80.777L38.2639 80.7679C38.4145 80.7692 38.5637 80.8003 38.7036 80.8589C41.3523 81.9698 48.5751 83.7501 55.7294 81.8323L56.3329 84.0824C48.7877 86.1051 41.2667 84.367 38.0971 83.1211C33.2649 83.6881 26.0258 83.9777 19.6156 83.0165C16.3474 82.5264 13.221 81.7017 10.7259 80.3737C8.38051 79.1253 6.49609 77.3756 5.67982 74.9622L5.53122 74.4709C4.20844 69.5286 5.75461 65.3771 8.14826 62.2652C9.73099 60.2076 11.6999 58.5778 13.5127 57.4147C12.9787 57.1663 12.4408 56.8617 11.9358 56.4822C10.4014 55.3292 9.1414 53.5113 9.1414 50.8797C9.1414 48.1285 10.7868 46.3109 12.6166 45.2105C13.7923 44.5037 15.1028 44.0522 16.2647 43.7868C16.1091 43.3081 15.9946 42.7607 15.9372 42.1522C15.7847 40.5354 16.0121 38.389 16.9713 35.6658C17.5567 34.0086 18.986 32.6516 20.6997 31.5598C22.4387 30.452 24.6219 29.5199 26.9603 28.7684C31.6357 27.2658 37.1205 26.4259 41.3585 26.4258C41.4601 26.4258 41.5621 26.439 41.6602 26.4652C42.6296 26.7245 43.3973 27.1953 43.9513 27.889C44.4921 28.5662 44.7557 29.3651 44.8898 30.1603C45.023 30.9497 45.0395 31.8111 45.0293 32.6651C45.0185 33.5743 44.9808 34.3917 44.9808 35.3534C44.9808 35.7689 45.2522 36.2625 46.5516 36.7666C47.8012 37.2511 49.5381 37.5473 51.4491 37.8173C53.2926 38.0778 55.3083 38.3149 56.8894 38.7028C57.6833 38.8976 58.4556 39.1492 59.0834 39.5094C59.7082 39.868 60.3344 40.4188 60.5602 41.2622L60.636 41.5867C60.9646 43.1974 60.5165 44.7006 59.8915 45.8746C59.6573 46.3146 59.3884 46.7207 59.1122 47.0891C59.8582 47.3298 60.6563 47.6636 61.4244 48.1111C63.0086 49.0339 64.5715 50.5044 65.165 52.722C66.0817 56.1477 65.0509 59.528 64.1264 61.4388C64.3989 61.6288 64.706 61.8252 65.0498 62.0453C65.6971 62.4598 66.4554 62.9446 67.1543 63.5494C68.6193 64.8172 69.8093 66.6062 69.8093 69.5113C69.8093 74.075 66.1646 81.4503 56.3329 84.0824L55.7294 81.8323C64.5721 79.4648 67.4803 72.9901 67.4803 69.5113Z" fill="#1A1A1A"/>
<path d="M41.1306 57.0342H34.8306L37.9806 62.1092L41.1306 57.0342Z" fill="#FFAFA3"/>
<path d="M41.131 55.9087C41.5173 55.9089 41.8725 56.1379 42.0548 56.5038C42.2369 56.8696 42.2171 57.3135 42.003 57.6587L38.8521 62.7345C38.6576 63.0472 38.3302 63.2357 37.9801 63.2357C37.6299 63.2356 37.3024 63.0473 37.1081 62.7345L33.9585 57.6587C33.7442 57.3134 33.7245 56.8697 33.9067 56.5038C34.0891 56.1377 34.444 55.9087 34.8305 55.9087H41.131ZM37.9801 60.0786L39.1727 58.16H36.7888L37.9801 60.0786Z" fill="#1A1A1A"/>
<path d="M30.1447 56.2274C30.8339 57.0301 32.0433 57.1235 32.846 56.4344C33.6484 55.7454 33.7393 54.5358 33.0505 53.7332C30.9529 51.2898 28.5277 50.5763 26.2887 51.0045C24.2296 51.3985 22.6169 52.7003 21.7342 53.7432C21.0508 54.5507 21.1512 55.7585 21.9587 56.4419C22.7662 57.1254 23.974 57.0249 24.6575 56.2175C25.1645 55.6183 26.0598 54.95 27.007 54.7683C27.7748 54.6214 28.857 54.7275 30.1447 56.2274Z" fill="#1A1A1A"/>
<path d="M50.3352 56.2269C51.0243 57.0296 52.2337 57.123 53.0364 56.434C53.8388 55.7449 53.9297 54.5354 53.2409 53.7327C51.1433 51.2893 48.7181 50.5758 46.4791 51.004C44.4201 51.398 42.8073 52.6998 41.9247 53.7427C41.2412 54.5502 41.3417 55.758 42.1492 56.4414C42.9567 57.1249 44.1644 57.0244 44.8479 56.217C45.3549 55.6179 46.2502 54.9495 47.1974 54.7678C47.9652 54.6209 49.0475 54.727 50.3352 56.2269Z" fill="#1A1A1A"/>
</svg>
