<svg width="75" height="86" viewBox="0 0 75 86" fill="none" xmlns="http://www.w3.org/2000/svg">
<path d="M6.39742 71.865V31.7016C6.27325 30.7607 6.48048 28.8789 8.30267 28.8789C10.5804 28.8789 14.6489 32.5353 14.6489 37.1358H18.0576C18.6593 33.8458 21.522 28.8789 24.2037 28.8789C27.5559 28.8789 26.0087 39.5486 26.0087 40.5749C26.0087 41.3962 27.1559 41.758 27.4998 43.0824L61.7366 62.1828C61.7366 67.7832 71.6079 72.0917 71.6079 73.9099C71.6079 75.3631 67.1385 75.6861 64.9038 75.6659C66.7691 76.6145 70.5 78.9978 70.5 80.9371C70.5 83.3607 66.3027 84.7736 62.8635 84.7736C59.4241 84.7736 52.4289 82.7537 50.9716 82.7537C49.5143 82.7537 43.9181 84.8777 37.0395 84.8777C30.1609 84.8777 19.7846 80.9371 18.8184 80.9371C17.8521 80.9371 8.91145 86.9163 3.29219 84.8777C1.82656 84.3451 5.04683 75.0619 6.39742 71.865Z" fill="#FCD19C"/>
<path d="M66.2777 51.8828C66.2777 57.0887 63.7287 59.6987 61.0824 62.7776C62.5333 65.4108 61.6992 73.6972 45.9535 73.6972C30.2078 73.6972 23.4766 66.1887 23.4766 54.8607C23.4766 43.5343 32.312 34.352 43.2111 34.352C54.1105 34.352 66.2777 40.5563 66.2777 51.8828Z" fill="#FF5C16"/>
<path fill-rule="evenodd" clip-rule="evenodd" d="M23.5285 30.902C23.5285 30.902 23.5377 30.9114 23.5535 30.9417C23.5359 30.9191 23.5285 30.902 23.5285 30.902Z" fill="#1A1A1A"/>
<path fill-rule="evenodd" clip-rule="evenodd" d="M30.4629 40.4881C26.8643 44.0576 24.6408 49.4861 24.6408 56.921C24.6408 62.6275 27.2567 66.2044 30.5333 68.4206C33.8664 70.6749 37.9069 71.5257 40.5895 71.6047C41.2324 71.6237 41.7382 72.1601 41.7192 72.803C41.7003 73.4458 41.1638 73.9516 40.521 73.9327C37.5106 73.844 33.0116 72.9085 29.2285 70.3497C25.3889 67.7527 22.3118 63.4896 22.3118 56.921C22.3118 51.6467 23.369 47.1861 25.3004 43.5831C25.6814 42.8724 26.0963 42.1951 26.5439 41.5515C27.2288 40.5666 27.9902 39.6605 28.8228 38.8346C32.9537 34.7372 38.7081 32.7434 45.2132 32.7434C58.2992 32.7434 67.4628 41.7953 67.4628 52.5022C67.4628 57.8753 65.2169 61.3058 61.8861 63.3236C61.8817 63.3263 61.8774 63.3289 61.873 63.3315C61.7284 63.4189 61.5819 63.5035 61.4338 63.5854C58.2701 65.3339 54.3405 65.8393 50.7691 65.8393C46.8095 65.8393 44.0115 64.4199 42.3599 62.1714C40.7363 59.9611 40.3528 57.1285 40.8266 54.5191C41.3683 51.5355 44.0752 49.5983 46.7293 49.3332C48.0888 49.1974 49.5182 49.4855 50.7125 50.3588C51.9175 51.2398 52.7749 52.6372 53.1216 54.5158C53.2383 55.1483 52.8202 55.7556 52.1877 55.8723C51.5553 55.989 50.948 55.5709 50.8313 54.9384C50.5743 53.5457 49.9872 52.7135 49.3379 52.2388C48.678 51.7563 47.8436 51.5625 46.9608 51.6507C45.1304 51.8335 43.4389 53.1677 43.1181 54.9351C42.7295 57.0752 43.0791 59.2165 44.2369 60.7927C45.3666 62.3307 47.3981 63.5104 50.7691 63.5104C54.356 63.5104 57.9834 62.9648 60.6793 61.3317C63.2805 59.7559 65.1339 57.1002 65.1339 52.5022C65.1339 43.264 57.2034 35.0724 45.2132 35.0724C39.1799 35.0724 34.0659 36.9144 30.4629 40.4881Z" fill="#1A1A1A"/>
<path fill-rule="evenodd" clip-rule="evenodd" d="M8.54279 72.7702L8.72636 72.3371V31.5494L8.70635 31.3973C8.70403 31.3798 8.70192 31.3588 8.70031 31.335C8.80408 31.3809 8.92761 31.4432 9.07027 31.5277C9.53742 31.8025 10.0718 32.2372 10.5765 32.8148C11.5983 33.9839 12.32 35.5242 12.32 37.1358V39.4647H19.9994L20.3486 37.555C20.5839 36.2679 21.3089 34.5041 22.2754 33.085C22.753 32.3832 23.2273 31.8599 23.6398 31.5339C23.6737 31.5071 23.7061 31.4826 23.7369 31.46C23.9191 32.1388 24.0203 33.1459 24.0345 34.369C24.0494 35.6623 23.9671 37.01 23.8768 38.1264C23.8393 38.5892 23.8011 39.0035 23.7684 39.3587L23.7494 39.5657L23.7453 39.6112C23.716 39.9286 23.6797 40.3231 23.6797 40.5749C23.6797 41.3745 23.9738 41.994 24.2533 42.4163C24.4661 42.736 24.7334 43.0248 24.8683 43.1707L24.9114 43.2175C25.2135 43.545 25.2293 43.6059 25.2454 43.6677L25.3004 43.5831C25.6814 42.8724 26.0963 42.1951 26.5439 41.5515C26.2497 41.2312 26.0087 40.9513 26.0087 40.5749C26.0087 40.4272 26.0407 40.08 26.0855 39.5937C26.3524 36.6996 27.0736 28.8789 24.2037 28.8789C21.522 28.8789 18.6593 33.8458 18.0576 37.1358H14.6489L14.6489 37.1268C14.6436 32.5306 10.5789 28.8789 8.30266 28.8789C6.48048 28.8789 6.27325 30.7615 6.39742 31.7024L6.39741 71.865C5.04683 75.0619 1.82656 84.3451 3.29219 84.8777C7.56397 86.4274 13.7552 83.3436 16.9034 81.7755C17.8964 81.2809 18.5867 80.9371 18.8184 80.9371C19.0818 80.9371 20.0446 81.2299 21.4451 81.656C25.1821 82.7927 32.0361 84.8777 37.0395 84.8777C41.75 84.8777 45.859 83.8816 48.4494 83.2537C49.6417 82.9647 50.5122 82.7537 50.9716 82.7537C51.5462 82.7537 52.9817 83.0677 54.7207 83.4481C57.3923 84.0325 60.7802 84.7736 62.8635 84.7736C66.3027 84.7736 70.5 83.3607 70.5 80.9371C70.5 79.9293 69.4923 78.8015 68.2626 77.8176C67.126 76.9082 65.7997 76.1215 64.9038 75.6659C65.968 75.6755 67.5389 75.6073 68.8926 75.3763C70.3816 75.1222 71.6079 74.6711 71.6079 73.9099C71.6079 73.2499 70.3074 72.2619 68.6505 71.0031C66.0598 69.0349 62.5977 66.4046 61.873 63.3315C61.7284 63.4189 61.5819 63.5035 61.4338 63.5854L61.4236 63.6325C61.5064 64.0063 61.6472 64.935 61.5478 65.6595C61.4484 66.3839 61.2511 66.9733 61.1649 67.1774C61.2498 67.2973 61.3361 67.4149 61.4236 67.5301C62.5177 68.9725 63.9216 70.2317 65.2039 71.272C65.8528 71.7999 66.496 72.2905 67.0753 72.7314L67.271 72.8802L67.2726 72.8814C67.4154 72.9899 67.5528 73.0944 67.6851 73.1953C66.7175 73.3057 65.6895 73.3438 64.9248 73.3369C63.8438 73.3276 62.8983 74.062 62.6415 75.1132C62.3847 76.1628 62.8841 77.2511 63.8475 77.7418C64.6748 78.1625 65.9217 78.9078 66.9239 79.7307C67.427 80.1437 67.7943 80.5163 68.0173 80.816C68.055 80.8667 68.0847 80.9103 68.1082 80.947C67.995 81.0804 67.7122 81.3317 67.0269 81.6358C65.8922 82.1388 64.3136 82.4447 62.8635 82.4447C61.4361 82.4447 59.0789 82.0037 56.6613 81.4867C56.1814 81.3842 55.6934 81.2775 55.2207 81.1742C54.5765 81.0334 53.9608 80.8988 53.433 80.7896C52.6007 80.6172 51.6271 80.4247 50.9716 80.4247C50.2715 80.4247 49.3419 80.6452 48.6085 80.8206C48.3817 80.8746 48.1467 80.9314 47.9022 80.9905C47.2031 81.1596 46.4264 81.3474 45.5437 81.5395C43.1853 82.0519 40.2468 82.5487 37.0395 82.5487C33.9414 82.5487 29.8921 81.6435 26.3305 80.6623C24.7125 80.2164 23.2488 79.7705 22.07 79.4114L21.7827 79.3239C21.18 79.1407 20.6401 78.9777 20.2174 78.8612C20.0068 78.8038 19.7975 78.7479 19.6086 78.7075C19.4781 78.678 19.1589 78.6081 18.8184 78.6081C18.3127 78.6081 17.882 78.7665 17.7557 78.8131C17.5456 78.8892 17.329 78.9823 17.1335 79.0724C16.7723 79.2388 16.3233 79.4622 15.8533 79.6961L15.7369 79.754C14.6769 80.2819 13.3635 80.9309 11.9251 81.5131C10.4798 82.1 8.98068 82.5891 7.57018 82.8251C6.73627 82.964 5.99044 83.0036 5.3371 82.9483C5.46077 82.1741 5.70216 81.159 6.02924 80.0055C6.7927 77.3148 7.90312 74.2856 8.54279 72.7702ZM23.5285 30.902C23.5285 30.902 23.5377 30.9114 23.5535 30.9417C23.5359 30.9191 23.5285 30.902 23.5285 30.902Z" fill="#1A1A1A"/>
<path d="M18.6857 43.9137C19.095 43.5817 19.6913 43.6498 20.0182 44.0655C20.1649 44.2521 20.4079 44.4349 20.6245 44.4796C20.7138 44.498 20.7993 44.4929 20.8949 44.4545C20.9956 44.414 21.1591 44.3144 21.363 44.0593C21.693 43.646 22.2912 43.5834 22.6979 43.9187C23.1041 44.2542 23.1661 44.8608 22.8362 45.2738C22.0754 46.2263 21.1442 46.5524 20.2479 46.3679C19.4548 46.2046 18.8561 45.6744 18.5363 45.2676C18.2096 44.8517 18.2765 44.2458 18.6857 43.9137Z" fill="#1A1A1A"/>
<path d="M12.8279 43.9137C12.4187 43.5817 11.8223 43.6498 11.4955 44.0655C11.3488 44.2521 11.1058 44.4349 10.8892 44.4796C10.7999 44.498 10.7144 44.4929 10.6187 44.4545C10.5181 44.414 10.3545 44.3144 10.1507 44.0593C9.82065 43.646 9.2225 43.5834 8.8158 43.9187C8.40961 44.2542 8.34761 44.8608 8.67749 45.2738C9.43824 46.2263 10.3695 46.5524 11.2658 46.3679C12.0589 46.2046 12.6576 45.6744 12.9774 45.2676C13.3041 44.8517 13.2371 44.2458 12.8279 43.9137Z" fill="#1A1A1A"/>
<path fill-rule="evenodd" clip-rule="evenodd" d="M12.3845 46.295C12.8639 45.8664 13.6001 45.9076 14.0287 46.387C14.92 47.384 16.4683 47.4215 17.4074 46.4685L17.53 46.3444C17.9822 45.8871 18.7195 45.8829 19.1768 46.3351C19.6341 46.7872 19.6383 47.5245 19.1862 47.9818L19.0663 48.1031C19.066 48.1034 19.0666 48.1028 19.0663 48.1031C17.1842 50.0122 14.0798 49.9386 12.2924 47.9392C11.8638 47.4598 11.905 46.7236 12.3845 46.295Z" fill="#1A1A1A"/>
</svg>
