<svg width="75" height="86" viewBox="0 0 75 86" fill="none" xmlns="http://www.w3.org/2000/svg">
<path fill-rule="evenodd" clip-rule="evenodd" d="M40.1395 35.6855C45.5054 38.2364 49.8812 42.5177 54.6604 47.1938L54.7703 47.3009C56.8176 45.638 59.6442 44.4363 63.4539 44.4363C72.7147 44.4363 73.637 45.4517 72.9405 45.9595C71.0431 47.5478 67.2485 51.6855 67.2485 56.3978C67.2485 61.11 71.0431 65.4667 72.9405 67.0566C73.637 67.5643 72.7147 68.5797 63.4539 68.5797C59.6431 68.5797 56.8161 66.8982 54.7686 64.6718C50.3384 70.7177 46.0886 75.0769 39.9846 77.2026C40.7673 79.546 41.7735 81.7753 42.6595 83.5129C42.7378 83.6666 42.7267 83.8421 42.6395 83.988C42.556 84.1262 42.4366 84.1883 42.3023 84.1837C31.7467 83.8157 25.8861 81.3051 22.1896 78.4203C21.811 78.1249 21.4533 77.8243 21.114 77.5199C9.18701 74.5268 0 66.0052 0 55.9584C0 44.8896 11.2657 35.6703 24.0013 33.6587C27.7436 31.334 33.3249 29.4712 42.3023 29.1583C42.4366 29.1536 42.556 29.2158 42.6395 29.3539C42.7268 29.4999 42.7378 29.6753 42.6595 29.829C41.8309 31.4541 40.8972 33.5092 40.1395 35.6855Z" fill="#F24822"/>
<path d="M25.0795 69.62C9.83147 69.62 6.71606 60.7964 1.55273 57.4474C3.16984 62.6787 5.95989 67.8014 10.9555 71.4244C15.5528 74.7584 22.1764 76.8087 27.9475 76.8087C45.2764 76.8087 49.4061 67.4929 53.1867 62.835C48.0235 64.3876 41.4052 69.62 25.0795 69.62Z" fill="#FFAFA3"/>
<path fill-rule="evenodd" clip-rule="evenodd" d="M41.1819 36.2089C46.0806 38.7992 50.1944 42.8241 54.6604 47.1938L54.7703 47.3009L54.774 47.2979C56.821 45.6366 59.6465 44.4363 63.4539 44.4363C66.9589 44.4363 69.2694 44.5818 70.7498 44.7901C70.8277 44.8011 70.9034 44.8122 70.9767 44.8235C71.4894 44.9025 71.8924 44.9894 72.2038 45.0801C72.2466 45.0925 72.2881 45.1052 72.3275 45.1178L72.9354 45.9526L72.9405 45.9586C72.5441 46.2905 72.0648 46.7345 71.5547 47.2709L71.5208 47.3066C69.5955 49.3412 67.2485 52.6919 67.2485 56.3978C67.2485 60.1159 69.6109 63.6127 71.5398 65.7036L71.5679 65.7341C72.0731 66.2793 72.5475 66.7273 72.9405 67.0566C73.2492 67.2817 73.2399 67.6066 72.3269 67.8985C72.2876 67.9111 72.2465 67.9236 72.2039 67.936C71.8924 68.0267 71.4894 68.1136 70.9767 68.1926C70.9051 68.2036 70.8314 68.2145 70.7554 68.2252C69.2752 68.4339 66.9633 68.5798 63.4539 68.5798C60.6175 68.5798 58.3261 67.6482 56.4955 66.2538C55.8666 65.7748 55.2921 65.2411 54.7686 64.6718C54.2935 65.3202 53.8205 65.9492 53.347 66.5581C49.6732 71.2828 45.9733 74.7989 41.075 76.7915C41.8308 79.0632 42.8138 81.2519 43.6969 82.9839C43.9678 83.516 43.9191 84.117 43.6389 84.5856L43.636 84.5904C43.3509 85.0621 42.8494 85.3678 42.2619 85.3474C31.5309 84.9733 25.4124 82.4124 21.4735 79.3385C20.4449 78.5363 19.565 77.6989 18.7903 76.8562C8.01441 73.3954 0 65.3422 0 55.9584C0 45.645 9.78063 36.9372 21.4177 34.1695C26.2775 30.178 32.3381 28.4683 42.2631 27.9774C42.9992 27.941 43.5559 28.381 43.8116 28.8886C44.0634 29.3882 44.0846 30.0626 43.6872 30.6243C42.5994 32.162 41.9323 34.0582 41.1819 36.2089ZM27.0838 33.3169C27.7667 33.2733 28.4515 33.2512 29.1368 33.2512C32.8936 33.2512 36.1325 33.9693 39.0642 35.2037C39.6341 33.5665 40.2428 31.8778 41.0935 30.3755C34.929 30.7633 30.5536 31.6766 27.0838 33.3169ZM23.6693 78.068C27.0189 80.4253 32.2109 82.4931 41.0888 82.9649C40.3328 81.3926 39.5307 79.5221 38.8757 77.558C36.3969 78.2855 33.6154 78.6656 30.4091 78.6656C28.1143 78.6656 25.8555 78.4589 23.6693 78.068ZM67.414 64.1423C67.8562 64.8423 68.3279 65.4946 68.802 66.0879C67.5198 66.1848 65.7804 66.2508 63.4539 66.2508C60.4191 66.2508 58.1813 64.9419 56.483 63.0943C56.0115 62.5819 55.335 62.3071 54.6393 62.3459C53.9437 62.3847 53.3018 62.7325 52.8901 63.2946C49.7331 67.6031 46.8207 70.8218 43.3903 72.9892C40.0144 75.1226 35.977 76.3367 30.4091 76.3367C22.8316 76.3367 15.7185 73.9379 10.5494 70.1386C5.3711 66.3331 2.32895 61.2855 2.32895 55.9584C2.32895 50.6329 5.40687 45.5775 10.4672 41.7627C15.5159 37.9556 22.3087 35.5801 29.1368 35.5801C39.3362 35.5801 45.3069 41.3 53.0317 48.8582L53.1416 48.9669C53.9876 49.7945 55.32 49.855 56.2388 49.1098C57.8674 47.7869 60.1746 46.7653 63.4539 46.7653C65.754 46.7653 67.4802 46.8294 68.7581 46.9243C68.306 47.4782 67.8556 48.085 67.4311 48.7371C66.1067 50.7711 64.9196 53.4276 64.9196 56.3978C64.9196 59.3587 66.0999 62.0618 67.414 64.1423Z" fill="#1A1A1A"/>
<path d="M72.3275 45.1178C73.239 45.4095 73.2487 45.7337 72.9405 45.9586L72.3275 45.1178Z" fill="#1A1A1A"/>
<path d="M17.375 57.0981C17.5696 56.6685 18.037 56.4966 18.419 56.7152C18.4198 56.7157 18.4216 56.7169 18.4239 56.7182C18.4288 56.7209 18.4375 56.7259 18.4483 56.7318C18.4699 56.7437 18.5027 56.7609 18.544 56.7826C18.6274 56.8266 18.745 56.8872 18.8789 56.9486C19.1654 57.08 19.4597 57.187 19.6582 57.2133C19.8482 57.2383 20.1441 57.2146 20.4385 57.1684C20.5761 57.1467 20.6981 57.1234 20.7852 57.1049C20.8283 57.0957 20.8631 57.0877 20.8858 57.0824C20.8965 57.0799 20.905 57.0768 20.9102 57.0756C20.9125 57.0751 20.9151 57.0758 20.916 57.0756C21.3347 56.9714 21.7492 57.2687 21.8418 57.7397C21.9341 58.2104 21.6694 58.6755 21.251 58.7797L21.2471 58.7816C21.2446 58.7823 21.2404 58.7836 21.2364 58.7846L21.0733 58.8207C20.9681 58.843 20.8216 58.8725 20.6543 58.8988C20.338 58.9485 19.8753 59.0004 19.4766 58.9477C19.0581 58.8923 18.6019 58.7065 18.293 58.5648C18.1296 58.4899 17.987 58.419 17.8858 58.3656C17.8354 58.3391 17.7937 58.3162 17.7647 58.3002C17.7503 58.2923 17.7379 58.2853 17.7295 58.2807C17.7258 58.2786 17.7222 58.2771 17.7198 58.2758L17.7149 58.2719L17.5821 58.1772C17.2997 57.9243 17.2054 57.4741 17.375 57.0981ZM19.9737 53.1078C20.8311 53.1079 21.5264 53.8902 21.5264 54.8549C21.5262 55.8193 20.831 56.6009 19.9737 56.601C19.1163 56.601 18.4211 55.8194 18.4209 54.8549C18.4209 53.8902 19.1162 53.1078 19.9737 53.1078Z" fill="#1A1A1A"/>
<path d="M10.1511 57.098C9.95646 56.6683 9.48816 56.4963 9.10616 56.7152C9.10536 56.7158 9.10406 56.717 9.10225 56.7181C9.09736 56.7209 9.08861 56.7258 9.07784 56.7318C9.05629 56.7437 9.02346 56.7608 8.98214 56.7826C8.89868 56.8265 8.78111 56.8871 8.64717 56.9486C8.36065 57.08 8.06645 57.1869 7.86788 57.2132C7.67793 57.2383 7.38202 57.2145 7.0876 57.1683C6.95008 57.1467 6.82798 57.1233 6.74092 57.1048C6.69758 57.0956 6.66202 57.0876 6.63936 57.0824C6.62885 57.0799 6.621 57.0768 6.61592 57.0755C6.61364 57.075 6.61117 57.0757 6.61006 57.0755C6.19146 56.9713 5.77594 57.2687 5.68331 57.7396C5.59111 58.2103 5.85671 58.6755 6.2751 58.7796L6.27901 58.7816C6.2815 58.7822 6.28576 58.7836 6.28975 58.7845L6.45186 58.8206C6.55705 58.843 6.70422 58.8724 6.87178 58.8988C7.18819 58.9485 7.65079 59.0003 8.04952 58.9476C8.46805 58.8922 8.92421 58.7065 9.23311 58.5648C9.39655 58.4898 9.53908 58.4189 9.64034 58.3656C9.69074 58.339 9.73237 58.3162 9.76143 58.3001C9.77579 58.2922 9.78828 58.2853 9.79659 58.2806C9.80039 58.2785 9.80395 58.2771 9.80635 58.2757L9.81124 58.2718L9.94307 58.1771C10.2255 57.9242 10.3208 57.4741 10.1511 57.098ZM7.55245 53.1078C6.69495 53.1078 5.99971 53.8901 5.99971 54.8548C5.99989 55.8193 6.69505 56.6009 7.55245 56.6009C8.40977 56.6008 9.10501 55.8193 9.10518 54.8548C9.10518 53.8902 8.40988 53.1079 7.55245 53.1078Z" fill="#1A1A1A"/>
<path d="M17.4204 61.9218H10.4204L13.9204 56.6718L17.4204 61.9218Z" fill="#FFAFA3"/>
<path d="M17.4211 63.0863C17.8503 63.0861 18.245 62.8492 18.4476 62.4707C18.6498 62.0922 18.6279 61.633 18.39 61.2759L14.889 56.0251C14.6729 55.7016 14.3091 55.5066 13.9201 55.5066C13.531 55.5067 13.1671 55.7015 12.9512 56.0251L9.45171 61.2759C9.21357 61.6331 9.19167 62.0921 9.39409 62.4707C9.59674 62.8493 9.99114 63.0863 10.4206 63.0863H17.4211ZM13.9201 58.7726L15.2453 60.7573H12.5964L13.9201 58.7726Z" fill="#1A1A1A"/>
</svg>
