<svg width="75" height="86" viewBox="0 0 75 86" fill="none" xmlns="http://www.w3.org/2000/svg">
<path d="M38.8762 84.3963C68.1743 83.12 71.6398 61.748 66.1295 50.8827C60.6177 40.0174 44.9796 36.7864 38.8762 37.3174C21.4091 39.2333 9.31715 43.2019 6.451 57.2315C2.616 75.9982 19.1624 84.3963 38.8762 84.3963Z" fill="#0768CF"/>
<path d="M38.7758 36.157C42.0373 35.8734 47.6533 36.5898 53.1498 38.7422C58.6499 40.8962 64.2315 44.5683 67.1675 50.3551V50.3566C70.0832 56.1062 70.6163 64.5772 66.5716 71.8039C62.4877 79.1005 53.8727 84.9081 38.9275 85.5592L38.8759 84.3781V84.3963L38.9275 85.5592L38.9017 85.5607H38.8759C28.8916 85.5607 19.5467 83.4402 13.1483 78.7938C9.93347 76.4591 7.45237 73.4774 6.04016 69.8115C4.62805 66.1457 4.31497 61.8711 5.31085 56.9978C6.81704 49.626 10.7851 44.8446 16.6372 41.705C22.4115 38.6071 29.9932 37.1205 38.7485 36.1601L38.7758 36.157L38.8759 37.317L38.8789 37.3534L38.7758 36.157ZM52.3007 40.9105C47.0898 38.8698 41.8494 38.2324 39.0017 38.4739C30.2911 39.4294 23.094 40.8855 17.7395 43.758C12.4626 46.5889 8.95133 50.8074 7.59128 57.4648C6.66978 61.9745 6.9868 65.7878 8.21445 68.9746C9.44216 72.1614 11.611 74.7984 14.5175 76.9091C20.3576 81.15 29.134 83.2272 38.8547 83.2303C53.1884 82.5989 60.9464 77.087 64.5398 70.6667C68.1747 64.1722 67.6861 56.5247 65.0917 51.4089C62.5158 46.3313 57.5229 42.9556 52.3007 40.9105Z" fill="#1A1A1A"/>
<path d="M50.4528 73.5589C56.3854 64.5381 55.8497 55.2409 54.4073 48.4357C54.0238 46.6269 55.3187 44.9144 56.8605 45.9345C60.1645 48.119 63.203 53.9848 64.6625 60.6425C65.1034 62.6532 65.1096 64.7788 64.2852 66.6652C61.9019 72.1227 56.3993 75.6798 52.2662 77.1998C49.4342 78.2416 48.7946 76.0788 50.4528 73.5589Z" fill="#034AC1"/>
<path d="M16.3706 37.2631H27.947L26.3944 33.0632L35.7102 36.4604L41.3462 33.0632L43.4733 37.2631L54.3418 34.1579L50.3096 39.5067L59.0649 41.8108L48.1312 45.0263L48.9681 51.2368L41.3462 45.9175L35.7102 53.4478L31.7975 45.9175L19.1265 48.6719L26.3944 42.4288L16.3706 37.2631Z" fill="#0768CF"/>
<path d="M40.8519 32.0094C41.1058 31.8902 41.3954 31.866 41.6676 31.9442C41.9787 32.0335 42.2385 32.2483 42.3848 32.537L44.0769 35.8773L54.022 33.0374C54.503 32.9 55.0184 33.086 55.3017 33.4983C55.5849 33.911 55.5726 34.4587 55.2713 34.8584L52.2828 38.8218L59.3606 40.6853L59.0635 41.8088L59.065 41.8103L59.3606 40.6853C59.8661 40.8183 60.2218 41.2711 60.2295 41.7937C60.2369 42.3162 59.8953 42.7802 59.394 42.9278L49.4187 45.8617L50.1222 51.0806L48.9668 51.2353L48.3012 52.1921L41.6039 47.516L36.6428 54.145C36.4028 54.4657 36.014 54.6416 35.6148 54.6089C35.2157 54.5762 34.8609 54.3396 34.6762 53.9843L35.7103 53.4475L35.7088 53.446L34.6762 53.9843L31.1737 47.243L19.3743 49.81L19.1787 49.8358C18.725 49.8564 18.292 49.6087 18.084 49.1914C17.8465 48.7143 17.9634 48.1363 18.3675 47.7889L24.3233 42.6716L15.8369 38.2987C15.3592 38.0526 15.1129 37.511 15.2395 36.9887C15.3662 36.4664 15.8332 36.0987 16.3706 36.0987H26.2763L25.3028 33.4665C25.1456 33.0409 25.2496 32.5628 25.5697 32.2413C25.8897 31.9201 26.3672 31.8132 26.7933 31.9684L35.5845 35.1753L40.7457 32.0655L40.8519 32.0094ZM50.1222 51.0806C50.1839 51.5386 49.9693 51.9909 49.5748 52.2315C49.1804 52.4721 48.6801 52.4565 48.3012 52.1921L48.9683 51.2368L50.1222 51.0806ZM36.3107 37.4572C36.0093 37.6388 35.6422 37.6748 35.3115 37.5543L35.7103 36.461H35.7088L35.3115 37.5543L28.3581 35.0191L29.0388 36.8598C29.1708 37.2171 29.12 37.6163 28.9024 37.9288C28.6847 38.2412 28.328 38.4276 27.9471 38.4276H21.1741L26.9282 41.3934C27.2724 41.5708 27.5062 41.908 27.5514 42.2925C27.5966 42.6772 27.4465 43.059 27.1526 43.3114L23.3757 46.5562L31.5497 44.7791C32.0633 44.6675 32.5886 44.9147 32.831 45.3811L35.8877 51.2656L40.4137 45.2189C40.7901 44.7163 41.4984 44.6032 42.0133 44.9626L47.4597 48.7638L46.9775 45.181L46.9684 44.9702C46.9916 44.4828 47.3198 44.0509 47.8023 43.9088L54.724 41.8725L50.013 40.6322C49.6379 40.5334 49.3365 40.2543 49.2094 39.8878C49.0824 39.5212 49.1457 39.115 49.3792 38.8052L51.32 36.2306L43.7934 38.3821L43.4735 37.2616V37.2631L43.7934 38.3821C43.2568 38.5354 42.6871 38.287 42.4348 37.7893L40.8731 34.7068L36.3107 37.4572Z" fill="#1A1A1A"/>
<path d="M37.1046 44.6132C40.5345 44.6132 43.3151 43.3154 43.3151 41.7144C43.3151 40.1135 40.5345 38.8157 37.1046 38.8157C33.6746 38.8157 30.894 40.1135 30.894 41.7144C30.894 43.3154 33.6746 44.6132 37.1046 44.6132Z" fill="#034AC1"/>
<path d="M39.882 63.6143C39.882 64.9006 38.8393 65.9433 37.5531 65.9433C36.2668 65.9433 35.2241 64.9006 35.2241 63.6143C35.2241 62.3281 36.2668 61.2854 37.5531 61.2854C38.8393 61.2854 39.882 62.3281 39.882 63.6143Z" fill="#FFAFA3"/>
<path d="M38.7175 63.6145C38.7175 62.9714 38.1961 62.45 37.553 62.45C36.9099 62.45 36.3885 62.9714 36.3885 63.6145C36.3885 64.2576 36.9099 64.779 37.553 64.779C38.1961 64.779 38.7175 64.2576 38.7175 63.6145ZM41.0464 63.6145C41.0464 65.5439 39.4824 67.1079 37.553 67.1079C35.6236 67.1079 34.0596 65.5439 34.0596 63.6145C34.0596 61.6852 35.6236 60.1211 37.553 60.1211C39.4824 60.1211 41.0464 61.6852 41.0464 63.6145Z" fill="#1A1A1A"/>
<path d="M44.8365 56.6463C45.8612 56.6463 46.692 57.4771 46.692 58.5018C46.6919 59.5264 45.8612 60.3573 44.8365 60.3573C43.812 60.3571 42.9812 59.5263 42.9811 58.5018C42.9811 57.4772 43.8119 56.6465 44.8365 56.6463ZM46.7437 51.6746C47.5017 51.273 48.4123 51.4127 48.7779 51.9862C49.1431 52.5598 48.8263 53.3507 48.0689 53.7528L48.065 53.7547C48.0637 53.7555 48.0615 53.7574 48.0592 53.7586C48.0532 53.7617 48.0428 53.7665 48.0318 53.7723C48.0093 53.7843 47.9762 53.8018 47.9342 53.8241C47.8485 53.8694 47.7247 53.9358 47.5719 54.0164C47.2657 54.178 46.8415 54.4006 46.3727 54.6463C45.4399 55.1352 44.3084 55.7237 43.565 56.0946L43.4195 56.159C42.6855 56.4551 41.8745 56.2769 41.5543 55.7274C41.2128 55.1412 41.5596 54.3543 42.3287 53.9705L43.6109 53.3172C44.0902 53.0694 44.5987 52.8043 45.066 52.5594C45.5306 52.3159 45.9508 52.0947 46.2545 51.9344L46.7105 51.6922C46.7214 51.6864 46.7303 51.6815 46.7359 51.6785L46.7437 51.6746Z" fill="#1A1A1A"/>
<path d="M29.3559 56.646C28.3313 56.646 27.5006 57.4769 27.5005 58.5015C27.5005 59.5262 28.3312 60.3569 29.3559 60.3569C30.3806 60.3569 31.2114 59.5261 31.2114 58.5015C31.2113 57.4769 30.3805 56.646 29.3559 56.646ZM27.4497 51.6743C26.6915 51.2724 25.78 51.4129 25.4145 51.9868C25.0493 52.5606 25.3668 53.3514 26.1245 53.7534L26.1274 53.7544C26.1288 53.7551 26.131 53.7571 26.1333 53.7583C26.1392 53.7614 26.1494 53.766 26.1606 53.772C26.1832 53.7839 26.2161 53.8014 26.2583 53.8237C26.3439 53.869 26.4676 53.9354 26.6206 54.0161C26.9267 54.1777 27.3509 54.4002 27.8198 54.646C28.7527 55.1349 29.885 55.7234 30.6284 56.0942L30.7729 56.1587C31.507 56.4548 32.318 56.2766 32.6382 55.727C32.9794 55.1408 32.6329 54.3539 31.8638 53.9702L30.5815 53.3179C30.1022 53.07 29.5938 52.804 29.1265 52.5591C28.6619 52.3156 28.2416 52.0953 27.938 51.9351L27.4819 51.6919C27.4711 51.6862 27.4621 51.6821 27.4565 51.6792C27.4543 51.678 27.4529 51.6761 27.4516 51.6753L27.4497 51.6743Z" fill="#1A1A1A"/>
</svg>
