<svg width="75" height="86" viewBox="0 0 75 86" fill="none" xmlns="http://www.w3.org/2000/svg">
<path d="M31.8587 36.0348C39.1953 40.0248 45.7244 40.6303 49.027 41.2513C52.2427 41.8568 62.2825 42.2295 66.2978 40.7701C66.7636 40.5994 67.0415 40.1336 67.0322 39.6368C66.8599 29.6384 58.3293 21.0528 50.8918 20.4008C44.0319 19.7953 33.826 23.3661 31.1972 34.5755C31.0622 35.1499 31.337 35.7553 31.8587 36.0348Z" fill="#5C806D"/>
<path d="M51.9527 20.5559C47.8474 20.944 40.2966 24.7477 38.542 34.0785" stroke="#517361" stroke-width="2.74597" stroke-linejoin="round"/>
<path d="M51.9531 20.5403C55.6377 22.3878 59.8347 28.272 59.1018 38.2083" stroke="#517361" stroke-width="2.74597" stroke-linejoin="round"/>
<path d="M51.7989 20.7112C50.9511 24.1268 49.2524 32.107 49.2354 36.7646" stroke="#517361" stroke-width="2.74597" stroke-linejoin="round"/>
<path d="M31.8587 36.0348C39.1953 40.0248 45.7244 40.6303 49.027 41.2513C52.2427 41.8568 62.2825 42.2295 66.2978 40.7701C66.7636 40.5994 67.0415 40.1336 67.0322 39.6368C66.8599 29.6384 58.3293 21.0528 50.8918 20.4008C44.0319 19.7953 33.826 23.3661 31.1972 34.5755C31.0622 35.1499 31.337 35.7553 31.8587 36.0348Z" stroke="#1A1A1A" stroke-width="2.74597" stroke-linecap="round"/>
<path d="M28.6068 36.9352C28.728 35.8018 29.037 34.5907 29.391 33.4884C29.8847 31.9514 31.6564 31.377 33.1423 31.9825C42.5673 35.9104 58.158 37.6648 66.7134 38.2237C67.9727 38.3013 69.0347 39.2019 69.0658 40.4595C69.086 41.3134 69.0471 42.1982 68.999 43.021C68.9105 44.5425 67.6637 45.8622 66.1343 45.9087C53.2996 46.2814 41.4881 43.1919 30.2046 39.2018C29.2171 38.8603 28.4966 37.9754 28.6068 36.9352Z" fill="#5C806D"/>
<path d="M34.3275 32.8677C33.9657 34.001 33.0853 36.9198 32.458 39.6212" stroke="#517361" stroke-width="2.74597" stroke-linejoin="round"/>
<path d="M38.7322 33.6904C38.3704 34.8238 37.49 37.7427 36.8643 40.4597" stroke="#517361" stroke-width="2.74597" stroke-linejoin="round"/>
<path d="M64.9496 38.7827C64.8782 39.9626 64.6344 43.0056 64.2354 45.7536" stroke="#517361" stroke-width="2.74597" stroke-linejoin="round"/>
<path d="M60.5453 37.96C60.4739 39.1399 60.2301 42.1829 59.8311 44.9309" stroke="#517361" stroke-width="2.74597" stroke-linejoin="round"/>
<path d="M56.2801 37.1528C55.9959 38.6588 55.6217 42.4314 55.2227 45.1794" stroke="#517361" stroke-width="2.74597" stroke-linejoin="round"/>
<path d="M42.9687 34.6531C42.6845 36.159 41.6644 39.8076 41.0371 42.509" stroke="#517361" stroke-width="2.74597" stroke-linejoin="round"/>
<path d="M47.2332 35.4448C47.0407 36.9663 46.241 40.6769 45.7783 43.4094" stroke="#517361" stroke-width="2.74597" stroke-linejoin="round"/>
<path d="M51.9754 36.3455C51.7829 37.867 50.9832 41.562 50.5205 44.31" stroke="#517361" stroke-width="2.74597" stroke-linejoin="round"/>
<path d="M28.6068 36.9352C28.728 35.8018 29.037 34.5907 29.391 33.4884C29.8847 31.9514 31.6564 31.377 33.1423 31.9825C42.5673 35.9104 58.158 37.6648 66.7134 38.2237C67.9727 38.3013 69.0347 39.2019 69.0658 40.4595C69.086 41.3134 69.0471 42.1982 68.999 43.021C68.9105 44.5425 67.6637 45.8622 66.1343 45.9087C53.2996 46.2814 41.4881 43.1919 30.2046 39.2018C29.2171 38.8603 28.4966 37.9754 28.6068 36.9352Z" stroke="#1A1A1A" stroke-width="2.74597" stroke-linejoin="round"/>
<path d="M31.9914 36.2089C39.3067 40.2104 45.8271 40.8451 49.1256 41.477C52.3351 42.092 62.3645 42.5008 66.3793 41.0639C66.8448 40.901 67.1256 40.4349 67.1181 39.945C66.9829 29.9761 58.4948 21.3693 51.0651 20.7022C44.217 20.0677 34.0072 23.5794 31.3357 34.7596C31.1987 35.3322 31.4722 35.9203 31.9914 36.2089Z" fill="#5C806D"/>
<path d="M52.6321 19.7648C56.8405 21.8818 61.1574 28.3008 60.3838 38.5615L58.0637 38.387C58.699 29.9606 55.6458 24.791 52.7572 22.5869C51.8642 26.4181 50.5477 33.0371 50.5283 37.0257L48.2015 37.0139C48.2219 32.8559 49.5256 26.2496 50.4283 22.3323C46.6021 23.4367 41.2328 27.0702 39.8171 34.5322L37.5307 34.0988C39.4122 24.181 47.4679 20.0786 51.9922 19.6641L52.098 20.8264L52.6321 19.7648Z" fill="#517361"/>
<path d="M51.1704 19.5448C55.2625 19.9126 59.4973 22.4326 62.7005 26.0682C65.9176 29.7198 68.2085 34.6216 68.2811 39.9282L68.2771 40.1013C68.227 40.9595 67.7075 41.8247 66.7696 42.1563L66.7708 42.158C64.5519 42.952 60.8549 43.2016 57.4509 43.2021C54.0102 43.2026 50.6168 42.945 48.9071 42.6175C45.6942 42.0017 38.9483 41.3381 31.4334 37.2265L31.4263 37.2236C30.4739 36.6942 29.9425 35.593 30.2061 34.4905C33.0524 22.5782 43.9399 18.8774 51.1701 19.5463L51.1704 19.5448ZM60.9525 27.6016C58.0212 24.2744 54.298 22.1576 50.9613 21.8578L50.9583 21.8573C44.4933 21.2581 34.9653 24.58 32.4687 35.0288C32.4587 35.0705 32.473 35.1436 32.5546 35.1914C39.6683 39.083 45.9625 39.6893 49.3458 40.3377C50.8458 40.625 54.0712 40.8817 57.4501 40.8812C60.8443 40.8807 64.1471 40.6171 65.9506 39.9833C65.9519 39.9772 65.9544 39.9709 65.9543 39.964L65.9531 39.9622C65.89 35.2998 63.8696 30.9127 60.9525 27.6016Z" fill="#1A1A1A"/>
<path d="M28.7456 37.1338C28.8669 36.0243 29.1805 34.8099 29.5388 33.7142C30.0379 32.1891 31.8109 31.6144 33.2935 32.2428C42.7052 36.1742 58.2903 37.9625 66.844 38.5375C68.1038 38.6201 69.1618 39.5292 69.1898 40.7772C69.208 41.6301 69.1636 42.5182 69.1145 43.3268C69.0205 44.8504 67.7708 46.1539 66.2404 46.1928C53.4046 46.5326 41.6058 43.405 30.3346 39.4025C29.3485 39.0574 28.6291 38.1812 28.7456 37.1338Z" fill="#5C806D"/>
<path d="M57.554 37.6329C57.4201 38.3418 57.2586 39.6171 57.0762 41.1089C56.8967 42.577 56.7008 44.2255 56.497 45.619L54.1911 45.2842C54.3899 43.9248 54.5838 42.3111 54.765 40.8288C54.9434 39.3704 55.1135 38.0046 55.265 37.2029L57.554 37.6329ZM44.245 35.1161C44.0935 35.9178 43.7553 37.2512 43.3892 38.6739C43.017 40.1203 42.6069 41.6937 42.296 43.032L40.0276 42.5075C40.3464 41.1355 40.7642 39.5287 41.1328 38.0961C41.5074 36.6405 41.8219 35.3951 41.9559 34.6861L44.245 35.1161ZM53.2613 36.7504C53.1593 37.5538 52.9002 38.9028 52.6205 40.3432C52.3361 41.8079 52.0221 43.403 51.7922 44.7564L49.4952 44.3686C49.7309 42.9813 50.0518 41.3533 50.3334 39.9027C50.6198 38.4279 50.8584 37.1672 50.9484 36.458L53.2613 36.7504ZM48.5201 35.8542C48.418 36.6576 48.1591 38.006 47.8795 39.4461C47.595 40.911 47.2819 42.5068 47.0519 43.8604L44.7551 43.4717C44.9908 42.0844 45.3107 40.456 45.5924 39.0055C45.8786 37.5313 46.1181 36.2712 46.2082 35.562L48.5201 35.8542ZM66.2405 39.1295C66.165 40.3357 65.9186 43.4054 65.5099 46.2008L63.2048 45.8672C63.6011 43.1565 63.8425 40.1541 63.9156 38.9858L66.2405 39.1295ZM61.8361 38.2968C61.7606 39.5033 61.5144 42.5728 61.1055 45.3682L58.8005 45.0336C59.197 42.3233 59.4381 39.3216 59.5112 38.1532L61.8361 38.2968ZM39.9741 34.2973C39.6156 35.412 38.7451 38.2959 38.1251 40.9643L35.8569 40.4389C36.4963 37.6872 37.3862 34.7389 37.7564 33.5875L39.9741 34.2973ZM35.5699 33.4636C35.2115 34.5782 34.3408 37.463 33.7207 40.1317L31.4525 39.6062C32.092 36.8541 32.982 33.905 33.3521 32.7539L35.5699 33.4636Z" fill="#517361"/>
<path d="M66.9183 37.3833C68.654 37.4974 70.3072 38.7879 70.3514 40.7541L70.3511 40.7556C70.3607 41.2075 70.3542 41.6661 70.3386 42.1129L70.2746 43.4005L70.2744 43.402C70.1542 45.3412 68.6604 47.0702 66.672 47.3244L66.2679 47.355C53.2257 47.6983 41.2731 44.5151 29.95 40.4916C28.5894 40.0149 27.4008 38.7172 27.5905 37.0043C27.724 35.7856 28.0619 34.4875 28.4335 33.3517C29.192 31.0342 31.7881 30.346 33.7445 31.1715L33.7462 31.1703C42.9581 35.0209 58.3628 36.8081 66.918 37.3848L66.9183 37.3833ZM66.7654 39.6956L66.7639 39.6953C58.213 39.1191 42.4535 37.3236 32.8458 33.3078L32.8402 33.3052C31.8329 32.878 30.8872 33.3386 30.648 34.0688C30.3458 34.9927 30.0871 35.9745 29.9539 36.8756L29.9053 37.2566L29.905 37.2581C29.8626 37.6393 30.1117 38.0926 30.7222 38.3065L30.7281 38.3076C41.9425 42.2928 53.5823 45.3698 66.2073 45.0373L66.2088 45.0376C67.0811 45.0151 67.8882 44.2379 67.9492 43.2599C67.9859 42.6564 68.0195 42.0286 68.0264 41.414L68.0231 40.8049C68.0108 40.2753 67.5485 39.7471 66.7654 39.6956Z" fill="#1A1A1A"/>
</svg>
