<svg width="75" height="86" viewBox="0 0 75 86" fill="none" xmlns="http://www.w3.org/2000/svg">
<path fill-rule="evenodd" clip-rule="evenodd" d="M40.1395 35.6855C45.5054 38.2364 49.8812 42.5177 54.6604 47.1938L54.7703 47.3009C56.8176 45.6381 59.6442 44.4363 63.4539 44.4363C72.7147 44.4363 73.637 45.4518 72.9405 45.9595C71.0431 47.5478 67.2485 51.6856 67.2485 56.3978C67.2485 61.1101 71.0431 65.4667 72.9405 67.0566C73.637 67.5643 72.7147 68.5798 63.4539 68.5798C59.6431 68.5798 56.8161 66.8983 54.7686 64.6718C50.3384 70.7177 46.0886 75.077 39.9846 77.2027C40.7673 79.5461 41.7735 81.7753 42.6595 83.5129C42.7378 83.6666 42.7267 83.8421 42.6395 83.988C42.556 84.1262 42.4366 84.1883 42.3023 84.1837C31.7467 83.8157 25.8861 81.3051 22.1896 78.4203C21.811 78.125 21.4533 77.8244 21.114 77.5199C9.18701 74.5268 0 66.0053 0 55.9584C0 44.8897 11.2657 35.6704 24.0013 33.6587C27.7436 31.3341 33.3249 29.4713 42.3023 29.1583C42.4366 29.1537 42.556 29.2158 42.6395 29.354C42.7268 29.4999 42.7378 29.6754 42.6595 29.8291C41.8309 31.4541 40.8972 33.5092 40.1395 35.6855Z" fill="#2C2C2C"/>
<path fill-rule="evenodd" clip-rule="evenodd" d="M41.1819 36.2089C46.0806 38.7992 50.1944 42.8241 54.6604 47.1938L54.7703 47.301L54.774 47.2979C56.821 45.6366 59.6465 44.4363 63.4539 44.4363C66.9589 44.4363 69.2694 44.5818 70.7498 44.7901C70.8277 44.8011 70.9034 44.8122 70.9767 44.8235C71.4894 44.9025 71.8924 44.9894 72.2038 45.0801C72.2466 45.0925 72.2881 45.1052 72.3275 45.1178L72.9354 45.9526L72.9405 45.9587C72.5441 46.2905 72.0648 46.7345 71.5547 47.2709L71.5208 47.3066C69.5955 49.3412 67.2485 52.6919 67.2485 56.3978C67.2485 60.1159 69.6109 63.6127 71.5398 65.7036L71.5679 65.7341C72.0731 66.2794 72.5475 66.7273 72.9405 67.0566C73.2492 67.2817 73.2399 67.6066 72.3269 67.8985C72.2876 67.9111 72.2465 67.9236 72.2039 67.9361C71.8924 68.0267 71.4894 68.1136 70.9767 68.1926C70.9051 68.2036 70.8314 68.2145 70.7554 68.2252C69.2752 68.434 66.9633 68.5798 63.4539 68.5798C60.6175 68.5798 58.3261 67.6483 56.4955 66.2538C55.8666 65.7748 55.2921 65.2411 54.7686 64.6718C54.2935 65.3202 53.8205 65.9492 53.347 66.5581C49.6732 71.2828 45.9733 74.799 41.075 76.7915C41.8308 79.0632 42.8138 81.252 43.6969 82.984C43.9678 83.516 43.9191 84.117 43.6389 84.5856L43.636 84.5904C43.3509 85.0622 42.8494 85.3678 42.2619 85.3475C31.5309 84.9734 25.4124 82.4124 21.4735 79.3385C20.4449 78.5363 19.565 77.699 18.7903 76.8562C8.01441 73.3954 0 65.3422 0 55.9584C0 45.645 9.78063 36.9372 21.4177 34.1696C26.2775 30.178 32.3381 28.4683 42.2631 27.9775C42.9992 27.941 43.5559 28.3811 43.8116 28.8886C44.0634 29.3882 44.0846 30.0627 43.6872 30.6244C42.5994 32.162 41.9323 34.0582 41.1819 36.2089ZM27.0838 33.3169C27.7667 33.2734 28.4515 33.2512 29.1368 33.2512C32.8936 33.2512 36.1325 33.9694 39.0642 35.2037C39.6341 33.5666 40.2428 31.8778 41.0935 30.3755C34.929 30.7633 30.5536 31.6767 27.0838 33.3169ZM23.6693 78.0681C27.0189 80.4254 32.2109 82.4931 41.0888 82.9649C40.3328 81.3927 39.5307 79.5221 38.8757 77.5581C36.3969 78.2855 33.6154 78.6657 30.4091 78.6657C28.1143 78.6657 25.8555 78.4589 23.6693 78.0681ZM67.414 64.1424C67.8562 64.8424 68.3279 65.4946 68.802 66.0879C67.5198 66.1848 65.7804 66.2509 63.4539 66.2509C60.4191 66.2509 58.1813 64.942 56.483 63.0943C56.0115 62.582 55.335 62.3071 54.6393 62.346C53.9437 62.3848 53.3018 62.7326 52.8901 63.2946C49.7331 67.6032 46.8207 70.8218 43.3903 72.9893C40.0144 75.1226 35.977 76.3367 30.4091 76.3367C22.8316 76.3367 15.7185 73.9379 10.5494 70.1386C5.3711 66.3331 2.32895 61.2855 2.32895 55.9584C2.32895 50.6329 5.40687 45.5775 10.4672 41.7627C15.5159 37.9557 22.3087 35.5801 29.1368 35.5801C39.3362 35.5801 45.3069 41.3 53.0317 48.8582L53.1416 48.9669C53.9876 49.7945 55.32 49.855 56.2388 49.1098C57.8674 47.7869 60.1746 46.7653 63.4539 46.7653C65.754 46.7653 67.4802 46.8294 68.7581 46.9244C68.306 47.4782 67.8556 48.0851 67.4311 48.7372C66.1067 50.7711 64.9196 53.4277 64.9196 56.3978C64.9196 59.3587 66.0999 62.0618 67.414 64.1424Z" fill="#1A1A1A"/>
<path d="M72.3275 45.1178C73.239 45.4095 73.2487 45.7337 72.9405 45.9587L72.3275 45.1178Z" fill="#1A1A1A"/>
<path d="M51.619 56.2922C50.8597 59.0699 36.2386 66.6824 31.2438 65.3192C26.2505 63.956 27.7457 55.3094 28.5034 52.5302C29.2626 49.7525 31.7826 46.2669 36.7774 47.6301C41.7722 48.9933 52.3767 53.513 51.619 56.2922Z" fill="#444444"/>
<path d="M21.1468 52.0259C21.6564 51.8737 22.2069 52.1385 22.4517 52.6898C22.6965 53.2422 22.5536 53.899 22.1378 54.2653L21.9434 54.4015L20.7835 55.052L21.8598 55.8445L22.0389 56.0076C22.4136 56.4261 22.4894 57.0975 22.189 57.6138C21.8883 58.1301 21.3101 58.3206 20.8193 58.1012L20.6163 57.9822L17.8872 55.9693C17.5476 55.7187 17.3518 55.2836 17.3755 54.8275C17.3995 54.3712 17.6395 53.9627 18.0032 53.7587L20.9302 52.118L21.1468 52.0259Z" fill="#D9D9D9"/>
<path d="M6.37763 52.0259C5.86805 51.8737 5.31755 52.1385 5.07276 52.6898C4.82791 53.2422 4.97078 53.899 5.38661 54.2653L5.58106 54.4015L6.74094 55.052L5.66464 55.8445L5.48554 56.0076C5.11081 56.4261 5.03505 57.0975 5.33544 57.6138C5.63608 58.1301 6.21432 58.3206 6.70512 58.1012L6.9081 57.9822L9.63724 55.9693C9.97683 55.7187 10.1726 55.2836 10.149 54.8275C10.1249 54.3712 9.88491 53.9627 9.52125 53.7587L6.59425 52.118L6.37763 52.0259Z" fill="#D9D9D9"/>
<path d="M16.2878 57.6874C16.9308 57.6876 17.4523 58.2089 17.4523 58.8519C17.4523 59.4949 16.9308 60.0162 16.2878 60.0164H11.5541C10.911 60.0164 10.3896 59.495 10.3896 58.8519C10.3897 58.2088 10.911 57.6874 11.5541 57.6874H16.2878Z" fill="#D9D9D9"/>
</svg>
