<svg width="75" height="86" viewBox="0 0 75 86" fill="none" xmlns="http://www.w3.org/2000/svg">
<path d="M38.868 82.8438C68.1747 81.5675 71.6411 60.1955 66.1288 49.3302C60.6165 38.4649 44.9735 35.2339 38.868 35.7649C22.7777 37.5287 17.2038 42.8123 11.4705 51.7384C10.4629 53.3081 9.60877 54.9927 9.0593 56.7752C1.90089 79.9854 25.7343 84.3825 38.868 82.8438Z" fill="#FFA629"/>
<path d="M38.767 34.6046C42.0294 34.3209 47.6472 35.0372 53.1455 37.1898C58.6473 39.3437 64.2315 43.0154 67.1677 48.8027C70.0846 54.5523 70.6176 63.0246 66.5718 70.2514C62.4916 77.5396 53.8889 83.3413 38.9717 84.0037C32.2669 84.7835 22.7665 84.0708 15.7792 80.1025C12.2534 78.1 9.3183 75.2387 7.76591 71.2825C6.21366 67.3263 6.10003 62.4191 7.94634 56.4324C8.53444 54.5247 9.44153 52.7431 10.4906 51.1089C13.3906 46.5938 16.3258 42.8779 20.654 40.0873C24.9796 37.2985 30.5908 35.5011 38.7412 34.6076L38.8671 35.7675L38.8686 35.7645L38.7412 34.6076L38.7549 34.6061L38.767 34.6046ZM52.2964 39.358C47.0836 37.3173 41.8416 36.6798 38.9929 36.9214L38.9944 36.9229C31.0551 37.7933 25.8341 39.5194 21.917 42.0448C18.0027 44.5684 15.2841 47.9568 12.4511 52.3674C11.6055 53.6846 10.8857 55.0656 10.3769 56.5006L10.1722 57.1177C8.43945 62.7359 8.62054 67.0839 9.93413 70.4319C11.2477 73.7792 13.7496 76.2728 16.9286 78.0783C23.3406 81.72 32.3049 82.4398 38.7321 81.6869L38.7746 81.6824L38.817 81.6809L40.1437 81.6081C53.6556 80.7101 61.0556 75.3382 64.5401 69.1143C68.1759 62.6198 67.6858 54.9721 65.0905 49.8565C62.5143 44.7789 57.5203 41.4031 52.2964 39.358Z" fill="#1A1A1A"/>
<path d="M50.4484 72.0048C56.3825 62.9856 55.8459 53.6884 54.4035 46.8832C54.02 45.0744 55.3146 43.3619 56.8575 44.382C60.1619 46.5666 63.2012 52.4323 64.6616 59.09C65.1029 61.1007 65.1088 63.2262 64.2845 65.1142C61.9004 70.5702 56.3963 74.1273 52.2617 75.6473C49.4291 76.6891 48.7895 74.5263 50.4484 72.0048Z" fill="#F79722"/>
<path d="M38.0309 45.0264C40.6034 45.0264 42.6888 44.1574 42.6888 43.0856C42.6888 42.0137 40.6034 41.1448 38.0309 41.1448C35.4585 41.1448 33.373 42.0137 33.373 43.0856C33.373 44.1574 35.4585 45.0264 38.0309 45.0264Z" fill="#14AE5C"/>
<path d="M40.3459 64.5079C40.3459 65.7941 39.3032 66.8369 38.0169 66.8369C36.7307 66.8369 35.688 65.7941 35.688 64.5079C35.688 63.2217 36.7307 62.179 38.0169 62.179C39.3032 62.179 40.3459 63.2217 40.3459 64.5079Z" fill="#FFAFA3"/>
<path d="M39.1813 64.5081C39.1813 63.8649 38.66 63.3436 38.0169 63.3436C37.3737 63.3436 36.8524 63.8649 36.8524 64.5081C36.8524 65.1512 37.3737 65.6725 38.0169 65.6725C38.66 65.6725 39.1813 65.1512 39.1813 64.5081ZM41.5103 64.5081C41.5103 66.4374 39.9462 68.0015 38.0169 68.0015C36.0875 68.0015 34.5234 66.4374 34.5234 64.5081C34.5234 62.5787 36.0875 61.0146 38.0169 61.0146C39.9462 61.0146 41.5103 62.5787 41.5103 64.5081Z" fill="#1A1A1A"/>
<path d="M47.3093 58.0218C47.8099 57.4387 48.6885 57.3708 49.2716 57.8714C49.8545 58.372 49.9205 59.2506 49.4202 59.8337C47.8964 61.6087 46.1346 62.1271 44.5081 61.8159C43.0123 61.5298 41.8407 60.5841 41.1995 59.8265C40.7031 59.2399 40.776 58.3625 41.3626 57.866C41.9492 57.3695 42.8266 57.4425 43.3231 58.0291C43.6914 58.4643 44.3418 58.9498 45.0299 59.0818C45.5876 59.1885 46.3739 59.1115 47.3093 58.0218Z" fill="#1A1A1A"/>
<path d="M27.8064 58.0218C27.3058 57.4387 26.4272 57.3708 25.8441 57.8714C25.2612 58.372 25.1952 59.2506 25.6955 59.8337C27.2194 61.6087 28.9811 62.1271 30.6076 61.8159C32.1034 61.5298 33.275 60.5841 33.9162 59.8265C34.4127 59.2399 34.3397 58.3625 33.7531 57.866C33.1665 57.3695 32.2891 57.4425 31.7926 58.0291C31.4243 58.4643 30.7739 58.9498 30.0858 59.0818C29.5281 59.1885 28.7419 59.1115 27.8064 58.0218Z" fill="#1A1A1A"/>
</svg>
