<svg width="75" height="86" viewBox="0 0 75 86" fill="none" xmlns="http://www.w3.org/2000/svg">
<path d="M52.0646 50.3987C59.3795 50.3987 65.5528 55.2739 67.5288 61.9503C68.9293 62.7576 69.8683 64.2326 69.8683 65.925C69.8683 67.1205 69.3968 68.2074 68.6281 69.0303C69.3968 69.8532 69.8683 70.94 69.8683 72.1355C69.8683 73.5484 69.2091 74.8215 68.1732 75.6755C68.2625 76.0326 68.3157 76.4053 68.3157 76.7934C68.3157 79.3708 66.2304 81.4513 63.6578 81.4513C62.8071 81.4513 62.0122 81.2184 61.3258 80.8147C60.4628 82.3673 58.9665 83.3921 57.2638 83.3921C56.8582 83.3921 56.4637 83.3299 56.0872 83.2212C55.2068 84.277 53.9736 84.9447 52.6059 84.9447C51.4236 84.9447 50.34 84.4478 49.4992 83.6249C48.6586 84.4478 47.5772 84.9447 46.3953 84.9447C45.213 84.9447 44.1294 84.4478 43.2887 83.6249C42.4481 84.4478 41.3667 84.9447 40.1848 84.9447C38.596 84.9447 37.1862 84.0442 36.3032 82.6779C35.4206 84.0442 34.0105 84.9447 32.4217 84.9447C31.2393 84.9447 30.1558 84.4478 29.315 83.6249C28.4744 84.4478 27.393 84.9447 26.2111 84.9447C24.5849 84.9447 23.147 84.0131 22.269 82.5847C22.0991 82.5537 21.9307 82.5381 21.7625 82.5071C20.9401 83.5318 19.7777 84.1684 18.4829 84.1684C17.1669 84.1684 15.9867 83.5163 15.1623 82.4605C14.5853 82.802 13.9155 83.0039 13.1973 83.0039C11.0536 83.0039 9.31571 81.265 9.31571 79.1224C9.31571 78.1287 9.68791 77.2281 10.2967 76.5449C8.81833 76.0015 7.76308 74.5732 7.76308 72.9118C7.76308 72.415 7.85689 71.9492 8.02388 71.5144C6.98 71.1884 6.21045 70.086 6.21045 68.7662C6.21048 68.5644 6.22782 68.3781 6.262 68.1762C6.22697 67.9589 6.21045 67.7105 6.21045 67.4776C6.21045 65.9871 6.90881 64.6673 7.99355 63.8133C9.28371 56.2055 15.9093 50.3987 23.8929 50.3987H52.0646Z" fill="white"/>
<path d="M22.501 80.2565C23.134 80.3245 23.7102 80.6414 24.0991 81.1359L24.2537 81.3588L24.4615 81.6621C24.9691 82.3189 25.6148 82.6157 26.2112 82.6158V84.9447C24.5843 84.9446 23.1462 84.0136 22.269 82.5855C22.0982 82.5544 21.9302 82.5377 21.7625 82.5066L22.0673 80.2095C22.2754 80.225 22.3798 80.241 22.501 80.2565Z" fill="#1A1A1A"/>
<path d="M29.3104 83.6286C28.471 84.449 27.3907 84.9447 26.2112 84.9447V82.6158C26.7158 82.6158 27.2331 82.3985 27.691 81.9638L29.3104 83.6286Z" fill="#1A1A1A"/>
<path d="M30.9388 81.9638C31.3968 82.3985 31.9141 82.6157 32.4217 82.6158V84.9447C31.2402 84.9447 30.1574 84.4496 29.318 83.6286L30.9388 81.9638Z" fill="#1A1A1A"/>
<path d="M36.3033 80.349C37.0951 80.349 37.8338 80.7534 38.2623 81.421C38.7901 82.2436 39.5174 82.6157 40.1849 82.6158V84.9447C38.5966 84.9446 37.1852 84.0442 36.3033 82.678C35.4198 84.0442 34.01 84.9447 32.4217 84.9447V82.6158C33.0892 82.6158 33.8149 82.2436 34.3443 81.421L34.5187 81.1829C34.9577 80.6583 35.609 80.3491 36.3033 80.349Z" fill="#1A1A1A"/>
<path d="M43.2841 83.6286C42.4447 84.449 41.3644 84.9447 40.1849 84.9447V82.6158C40.6894 82.6158 41.2067 82.3985 41.6647 81.9638L43.2841 83.6286Z" fill="#1A1A1A"/>
<path d="M44.9125 81.9638C45.3705 82.3985 45.8878 82.6157 46.3954 82.6158V84.9447C45.2139 84.9447 44.1311 84.4496 43.2917 83.6286L44.9125 81.9638Z" fill="#1A1A1A"/>
<path d="M49.4946 83.6286C48.6552 84.449 47.5749 84.9447 46.3954 84.9447V82.6158C46.9 82.6158 47.4173 82.3985 47.8753 81.9638L49.4946 83.6286Z" fill="#1A1A1A"/>
<path d="M51.123 81.9638C51.581 82.3985 52.0983 82.6157 52.6059 82.6158V84.9447C51.4245 84.9447 50.3416 84.4496 49.5022 83.6286L51.123 81.9638Z" fill="#1A1A1A"/>
<path d="M54.295 81.7303C54.8881 81.0161 55.8465 80.7219 56.7362 80.9858C56.91 81.0324 57.0854 81.0631 57.2638 81.0632V83.3921C56.8587 83.3921 56.4644 83.3294 56.0872 83.2208C55.2069 84.2766 53.9738 84.9447 52.6059 84.9447V82.6158C53.1835 82.6158 53.792 82.3358 54.295 81.7303Z" fill="#1A1A1A"/>
<path d="M13.9797 80.4582C14.9198 79.9052 16.1097 80.0745 16.8484 80.8524L16.9909 81.0162L17.1638 81.2163C17.5781 81.6491 18.048 81.8395 18.4829 81.8395V84.1684L18.2373 84.1608C17.0212 84.0853 15.9352 83.4508 15.1623 82.4611C14.5849 82.8025 13.9159 83.0039 13.1973 83.0039V80.675C13.4766 80.675 13.7407 80.5978 13.9797 80.4582Z" fill="#1A1A1A"/>
<path d="M21.758 82.5112C20.9354 83.5329 19.7755 84.1683 18.4829 84.1684V81.8395C18.9717 81.8393 19.5021 81.6064 19.9521 81.048L21.758 82.5112Z" fill="#1A1A1A"/>
<path d="M27.691 81.9638C28.5946 81.0788 30.0352 81.0789 30.9388 81.9638L29.3149 83.6256L27.691 81.9638Z" fill="#1A1A1A"/>
<path d="M41.6647 81.9638C42.5683 81.0788 44.0089 81.0789 44.9125 81.9638L43.2886 83.6256L41.6647 81.9638Z" fill="#1A1A1A"/>
<path d="M47.8753 81.9638C48.7789 81.0788 50.2194 81.0789 51.123 81.9638L49.4992 83.6256L47.8753 81.9638Z" fill="#1A1A1A"/>
<path d="M61.3213 80.8206C60.4575 82.3696 58.9632 83.3921 57.2638 83.3921V81.0632C57.9733 81.0632 58.7646 80.6289 59.2941 79.6819L61.3213 80.8206Z" fill="#1A1A1A"/>
<path d="M7.99203 63.8129L9.43398 65.646C8.88283 66.0807 8.5394 66.7324 8.5394 67.4776C8.5394 67.5472 8.54123 67.6091 8.54546 67.6672L8.56366 67.8355L8.58488 68.0235C8.5982 68.2141 8.58793 68.4089 8.55304 68.5951L6.28323 68.1797L6.26049 68.1842L8.55304 68.5951C8.54528 68.6417 8.5394 68.7043 8.5394 68.7664C8.53943 68.9682 8.6002 69.1236 8.65918 69.2168C8.69038 69.2624 8.71516 69.2856 8.72741 69.2956L8.71831 69.2941C9.33301 69.4805 9.83986 69.9312 10.1208 70.5056C10.4002 71.0798 10.4293 71.747 10.1982 72.3523C10.1283 72.5387 10.092 72.7255 10.092 72.9118C10.092 73.4823 10.4089 73.9939 10.8896 74.2689L11.1064 74.372L11.3672 74.4857C11.9574 74.7885 12.3928 75.3344 12.5559 75.9868C12.7419 76.7318 12.548 77.5231 12.0374 78.0974L10.2982 76.5463L10.2967 76.5523L12.0374 78.0974C11.7889 78.3769 11.6447 78.7342 11.6447 79.1224C11.6447 79.9763 12.3402 80.675 13.1973 80.675V83.0039C11.0531 83.0039 9.31571 81.265 9.31571 79.1224C9.31571 78.1287 9.6881 77.2279 10.2967 76.5448C8.81876 76.0013 7.76308 74.5731 7.76308 72.9118C7.76308 72.415 7.85619 71.9486 8.02387 71.5139C7.0457 71.2081 6.30782 70.2204 6.21955 69.0106L6.21045 68.7664C6.21045 68.5647 6.22788 68.3783 6.262 68.1766C6.22784 67.9592 6.21045 67.7105 6.21045 67.4776C6.21045 65.9872 6.90847 64.6668 7.99203 63.8129Z" fill="#1A1A1A"/>
<path d="M22.0673 80.2095L21.7625 82.5066L19.9521 81.048C20.4629 80.4115 21.2631 80.1009 22.0673 80.2095Z" fill="#1A1A1A"/>
<path d="M62.4949 78.8115C62.8442 79.0134 63.2386 79.1224 63.6578 79.1224V81.4513C62.8082 81.4513 62.0145 81.2186 61.3289 80.816L62.4949 78.8115Z" fill="#1A1A1A"/>
<path d="M65.9868 76.7934C65.9868 76.7079 65.9808 76.6184 65.9686 76.525L65.9125 76.2339L65.8776 76.0702C65.7359 75.2513 66.0428 74.4131 66.6918 73.8747L68.1717 75.6744L68.1732 75.676C68.2632 76.0329 68.3157 76.4055 68.3157 76.7934C68.3157 79.3708 66.2305 81.4513 63.6578 81.4513V79.1224C64.9434 79.1224 65.9868 78.0821 65.9868 76.7934Z" fill="#1A1A1A"/>
<path d="M60.7087 78.5796C61.3111 78.4088 61.9546 78.4856 62.4949 78.8115L61.3258 80.8145L59.2941 79.6819C59.5983 79.1387 60.1082 78.735 60.7087 78.5796Z" fill="#1A1A1A"/>
<path d="M67.5394 72.1355C67.5394 71.5766 67.3212 71.048 66.9253 70.6132C66.0916 69.7282 66.0916 68.3323 66.9253 67.4473C67.3212 67.0126 67.5394 66.4839 67.5394 65.925C67.5394 65.2319 67.204 64.5745 66.6206 64.1298L66.3567 63.9539L66.1702 63.8341C65.752 63.5366 65.4421 63.1054 65.2954 62.6029L67.5227 61.9524L67.5258 61.9449C67.5263 61.9468 67.5282 61.949 67.5288 61.9509C68.929 62.7584 69.8683 64.2328 69.8683 65.925C69.8683 67.1205 69.3965 68.2074 68.6281 69.0303C69.3965 69.8531 69.8683 70.9401 69.8683 72.1355C69.8683 73.5466 69.2095 74.8175 68.1762 75.6714L66.6918 73.8747C67.2321 73.4244 67.5394 72.8032 67.5394 72.1355Z" fill="#1A1A1A"/>
<path d="M52.7469 50.4123C59.7591 50.7045 65.6099 55.4785 67.5258 61.9418L65.2954 62.6029C63.603 56.8893 58.3185 52.7278 52.0646 52.7276H23.8929C17.0648 52.7279 11.3932 57.6959 10.2891 64.201C10.1929 64.7755 9.88735 65.2889 9.43398 65.646L7.99203 63.8129C9.28248 56.2054 15.9097 50.3989 23.8929 50.3987H52.0646L52.7469 50.4123Z" fill="#1A1A1A"/>
<path d="M36.8709 30.2144C52.6266 30.2144 64.9571 41.9056 70.8079 48.7217C73.3037 51.6251 73.8105 55.6309 72.5866 59.264L71.7398 61.7793C70.6694 64.9622 67.2721 66.7012 64.1316 65.5367C55.2847 62.2296 45.9853 57.8823 37.1085 57.8823C29.261 57.8823 19.5155 62.5091 10.7939 65.7075C7.78678 66.8099 4.54744 65.1951 3.38639 62.2141L2.26455 59.3262C0.839818 55.662 1.2163 51.532 3.7283 48.5198C9.41835 41.6727 21.2732 30.2144 36.8709 30.2144Z" fill="#BD2915"/>
<path d="M26.3949 60.1025C26.3949 52.3393 24.8423 39.9135 24.8423 34.4793L26.3949 33.703L38.0397 32.1504L48.1318 33.703C48.1318 42.3978 49.4256 54.6683 49.6844 60.1025L45.0265 59.3262L35.7107 58.5499L26.3949 60.1025Z" fill="#2C2C2C"/>
<path d="M36.8716 30.2144C52.6259 30.2146 64.9552 41.9045 70.8066 48.7231C73.3023 51.6282 73.8104 55.6291 72.5866 59.2625L71.7406 61.778L70.3441 61.3079L71.7391 61.7795C70.6724 64.9365 67.2942 66.6995 64.1093 65.655C63.8724 65.5822 63.6352 65.5067 63.4088 65.4336C63.1796 65.3596 62.959 65.2895 62.7402 65.2229L62.7159 65.2138L63.0798 64.1084L63.0874 64.0857L62.7159 65.2138C54.2181 62.4208 45.2774 59.4977 36.8716 59.4975C32.9549 59.4975 28.6063 60.3659 24.1594 61.5975L24.1579 61.596C20.8022 62.5346 17.3746 63.6606 14.0354 64.7634L10.8316 65.8218C7.7836 66.812 4.54747 65.1903 3.38688 62.2177L4.68629 61.7112L4.29359 61.8629L3.38688 62.2177L2.26486 59.3292C0.840134 55.6635 1.21708 51.5367 3.72955 48.5199C9.42028 41.671 21.2748 30.2144 36.8716 30.2144ZM36.8716 32.5433C22.3869 32.5433 11.1356 43.2504 5.52023 50.0089L5.51871 50.0104L4.64384 49.2811L4.3042 48.9991L5.51871 50.0104C3.6348 52.2725 3.26479 55.4743 4.4346 58.4847L5.55662 61.3716L5.70824 61.7112C6.53649 63.3561 8.39948 64.1625 10.1114 63.6065C11.1578 63.2661 12.2192 62.9115 13.3046 62.5528C16.6397 61.4512 20.1186 60.3089 23.5347 59.3535H23.5377C28.0595 58.1011 32.6443 57.1686 36.8716 57.1686C45.72 57.1687 55.0301 60.2363 63.4437 63.0016C63.6753 63.0724 63.9047 63.1459 64.1245 63.2169L64.7932 63.4291L64.8053 63.4337L64.8189 63.4382C66.7571 64.0832 68.861 63.0223 69.5329 61.0335L70.379 58.5196C71.3203 55.7253 70.9723 52.8174 69.3768 50.6624L69.0417 50.2409C63.2535 43.4957 51.526 32.5436 36.8716 32.5433Z" fill="#1A1A1A"/>
<path d="M40.1247 69.6453C40.7677 69.6454 41.2892 70.1667 41.2892 70.8097C41.2892 71.4528 40.7677 71.9741 40.1247 71.9742H35.391C34.7479 71.9742 34.2266 71.4529 34.2266 70.8097C34.2266 70.1666 34.7479 69.6453 35.391 69.6453H40.1247Z" fill="#1A1A1A"/>
<path d="M47.0207 69.4956C47.5213 70.0323 48.3999 70.0948 48.983 69.634C49.5659 69.1732 49.632 68.3644 49.1316 67.8277C47.6078 66.1938 45.846 65.7167 44.2195 66.003C42.7237 66.2665 41.5522 67.137 40.911 67.8344C40.4145 68.3743 40.4875 69.182 41.074 69.639C41.6607 70.096 42.538 70.0288 43.0345 69.4889C43.4029 69.0883 44.0532 68.6414 44.7413 68.5199C45.2991 68.4216 46.0853 68.4925 47.0207 69.4956Z" fill="#1A1A1A"/>
<path d="M31.4944 69.4956C31.995 70.0323 32.8736 70.0948 33.4567 69.634C34.0396 69.1732 34.1056 68.3644 33.6052 67.8277C32.0814 66.1938 30.3197 65.7167 28.6931 66.003C27.1974 66.2665 26.0258 67.137 25.3846 67.8344C24.8881 68.3743 24.9611 69.182 25.5477 69.639C26.1343 70.096 27.0117 70.0288 27.5082 69.4889C27.8765 69.0883 28.5269 68.6414 29.215 68.5199C29.7727 68.4216 30.5589 68.4925 31.4944 69.4956Z" fill="#1A1A1A"/>
</svg>
