<svg width="75" height="86" viewBox="0 0 75 86" fill="none" xmlns="http://www.w3.org/2000/svg">
<path d="M36.1528 16.1202V15.8966C36.1575 15.1235 36.2258 14.5086 36.3578 14.0506C36.4944 13.5911 36.6932 13.2216 36.954 12.939C37.2133 12.6565 37.527 12.4003 37.8934 12.1705C38.1667 11.9951 38.412 11.8119 38.6278 11.6224C38.8437 11.433 39.016 11.2234 39.1433 10.9937C39.2722 10.7592 39.3359 10.5 39.3359 10.2127C39.3359 9.90845 39.2629 9.64143 39.1169 9.41165C38.9725 9.18343 38.7753 9.00639 38.5285 8.88374C38.2862 8.75954 38.0161 8.69744 37.7211 8.69744C37.4338 8.69744 37.1636 8.76114 36.9074 8.89C36.6512 9.01265 36.4416 9.19896 36.2786 9.44581C36.1156 9.68801 36.0271 9.99073 36.0146 10.3525H33.3145C33.3362 9.46907 33.5489 8.74246 33.9495 8.16802C34.3517 7.59047 34.8827 7.16043 35.5441 6.87787C36.2056 6.5922 36.9354 6.44785 37.735 6.44785C38.6123 6.44785 39.3886 6.59376 40.0641 6.88564C40.738 7.1713 41.2674 7.58893 41.6509 8.13542C42.036 8.68192 42.227 9.34178 42.227 10.1134C42.227 10.6304 42.1416 11.0884 41.9693 11.4889C41.8016 11.8864 41.5656 12.2388 41.2612 12.5478C40.9569 12.8521 40.5967 13.1284 40.1821 13.3753C39.8343 13.5818 39.547 13.7991 39.3219 14.0242C39.1014 14.2478 38.9368 14.5086 38.8266 14.8036C38.721 15.1002 38.6651 15.4635 38.6604 15.8966V16.1202H36.1528ZM37.4633 20.3555C37.0223 20.3555 36.645 20.2003 36.3314 19.8913C36.0224 19.5793 35.8702 19.2036 35.8749 18.7673C35.8702 18.3357 36.0224 17.9646 36.3314 17.6557C36.645 17.3467 37.0223 17.193 37.4633 17.193C37.8825 17.193 38.2505 17.3467 38.5688 17.6557C38.8856 17.9646 39.0471 18.3357 39.0517 18.7673C39.0471 19.0576 38.9694 19.3246 38.8204 19.5684C38.6744 19.8059 38.4819 19.9984 38.2443 20.1428C38.0052 20.2841 37.7459 20.3555 37.4633 20.3555Z" fill="white"/>
<path d="M37.464 17.193C37.023 17.193 36.6457 17.3467 36.3321 17.6557C36.0246 17.9646 35.8724 18.3357 35.8755 18.7673C35.8724 19.2035 36.0246 19.5793 36.3321 19.8913C36.6069 20.1615 36.9298 20.3151 37.3009 20.3477L37.464 20.3539C37.6751 20.3539 37.8739 20.3151 38.0618 20.236L38.245 20.1444C38.4825 19.9984 38.6735 19.8059 38.8195 19.5684C38.9313 19.3852 39.0043 19.1896 39.0353 18.9815L39.0508 18.7673C39.0462 18.3357 38.8862 17.9646 38.5695 17.6557C38.2512 17.3467 37.8832 17.193 37.464 17.193ZM39.3241 10.4239C39.3008 10.6288 39.2403 10.8182 39.144 10.9937L39.0415 11.1613C38.9282 11.3259 38.79 11.4796 38.6285 11.6209C38.4127 11.8103 38.1673 11.9951 37.8941 12.172C37.5276 12.4018 37.214 12.6565 36.9547 12.939C36.6938 13.2216 36.4951 13.5911 36.3584 14.0506C36.2265 14.5086 36.1581 15.1234 36.1535 15.8951V16.1217H38.6611V15.8951C38.6658 15.4635 38.7217 15.0986 38.8272 14.8036C38.9375 14.5086 39.1021 14.2478 39.3226 14.0227C39.4918 13.855 39.6952 13.6904 39.9343 13.5321L40.1828 13.3753C40.4933 13.1905 40.7743 12.9887 41.0228 12.7714L41.2619 12.5478C41.5662 12.2388 41.8022 11.8864 41.9699 11.4889C42.0988 11.1893 42.1796 10.8555 42.2122 10.4906L42.2277 10.1149C42.2277 9.43959 42.0802 8.84961 41.7867 8.34659L41.6516 8.13541C41.3162 7.65723 40.8691 7.27842 40.3101 6.99896L40.0647 6.88563C39.3893 6.59375 38.613 6.44784 37.7357 6.44784C36.9376 6.44784 36.2063 6.5922 35.5448 6.87942L35.3026 6.99119C34.7529 7.27065 34.3011 7.66345 33.9502 8.16958C33.5496 8.74247 33.3369 9.47062 33.3151 10.3525H36.0137L36.0386 10.0916C36.0634 9.92551 36.1069 9.77493 36.1706 9.63831L36.2793 9.4458C36.4019 9.26105 36.551 9.11043 36.7249 8.99399L36.9081 8.88999C37.1628 8.76113 37.4345 8.699 37.7217 8.699C38.0167 8.699 38.2854 8.75953 38.5276 8.88373L38.7046 8.98622C38.8707 9.09955 39.0089 9.24086 39.1176 9.41164C39.2636 9.64142 39.3365 9.90844 39.3365 10.2127L39.3241 10.4239ZM44.5567 10.1149C44.5567 10.885 44.4263 11.6597 44.1127 12.3941L44.1158 12.3956C43.8332 13.0663 43.431 13.6671 42.9218 14.1841L42.9093 14.1966L42.9078 14.195C42.4513 14.6499 41.9342 15.0412 41.3737 15.375C41.192 15.4837 41.0771 15.5752 41.0104 15.6342C41.0104 15.6389 41.0104 15.6436 41.0088 15.6482C41.001 15.7057 40.9917 15.7941 40.9902 15.9199V16.1217C40.9902 16.3779 40.9467 16.6247 40.8691 16.8561C41.1936 17.4196 41.3737 18.0593 41.3799 18.744V18.8014C41.3706 19.5047 41.1765 20.1847 40.8007 20.7933L40.7992 20.7918C40.5042 21.2715 40.1222 21.6783 39.6626 21.9981L39.4592 22.1301C39.4499 22.1347 39.4406 22.141 39.4313 22.1472C38.8273 22.5058 38.1549 22.6828 37.464 22.6828C36.5448 22.6828 35.6892 22.3832 34.9874 21.8118L34.697 21.551L34.6737 21.5261C33.944 20.7856 33.5496 19.8339 33.548 18.7905L33.5465 18.7921V18.744H33.548C33.5496 18.1043 33.6987 17.5004 33.9828 16.9601C33.8819 16.6993 33.8244 16.4167 33.8244 16.1217V15.8826L33.8431 15.2337C33.8757 14.5894 33.958 13.9668 34.121 13.4048L34.1256 13.3846L34.2126 13.116C34.2638 12.9701 34.3228 12.8257 34.3865 12.6813H33.3151C32.6878 12.6813 32.0854 12.4267 31.6475 11.978C31.2097 11.5277 30.9705 10.9207 30.9861 10.2935L31.0109 9.83702C31.0979 8.77508 31.4069 7.73953 32.0419 6.83285C32.6956 5.89356 33.5713 5.19023 34.6194 4.74154L34.9905 4.59253C35.8662 4.2696 36.7885 4.11902 37.7357 4.11902C38.8645 4.11902 39.9592 4.30683 40.9731 4.74154H40.9747C42.0088 5.18091 42.9 5.86095 43.5583 6.79869L43.8021 7.17905C44.3285 8.08263 44.5567 9.08716 44.5567 10.1149Z" fill="#1A1A1A"/>
</svg>
