<svg width="75" height="86" viewBox="0 0 75 86" fill="none" xmlns="http://www.w3.org/2000/svg">
<path d="M6.53635 59.3885C-5.86452 43.2535 7.67134 37.751 16.852 36.1999C17.2806 36.127 17.7122 36.1099 18.1469 36.1347L64.0722 38.8022C68.0485 39.2633 69.7968 39.1344 71.1522 40.6373C73.2296 42.943 71.9798 46.0498 69.4071 47.7841C68.0516 48.6986 67.5734 50.5928 68.505 51.9343C69.7921 53.785 71.4224 55.5457 72.4704 57.6744C73.2886 59.3388 72.7607 61.351 71.292 62.4828C70.6631 62.9657 70.0762 63.3011 69.4987 63.5619C67.2241 64.5898 65.2817 66.7308 66.4043 68.9604C67.0502 70.2429 67.9818 70.9634 68.7301 72.1682C77.5118 86.2925 33.0025 84.0303 11.4054 80.8272C6.33608 80.0757 0.693814 76.41 2.72466 71.704C3.52581 69.847 4.98217 68.2664 6.43078 66.7976C8.45696 64.7435 8.29392 61.6755 6.53635 59.3885Z" fill="white"/>
<path d="M18.213 34.9716L64.14 37.6402L64.1733 37.6417L64.2067 37.6448L66.7843 37.9131C67.5563 37.9929 68.2373 38.0742 68.8161 38.1861C70.0743 38.4292 71.1155 38.8578 72.0168 39.857L71.0813 40.7015L71.1526 40.6378L72.0184 39.8585C73.3476 41.3343 73.6203 43.1135 73.1419 44.7514C72.6769 46.3433 71.5229 47.7605 70.0579 48.7482L70.0594 48.7497C69.1686 49.3507 68.9495 50.5316 69.462 51.2697L67.5485 52.5979C66.1984 50.6532 66.9355 48.046 68.7554 46.818C69.8626 46.0715 70.6217 45.0692 70.9054 44.0979C71.1755 43.1728 71.0343 42.2467 70.2868 41.4172C69.833 40.9141 69.3229 40.6558 68.3748 40.4726C67.3331 40.2712 66.0491 40.2012 63.9853 39.9631L18.0796 37.2976C17.7199 37.2771 17.3778 37.2916 17.0485 37.3476C14.8114 37.7256 12.3321 38.3415 10.0708 39.2838C7.80011 40.2302 5.82279 41.4752 4.49707 43.0699C3.20001 44.6301 2.49025 46.5635 2.7822 49.0393C3.07992 51.5626 4.43039 54.7363 7.45981 58.6781C9.48409 61.3125 9.78745 65.0521 7.25966 67.6148C5.80609 69.0886 4.49835 70.5314 3.79353 72.165C3.39395 73.091 3.38657 73.9148 3.6222 74.6578C3.86524 75.4235 4.39216 76.179 5.17786 76.8806C6.76398 78.2968 9.21595 79.3251 11.5764 79.675C22.3283 81.2696 38.7674 82.6253 51.3869 81.8326C57.7386 81.4336 62.9349 80.4995 65.9731 78.9002C67.4811 78.1064 68.2819 77.24 68.5674 76.365C68.8422 75.5222 68.7313 74.3766 67.741 72.7837L69.7197 71.554C70.9241 73.4914 71.3436 75.3642 70.7811 77.0883C70.2289 78.7804 68.8244 80.0305 67.0572 80.9608C63.5449 82.8095 57.9097 83.7564 51.5324 84.157C38.6936 84.9634 22.0803 83.5881 11.2352 81.9797C8.52642 81.5781 5.62137 80.3976 3.62675 78.6167C2.62264 77.72 1.80463 76.6293 1.40242 75.3613C0.992933 74.0701 1.04004 72.67 1.65563 71.2432C2.55312 69.1629 4.15878 67.444 5.60241 65.9803C7.12683 64.4349 7.10361 62.0369 5.61302 60.0973C2.44261 55.9721 0.835057 52.4069 0.469931 49.3123C0.0993761 46.1705 1.02223 43.6068 2.70639 41.5809C4.36196 39.5895 6.7147 38.1596 9.17619 37.1338C11.6468 36.1043 14.3046 35.4511 16.6573 35.0535C17.1841 34.9639 17.7043 34.9426 18.213 34.9716ZM73.5164 57.1603C74.5935 59.3514 73.8844 61.956 72.0032 63.4057C71.2992 63.9463 70.6319 64.3262 69.9775 64.6217L69.979 64.6233C68.9809 65.0743 68.1225 65.744 67.6455 66.4579C67.1962 67.1308 67.1122 67.7749 67.4454 68.4366L67.6516 68.8081C67.871 69.1663 68.1271 69.4907 68.4249 69.8497C68.8087 70.3126 69.2932 70.8673 69.7197 71.554L67.741 72.7837C67.4193 72.2658 67.063 71.8561 66.6327 71.3372C66.2154 70.834 65.7502 70.249 65.3651 69.4843C64.5758 67.9167 64.8998 66.3748 65.7093 65.163C66.4915 63.9923 67.7429 63.0773 69.0192 62.5005C69.5199 62.2744 70.0289 61.984 70.5825 61.5589C71.6377 60.7448 71.9845 59.3256 71.4255 58.1883L73.5164 57.1603ZM69.462 51.2697C70.094 52.1784 70.7714 53.0128 71.5104 54.0035C72.224 54.9601 72.9452 56.0002 73.5164 57.1603L71.4255 58.1883C70.9487 57.2201 70.3291 56.3154 69.6439 55.3969C68.9845 54.513 68.2048 53.541 67.55 52.5995L69.462 51.2697Z" fill="#1A1A1A"/>
<path d="M57.7298 33.6721C40.5841 21.3286 25.3279 27.8358 16.7186 35.5834C13.6723 38.3253 12.0405 42.5701 13.5326 46.3865C17.5306 56.6184 31.3444 59.3852 38.8156 59.3852C49.9045 58.9923 56.8541 54.1326 60.8599 49.026C64.6887 44.1461 62.7634 37.2975 57.7298 33.6721Z" fill="#FF99E0"/>
<path d="M33.8507 25.9424C41.2004 24.8427 49.605 26.3881 58.4107 32.7275C63.8238 36.6266 66.1229 44.2031 61.7753 49.7443C57.5715 55.1033 50.3105 60.1432 38.8573 60.5491L38.8148 59.3634V59.3846L38.8573 60.5491H38.8148C34.9621 60.549 29.4883 59.8402 24.4363 57.8031C19.3893 55.768 14.608 52.3398 12.4474 46.8104C10.729 42.4146 12.6473 37.6817 15.9393 34.7184C20.3661 30.7347 26.5353 27.0368 33.8507 25.9424ZM57.0492 34.6168C48.7094 28.6129 40.9119 27.2406 34.1948 28.2455C27.4439 29.2557 21.6804 32.6848 17.498 36.4484C14.6977 38.9689 13.3517 42.7261 14.6171 45.9628C16.4546 50.6651 20.5796 53.7363 25.3066 55.6425C30.0242 57.5448 35.1878 58.2174 38.8057 58.2186C49.5114 57.8306 56.1397 53.1563 59.9437 48.3069C63.1496 44.2205 61.795 38.35 57.4767 34.9397L57.0492 34.6168Z" fill="#1A1A1A"/>
<path d="M42.2952 46.2964C42.5141 45.8668 43.0402 45.6948 43.47 45.9136C43.4709 45.914 43.4725 45.9152 43.4748 45.9165C43.4803 45.9193 43.4901 45.9242 43.5022 45.9302C43.5265 45.9421 43.564 45.9591 43.6106 45.981C43.7044 46.0249 43.836 46.0856 43.9866 46.147C44.3089 46.2784 44.6401 46.3853 44.8635 46.4116C45.0772 46.4367 45.4102 46.4129 45.7415 46.3667C45.8962 46.3451 46.0341 46.3217 46.1321 46.3032C46.1806 46.294 46.2199 46.286 46.2454 46.2808C46.2572 46.2783 46.266 46.2752 46.2717 46.2739C46.2743 46.2734 46.2772 46.2741 46.2786 46.2739C46.7495 46.1697 47.2163 46.4671 47.3206 46.938C47.4243 47.4086 47.127 47.8737 46.6565 47.978L46.6516 47.98C46.6489 47.9806 46.6443 47.982 46.6399 47.9829L46.4563 48.019C46.338 48.0414 46.173 48.0708 45.9846 48.0972C45.6287 48.1469 45.108 48.1987 44.6594 48.146C44.1884 48.0906 43.6749 47.9049 43.3274 47.7632C43.1435 47.6882 42.9833 47.6173 42.8694 47.564C42.8127 47.5374 42.7663 47.5146 42.7336 47.4985C42.7173 47.4905 42.703 47.4837 42.6936 47.479C42.6893 47.4769 42.6856 47.4755 42.6829 47.4741L42.678 47.4702L42.5286 47.3755C42.2108 47.1226 42.1042 46.6725 42.2952 46.2964ZM45.219 42.3062C46.1835 42.3064 46.9651 43.0887 46.9651 44.0532C46.9649 45.0176 46.1834 45.7991 45.219 45.7993C44.2544 45.7993 43.4721 45.0177 43.4719 44.0532C43.4719 43.0885 44.2543 42.3062 45.219 42.3062Z" fill="#1A1A1A"/>
<path d="M34.1697 46.2964C33.9507 45.8668 33.4246 45.6947 32.9949 45.9136C32.994 45.9141 32.9923 45.9153 32.99 45.9165C32.9845 45.9193 32.9748 45.9242 32.9627 45.9302C32.9384 45.9421 32.9008 45.9591 32.8543 45.981C32.7604 46.0249 32.6288 46.0856 32.4783 46.147C32.1559 46.2784 31.8248 46.3853 31.6013 46.4116C31.3876 46.4367 31.0546 46.4129 30.7234 46.3667C30.5688 46.3451 30.4317 46.3217 30.3337 46.3032C30.285 46.294 30.245 46.286 30.2195 46.2808C30.2076 46.2783 30.1989 46.2752 30.1931 46.2739C30.1904 46.2734 30.1875 46.2741 30.1863 46.2739C29.7154 46.1697 29.2485 46.4671 29.1443 46.938C29.0405 47.4087 29.3386 47.8739 29.8093 47.978L29.8142 47.98C29.817 47.9806 29.8216 47.982 29.8259 47.9829L30.0085 48.019C30.1269 48.0414 30.2927 48.0708 30.4812 48.0972C30.8371 48.1469 31.3571 48.1987 31.8054 48.146C32.2764 48.0906 32.7899 47.9049 33.1375 47.7632C33.3214 47.6882 33.4815 47.6173 33.5955 47.564C33.6521 47.5374 33.6985 47.5146 33.7312 47.4985C33.7475 47.4906 33.7619 47.4837 33.7712 47.479C33.7754 47.4769 33.7793 47.4754 33.782 47.4741L33.7878 47.4702L33.9363 47.3755C34.254 47.1226 34.3606 46.6725 34.1697 46.2964ZM31.2468 42.3062C30.2821 42.3062 29.4998 43.0885 29.4998 44.0532C29.5 45.0177 30.2823 45.7993 31.2468 45.7993C32.2112 45.7991 32.9927 45.0176 32.9929 44.0532C32.9929 43.0887 32.2113 42.3064 31.2468 42.3062Z" fill="#1A1A1A"/>
<path d="M41.3262 51.8267H34.3262L37.8262 46.5767L41.3262 51.8267Z" fill="#FFAFA3"/>
<path d="M41.3268 52.9912C41.7561 52.991 42.1508 52.7541 42.3533 52.3756C42.5556 51.9972 42.5337 51.5379 42.2957 51.1808L38.7947 45.9301C38.5787 45.6066 38.2149 45.4115 37.8258 45.4115C37.4368 45.4117 37.0729 45.6064 36.857 45.9301L33.3575 51.1808C33.1193 51.538 33.0974 51.9971 33.2999 52.3756C33.5025 52.7543 33.8969 52.9912 34.3264 52.9912H41.3268ZM37.8258 48.6775L39.151 50.6623H36.5022L37.8258 48.6775Z" fill="#1A1A1A"/>
<path d="M44.2501 36.0181C47.2514 36.0181 49.6843 34.6454 49.6843 32.952C49.6843 31.2585 47.2514 29.8857 44.2501 29.8857C41.2489 29.8857 38.8159 31.2585 38.8159 32.952C38.8159 34.6454 41.2489 36.0181 44.2501 36.0181Z" fill="white"/>
</svg>
