<svg width="75" height="86" viewBox="0 0 75 86" fill="none" xmlns="http://www.w3.org/2000/svg">
<path d="M53.3818 15.0379C47.5236 14.0908 34.1337 15.0379 28.2755 30.1861L24.9619 44.1776C27.4725 42.285 33.2967 41.5476 38.3179 41.5476C55.0554 41.5476 60.2159 44.3872 65.0979 44.3872C72.6298 25.4524 59.2398 15.9834 53.3818 15.0379Z" fill="#007BE5" stroke="#1A1A1A" stroke-width="2.74597" stroke-linejoin="round"/>
<path d="M58.7803 42.7682C58.6893 43.0085 58.5932 43.2483 58.4922 43.486L57.0625 42.8795C57.1554 42.661 57.2443 42.4397 57.3281 42.2184L58.7803 42.7682ZM46.8994 40.5914C46.8763 40.8442 46.8553 41.098 46.835 41.3512L45.2881 41.2262C45.3089 40.9671 45.3308 40.7074 45.3545 40.4489L46.8994 40.5914ZM59.6475 39.8131C59.5397 40.3137 59.415 40.8117 59.2705 41.3053L57.7793 40.8698C57.9129 40.4134 58.0298 39.951 58.1299 39.486L59.6475 39.8131ZM33.6357 39.6666C33.6093 39.9115 33.5862 40.1569 33.5664 40.403L32.0195 40.2789C32.0405 40.0186 32.0647 39.7588 32.0928 39.4996L33.6357 39.6666ZM47.2441 37.5592C47.1763 38.0621 47.1131 38.5678 47.0557 39.0739L45.5137 38.8981C45.5723 38.3811 45.6358 37.8647 45.7051 37.3512L47.2441 37.5592ZM60.0908 36.7799C60.0496 37.2883 59.9922 37.7959 59.9189 38.3014L58.3828 38.0787C58.4512 37.6066 58.5033 37.1313 58.542 36.6539L60.0908 36.7799ZM34.1162 36.7448C34.0092 37.2264 33.9162 37.7115 33.8359 38.1989L32.3047 37.9469C32.3896 37.4312 32.4883 36.9175 32.6016 36.4078L34.1162 36.7448ZM47.7139 34.5436C47.6255 35.0424 47.5425 35.5445 47.4639 36.0485L45.9297 35.8092C46.01 35.2945 46.0954 34.7814 46.1855 34.2721L47.7139 34.5436ZM34.9189 33.8942C34.759 34.362 34.613 34.8345 34.4795 35.3092L32.9844 34.8893C33.1257 34.3869 33.2801 33.8871 33.4492 33.3922L34.9189 33.8942ZM60.1621 33.7272C60.178 34.2349 60.1804 34.7441 60.1689 35.2526L58.6162 35.2184C58.627 34.7388 58.6245 34.2571 58.6094 33.776L60.1621 33.7272ZM48.3086 31.5475C48.2003 32.0418 48.0954 32.5409 47.9961 33.0426L46.4736 32.7408C46.575 32.2289 46.6805 31.7198 46.791 31.2155L48.3086 31.5475ZM36.0283 31.149C35.8181 31.5977 35.6201 32.0509 35.4355 32.5074L33.9971 31.9244C34.1919 31.4424 34.3994 30.9642 34.6211 30.4908L36.0283 31.149ZM59.918 30.6969C59.9818 31.1981 60.0342 31.7031 60.0752 32.2086L58.5273 32.3346C58.4883 31.8537 58.4379 31.3727 58.377 30.8942L59.918 30.6969ZM49.0215 28.5807C48.8935 29.0689 48.7692 29.563 48.6494 30.0612L47.1396 29.6979C47.262 29.1891 47.3888 28.6849 47.5195 28.1862L49.0215 28.5807ZM37.4268 28.5348C37.1699 28.9599 36.9246 29.3899 36.6924 29.8239L35.3232 29.0914C35.5683 28.6334 35.8259 28.1793 36.0967 27.7311L37.4268 28.5348ZM59.4082 27.7096C59.5123 28.2009 59.6081 28.6976 59.6934 29.1969L58.1631 29.4596C58.0814 28.9812 57.9906 28.505 57.8906 28.0328L59.4082 27.7096ZM39.0889 26.0758C38.7897 26.4738 38.5013 26.8762 38.2256 27.2838L36.9404 26.4147C37.2306 25.9856 37.5341 25.5616 37.8486 25.1432L39.0889 26.0758ZM49.8564 25.6451C49.7083 26.1257 49.5654 26.6143 49.4248 27.108L47.9307 26.6823C48.0742 26.178 48.2226 25.6793 48.374 25.1881L49.8564 25.6451ZM58.6738 24.7789C58.8122 25.2588 58.9449 25.7458 59.0684 26.2379L57.5615 26.6149C57.4427 26.1411 57.3161 25.6716 57.1826 25.2086L58.6738 24.7789ZM40.9883 23.7877C40.6515 24.1563 40.3254 24.531 40.0107 24.9098L38.8154 23.9176C39.1457 23.52 39.4888 23.1281 39.8418 22.7418L40.9883 23.7877ZM50.8213 22.7526C50.6518 23.2239 50.485 23.7053 50.3223 24.194L48.8496 23.7028C49.0162 23.2026 49.1866 22.7103 49.3604 22.2272L50.8213 22.7526ZM57.7432 21.9088C57.9113 22.3754 58.0763 22.8516 58.2334 23.3356L56.7559 23.8151C56.604 23.3472 56.4459 22.8867 56.2832 22.4352L57.7432 21.9088ZM43.0947 21.6832C42.7251 22.0208 42.3655 22.3642 42.0166 22.7125L40.9199 21.6149C41.2853 21.2501 41.6623 20.8898 42.0488 20.5367L43.0947 21.6832ZM51.9248 19.9166C51.732 20.3748 51.5415 20.8456 51.3545 21.3268L49.9062 20.7643C50.0984 20.27 50.2945 19.785 50.4932 19.3131L51.9248 19.9166ZM56.6338 19.1061C56.8287 19.5571 57.0215 20.0218 57.21 20.4977L55.7656 21.069C55.5831 20.6082 55.3968 20.158 55.208 19.7213L56.6338 19.1061ZM45.3799 19.7701C44.9825 20.0758 44.5949 20.3871 44.2168 20.7037L43.2188 19.5133C43.6137 19.1826 44.0191 18.8575 44.4336 18.5387L45.3799 19.7701ZM47.8164 18.0455C47.3959 18.319 46.9837 18.5978 46.5811 18.8824L45.6846 17.6158C46.104 17.3193 46.5332 17.0283 46.9707 16.7438L47.8164 18.0455ZM53.1895 17.1588C52.9693 17.5983 52.7498 18.0558 52.5342 18.527L51.123 17.8795C51.3458 17.3929 51.5723 16.9207 51.8008 16.4645L53.1895 17.1588ZM55.3486 16.3766C55.5698 16.8093 55.7935 17.2615 56.0146 17.7321L54.6094 18.3932C54.3956 17.9384 54.181 17.5009 53.9678 17.0836L55.3486 16.3766ZM50.3838 16.5084C49.9431 16.751 49.5101 16.9987 49.0859 17.2526L48.2881 15.9215C48.7284 15.658 49.1779 15.4006 49.6348 15.149L50.3838 16.5084ZM54.6377 15.0426L54.1953 15.2897C54.0943 15.464 53.9922 15.6412 53.8916 15.8229L53.5645 15.6422L53.2822 15.7994C53.1944 15.6421 53.105 15.4897 53.0186 15.3405L52.5332 15.0709C52.6624 14.8376 52.7924 14.6092 52.9229 14.3864L53.5928 14.7799L54.2637 14.3864C54.3871 14.5972 54.5117 14.8167 54.6377 15.0426ZM52.3789 15.4772C52.153 15.5867 51.9291 15.6988 51.707 15.8112L51.0049 14.4254C51.2351 14.3089 51.4691 14.1932 51.7031 14.0797L52.3789 15.4772Z" fill="#80CAFF"/>
<path d="M53.1313 10.4805L55.2573 10.7706C56.7163 10.9691 57.7739 12.3172 57.6186 13.7813C57.5663 14.2725 57.381 14.7125 57.1069 15.0753C59.8852 16.4235 62.9799 18.8401 65.2397 22.3341C68.5987 27.5276 70.0748 35.0285 66.1811 44.8175L66.1039 44.9766C65.8973 45.3293 65.5156 45.5509 65.0981 45.5509C63.7584 45.5508 62.1104 45.2943 60.2661 44.9552C58.3761 44.6077 56.2784 44.1746 53.8657 43.7608C49.0833 42.9406 43.2921 42.2457 36.727 42.71C35.0377 42.8294 32.7943 42.9657 30.6586 43.3028C28.4688 43.6486 26.6365 44.1735 25.6332 44.9298L25.4799 45.0264C25.1086 45.2243 24.6531 45.2078 24.2934 44.9718C23.8828 44.7017 23.6857 44.2033 23.8012 43.7257L27.144 29.9122C27.156 29.8627 27.1725 29.8142 27.1909 29.7667C30.2377 21.8881 35.2841 17.6325 40.3793 15.502C43.893 14.0329 47.4003 13.5867 50.2514 13.6182C50.1939 13.3464 50.1759 13.0624 50.2065 12.7735C50.3623 11.3094 51.6721 10.2823 53.1313 10.4805ZM53.1967 16.1876C50.4328 15.7408 45.8483 15.74 41.2788 17.6505C36.7637 19.5382 32.2014 23.3144 29.3881 30.5411L26.6479 41.8565C27.7958 41.4621 29.0698 41.1967 30.2963 41.003C32.5535 40.6467 34.9114 40.5025 36.5629 40.3858C43.3873 39.9032 49.382 40.6287 54.2582 41.4649C56.6745 41.8793 58.8756 42.3332 60.686 42.6661C62.1285 42.9313 63.3298 43.1191 64.31 43.1905C67.57 34.4356 66.1191 27.9828 63.2836 23.5987C60.3124 19.005 55.7792 16.6045 53.1967 16.1876Z" fill="#1A1A1A"/>
<path d="M26.9594 29.0683C21.8113 31.6005 20.2368 36.5035 24.8935 44.3702C26.9594 43.4232 32.8931 41.7899 37.4467 41.5307C43.7971 41.1674 47.4891 41.5306 55.0208 42.4777C49.8857 26.9957 32.1075 26.5346 26.9594 29.0683Z" fill="#034AC1"/>
<path d="M32.7607 26.7536C35.3468 26.6791 38.338 26.9968 41.3324 27.9029C47.3394 29.7205 53.4148 33.9334 56.1271 42.1108C56.253 42.4902 56.1747 42.9087 55.9209 43.2176C55.6672 43.5261 55.2726 43.6827 54.8762 43.633L55.0217 42.4777H55.0202L54.8762 43.633C47.3656 42.6886 43.7561 42.3358 37.5128 42.693C35.3311 42.8172 32.7838 43.2744 30.512 43.824C28.2269 44.3769 26.3112 45.001 25.3793 45.4281C24.8374 45.6765 24.1954 45.4756 23.8918 44.9627C21.4976 40.918 20.5773 37.4309 21.1033 34.5118C21.6411 31.5275 23.6373 29.4054 26.4452 28.0241C27.9383 27.2893 30.1995 26.8274 32.7607 26.7536ZM32.8274 29.0809C30.4468 29.1495 28.5542 29.5814 27.4733 30.1134C25.1339 31.2642 23.7682 32.8594 23.3959 34.9257C23.0417 36.8927 23.5456 39.5104 25.402 42.9052C26.5782 42.4699 28.1992 41.9872 29.9631 41.5604C32.3127 40.9919 35.0093 40.5037 37.3809 40.3687C43.266 40.0321 46.9235 40.313 53.2431 41.0843C50.5876 34.9264 45.654 31.6434 40.6577 30.1316C37.9223 29.3039 35.183 29.0131 32.8274 29.0809Z" fill="#1A1A1A"/>
</svg>
