<svg width="75" height="86" viewBox="0 0 75 86" fill="none" xmlns="http://www.w3.org/2000/svg">
<path d="M50.6186 75.0807C50.8706 75.3027 51.0151 75.621 51.0151 75.9563V83.9198H61.5202C63.7663 79.2029 67.7308 68.2506 67.7308 57.4751C67.7308 43.7635 54.1252 30.354 38.1308 30.354C30.0869 30.354 21.4224 33.0401 14.7907 38.419C8.1879 43.7745 3.57227 51.8163 3.57227 62.6588C3.57227 73.7889 5.88033 78.5927 8.42155 80.7105C10.6286 82.5488 13.2266 82.5985 15.6678 82.5768V76.6473C14.6675 76.7094 13.5433 76.714 12.5439 76.551C10.9308 76.2891 9.26786 75.3859 9.26786 73.5373C9.26786 70.5672 10.657 68.7459 12.3633 67.7321C13.9871 66.7663 15.8215 66.5654 16.8322 66.5654C17.8477 66.5654 20.4628 66.6388 22.7673 69.2055C24.9185 71.6012 26.6244 75.9796 26.7756 83.9198H36.9663V75.9563C36.9663 75.621 37.1115 75.3011 37.3645 75.0791C37.8243 74.6786 38.3395 74.813 38.8703 74.8757C39.2387 74.9207 39.7544 74.9797 40.3428 75.0387C41.5309 75.1583 42.9731 75.2701 44.095 75.2623C45.1822 75.2546 46.5749 75.1412 47.7184 75.0263C48.2853 74.9704 48.782 74.913 49.1368 74.8711C49.6598 74.8069 50.1672 74.6858 50.6186 75.0807Z" fill="#D9B8FF"/>
<path fill-rule="evenodd" clip-rule="evenodd" d="M38.1307 29.1895C29.8478 29.1895 20.9171 31.9505 14.0571 37.5145C7.19702 43.0787 2.40771 51.446 2.40771 62.6587C2.40771 73.8713 4.71803 79.1399 7.67598 81.605C10.2465 83.746 13.2601 83.7626 15.6781 83.7411C16.3171 83.7354 16.8322 83.2158 16.8322 82.5767V76.6472C16.8322 76.3258 16.6993 76.0187 16.4652 75.7986C16.231 75.5786 15.9163 75.465 15.5955 75.4849C14.6324 75.5447 13.6059 75.5443 12.7305 75.4015C12.4399 75.3543 12.1619 75.2843 11.9066 75.1939C11.5637 75.0726 11.2616 74.9148 11.0245 74.7267C10.6455 74.4261 10.4323 74.0578 10.4323 73.5373C10.4323 71.003 11.5832 69.55 12.9585 68.7328C14.3341 67.9147 15.9343 67.7298 16.8322 67.7298C17.7314 67.7298 19.9283 67.7866 21.9008 69.9834C23.3418 71.5882 24.6647 74.3376 25.272 79.0486C25.4576 80.4886 25.5764 82.1119 25.6113 83.9419C25.6233 84.5763 26.141 85.0842 26.7755 85.0842H36.9662C37.6093 85.0842 38.1307 84.5628 38.1307 83.9197V75.9674L38.8646 76.0479L40.2266 76.1973C41.4239 76.3178 42.9168 76.4349 44.1033 76.4267C45.9632 76.4134 47.8085 76.183 49.6537 75.9785C49.7532 75.9675 49.8122 75.9653 49.8506 75.9669V83.9197C49.8506 84.5628 50.3719 85.0842 51.0151 85.0842H61.5202C61.9693 85.0842 62.3784 84.8259 62.5715 84.4203C64.8594 79.6155 68.8952 68.4863 68.8952 57.475C68.8952 43.0513 54.697 29.1895 38.1307 29.1895ZM38.1307 31.5184C30.3258 31.5184 21.9276 34.1295 15.5242 39.3233C15.4718 39.3658 15.4195 39.4085 15.3674 39.4513C13.8822 40.6719 12.5036 42.0348 11.2644 43.5423C8.38839 47.0413 6.26391 51.3195 5.30397 56.4074C4.93367 58.3701 4.73666 60.4533 4.73666 62.6587C4.73666 73.3652 6.90229 77.771 8.96975 79.6444C9.03553 79.704 9.10122 79.7611 9.16674 79.8157C10.7171 81.1069 12.5074 81.3711 14.5032 81.4093V77.8515C13.7951 77.8537 13.0562 77.8143 12.3564 77.7002C10.2001 77.3499 8.10331 75.978 8.10331 73.5373C8.10331 70.4792 9.41542 68.4017 11.158 67.1329C11.3563 66.9885 11.5602 66.8546 11.7684 66.7309C13.6402 65.6178 15.7086 65.4008 16.8322 65.4008C17.9637 65.4008 20.997 65.4909 23.6337 68.4274C25.5519 70.5637 27.0374 73.9646 27.648 79.2966C27.7619 80.2914 27.8454 81.3534 27.8955 82.4869C27.8994 82.5759 27.9032 82.6654 27.9067 82.7552H35.8017V75.9563C35.8017 75.2843 36.0925 74.6459 36.5965 74.2037L36.5996 74.201C37.6214 73.3108 39.2322 73.757 40.4593 73.88C41.6381 73.9987 43.0297 74.1051 44.0869 74.0978C45.1174 74.0904 46.4657 73.9818 47.6019 73.8676L47.6041 73.8674C48.8292 73.7466 50.3638 73.3105 51.3853 74.2042L51.3883 74.2069C51.8896 74.6486 52.1795 75.2844 52.1795 75.9563V82.7552H60.7771C63.0165 77.8178 66.5662 67.5391 66.5662 57.475C66.5662 44.4755 53.5532 31.5184 38.1307 31.5184Z" fill="#1A1A1A"/>
<path d="M68.1247 53.0251C67.5688 52.7016 66.856 52.89 66.5325 53.4459C66.2091 54.0018 66.3975 54.7146 66.9534 55.038C68.0953 55.7025 72.5415 59.4047 70.7652 68.1389C70.7244 68.1791 70.6865 68.2223 70.652 68.2682L70.6495 68.2704C70.5546 68.3544 70.4305 68.4765 70.3534 68.5524C70.3268 68.5785 70.3059 68.5991 70.2935 68.6109L70.2814 68.6224C69.7608 69.118 69.2784 69.6437 68.7398 70.1213C68.4055 70.4176 68.0428 71.0196 67.9145 71.3341L67.7286 72.117C67.584 72.7437 67.9747 73.3689 68.6013 73.5136C69.1108 73.6312 69.6941 73.3842 69.9442 72.955C69.856 73.4103 69.8334 73.4844 69.8092 73.7573C69.7838 74.0439 69.7638 74.3292 69.7455 74.6042C69.7029 75.2459 70.1885 75.8007 70.8302 75.8434C71.4719 75.886 72.0267 75.4004 72.0694 74.7587C72.0762 74.6563 72.083 74.5549 72.0902 74.4543C72.3028 74.682 72.6055 74.8243 72.9416 74.8243C73.5847 74.8243 74.106 74.303 74.106 73.6598C74.106 73.2838 74.1023 72.7747 73.9791 72.2561C73.9257 72.0325 73.8879 71.7939 73.8473 71.512L73.8301 71.3919C73.7958 71.1508 73.647 70.5349 73.5293 69.9306C73.4116 69.3263 73.072 68.4808 73.072 68.4808C75.0059 58.7332 70.0104 54.1224 68.1247 53.0251Z" fill="#1A1A1A"/>
<path fill-rule="evenodd" clip-rule="evenodd" d="M26.7229 38.6602C25.3804 39.9099 24.5922 41.3382 24.3961 42.0667C24.229 42.6877 23.59 43.0557 22.969 42.8885C22.348 42.7213 21.9801 42.0824 22.1472 41.4614C22.4809 40.2218 23.55 38.432 25.136 36.9555C26.7454 35.4573 29.0153 34.1633 31.8004 34.1633C33.3857 34.1633 36.0372 34.4751 38.3149 36.2079C40.6527 37.9865 42.3878 41.0996 42.3878 46.265C42.3878 51.517 39.9715 55.8733 37.0136 58.7949C35.5339 60.2563 33.8956 61.383 32.3112 62.0933C30.7508 62.7928 29.1303 63.1373 27.7334 62.8677C25.0853 62.3567 23.3646 60.411 22.4878 58.0895C21.6162 55.7818 21.5202 52.9918 22.1399 50.4314C22.2911 49.8063 22.9205 49.4223 23.5456 49.5735C24.1707 49.7248 24.5547 50.3542 24.4035 50.9793C23.8787 53.1475 23.9819 55.4537 24.6666 57.2666C25.3461 59.0658 26.5389 60.2653 28.1747 60.581C28.92 60.7248 30.0292 60.5641 31.3584 59.9682C32.6636 59.3831 34.0748 58.4241 35.377 57.1379C37.9826 54.5642 40.0589 50.7774 40.0589 46.265C40.0589 41.6658 38.5464 39.3104 36.9048 38.0614C35.2029 36.7668 33.1429 36.4922 31.8004 36.4922C29.7715 36.4922 28.0418 37.4324 26.7229 38.6602Z" fill="#1A1A1A"/>
<path d="M19.451 56.4211C20.0937 56.4216 20.6139 56.9428 20.6139 57.5856C20.6138 58.2285 20.0938 58.7498 19.451 58.7501H16.4155C15.7725 58.75 15.2511 58.2286 15.251 57.5856C15.251 56.9426 15.7724 56.4213 16.4155 56.4211H19.451Z" fill="#1A1A1A"/>
<path fill-rule="evenodd" clip-rule="evenodd" d="M13.9997 62.1985C14.4751 61.7653 15.2116 61.7996 15.6447 62.275C16.9705 63.7302 16.8663 65.9843 15.4122 67.311L14.9374 67.7435C14.4619 68.1766 13.7254 68.1422 13.2924 67.6667C12.8593 67.1913 12.8937 66.4548 13.3691 66.0217L13.8424 65.5906C13.8426 65.5905 13.8423 65.5907 13.8424 65.5906C14.3466 65.1302 14.3829 64.3482 13.9231 63.8435C13.49 63.3681 13.5243 62.6316 13.9997 62.1985Z" fill="#1A1A1A"/>
<path d="M6.52364 56.4211C5.88089 56.4216 5.36067 56.9428 5.36069 57.5856C5.36077 58.2285 5.88086 58.7498 6.52364 58.7501H9.55916C10.2021 58.75 10.7235 58.2286 10.7236 57.5856C10.7236 56.9426 10.2022 56.4213 9.55916 56.4211H6.52364Z" fill="#1A1A1A"/>
</svg>
