<svg width="75" height="86" viewBox="0 0 75 86" fill="none" xmlns="http://www.w3.org/2000/svg">
<path d="M52.0643 50.3987C59.3803 50.3987 65.5536 55.2739 67.5285 61.9503C68.929 62.7576 69.8683 64.2326 69.8683 65.925C69.8683 67.1205 69.3963 68.2074 68.6278 69.0303C69.3963 69.8532 69.8683 70.94 69.8683 72.1355C69.8683 73.5484 69.2085 74.8215 68.1729 75.6755C68.2629 76.0326 68.3157 76.4053 68.3157 76.7934C68.3157 79.3708 66.2305 81.4513 63.6578 81.4513C62.807 81.4513 62.012 81.2184 61.3257 80.8147C60.4625 82.3673 58.9657 83.3921 57.2641 83.3921C56.8588 83.3921 56.4645 83.3299 56.0872 83.2212C55.2068 84.277 53.974 84.9447 52.6062 84.9447C51.4231 84.9447 50.3394 84.4478 49.4994 83.6249C48.6594 84.4478 47.5772 84.9447 46.3956 84.9447C45.2125 84.9447 44.1288 84.4478 43.2889 83.6249C42.4489 84.4478 41.3667 84.9447 40.1851 84.9447C38.5968 84.9447 37.1854 84.0442 36.3035 82.6779C35.4201 84.0442 34.0103 84.9447 32.422 84.9447C31.2389 84.9447 30.1552 84.4478 29.3152 83.6249C28.4752 84.4478 27.393 84.9447 26.2114 84.9447C24.5843 84.9447 23.1465 84.0131 22.2693 82.5847C22.0985 82.5537 21.9308 82.5381 21.7632 82.5071C20.9403 83.5318 19.7773 84.1684 18.4824 84.1684C17.1674 84.1684 15.9874 83.5163 15.1629 82.4605C14.5853 82.802 13.9162 83.0039 13.1973 83.0039C11.0531 83.0039 9.31571 81.265 9.31571 79.1224C9.31571 78.1287 9.68833 77.2281 10.297 76.5449C8.81885 76.0015 7.76308 74.5732 7.76308 72.9118C7.76308 72.415 7.85624 71.9492 8.02392 71.5144C6.98055 71.1884 6.21045 70.086 6.21045 68.7662C6.21045 68.5644 6.22751 68.3781 6.26167 68.1762C6.22751 67.9589 6.21045 67.7105 6.21045 67.4776C6.21045 65.9871 6.90915 64.6673 7.99289 63.8133C9.28312 56.2055 15.9098 50.3987 23.8934 50.3987H52.0643Z" fill="white"/>
<path d="M22.501 80.2565C23.134 80.3245 23.7102 80.6414 24.0991 81.1359L24.2537 81.3588L24.4615 81.6621C24.9691 82.3189 25.6148 82.6157 26.2112 82.6158V84.9447C24.5843 84.9446 23.1462 84.0136 22.269 82.5855C22.0982 82.5544 21.9302 82.5377 21.7625 82.5066L22.0673 80.2095C22.2754 80.225 22.3798 80.241 22.501 80.2565Z" fill="#1A1A1A"/>
<path d="M29.3104 83.6286C28.471 84.449 27.3907 84.9447 26.2112 84.9447V82.6158C26.7158 82.6158 27.2331 82.3985 27.691 81.9638L29.3104 83.6286Z" fill="#1A1A1A"/>
<path d="M30.9388 81.9638C31.3968 82.3985 31.9141 82.6157 32.4217 82.6158V84.9447C31.2402 84.9447 30.1574 84.4496 29.318 83.6286L30.9388 81.9638Z" fill="#1A1A1A"/>
<path d="M36.3033 80.349C37.0951 80.349 37.8338 80.7534 38.2623 81.421C38.7901 82.2436 39.5174 82.6157 40.1849 82.6158V84.9447C38.5966 84.9446 37.1852 84.0442 36.3033 82.678C35.4198 84.0442 34.01 84.9447 32.4217 84.9447V82.6158C33.0892 82.6158 33.8149 82.2436 34.3443 81.421L34.5187 81.1829C34.9577 80.6583 35.609 80.3491 36.3033 80.349Z" fill="#1A1A1A"/>
<path d="M43.2841 83.6286C42.4447 84.449 41.3644 84.9447 40.1849 84.9447V82.6158C40.6894 82.6158 41.2067 82.3985 41.6647 81.9638L43.2841 83.6286Z" fill="#1A1A1A"/>
<path d="M44.9125 81.9638C45.3705 82.3985 45.8878 82.6157 46.3954 82.6158V84.9447C45.2139 84.9447 44.1311 84.4496 43.2917 83.6286L44.9125 81.9638Z" fill="#1A1A1A"/>
<path d="M49.4946 83.6286C48.6552 84.449 47.5749 84.9447 46.3954 84.9447V82.6158C46.9 82.6158 47.4173 82.3985 47.8753 81.9638L49.4946 83.6286Z" fill="#1A1A1A"/>
<path d="M51.123 81.9638C51.581 82.3985 52.0983 82.6157 52.6059 82.6158V84.9447C51.4245 84.9447 50.3416 84.4496 49.5022 83.6286L51.123 81.9638Z" fill="#1A1A1A"/>
<path d="M54.295 81.7303C54.8881 81.0161 55.8465 80.7219 56.7362 80.9858C56.91 81.0324 57.0854 81.0631 57.2638 81.0632V83.3921C56.8587 83.3921 56.4644 83.3294 56.0872 83.2208C55.2069 84.2766 53.9738 84.9447 52.6059 84.9447V82.6158C53.1835 82.6158 53.792 82.3358 54.295 81.7303Z" fill="#1A1A1A"/>
<path d="M13.9797 80.4582C14.9198 79.9052 16.1097 80.0745 16.8484 80.8524L16.9909 81.0162L17.1638 81.2163C17.5781 81.6491 18.048 81.8395 18.4829 81.8395V84.1684L18.2373 84.1608C17.0212 84.0853 15.9352 83.4508 15.1623 82.4611C14.5849 82.8025 13.9159 83.0039 13.1973 83.0039V80.675C13.4766 80.675 13.7407 80.5978 13.9797 80.4582Z" fill="#1A1A1A"/>
<path d="M21.758 82.5112C20.9354 83.5329 19.7755 84.1683 18.4829 84.1684V81.8395C18.9717 81.8393 19.5021 81.6064 19.9521 81.048L21.758 82.5112Z" fill="#1A1A1A"/>
<path d="M27.691 81.9638C28.5946 81.0788 30.0352 81.0789 30.9388 81.9638L29.3149 83.6256L27.691 81.9638Z" fill="#1A1A1A"/>
<path d="M41.6647 81.9638C42.5683 81.0788 44.0089 81.0789 44.9125 81.9638L43.2886 83.6256L41.6647 81.9638Z" fill="#1A1A1A"/>
<path d="M47.8753 81.9638C48.7789 81.0788 50.2194 81.0789 51.123 81.9638L49.4992 83.6256L47.8753 81.9638Z" fill="#1A1A1A"/>
<path d="M61.3213 80.8206C60.4575 82.3696 58.9632 83.3921 57.2638 83.3921V81.0632C57.9733 81.0632 58.7646 80.6289 59.2941 79.6819L61.3213 80.8206Z" fill="#1A1A1A"/>
<path d="M7.99203 63.8129L9.43398 65.646C8.88283 66.0807 8.5394 66.7324 8.5394 67.4776C8.5394 67.5472 8.54123 67.6091 8.54546 67.6672L8.56366 67.8355L8.58488 68.0235C8.5982 68.2141 8.58793 68.4089 8.55304 68.5951L6.28323 68.1797L6.26049 68.1842L8.55304 68.5951C8.54528 68.6417 8.5394 68.7043 8.5394 68.7664C8.53943 68.9682 8.6002 69.1236 8.65918 69.2168C8.69038 69.2624 8.71516 69.2856 8.72741 69.2956L8.71831 69.2941C9.33301 69.4805 9.83986 69.9312 10.1208 70.5056C10.4002 71.0798 10.4293 71.747 10.1982 72.3523C10.1283 72.5387 10.092 72.7255 10.092 72.9118C10.092 73.4823 10.4089 73.9939 10.8896 74.2689L11.1064 74.372L11.3672 74.4857C11.9574 74.7885 12.3928 75.3344 12.5559 75.9868C12.7419 76.7318 12.548 77.5231 12.0374 78.0974L10.2982 76.5463L10.2967 76.5523L12.0374 78.0974C11.7889 78.3769 11.6447 78.7342 11.6447 79.1224C11.6447 79.9763 12.3402 80.675 13.1973 80.675V83.0039C11.0531 83.0039 9.31571 81.265 9.31571 79.1224C9.31571 78.1287 9.6881 77.2279 10.2967 76.5448C8.81876 76.0013 7.76308 74.5731 7.76308 72.9118C7.76308 72.415 7.85619 71.9486 8.02387 71.5139C7.0457 71.2081 6.30782 70.2204 6.21955 69.0106L6.21045 68.7664C6.21045 68.5647 6.22788 68.3783 6.262 68.1766C6.22784 67.9592 6.21045 67.7105 6.21045 67.4776C6.21045 65.9872 6.90847 64.6668 7.99203 63.8129Z" fill="#1A1A1A"/>
<path d="M22.0673 80.2095L21.7625 82.5066L19.9521 81.048C20.4629 80.4115 21.2631 80.1009 22.0673 80.2095Z" fill="#1A1A1A"/>
<path d="M62.4949 78.8115C62.8442 79.0134 63.2386 79.1224 63.6578 79.1224V81.4513C62.8082 81.4513 62.0145 81.2186 61.3289 80.816L62.4949 78.8115Z" fill="#1A1A1A"/>
<path d="M65.9868 76.7934C65.9868 76.7079 65.9808 76.6184 65.9686 76.525L65.9125 76.2339L65.8776 76.0702C65.7359 75.2513 66.0428 74.4131 66.6918 73.8747L68.1717 75.6744L68.1732 75.676C68.2632 76.0329 68.3157 76.4055 68.3157 76.7934C68.3157 79.3708 66.2305 81.4513 63.6578 81.4513V79.1224C64.9434 79.1224 65.9868 78.0821 65.9868 76.7934Z" fill="#1A1A1A"/>
<path d="M60.7087 78.5796C61.3111 78.4088 61.9546 78.4856 62.4949 78.8115L61.3258 80.8145L59.2941 79.6819C59.5983 79.1387 60.1082 78.735 60.7087 78.5796Z" fill="#1A1A1A"/>
<path d="M67.5394 72.1355C67.5394 71.5766 67.3212 71.048 66.9253 70.6132C66.0916 69.7282 66.0916 68.3323 66.9253 67.4473C67.3212 67.0126 67.5394 66.4839 67.5394 65.925C67.5394 65.2319 67.204 64.5745 66.6206 64.1298L66.3567 63.9539L66.1702 63.8341C65.752 63.5366 65.4421 63.1054 65.2954 62.6029L67.5227 61.9524L67.5258 61.9449C67.5263 61.9468 67.5282 61.949 67.5288 61.9509C68.929 62.7584 69.8683 64.2328 69.8683 65.925C69.8683 67.1205 69.3965 68.2074 68.6281 69.0303C69.3965 69.8531 69.8683 70.9401 69.8683 72.1355C69.8683 73.5466 69.2095 74.8175 68.1762 75.6714L66.6918 73.8747C67.2321 73.4244 67.5394 72.8032 67.5394 72.1355Z" fill="#1A1A1A"/>
<path d="M52.7469 50.4123C59.7591 50.7045 65.6099 55.4785 67.5258 61.9418L65.2954 62.6029C63.603 56.8893 58.3185 52.7278 52.0646 52.7276H23.8929C17.0648 52.7279 11.3932 57.6959 10.2891 64.201C10.1929 64.7755 9.88735 65.2889 9.43398 65.646L7.99203 63.8129C9.28248 56.2054 15.9097 50.3989 23.8929 50.3987H52.0646L52.7469 50.4123Z" fill="#1A1A1A"/>
<path d="M36.8703 30.5977C52.6264 30.5977 64.9574 42.289 70.8077 49.1097C73.3043 52.0132 73.8105 56.0189 72.587 59.6521L71.7393 62.1673C70.6695 65.3347 67.2723 67.0892 64.1314 65.9092C55.2845 62.6176 45.9858 58.2703 37.1078 58.2703C29.2608 58.2703 19.5149 62.8971 10.7938 66.0955C7.78637 67.1824 4.54758 65.5832 3.38622 62.6021L2.26524 59.7142C0.839923 56.05 1.21564 51.92 3.7278 48.8923C9.41819 42.0561 21.2725 30.5977 36.8703 30.5977Z" fill="#D9D9D9"/>
<path d="M59.2925 38.4854C60.5715 39.3947 61.782 40.3381 62.9194 41.2904C63.1924 42.5028 63.4622 43.8349 63.7093 45.1462C64.6111 49.9362 64.0555 54.8994 62.375 59.0016L60.1643 64.3767C59.2997 64.0375 58.4315 63.6958 57.561 63.3563L59.7883 57.9418C61.2624 54.3433 61.766 49.9291 60.9634 45.6648L60.5176 43.401C60.0688 41.2307 59.6195 39.4018 59.2561 38.5005L59.2925 38.4854Z" fill="#B3B3B3"/>
<path d="M8.24671 43.9833C8.62988 44.2508 9.01505 44.5239 9.39299 44.799C12.2202 46.8576 14.0092 49.9901 14.7226 53.4552L16.721 63.191L13.9842 63.752L11.9858 54.0177C11.4259 51.2987 10.1021 48.9535 8.14664 47.366L7.74787 47.0582C7.25294 46.698 6.75518 46.3437 6.26953 46.0105C6.88691 45.3498 7.54625 44.6705 8.24671 43.9833Z" fill="#B3B3B3"/>
<path d="M19.3183 35.5075C20.3436 36.3927 21.4072 37.3557 22.3963 38.2822C24.943 40.6661 26.3704 43.9914 26.7009 47.5525L27.8229 59.6961C26.9217 59.9638 26.0132 60.2608 25.0982 60.574L23.9186 47.8103C23.6404 44.8133 22.4554 42.1638 20.4873 40.3215C19.2873 39.1975 17.9884 38.0347 16.8029 37.0389C17.6158 36.5076 18.4553 35.9964 19.3183 35.5075Z" fill="#B3B3B3"/>
<path d="M48.9669 32.8829C50.0571 33.2946 51.1182 33.7559 52.1525 34.2505C52.6074 36.3059 53.0905 38.723 53.505 41.0327C54.3609 45.8089 53.5431 50.5897 51.5961 54.3619L51.1912 55.1019L48.327 60.0721C47.3981 59.7927 46.4706 59.5334 45.5447 59.3034L48.7698 53.7069C50.671 50.4096 51.5524 45.9806 50.7545 41.5269C50.1865 38.3619 49.5084 35.107 48.9669 32.8829Z" fill="#B3B3B3"/>
<path d="M38.2016 35.1724C40.3464 39.4651 41.1785 44.5101 40.4866 49.0687L40.3274 49.9739L38.6837 58.1874C38.0948 58.1505 37.5079 58.1313 36.9234 58.1313C36.5653 58.1313 36.203 58.1425 35.8378 58.1616L37.586 49.4266L37.724 48.6427C38.3225 44.6887 37.603 40.2279 35.7013 36.4218C34.7927 34.6039 33.8123 32.6464 32.9114 30.845C33.8977 30.7221 34.9011 30.6434 35.9212 30.613C36.6743 32.1196 37.4619 33.6926 38.2016 35.1724Z" fill="#B3B3B3"/>
<path d="M36.8704 30.2144C52.8123 30.2145 65.2473 42.1826 71.0116 48.9612C73.3751 51.7408 73.9398 55.5305 72.9205 59.0305L71.9486 62.3829L69.7122 61.734L70.6841 58.3816L70.8251 57.8418C71.4514 55.1489 70.9081 52.4345 69.2376 50.4698C63.531 43.7592 51.7013 32.5434 36.8704 32.5433C22.222 32.5433 10.8801 43.4936 5.33557 50.2197L5.33709 50.2212C3.65322 52.2698 3.19076 55.0831 3.96792 57.8236L4.14077 58.371L5.42351 62.0979C6.09929 64.0503 8.13318 65.039 9.96314 64.4056C11.4194 63.896 12.9217 63.3542 14.4482 62.7969L14.4542 62.7954C17.393 61.743 20.4518 60.6301 23.438 59.6901C27.9803 58.2667 32.62 57.1686 36.8704 57.1686C45.1357 57.1687 53.9982 60.3249 61.9642 63.1638L65.0012 64.2328L65.0133 64.2358C66.9637 64.9213 69.1058 63.8183 69.7122 61.734L71.9486 62.3829C70.9844 65.6976 67.5076 67.5746 64.2507 66.4359L61.1985 65.3639L61.1909 65.3608L58.1493 64.2828C51.02 61.7854 43.6854 59.4976 36.8704 59.4975C32.9788 59.4975 28.6108 60.5105 24.1355 61.9129L24.1339 61.9114C21.2024 62.8343 18.1968 63.9289 15.2397 64.9878L15.2381 64.9863C13.7071 65.5453 12.1954 66.0904 10.7273 66.6042L10.7243 66.6057L10.4332 66.6982C7.51226 67.5439 4.46889 65.9775 3.3311 63.1456L3.22345 62.859L4.32424 62.4785L4.85795 62.292L3.22345 62.859L1.93919 59.1321L1.72843 58.4619C0.774232 55.0946 1.29718 51.4682 3.53731 48.7428L3.53882 48.7413C9.15224 41.9313 21.0982 30.2144 36.8704 30.2144Z" fill="#1A1A1A"/>
<path d="M40.0272 73.1493C40.487 73.5986 41.2243 73.5908 41.6738 73.1311C42.1231 72.6712 42.1138 71.9339 41.6541 71.4844L38.5716 68.4701C38.119 68.0277 37.3956 68.0277 36.9431 68.4701L33.8606 71.4844L33.7802 71.5724C33.4022 72.0255 33.4209 72.7 33.8424 73.1311C34.264 73.5621 34.9381 73.5961 35.3996 73.2281L35.489 73.1493L37.7573 70.931L40.0272 73.1493Z" fill="#1A1A1A"/>
<path d="M46.4294 64.867C47.0384 64.7182 47.6962 64.9771 47.9888 65.5162C48.2814 66.0563 48.1106 66.6984 47.6137 67.0566L47.3813 67.1898L45.9953 67.8259L47.2815 68.6008L47.4955 68.7603C47.9433 69.1694 48.0338 69.8259 47.6749 70.3307C47.3156 70.8356 46.6246 71.0218 46.0381 70.8073L45.7955 70.6909L42.5342 68.7227C42.1284 68.4777 41.8944 68.0523 41.9227 67.6063C41.9514 67.1602 42.2382 66.7607 42.6728 66.5613L46.1706 64.957L46.4294 64.867Z" fill="#1A1A1A"/>
<path d="M28.0969 64.867C27.488 64.7182 26.8301 64.9771 26.5376 65.5162C26.245 66.0563 26.4157 66.6984 26.9127 67.0566L27.145 67.1898L28.5311 67.8259L27.2449 68.6008L27.0309 68.7603C26.5831 69.1694 26.4925 69.8259 26.8515 70.3307C27.2108 70.8356 27.9018 71.0218 28.4883 70.8073L28.7308 70.6909L31.9922 68.7227C32.398 68.4777 32.6319 68.0523 32.6037 67.6063C32.5749 67.1602 32.2881 66.7607 31.8536 66.5613L28.3558 64.957L28.0969 64.867Z" fill="#1A1A1A"/>
</svg>
